<?xml version="1.0" encoding="utf-8"?>
<!-- Generator: Adobe Illustrator 23.1.0, SVG Export Plug-In . SVG Version: 6.00 Build 0)  -->
<svg version="1.1" xmlns="http://www.w3.org/2000/svg" xmlns:xlink="http://www.w3.org/1999/xlink" x="0px" y="0px"
	 viewBox="0 0 1920.45 2194.37" style="enable-background:new 0 0 1920.45 2194.37;" xml:space="preserve">
<style type="text/css">
	.st0{opacity:0.87;fill:url(#SVGID_1_);}
	.st1{fill:#33DEA7;}
	.st2{fill:#4890F1;}
	.st3{fill:#0B59C7;}
	.st4{fill:#1A328C;}
	.st5{fill:#367FE1;}
	.st6{fill:#FFFFFF;}
	.st7{fill:none;stroke:#FF1800;stroke-miterlimit:10;}
	.st8{fill:none;stroke:#4890F1;stroke-width:2.4807;stroke-miterlimit:10;}
	.st9{fill:none;stroke:#0B59C7;stroke-width:1.6033;stroke-miterlimit:10;}
	.st10{display:none;}
	.st11{display:inline;fill:none;stroke:#000000;stroke-miterlimit:10;}
	.st12{fill:#CFE2FF;}
	.st13{fill:none;stroke:#34E2AA;stroke-miterlimit:10;}
	.st14{fill:none;stroke:#34E2AA;stroke-width:0.9838;stroke-miterlimit:10;}
	.st15{fill:#34E2AA;fill-opacity:0.12;stroke:#34E2AA;stroke-miterlimit:10;}
	.st16{fill:#1B3390;}
	.st17{fill:#34E2AA;stroke:#1B3390;stroke-miterlimit:10;}
	.st18{fill:#FF8B2B;}
	.st19{opacity:0.5;fill:#4992F5;}
	.st20{fill:#4992F5;}
	.st21{fill:#0B5BCB;}
	.st22{fill:#ADD2FF;}
	.st23{fill:#2EC897;}
	.st24{fill:none;stroke:#4992F5;stroke-width:0.6143;stroke-miterlimit:10;}
	.st25{fill:none;stroke:#4992F5;stroke-width:0.4924;stroke-miterlimit:10;}
	.st26{fill:none;stroke:#4992F5;stroke-width:5;stroke-miterlimit:10;}
	.st27{fill:none;stroke:#0B5BCB;stroke-width:2.2717;stroke-miterlimit:10;}
	.st28{fill:#6078D5;}
	.st29{fill:#FFB87D;}
	.st30{fill:none;stroke:#284DD8;stroke-width:2.678;stroke-miterlimit:10;}
	.st31{fill:none;stroke:#34E2AA;stroke-width:6.3211;stroke-miterlimit:10;}
	.st32{fill:none;stroke:#4992F5;stroke-width:6.3211;stroke-miterlimit:10;}
	.st33{fill:none;stroke:#0B5BCB;stroke-width:2;stroke-miterlimit:10;}
	.st34{fill:#FFEBC9;}
	.st35{fill:#8CA4FB;stroke:#1B3390;stroke-width:1.8878;stroke-miterlimit:10;}
	.st36{fill:none;stroke:#1B3390;stroke-width:2;stroke-miterlimit:10;}
	.st37{fill:none;stroke:#34E2AA;stroke-width:1.8878;stroke-linecap:round;stroke-miterlimit:10;}
	.st38{fill:none;stroke:#34E2AA;stroke-width:1.8878;stroke-linecap:round;stroke-linejoin:round;stroke-miterlimit:10;}
	.st39{clip-path:url(#SVGID_5_);}
	.st40{fill:none;stroke:#F98600;stroke-width:15.7313;stroke-linecap:round;stroke-linejoin:round;stroke-miterlimit:10;}
	.st41{fill:none;stroke:#1B3390;stroke-width:3.7755;stroke-linecap:round;stroke-linejoin:round;stroke-miterlimit:10;}
	.st42{fill:#0B5BCB;stroke:#1B3390;stroke-width:1.7785;stroke-miterlimit:10;}
	.st43{fill:none;stroke:#1B3390;stroke-width:1.7785;stroke-linecap:round;stroke-miterlimit:10;}
	.st44{fill:none;stroke:#1B3390;stroke-width:1.7785;stroke-linecap:round;stroke-linejoin:round;stroke-miterlimit:10;}
	.st45{clip-path:url(#SVGID_7_);fill:none;stroke:#5FECBF;stroke-width:29.6424;stroke-linecap:round;stroke-miterlimit:10;}
	.st46{fill:none;stroke:#1B3390;stroke-width:1.7785;stroke-miterlimit:10;}
	.st47{fill:#34E2AA;stroke:#1B3390;stroke-width:1.1636;stroke-miterlimit:10;}
	.st48{fill:#94FFCC;stroke:#1B3390;stroke-width:1.1636;stroke-linecap:round;stroke-miterlimit:10;}
	.st49{fill:#94FFCC;stroke:#1B3390;stroke-width:1.1636;stroke-linecap:round;stroke-linejoin:round;stroke-miterlimit:10;}
	.st50{fill:#FFB87D;stroke:#1B3390;stroke-width:1.1636;stroke-miterlimit:10;}
	.st51{fill:#4992F5;stroke:#1B3390;stroke-width:1.1636;stroke-linecap:round;stroke-miterlimit:10;}
	.st52{fill:#4992F5;stroke:#1B3390;stroke-width:1.1636;stroke-linecap:round;stroke-linejoin:round;stroke-miterlimit:10;}
	.st53{fill:#FFB87D;stroke:#1B3390;stroke-width:1.1636;stroke-linecap:round;stroke-miterlimit:10;}
	.st54{fill:#FFB87D;stroke:#1B3390;stroke-width:1.1636;stroke-linecap:round;stroke-linejoin:round;stroke-miterlimit:10;}
	.st55{opacity:0.8;fill:#DBE2FF;}
	.st56{opacity:0.8;fill:#B3C2FF;}
	.st57{opacity:0.8;fill:#FFF3E8;}
	.st58{opacity:0.8;fill:#D6FFF9;}
	.st59{fill:#0C65DF;stroke:#1B3390;stroke-width:0.764;stroke-linecap:round;stroke-linejoin:round;stroke-miterlimit:10;}
	.st60{fill:#0C65DF;stroke:#1B3390;stroke-width:0.764;stroke-miterlimit:10;}
	.st61{fill:#0C65DF;stroke:#1B3390;stroke-width:0.764;stroke-linecap:round;stroke-miterlimit:10;}
	.st62{opacity:0.8;fill:#A1C9FF;}
	.st63{fill:none;stroke:#0B5BCB;stroke-width:1.87;stroke-miterlimit:10;}
	.st64{fill:#4992F5;stroke:#1B3390;stroke-width:2.4753;stroke-miterlimit:10;}
	.st65{fill:none;stroke:#1B3390;stroke-width:2.0994;stroke-linecap:round;stroke-miterlimit:10;}
	.st66{fill:#6CF4BC;stroke:#1B3390;stroke-width:1.6932;stroke-miterlimit:10;}
	.st67{fill:none;stroke:#1B3390;stroke-width:1.436;stroke-linecap:round;stroke-miterlimit:10;}
	.st68{fill:#FFB87D;stroke:#1B3390;stroke-width:2.1678;stroke-miterlimit:10;}
	.st69{fill:none;stroke:#1B3390;stroke-width:1.8386;stroke-linecap:round;stroke-miterlimit:10;}
	.st70{fill:#0B5FD5;stroke:#1B3390;stroke-width:1.6798;stroke-miterlimit:10;}
	.st71{fill:none;stroke:#1B3390;stroke-width:1.4247;stroke-linecap:round;stroke-miterlimit:10;}
	.st72{fill:#A6FFE1;stroke:#1B3390;stroke-width:2.0588;stroke-miterlimit:10;}
	.st73{fill:none;stroke:#1B3390;stroke-width:1.7462;stroke-linecap:round;stroke-miterlimit:10;}
	.st74{fill:#FF8B2B;stroke:#1B3390;stroke-width:2.4753;stroke-miterlimit:10;}
	.st75{fill:#34E2AA;stroke:#1B3390;stroke-width:2.1678;stroke-miterlimit:10;}
	.st76{fill:none;stroke:#1B3390;stroke-width:1.4475;stroke-linecap:round;stroke-miterlimit:10;}
	.st77{fill:#FFB87D;stroke:#1B3390;stroke-width:1.6825;stroke-miterlimit:10;}
	.st78{fill:none;stroke:#1B3390;stroke-width:1.427;stroke-linecap:round;stroke-miterlimit:10;}
	.st79{fill:#ABD0FF;}
	.st80{fill:none;stroke:#0B5BCB;stroke-width:3.3004;stroke-linecap:round;stroke-miterlimit:10;}
	.st81{fill:#E3EFFF;}
	.st82{clip-path:url(#SVGID_9_);fill:none;stroke:#FF8B2B;stroke-width:9.9011;stroke-linecap:round;stroke-miterlimit:10;}
	.st83{fill:#FFB87D;stroke:#1C3CB7;stroke-width:3;stroke-linecap:round;stroke-linejoin:round;stroke-miterlimit:10;}
	.st84{fill:#FFEED1;stroke:#1C3CB7;stroke-width:3;stroke-linejoin:round;stroke-miterlimit:10;}
	.st85{fill:#FF8B2B;stroke:#1C3CB7;stroke-width:3;stroke-miterlimit:10;}
	.st86{fill:#FFE2C9;stroke:#1C3CB7;stroke-width:3;stroke-linejoin:round;stroke-miterlimit:10;}
	.st87{fill:#1B3390;stroke:#1C3CB7;stroke-miterlimit:10;}
	.st88{fill:#0B5BCB;stroke:#1C3CB7;stroke-miterlimit:10;}
	.st89{fill:#4992F5;stroke:#1C3CB7;stroke-width:3;stroke-miterlimit:10;}
	.st90{fill:#4992F5;stroke:#1C3CB7;stroke-width:3;stroke-linecap:round;stroke-miterlimit:10;}
	.st91{fill:#8CA4FB;stroke:#1C3CB7;stroke-width:3;stroke-linecap:round;stroke-linejoin:round;stroke-miterlimit:10;}
	.st92{fill:#D1FFEF;stroke:#1C3CB7;stroke-width:3;stroke-linejoin:round;stroke-miterlimit:10;}
	.st93{fill:#0B5BCB;stroke:#1C3CB7;stroke-width:3;stroke-miterlimit:10;}
	.st94{fill:#B2C2FB;stroke:#1C3CB7;stroke-width:3;stroke-linejoin:round;stroke-miterlimit:10;}
	.st95{fill:#34E2AA;stroke:#1C3CB7;stroke-miterlimit:10;}
	.st96{fill:#66FFC8;stroke:#1C3CB7;stroke-miterlimit:10;}
	.st97{fill:#73FFCD;stroke:#1C3CB7;stroke-miterlimit:10;}
	.st98{fill:#00D38E;stroke:#1C3CB7;stroke-miterlimit:10;}
	.st99{fill:#34E2AA;stroke:#1C3CB7;stroke-width:3;stroke-miterlimit:10;}
	.st100{fill:#FF8B2B;stroke:#1C3CB7;stroke-miterlimit:10;}
	.st101{fill:#FFB87D;stroke:#1C3CB7;stroke-miterlimit:10;}
	.st102{fill:#FFB87D;stroke:#1C3CB7;stroke-width:3;stroke-miterlimit:10;}
	.st103{fill:none;stroke:#1C3CB7;stroke-width:2;stroke-miterlimit:10;}
	.st104{fill:#75FFCE;stroke:#1B3390;stroke-width:3;stroke-miterlimit:10;}
	.st105{fill:none;stroke:#1B3390;stroke-width:3;stroke-miterlimit:10;}
	.st106{fill:#00C39F;stroke:#1B3390;stroke-width:3;stroke-miterlimit:10;}
	.st107{fill:#A8FFE6;}
	.st108{opacity:0.8;fill:#A8FFE6;}
	.st109{fill:#8CA4FB;stroke:#1B3390;stroke-width:3;stroke-miterlimit:10;}
	.st110{fill:#0B5BCB;stroke:#1B3390;stroke-width:3;stroke-miterlimit:10;}
	.st111{fill:#D8E0FB;}
	.st112{opacity:0.8;fill:#D8E0FB;}
	.st113{fill:none;stroke:#0B5BCB;stroke-width:9.5756;stroke-miterlimit:10;}
	.st114{fill:#75FFCE;stroke:#1B3390;stroke-width:12.6453;stroke-miterlimit:10;}
	.st115{fill:none;stroke:#1B3390;stroke-width:12.6453;stroke-miterlimit:10;}
	.st116{fill:#00C39F;stroke:#1B3390;stroke-width:12.6453;stroke-miterlimit:10;}
	.st117{fill:#8CA4FB;stroke:#1B3390;stroke-width:12.6453;stroke-miterlimit:10;}
	.st118{fill:#0B5BCB;stroke:#1B3390;stroke-width:12.6453;stroke-miterlimit:10;}
	.st119{fill:#FFB87D;stroke:#0655C3;stroke-width:3;stroke-linecap:round;stroke-linejoin:round;stroke-miterlimit:10;}
	.st120{fill:#FFE3CC;}
	.st121{fill:none;stroke:#0B5BCB;stroke-width:3;stroke-linecap:round;stroke-linejoin:round;stroke-miterlimit:10;}
	.st122{fill:#34E2AA;stroke:#1B3390;stroke-width:3;stroke-miterlimit:10;}
	.st123{fill:#BAFFE9;}
	.st124{fill:#ABFFE4;}
	.st125{fill:#5790DF;stroke:#0655C3;stroke-width:3;stroke-linecap:round;stroke-linejoin:round;stroke-miterlimit:10;}
	.st126{fill:#80B9F6;}
	.st127{fill:#629FE4;}
	.st128{fill:#0B5BCB;stroke:#0B5BCB;stroke-width:4;stroke-miterlimit:10;}
	.st129{fill:#34E2AA;stroke:#0B5BCB;stroke-width:3;stroke-linejoin:round;stroke-miterlimit:10;}
	.st130{fill:none;stroke:#0B5BCB;stroke-width:3;stroke-linecap:round;stroke-miterlimit:10;}
	.st131{fill:#4992F5;stroke:#0B5BCB;stroke-width:4;stroke-miterlimit:10;}
	.st132{fill:#C7FFED;stroke:#34E2AA;stroke-width:3;stroke-miterlimit:10;}
	.st133{fill:#FFD1AB;stroke:#0B5BCB;stroke-width:3;stroke-miterlimit:10;}
	.st134{fill:#34E2AA;stroke:#34E2AA;stroke-width:3;stroke-linejoin:round;stroke-miterlimit:10;}
	.st135{fill:#8CA4FB;stroke:#0B5BCB;stroke-width:3;stroke-linejoin:round;stroke-miterlimit:10;}
	.st136{fill:#69FFC7;stroke:#0B5BCB;stroke-width:3;stroke-linejoin:round;stroke-miterlimit:10;}
	.st137{fill:#FFB87D;stroke:#0B5BCB;stroke-width:3;stroke-linejoin:round;stroke-miterlimit:10;}
	.st138{fill:#ADBEFF;}
	.st139{fill:#FFEAD9;}
	.st140{fill:#D6FFF4;}
	.st141{fill:#CCD6FF;}
	.st142{fill:none;stroke:#33DEA7;stroke-width:5.4384;stroke-miterlimit:10;}
	.st143{fill:#4AE2B1;}
	.st144{fill:#8CA4FB;}
	.st145{opacity:0.25;fill:#FF8B2B;}
	.st146{fill:none;stroke:#FF8B2B;stroke-miterlimit:10;}
	.st147{fill:none;stroke:#FF8B2B;stroke-width:0.9367;stroke-miterlimit:10;}
	.st148{fill:#FF9843;}
	.st149{opacity:0.3;fill:#34E2AA;}
	.st150{display:inline;}
	.st151{fill:#0B87C7;}
	.st152{fill:#92FCCA;stroke:#1A328C;stroke-width:1.1636;stroke-miterlimit:10;}
	.st153{fill:#92FCCA;stroke:#1A328C;stroke-width:1.1636;stroke-linecap:round;stroke-miterlimit:10;}
	.st154{fill:#92FCCA;stroke:#1A328C;stroke-width:1.1636;stroke-linecap:round;stroke-linejoin:round;stroke-miterlimit:10;}
	.st155{fill:#0C63DB;stroke:#1A328C;stroke-width:0.764;stroke-linecap:round;stroke-linejoin:round;stroke-miterlimit:10;}
	.st156{fill:#0C63DB;stroke:#1A328C;stroke-width:0.764;stroke-miterlimit:10;}
	.st157{fill:#0C63DB;stroke:#1A328C;stroke-width:0.764;stroke-linecap:round;stroke-miterlimit:10;}
	.st158{fill:#8AA1F7;stroke:#1B3BB3;stroke-width:3;stroke-linecap:round;stroke-linejoin:round;stroke-miterlimit:10;}
	.st159{fill:#D1FFEF;stroke:#1B3BB3;stroke-width:3;stroke-linejoin:round;stroke-miterlimit:10;}
	.st160{fill:#0B59C7;stroke:#1B3BB3;stroke-width:3;stroke-miterlimit:10;}
	.st161{fill:#AFBFF7;stroke:#1B3BB3;stroke-width:3;stroke-linejoin:round;stroke-miterlimit:10;}
	.st162{fill:#1A328C;stroke:#1B3BB3;stroke-miterlimit:10;}
	.st163{fill:#66FFC8;stroke:#1B3BB3;stroke-miterlimit:10;}
	.st164{fill:#0B59C7;stroke:#1B3BB3;stroke-miterlimit:10;}
	.st165{fill:#4890F1;stroke:#1B3BB3;stroke-width:3;stroke-miterlimit:10;}
	.st166{fill:#4890F1;stroke:#1B3BB3;stroke-width:3;stroke-linecap:round;stroke-miterlimit:10;}
	.st167{fill:#8AA1F7;stroke:#0B59C7;stroke-width:5.0442;stroke-linejoin:round;stroke-miterlimit:10;}
	.st168{fill:#C1CCF7;}
	.st169{fill:none;stroke:#4890F1;stroke-width:10.418;stroke-miterlimit:10;}
	.st170{fill:none;stroke:#4890F1;stroke-width:8.3506;stroke-miterlimit:10;}
	.st171{fill:#E6F0FF;stroke:#DBE3FF;stroke-width:3.6654;stroke-miterlimit:10;}
	.st172{fill:#E6F0FF;}
	.st173{fill:#DBE3FF;}
	.st174{fill:#FFE1C9;stroke:#E0E6FF;stroke-width:5.2027;stroke-miterlimit:10;}
	.st175{fill:#E0FFF7;}
	.st176{fill:#E0E6FF;}
	.st177{fill:#DBE9FF;stroke:#CCD7FF;stroke-width:3.6654;stroke-miterlimit:10;}
	.st178{fill:#DBE9FF;}
	.st179{fill:#CCD7FF;}
	.st180{fill:#9EC2F7;stroke:#9CB1FF;stroke-width:3.6654;stroke-miterlimit:10;}
	.st181{fill:#9EC2F7;}
	.st182{fill:#9CB1FF;}
	.st183{fill:#99C3FF;stroke:#91A9FF;stroke-width:4.0452;stroke-miterlimit:10;}
	.st184{fill:#99C3FF;}
	.st185{fill:#91A9FF;}
	.st186{fill:#FFD7B5;stroke:#A1B5FF;stroke-width:5.2027;stroke-miterlimit:10;}
	.st187{fill:#A1B5FF;}
	.st188{fill:#B8FFEC;stroke:#A1B5FF;stroke-width:5.2027;stroke-miterlimit:10;}
	.st189{fill:#B8FFEC;}
	.st190{fill:#E0FFF7;stroke:#E0E6FF;stroke-width:5.2027;stroke-miterlimit:10;}
	.st191{fill:#FFEAD9;stroke:#DBE3FF;stroke-width:3.6654;stroke-miterlimit:10;}
	.st192{opacity:0.2;}
	.st193{fill:#4890F1;stroke:#1A328C;stroke-width:2.274;stroke-miterlimit:10;}
	.st194{fill:none;stroke:#1A328C;stroke-width:1.9286;stroke-linecap:round;stroke-miterlimit:10;}
	.st195{fill:#6AF0B9;stroke:#1A328C;stroke-width:1.5555;stroke-miterlimit:10;}
	.st196{fill:none;stroke:#1A328C;stroke-width:1.3193;stroke-linecap:round;stroke-miterlimit:10;}
	.st197{fill:#FFB87D;stroke:#1A328C;stroke-width:1.9915;stroke-miterlimit:10;}
	.st198{fill:none;stroke:#1A328C;stroke-width:1.6891;stroke-linecap:round;stroke-miterlimit:10;}
	.st199{fill:#0B5DD1;stroke:#1A328C;stroke-width:1.5432;stroke-miterlimit:10;}
	.st200{fill:none;stroke:#1A328C;stroke-width:1.3088;stroke-linecap:round;stroke-miterlimit:10;}
	.st201{fill:#A6FFE1;stroke:#1A328C;stroke-width:1.8914;stroke-miterlimit:10;}
	.st202{fill:none;stroke:#1A328C;stroke-width:1.6042;stroke-linecap:round;stroke-miterlimit:10;}
	.st203{fill:#8AA1F7;stroke:#1A328C;stroke-width:2.274;stroke-miterlimit:10;}
	.st204{fill:none;stroke:#1A328C;stroke-width:1.3298;stroke-linecap:round;stroke-miterlimit:10;}
	.st205{fill:#FFB87D;stroke:#1A328C;stroke-width:1.5457;stroke-miterlimit:10;}
	.st206{fill:none;stroke:#1A328C;stroke-width:1.311;stroke-linecap:round;stroke-miterlimit:10;}
	.st207{fill:none;stroke:#0B59C7;stroke-width:3.032;stroke-linecap:round;stroke-miterlimit:10;}
	.st208{clip-path:url(#SVGID_13_);fill:none;stroke:#FF8B2B;stroke-width:9.0959;stroke-linecap:round;stroke-miterlimit:10;}
	.st209{fill:#A6FFDE;stroke:#0B59C7;stroke-width:5;stroke-linejoin:round;stroke-miterlimit:10;}
	.st210{fill:#A6FFDE;stroke:#0B59C7;stroke-width:4.2028;stroke-linejoin:round;stroke-miterlimit:10;}
	.st211{fill:#8AA1F7;stroke:#1A328C;stroke-width:5;stroke-miterlimit:10;}
	.st212{fill:none;stroke:#1A328C;stroke-width:5;stroke-miterlimit:10;}
	.st213{fill:#0B59C7;stroke:#1A328C;stroke-width:5;stroke-miterlimit:10;}
	.st214{fill:#75FFCE;stroke:#1A328C;stroke-width:5;stroke-miterlimit:10;}
	.st215{fill:#D4DCF7;}
	.st216{opacity:0.8;fill:#D4DCF7;}
	.st217{fill:#558DDB;stroke:#0653BF;stroke-width:5;stroke-linecap:round;stroke-linejoin:round;stroke-miterlimit:10;}
	.st218{fill:#7EB6F2;}
	.st219{fill:#609CE0;}
	.st220{fill:none;stroke:#0B59C7;stroke-width:5;stroke-linecap:round;stroke-linejoin:round;stroke-miterlimit:10;}
	.st221{fill:#FF8B2B;stroke:#0B59C7;stroke-width:5;stroke-miterlimit:10;}
	.st222{fill:none;stroke:#33DEA7;stroke-width:5;stroke-linecap:round;stroke-miterlimit:10;}
	.st223{fill:none;stroke:#33DEA7;stroke-width:5;stroke-linecap:round;stroke-linejoin:round;stroke-miterlimit:10;}
	.st224{clip-path:url(#SVGID_15_);}
	.st225{fill:none;stroke:#1A328C;stroke-width:5;stroke-linecap:round;stroke-linejoin:round;stroke-miterlimit:10;}
	.st226{fill:#8AA1F7;stroke:#33DEA7;stroke-width:0.7994;stroke-miterlimit:10;}
	.st227{fill:none;stroke:#33DEA7;stroke-width:0.7994;stroke-linecap:round;stroke-miterlimit:10;}
	.st228{fill:none;stroke:#33DEA7;stroke-width:0.7994;stroke-linecap:round;stroke-linejoin:round;stroke-miterlimit:10;}
	.st229{clip-path:url(#SVGID_17_);}
	.st230{fill:none;stroke:#33DEA7;stroke-width:6.662;stroke-linecap:round;stroke-linejoin:round;stroke-miterlimit:10;}
	.st231{fill:none;stroke:#1A328C;stroke-width:1.5989;stroke-linecap:round;stroke-linejoin:round;stroke-miterlimit:10;}
	.st232{fill:#4890F1;stroke:#1A328C;stroke-width:1.7649;stroke-linecap:round;stroke-miterlimit:10;}
	.st233{fill:#4890F1;stroke:#1A328C;stroke-width:1.7649;stroke-linecap:round;stroke-linejoin:round;stroke-miterlimit:10;}
	.st234{opacity:0.8;fill:#C4D0FF;}
	.st235{fill:#FFB87D;stroke:#1B3BB3;stroke-width:5;stroke-linecap:round;stroke-linejoin:round;stroke-miterlimit:10;}
	.st236{fill:#FFD6B3;stroke:#1B3BB3;stroke-width:5;stroke-linejoin:round;stroke-miterlimit:10;}
	.st237{fill:#FF8B2B;stroke:#1B3BB3;stroke-width:5;stroke-miterlimit:10;}
	.st238{fill:#FFB87D;stroke:#1B3BB3;stroke-width:5;stroke-linejoin:round;stroke-miterlimit:10;}
	.st239{fill:#96FFD4;stroke:#1B3BB3;stroke-width:5;stroke-linejoin:round;stroke-miterlimit:10;}
	.st240{fill:#1A328C;stroke:#1B3BB3;stroke-width:5;stroke-miterlimit:10;}
	.st241{fill:#0B59C7;stroke:#1B3BB3;stroke-width:5;stroke-miterlimit:10;}
	.st242{fill:#4890F1;stroke:#1B3BB3;stroke-width:5;stroke-miterlimit:10;}
	.st243{fill:#4890F1;stroke:#1B3BB3;stroke-width:5;stroke-linecap:round;stroke-miterlimit:10;}
	.st244{fill:#FFB87D;stroke:#1B3BB3;stroke-width:1.6332;stroke-linecap:round;stroke-linejoin:round;stroke-miterlimit:10;}
	.st245{fill:#FFD8B8;stroke:#1B3BB3;stroke-width:1.6332;stroke-linejoin:round;stroke-miterlimit:10;}
	.st246{fill:#FF8B2B;stroke:#1B3BB3;stroke-width:1.6332;stroke-miterlimit:10;}
	.st247{fill:#FFB87D;stroke:#1B3BB3;stroke-width:1.6332;stroke-linejoin:round;stroke-miterlimit:10;}
	.st248{fill:#1A328C;stroke:#1B3BB3;stroke-width:0.5444;stroke-miterlimit:10;}
	.st249{fill:#0B59C7;stroke:#1B3BB3;stroke-width:0.5444;stroke-miterlimit:10;}
	.st250{fill:#4890F1;stroke:#1B3BB3;stroke-width:1.6332;stroke-miterlimit:10;}
	.st251{fill:#4890F1;stroke:#1B3BB3;stroke-width:1.6332;stroke-linecap:round;stroke-miterlimit:10;}
	.st252{fill:#92FCCA;stroke:#1A328C;stroke-width:5;stroke-miterlimit:10;}
	.st253{fill:none;stroke:#1A328C;stroke-width:5;stroke-linecap:round;stroke-miterlimit:10;}
	.st254{clip-path:url(#SVGID_21_);fill:none;stroke:#8AA1F7;stroke-width:5;stroke-linecap:round;stroke-miterlimit:10;}
	.st255{fill:#7DFFD5;}
	.st256{fill:#B3FFE4;}
	.st257{fill:none;stroke:#274CD4;stroke-width:0.3105;stroke-miterlimit:10;}
	.st258{fill:#FF8B2B;stroke:#0653BF;stroke-width:2.1766;stroke-linecap:round;stroke-linejoin:round;stroke-miterlimit:10;}
	.st259{fill:#FFD2AD;}
	.st260{fill:none;stroke:#0B59C7;stroke-width:2.1766;stroke-linecap:round;stroke-linejoin:round;stroke-miterlimit:10;}
	.st261{fill:#FFB87D;stroke:#33DEA7;stroke-width:5;stroke-miterlimit:10;}
	.st262{fill:#9EFFE0;stroke:#33DEA7;stroke-width:5;stroke-miterlimit:10;}
	.st263{fill:#FF8B2B;stroke:#33DEA7;stroke-width:5;stroke-linejoin:round;stroke-miterlimit:10;}
	.st264{fill:#FF8B2B;stroke:#1A328C;stroke-width:5;stroke-miterlimit:10;}
	.st265{fill:#6AF0B9;stroke:#1A328C;stroke-width:5;stroke-miterlimit:10;}
	.st266{fill:#B5CBE8;stroke:#1A328C;stroke-width:5;stroke-miterlimit:10;}
	.st267{fill:#0B5DD1;stroke:#1A328C;stroke-width:5;stroke-miterlimit:10;}
	.st268{fill:#4890F1;stroke:#1A328C;stroke-width:5;stroke-miterlimit:10;}
	.st269{fill:#6BFFCA;stroke:#1A328C;stroke-width:5;stroke-miterlimit:10;}
	.st270{fill:none;stroke:#0B59C7;stroke-width:5;stroke-linecap:round;stroke-miterlimit:10;}
	.st271{clip-path:url(#SVGID_23_);fill:none;stroke:#FF8B2B;stroke-width:19;stroke-linecap:round;stroke-miterlimit:10;}
	.st272{fill:#FF8B2B;stroke:#0B59C7;stroke-width:5;stroke-linejoin:round;stroke-miterlimit:10;}
	.st273{fill:#FFC99C;}
	.st274{fill:#8AA1F7;stroke:#0B59C7;stroke-width:5;stroke-linejoin:round;stroke-miterlimit:10;}
	.st275{fill:#33DEA7;stroke:#1A328C;stroke-width:5;stroke-miterlimit:10;}
	.st276{fill:#8AA1F7;stroke:#0B59C7;stroke-width:1.5989;stroke-miterlimit:10;}
	.st277{fill:none;stroke:#0B59C7;stroke-width:1.5989;stroke-linecap:round;stroke-miterlimit:10;}
	.st278{fill:none;stroke:#0B59C7;stroke-width:1.5989;stroke-linecap:round;stroke-linejoin:round;stroke-miterlimit:10;}
	.st279{clip-path:url(#SVGID_25_);}
	.st280{fill:none;stroke:#FF8B2B;stroke-width:13.324;stroke-linecap:round;stroke-linejoin:round;stroke-miterlimit:10;}
	.st281{fill:none;stroke:#1A328C;stroke-width:3.1978;stroke-linecap:round;stroke-linejoin:round;stroke-miterlimit:10;}
	.st282{fill:#4890F1;stroke:#1A328C;stroke-width:1.0806;stroke-miterlimit:10;}
	.st283{fill:#4890F1;stroke:#1A328C;stroke-width:1.0806;stroke-linecap:round;stroke-miterlimit:10;}
	.st284{fill:#4890F1;stroke:#1A328C;stroke-width:1.0806;stroke-linecap:round;stroke-linejoin:round;stroke-miterlimit:10;}
	.st285{fill:#8AA1F7;stroke:#1B3BB3;stroke-width:5;stroke-linecap:round;stroke-linejoin:round;stroke-miterlimit:10;}
	.st286{fill:#D1FFEF;stroke:#1B3BB3;stroke-width:5;stroke-linejoin:round;stroke-miterlimit:10;}
	.st287{fill:#AFBFF7;stroke:#1B3BB3;stroke-width:5;stroke-linejoin:round;stroke-miterlimit:10;}
	.st288{fill:#66FFC8;stroke:#1B3BB3;stroke-width:5;stroke-miterlimit:10;}
	.st289{fill:none;stroke:#274CD4;stroke-width:0.9742;stroke-miterlimit:10;}
	.st290{fill:#8AA1F7;stroke:#0653BF;stroke-width:5;stroke-linecap:round;stroke-linejoin:round;stroke-miterlimit:10;}
	.st291{fill:#BAC8FF;}
	.st292{fill:#9EB2FF;}
	.st293{fill:#8AA1F7;stroke:#0B59C7;stroke-width:5;stroke-miterlimit:10;}
	.st294{clip-path:url(#SVGID_29_);}
	.st295{fill:none;stroke:#33DEA7;stroke-width:25;stroke-linecap:round;stroke-linejoin:round;stroke-miterlimit:10;}
	.st296{fill:#0B59C7;stroke:#0B59C7;stroke-width:5;stroke-miterlimit:10;}
	.st297{fill:#4890F1;stroke:#0B59C7;stroke-width:5;stroke-miterlimit:10;}
	.st298{fill:#FF9B47;stroke:#0B59C7;stroke-width:1.6094;stroke-linejoin:round;stroke-miterlimit:10;}
	.st299{fill:#FFC696;}
	.st300{fill:#6CCFAF;stroke:#0B59C7;stroke-width:1.5694;stroke-miterlimit:10;}
	.st301{fill:#9EFFE0;stroke:#0B59C7;stroke-width:1.5694;stroke-miterlimit:10;}
	.st302{fill:none;stroke:#0B59C7;stroke-width:1.5694;stroke-linecap:round;stroke-miterlimit:10;}
	.st303{fill:#00BD80;stroke:#0B59C7;stroke-width:1.5694;stroke-linejoin:round;stroke-miterlimit:10;}
	.st304{fill:#FF8B2B;stroke:#0653BF;stroke-width:1.5522;stroke-linecap:round;stroke-linejoin:round;stroke-miterlimit:10;}
	.st305{fill:none;stroke:#0B59C7;stroke-width:1.5522;stroke-linecap:round;stroke-linejoin:round;stroke-miterlimit:10;}
	.st306{fill:#1D4BB8;}
	.st307{fill:#33DEA7;stroke:#1A328C;stroke-miterlimit:10;}
	.st308{fill:#2DC494;}
	.st309{fill:#E3FFFB;stroke:#1A328C;stroke-miterlimit:10;}
	.st310{fill:#D9E5FF;stroke:#1A328C;stroke-miterlimit:10;}
	.st311{fill:#C9FFEB;}
	.st312{fill:#FFD0A8;}
	.st313{fill:#41F2B3;}
	.st314{fill:#31FFC0;}
	.st315{fill:#5CFFCD;}
	.st316{fill:#87FFDA;}
	.st317{fill:#9CFFE0;}
	.st318{fill:#ADFFE6;}
	.st319{fill:#BAFFEA;}
	.st320{fill:#C4DEFF;}
	.st321{fill:#FFFFFF;stroke:#33DEA7;stroke-width:2.0266;stroke-miterlimit:10;}
	.st322{fill:#FFFFFF;stroke:#FF8B2B;stroke-width:2.0266;stroke-miterlimit:10;}
	.st323{fill:#00BD81;}
	.st324{fill:#FFFFFF;stroke:#4890F1;stroke-width:2.0266;stroke-miterlimit:10;}
	.st325{fill:none;stroke:#1A328C;stroke-width:1.9243;stroke-miterlimit:10;}
	.st326{opacity:0.2;clip-path:url(#SVGID_43_);}
	.st327{clip-path:url(#SVGID_45_);fill:none;stroke:#FF8B2B;stroke-width:9.0959;stroke-linecap:round;stroke-miterlimit:10;}
	.st328{clip-path:url(#SVGID_47_);}
	.st329{clip-path:url(#SVGID_49_);}
	.st330{clip-path:url(#SVGID_53_);fill:none;stroke:#8AA1F7;stroke-width:5;stroke-linecap:round;stroke-miterlimit:10;}
	.st331{clip-path:url(#SVGID_55_);fill:none;stroke:#FF8B2B;stroke-width:19;stroke-linecap:round;stroke-miterlimit:10;}
	.st332{clip-path:url(#SVGID_57_);}
	.st333{clip-path:url(#SVGID_61_);}
	.st334{fill:#FFDCBF;stroke:#BFCCFF;stroke-width:5.4294;stroke-miterlimit:10;}
	.st335{fill:#BFCCFF;}
	.st336{fill:#BFD8FF;stroke:#ADBFFF;stroke-width:3.8251;stroke-miterlimit:10;}
	.st337{fill:#ADBFFF;}
	.st338{fill:#74A9F7;stroke:#6384FF;stroke-width:3.8251;stroke-miterlimit:10;}
	.st339{fill:#74A9F7;}
	.st340{fill:#6384FF;}
	.st341{fill:#94C0FF;stroke:#8FA7FF;stroke-width:4.2215;stroke-miterlimit:10;}
	.st342{fill:#94C0FF;}
	.st343{fill:#8FA7FF;}
	.st344{fill:#FFC899;stroke:#87A1FF;stroke-width:4;stroke-miterlimit:10;}
	.st345{fill:#87A1FF;}
	.st346{fill:#A1FFE6;stroke:#A1B5FF;stroke-width:3;stroke-miterlimit:10;}
	.st347{fill:#A1FFE6;}
	.st348{fill:#CCFFF2;stroke:#BDCAFF;stroke-width:5.4294;stroke-miterlimit:10;}
	.st349{fill:#BDCAFF;}
	.st350{fill:none;stroke:#4890F1;stroke-width:1.7372;stroke-miterlimit:10;}
	.st351{fill:none;stroke:#4890F1;stroke-width:2.5336;stroke-miterlimit:10;}
	.st352{fill:#FFEFE0;stroke:#4890F1;stroke-width:2.5336;stroke-miterlimit:10;}
</style>
<g id="Слой_1">
	<g>
		<circle class="st6" cx="209.33" cy="624.28" r="146.06"/>
		<g>
			<path class="st21" d="M109.15,596.13l0.21,3.04c0,1.78-2.25,2.68-6.74,2.68c-0.48,0-1.17-0.58-2.06-1.75
				c-0.82-1.1-1.44-1.58-1.85-1.44c-0.38,0-2.26,0.46-5.63,1.39c-3.38,0.93-5.39,1.53-6.05,1.8c-4.15,1.34-7.07,2.01-8.75,2.01
				c-1.58,0-2.84-0.53-3.78-1.6s-1.42-2.09-1.42-3.09c0-1.82,1.55-3.15,4.66-3.99c3.1-0.84,5.81-1.47,8.1-1.88
				c7.38-1.51,11.7-2.64,12.97-3.4c0.38-6.55,1.15-14.06,2.32-22.54l2.93-21.71c-1.99,0-4.75,1.2-8.28,3.6
				c-6.28,4.12-11.8,6.17-16.57,6.17c-1.54,0-2.32-1.08-2.32-3.24c0-1.37,0.27-2.28,0.8-2.73c0.53-0.45,2.92-1.59,7.18-3.42
				c4.25-1.83,9.6-4.67,16.05-8.52c6.45-3.84,9.96-5.76,10.55-5.76c1.1,0,2.04,0.75,2.83,2.26c0.79,1.51,1.18,2.83,1.18,3.96
				c0,0.96-0.5,1.94-1.49,2.93c-3.36,14.68-5.32,25.92-5.87,33.73c-0.55,7.8-0.63,12.36-0.26,13.66c2.61-0.1,6.36-0.84,11.27-2.21
				c6.76-1.82,12.21-2.73,16.36-2.73c0.82,1.58,1.23,2.92,1.23,4.01c0,1.17-0.17,1.92-0.51,2.26c-0.34,0.34-1.48,0.84-3.4,1.49
				c-1.92,0.65-5.23,1.29-9.93,1.9C115.99,594,111.42,595.03,109.15,596.13z"/>
			<path class="st21" d="M161.02,603.95c-5.49,0-9.72-1.87-12.71-5.61c-2.98-3.74-4.48-8.4-4.48-14c0-6.83,2.09-14.36,6.28-22.59
				c4.18-8.23,10.28-14.99,18.29-20.27c8.01-5.28,15.07-7.92,21.17-7.92c4.46,0,9.26,1.48,14.41,4.43s8.75,6.26,10.81,9.93
				c2.06,3.67,3.09,8.54,3.09,14.61c0,9.09-5.93,18.27-17.78,27.53C188.24,599.32,175.22,603.95,161.02,603.95z M197.24,543.54
				c-0.79,1-2.02,1.49-3.71,1.49c-0.24,0-0.89-0.38-1.96-1.13c-1.1-0.79-2.09-1.18-2.98-1.18c-4.22,0-7.56,0.66-10.03,1.98
				c-2.47,1.32-5.86,4.06-10.16,8.21c-4.31,4.15-7.81,8.7-10.52,13.66c-2.71,4.96-4.07,9.99-4.07,15.1c0,6.07,1.42,9.88,4.27,11.42
				c2.85,1.54,5.95,2.32,9.31,2.32c4.25,0,9.57-1.7,15.95-5.09c6.38-3.4,12.28-7.76,17.7-13.09c5.42-5.33,8.13-9.68,8.13-13.04
				c0-1.92-0.31-4.16-0.93-6.71c-0.62-2.56-1.29-4.31-2.03-5.27c-0.74-0.96-2.11-2.5-4.12-4.63
				C200.1,545.43,198.48,544.09,197.24,543.54z"/>
			<path class="st21" d="M237.99,603.95c-5.49,0-9.72-1.87-12.71-5.61c-2.98-3.74-4.48-8.4-4.48-14c0-6.83,2.09-14.36,6.28-22.59
				c4.18-8.23,10.28-14.99,18.29-20.27c8.01-5.28,15.07-7.92,21.17-7.92c4.46,0,9.26,1.48,14.41,4.43s8.75,6.26,10.81,9.93
				c2.06,3.67,3.09,8.54,3.09,14.61c0,9.09-5.93,18.27-17.78,27.53C265.22,599.32,252.19,603.95,237.99,603.95z M274.22,543.54
				c-0.79,1-2.02,1.49-3.71,1.49c-0.24,0-0.89-0.38-1.96-1.13c-1.1-0.79-2.09-1.18-2.98-1.18c-4.22,0-7.56,0.66-10.03,1.98
				c-2.47,1.32-5.86,4.06-10.16,8.21c-4.31,4.15-7.81,8.7-10.52,13.66c-2.71,4.96-4.07,9.99-4.07,15.1c0,6.07,1.42,9.88,4.27,11.42
				c2.85,1.54,5.95,2.32,9.31,2.32c4.25,0,9.57-1.7,15.95-5.09c6.38-3.4,12.28-7.76,17.7-13.09c5.42-5.33,8.13-9.68,8.13-13.04
				c0-1.92-0.31-4.16-0.93-6.71c-0.62-2.56-1.29-4.31-2.03-5.27c-0.74-0.96-2.11-2.5-4.12-4.63
				C277.07,545.43,275.45,544.09,274.22,543.54z"/>
		</g>
		<circle class="st113" cx="179.28" cy="566.55" r="153.21"/>
	</g>
	<g>
		<path class="st18" d="M1296.62,448.97c-0.49,0.63-1.56,0.94-3.22,0.94c-0.61,0-1.61-0.08-3.01-0.24
			c-1.59-0.19-2.73-0.28-3.43-0.28h-2.31c-0.68,0-1.28,0.01-1.82,0.03h-1.68c-0.56,0-1.15,0.01-1.78,0.04
			c-0.51,1-0.77,2.59-0.77,4.76c0,2.66-0.06,4.33-0.17,5c-0.12,0.65-0.14,1.58-0.07,2.78c0.07,1.2-0.57,1.8-1.92,1.8
			c-1,0-1.66-0.19-1.98-0.58c-0.31-0.38-0.47-1.08-0.47-2.08c0-0.54,0.2-2.37,0.6-5.49c0.19-1.52,0.37-3.58,0.56-6.19
			c-1.49-0.14-3.74-0.21-6.75-0.21c-0.51,0-1.2,0.12-2.06,0.35c-0.91,0.21-1.5,0.31-1.78,0.31c-0.63,0-1.2-0.24-1.7-0.72
			s-0.75-1.03-0.75-1.66c0-0.47,0.17-0.96,0.51-1.49c0.34-0.52,0.72-0.79,1.14-0.79c0.82,0,1.67,0.08,2.55,0.25
			c0.91,0.16,1.59,0.24,2.03,0.24l7.03-0.35c0.28-0.89,0.42-1.8,0.42-2.73c0-1.26-0.09-3.41-0.28-6.44
			c-0.09-1.26-0.14-2.34-0.14-3.25c0-0.79,0.24-1.59,0.72-2.38c0.48-0.79,1.08-1.19,1.8-1.19c0.37,0,0.79,0.38,1.24,1.15
			c0.46,0.77,0.68,1.36,0.68,1.78c0,1.21-0.1,2.83-0.31,4.86s-0.32,3.42-0.32,4.16c0,1.19,0.07,2.38,0.21,3.57
			c0.47,0.16,1.83,0.25,4.09,0.25l8.01-0.14c2.17,0,3.57,0.23,4.2,0.7C1296.31,446.22,1296.62,447.29,1296.62,448.97z"/>
		<path class="st18" d="M1329.16,462.23l0.14,2.06c0,1.21-1.53,1.82-4.58,1.82c-0.33,0-0.79-0.4-1.4-1.19
			c-0.56-0.75-0.98-1.07-1.26-0.98c-0.26,0-1.53,0.31-3.83,0.94c-2.3,0.63-3.67,1.04-4.11,1.22c-2.82,0.91-4.81,1.36-5.95,1.36
			c-1.07,0-1.93-0.36-2.57-1.08s-0.96-1.42-0.96-2.1c0-1.24,1.05-2.14,3.17-2.71c2.11-0.57,3.95-1,5.51-1.28
			c5.01-1.03,7.95-1.8,8.82-2.31c0.26-4.46,0.78-9.56,1.57-15.32l1.99-14.77c-1.35,0-3.23,0.82-5.63,2.45
			c-4.27,2.8-8.02,4.2-11.27,4.2c-1.05,0-1.57-0.73-1.57-2.2c0-0.93,0.18-1.55,0.54-1.85c0.36-0.3,1.99-1.08,4.88-2.33
			c2.89-1.25,6.53-3.18,10.92-5.79c4.38-2.61,6.78-3.92,7.17-3.92c0.75,0,1.39,0.51,1.92,1.54c0.54,1.03,0.8,1.92,0.8,2.69
			c0,0.65-0.34,1.32-1.01,1.99c-2.29,9.98-3.62,17.63-3.99,22.94c-0.37,5.31-0.43,8.4-0.17,9.29c1.77-0.07,4.33-0.57,7.66-1.5
			c4.59-1.24,8.3-1.85,11.13-1.85c0.56,1.07,0.84,1.98,0.84,2.73c0,0.79-0.12,1.31-0.35,1.54c-0.23,0.23-1,0.57-2.31,1.01
			c-1.31,0.44-3.56,0.87-6.75,1.29C1333.82,460.79,1330.7,461.49,1329.16,462.23z"/>
		<path class="st18" d="M1364.43,467.55c-3.73,0-6.61-1.27-8.64-3.81c-2.03-2.54-3.04-5.71-3.04-9.52c0-4.64,1.42-9.76,4.27-15.36
			c2.84-5.6,6.99-10.19,12.44-13.79c5.45-3.59,10.25-5.39,14.4-5.39c3.03,0,6.3,1,9.8,3.01c3.5,2.01,5.95,4.26,7.35,6.75
			c1.4,2.5,2.1,5.81,2.1,9.94c0,6.18-4.03,12.42-12.09,18.72C1382.94,464.4,1374.09,467.55,1364.43,467.55z M1389.06,426.47
			c-0.54,0.68-1.38,1.01-2.52,1.01c-0.16,0-0.61-0.26-1.33-0.77c-0.75-0.54-1.42-0.8-2.03-0.8c-2.87,0-5.14,0.45-6.82,1.35
			c-1.68,0.9-3.98,2.76-6.91,5.58c-2.93,2.82-5.31,5.92-7.16,9.29c-1.84,3.37-2.76,6.79-2.76,10.27c0,4.13,0.97,6.72,2.9,7.77
			c1.94,1.05,4.05,1.57,6.33,1.57c2.89,0,6.51-1.15,10.85-3.46c4.34-2.31,8.35-5.28,12.04-8.9c3.68-3.63,5.53-6.58,5.53-8.87
			c0-1.31-0.21-2.83-0.63-4.57s-0.88-2.93-1.38-3.59c-0.5-0.65-1.43-1.7-2.8-3.15S1389.9,426.85,1389.06,426.47z"/>
		<path class="st18" d="M1404.46,473.32c4.34-1.07,7.13-2.6,8.36-4.57c1.24-1.97,1.85-3.38,1.85-4.22c0-2.38-0.33-4.06-0.98-5.04
			c-0.3-0.44-0.46-0.87-0.46-1.29c0-0.35,0.16-0.85,0.47-1.5c0.32-0.65,0.64-0.98,0.96-0.98c0.49,0,1.26,0.18,2.31,0.54
			c1.05,0.36,1.67,0.68,1.85,0.94c0.19,0.27,0.5,1.14,0.93,2.61c0.43,1.47,0.65,2.73,0.65,3.78c0,0.4-0.44,1.63-1.31,3.69
			s-2.07,3.67-3.59,4.83c-1.52,1.15-2.94,1.86-4.27,2.12c-0.54,0.09-1.04,0.22-1.5,0.38c-1.84,0.82-3.35,1.22-4.51,1.22
			c-0.68,0-1.01-0.55-1.01-1.64C1404.21,473.78,1404.29,473.49,1404.46,473.32z"/>
		<path class="st18" d="M1439.52,467.55c-3.73,0-6.61-1.27-8.64-3.81c-2.03-2.54-3.04-5.71-3.04-9.52c0-4.64,1.42-9.76,4.27-15.36
			c2.84-5.6,6.99-10.19,12.44-13.79c5.45-3.59,10.25-5.39,14.4-5.39c3.03,0,6.3,1,9.8,3.01c3.5,2.01,5.95,4.26,7.35,6.75
			c1.4,2.5,2.1,5.81,2.1,9.94c0,6.18-4.03,12.42-12.09,18.72C1458.03,464.4,1449.17,467.55,1439.52,467.55z M1464.15,426.47
			c-0.54,0.68-1.38,1.01-2.52,1.01c-0.16,0-0.61-0.26-1.33-0.77c-0.75-0.54-1.42-0.8-2.03-0.8c-2.87,0-5.14,0.45-6.82,1.35
			c-1.68,0.9-3.98,2.76-6.91,5.58c-2.93,2.82-5.31,5.92-7.16,9.29c-1.84,3.37-2.76,6.79-2.76,10.27c0,4.13,0.97,6.72,2.9,7.77
			c1.94,1.05,4.05,1.57,6.33,1.57c2.89,0,6.51-1.15,10.85-3.46c4.34-2.31,8.35-5.28,12.04-8.9c3.68-3.63,5.53-6.58,5.53-8.87
			c0-1.31-0.21-2.83-0.63-4.57s-0.88-2.93-1.38-3.59c-0.5-0.65-1.43-1.7-2.8-3.15S1464.99,426.85,1464.15,426.47z"/>
		<path class="st18" d="M1519.88,448.27c5.53-0.96,10.48-4.53,14.87-10.71c2.05-2.87,3.85-4.9,5.41-6.11c1.55-1.2,3.2-1.8,4.95-1.8
			c0.7,0,1.4,0.31,2.1,0.94c0.7,0.63,1.05,1.38,1.05,2.24c0,1.14-1.08,2.04-3.25,2.69c-1.14,0.35-2.22,0.94-3.22,1.78
			s-2.9,2.85-5.7,6.02c-2.19,2.47-4.16,4.21-5.91,5.21c-0.16,0.09-0.25,0.17-0.25,0.24c0,0.09,0.11,0.19,0.32,0.28
			c1.7,0.91,3.5,2.67,5.39,5.28c2.75,3.8,4.82,6.2,6.19,7.19c1.38,0.99,2.95,1.49,4.72,1.49l1.15-0.04
			c0.82-0.05,1.22,0.31,1.22,1.08c0,0.89-0.5,1.81-1.5,2.76c-1,0.96-2.66,1.43-4.97,1.43c-1.77,0-3.49-0.76-5.16-2.29
			c-1.67-1.53-3.58-4.01-5.72-7.44c-1.24-2.03-2.39-3.57-3.46-4.62c-1.07-1.05-2.26-1.57-3.57-1.57c-0.28,0-1.14,0.23-2.59,0.7
			c-1.45,0.47-2.26,0.92-2.43,1.35c-0.17,0.43-0.3,1.98-0.38,4.65c-0.08,2.67-0.12,4.82-0.12,6.46c0,0.86-0.41,1.63-1.22,2.31
			c-0.82,0.68-1.7,1.01-2.66,1.01c-0.98,0-1.75-0.29-2.31-0.86c-0.56-0.57-0.84-1.16-0.84-1.77c0-0.84,0.32-2.82,0.94-5.95
			c1.12-5.69,2.24-15.08,3.36-28.17c0.09-1.26,0.57-2.4,1.43-3.41c0.86-1.01,1.84-1.52,2.94-1.52c0.61,0,1.11,0.33,1.52,0.98
			c0.41,0.65,0.61,1.49,0.61,2.52c0,0.82-0.14,1.75-0.42,2.8C1521.04,438.3,1520.21,443.23,1519.88,448.27z"/>
		<path class="st18" d="M1609.18,425.95c-0.84-3.64-1.88-6.18-3.11-7.63c-1.24-1.45-2.87-2.57-4.9-3.36
			c-2.03-0.79-3.86-1.19-5.49-1.19c-0.63,0-1.56,0.24-2.78,0.72c-1.22,0.48-2.16,0.92-2.82,1.31c-0.91,0.54-1.75,0.8-2.52,0.8
			c-0.89,0-1.33-0.47-1.33-1.4c0-1,0.76-2.39,2.27-4.16c1.52-1.77,4.19-2.66,8.01-2.66h1.5c3.8,0,7.16,1,10.08,2.99
			c2.92,1.99,4.99,4.85,6.21,8.55c1.22,3.71,1.84,8.69,1.84,14.94c0,4.25-1.34,9.39-4.02,15.43c-2.68,6.04-6.09,10.61-10.23,13.72
			s-8.54,4.65-13.21,4.65c-1.68,0-3.25-0.97-4.72-2.9c-1.47-1.94-2.2-4.34-2.2-7.21c0-5.29,1.16-9.97,3.48-14.01
			c2.32-4.05,4.92-7.33,7.8-9.85c2.88-2.52,6.86-4.55,11.95-6.09c1.68-0.49,2.82-0.88,3.43-1.15S1609.27,426.67,1609.18,425.95z
			 M1610.12,433.09c-5.39,1.1-9.52,2.83-12.39,5.21c-6.49,6.07-9.73,12.86-9.73,20.4c0,1,0.18,1.94,0.53,2.82
			c0.35,0.87,0.75,1.31,1.19,1.31c1.73,0,3.3-0.3,4.72-0.91c1.42-0.61,3.16-1.87,5.21-3.8s3.91-4.31,5.58-7.16
			c1.67-2.85,2.88-5.59,3.64-8.22c0.76-2.64,1.16-4.66,1.21-6.07C1610.13,435.26,1610.14,434.07,1610.12,433.09z"/>
		<path class="st18" d="M1630.55,468.43c-3.2,0-5.83-1.21-7.91-3.64c-2.08-2.43-3.11-5.42-3.11-8.99c0-6.02,2.02-11.95,6.07-17.79
			c4.05-5.84,8.89-8.76,14.54-8.76c3.73,0,6.76,1.43,9.08,4.3s3.48,6.29,3.48,10.25c0,6.06-2.4,11.69-7.19,16.86
			C1640.72,465.84,1635.73,468.43,1630.55,468.43z M1625.69,454.88c0,2.36,0.5,4.28,1.49,5.77c0.99,1.49,2.3,2.24,3.94,2.24
			c3.48,0,6.96-1.91,10.46-5.72c3.5-3.81,5.25-8.05,5.25-12.72c0-2.87-0.67-5.2-2.01-6.98c-1.34-1.78-3.14-2.68-5.41-2.68
			c-3.76,0-6.98,2.3-9.67,6.91C1627.04,446.32,1625.69,450.71,1625.69,454.88z"/>
		<path class="st18" d="M1682.48,431.02c5.29,2.15,7.94,7.23,7.94,15.25c0,6.02-1.88,11.28-5.63,15.78
			c-3.76,4.5-7.84,6.75-12.25,6.75c-3.94,0-7.01-1.56-9.2-4.69s-3.29-7.7-3.29-13.72c0-7.25,1.28-14.6,3.83-22.03
			c2.55-7.43,5.74-13.04,9.55-16.83c3.81-3.79,7.67-5.69,11.56-5.69c2.36,0,4.25,0.78,5.69,2.33c1.43,1.55,2.15,3.7,2.15,6.46
			c0,2.19-0.95,4.79-2.85,7.8S1685.58,428.32,1682.48,431.02z M1684.02,447.26c0-3.48-0.64-6.27-1.92-8.4
			c-1.28-2.12-2.71-3.18-4.27-3.18c-0.47,0-3.07,1.8-7.8,5.39c-1.21,0.93-2.39,1.8-3.53,2.59c-0.35,2.01-0.53,4.21-0.53,6.61
			c0,4.25,0.64,7.44,1.91,9.59c1.27,2.15,3.03,3.22,5.27,3.22c3.13,0,5.72-1.64,7.79-4.92c2.06-3.28,3.1-6.89,3.1-10.83V447.26z
			 M1667.29,437.39c8.98-6.93,14.53-11.88,16.65-14.85c2.12-2.97,3.18-5.31,3.18-7.02c0-2.73-1.1-4.09-3.29-4.09
			c-3.06,0-6.13,2.3-9.22,6.89C1671.53,422.92,1669.09,429.27,1667.29,437.39z"/>
		<path class="st18" d="M1729.22,454.81c0,2.38-2.11,5.25-6.32,8.61c-4.21,3.36-8.55,5.04-13.03,5.04c-3.76,0-6.65-1.11-8.69-3.32
			c-2.04-2.22-3.06-5.31-3.06-9.27c0-6.67,2.25-13.02,6.75-19.03c4.5-6.02,9.42-9.03,14.76-9.03c1.75,0,3.18,0.57,4.29,1.71
			c1.11,1.14,1.66,2.52,1.66,4.13c0,3.59-1.76,7.03-5.28,10.32c-3.52,3.29-8.23,6.52-14.14,9.69c-1.21,0.63-1.82,1.45-1.82,2.45
			c0,1.94,0.56,3.49,1.68,4.65c1.12,1.17,2.78,1.75,4.97,1.75c5.01,0,10.13-2.78,15.36-8.33c0.77-0.77,1.35-1.15,1.75-1.15
			C1728.85,453.03,1729.22,453.63,1729.22,454.81z M1704.9,449.36c9.89-5.88,14.83-10.6,14.83-14.17c0-1.4-0.63-2.1-1.89-2.1
			c-2.15,0-4.57,1.57-7.26,4.72C1707.9,440.96,1706,444.81,1704.9,449.36z"/>
		<path class="st18" d="M1743.29,462.62c-1.14,4.2-2.22,10.09-3.22,17.67l-0.98,6.61c-0.16,0.93-0.59,1.86-1.29,2.78
			s-1.34,1.38-1.92,1.38c-0.72,0-1.54-0.37-2.47-1.1c-0.92-0.73-1.38-1.32-1.38-1.77c0-1.28,0.29-3.06,0.88-5.32
			c4.27-17.24,6.4-32.38,6.4-45.42l-0.04-2.94c-0.05-2.52,0.4-4.35,1.33-5.49c0.93-1.14,2.01-1.71,3.22-1.71
			c0.56,0,1.1,0.44,1.61,1.31c0.51,0.88,0.77,2.12,0.77,3.73c0,2.26-0.23,5-0.7,8.22c-0.61,4.06-0.92,6.39-0.94,7
			c3.48-6.06,7.16-10.8,11.06-14.21c3.89-3.41,7.51-5.11,10.85-5.11c2.36,0,4.34,0.88,5.97,2.64c1.62,1.76,2.43,3.95,2.43,6.56
			c0,7.6-2.92,14.51-8.75,20.71c-5.83,6.21-11.51,9.31-17.04,9.31c-1.38,0-2.47-0.35-3.27-1.05
			C1744.98,465.73,1744.15,464.46,1743.29,462.62z M1765.01,434.45c-3.29,0-7.36,3.08-12.21,9.24c-4.85,6.16-7.28,10.95-7.28,14.38
			c0,0.84,0.48,1.66,1.43,2.45c0.96,0.79,2.17,1.19,3.64,1.19c3.34,0,7.17-2.47,11.51-7.4c4.34-4.93,6.51-9.78,6.51-14.54
			c0-1.7-0.34-3.01-1.03-3.94C1766.9,434.91,1766.04,434.45,1765.01,434.45z"/>
		<path class="st18" d="M1807.56,451.46c-2.99,5.02-6.04,8.9-9.17,11.65c-3.13,2.75-6.03,4.13-8.71,4.13c-1.54,0-3.11-0.9-4.71-2.69
			c-1.6-1.8-2.4-4.56-2.4-8.29c0-3.06,0.73-7.56,2.2-13.51c1.24-4.97,1.85-8.46,1.85-10.46c0.68-1.4,1.74-2.1,3.18-2.1
			c0.98,0,1.76,0.34,2.34,1.03c0.58,0.69,0.87,1.41,0.87,2.15c0,1.63-0.57,3.95-1.71,6.96c-2.17,5.85-3.25,10.88-3.25,15.08
			c0,3.83,0.89,5.74,2.66,5.74c2.26,0,5.14-1.92,8.64-5.77s6.5-9.21,8.99-16.09c0.98-2.75,1.78-4.54,2.4-5.37s1.45-1.24,2.5-1.24
			c1.59,0,2.38,1.05,2.38,3.15c0,0.26-0.22,1.11-0.66,2.55c-1.4,5.11-2.1,9.94-2.1,14.49c0,5.46,0.9,8.99,2.69,10.6
			c0.93,0.86,1.4,1.56,1.4,2.1c0,0.65-0.47,1.25-1.42,1.78c-0.95,0.54-1.8,0.81-2.57,0.81c-1.63,0-2.95-1.21-3.95-3.64
			c-1-2.43-1.5-6.01-1.5-10.74v-1.15C1807.52,452.24,1807.54,451.85,1807.56,451.46z"/>
		<path class="st18" d="M1852.24,444.53c0.05-0.12,0.11-0.23,0.17-0.35l0.25-0.42c2.12-5.2,4.79-9.2,8-11.98
			c3.21-2.79,6.71-4.18,10.51-4.18c3.73,0,6.76,1.43,9.08,4.3c2.32,2.87,3.48,6.29,3.48,10.25c0,6.06-2.4,11.69-7.19,16.86
			c-4.79,5.18-9.78,7.77-14.96,7.77c-3.17,0-5.8-1.21-7.89-3.64c-2.09-2.43-3.13-5.41-3.13-8.96l-0.07-1.43
			c-0.05-0.82-0.1-1.33-0.16-1.54c-0.06-0.21-0.3-0.31-0.72-0.31h-6.05c-2.24,0.02-4.18,0.19-5.81,0.49
			c-1.63,0.3-2.61,0.59-2.92,0.87c-0.32,0.28-0.55,0.9-0.72,1.85c-0.26,1.49-0.48,2.58-0.67,3.25c-0.21,0.79-0.31,1.62-0.31,2.48
			l0.14,2.94c0,1.05-0.29,2.16-0.86,3.34c-0.57,1.18-1.48,1.77-2.71,1.77c-1.91,0-2.87-1.25-2.87-3.74l0.14-3.08
			c0-0.37,0.26-2.17,0.77-5.39c0.63-3.97,1.22-10.19,1.79-18.68c0.19-2.73,0.32-4.41,0.4-5.04c0.08-0.63,0.5-1.24,1.26-1.84
			c0.76-0.6,1.59-0.89,2.5-0.89c1.68,0,2.52,0.69,2.52,2.06c0,0.21-0.27,1.96-0.8,5.25c-0.56,3.29-0.84,5.84-0.84,7.66
			c0,1.28,0.44,1.92,1.33,1.92c1.94,0,5.13-0.19,9.57-0.58C1849.91,445.18,1852.17,444.83,1852.24,444.53z M1856.72,453.24
			c0,2.36,0.5,4.28,1.49,5.77c0.99,1.49,2.3,2.24,3.94,2.24c3.47,0,6.96-1.91,10.46-5.72c3.5-3.81,5.25-8.05,5.25-12.72
			c0-2.87-0.67-5.2-2.01-6.98c-1.34-1.78-3.14-2.68-5.41-2.68c-3.76,0-6.98,2.3-9.67,6.91
			C1858.07,444.67,1856.72,449.06,1856.72,453.24z"/>
	</g>
	<g>
		<ellipse class="st28" cx="830.78" cy="1217.14" rx="284.52" ry="113.81"/>
		<ellipse class="st28" cx="1172.21" cy="1274.05" rx="208.65" ry="94.84"/>
		<g>
			<ellipse class="st114" cx="786.9" cy="1183.46" rx="170.26" ry="63.19"/>
			<ellipse class="st115" cx="785.41" cy="1177.34" rx="134.56" ry="49.94"/>
			<path class="st116" d="M799.41,922.55c0,0-12.2,129.61,64.05,236.38c9.08,12.72,3.61,30.53-11.09,35.83
				c-29.99,10.82-80.41,21-136.94-1.1c-13.44-5.26-19.21-21.18-11.94-33.65c21.08-36.16,59.17-117.33,63.57-237.46"/>
			<path class="st114" d="M1105.59,594c-39.18-22.97-85.53,7.97-103.33,22.03c1.48-17.39,2.26-35.16,2.26-53.24
				c0-13.4-0.43-26.62-1.25-39.65c-51.54,24.79-130.89,40.67-219.91,40.67S615,547.92,563.46,523.14
				c-0.82,13.03-1.25,26.26-1.25,39.65c0,17.6,0.74,34.91,2.15,51.87c-18.94-14.57-63.62-42.9-101.57-20.65
				c-45.45,26.64,46.89,183.15,136.11,176.7c39.44,101.97,106.75,164.09,184.47,164.09c77.74,0,142.99-64.09,182.43-166.12
				C1055.52,777.06,1151.31,620.81,1105.59,594z M554.1,695.42c-6.7,6.01-25.31-3.79-41.56-21.9
				c-16.25-18.11-23.99-37.66-17.29-43.68c6.7-6.01,25.31,3.79,41.56,21.9C553.05,669.85,560.8,689.41,554.1,695.42z
				 M1055.84,673.51c-16.25,18.11-34.86,27.92-41.56,21.9c-6.7-6.01,1.04-25.57,17.29-43.68c16.25-18.11,34.86-27.92,41.56-21.9
				C1079.83,635.85,1072.09,655.41,1055.84,673.51z"/>
			<ellipse class="st116" cx="783.37" cy="523.04" rx="220.14" ry="65.23"/>
			<g>
				<path class="st20" d="M733.95,782.43c0.86,0.02,2.9,0.29,6.1,0.81c1.48,0.29,2.64,0.44,3.51,0.46
					c5.25,0.14,8.39-3.92,9.41-12.17c0.56-4.68,1.13-18.02,1.71-40.01c0.09-3.34-0.53-5.67-1.85-7c-1.32-1.33-3.78-2.05-7.36-2.14
					c-0.87-0.02-2.1,0.04-3.71,0.18c-1.24,0.09-2.32,0.12-3.25,0.1c-2.1-0.06-3.78-0.67-5.05-1.85s-1.88-2.69-1.83-4.55
					c0.05-1.98,1.09-3.91,3.12-5.8c2.03-1.9,4.82-3.54,8.38-4.92c17.68-6.95,36.37-10.16,56.07-9.64c5.37,0.14,9.26,0.88,11.67,2.21
					c2.41,1.33,3.57,3.39,3.5,6.17c-0.04,1.61-0.48,2.85-1.3,3.72c-0.83,0.88-2.46,1.81-4.9,2.79c-3.88,1.57-6.12,3.55-6.74,5.94
					s-1.3,11.77-2.05,28.13c0.05,16.57,0.1,25.44,0.13,26.61c0.03,1.18,0.23,2.82,0.61,4.93c0.65,3.29,1.98,5.58,3.99,6.87
					c2.01,1.29,5.57,2.13,10.69,2.51c5.8,0.4,8.64,2.86,8.52,7.37c-0.12,4.69-4.32,7.67-12.57,8.94
					c-11.48,1.73-23.24,2.44-35.29,2.12c-7.91-0.21-15.37-0.87-22.39-1.99c-8.8-1.47-15.62-3.17-20.45-5.09
					c-4.71-1.86-7.02-4.51-6.93-7.97c0.05-1.85,0.86-3.44,2.44-4.76C729.73,783.09,731.67,782.43,733.95,782.43z"/>
			</g>
			<path class="st115" d="M560.03,612.71c0,0,207.06,139.23,440.66,2.12"/>
			<path class="st115" d="M598.9,770.7c0,0,165.1,108.03,366.9-1.02"/>
			<path class="st107" d="M485.09,608.51c1.07,2.87,0.78,6.07-0.7,8.75c-3,5.47-8.33,18.55,1.6,29.73
				c4.85,4.85-8.08,30.72-21.02-9.7C457.75,617.06,480.23,595.55,485.09,608.51z"/>
			<path class="st107" d="M1053.98,614.3c-2.78,4.51-6.96,8.52-11.36,11.03c-8.97,5.13-29.07,18.68-35.71,40.19
				c-2.49,9.71-43.98,34.85-3.26-27.18C1023.49,606.79,1066.53,593.92,1053.98,614.3z"/>
			<path class="st108" d="M631.85,723.09c21.87,38.28,74.85,123.31,118.73,132.32c38.61,13.85,8.73,72.86-52.46,24.76
				c-45.75-35.96-65.83-116.31-73.05-154.57C624.3,721.53,629.8,719.5,631.85,723.09z"/>
		</g>
		<g>
			<ellipse class="st117" cx="1135.31" cy="1253.95" rx="135.92" ry="50.45"/>
			<ellipse class="st115" cx="1134.38" cy="1250.12" rx="97.05" ry="36.02"/>
			<path class="st118" d="M1143.14,1090.68c0,0-7.64,81.11,40.08,147.92c5.68,7.96,2.26,19.1-6.94,22.42
				c-18.77,6.77-50.32,13.14-85.69-0.69c-8.41-3.29-12.02-13.25-7.47-21.06c13.19-22.63,37.03-73.42,39.78-148.6"/>
			<path class="st117" d="M1334.74,885.07c-24.52-14.37-53.52,4.99-64.66,13.78c0.93-10.88,1.42-22,1.42-33.32
				c0-8.38-0.27-16.66-0.78-24.81c-32.25,15.51-81.91,25.45-137.62,25.45s-105.36-9.94-137.62-25.45
				c-0.51,8.15-0.78,16.43-0.78,24.81c0,11.02,0.47,21.85,1.35,32.46c-11.85-9.12-39.81-26.85-63.56-12.93
				c-28.44,16.67,29.34,114.61,85.18,110.57c24.68,63.81,66.8,102.68,115.44,102.68c48.65,0,89.48-40.11,114.16-103.96
				C1303.41,999.63,1363.36,901.84,1334.74,885.07z M989.62,948.54c-4.19,3.76-15.84-2.37-26.01-13.71
				c-10.17-11.33-15.01-23.57-10.82-27.33c4.19-3.76,15.84,2.37,26.01,13.71C988.97,932.54,993.82,944.77,989.62,948.54z
				 M1303.61,934.83c-10.17,11.33-21.81,17.47-26.01,13.71c-4.19-3.76,0.65-16,10.82-27.33s21.81-17.47,26.01-13.71
				C1318.62,911.26,1313.78,923.5,1303.61,934.83z"/>
			<ellipse class="st118" cx="1133.1" cy="840.67" rx="137.76" ry="40.82"/>
			<g>
				<path class="st16" d="M1102.18,1002.99c0.54,0.01,1.81,0.18,3.82,0.51c0.92,0.18,1.65,0.28,2.2,0.29
					c3.28,0.09,5.25-2.45,5.89-7.62c0.35-2.93,0.71-11.28,1.07-25.04c0.06-2.09-0.33-3.55-1.16-4.38c-0.83-0.83-2.37-1.28-4.61-1.34
					c-0.54-0.01-1.32,0.02-2.32,0.11c-0.78,0.06-1.45,0.08-2.03,0.06c-1.31-0.03-2.37-0.42-3.16-1.16
					c-0.79-0.74-1.17-1.69-1.14-2.85c0.03-1.24,0.68-2.45,1.95-3.63c1.27-1.19,3.02-2.21,5.25-3.08
					c11.06-4.35,22.76-6.36,35.09-6.03c3.36,0.09,5.8,0.55,7.3,1.38c1.51,0.84,2.24,2.12,2.19,3.86c-0.03,1.01-0.3,1.78-0.82,2.33
					c-0.52,0.55-1.54,1.13-3.06,1.75c-2.43,0.98-3.83,2.22-4.22,3.72s-0.81,7.37-1.28,17.6c0.03,10.37,0.06,15.92,0.08,16.65
					c0.02,0.74,0.15,1.76,0.38,3.09c0.41,2.06,1.24,3.49,2.5,4.3c1.26,0.81,3.48,1.33,6.69,1.57c3.63,0.25,5.41,1.79,5.33,4.61
					c-0.08,2.94-2.7,4.8-7.87,5.59c-7.19,1.09-14.55,1.53-22.08,1.33c-4.95-0.13-9.62-0.55-14.01-1.24
					c-5.51-0.92-9.77-1.98-12.8-3.18c-2.95-1.16-4.39-2.82-4.34-4.99c0.03-1.16,0.54-2.15,1.53-2.98
					C1099.53,1003.4,1100.75,1002.99,1102.18,1002.99z"/>
			</g>
			<path class="st115" d="M993.34,896.78c0,0,129.58,87.13,275.76,1.32"/>
			<path class="st115" d="M1017.66,995.65c0,0,103.32,67.6,229.6-0.64"/>
			<path class="st111" d="M946.44,894.15c0.67,1.79,0.49,3.8-0.44,5.48c-1.88,3.42-5.21,11.61,1,18.6
				c3.04,3.04-5.06,19.22-13.15-6.07C929.33,899.5,943.4,886.04,946.44,894.15z"/>
			<path class="st111" d="M1302.44,897.78c-1.74,2.82-4.36,5.33-7.11,6.9c-5.61,3.21-18.19,11.69-22.35,25.15
				c-1.56,6.07-27.52,21.81-2.04-17.01C1283.36,893.07,1310.3,885.02,1302.44,897.78z"/>
			<path class="st112" d="M1038.28,965.86c13.68,23.96,46.84,77.17,74.3,82.8c24.16,8.67,5.46,45.59-32.83,15.49
				c-28.63-22.5-41.2-72.78-45.72-96.73C1033.56,964.88,1037,963.6,1038.28,965.86z"/>
		</g>
	</g>
	<g>
		<path d="M436.67,1499.44c2.02-0.62,3.63-1.94,4.84-3.96c0.34-0.58,0.72-1.17,1.13-1.75c2.09-3.16,4.9-7.79,8.41-13.89
			c3.52-6.11,5.85-10.28,7-12.53c1.15-2.25,3.73-7.66,7.74-16.23l7.1-14.97c2.47-5.18,4.02-8.18,4.66-9
			c0.63-0.82,1.71-1.6,3.24-2.34c1.53-0.74,2.96-1.11,4.3-1.11c2.95,0,4.65,0.7,5.09,2.11c1.06,2.2,2.18,6.76,3.34,13.69
			c1.41,8.27,3.83,18.39,7.28,30.36c3.45,11.97,6.65,19.79,9.6,23.46c1.54-0.27,3.28-0.41,5.2-0.41c1.61,0,2.64,0.33,3.09,1
			c0.45,0.67,0.67,1.84,0.67,3.52c0,1.06-0.14,3.62-0.41,7.67c-0.17,2.61-0.31,5.4-0.41,8.39c-0.07,2.16-0.17,4.19-0.31,6.07
			c-0.17,1.89-0.31,3.86-0.41,5.92c0,1.13-0.48,2.13-1.44,2.98c-0.96,0.86-2.13,1.32-3.5,1.39c-0.21,0.14-0.86-0.09-1.96-0.67
			c-1.1-0.58-1.65-1.46-1.65-2.62c0-1.06,0.41-5.85,1.24-14.36c0.14-1.44,0.21-2.28,0.21-2.52c0-0.31-0.09-1.54-0.26-3.71
			c-0.21-2.68-1.2-4.01-2.98-4.01c-1.03,0-7.23,0.34-18.6,1.03c-11.37,0.69-24.55,1.77-39.54,3.24c-1.89,0.21-2.95,0.31-3.19,0.31
			c-0.55,0.07-1.15,0.12-1.8,0.15c-2.57,0.21-4.06,0.75-4.48,1.65c-0.41,0.89-0.96,2.86-1.65,5.92c-0.69,3.05-1.03,6.07-1.03,9.06
			c0,2.47-0.08,4.16-0.23,5.07c-0.15,0.91-0.66,1.74-1.52,2.5c-0.86,0.75-2.01,1.13-3.45,1.13c-2.26,0-3.4-1.36-3.4-4.06
			c0-1.99,0.34-5.59,1.03-10.81c0.75-5.66,1.15-9.33,1.18-11.01c0.1-3.88,1.63-6.02,4.58-6.43L436.67,1499.44z M452.98,1498.2
			l45.28-3.81c-0.1-1.44-1.49-6.19-4.17-14.25c-3.46-10.22-5.93-18.95-7.41-26.19l-3.19-15.28l-0.62-1.23
			c-1,0.03-3.34,4.01-7.05,11.94c-7.58,15.92-13.16,27-16.72,33.24c-4.63,8.03-6.95,12.49-6.95,13.38
			C452.16,1496.99,452.43,1497.72,452.98,1498.2z"/>
		<path d="M576.01,1485.7c0,3.5-3.1,7.72-9.29,12.66c-6.19,4.94-12.58,7.41-19.17,7.41c-5.52,0-9.79-1.63-12.79-4.89
			c-3-3.26-4.5-7.8-4.5-13.64c0-9.81,3.31-19.14,9.93-27.99c6.62-8.85,13.86-13.27,21.71-13.27c2.57,0,4.67,0.84,6.3,2.52
			c1.63,1.68,2.44,3.7,2.44,6.07c0,5.28-2.59,10.34-7.77,15.18c-5.18,4.84-12.11,9.59-20.79,14.25c-1.78,0.93-2.68,2.13-2.68,3.6
			c0,2.85,0.82,5.13,2.47,6.84c1.65,1.72,4.08,2.57,7.31,2.57c7.38,0,14.9-4.08,22.59-12.25c1.13-1.13,1.99-1.7,2.57-1.7
			C575.46,1483.08,576.01,1483.95,576.01,1485.7z M540.25,1477.67c14.54-8.64,21.82-15.59,21.82-20.84c0-2.06-0.93-3.09-2.78-3.09
			c-3.16,0-6.71,2.32-10.68,6.95S541.86,1470.98,540.25,1477.67z"/>
		<path d="M623.09,1480.76c-4.39,7.38-8.88,13.09-13.48,17.13c-4.6,4.05-8.87,6.07-12.81,6.07c-2.26,0-4.57-1.32-6.92-3.96
			c-2.35-2.64-3.52-6.71-3.52-12.19c0-4.49,1.08-11.11,3.24-19.86c1.82-7.31,2.73-12.43,2.73-15.38c0.99-2.06,2.55-3.09,4.68-3.09
			c1.44,0,2.59,0.51,3.45,1.52c0.86,1.01,1.29,2.07,1.29,3.16c0,2.4-0.84,5.81-2.52,10.24c-3.19,8.61-4.79,16-4.79,22.18
			c0,5.63,1.3,8.44,3.91,8.44c3.33,0,7.56-2.83,12.71-8.49c5.15-5.66,9.55-13.55,13.22-23.67c1.44-4.05,2.62-6.68,3.52-7.9
			c0.91-1.22,2.13-1.83,3.68-1.83c2.33,0,3.5,1.54,3.5,4.63c0,0.38-0.33,1.63-0.98,3.76c-2.06,7.51-3.09,14.61-3.09,21.3
			c0,8.03,1.32,13.22,3.96,15.59c1.37,1.27,2.06,2.3,2.06,3.09c0,0.96-0.69,1.83-2.08,2.62c-1.39,0.79-2.65,1.18-3.78,1.18
			c-2.4,0-4.34-1.78-5.81-5.35c-1.48-3.57-2.21-8.83-2.21-15.8v-1.7C623.04,1481.91,623.05,1481.34,623.09,1480.76z M638.01,1427.76
			c0,0.62-0.18,1.43-0.54,2.44c-0.36,1.01-0.87,2.07-1.52,3.16c-0.65,1.1-1.44,2.2-2.37,3.29c-0.93,1.1-1.97,2.04-3.14,2.83
			c-0.82,0.58-1.81,1.12-2.96,1.62c-1.15,0.5-2.36,0.92-3.63,1.26c-1.27,0.34-2.56,0.61-3.88,0.8c-1.32,0.19-2.58,0.28-3.78,0.28
			c-1.96,0-3.84-0.23-5.66-0.69c-1.82-0.46-3.5-1.11-5.04-1.96c-1.54-0.84-2.93-1.84-4.17-3.01c-1.24-1.17-2.26-2.45-3.09-3.86
			c-0.24-0.41-0.47-0.91-0.69-1.49c-0.22-0.58-0.41-1.16-0.57-1.72s-0.27-1.07-0.36-1.52s-0.13-0.74-0.13-0.88
			c0-0.89,0.12-1.64,0.36-2.24c0.24-0.6,0.54-1.08,0.9-1.44c0.36-0.36,0.76-0.61,1.21-0.75c0.45-0.14,0.88-0.21,1.29-0.21
			c1.03,0,1.89,0.2,2.57,0.59c0.69,0.4,1.06,1,1.13,1.83c0.14,1.58,0.45,3.05,0.95,4.42c0.5,1.37,1.24,2.54,2.24,3.5
			c1,1,2.32,1.81,3.96,2.44s3.6,0.95,5.87,0.95c0.55,0,1.19-0.05,1.93-0.15c0.74-0.1,1.48-0.26,2.24-0.46
			c0.75-0.21,1.48-0.45,2.19-0.72c0.7-0.27,1.31-0.58,1.83-0.93c0.82-0.55,1.54-1.2,2.14-1.96c0.6-0.75,1.11-1.54,1.54-2.37
			c0.43-0.82,0.79-1.65,1.08-2.47c0.29-0.82,0.54-1.58,0.75-2.26c0.34-1.03,0.84-1.77,1.49-2.21c0.65-0.45,1.32-0.67,2.01-0.67
			c1.27,0,2.23,0.36,2.88,1.08C637.68,1425.04,638.01,1426.19,638.01,1427.76z"/>
		<path d="M665.07,1506.08c-5.15,0-9.1-1.48-11.86-4.43c-2.76-2.95-4.14-7.08-4.14-12.4c0-8.95,3.55-18.39,10.65-28.33
			s13.7-14.9,19.81-14.9c2.78,0,5.17,1.5,7.18,4.5c2.01,3,3.01,6.18,3.01,9.54c0,2.02-0.44,3.77-1.31,5.22
			c-0.88,1.46-1.76,2.19-2.65,2.19c-1.99,0-3.4-2.01-4.22-6.02c-0.93-4.32-2.26-6.48-4.01-6.48c-3.57,0-7.79,4.24-12.66,12.71
			c-4.87,8.47-7.31,15.63-7.31,21.46c0,5.83,3.31,8.75,9.93,8.75c5.04,0,10.98-2.37,17.8-7.1c2.4-1.68,4.17-2.52,5.3-2.52
			c1.17,0,1.75,0.67,1.75,2.01c0,2.61-3.07,5.89-9.21,9.85S670.97,1506.08,665.07,1506.08z"/>
		<path d="M743.28,1462.44c-3.19,0.07-10.02,9.52-20.48,28.35c-3.53,6.35-5.59,9.8-6.17,10.37c-0.58,0.57-1.66,1.07-3.22,1.52
			c-1.56,0.45-2.86,0.67-3.88,0.67c-2.3,0-3.45-4.48-3.45-13.43c0-5.04,1.08-14.17,3.24-27.37c0.89-5.35,1.34-9.18,1.34-11.47
			c0-2.26,1.01-3.4,3.04-3.4c3.81,0,5.71,2.74,5.71,8.23c0,2.57-0.63,7.61-1.9,15.13c-1.48,8.58-2.23,13.79-2.26,15.64
			c2.13-2.06,5.25-6.57,9.37-13.53c5.83-9.54,10.13-15.58,12.89-18.14c2.76-2.55,5.62-3.83,8.57-3.83c2.23,0,4,1.49,5.33,4.48
			c1.32,2.98,2.12,10.1,2.39,21.35c0.07,2.81,0.33,4.91,0.77,6.28c0.45,1.37,0.77,2.06,0.98,2.06c1.61,0,5.11-5.49,10.5-16.46
			c2.88-5.8,5.69-10.21,8.41-13.22c2.73-3.02,5.75-4.53,9.08-4.53c2.78,0,4.8,1.43,6.07,4.3c1.27,2.86,2.18,7.11,2.73,12.73
			c0.51,5.69,1.31,10.91,2.39,15.64c1.08,4.73,3.06,7.77,5.94,9.11c1.96,0.93,2.93,2.01,2.93,3.24c0,1.2-0.82,2.44-2.47,3.7
			c-1.65,1.27-3.16,1.9-4.53,1.9c-2.75,0-5.2-1.68-7.36-5.04c-2.16-3.36-3.79-10.63-4.89-21.82c-0.48-4.49-0.94-7.68-1.39-9.57
			c-0.45-1.89-1.15-2.83-2.11-2.83c-1.44,0-3.15,1.37-5.12,4.12c-1.97,2.74-5.15,8.32-9.54,16.72c-3.43,6.55-6.03,10.92-7.79,13.09
			c-1.77,2.18-3.47,3.27-5.12,3.27c-1.47,0-2.8-0.59-3.96-1.78c-1.17-1.18-1.9-2.61-2.21-4.27c-0.31-1.66-0.64-5.75-0.98-12.27
			C745.6,1470.54,744.65,1464.23,743.28,1462.44z"/>
		<path d="M844.54,1450.71c7.79,3.16,11.68,10.63,11.68,22.43c0,8.85-2.76,16.59-8.28,23.21c-5.52,6.62-11.53,9.93-18.01,9.93
			c-5.8,0-10.31-2.3-13.53-6.9c-3.22-4.6-4.84-11.32-4.84-20.17c0-10.67,1.88-21.46,5.63-32.39c3.76-10.92,8.44-19.17,14.05-24.75
			c5.61-5.57,11.28-8.36,17.01-8.36c3.46,0,6.25,1.14,8.36,3.42c2.11,2.28,3.16,5.45,3.16,9.49c0,3.22-1.4,7.05-4.19,11.47
			C852.79,1442.53,849.11,1446.73,844.54,1450.71z M846.81,1474.59c0-5.11-0.94-9.23-2.83-12.35c-1.89-3.12-3.98-4.68-6.28-4.68
			c-0.69,0-4.51,2.64-11.47,7.92c-1.78,1.37-3.52,2.64-5.2,3.81c-0.51,2.95-0.77,6.19-0.77,9.72c0,6.24,0.93,10.94,2.8,14.1
			c1.87,3.16,4.45,4.73,7.74,4.73c4.6,0,8.41-2.41,11.45-7.23c3.04-4.82,4.55-10.13,4.55-15.93V1474.59z M822.21,1460.08
			c13.21-10.19,21.37-17.47,24.49-21.84c3.12-4.37,4.68-7.81,4.68-10.32c0-4.01-1.61-6.02-4.84-6.02c-4.49,0-9.01,3.38-13.56,10.14
			C828.45,1438.79,824.85,1448.14,822.21,1460.08z"/>
		<path d="M904.69,1484.98c-5.21,4.91-10.43,8.75-15.64,11.53c-5.21,2.78-9.21,4.17-11.99,4.17c-3.19,0-5.74-1.36-7.64-4.09
			c-1.9-2.73-2.86-6.08-2.86-10.06c0-5.8,1.11-12.65,3.32-20.56c2.21-7.91,3.9-12.39,5.07-13.46c1.17-1.06,2.71-1.6,4.63-1.6
			c1.03,0,1.83,0.61,2.42,1.83c0.58,1.22,0.88,2.46,0.88,3.73c0,0.86-0.4,1.97-1.18,3.34c-4.49,7.79-6.74,15.83-6.74,24.13
			c0,1.92,0.36,3.61,1.08,5.07c0.72,1.46,1.82,2.19,3.29,2.19c1.89,0,4.21-0.57,6.97-1.72c2.76-1.15,5.87-3.03,9.34-5.63
			c3.46-2.61,5.8-4.72,7-6.33c1.2-1.61,2.05-3.45,2.55-5.51s0.85-6.52,1.05-13.38c0.21-6.86,1.87-10.29,4.99-10.29
			c1.85,0,3.05,0.49,3.6,1.47s0.82,2.84,0.82,5.58c0,2.06-0.31,6.52-0.93,13.38c-0.14,1.54-0.22,2.97-0.26,4.27
			c-1,18.32-3.74,32.67-8.23,43.07c-4.49,10.39-11.03,15.59-19.6,15.59c-6.72,0-12.7-1.76-17.93-5.27
			c-5.23-3.52-7.85-6.49-7.85-8.93c0-1.13,0.26-2.25,0.8-3.34c0.53-1.1,1.21-1.65,2.03-1.65c0.41,0,0.86,0.33,1.34,0.98
			c4.49,6.89,11.4,10.34,20.74,10.34c5.93,0,10.38-3.63,13.33-10.88C902.04,1505.69,903.9,1496.37,904.69,1484.98z"/>
		<path d="M965.26,1480.76c-4.39,7.38-8.88,13.09-13.48,17.13c-4.6,4.05-8.87,6.07-12.81,6.07c-2.26,0-4.57-1.32-6.92-3.96
			c-2.35-2.64-3.52-6.71-3.52-12.19c0-4.49,1.08-11.11,3.24-19.86c1.82-7.31,2.73-12.43,2.73-15.38c0.99-2.06,2.55-3.09,4.68-3.09
			c1.44,0,2.59,0.51,3.45,1.52c0.86,1.01,1.29,2.07,1.29,3.16c0,2.4-0.84,5.81-2.52,10.24c-3.19,8.61-4.79,16-4.79,22.18
			c0,5.63,1.3,8.44,3.91,8.44c3.33,0,7.56-2.83,12.71-8.49c5.15-5.66,9.55-13.55,13.22-23.67c1.44-4.05,2.62-6.68,3.52-7.9
			c0.91-1.22,2.13-1.83,3.68-1.83c2.33,0,3.5,1.54,3.5,4.63c0,0.38-0.33,1.63-0.98,3.76c-2.06,7.51-3.09,14.61-3.09,21.3
			c0,8.03,1.32,13.22,3.96,15.59c1.37,1.27,2.06,2.3,2.06,3.09c0,0.96-0.69,1.83-2.08,2.62c-1.39,0.79-2.65,1.18-3.78,1.18
			c-2.4,0-4.34-1.78-5.81-5.35c-1.48-3.57-2.21-8.83-2.21-15.8v-1.7C965.2,1481.91,965.22,1481.34,965.26,1480.76z M980.18,1427.76
			c0,0.62-0.18,1.43-0.54,2.44c-0.36,1.01-0.87,2.07-1.52,3.16c-0.65,1.1-1.44,2.2-2.37,3.29c-0.93,1.1-1.97,2.04-3.14,2.83
			c-0.82,0.58-1.81,1.12-2.96,1.62c-1.15,0.5-2.36,0.92-3.63,1.26c-1.27,0.34-2.56,0.61-3.88,0.8c-1.32,0.19-2.58,0.28-3.78,0.28
			c-1.96,0-3.84-0.23-5.66-0.69c-1.82-0.46-3.5-1.11-5.04-1.96c-1.54-0.84-2.93-1.84-4.17-3.01c-1.24-1.17-2.26-2.45-3.09-3.86
			c-0.24-0.41-0.47-0.91-0.69-1.49c-0.22-0.58-0.41-1.16-0.57-1.72s-0.27-1.07-0.36-1.52s-0.13-0.74-0.13-0.88
			c0-0.89,0.12-1.64,0.36-2.24c0.24-0.6,0.54-1.08,0.9-1.44c0.36-0.36,0.76-0.61,1.21-0.75c0.45-0.14,0.88-0.21,1.29-0.21
			c1.03,0,1.89,0.2,2.57,0.59c0.69,0.4,1.06,1,1.13,1.83c0.14,1.58,0.45,3.05,0.95,4.42c0.5,1.37,1.24,2.54,2.24,3.5
			c1,1,2.32,1.81,3.96,2.44s3.6,0.95,5.87,0.95c0.55,0,1.19-0.05,1.93-0.15c0.74-0.1,1.48-0.26,2.24-0.46
			c0.75-0.21,1.48-0.45,2.19-0.72c0.7-0.27,1.31-0.58,1.83-0.93c0.82-0.55,1.54-1.2,2.14-1.96c0.6-0.75,1.11-1.54,1.54-2.37
			c0.43-0.82,0.79-1.65,1.08-2.47c0.29-0.82,0.54-1.58,0.75-2.26c0.34-1.03,0.84-1.77,1.49-2.21c0.65-0.45,1.32-0.67,2.01-0.67
			c1.27,0,2.23,0.36,2.88,1.08C979.85,1425.04,980.18,1426.19,980.18,1427.76z"/>
		<path d="M1070.38,1463.57c-1.78,0-3.73,1.17-5.84,3.5c-2.11,2.33-5.33,7.56-9.65,15.69c-5.69,10.91-9.37,17.12-11.04,18.63
			c-1.67,1.51-3.04,2.26-4.14,2.26c-4.05,0-6.07-1.96-6.07-5.87c0-1.65,0.27-3.98,0.82-7c1.89-10.36,2.83-21.28,2.83-32.78
			c0-1.3,0.56-2.75,1.67-4.35c1.11-1.6,2.17-2.39,3.17-2.39c1.78,0,3.05,0.55,3.81,1.65c0.75,1.1,1.13,3.31,1.13,6.64
			c0,3.47-1.03,10.6-3.09,21.4c-0.69,3.57-1.03,5.83-1.03,6.79c0,0.55,0.14,0.82,0.41,0.82c0.51,0,2.9-4.1,7.15-12.3
			c4.29-8.34,8.04-14.2,11.27-17.6c3.22-3.4,6.77-5.09,10.65-5.09c3.09,0,5.6,1.41,7.54,4.22c1.94,2.81,3.35,7.94,4.25,15.38
			c0.96,8.47,1.83,13.75,2.6,15.82c0.77,2.08,2,3.11,3.68,3.11c1.06,0,2.4-0.38,4.01-1.13c0.27-0.14,0.48-0.21,0.62-0.21
			c1.47,0,2.21,0.86,2.21,2.57c0,1.51-1.01,3.11-3.04,4.81c-2.02,1.7-4.46,2.55-7.31,2.55c-2.92,0-5.17-1.16-6.77-3.47
			c-1.59-2.32-2.86-8.5-3.78-18.55C1075.49,1468.62,1073.46,1463.57,1070.38,1463.57z"/>
		<path d="M1120.23,1505.72c-4.7,0-8.58-1.78-11.63-5.35c-3.05-3.57-4.58-7.98-4.58-13.22c0-8.85,2.98-17.57,8.93-26.16
			s13.08-12.89,21.38-12.89c5.49,0,9.94,2.11,13.35,6.33s5.12,9.24,5.12,15.08c0,8.92-3.53,17.19-10.57,24.8
			S1127.85,1505.72,1120.23,1505.72z M1113.08,1485.8c0,3.46,0.73,6.29,2.19,8.49c1.46,2.2,3.39,3.29,5.79,3.29
			c5.11,0,10.24-2.8,15.38-8.41s7.72-11.84,7.72-18.7c0-4.22-0.99-7.64-2.96-10.26c-1.97-2.62-4.62-3.94-7.95-3.94
			c-5.52,0-10.26,3.39-14.23,10.16C1115.06,1473.21,1113.08,1479.66,1113.08,1485.8z"/>
		<path d="M1241.97,1463.57c-1.78,0-3.73,1.17-5.84,3.5c-2.11,2.33-5.33,7.56-9.65,15.69c-5.69,10.91-9.37,17.12-11.04,18.63
			c-1.67,1.51-3.04,2.26-4.14,2.26c-4.05,0-6.07-1.96-6.07-5.87c0-1.65,0.27-3.98,0.82-7c1.89-10.36,2.83-21.28,2.83-32.78
			c0-1.3,0.56-2.75,1.67-4.35c1.11-1.6,2.17-2.39,3.17-2.39c1.78,0,3.05,0.55,3.81,1.65c0.75,1.1,1.13,3.31,1.13,6.64
			c0,3.47-1.03,10.6-3.09,21.4c-0.69,3.57-1.03,5.83-1.03,6.79c0,0.55,0.14,0.82,0.41,0.82c0.51,0,2.9-4.1,7.15-12.3
			c4.29-8.34,8.04-14.2,11.27-17.6c3.22-3.4,6.77-5.09,10.65-5.09c3.09,0,5.6,1.41,7.54,4.22c1.94,2.81,3.35,7.94,4.25,15.38
			c0.96,8.47,1.83,13.75,2.6,15.82c0.77,2.08,2,3.11,3.68,3.11c1.06,0,2.4-0.38,4.01-1.13c0.27-0.14,0.48-0.21,0.62-0.21
			c1.47,0,2.21,0.86,2.21,2.57c0,1.51-1.01,3.11-3.04,4.81c-2.02,1.7-4.46,2.55-7.31,2.55c-2.92,0-5.17-1.16-6.77-3.47
			c-1.59-2.32-2.86-8.5-3.78-18.55C1247.08,1468.62,1245.06,1463.57,1241.97,1463.57z"/>
		<path d="M1305.67,1461.21c-0.82-0.03-1.63,0.75-2.42,2.37c-7.1,14.2-12.47,23.84-16.11,28.92c-0.31,0.45-0.7,1.1-1.18,1.96
			c-4.29,7.65-7.43,11.47-9.42,11.47c-2.68,0-4.01-1.29-4.01-3.86c0-2.33,1.66-5.51,4.99-9.52c3.22-3.81,7.46-10.27,12.71-19.37
			c5.25-9.11,9.5-17.28,12.76-24.52c0.62-1.3,1.54-1.96,2.78-1.96c0.51,0,1.43,0.23,2.75,0.69c1.32,0.46,2.17,0.97,2.55,1.52
			c0.38,0.55,1.22,3.74,2.52,9.57c4.22,21.03,8.66,33.5,13.33,37.41c1.1,0.96,1.75,1.6,1.96,1.93c0.21,0.33,0.31,0.78,0.31,1.36
			c0,1.06-0.34,2.03-1.03,2.91c-0.69,0.87-1.36,1.43-2.01,1.67c-0.65,0.24-1.99,0.36-4.01,0.36c-0.72,0-2.4-1.77-5.04-5.33
			c-2.64-3.55-5.73-13.23-9.26-29.05C1306.98,1465.5,1306.26,1462.65,1305.67,1461.21z"/>
		<path d="M1374.42,1484.41c-4.8,6.45-9.55,11.29-14.25,14.51c-4.7,3.22-9,4.84-12.92,4.84c-2.64,0-4.92-1.11-6.84-3.34
			c-1.92-2.23-2.88-5.09-2.88-8.59c0-9.02,4.03-18.74,12.09-29.15c8.06-10.41,16.07-15.62,24.03-15.62c2.88,0,5.03,1.65,6.43,4.94
			c0.45,1.1,1.15,1.65,2.11,1.65c2.74,0,4.12,1.06,4.12,3.19c0,1.06-0.17,2.52-0.51,4.37c-1.85,10.12-2.78,17.25-2.78,21.4
			c0,8.3,1.58,13.28,4.73,14.92c1.51,0.82,2.26,1.84,2.26,3.04c0,1.06-0.74,2.14-2.21,3.22c-1.48,1.08-2.9,1.62-4.27,1.62
			c-2.64,0-4.82-1.82-6.54-5.45C1375.27,1496.32,1374.42,1491.14,1374.42,1484.41z M1371.28,1455.44c-4.53,0-9.79,4.25-15.8,12.73
			s-9,15.53-9,21.12c0,3.95,1.3,5.92,3.91,5.92c3.77,0,9-3.81,15.69-11.42c6.69-7.62,10.03-14.61,10.03-20.99
			C1376.11,1457.9,1374.5,1455.44,1371.28,1455.44z"/>
		<path d="M1439.45,1469.54c0.38-0.72,0.98-5.02,1.8-12.92c0.62-6.31,2.62-9.47,6.02-9.47c2.78,0,4.17,1.39,4.17,4.17
			c0,0.65-0.24,1.97-0.72,3.96c-2.64,10.94-3.96,20.12-3.96,27.53c0,8.03,1.32,13.22,3.96,15.59c1.37,1.27,2.06,2.3,2.06,3.09
			c0,0.96-0.69,1.83-2.08,2.62c-1.39,0.79-2.65,1.18-3.78,1.18c-5.35,0-8.03-8.27-8.03-24.8c0-1.1-0.41-1.65-1.24-1.65
			c-3.22,0-7.17,0.19-11.83,0.57c-4.67,0.38-8,0.86-10.01,1.44c-2.01,0.58-3.24,1.12-3.71,1.62c-0.46,0.5-0.87,1.82-1.23,3.96
			c-0.36,2.14-0.54,4.37-0.54,6.66v6.33c0,3.67-1.68,5.51-5.04,5.51c-2.81,0-4.22-1.83-4.22-5.51c0-2.4,0.31-5.45,0.93-9.16
			c1.13-6.79,2.26-18.49,3.4-35.09c0.14-2.16,0.33-3.53,0.57-4.12c0.24-0.58,0.87-1.23,1.88-1.93c1.01-0.7,2.12-1.05,3.32-1.05
			c2.47,0,3.7,1.01,3.7,3.04c0,0.31-0.39,2.88-1.18,7.72c-0.82,4.84-1.23,8.59-1.23,11.27c0,1.89,0.65,2.83,1.96,2.83
			c2.61,0,7.38-0.44,14.3-1.31C1435.63,1470.75,1439.21,1470.06,1439.45,1469.54z"/>
		<path d="M1501.61,1484.98c-5.21,4.91-10.43,8.75-15.64,11.53c-5.21,2.78-9.21,4.17-11.99,4.17c-3.19,0-5.74-1.36-7.64-4.09
			c-1.9-2.73-2.86-6.08-2.86-10.06c0-5.8,1.11-12.65,3.32-20.56c2.21-7.91,3.9-12.39,5.07-13.46c1.17-1.06,2.71-1.6,4.63-1.6
			c1.03,0,1.83,0.61,2.42,1.83c0.58,1.22,0.88,2.46,0.88,3.73c0,0.86-0.4,1.97-1.18,3.34c-4.49,7.79-6.74,15.83-6.74,24.13
			c0,1.92,0.36,3.61,1.08,5.07c0.72,1.46,1.82,2.19,3.29,2.19c1.89,0,4.21-0.57,6.97-1.72c2.76-1.15,5.87-3.03,9.34-5.63
			c3.46-2.61,5.8-4.72,7-6.33c1.2-1.61,2.05-3.45,2.55-5.51s0.85-6.52,1.05-13.38c0.21-6.86,1.87-10.29,4.99-10.29
			c1.85,0,3.05,0.49,3.6,1.47s0.82,2.84,0.82,5.58c0,2.06-0.31,6.52-0.93,13.38c-0.14,1.54-0.22,2.97-0.26,4.27
			c-1,18.32-3.74,32.67-8.23,43.07c-4.49,10.39-11.03,15.59-19.6,15.59c-6.72,0-12.7-1.76-17.93-5.27
			c-5.23-3.52-7.85-6.49-7.85-8.93c0-1.13,0.26-2.25,0.8-3.34c0.53-1.1,1.21-1.65,2.03-1.65c0.41,0,0.86,0.33,1.34,0.98
			c4.49,6.89,11.4,10.34,20.74,10.34c5.93,0,10.38-3.63,13.33-10.88C1498.95,1505.69,1500.82,1496.37,1501.61,1484.98z"/>
		<path class="st21" d="M425.44,1563.43v-0.88c0-2.62,0.25-4.87,0.74-6.76c0.49-1.88,1.44-4.37,2.85-7.45
			c1.91-4.12,3.32-6.73,4.23-7.84c0.41-0.52,1.94-1.98,4.6-4.39c1.62-1.48,2.84-2.4,3.64-2.74s1.45-0.52,1.95-0.52
			c0.77,0,1.15,0.46,1.15,1.39c0,0.61-1.28,2.14-3.85,4.6c-3.48,3.26-6.29,7.09-8.43,11.48c-2.14,4.39-3.21,8.21-3.21,11.45
			c0,1.55,0.44,4.55,1.31,8.99c0.11,0.55,0.18,0.97,0.21,1.26c0.59,2.89,1.28,5.06,2.09,6.5s2.08,2.92,3.83,4.44
			c1.91,1.64,2.86,2.93,2.86,3.85c0,1.03-0.87,1.55-2.62,1.55c-1.07,0-2.32-0.81-3.76-2.44s-2.73-3.3-3.88-5.02
			c-1.15-1.72-2.06-4.56-2.72-8.51C425.77,1568.45,425.44,1565.46,425.44,1563.43z"/>
		<path class="st21" d="M468.03,1563.16c-2.28,3.83-4.62,6.81-7.01,8.91c-2.39,2.1-4.61,3.16-6.66,3.16c-1.18,0-2.38-0.69-3.6-2.06
			c-1.22-1.37-1.83-3.49-1.83-6.34c0-2.34,0.56-5.78,1.69-10.33c0.95-3.8,1.42-6.47,1.42-8c0.52-1.07,1.33-1.6,2.43-1.6
			c0.75,0,1.35,0.26,1.79,0.79c0.45,0.53,0.67,1.07,0.67,1.65c0,1.25-0.44,3.02-1.31,5.32c-1.66,4.48-2.49,8.32-2.49,11.53
			c0,2.93,0.68,4.39,2.03,4.39c1.73,0,3.93-1.47,6.61-4.41c2.68-2.94,4.97-7.05,6.88-12.31c0.75-2.1,1.36-3.47,1.83-4.11
			c0.47-0.63,1.11-0.95,1.91-0.95c1.21,0,1.82,0.8,1.82,2.41c0,0.2-0.17,0.85-0.51,1.95c-1.07,3.91-1.6,7.6-1.6,11.08
			c0,4.17,0.69,6.88,2.06,8.11c0.71,0.66,1.07,1.2,1.07,1.61c0,0.5-0.36,0.95-1.08,1.36c-0.72,0.41-1.38,0.62-1.97,0.62
			c-1.25,0-2.26-0.93-3.02-2.78c-0.77-1.85-1.15-4.59-1.15-8.21v-0.88C468.01,1563.76,468.02,1563.46,468.03,1563.16z"/>
		<path class="st21" d="M489.87,1576.32c-2.68,0-4.73-0.77-6.17-2.3s-2.15-3.68-2.15-6.45c0-4.66,1.85-9.57,5.54-14.73
			c3.69-5.16,7.13-7.75,10.3-7.75c1.44,0,2.69,0.78,3.73,2.34c1.04,1.56,1.56,3.22,1.56,4.96c0,1.05-0.23,1.96-0.68,2.72
			c-0.46,0.76-0.92,1.14-1.38,1.14c-1.04,0-1.77-1.04-2.19-3.13c-0.48-2.25-1.18-3.37-2.09-3.37c-1.86,0-4.05,2.2-6.58,6.61
			c-2.53,4.41-3.8,8.13-3.8,11.16c0,3.03,1.72,4.55,5.16,4.55c2.62,0,5.71-1.23,9.26-3.69c1.25-0.87,2.17-1.31,2.76-1.31
			c0.61,0,0.91,0.35,0.91,1.04c0,1.36-1.6,3.06-4.79,5.12C496.07,1575.29,492.94,1576.32,489.87,1576.32z"/>
		<path class="st21" d="M528.56,1554.22c-0.93,0-1.94,0.61-3.04,1.82c-1.1,1.21-2.77,3.93-5.02,8.16c-2.96,5.67-4.87,8.9-5.74,9.69
			c-0.87,0.79-1.58,1.18-2.15,1.18c-2.11,0-3.16-1.02-3.16-3.05c0-0.86,0.14-2.07,0.43-3.64c0.98-5.39,1.47-11.07,1.47-17.04
			c0-0.68,0.29-1.43,0.87-2.26c0.58-0.83,1.13-1.24,1.65-1.24c0.93,0,1.59,0.29,1.98,0.86s0.59,1.72,0.59,3.45
			c0,1.8-0.54,5.51-1.61,11.13c-0.36,1.86-0.54,3.03-0.54,3.53c0,0.29,0.07,0.43,0.21,0.43c0.27,0,1.51-2.13,3.72-6.4
			c2.23-4.33,4.18-7.38,5.86-9.15c1.68-1.77,3.52-2.65,5.54-2.65c1.61,0,2.91,0.73,3.92,2.19c1.01,1.46,1.74,4.13,2.21,8
			c0.5,4.41,0.95,7.15,1.35,8.23c0.4,1.08,1.04,1.62,1.91,1.62c0.55,0,1.25-0.2,2.09-0.59c0.14-0.07,0.25-0.11,0.32-0.11
			c0.77,0,1.15,0.45,1.15,1.34c0,0.79-0.53,1.62-1.58,2.5s-2.32,1.32-3.8,1.32c-1.52,0-2.69-0.6-3.52-1.81
			c-0.83-1.2-1.49-4.42-1.97-9.65C531.21,1556.85,530.16,1554.22,528.56,1554.22z"/>
		<path class="st21" d="M569.57,1565.73c0,1.82-1.61,4.01-4.83,6.58s-6.54,3.85-9.97,3.85c-2.87,0-5.09-0.85-6.65-2.54
			s-2.34-4.06-2.34-7.09c0-5.1,1.72-9.95,5.16-14.56c3.44-4.6,7.21-6.9,11.29-6.9c1.34,0,2.43,0.44,3.28,1.31
			c0.85,0.87,1.27,1.93,1.27,3.16c0,2.75-1.35,5.38-4.04,7.89s-6.3,4.99-10.81,7.41c-0.93,0.48-1.39,1.11-1.39,1.87
			c0,1.48,0.43,2.67,1.28,3.56c0.86,0.89,2.12,1.34,3.8,1.34c3.83,0,7.75-2.12,11.75-6.37c0.59-0.59,1.03-0.88,1.34-0.88
			C569.29,1564.36,569.57,1564.82,569.57,1565.73z M550.98,1561.56c7.56-4.5,11.34-8.11,11.34-10.84c0-1.07-0.48-1.6-1.45-1.6
			c-1.64,0-3.49,1.2-5.55,3.61C553.27,1555.13,551.82,1558.08,550.98,1561.56z"/>
		<path class="st21" d="M594.06,1563.16c-2.28,3.83-4.62,6.81-7.01,8.91c-2.39,2.1-4.61,3.16-6.66,3.16c-1.18,0-2.38-0.69-3.6-2.06
			c-1.22-1.37-1.83-3.49-1.83-6.34c0-2.34,0.56-5.78,1.69-10.33c0.95-3.8,1.42-6.47,1.42-8c0.52-1.07,1.33-1.6,2.43-1.6
			c0.75,0,1.35,0.26,1.79,0.79c0.45,0.53,0.67,1.07,0.67,1.65c0,1.25-0.44,3.02-1.31,5.32c-1.66,4.48-2.49,8.32-2.49,11.53
			c0,2.93,0.68,4.39,2.03,4.39c1.73,0,3.93-1.47,6.61-4.41c2.68-2.94,4.97-7.05,6.88-12.31c0.75-2.1,1.36-3.47,1.83-4.11
			c0.47-0.63,1.11-0.95,1.91-0.95c1.21,0,1.82,0.8,1.82,2.41c0,0.2-0.17,0.85-0.51,1.95c-1.07,3.91-1.6,7.6-1.6,11.08
			c0,4.17,0.69,6.88,2.06,8.11c0.71,0.66,1.07,1.2,1.07,1.61c0,0.5-0.36,0.95-1.08,1.36c-0.72,0.41-1.38,0.62-1.97,0.62
			c-1.25,0-2.26-0.93-3.02-2.78c-0.77-1.85-1.15-4.59-1.15-8.21v-0.88C594.03,1563.76,594.04,1563.46,594.06,1563.16z
			 M601.81,1535.6c0,0.32-0.09,0.75-0.28,1.27c-0.19,0.53-0.45,1.08-0.79,1.65c-0.34,0.57-0.75,1.14-1.23,1.71
			c-0.48,0.57-1.03,1.06-1.63,1.47c-0.43,0.3-0.94,0.58-1.54,0.84c-0.6,0.26-1.23,0.48-1.89,0.66s-1.33,0.32-2.02,0.41
			c-0.69,0.1-1.34,0.15-1.97,0.15c-1.02,0-2-0.12-2.94-0.36c-0.95-0.24-1.82-0.58-2.62-1.02c-0.8-0.44-1.53-0.96-2.17-1.56
			c-0.64-0.61-1.18-1.28-1.61-2.01c-0.13-0.21-0.25-0.47-0.36-0.78c-0.12-0.3-0.21-0.6-0.29-0.9c-0.08-0.29-0.14-0.56-0.19-0.79
			c-0.04-0.23-0.07-0.38-0.07-0.46c0-0.46,0.06-0.85,0.19-1.16s0.28-0.56,0.47-0.75c0.19-0.19,0.4-0.32,0.63-0.39
			s0.46-0.11,0.67-0.11c0.54,0,0.98,0.1,1.34,0.31s0.55,0.52,0.59,0.95c0.07,0.82,0.24,1.59,0.5,2.3c0.26,0.71,0.65,1.32,1.16,1.82
			c0.52,0.52,1.2,0.94,2.06,1.27c0.86,0.33,1.87,0.5,3.05,0.5c0.29,0,0.62-0.03,1-0.08c0.38-0.05,0.77-0.13,1.16-0.24
			c0.39-0.11,0.77-0.23,1.14-0.38c0.37-0.14,0.68-0.3,0.95-0.48c0.43-0.29,0.8-0.62,1.11-1.02c0.31-0.39,0.58-0.8,0.8-1.23
			c0.22-0.43,0.41-0.86,0.56-1.28s0.28-0.82,0.39-1.18c0.18-0.54,0.44-0.92,0.78-1.15s0.69-0.35,1.04-0.35
			c0.66,0,1.16,0.19,1.5,0.56S601.81,1534.78,601.81,1535.6z"/>
		<path class="st21" d="M649.39,1563.16c-2.28,3.83-4.62,6.81-7.01,8.91c-2.39,2.1-4.61,3.16-6.66,3.16c-1.18,0-2.38-0.69-3.6-2.06
			c-1.22-1.37-1.83-3.49-1.83-6.34c0-2.34,0.56-5.78,1.69-10.33c0.95-3.8,1.42-6.47,1.42-8c0.52-1.07,1.33-1.6,2.43-1.6
			c0.75,0,1.35,0.26,1.79,0.79c0.45,0.53,0.67,1.07,0.67,1.65c0,1.25-0.44,3.02-1.31,5.32c-1.66,4.48-2.49,8.32-2.49,11.53
			c0,2.93,0.68,4.39,2.03,4.39c1.73,0,3.93-1.47,6.61-4.41c2.68-2.94,4.97-7.05,6.88-12.31c0.75-2.1,1.36-3.47,1.83-4.11
			c0.47-0.63,1.11-0.95,1.91-0.95c1.21,0,1.82,0.8,1.82,2.41c0,0.2-0.17,0.85-0.51,1.95c-1.07,3.91-1.6,7.6-1.6,11.08
			c0,4.17,0.69,6.88,2.06,8.11c0.71,0.66,1.07,1.2,1.07,1.61c0,0.5-0.36,0.95-1.08,1.36c-0.72,0.41-1.38,0.62-1.97,0.62
			c-1.25,0-2.26-0.93-3.02-2.78c-0.77-1.85-1.15-4.59-1.15-8.21v-0.88C649.36,1563.76,649.37,1563.46,649.39,1563.16z"/>
		<path class="st21" d="M677,1558.34c2.3,0.37,4.09,1.22,5.38,2.54c1.28,1.32,1.93,2.93,1.93,4.84c0,3.01-1.28,5.52-3.83,7.53
			s-5.9,3.01-10.06,3.01c-2.48,0-4.62-0.54-6.41-1.61s-2.69-2.26-2.69-3.56c0-1.07,0.62-1.61,1.85-1.61c0.18,0,0.46,0.15,0.83,0.46
			c1.96,1.69,4.29,2.54,6.98,2.54c2.37,0,4.42-0.62,6.13-1.87c1.71-1.25,2.57-2.87,2.57-4.87c0-1.32-0.49-2.42-1.46-3.3
			c-0.97-0.88-2.1-1.32-3.38-1.32c-0.98,0-2.7,0.38-5.16,1.15c-0.48,0.16-1,0.24-1.55,0.24c-1.07,0-1.6-0.72-1.6-2.17
			c0-0.5,0.25-0.9,0.76-1.2c0.51-0.3,1.6-0.65,3.28-1.04c5.08-1.16,7.63-3.22,7.63-6.18c0-0.89-0.32-1.63-0.95-2.21
			c-0.63-0.58-1.45-0.87-2.45-0.87c-1.86,0-3.84,0.82-5.94,2.46c-1.23,0.96-2.17,1.44-2.81,1.44c-1.09,0-1.63-0.51-1.63-1.53
			c0-1.34,1.26-2.71,3.79-4.11c2.52-1.4,4.95-2.1,7.26-2.1c2.32,0,4.14,0.62,5.47,1.85c1.33,1.23,1.99,2.52,1.99,3.88
			C682.91,1553.97,680.94,1556.51,677,1558.34z"/>
		<path class="st21" d="M717.61,1560.73c4.23-0.73,8.02-3.46,11.37-8.19c1.57-2.19,2.95-3.75,4.13-4.67
			c1.19-0.92,2.45-1.38,3.79-1.38c0.54,0,1.07,0.24,1.61,0.72s0.8,1.05,0.8,1.71c0,0.87-0.83,1.56-2.49,2.06
			c-0.88,0.27-1.7,0.72-2.46,1.36c-0.77,0.64-2.22,2.18-4.36,4.6c-1.68,1.89-3.18,3.22-4.52,3.99c-0.13,0.07-0.19,0.13-0.19,0.19
			c0,0.07,0.08,0.14,0.24,0.21c1.3,0.7,2.67,2.04,4.12,4.04c2.1,2.91,3.68,4.74,4.74,5.5c1.05,0.76,2.26,1.14,3.61,1.14l0.88-0.03
			c0.62-0.04,0.94,0.24,0.94,0.83c0,0.68-0.38,1.38-1.15,2.11s-2.03,1.1-3.8,1.1c-1.36,0-2.67-0.58-3.95-1.75
			c-1.28-1.17-2.73-3.06-4.37-5.69c-0.95-1.55-1.83-2.73-2.65-3.53s-1.73-1.2-2.73-1.2c-0.21,0-0.87,0.18-1.98,0.54
			c-1.11,0.36-1.73,0.7-1.86,1.03s-0.23,1.52-0.29,3.56c-0.06,2.04-0.09,3.69-0.09,4.94c0,0.66-0.31,1.25-0.94,1.77
			c-0.63,0.52-1.3,0.78-2.03,0.78c-0.75,0-1.34-0.22-1.77-0.66c-0.43-0.44-0.64-0.89-0.64-1.35c0-0.64,0.24-2.16,0.72-4.55
			c0.86-4.35,1.71-11.53,2.57-21.54c0.07-0.96,0.44-1.83,1.1-2.61s1.41-1.16,2.25-1.16c0.46,0,0.85,0.25,1.16,0.75
			c0.31,0.5,0.47,1.14,0.47,1.93c0,0.62-0.11,1.34-0.32,2.14C718.5,1553.1,717.86,1556.87,717.61,1560.73z"/>
		<path class="st21" d="M763.39,1565.35c-2.71,2.55-5.42,4.55-8.13,5.99s-4.79,2.17-6.23,2.17c-1.66,0-2.98-0.71-3.97-2.13
			c-0.99-1.42-1.49-3.16-1.49-5.23c0-3.01,0.58-6.58,1.73-10.69s2.03-6.44,2.64-7c0.61-0.55,1.41-0.83,2.41-0.83
			c0.54,0,0.95,0.32,1.26,0.95c0.3,0.63,0.45,1.28,0.45,1.94c0,0.45-0.21,1.03-0.62,1.74c-2.34,4.05-3.5,8.23-3.5,12.55
			c0,1,0.19,1.88,0.56,2.64c0.38,0.76,0.95,1.14,1.71,1.14c0.98,0,2.19-0.3,3.63-0.9s3.05-1.57,4.86-2.93
			c1.8-1.35,3.01-2.45,3.64-3.29c0.62-0.84,1.07-1.79,1.32-2.86s0.44-3.39,0.55-6.96c0.11-3.57,0.97-5.35,2.6-5.35
			c0.96,0,1.59,0.25,1.87,0.76c0.29,0.51,0.43,1.48,0.43,2.9c0,1.07-0.16,3.39-0.48,6.96c-0.07,0.8-0.12,1.54-0.13,2.22
			c-0.52,9.53-1.94,16.99-4.28,22.4s-5.74,8.11-10.19,8.11c-3.5,0-6.6-0.91-9.32-2.74c-2.72-1.83-4.08-3.38-4.08-4.64
			c0-0.59,0.14-1.17,0.42-1.74c0.28-0.57,0.63-0.86,1.06-0.86c0.21,0,0.45,0.17,0.7,0.51c2.34,3.59,5.93,5.38,10.78,5.38
			c3.08,0,5.4-1.89,6.93-5.66C762.01,1576.12,762.98,1571.28,763.39,1565.35z"/>
		<path class="st21" d="M791.73,1547c-0.68-1.84-2.25-3.83-4.71-5.97c-2.32-2-3.48-3.71-3.48-5.14c0-1.14,0.38-2.06,1.12-2.77
			s2.14-1.34,4.17-1.91c2.53-0.7,5.11-1.48,7.73-2.37c2.62-0.88,4.2-1.45,4.74-1.7c0.34-0.16,0.69-0.24,1.04-0.24
			c0.59,0,0.88,0.53,0.88,1.58c0,0.59-0.71,1.39-2.14,2.41c-1.43,1.02-3.95,1.96-7.57,2.84c-2.28,0.57-3.68,0.99-4.19,1.27
			c-0.51,0.28-0.76,0.56-0.76,0.84c0,0.64,0.7,1.57,2.09,2.78c5.24,4.58,7.87,10.34,7.87,17.26c0,2.98-0.79,6.17-2.35,9.57
			s-3.66,5.93-6.27,7.58c-2.61,1.66-5.17,2.49-7.67,2.49c-2.25,0-3.95-1.1-5.11-3.29c-1.16-2.19-1.74-4.61-1.74-7.25
			c0-4.67,1.44-9.08,4.32-13.22c2.88-4.14,5.93-6.21,9.14-6.21c0.43,0,0.96,0.28,1.61,0.83
			C791.03,1546.92,791.46,1547.13,791.73,1547z M780.06,1565.09c0,1.98,0.26,3.53,0.79,4.66c0.53,1.12,1.22,1.69,2.07,1.69
			c1.14,0,2.68-0.7,4.63-2.11s3.51-3.5,4.7-6.26c1.19-2.76,1.78-5.35,1.78-7.76c0-2-0.28-3.62-0.84-4.86
			c-0.56-1.24-1.08-1.86-1.57-1.86c-3.17,0-5.9,1.94-8.16,5.81C781.19,1558.26,780.06,1561.82,780.06,1565.09z"/>
		<path class="st21" d="M809.68,1560.73c4.23-0.73,8.02-3.46,11.37-8.19c1.57-2.19,2.95-3.75,4.13-4.67
			c1.19-0.92,2.45-1.38,3.79-1.38c0.54,0,1.07,0.24,1.61,0.72s0.8,1.05,0.8,1.71c0,0.87-0.83,1.56-2.49,2.06
			c-0.88,0.27-1.7,0.72-2.46,1.36c-0.77,0.64-2.22,2.18-4.36,4.6c-1.68,1.89-3.18,3.22-4.52,3.99c-0.13,0.07-0.19,0.13-0.19,0.19
			c0,0.07,0.08,0.14,0.24,0.21c1.3,0.7,2.67,2.04,4.12,4.04c2.1,2.91,3.68,4.74,4.74,5.5c1.05,0.76,2.26,1.14,3.61,1.14l0.88-0.03
			c0.62-0.04,0.94,0.24,0.94,0.83c0,0.68-0.38,1.38-1.15,2.11s-2.03,1.1-3.8,1.1c-1.36,0-2.67-0.58-3.95-1.75
			c-1.28-1.17-2.73-3.06-4.37-5.69c-0.95-1.55-1.83-2.73-2.65-3.53s-1.73-1.2-2.73-1.2c-0.21,0-0.87,0.18-1.98,0.54
			c-1.11,0.36-1.73,0.7-1.86,1.03s-0.23,1.52-0.29,3.56c-0.06,2.04-0.09,3.69-0.09,4.94c0,0.66-0.31,1.25-0.94,1.77
			c-0.63,0.52-1.3,0.78-2.03,0.78c-0.75,0-1.34-0.22-1.77-0.66c-0.43-0.44-0.64-0.89-0.64-1.35c0-0.64,0.24-2.16,0.72-4.55
			c0.86-4.35,1.71-11.53,2.57-21.54c0.07-0.96,0.44-1.83,1.1-2.61s1.41-1.16,2.25-1.16c0.46,0,0.85,0.25,1.16,0.75
			c0.31,0.5,0.47,1.14,0.47,1.93c0,0.62-0.11,1.34-0.32,2.14C810.56,1553.1,809.93,1556.87,809.68,1560.73z"/>
		<path class="st21" d="M853.72,1565.06c-2.5,3.35-4.97,5.87-7.41,7.55c-2.44,1.68-4.68,2.52-6.72,2.52c-1.37,0-2.56-0.58-3.56-1.74
			c-1-1.16-1.5-2.65-1.5-4.47c0-4.69,2.1-9.74,6.29-15.16s8.36-8.12,12.5-8.12c1.5,0,2.61,0.86,3.34,2.57
			c0.23,0.57,0.6,0.86,1.1,0.86c1.43,0,2.14,0.55,2.14,1.66c0,0.55-0.09,1.31-0.27,2.27c-0.96,5.26-1.44,8.97-1.44,11.13
			c0,4.32,0.82,6.9,2.46,7.76c0.79,0.43,1.18,0.95,1.18,1.58c0,0.55-0.38,1.11-1.15,1.67c-0.77,0.56-1.51,0.84-2.22,0.84
			c-1.37,0-2.51-0.95-3.4-2.84C854.17,1571.25,853.72,1568.56,853.72,1565.06z M852.09,1550c-2.35,0-5.09,2.21-8.21,6.62
			c-3.12,4.41-4.68,8.08-4.68,10.98c0,2.05,0.68,3.08,2.03,3.08c1.96,0,4.68-1.98,8.16-5.94c3.48-3.96,5.22-7.6,5.22-10.92
			C854.6,1551.27,853.77,1550,852.09,1550z"/>
		<path class="st21" d="M907.98,1554.22c-0.93,0-1.94,0.61-3.04,1.82c-1.1,1.21-2.77,3.93-5.02,8.16c-2.96,5.67-4.87,8.9-5.74,9.69
			c-0.87,0.79-1.58,1.18-2.15,1.18c-2.11,0-3.16-1.02-3.16-3.05c0-0.86,0.14-2.07,0.43-3.64c0.98-5.39,1.47-11.07,1.47-17.04
			c0-0.68,0.29-1.43,0.87-2.26c0.58-0.83,1.13-1.24,1.65-1.24c0.93,0,1.59,0.29,1.98,0.86s0.59,1.72,0.59,3.45
			c0,1.8-0.54,5.51-1.61,11.13c-0.36,1.86-0.54,3.03-0.54,3.53c0,0.29,0.07,0.43,0.21,0.43c0.27,0,1.51-2.13,3.72-6.4
			c2.23-4.33,4.18-7.38,5.86-9.15c1.68-1.77,3.52-2.65,5.54-2.65c1.61,0,2.91,0.73,3.92,2.19c1.01,1.46,1.74,4.13,2.21,8
			c0.5,4.41,0.95,7.15,1.35,8.23c0.4,1.08,1.04,1.62,1.91,1.62c0.55,0,1.25-0.2,2.09-0.59c0.14-0.07,0.25-0.11,0.32-0.11
			c0.77,0,1.15,0.45,1.15,1.34c0,0.79-0.53,1.62-1.58,2.5s-2.32,1.32-3.8,1.32c-1.52,0-2.69-0.6-3.52-1.81
			c-0.83-1.2-1.49-4.42-1.97-9.65C910.64,1556.85,909.59,1554.22,907.98,1554.22z"/>
		<path class="st21" d="M933.91,1576.14c-2.44,0-4.46-0.93-6.05-2.78s-2.38-4.15-2.38-6.88c0-4.6,1.55-9.14,4.64-13.61
			s6.8-6.7,11.12-6.7c2.85,0,5.17,1.1,6.94,3.29c1.77,2.19,2.66,4.81,2.66,7.84c0,4.64-1.83,8.94-5.5,12.9
			C941.68,1574.16,937.87,1576.14,933.91,1576.14z M930.19,1565.78c0,1.8,0.38,3.27,1.14,4.41c0.76,1.14,1.76,1.71,3.01,1.71
			c2.66,0,5.32-1.46,8-4.37c2.67-2.92,4.01-6.16,4.01-9.73c0-2.19-0.51-3.97-1.54-5.34c-1.03-1.36-2.4-2.05-4.13-2.05
			c-2.87,0-5.34,1.76-7.4,5.28C931.22,1559.23,930.19,1562.59,930.19,1565.78z"/>
		<path class="st21" d="M972.81,1547c-0.68-1.84-2.25-3.83-4.71-5.97c-2.32-2-3.48-3.71-3.48-5.14c0-1.14,0.38-2.06,1.12-2.77
			s2.14-1.34,4.17-1.91c2.53-0.7,5.11-1.48,7.73-2.37c2.62-0.88,4.2-1.45,4.74-1.7c0.34-0.16,0.69-0.24,1.04-0.24
			c0.59,0,0.88,0.53,0.88,1.58c0,0.59-0.71,1.39-2.14,2.41c-1.43,1.02-3.95,1.96-7.57,2.84c-2.28,0.57-3.68,0.99-4.19,1.27
			c-0.51,0.28-0.76,0.56-0.76,0.84c0,0.64,0.7,1.57,2.09,2.78c5.24,4.58,7.87,10.34,7.87,17.26c0,2.98-0.79,6.17-2.35,9.57
			s-3.66,5.93-6.27,7.58c-2.61,1.66-5.17,2.49-7.67,2.49c-2.25,0-3.95-1.1-5.11-3.29c-1.16-2.19-1.74-4.61-1.74-7.25
			c0-4.67,1.44-9.08,4.32-13.22c2.88-4.14,5.93-6.21,9.14-6.21c0.43,0,0.96,0.28,1.61,0.83
			C972.12,1546.92,972.55,1547.13,972.81,1547z M961.15,1565.09c0,1.98,0.26,3.53,0.79,4.66c0.53,1.12,1.22,1.69,2.07,1.69
			c1.14,0,2.68-0.7,4.63-2.11s3.51-3.5,4.7-6.26c1.19-2.76,1.78-5.35,1.78-7.76c0-2-0.28-3.62-0.84-4.86
			c-0.56-1.24-1.08-1.86-1.57-1.86c-3.17,0-5.9,1.94-8.16,5.81C962.28,1558.26,961.15,1561.82,961.15,1565.09z"/>
		<path class="st21" d="M1009.31,1565.73c0,1.82-1.61,4.01-4.83,6.58s-6.54,3.85-9.97,3.85c-2.87,0-5.09-0.85-6.65-2.54
			s-2.34-4.06-2.34-7.09c0-5.1,1.72-9.95,5.16-14.56c3.44-4.6,7.21-6.9,11.29-6.9c1.34,0,2.43,0.44,3.28,1.31
			c0.85,0.87,1.27,1.93,1.27,3.16c0,2.75-1.35,5.38-4.04,7.89s-6.3,4.99-10.81,7.41c-0.93,0.48-1.39,1.11-1.39,1.87
			c0,1.48,0.43,2.67,1.28,3.56c0.86,0.89,2.12,1.34,3.8,1.34c3.83,0,7.75-2.12,11.75-6.37c0.59-0.59,1.03-0.88,1.34-0.88
			C1009.02,1564.36,1009.31,1564.82,1009.31,1565.73z M990.71,1561.56c7.56-4.5,11.34-8.11,11.34-10.84c0-1.07-0.48-1.6-1.45-1.6
			c-1.64,0-3.49,1.2-5.55,3.61C993,1555.13,991.55,1558.08,990.71,1561.56z"/>
		<path class="st21" d="M1035.26,1543.66c-0.64-2.78-1.44-4.73-2.38-5.83s-2.19-1.96-3.75-2.57c-1.55-0.61-2.95-0.91-4.2-0.91
			c-0.48,0-1.19,0.18-2.13,0.55c-0.94,0.37-1.65,0.7-2.15,1c-0.7,0.41-1.34,0.62-1.93,0.62c-0.68,0-1.02-0.36-1.02-1.07
			c0-0.77,0.58-1.83,1.74-3.18c1.16-1.36,3.2-2.03,6.13-2.03h1.15c2.91,0,5.48,0.76,7.71,2.29c2.23,1.52,3.81,3.71,4.75,6.54
			c0.94,2.84,1.4,6.65,1.4,11.42c0,3.25-1.03,7.18-3.08,11.8c-2.05,4.62-4.66,8.12-7.83,10.49c-3.17,2.37-6.53,3.56-10.1,3.56
			c-1.28,0-2.49-0.74-3.61-2.22c-1.12-1.48-1.69-3.32-1.69-5.51c0-4.05,0.89-7.62,2.66-10.72c1.77-3.09,3.76-5.6,5.97-7.53
			c2.2-1.93,5.25-3.48,9.14-4.66c1.28-0.37,2.16-0.67,2.62-0.88C1035.14,1544.59,1035.33,1544.21,1035.26,1543.66z M1035.98,1549.11
			c-4.12,0.84-7.28,2.17-9.47,3.99c-4.96,4.64-7.44,9.84-7.44,15.6c0,0.77,0.13,1.49,0.4,2.15c0.27,0.67,0.57,1,0.91,1
			c1.32,0,2.52-0.23,3.61-0.7c1.09-0.46,2.42-1.43,3.99-2.9c1.57-1.47,2.99-3.29,4.27-5.47c1.27-2.18,2.2-4.27,2.78-6.29
			c0.58-2.02,0.89-3.56,0.92-4.64C1035.99,1550.78,1036,1549.86,1035.98,1549.11z"/>
		<path class="st21" d="M1062.69,1563.16c-2.28,3.83-4.62,6.81-7.01,8.91c-2.39,2.1-4.61,3.16-6.66,3.16c-1.18,0-2.38-0.69-3.6-2.06
			c-1.22-1.37-1.83-3.49-1.83-6.34c0-2.34,0.56-5.78,1.69-10.33c0.95-3.8,1.42-6.47,1.42-8c0.52-1.07,1.33-1.6,2.43-1.6
			c0.75,0,1.35,0.26,1.79,0.79c0.45,0.53,0.67,1.07,0.67,1.65c0,1.25-0.44,3.02-1.31,5.32c-1.66,4.48-2.49,8.32-2.49,11.53
			c0,2.93,0.68,4.39,2.03,4.39c1.73,0,3.93-1.47,6.61-4.41c2.68-2.94,4.97-7.05,6.88-12.31c0.75-2.1,1.36-3.47,1.83-4.11
			c0.47-0.63,1.11-0.95,1.91-0.95c1.21,0,1.82,0.8,1.82,2.41c0,0.2-0.17,0.85-0.51,1.95c-1.07,3.91-1.6,7.6-1.6,11.08
			c0,4.17,0.69,6.88,2.06,8.11c0.71,0.66,1.07,1.2,1.07,1.61c0,0.5-0.36,0.95-1.08,1.36c-0.72,0.41-1.38,0.62-1.97,0.62
			c-1.25,0-2.26-0.93-3.02-2.78c-0.77-1.85-1.15-4.59-1.15-8.21v-0.88C1062.66,1563.76,1062.67,1563.46,1062.69,1563.16z"/>
		<path class="st21" d="M1097.42,1553.64c-1.66,0.04-5.21,4.95-10.65,14.74c-1.84,3.3-2.91,5.1-3.21,5.39
			c-0.3,0.29-0.86,0.56-1.67,0.79c-0.81,0.23-1.49,0.35-2.02,0.35c-1.2,0-1.79-2.33-1.79-6.98c0-2.62,0.56-7.37,1.69-14.23
			c0.46-2.78,0.7-4.77,0.7-5.97c0-1.18,0.53-1.77,1.58-1.77c1.98,0,2.97,1.43,2.97,4.28c0,1.34-0.33,3.96-0.99,7.87
			c-0.77,4.46-1.16,7.17-1.18,8.13c1.11-1.07,2.73-3.42,4.87-7.04c3.03-4.96,5.27-8.1,6.7-9.43c1.44-1.33,2.92-1.99,4.46-1.99
			c1.16,0,2.08,0.78,2.77,2.33c0.69,1.55,1.1,5.25,1.24,11.1c0.04,1.46,0.17,2.55,0.4,3.26c0.23,0.71,0.4,1.07,0.51,1.07
			c0.84,0,2.66-2.85,5.46-8.56c1.5-3.01,2.96-5.31,4.37-6.88c1.42-1.57,2.99-2.35,4.72-2.35c1.44,0,2.5,0.75,3.16,2.23
			c0.66,1.49,1.13,3.7,1.42,6.62c0.27,2.96,0.68,5.67,1.24,8.13c0.56,2.46,1.59,4.04,3.09,4.74c1.02,0.48,1.53,1.04,1.53,1.69
			c0,0.62-0.43,1.27-1.28,1.93c-0.86,0.66-1.64,0.99-2.35,0.99c-1.43,0-2.7-0.87-3.83-2.62c-1.12-1.75-1.97-5.53-2.54-11.34
			c-0.25-2.34-0.49-4-0.72-4.98c-0.23-0.98-0.6-1.47-1.1-1.47c-0.75,0-1.64,0.71-2.66,2.14s-2.68,4.33-4.96,8.7
			c-1.78,3.41-3.14,5.68-4.05,6.81c-0.92,1.13-1.81,1.7-2.66,1.7c-0.77,0-1.45-0.31-2.06-0.92s-0.99-1.36-1.15-2.22
			c-0.16-0.86-0.33-2.99-0.51-6.38C1098.62,1557.85,1098.13,1554.56,1097.42,1553.64z"/>
		<path class="st21" d="M1156.44,1565.73c0,1.82-1.61,4.01-4.83,6.58s-6.54,3.85-9.97,3.85c-2.87,0-5.09-0.85-6.65-2.54
			s-2.34-4.06-2.34-7.09c0-5.1,1.72-9.95,5.16-14.56c3.44-4.6,7.21-6.9,11.29-6.9c1.34,0,2.43,0.44,3.28,1.31
			c0.85,0.87,1.27,1.93,1.27,3.16c0,2.75-1.35,5.38-4.04,7.89s-6.3,4.99-10.81,7.41c-0.93,0.48-1.39,1.11-1.39,1.87
			c0,1.48,0.43,2.67,1.28,3.56c0.86,0.89,2.12,1.34,3.8,1.34c3.83,0,7.75-2.12,11.75-6.37c0.59-0.59,1.03-0.88,1.34-0.88
			C1156.15,1564.36,1156.44,1564.82,1156.44,1565.73z M1137.84,1561.56c7.56-4.5,11.34-8.11,11.34-10.84c0-1.07-0.48-1.6-1.45-1.6
			c-1.64,0-3.49,1.2-5.55,3.61C1140.13,1555.13,1138.68,1558.08,1137.84,1561.56z"/>
		<path class="st21" d="M1177.04,1552.99c-0.43-0.02-0.85,0.39-1.26,1.23c-3.69,7.38-6.48,12.4-8.38,15.04
			c-0.16,0.23-0.37,0.57-0.62,1.02c-2.23,3.98-3.86,5.97-4.9,5.97c-1.39,0-2.09-0.67-2.09-2.01c0-1.21,0.87-2.86,2.6-4.95
			c1.68-1.98,3.88-5.34,6.61-10.07c2.73-4.74,4.94-8.99,6.64-12.75c0.32-0.68,0.8-1.02,1.44-1.02c0.27,0,0.75,0.12,1.43,0.36
			s1.13,0.5,1.32,0.79c0.2,0.29,0.63,1.94,1.31,4.98c2.19,10.93,4.5,17.42,6.93,19.45c0.57,0.5,0.91,0.83,1.02,1
			c0.11,0.17,0.16,0.41,0.16,0.71c0,0.55-0.18,1.06-0.54,1.51c-0.36,0.45-0.7,0.74-1.04,0.87c-0.34,0.12-1.04,0.19-2.09,0.19
			c-0.38,0-1.25-0.92-2.62-2.77c-1.37-1.85-2.98-6.88-4.82-15.1C1177.72,1555.22,1177.34,1553.74,1177.04,1552.99z"/>
		<path class="st21" d="M1217.66,1565.73c0,1.82-1.61,4.01-4.83,6.58s-6.54,3.85-9.97,3.85c-2.87,0-5.09-0.85-6.65-2.54
			s-2.34-4.06-2.34-7.09c0-5.1,1.72-9.95,5.16-14.56c3.44-4.6,7.21-6.9,11.29-6.9c1.34,0,2.43,0.44,3.28,1.31
			c0.85,0.87,1.27,1.93,1.27,3.16c0,2.75-1.35,5.38-4.04,7.89s-6.3,4.99-10.81,7.41c-0.93,0.48-1.39,1.11-1.39,1.87
			c0,1.48,0.43,2.67,1.28,3.56c0.86,0.89,2.12,1.34,3.8,1.34c3.83,0,7.75-2.12,11.75-6.37c0.59-0.59,1.03-0.88,1.34-0.88
			C1217.37,1564.36,1217.66,1564.82,1217.66,1565.73z M1199.06,1561.56c7.56-4.5,11.34-8.11,11.34-10.84c0-1.07-0.48-1.6-1.45-1.6
			c-1.64,0-3.49,1.2-5.55,3.61C1201.35,1555.13,1199.9,1558.08,1199.06,1561.56z"/>
		<path class="st21" d="M1242.14,1563.16c-2.28,3.83-4.62,6.81-7.01,8.91c-2.39,2.1-4.61,3.16-6.66,3.16c-1.18,0-2.38-0.69-3.6-2.06
			c-1.22-1.37-1.83-3.49-1.83-6.34c0-2.34,0.56-5.78,1.69-10.33c0.95-3.8,1.42-6.47,1.42-8c0.52-1.07,1.33-1.6,2.43-1.6
			c0.75,0,1.35,0.26,1.79,0.79c0.45,0.53,0.67,1.07,0.67,1.65c0,1.25-0.44,3.02-1.31,5.32c-1.66,4.48-2.49,8.32-2.49,11.53
			c0,2.93,0.68,4.39,2.03,4.39c1.73,0,3.93-1.47,6.61-4.41c2.68-2.94,4.97-7.05,6.88-12.31c0.75-2.1,1.36-3.47,1.83-4.11
			c0.47-0.63,1.11-0.95,1.91-0.95c1.21,0,1.82,0.8,1.82,2.41c0,0.2-0.17,0.85-0.51,1.95c-1.07,3.91-1.6,7.6-1.6,11.08
			c0,4.17,0.69,6.88,2.06,8.11c0.71,0.66,1.07,1.2,1.07,1.61c0,0.5-0.36,0.95-1.08,1.36c-0.72,0.41-1.38,0.62-1.97,0.62
			c-1.25,0-2.26-0.93-3.02-2.78c-0.77-1.85-1.15-4.59-1.15-8.21v-0.88C1242.11,1563.76,1242.12,1563.46,1242.14,1563.16z
			 M1249.9,1535.6c0,0.32-0.09,0.75-0.28,1.27c-0.19,0.53-0.45,1.08-0.79,1.65c-0.34,0.57-0.75,1.14-1.23,1.71
			c-0.48,0.57-1.03,1.06-1.63,1.47c-0.43,0.3-0.94,0.58-1.54,0.84c-0.6,0.26-1.23,0.48-1.89,0.66s-1.33,0.32-2.02,0.41
			c-0.69,0.1-1.34,0.15-1.97,0.15c-1.02,0-2-0.12-2.94-0.36c-0.95-0.24-1.82-0.58-2.62-1.02c-0.8-0.44-1.53-0.96-2.17-1.56
			c-0.64-0.61-1.18-1.28-1.61-2.01c-0.13-0.21-0.25-0.47-0.36-0.78c-0.12-0.3-0.21-0.6-0.29-0.9c-0.08-0.29-0.14-0.56-0.19-0.79
			c-0.04-0.23-0.07-0.38-0.07-0.46c0-0.46,0.06-0.85,0.19-1.16s0.28-0.56,0.47-0.75c0.19-0.19,0.4-0.32,0.63-0.39
			s0.46-0.11,0.67-0.11c0.54,0,0.98,0.1,1.34,0.31s0.55,0.52,0.59,0.95c0.07,0.82,0.24,1.59,0.5,2.3c0.26,0.71,0.65,1.32,1.16,1.82
			c0.52,0.52,1.2,0.94,2.06,1.27c0.86,0.33,1.87,0.5,3.05,0.5c0.29,0,0.62-0.03,1-0.08c0.38-0.05,0.77-0.13,1.16-0.24
			c0.39-0.11,0.77-0.23,1.14-0.38c0.37-0.14,0.68-0.3,0.95-0.48c0.43-0.29,0.8-0.62,1.11-1.02c0.31-0.39,0.58-0.8,0.8-1.23
			c0.22-0.43,0.41-0.86,0.56-1.28s0.28-0.82,0.39-1.18c0.18-0.54,0.44-0.92,0.78-1.15s0.69-0.35,1.04-0.35
			c0.66,0,1.16,0.19,1.5,0.56S1249.9,1534.78,1249.9,1535.6z"/>
		<path class="st21" d="M1257.18,1579.88c3.32-0.82,5.45-1.98,6.39-3.49c0.95-1.51,1.42-2.58,1.42-3.22c0-1.82-0.25-3.1-0.75-3.85
			c-0.23-0.34-0.35-0.67-0.35-0.99c0-0.27,0.12-0.65,0.36-1.15c0.24-0.5,0.49-0.75,0.74-0.75c0.37,0,0.96,0.14,1.77,0.41
			c0.8,0.28,1.28,0.52,1.42,0.72s0.38,0.87,0.71,1.99c0.33,1.12,0.5,2.09,0.5,2.89c0,0.3-0.33,1.24-1,2.82s-1.58,2.81-2.74,3.69
			s-2.25,1.42-3.26,1.62c-0.41,0.07-0.79,0.17-1.15,0.29c-1.41,0.62-2.56,0.94-3.45,0.94c-0.52,0-0.78-0.42-0.78-1.26
			C1256.99,1580.23,1257.05,1580.01,1257.18,1579.88z"/>
		<path class="st21" d="M1317.67,1543.66c-0.64-2.78-1.44-4.73-2.38-5.83s-2.19-1.96-3.75-2.57c-1.55-0.61-2.95-0.91-4.2-0.91
			c-0.48,0-1.19,0.18-2.13,0.55c-0.94,0.37-1.65,0.7-2.15,1c-0.7,0.41-1.34,0.62-1.93,0.62c-0.68,0-1.02-0.36-1.02-1.07
			c0-0.77,0.58-1.83,1.74-3.18c1.16-1.36,3.2-2.03,6.13-2.03h1.15c2.91,0,5.48,0.76,7.71,2.29c2.23,1.52,3.81,3.71,4.75,6.54
			c0.94,2.84,1.4,6.65,1.4,11.42c0,3.25-1.03,7.18-3.08,11.8c-2.05,4.62-4.66,8.12-7.83,10.49c-3.17,2.37-6.53,3.56-10.1,3.56
			c-1.28,0-2.49-0.74-3.61-2.22c-1.12-1.48-1.69-3.32-1.69-5.51c0-4.05,0.89-7.62,2.66-10.72c1.77-3.09,3.76-5.6,5.97-7.53
			c2.2-1.93,5.25-3.48,9.14-4.66c1.28-0.37,2.16-0.67,2.62-0.88C1317.55,1544.59,1317.74,1544.21,1317.67,1543.66z M1318.39,1549.11
			c-4.12,0.84-7.28,2.17-9.47,3.99c-4.96,4.64-7.44,9.84-7.44,15.6c0,0.77,0.13,1.49,0.4,2.15c0.27,0.67,0.57,1,0.91,1
			c1.32,0,2.52-0.23,3.61-0.7s2.42-1.43,3.99-2.9c1.57-1.47,2.99-3.29,4.27-5.47c1.27-2.18,2.2-4.27,2.78-6.29
			c0.58-2.02,0.89-3.56,0.92-4.64C1318.4,1550.78,1318.41,1549.86,1318.39,1549.11z"/>
		<path class="st21" d="M1331.37,1571.7c-0.87,3.21-1.7,7.71-2.46,13.51l-0.75,5.06c-0.13,0.71-0.46,1.42-0.99,2.13
			c-0.54,0.7-1.03,1.06-1.47,1.06c-0.55,0-1.18-0.28-1.89-0.84c-0.71-0.56-1.06-1.01-1.06-1.35c0-0.98,0.22-2.34,0.67-4.07
			c3.26-13.18,4.9-24.76,4.9-34.73l-0.03-2.25c-0.04-1.93,0.3-3.33,1.02-4.2c0.71-0.87,1.53-1.31,2.46-1.31c0.43,0,0.84,0.33,1.23,1
			s0.59,1.62,0.59,2.85c0,1.73-0.18,3.83-0.54,6.29c-0.46,3.1-0.71,4.89-0.72,5.35c2.66-4.64,5.48-8.26,8.46-10.86
			c2.98-2.6,5.74-3.91,8.29-3.91c1.8,0,3.32,0.67,4.56,2.02c1.24,1.35,1.86,3.02,1.86,5.02c0,5.82-2.23,11.1-6.69,15.84
			s-8.8,7.12-13.03,7.12c-1.05,0-1.89-0.27-2.5-0.8C1332.67,1574.08,1332.03,1573.1,1331.37,1571.7z M1347.98,1550.16
			c-2.51,0-5.63,2.35-9.34,7.06s-5.57,8.37-5.57,11c0,0.64,0.37,1.27,1.1,1.87c0.73,0.61,1.66,0.91,2.78,0.91
			c2.55,0,5.49-1.89,8.8-5.66c3.32-3.77,4.98-7.48,4.98-11.12c0-1.3-0.26-2.31-0.79-3.01
			C1349.43,1550.51,1348.77,1550.16,1347.98,1550.16z"/>
		<path class="st21" d="M1381.4,1565.35c-2.71,2.55-5.42,4.55-8.13,5.99s-4.79,2.17-6.23,2.17c-1.66,0-2.98-0.71-3.97-2.13
			c-0.99-1.42-1.49-3.16-1.49-5.23c0-3.01,0.58-6.58,1.73-10.69s2.03-6.44,2.64-7c0.61-0.55,1.41-0.83,2.41-0.83
			c0.54,0,0.95,0.32,1.26,0.95c0.3,0.63,0.45,1.28,0.45,1.94c0,0.45-0.21,1.03-0.62,1.74c-2.34,4.05-3.5,8.23-3.5,12.55
			c0,1,0.19,1.88,0.56,2.64c0.38,0.76,0.95,1.14,1.71,1.14c0.98,0,2.19-0.3,3.63-0.9s3.05-1.57,4.86-2.93
			c1.8-1.35,3.01-2.45,3.64-3.29c0.62-0.84,1.07-1.79,1.32-2.86s0.44-3.39,0.55-6.96c0.11-3.57,0.97-5.35,2.6-5.35
			c0.96,0,1.59,0.25,1.87,0.76c0.29,0.51,0.43,1.48,0.43,2.9c0,1.07-0.16,3.39-0.48,6.96c-0.07,0.8-0.12,1.54-0.13,2.22
			c-0.52,9.53-1.94,16.99-4.28,22.4s-5.74,8.11-10.19,8.11c-3.5,0-6.6-0.91-9.32-2.74c-2.72-1.83-4.08-3.38-4.08-4.64
			c0-0.59,0.14-1.17,0.42-1.74c0.28-0.57,0.63-0.86,1.06-0.86c0.21,0,0.45,0.17,0.7,0.51c2.34,3.59,5.93,5.38,10.78,5.38
			c3.08,0,5.4-1.89,6.93-5.66C1380.02,1576.12,1380.99,1571.28,1381.4,1565.35z"/>
		<path class="st21" d="M1416.53,1562.63c-0.23,4.01-0.62,7.95-1.15,11.8c-0.27,0.73-0.95,1.1-2.03,1.1c-1.57,0-2.35-0.8-2.35-2.41
			c0-0.66,0.19-1.89,0.56-3.69c0.27-1.57,0.41-2.64,0.43-3.2s0.06-1.18,0.13-1.85s0.06-1.2-0.03-1.59
			c-0.91,0.13-2.76,1.21-5.57,3.26s-5.2,4.08-7.2,6.1v-0.03c-0.13,0.07-0.52,0.74-1.18,2.01c-0.95,1.89-1.99,2.84-3.13,2.84
			c-0.54,0-1.13-0.23-1.78-0.7c-0.65-0.46-0.98-0.93-0.98-1.39c0-1.11,1.04-2.75,3.12-4.94c2.08-2.18,4.38-4.05,6.89-5.6
			c3.07-1.89,5.18-3.42,6.34-4.58c-0.52-0.73-1.52-1.53-3.02-2.41c-1.52-0.89-2.92-1.89-4.23-3c-0.18-0.14-0.39-0.3-0.64-0.48
			c-2.3-1.55-3.83-2.72-4.59-3.49c-0.76-0.78-1.14-1.61-1.14-2.5c0-0.59,0.22-1.13,0.67-1.62c0.45-0.49,0.88-0.74,1.31-0.74
			c0.27,0,0.75,0.14,1.45,0.43c0.7,0.29,1.19,0.59,1.5,0.91l1.31,1.23c4.62,4.53,8.28,7.41,10.97,8.64c0.14,0,0.32-0.17,0.54-0.51
			c0.18-0.61,0.27-1.58,0.27-2.92c0-1.25-0.13-2.65-0.4-4.2c-0.14-0.8-0.21-1.33-0.21-1.58c0-0.84,0.33-1.52,0.98-2.03
			c0.65-0.52,1.36-0.78,2.13-0.78c0.87,0,1.47,0.18,1.79,0.54c0.32,0.36,0.48,0.96,0.48,1.82l-0.35,8.51v0.54
			c0,0.25,0.01,0.46,0.03,0.62c0.62,0,1.27-0.25,1.95-0.74c0.68-0.49,1.69-1.47,3.02-2.93c5.87-6.08,9.27-9.12,10.19-9.12
			c0.52,0,0.99,0.21,1.42,0.64c0.43,0.43,0.64,0.93,0.64,1.5c0,0.29-0.98,1.49-2.93,3.63s-3.96,4.09-6.03,5.87
			c-2.66,2.28-3.99,3.47-3.99,3.56c0,0.13,1.11,1.05,3.32,2.78c2.39,1.87,4.04,3.2,4.95,3.99c0.13,0.09,0.3,0.21,0.54,0.35
			c2.64,1.62,4.29,2.84,4.95,3.64s0.99,1.48,0.99,2.03c0,0.52-0.22,1.05-0.67,1.59c-0.45,0.54-0.88,0.82-1.31,0.82
			c-1.59,0-5.27-2.67-11.05-8c-2.57-2.39-4.12-3.65-4.66-3.77c-0.23-0.04-0.41-0.08-0.54-0.13c-0.18-0.05-0.5-0.07-0.96-0.04
			S1416.57,1562.5,1416.53,1562.63z"/>
		<path class="st21" d="M1449.36,1576.14c-2.44,0-4.46-0.93-6.05-2.78s-2.38-4.15-2.38-6.88c0-4.6,1.55-9.14,4.64-13.61
			s6.8-6.7,11.12-6.7c2.85,0,5.17,1.1,6.94,3.29c1.77,2.19,2.66,4.81,2.66,7.84c0,4.64-1.83,8.94-5.5,12.9
			C1457.14,1574.16,1453.32,1576.14,1449.36,1576.14z M1445.64,1565.78c0,1.8,0.38,3.27,1.14,4.41c0.76,1.14,1.76,1.71,3.01,1.71
			c2.66,0,5.32-1.46,8-4.37c2.67-2.92,4.01-6.16,4.01-9.73c0-2.19-0.51-3.97-1.54-5.34c-1.03-1.36-2.4-2.05-4.13-2.05
			c-2.87,0-5.34,1.76-7.4,5.28C1446.67,1559.23,1445.64,1562.59,1445.64,1565.78z"/>
		<path class="st21" d="M1477.97,1560.73c4.23-0.73,8.02-3.46,11.37-8.19c1.57-2.19,2.95-3.75,4.13-4.67
			c1.19-0.92,2.45-1.38,3.79-1.38c0.54,0,1.07,0.24,1.61,0.72s0.8,1.05,0.8,1.71c0,0.87-0.83,1.56-2.49,2.06
			c-0.88,0.27-1.7,0.72-2.46,1.36c-0.77,0.64-2.22,2.18-4.36,4.6c-1.68,1.89-3.18,3.22-4.52,3.99c-0.13,0.07-0.19,0.13-0.19,0.19
			c0,0.07,0.08,0.14,0.24,0.21c1.3,0.7,2.67,2.04,4.12,4.04c2.1,2.91,3.68,4.74,4.74,5.5c1.05,0.76,2.26,1.14,3.61,1.14l0.88-0.03
			c0.62-0.04,0.94,0.24,0.94,0.83c0,0.68-0.38,1.38-1.15,2.11s-2.03,1.1-3.8,1.1c-1.36,0-2.67-0.58-3.95-1.75
			c-1.28-1.17-2.73-3.06-4.37-5.69c-0.95-1.55-1.83-2.73-2.65-3.53s-1.73-1.2-2.73-1.2c-0.21,0-0.87,0.18-1.98,0.54
			c-1.11,0.36-1.73,0.7-1.86,1.03s-0.23,1.52-0.29,3.56c-0.06,2.04-0.09,3.69-0.09,4.94c0,0.66-0.31,1.25-0.94,1.77
			c-0.63,0.52-1.3,0.78-2.03,0.78c-0.75,0-1.34-0.22-1.77-0.66c-0.43-0.44-0.64-0.89-0.64-1.35c0-0.64,0.24-2.16,0.72-4.55
			c0.86-4.35,1.71-11.53,2.57-21.54c0.07-0.96,0.44-1.83,1.1-2.61s1.41-1.16,2.25-1.16c0.46,0,0.85,0.25,1.16,0.75
			c0.31,0.5,0.47,1.14,0.47,1.93c0,0.62-0.11,1.34-0.32,2.14C1478.85,1553.1,1478.21,1556.87,1477.97,1560.73z"/>
		<path class="st21" d="M1506.17,1588.39c-0.59,0-1.14-0.19-1.65-0.58c-0.51-0.38-0.76-0.78-0.76-1.19c0-0.36,0.15-0.8,0.44-1.34
			c0.29-0.54,1.3-1.88,3.01-4.04c1.21-1.46,2.56-4.09,4.03-7.89c1.47-3.8,2.21-6.14,2.21-7.04c0-5.71-0.8-10.79-2.41-15.25
			c-1.61-4.46-3.02-7.68-4.25-9.67c-1.23-1.99-3.02-4.05-5.38-6.19c-0.21-0.21-0.32-0.58-0.32-1.1c0-0.27,0.26-0.62,0.78-1.07
			c0.52-0.45,1.04-0.67,1.58-0.67c0.79,0,1.64,0.5,2.56,1.51c0.92,1.01,2.31,2.94,4.19,5.81s3.04,5.09,3.5,6.68
			c0.46,1.52,0.95,3,1.45,4.44c1.44,4.21,2.17,8.7,2.17,13.48c0,6.49-2.2,12.58-6.61,18.25c-0.75,1-1.28,1.8-1.61,2.41
			c-0.55,1.07-1.04,1.91-1.47,2.53S1506.7,1588.39,1506.17,1588.39z"/>
	</g>
</g>
<g id="Слой_2">
	<g id="Favorite">
	</g>
</g>
<g id="Слой_4">
</g>
</svg>
