<?xml version="1.0" encoding="utf-8"?>
<!-- Generator: Adobe Illustrator 23.1.0, SVG Export Plug-In . SVG Version: 6.00 Build 0)  -->
<svg version="1.1" xmlns="http://www.w3.org/2000/svg" xmlns:xlink="http://www.w3.org/1999/xlink" x="0px" y="0px"
	 viewBox="0 0 1920.45 2194.37" style="enable-background:new 0 0 1920.45 2194.37;" xml:space="preserve">
<style type="text/css">
	.st0{opacity:0.87;fill:url(#SVGID_1_);}
	.st1{fill:#33DEA7;}
	.st2{fill:#4890F1;}
	.st3{fill:#0B59C7;}
	.st4{fill:#1A328C;}
	.st5{fill:#367FE1;}
	.st6{fill:#FFFFFF;}
	.st7{fill:none;stroke:#FF1800;stroke-miterlimit:10;}
	.st8{fill:none;stroke:#4890F1;stroke-width:2.4807;stroke-miterlimit:10;}
	.st9{fill:none;stroke:#0B59C7;stroke-width:1.6033;stroke-miterlimit:10;}
	.st10{display:none;}
	.st11{display:inline;fill:none;stroke:#000000;stroke-miterlimit:10;}
	.st12{fill:#CFE2FF;}
	.st13{fill:none;stroke:#34E2AA;stroke-miterlimit:10;}
	.st14{fill:none;stroke:#34E2AA;stroke-width:0.9838;stroke-miterlimit:10;}
	.st15{fill:#34E2AA;fill-opacity:0.12;stroke:#34E2AA;stroke-miterlimit:10;}
	.st16{fill:#1B3390;}
	.st17{fill:#34E2AA;stroke:#1B3390;stroke-miterlimit:10;}
	.st18{fill:#FF8B2B;}
	.st19{opacity:0.5;fill:#4992F5;}
	.st20{fill:#4992F5;}
	.st21{fill:#0B5BCB;}
	.st22{fill:#ADD2FF;}
	.st23{fill:#2EC897;}
	.st24{fill:none;stroke:#4992F5;stroke-width:0.6143;stroke-miterlimit:10;}
	.st25{fill:none;stroke:#4992F5;stroke-width:0.4924;stroke-miterlimit:10;}
	.st26{fill:none;stroke:#4992F5;stroke-width:5;stroke-miterlimit:10;}
	.st27{fill:none;stroke:#0B5BCB;stroke-width:2.2717;stroke-miterlimit:10;}
	.st28{fill:#6078D5;}
	.st29{fill:#FFB87D;}
	.st30{fill:none;stroke:#284DD8;stroke-width:2.678;stroke-miterlimit:10;}
	.st31{fill:none;stroke:#34E2AA;stroke-width:6.3211;stroke-miterlimit:10;}
	.st32{fill:none;stroke:#4992F5;stroke-width:6.3211;stroke-miterlimit:10;}
	.st33{fill:none;stroke:#0B5BCB;stroke-width:2;stroke-miterlimit:10;}
	.st34{fill:#FFEBC9;}
	.st35{fill:#8CA4FB;stroke:#1B3390;stroke-width:1.8878;stroke-miterlimit:10;}
	.st36{fill:none;stroke:#1B3390;stroke-width:2;stroke-miterlimit:10;}
	.st37{fill:none;stroke:#34E2AA;stroke-width:1.8878;stroke-linecap:round;stroke-miterlimit:10;}
	.st38{fill:none;stroke:#34E2AA;stroke-width:1.8878;stroke-linecap:round;stroke-linejoin:round;stroke-miterlimit:10;}
	.st39{clip-path:url(#SVGID_5_);}
	.st40{fill:none;stroke:#F98600;stroke-width:15.7313;stroke-linecap:round;stroke-linejoin:round;stroke-miterlimit:10;}
	.st41{fill:none;stroke:#1B3390;stroke-width:3.7755;stroke-linecap:round;stroke-linejoin:round;stroke-miterlimit:10;}
	.st42{fill:#0B5BCB;stroke:#1B3390;stroke-width:1.7785;stroke-miterlimit:10;}
	.st43{fill:none;stroke:#1B3390;stroke-width:1.7785;stroke-linecap:round;stroke-miterlimit:10;}
	.st44{fill:none;stroke:#1B3390;stroke-width:1.7785;stroke-linecap:round;stroke-linejoin:round;stroke-miterlimit:10;}
	.st45{clip-path:url(#SVGID_7_);fill:none;stroke:#5FECBF;stroke-width:29.6424;stroke-linecap:round;stroke-miterlimit:10;}
	.st46{fill:none;stroke:#1B3390;stroke-width:1.7785;stroke-miterlimit:10;}
	.st47{fill:#34E2AA;stroke:#1B3390;stroke-width:1.1636;stroke-miterlimit:10;}
	.st48{fill:#94FFCC;stroke:#1B3390;stroke-width:1.1636;stroke-linecap:round;stroke-miterlimit:10;}
	.st49{fill:#94FFCC;stroke:#1B3390;stroke-width:1.1636;stroke-linecap:round;stroke-linejoin:round;stroke-miterlimit:10;}
	.st50{fill:#FFB87D;stroke:#1B3390;stroke-width:1.1636;stroke-miterlimit:10;}
	.st51{fill:#4992F5;stroke:#1B3390;stroke-width:1.1636;stroke-linecap:round;stroke-miterlimit:10;}
	.st52{fill:#4992F5;stroke:#1B3390;stroke-width:1.1636;stroke-linecap:round;stroke-linejoin:round;stroke-miterlimit:10;}
	.st53{fill:#FFB87D;stroke:#1B3390;stroke-width:1.1636;stroke-linecap:round;stroke-miterlimit:10;}
	.st54{fill:#FFB87D;stroke:#1B3390;stroke-width:1.1636;stroke-linecap:round;stroke-linejoin:round;stroke-miterlimit:10;}
	.st55{opacity:0.8;fill:#DBE2FF;}
	.st56{opacity:0.8;fill:#B3C2FF;}
	.st57{opacity:0.8;fill:#FFF3E8;}
	.st58{opacity:0.8;fill:#D6FFF9;}
	.st59{fill:#0C65DF;stroke:#1B3390;stroke-width:0.764;stroke-linecap:round;stroke-linejoin:round;stroke-miterlimit:10;}
	.st60{fill:#0C65DF;stroke:#1B3390;stroke-width:0.764;stroke-miterlimit:10;}
	.st61{fill:#0C65DF;stroke:#1B3390;stroke-width:0.764;stroke-linecap:round;stroke-miterlimit:10;}
	.st62{opacity:0.8;fill:#A1C9FF;}
	.st63{fill:none;stroke:#0B5BCB;stroke-width:1.87;stroke-miterlimit:10;}
	.st64{fill:#4992F5;stroke:#1B3390;stroke-width:2.4753;stroke-miterlimit:10;}
	.st65{fill:none;stroke:#1B3390;stroke-width:2.0994;stroke-linecap:round;stroke-miterlimit:10;}
	.st66{fill:#6CF4BC;stroke:#1B3390;stroke-width:1.6932;stroke-miterlimit:10;}
	.st67{fill:none;stroke:#1B3390;stroke-width:1.436;stroke-linecap:round;stroke-miterlimit:10;}
	.st68{fill:#FFB87D;stroke:#1B3390;stroke-width:2.1678;stroke-miterlimit:10;}
	.st69{fill:none;stroke:#1B3390;stroke-width:1.8386;stroke-linecap:round;stroke-miterlimit:10;}
	.st70{fill:#0B5FD5;stroke:#1B3390;stroke-width:1.6798;stroke-miterlimit:10;}
	.st71{fill:none;stroke:#1B3390;stroke-width:1.4247;stroke-linecap:round;stroke-miterlimit:10;}
	.st72{fill:#A6FFE1;stroke:#1B3390;stroke-width:2.0588;stroke-miterlimit:10;}
	.st73{fill:none;stroke:#1B3390;stroke-width:1.7462;stroke-linecap:round;stroke-miterlimit:10;}
	.st74{fill:#FF8B2B;stroke:#1B3390;stroke-width:2.4753;stroke-miterlimit:10;}
	.st75{fill:#34E2AA;stroke:#1B3390;stroke-width:2.1678;stroke-miterlimit:10;}
	.st76{fill:none;stroke:#1B3390;stroke-width:1.4475;stroke-linecap:round;stroke-miterlimit:10;}
	.st77{fill:#FFB87D;stroke:#1B3390;stroke-width:1.6825;stroke-miterlimit:10;}
	.st78{fill:none;stroke:#1B3390;stroke-width:1.427;stroke-linecap:round;stroke-miterlimit:10;}
	.st79{fill:#ABD0FF;}
	.st80{fill:none;stroke:#0B5BCB;stroke-width:3.3004;stroke-linecap:round;stroke-miterlimit:10;}
	.st81{fill:#E3EFFF;}
	.st82{clip-path:url(#SVGID_9_);fill:none;stroke:#FF8B2B;stroke-width:9.9011;stroke-linecap:round;stroke-miterlimit:10;}
	.st83{fill:#FFB87D;stroke:#1C3CB7;stroke-width:3;stroke-linecap:round;stroke-linejoin:round;stroke-miterlimit:10;}
	.st84{fill:#FFEED1;stroke:#1C3CB7;stroke-width:3;stroke-linejoin:round;stroke-miterlimit:10;}
	.st85{fill:#FF8B2B;stroke:#1C3CB7;stroke-width:3;stroke-miterlimit:10;}
	.st86{fill:#FFE2C9;stroke:#1C3CB7;stroke-width:3;stroke-linejoin:round;stroke-miterlimit:10;}
	.st87{fill:#1B3390;stroke:#1C3CB7;stroke-miterlimit:10;}
	.st88{fill:#0B5BCB;stroke:#1C3CB7;stroke-miterlimit:10;}
	.st89{fill:#4992F5;stroke:#1C3CB7;stroke-width:3;stroke-miterlimit:10;}
	.st90{fill:#4992F5;stroke:#1C3CB7;stroke-width:3;stroke-linecap:round;stroke-miterlimit:10;}
	.st91{fill:#8CA4FB;stroke:#1C3CB7;stroke-width:3;stroke-linecap:round;stroke-linejoin:round;stroke-miterlimit:10;}
	.st92{fill:#D1FFEF;stroke:#1C3CB7;stroke-width:3;stroke-linejoin:round;stroke-miterlimit:10;}
	.st93{fill:#0B5BCB;stroke:#1C3CB7;stroke-width:3;stroke-miterlimit:10;}
	.st94{fill:#B2C2FB;stroke:#1C3CB7;stroke-width:3;stroke-linejoin:round;stroke-miterlimit:10;}
	.st95{fill:#34E2AA;stroke:#1C3CB7;stroke-miterlimit:10;}
	.st96{fill:#66FFC8;stroke:#1C3CB7;stroke-miterlimit:10;}
	.st97{fill:#73FFCD;stroke:#1C3CB7;stroke-miterlimit:10;}
	.st98{fill:#00D38E;stroke:#1C3CB7;stroke-miterlimit:10;}
	.st99{fill:#34E2AA;stroke:#1C3CB7;stroke-width:3;stroke-miterlimit:10;}
	.st100{fill:#FF8B2B;stroke:#1C3CB7;stroke-miterlimit:10;}
	.st101{fill:#FFB87D;stroke:#1C3CB7;stroke-miterlimit:10;}
	.st102{fill:#FFB87D;stroke:#1C3CB7;stroke-width:3;stroke-miterlimit:10;}
	.st103{fill:none;stroke:#1C3CB7;stroke-width:2;stroke-miterlimit:10;}
	.st104{fill:none;stroke:#0B5BCB;stroke-width:9.4129;stroke-miterlimit:10;}
	.st105{fill:#FFB87D;stroke:#1C3CB7;stroke-width:12.4305;stroke-linecap:round;stroke-linejoin:round;stroke-miterlimit:10;}
	.st106{fill:#FFEED1;stroke:#1C3CB7;stroke-width:12.4305;stroke-linejoin:round;stroke-miterlimit:10;}
	.st107{fill:#FF8B2B;stroke:#1C3CB7;stroke-width:12.4305;stroke-miterlimit:10;}
	.st108{fill:#FFE2C9;stroke:#1C3CB7;stroke-width:12.4305;stroke-linejoin:round;stroke-miterlimit:10;}
	.st109{fill:#1B3390;stroke:#1C3CB7;stroke-width:4.1435;stroke-miterlimit:10;}
	.st110{fill:#0B5BCB;stroke:#1C3CB7;stroke-width:4.1435;stroke-miterlimit:10;}
	.st111{fill:#4992F5;stroke:#1C3CB7;stroke-width:12.4305;stroke-miterlimit:10;}
	.st112{fill:#4992F5;stroke:#1C3CB7;stroke-width:12.4305;stroke-linecap:round;stroke-miterlimit:10;}
	.st113{fill:#8CA4FB;stroke:#1C3CB7;stroke-width:12.4305;stroke-linecap:round;stroke-linejoin:round;stroke-miterlimit:10;}
	.st114{fill:#D1FFEF;stroke:#1C3CB7;stroke-width:12.4305;stroke-linejoin:round;stroke-miterlimit:10;}
	.st115{fill:#0B5BCB;stroke:#1C3CB7;stroke-width:12.4305;stroke-miterlimit:10;}
	.st116{fill:#B2C2FB;stroke:#1C3CB7;stroke-width:12.4305;stroke-linejoin:round;stroke-miterlimit:10;}
	.st117{fill:#34E2AA;stroke:#1C3CB7;stroke-width:8.5;stroke-miterlimit:10;}
	.st118{fill:#66FFC8;stroke:#1C3CB7;stroke-width:4.1435;stroke-miterlimit:10;}
	.st119{fill:#73FFCD;stroke:#1C3CB7;stroke-width:8.5;stroke-miterlimit:10;}
	.st120{fill:#00D38E;stroke:#1C3CB7;stroke-width:8.5;stroke-miterlimit:10;}
	.st121{fill:#34E2AA;stroke:#1C3CB7;stroke-width:12.4305;stroke-miterlimit:10;}
	.st122{fill:#FF8B2B;stroke:#1C3CB7;stroke-width:8.5;stroke-miterlimit:10;}
	.st123{fill:#FFB87D;stroke:#1C3CB7;stroke-width:4.1435;stroke-miterlimit:10;}
	.st124{fill:#FF8B2B;stroke:#1C3CB7;stroke-width:4.1435;stroke-miterlimit:10;}
	.st125{fill:#FFB87D;stroke:#1C3CB7;stroke-width:12.4305;stroke-miterlimit:10;}
	.st126{fill:none;stroke:#1C3CB7;stroke-width:8.287;stroke-miterlimit:10;}
	.st127{fill:#75FFCE;stroke:#1B3390;stroke-width:3;stroke-miterlimit:10;}
	.st128{fill:none;stroke:#1B3390;stroke-width:3;stroke-miterlimit:10;}
	.st129{fill:#00C39F;stroke:#1B3390;stroke-width:3;stroke-miterlimit:10;}
	.st130{fill:#A8FFE6;}
	.st131{opacity:0.8;fill:#A8FFE6;}
	.st132{fill:#8CA4FB;stroke:#1B3390;stroke-width:3;stroke-miterlimit:10;}
	.st133{fill:#0B5BCB;stroke:#1B3390;stroke-width:3;stroke-miterlimit:10;}
	.st134{fill:#D8E0FB;}
	.st135{opacity:0.8;fill:#D8E0FB;}
	.st136{fill:#FFB87D;stroke:#0655C3;stroke-width:3;stroke-linecap:round;stroke-linejoin:round;stroke-miterlimit:10;}
	.st137{fill:#FFE3CC;}
	.st138{fill:none;stroke:#0B5BCB;stroke-width:3;stroke-linecap:round;stroke-linejoin:round;stroke-miterlimit:10;}
	.st139{fill:#34E2AA;stroke:#1B3390;stroke-width:3;stroke-miterlimit:10;}
	.st140{fill:#BAFFE9;}
	.st141{fill:#ABFFE4;}
	.st142{fill:#5790DF;stroke:#0655C3;stroke-width:3;stroke-linecap:round;stroke-linejoin:round;stroke-miterlimit:10;}
	.st143{fill:#80B9F6;}
	.st144{fill:#629FE4;}
	.st145{fill:#0B5BCB;stroke:#0B5BCB;stroke-width:4;stroke-miterlimit:10;}
	.st146{fill:#34E2AA;stroke:#0B5BCB;stroke-width:3;stroke-linejoin:round;stroke-miterlimit:10;}
	.st147{fill:none;stroke:#0B5BCB;stroke-width:3;stroke-linecap:round;stroke-miterlimit:10;}
	.st148{fill:#4992F5;stroke:#0B5BCB;stroke-width:4;stroke-miterlimit:10;}
	.st149{fill:#C7FFED;stroke:#34E2AA;stroke-width:3;stroke-miterlimit:10;}
	.st150{fill:#FFD1AB;stroke:#0B5BCB;stroke-width:3;stroke-miterlimit:10;}
	.st151{fill:#34E2AA;stroke:#34E2AA;stroke-width:3;stroke-linejoin:round;stroke-miterlimit:10;}
	.st152{fill:#8CA4FB;stroke:#0B5BCB;stroke-width:3;stroke-linejoin:round;stroke-miterlimit:10;}
	.st153{fill:#69FFC7;stroke:#0B5BCB;stroke-width:3;stroke-linejoin:round;stroke-miterlimit:10;}
	.st154{fill:#FFB87D;stroke:#0B5BCB;stroke-width:3;stroke-linejoin:round;stroke-miterlimit:10;}
	.st155{fill:#ADBEFF;}
	.st156{fill:#FFEAD9;}
	.st157{fill:#D6FFF4;}
	.st158{fill:#CCD6FF;}
	.st159{fill:none;stroke:#33DEA7;stroke-width:5.4384;stroke-miterlimit:10;}
	.st160{fill:#4AE2B1;}
	.st161{fill:#8CA4FB;}
	.st162{opacity:0.25;fill:#FF8B2B;}
	.st163{fill:none;stroke:#FF8B2B;stroke-miterlimit:10;}
	.st164{fill:none;stroke:#FF8B2B;stroke-width:0.9367;stroke-miterlimit:10;}
	.st165{fill:#FF9843;}
	.st166{opacity:0.3;fill:#34E2AA;}
	.st167{display:inline;}
	.st168{fill:#0B87C7;}
	.st169{fill:#92FCCA;stroke:#1A328C;stroke-width:1.1636;stroke-miterlimit:10;}
	.st170{fill:#92FCCA;stroke:#1A328C;stroke-width:1.1636;stroke-linecap:round;stroke-miterlimit:10;}
	.st171{fill:#92FCCA;stroke:#1A328C;stroke-width:1.1636;stroke-linecap:round;stroke-linejoin:round;stroke-miterlimit:10;}
	.st172{fill:#0C63DB;stroke:#1A328C;stroke-width:0.764;stroke-linecap:round;stroke-linejoin:round;stroke-miterlimit:10;}
	.st173{fill:#0C63DB;stroke:#1A328C;stroke-width:0.764;stroke-miterlimit:10;}
	.st174{fill:#0C63DB;stroke:#1A328C;stroke-width:0.764;stroke-linecap:round;stroke-miterlimit:10;}
	.st175{fill:#8AA1F7;stroke:#1B3BB3;stroke-width:3;stroke-linecap:round;stroke-linejoin:round;stroke-miterlimit:10;}
	.st176{fill:#D1FFEF;stroke:#1B3BB3;stroke-width:3;stroke-linejoin:round;stroke-miterlimit:10;}
	.st177{fill:#0B59C7;stroke:#1B3BB3;stroke-width:3;stroke-miterlimit:10;}
	.st178{fill:#AFBFF7;stroke:#1B3BB3;stroke-width:3;stroke-linejoin:round;stroke-miterlimit:10;}
	.st179{fill:#1A328C;stroke:#1B3BB3;stroke-miterlimit:10;}
	.st180{fill:#66FFC8;stroke:#1B3BB3;stroke-miterlimit:10;}
	.st181{fill:#0B59C7;stroke:#1B3BB3;stroke-miterlimit:10;}
	.st182{fill:#4890F1;stroke:#1B3BB3;stroke-width:3;stroke-miterlimit:10;}
	.st183{fill:#4890F1;stroke:#1B3BB3;stroke-width:3;stroke-linecap:round;stroke-miterlimit:10;}
	.st184{fill:#8AA1F7;stroke:#0B59C7;stroke-width:5.0442;stroke-linejoin:round;stroke-miterlimit:10;}
	.st185{fill:#C1CCF7;}
	.st186{fill:none;stroke:#4890F1;stroke-width:10.418;stroke-miterlimit:10;}
	.st187{fill:none;stroke:#4890F1;stroke-width:8.3506;stroke-miterlimit:10;}
	.st188{fill:#E6F0FF;stroke:#DBE3FF;stroke-width:3.6654;stroke-miterlimit:10;}
	.st189{fill:#E6F0FF;}
	.st190{fill:#DBE3FF;}
	.st191{fill:#FFE1C9;stroke:#E0E6FF;stroke-width:5.2027;stroke-miterlimit:10;}
	.st192{fill:#E0FFF7;}
	.st193{fill:#E0E6FF;}
	.st194{fill:#DBE9FF;stroke:#CCD7FF;stroke-width:3.6654;stroke-miterlimit:10;}
	.st195{fill:#DBE9FF;}
	.st196{fill:#CCD7FF;}
	.st197{fill:#9EC2F7;stroke:#9CB1FF;stroke-width:3.6654;stroke-miterlimit:10;}
	.st198{fill:#9EC2F7;}
	.st199{fill:#9CB1FF;}
	.st200{fill:#99C3FF;stroke:#91A9FF;stroke-width:4.0452;stroke-miterlimit:10;}
	.st201{fill:#99C3FF;}
	.st202{fill:#91A9FF;}
	.st203{fill:#FFD7B5;stroke:#A1B5FF;stroke-width:5.2027;stroke-miterlimit:10;}
	.st204{fill:#A1B5FF;}
	.st205{fill:#B8FFEC;stroke:#A1B5FF;stroke-width:5.2027;stroke-miterlimit:10;}
	.st206{fill:#B8FFEC;}
	.st207{fill:#E0FFF7;stroke:#E0E6FF;stroke-width:5.2027;stroke-miterlimit:10;}
	.st208{fill:#FFEAD9;stroke:#DBE3FF;stroke-width:3.6654;stroke-miterlimit:10;}
	.st209{opacity:0.2;}
	.st210{fill:#4890F1;stroke:#1A328C;stroke-width:2.274;stroke-miterlimit:10;}
	.st211{fill:none;stroke:#1A328C;stroke-width:1.9286;stroke-linecap:round;stroke-miterlimit:10;}
	.st212{fill:#6AF0B9;stroke:#1A328C;stroke-width:1.5555;stroke-miterlimit:10;}
	.st213{fill:none;stroke:#1A328C;stroke-width:1.3193;stroke-linecap:round;stroke-miterlimit:10;}
	.st214{fill:#FFB87D;stroke:#1A328C;stroke-width:1.9915;stroke-miterlimit:10;}
	.st215{fill:none;stroke:#1A328C;stroke-width:1.6891;stroke-linecap:round;stroke-miterlimit:10;}
	.st216{fill:#0B5DD1;stroke:#1A328C;stroke-width:1.5432;stroke-miterlimit:10;}
	.st217{fill:none;stroke:#1A328C;stroke-width:1.3088;stroke-linecap:round;stroke-miterlimit:10;}
	.st218{fill:#A6FFE1;stroke:#1A328C;stroke-width:1.8914;stroke-miterlimit:10;}
	.st219{fill:none;stroke:#1A328C;stroke-width:1.6042;stroke-linecap:round;stroke-miterlimit:10;}
	.st220{fill:#8AA1F7;stroke:#1A328C;stroke-width:2.274;stroke-miterlimit:10;}
	.st221{fill:none;stroke:#1A328C;stroke-width:1.3298;stroke-linecap:round;stroke-miterlimit:10;}
	.st222{fill:#FFB87D;stroke:#1A328C;stroke-width:1.5457;stroke-miterlimit:10;}
	.st223{fill:none;stroke:#1A328C;stroke-width:1.311;stroke-linecap:round;stroke-miterlimit:10;}
	.st224{fill:none;stroke:#0B59C7;stroke-width:3.032;stroke-linecap:round;stroke-miterlimit:10;}
	.st225{clip-path:url(#SVGID_13_);fill:none;stroke:#FF8B2B;stroke-width:9.0959;stroke-linecap:round;stroke-miterlimit:10;}
	.st226{fill:#A6FFDE;stroke:#0B59C7;stroke-width:5;stroke-linejoin:round;stroke-miterlimit:10;}
	.st227{fill:#A6FFDE;stroke:#0B59C7;stroke-width:4.2028;stroke-linejoin:round;stroke-miterlimit:10;}
	.st228{fill:#8AA1F7;stroke:#1A328C;stroke-width:5;stroke-miterlimit:10;}
	.st229{fill:none;stroke:#1A328C;stroke-width:5;stroke-miterlimit:10;}
	.st230{fill:#0B59C7;stroke:#1A328C;stroke-width:5;stroke-miterlimit:10;}
	.st231{fill:#75FFCE;stroke:#1A328C;stroke-width:5;stroke-miterlimit:10;}
	.st232{fill:#D4DCF7;}
	.st233{opacity:0.8;fill:#D4DCF7;}
	.st234{fill:#558DDB;stroke:#0653BF;stroke-width:5;stroke-linecap:round;stroke-linejoin:round;stroke-miterlimit:10;}
	.st235{fill:#7EB6F2;}
	.st236{fill:#609CE0;}
	.st237{fill:none;stroke:#0B59C7;stroke-width:5;stroke-linecap:round;stroke-linejoin:round;stroke-miterlimit:10;}
	.st238{fill:#FF8B2B;stroke:#0B59C7;stroke-width:5;stroke-miterlimit:10;}
	.st239{fill:none;stroke:#33DEA7;stroke-width:5;stroke-linecap:round;stroke-miterlimit:10;}
	.st240{fill:none;stroke:#33DEA7;stroke-width:5;stroke-linecap:round;stroke-linejoin:round;stroke-miterlimit:10;}
	.st241{clip-path:url(#SVGID_15_);}
	.st242{fill:none;stroke:#1A328C;stroke-width:5;stroke-linecap:round;stroke-linejoin:round;stroke-miterlimit:10;}
	.st243{fill:#8AA1F7;stroke:#33DEA7;stroke-width:0.7994;stroke-miterlimit:10;}
	.st244{fill:none;stroke:#33DEA7;stroke-width:0.7994;stroke-linecap:round;stroke-miterlimit:10;}
	.st245{fill:none;stroke:#33DEA7;stroke-width:0.7994;stroke-linecap:round;stroke-linejoin:round;stroke-miterlimit:10;}
	.st246{clip-path:url(#SVGID_17_);}
	.st247{fill:none;stroke:#33DEA7;stroke-width:6.662;stroke-linecap:round;stroke-linejoin:round;stroke-miterlimit:10;}
	.st248{fill:none;stroke:#1A328C;stroke-width:1.5989;stroke-linecap:round;stroke-linejoin:round;stroke-miterlimit:10;}
	.st249{fill:#4890F1;stroke:#1A328C;stroke-width:1.7649;stroke-linecap:round;stroke-miterlimit:10;}
	.st250{fill:#4890F1;stroke:#1A328C;stroke-width:1.7649;stroke-linecap:round;stroke-linejoin:round;stroke-miterlimit:10;}
	.st251{opacity:0.8;fill:#C4D0FF;}
	.st252{fill:#FFB87D;stroke:#1B3BB3;stroke-width:5;stroke-linecap:round;stroke-linejoin:round;stroke-miterlimit:10;}
	.st253{fill:#FFD6B3;stroke:#1B3BB3;stroke-width:5;stroke-linejoin:round;stroke-miterlimit:10;}
	.st254{fill:#FF8B2B;stroke:#1B3BB3;stroke-width:5;stroke-miterlimit:10;}
	.st255{fill:#FFB87D;stroke:#1B3BB3;stroke-width:5;stroke-linejoin:round;stroke-miterlimit:10;}
	.st256{fill:#96FFD4;stroke:#1B3BB3;stroke-width:5;stroke-linejoin:round;stroke-miterlimit:10;}
	.st257{fill:#1A328C;stroke:#1B3BB3;stroke-width:5;stroke-miterlimit:10;}
	.st258{fill:#0B59C7;stroke:#1B3BB3;stroke-width:5;stroke-miterlimit:10;}
	.st259{fill:#4890F1;stroke:#1B3BB3;stroke-width:5;stroke-miterlimit:10;}
	.st260{fill:#4890F1;stroke:#1B3BB3;stroke-width:5;stroke-linecap:round;stroke-miterlimit:10;}
	.st261{fill:#FFB87D;stroke:#1B3BB3;stroke-width:1.6332;stroke-linecap:round;stroke-linejoin:round;stroke-miterlimit:10;}
	.st262{fill:#FFD8B8;stroke:#1B3BB3;stroke-width:1.6332;stroke-linejoin:round;stroke-miterlimit:10;}
	.st263{fill:#FF8B2B;stroke:#1B3BB3;stroke-width:1.6332;stroke-miterlimit:10;}
	.st264{fill:#FFB87D;stroke:#1B3BB3;stroke-width:1.6332;stroke-linejoin:round;stroke-miterlimit:10;}
	.st265{fill:#1A328C;stroke:#1B3BB3;stroke-width:0.5444;stroke-miterlimit:10;}
	.st266{fill:#0B59C7;stroke:#1B3BB3;stroke-width:0.5444;stroke-miterlimit:10;}
	.st267{fill:#4890F1;stroke:#1B3BB3;stroke-width:1.6332;stroke-miterlimit:10;}
	.st268{fill:#4890F1;stroke:#1B3BB3;stroke-width:1.6332;stroke-linecap:round;stroke-miterlimit:10;}
	.st269{fill:#92FCCA;stroke:#1A328C;stroke-width:5;stroke-miterlimit:10;}
	.st270{fill:none;stroke:#1A328C;stroke-width:5;stroke-linecap:round;stroke-miterlimit:10;}
	.st271{clip-path:url(#SVGID_21_);fill:none;stroke:#8AA1F7;stroke-width:5;stroke-linecap:round;stroke-miterlimit:10;}
	.st272{fill:#7DFFD5;}
	.st273{fill:#B3FFE4;}
	.st274{fill:none;stroke:#274CD4;stroke-width:0.3105;stroke-miterlimit:10;}
	.st275{fill:#FF8B2B;stroke:#0653BF;stroke-width:2.1766;stroke-linecap:round;stroke-linejoin:round;stroke-miterlimit:10;}
	.st276{fill:#FFD2AD;}
	.st277{fill:none;stroke:#0B59C7;stroke-width:2.1766;stroke-linecap:round;stroke-linejoin:round;stroke-miterlimit:10;}
	.st278{fill:#FFB87D;stroke:#33DEA7;stroke-width:5;stroke-miterlimit:10;}
	.st279{fill:#9EFFE0;stroke:#33DEA7;stroke-width:5;stroke-miterlimit:10;}
	.st280{fill:#FF8B2B;stroke:#33DEA7;stroke-width:5;stroke-linejoin:round;stroke-miterlimit:10;}
	.st281{fill:#FF8B2B;stroke:#1A328C;stroke-width:5;stroke-miterlimit:10;}
	.st282{fill:#6AF0B9;stroke:#1A328C;stroke-width:5;stroke-miterlimit:10;}
	.st283{fill:#B5CBE8;stroke:#1A328C;stroke-width:5;stroke-miterlimit:10;}
	.st284{fill:#0B5DD1;stroke:#1A328C;stroke-width:5;stroke-miterlimit:10;}
	.st285{fill:#4890F1;stroke:#1A328C;stroke-width:5;stroke-miterlimit:10;}
	.st286{fill:#6BFFCA;stroke:#1A328C;stroke-width:5;stroke-miterlimit:10;}
	.st287{fill:none;stroke:#0B59C7;stroke-width:5;stroke-linecap:round;stroke-miterlimit:10;}
	.st288{clip-path:url(#SVGID_23_);fill:none;stroke:#FF8B2B;stroke-width:19;stroke-linecap:round;stroke-miterlimit:10;}
	.st289{fill:#FF8B2B;stroke:#0B59C7;stroke-width:5;stroke-linejoin:round;stroke-miterlimit:10;}
	.st290{fill:#FFC99C;}
	.st291{fill:#8AA1F7;stroke:#0B59C7;stroke-width:5;stroke-linejoin:round;stroke-miterlimit:10;}
	.st292{fill:#33DEA7;stroke:#1A328C;stroke-width:5;stroke-miterlimit:10;}
	.st293{fill:#8AA1F7;stroke:#0B59C7;stroke-width:1.5989;stroke-miterlimit:10;}
	.st294{fill:none;stroke:#0B59C7;stroke-width:1.5989;stroke-linecap:round;stroke-miterlimit:10;}
	.st295{fill:none;stroke:#0B59C7;stroke-width:1.5989;stroke-linecap:round;stroke-linejoin:round;stroke-miterlimit:10;}
	.st296{clip-path:url(#SVGID_25_);}
	.st297{fill:none;stroke:#FF8B2B;stroke-width:13.324;stroke-linecap:round;stroke-linejoin:round;stroke-miterlimit:10;}
	.st298{fill:none;stroke:#1A328C;stroke-width:3.1978;stroke-linecap:round;stroke-linejoin:round;stroke-miterlimit:10;}
	.st299{fill:#4890F1;stroke:#1A328C;stroke-width:1.0806;stroke-miterlimit:10;}
	.st300{fill:#4890F1;stroke:#1A328C;stroke-width:1.0806;stroke-linecap:round;stroke-miterlimit:10;}
	.st301{fill:#4890F1;stroke:#1A328C;stroke-width:1.0806;stroke-linecap:round;stroke-linejoin:round;stroke-miterlimit:10;}
	.st302{fill:#8AA1F7;stroke:#1B3BB3;stroke-width:5;stroke-linecap:round;stroke-linejoin:round;stroke-miterlimit:10;}
	.st303{fill:#D1FFEF;stroke:#1B3BB3;stroke-width:5;stroke-linejoin:round;stroke-miterlimit:10;}
	.st304{fill:#AFBFF7;stroke:#1B3BB3;stroke-width:5;stroke-linejoin:round;stroke-miterlimit:10;}
	.st305{fill:#66FFC8;stroke:#1B3BB3;stroke-width:5;stroke-miterlimit:10;}
	.st306{fill:none;stroke:#274CD4;stroke-width:0.9742;stroke-miterlimit:10;}
	.st307{fill:#8AA1F7;stroke:#0653BF;stroke-width:5;stroke-linecap:round;stroke-linejoin:round;stroke-miterlimit:10;}
	.st308{fill:#BAC8FF;}
	.st309{fill:#9EB2FF;}
	.st310{fill:#8AA1F7;stroke:#0B59C7;stroke-width:5;stroke-miterlimit:10;}
	.st311{clip-path:url(#SVGID_29_);}
	.st312{fill:none;stroke:#33DEA7;stroke-width:25;stroke-linecap:round;stroke-linejoin:round;stroke-miterlimit:10;}
	.st313{fill:#0B59C7;stroke:#0B59C7;stroke-width:5;stroke-miterlimit:10;}
	.st314{fill:#4890F1;stroke:#0B59C7;stroke-width:5;stroke-miterlimit:10;}
	.st315{fill:#FF9B47;stroke:#0B59C7;stroke-width:1.6094;stroke-linejoin:round;stroke-miterlimit:10;}
	.st316{fill:#FFC696;}
	.st317{fill:#6CCFAF;stroke:#0B59C7;stroke-width:1.5694;stroke-miterlimit:10;}
	.st318{fill:#9EFFE0;stroke:#0B59C7;stroke-width:1.5694;stroke-miterlimit:10;}
	.st319{fill:none;stroke:#0B59C7;stroke-width:1.5694;stroke-linecap:round;stroke-miterlimit:10;}
	.st320{fill:#00BD80;stroke:#0B59C7;stroke-width:1.5694;stroke-linejoin:round;stroke-miterlimit:10;}
	.st321{fill:#FF8B2B;stroke:#0653BF;stroke-width:1.5522;stroke-linecap:round;stroke-linejoin:round;stroke-miterlimit:10;}
	.st322{fill:none;stroke:#0B59C7;stroke-width:1.5522;stroke-linecap:round;stroke-linejoin:round;stroke-miterlimit:10;}
	.st323{fill:#1D4BB8;}
	.st324{fill:#33DEA7;stroke:#1A328C;stroke-miterlimit:10;}
	.st325{fill:#2DC494;}
	.st326{fill:#E3FFFB;stroke:#1A328C;stroke-miterlimit:10;}
	.st327{fill:#D9E5FF;stroke:#1A328C;stroke-miterlimit:10;}
	.st328{fill:#C9FFEB;}
	.st329{fill:#FFD0A8;}
	.st330{fill:#41F2B3;}
	.st331{fill:#31FFC0;}
	.st332{fill:#5CFFCD;}
	.st333{fill:#87FFDA;}
	.st334{fill:#9CFFE0;}
	.st335{fill:#ADFFE6;}
	.st336{fill:#BAFFEA;}
	.st337{fill:#C4DEFF;}
	.st338{fill:#FFFFFF;stroke:#33DEA7;stroke-width:2.0266;stroke-miterlimit:10;}
	.st339{fill:#FFFFFF;stroke:#FF8B2B;stroke-width:2.0266;stroke-miterlimit:10;}
	.st340{fill:#00BD81;}
	.st341{fill:#FFFFFF;stroke:#4890F1;stroke-width:2.0266;stroke-miterlimit:10;}
	.st342{fill:none;stroke:#1A328C;stroke-width:1.9243;stroke-miterlimit:10;}
	.st343{opacity:0.2;clip-path:url(#SVGID_43_);}
	.st344{clip-path:url(#SVGID_45_);fill:none;stroke:#FF8B2B;stroke-width:9.0959;stroke-linecap:round;stroke-miterlimit:10;}
	.st345{clip-path:url(#SVGID_47_);}
	.st346{clip-path:url(#SVGID_49_);}
	.st347{clip-path:url(#SVGID_53_);fill:none;stroke:#8AA1F7;stroke-width:5;stroke-linecap:round;stroke-miterlimit:10;}
	.st348{clip-path:url(#SVGID_55_);fill:none;stroke:#FF8B2B;stroke-width:19;stroke-linecap:round;stroke-miterlimit:10;}
	.st349{clip-path:url(#SVGID_57_);}
	.st350{clip-path:url(#SVGID_61_);}
	.st351{fill:#FFDCBF;stroke:#BFCCFF;stroke-width:5.4294;stroke-miterlimit:10;}
	.st352{fill:#BFCCFF;}
	.st353{fill:#BFD8FF;stroke:#ADBFFF;stroke-width:3.8251;stroke-miterlimit:10;}
	.st354{fill:#ADBFFF;}
	.st355{fill:#74A9F7;stroke:#6384FF;stroke-width:3.8251;stroke-miterlimit:10;}
	.st356{fill:#74A9F7;}
	.st357{fill:#6384FF;}
	.st358{fill:#94C0FF;stroke:#8FA7FF;stroke-width:4.2215;stroke-miterlimit:10;}
	.st359{fill:#94C0FF;}
	.st360{fill:#8FA7FF;}
	.st361{fill:#FFC899;stroke:#87A1FF;stroke-width:4;stroke-miterlimit:10;}
	.st362{fill:#87A1FF;}
	.st363{fill:#A1FFE6;stroke:#A1B5FF;stroke-width:3;stroke-miterlimit:10;}
	.st364{fill:#A1FFE6;}
	.st365{fill:#CCFFF2;stroke:#BDCAFF;stroke-width:5.4294;stroke-miterlimit:10;}
	.st366{fill:#BDCAFF;}
	.st367{fill:none;stroke:#4890F1;stroke-width:1.7372;stroke-miterlimit:10;}
	.st368{fill:none;stroke:#4890F1;stroke-width:2.5336;stroke-miterlimit:10;}
	.st369{fill:#FFEFE0;stroke:#4890F1;stroke-width:2.5336;stroke-miterlimit:10;}
</style>
<g id="Слой_1">
	<g>
		<circle class="st6" cx="231.68" cy="828.53" r="143.58"/>
		<g>
			<path class="st21" d="M171.03,800.85l0.2,2.98c0,1.75-2.21,2.63-6.63,2.63c-0.47,0-1.15-0.57-2.02-1.72
				c-0.81-1.08-1.42-1.55-1.82-1.42c-0.37,0-2.22,0.46-5.54,1.37c-3.32,0.91-5.3,1.5-5.94,1.77c-4.08,1.31-6.95,1.97-8.6,1.97
				c-1.55,0-2.79-0.52-3.72-1.57c-0.93-1.04-1.39-2.06-1.39-3.03c0-1.79,1.53-3.09,4.58-3.92c3.05-0.83,5.71-1.44,7.97-1.85
				c7.25-1.48,11.5-2.6,12.75-3.34c0.37-6.44,1.13-13.82,2.28-22.15l2.88-21.34c-1.96,0-4.67,1.18-8.14,3.54
				c-6.17,4.05-11.6,6.07-16.29,6.07c-1.52,0-2.28-1.06-2.28-3.19c0-1.35,0.26-2.24,0.78-2.68c0.52-0.44,2.88-1.56,7.06-3.36
				c4.18-1.8,9.44-4.59,15.78-8.37c6.34-3.78,9.79-5.66,10.37-5.66c1.08,0,2.01,0.74,2.78,2.23c0.78,1.48,1.16,2.78,1.16,3.9
				c0,0.94-0.49,1.91-1.47,2.88c-3.31,14.43-5.23,25.48-5.77,33.16c-0.54,7.67-0.62,12.15-0.25,13.43c2.56-0.1,6.25-0.83,11.08-2.17
				c6.64-1.79,12-2.68,16.08-2.68c0.81,1.55,1.21,2.87,1.21,3.95c0,1.15-0.17,1.89-0.51,2.23c-0.34,0.34-1.45,0.83-3.34,1.47
				c-1.89,0.64-5.14,1.26-9.76,1.87C177.76,798.76,173.26,799.77,171.03,800.85z"/>
			<path class="st21" d="M222.02,808.54c-5.4,0-9.56-1.84-12.49-5.51c-2.93-3.68-4.4-8.26-4.4-13.76c0-6.71,2.06-14.11,6.17-22.2
				c4.11-8.09,10.11-14.74,17.98-19.93c7.87-5.19,14.81-7.79,20.81-7.79c4.38,0,9.1,1.45,14.16,4.35c5.06,2.9,8.6,6.15,10.62,9.76
				c2.02,3.61,3.04,8.4,3.04,14.36c0,8.94-5.83,17.96-17.48,27.06C248.78,803.99,235.98,808.54,222.02,808.54z M257.63,749.16
				c-0.78,0.98-1.99,1.47-3.64,1.47c-0.24,0-0.88-0.37-1.92-1.11c-1.08-0.78-2.06-1.16-2.93-1.16c-4.15,0-7.43,0.65-9.86,1.95
				c-2.43,1.3-5.76,3.99-9.99,8.07c-4.23,4.08-7.68,8.56-10.34,13.43c-2.67,4.87-4,9.82-4,14.85c0,5.97,1.4,9.71,4.2,11.23
				c2.8,1.52,5.85,2.28,9.15,2.28c4.18,0,9.41-1.67,15.68-5.01c6.27-3.34,12.07-7.63,17.4-12.87c5.33-5.24,7.99-9.52,7.99-12.82
				c0-1.89-0.3-4.09-0.91-6.6c-0.61-2.51-1.27-4.24-2-5.18c-0.73-0.94-2.07-2.46-4.05-4.55
				C260.43,751.02,258.84,749.7,257.63,749.16z"/>
		</g>
		<circle class="st104" cx="202.14" cy="771.78" r="150.61"/>
	</g>
	<g>
		<path class="st18" d="M1341.94,647.91c-0.48,0.62-1.54,0.93-3.16,0.93c-0.6,0-1.58-0.08-2.96-0.24c-1.56-0.18-2.68-0.27-3.37-0.27
			h-2.27c-0.67,0-1.26,0.01-1.79,0.03h-1.65c-0.55,0-1.13,0.01-1.75,0.03c-0.5,0.99-0.76,2.54-0.76,4.68c0,2.61-0.06,4.25-0.17,4.92
			c-0.12,0.64-0.14,1.55-0.07,2.73c0.07,1.18-0.56,1.77-1.89,1.77c-0.99,0-1.63-0.19-1.94-0.57s-0.46-1.06-0.46-2.05
			c0-0.53,0.2-2.33,0.58-5.4c0.18-1.49,0.37-3.52,0.55-6.09c-1.47-0.14-3.68-0.21-6.64-0.21c-0.5,0-1.18,0.12-2.03,0.34
			c-0.89,0.21-1.48,0.31-1.75,0.31c-0.62,0-1.17-0.23-1.67-0.71c-0.49-0.47-0.74-1.01-0.74-1.63c0-0.46,0.17-0.95,0.5-1.46
			s0.71-0.77,1.12-0.77c0.8,0,1.64,0.08,2.51,0.24c0.89,0.16,1.56,0.24,2,0.24l6.91-0.34c0.28-0.87,0.41-1.77,0.41-2.68
			c0-1.24-0.09-3.35-0.28-6.33c-0.09-1.24-0.14-2.3-0.14-3.2c0-0.78,0.23-1.56,0.71-2.34c0.47-0.78,1.06-1.17,1.77-1.17
			c0.37,0,0.77,0.38,1.22,1.14c0.45,0.76,0.67,1.34,0.67,1.75c0,1.19-0.1,2.79-0.31,4.78c-0.21,2-0.31,3.36-0.31,4.09
			c0,1.17,0.07,2.34,0.21,3.51c0.46,0.16,1.8,0.24,4.02,0.24l7.88-0.14c2.13,0,3.51,0.23,4.13,0.69
			C1341.64,645.2,1341.94,646.26,1341.94,647.91z"/>
		<path class="st18" d="M1373.93,660.95l0.14,2.03c0,1.19-1.5,1.79-4.51,1.79c-0.32,0-0.78-0.39-1.38-1.17
			c-0.55-0.73-0.96-1.05-1.24-0.96c-0.25,0-1.51,0.31-3.77,0.93c-2.26,0.62-3.61,1.02-4.04,1.2c-2.78,0.89-4.72,1.34-5.85,1.34
			c-1.05,0-1.9-0.36-2.53-1.07c-0.63-0.71-0.95-1.4-0.95-2.06c0-1.21,1.04-2.1,3.11-2.67c2.08-0.56,3.88-0.98,5.42-1.26
			c4.93-1.01,7.82-1.77,8.67-2.27c0.25-4.38,0.77-9.4,1.55-15.06l1.96-14.51c-1.33,0-3.18,0.8-5.54,2.41
			c-4.2,2.75-7.89,4.13-11.08,4.13c-1.03,0-1.55-0.72-1.55-2.17c0-0.92,0.18-1.52,0.53-1.82c0.36-0.3,1.96-1.06,4.8-2.29
			c2.84-1.23,6.42-3.12,10.73-5.69c4.31-2.57,6.66-3.85,7.05-3.85c0.73,0,1.36,0.5,1.89,1.51c0.53,1.01,0.79,1.89,0.79,2.65
			c0,0.64-0.33,1.3-1,1.96c-2.25,9.81-3.55,17.33-3.92,22.55c-0.37,5.22-0.42,8.26-0.17,9.13c1.74-0.07,4.25-0.56,7.53-1.48
			c4.52-1.22,8.16-1.82,10.94-1.82c0.55,1.06,0.83,1.95,0.83,2.68c0,0.78-0.12,1.28-0.34,1.51c-0.23,0.23-0.99,0.56-2.27,1
			s-3.5,0.86-6.64,1.27C1378.51,659.52,1375.44,660.21,1373.93,660.95z"/>
		<path class="st18" d="M1398.21,671.85c4.27-1.05,7-2.55,8.22-4.49c1.21-1.94,1.82-3.32,1.82-4.14c0-2.34-0.32-3.99-0.96-4.95
			c-0.3-0.44-0.45-0.86-0.45-1.27c0-0.34,0.15-0.84,0.46-1.48c0.31-0.64,0.62-0.96,0.95-0.96c0.48,0,1.24,0.18,2.27,0.53
			c1.03,0.36,1.64,0.67,1.82,0.93c0.18,0.26,0.49,1.12,0.91,2.56c0.42,1.44,0.64,2.68,0.64,3.71c0,0.39-0.43,1.6-1.29,3.63
			c-0.86,2.03-2.04,3.61-3.53,4.75c-1.49,1.14-2.89,1.83-4.2,2.08c-0.53,0.09-1.02,0.22-1.48,0.38c-1.81,0.8-3.29,1.2-4.44,1.2
			c-0.67,0-1-0.54-1-1.62C1397.97,672.3,1398.05,672.01,1398.21,671.85z"/>
		<path class="st18" d="M1432.68,666.17c-3.67,0-6.5-1.25-8.5-3.75c-2-2.5-2.99-5.62-2.99-9.35c0-4.56,1.4-9.6,4.2-15.1
			c2.8-5.5,6.87-10.02,12.23-13.55c5.35-3.53,10.07-5.3,14.15-5.3c2.98,0,6.19,0.99,9.63,2.96c3.44,1.97,5.85,4.18,7.22,6.64
			c1.38,2.45,2.06,5.71,2.06,9.77c0,6.08-3.96,12.21-11.88,18.4C1450.88,663.08,1442.17,666.17,1432.68,666.17z M1456.89,625.79
			c-0.53,0.67-1.35,1-2.48,1c-0.16,0-0.6-0.25-1.31-0.76c-0.73-0.53-1.4-0.79-1.99-0.79c-2.82,0-5.06,0.44-6.71,1.32
			c-1.65,0.88-3.92,2.71-6.79,5.49c-2.88,2.77-5.22,5.82-7.03,9.13s-2.72,6.68-2.72,10.09c0,4.06,0.95,6.6,2.85,7.64
			s3.98,1.55,6.23,1.55c2.84,0,6.4-1.13,10.66-3.4s8.21-5.19,11.83-8.75c3.62-3.57,5.43-6.47,5.43-8.72c0-1.28-0.21-2.78-0.62-4.49
			c-0.41-1.71-0.87-2.88-1.36-3.53c-0.49-0.64-1.41-1.67-2.75-3.1C1458.8,627.06,1457.72,626.16,1456.89,625.79z"/>
		<path class="st18" d="M1511.68,647.22c5.43-0.94,10.31-4.45,14.62-10.52c2.02-2.82,3.79-4.82,5.31-6
			c1.52-1.18,3.15-1.77,4.87-1.77c0.69,0,1.38,0.31,2.06,0.93c0.69,0.62,1.03,1.35,1.03,2.2c0,1.12-1.07,2.01-3.2,2.65
			c-1.12,0.34-2.18,0.93-3.17,1.75c-0.99,0.83-2.85,2.8-5.61,5.92c-2.16,2.43-4.09,4.14-5.81,5.12c-0.16,0.09-0.24,0.17-0.24,0.24
			c0,0.09,0.1,0.18,0.31,0.28c1.67,0.89,3.44,2.63,5.3,5.19c2.71,3.74,4.73,6.09,6.09,7.07c1.35,0.97,2.9,1.46,4.64,1.46l1.13-0.03
			c0.8-0.05,1.2,0.31,1.2,1.07c0,0.87-0.49,1.78-1.48,2.72c-0.99,0.94-2.61,1.41-4.88,1.41c-1.74,0-3.43-0.75-5.07-2.25
			c-1.64-1.5-3.51-3.94-5.62-7.31c-1.22-1.99-2.35-3.51-3.41-4.54s-2.22-1.55-3.51-1.55c-0.28,0-1.12,0.23-2.54,0.69
			c-1.42,0.46-2.22,0.9-2.39,1.32c-0.17,0.42-0.3,1.95-0.38,4.57c-0.08,2.63-0.12,4.74-0.12,6.35c0,0.85-0.4,1.6-1.2,2.27
			c-0.8,0.67-1.67,1-2.61,1c-0.96,0-1.72-0.28-2.27-0.84c-0.55-0.56-0.83-1.14-0.83-1.74c0-0.83,0.31-2.77,0.93-5.85
			c1.1-5.59,2.2-14.82,3.3-27.69c0.09-1.24,0.56-2.36,1.41-3.35s1.81-1.5,2.89-1.5c0.6,0,1.09,0.32,1.5,0.96
			c0.4,0.64,0.6,1.47,0.6,2.48c0,0.8-0.14,1.72-0.41,2.75C1512.82,637.42,1512,642.27,1511.68,647.22z"/>
		<path class="st18" d="M1599.45,625.28c-0.83-3.58-1.85-6.08-3.06-7.5c-1.22-1.42-2.82-2.52-4.82-3.3c-2-0.78-3.79-1.17-5.4-1.17
			c-0.62,0-1.53,0.24-2.73,0.71c-1.2,0.47-2.13,0.9-2.77,1.29c-0.89,0.53-1.72,0.79-2.48,0.79c-0.87,0-1.31-0.46-1.31-1.38
			c0-0.99,0.75-2.35,2.24-4.09c1.49-1.74,4.12-2.61,7.88-2.61h1.48c3.74,0,7.04,0.98,9.91,2.94c2.87,1.96,4.9,4.76,6.1,8.41
			s1.81,8.54,1.81,14.69c0,4.17-1.32,9.23-3.96,15.17c-2.64,5.94-5.99,10.43-10.06,13.48c-4.07,3.05-8.4,4.57-12.98,4.57
			c-1.65,0-3.2-0.95-4.64-2.85c-1.44-1.9-2.17-4.27-2.17-7.09c0-5.2,1.14-9.8,3.42-13.77c2.28-3.98,4.84-7.21,7.67-9.68
			c2.83-2.48,6.75-4.47,11.75-5.98c1.65-0.48,2.77-0.86,3.37-1.14C1599.29,626.48,1599.55,625.99,1599.45,625.28z M1600.38,632.29
			c-5.3,1.08-9.35,2.79-12.17,5.13c-6.38,5.96-9.56,12.65-9.56,20.05c0,0.99,0.17,1.91,0.52,2.77s0.73,1.29,1.17,1.29
			c1.7,0,3.24-0.3,4.64-0.89c1.4-0.6,3.11-1.84,5.13-3.73c2.02-1.89,3.85-4.24,5.49-7.03c1.64-2.8,2.83-5.49,3.58-8.08
			c0.75-2.59,1.14-4.58,1.19-5.97C1600.4,634.43,1600.41,633.26,1600.38,632.29z"/>
		<path class="st18" d="M1620.47,667.03c-3.14,0-5.73-1.19-7.77-3.58c-2.04-2.38-3.06-5.33-3.06-8.84c0-5.92,1.99-11.75,5.97-17.49
			c3.98-5.74,8.74-8.62,14.29-8.62c3.67,0,6.64,1.41,8.92,4.23c2.28,2.82,3.42,6.18,3.42,10.08c0,5.96-2.36,11.49-7.07,16.58
			S1625.56,667.03,1620.47,667.03z M1615.69,653.72c0,2.32,0.49,4.21,1.46,5.67c0.97,1.47,2.26,2.2,3.87,2.2
			c3.42,0,6.84-1.87,10.28-5.62s5.16-7.92,5.16-12.5c0-2.82-0.66-5.11-1.98-6.86c-1.32-1.75-3.09-2.63-5.31-2.63
			c-3.69,0-6.86,2.26-9.51,6.79C1617.01,645.3,1615.69,649.62,1615.69,653.72z"/>
		<path class="st18" d="M1671.51,630.27c5.21,2.11,7.81,7.11,7.81,15c0,5.92-1.85,11.09-5.54,15.51c-3.69,4.43-7.7,6.64-12.04,6.64
			c-3.88,0-6.89-1.54-9.05-4.61s-3.23-7.57-3.23-13.48c0-7.13,1.26-14.35,3.77-21.65c2.51-7.3,5.64-12.82,9.39-16.54
			s7.54-5.59,11.37-5.59c2.32,0,4.18,0.76,5.59,2.29s2.12,3.64,2.12,6.35c0,2.16-0.93,4.71-2.8,7.67
			C1677.02,624.8,1674.56,627.61,1671.51,630.27z M1673.02,646.22c0-3.42-0.63-6.17-1.89-8.25c-1.26-2.09-2.66-3.13-4.2-3.13
			c-0.46,0-3.02,1.77-7.67,5.3c-1.19,0.92-2.35,1.77-3.47,2.55c-0.34,1.97-0.52,4.14-0.52,6.5c0,4.17,0.63,7.31,1.88,9.42
			c1.25,2.11,2.97,3.16,5.18,3.16c3.07,0,5.62-1.61,7.65-4.83c2.03-3.22,3.04-6.77,3.04-10.65V646.22z M1656.58,636.53
			c8.83-6.81,14.28-11.68,16.37-14.6c2.09-2.92,3.13-5.22,3.13-6.9c0-2.68-1.08-4.02-3.23-4.02c-3,0-6.03,2.26-9.06,6.78
			C1660.75,622.3,1658.35,628.55,1656.58,636.53z"/>
		<path class="st18" d="M1717.46,653.65c0,2.34-2.07,5.16-6.21,8.46s-8.41,4.95-12.81,4.95c-3.69,0-6.54-1.09-8.55-3.27
			c-2.01-2.18-3.01-5.22-3.01-9.11c0-6.56,2.21-12.79,6.64-18.71c4.43-5.92,9.26-8.87,14.51-8.87c1.72,0,3.12,0.56,4.21,1.69
			c1.09,1.12,1.63,2.48,1.63,4.06c0,3.53-1.73,6.91-5.19,10.15s-8.09,6.41-13.9,9.53c-1.19,0.62-1.79,1.42-1.79,2.41
			c0,1.9,0.55,3.43,1.65,4.57s2.73,1.72,4.88,1.72c4.93,0,9.96-2.73,15.1-8.19c0.76-0.76,1.33-1.13,1.72-1.13
			C1717.09,651.9,1717.46,652.48,1717.46,653.65z M1693.56,648.29c9.72-5.78,14.58-10.42,14.58-13.93c0-1.38-0.62-2.06-1.86-2.06
			c-2.11,0-4.49,1.55-7.14,4.64C1696.5,640.03,1694.63,643.82,1693.56,648.29z"/>
		<path class="st18" d="M1731.29,661.32c-1.12,4.13-2.18,9.92-3.17,17.37l-0.96,6.5c-0.16,0.92-0.58,1.83-1.27,2.73
			c-0.69,0.91-1.32,1.36-1.89,1.36c-0.71,0-1.52-0.36-2.42-1.08c-0.91-0.72-1.36-1.3-1.36-1.74c0-1.26,0.29-3,0.86-5.23
			c4.2-16.94,6.29-31.83,6.29-44.64l-0.04-2.89c-0.05-2.48,0.39-4.28,1.31-5.4c0.92-1.12,1.97-1.69,3.16-1.69
			c0.55,0,1.08,0.43,1.58,1.29c0.5,0.86,0.76,2.08,0.76,3.66c0,2.22-0.23,4.92-0.69,8.08c-0.6,3.99-0.91,6.28-0.93,6.88
			c3.42-5.96,7.04-10.62,10.87-13.96c3.83-3.35,7.38-5.02,10.66-5.02c2.32,0,4.27,0.87,5.86,2.6c1.59,1.73,2.39,3.88,2.39,6.45
			c0,7.48-2.87,14.26-8.6,20.36c-5.73,6.1-11.32,9.15-16.75,9.15c-1.35,0-2.42-0.34-3.22-1.03S1732.14,663.14,1731.29,661.32z
			 M1752.65,633.64c-3.23,0-7.23,3.03-12,9.08c-4.77,6.05-7.15,10.77-7.15,14.14c0,0.83,0.47,1.63,1.41,2.41
			c0.94,0.78,2.13,1.17,3.58,1.17c3.28,0,7.05-2.42,11.32-7.27s6.4-9.61,6.4-14.29c0-1.67-0.34-2.96-1.01-3.87
			C1754.5,634.09,1753.65,633.64,1752.65,633.64z"/>
		<path class="st18" d="M1794.47,650.35c-2.93,4.93-5.94,8.75-9.01,11.45c-3.07,2.71-5.93,4.06-8.56,4.06
			c-1.51,0-3.06-0.88-4.63-2.65c-1.57-1.77-2.36-4.48-2.36-8.15c0-3,0.72-7.43,2.17-13.28c1.22-4.88,1.82-8.31,1.82-10.28
			c0.67-1.38,1.71-2.06,3.13-2.06c0.96,0,1.73,0.34,2.3,1.01c0.57,0.68,0.86,1.38,0.86,2.12c0,1.6-0.56,3.89-1.69,6.84
			c-2.13,5.76-3.2,10.7-3.2,14.82c0,3.76,0.87,5.64,2.61,5.64c2.22,0,5.06-1.89,8.5-5.68s6.39-9.06,8.84-15.82
			c0.96-2.71,1.75-4.47,2.36-5.28s1.43-1.22,2.46-1.22c1.56,0,2.34,1.03,2.34,3.1c0,0.25-0.22,1.09-0.65,2.51
			c-1.38,5.02-2.06,9.77-2.06,14.24c0,5.37,0.88,8.84,2.65,10.42c0.92,0.85,1.38,1.54,1.38,2.06c0,0.64-0.46,1.23-1.39,1.75
			s-1.77,0.79-2.53,0.79c-1.6,0-2.9-1.19-3.89-3.58c-0.99-2.38-1.48-5.9-1.48-10.56v-1.14
			C1794.44,651.12,1794.45,650.74,1794.47,650.35z"/>
		<path class="st18" d="M1838.39,643.54c0.05-0.11,0.1-0.23,0.17-0.34l0.24-0.41c2.09-5.11,4.71-9.04,7.86-11.78
			c3.15-2.74,6.6-4.11,10.33-4.11c3.67,0,6.64,1.41,8.93,4.23c2.28,2.82,3.42,6.18,3.42,10.08c0,5.96-2.36,11.49-7.07,16.58
			c-4.71,5.09-9.61,7.64-14.7,7.64c-3.12,0-5.7-1.19-7.76-3.58c-2.05-2.38-3.08-5.32-3.08-8.81l-0.07-1.41
			c-0.05-0.8-0.1-1.31-0.15-1.51c-0.06-0.21-0.29-0.31-0.71-0.31h-5.95c-2.2,0.02-4.1,0.18-5.71,0.48c-1.61,0.3-2.56,0.58-2.87,0.86
			c-0.31,0.27-0.54,0.88-0.71,1.82c-0.25,1.47-0.47,2.53-0.65,3.2c-0.21,0.78-0.31,1.59-0.31,2.44l0.14,2.89
			c0,1.03-0.28,2.13-0.84,3.28c-0.56,1.16-1.45,1.74-2.67,1.74c-1.88,0-2.82-1.23-2.82-3.68l0.14-3.03c0-0.37,0.25-2.13,0.76-5.3
			c0.62-3.9,1.2-10.02,1.75-18.37c0.18-2.68,0.31-4.33,0.4-4.95c0.08-0.62,0.49-1.22,1.24-1.81c0.75-0.58,1.56-0.88,2.46-0.88
			c1.65,0,2.48,0.68,2.48,2.03c0,0.21-0.26,1.93-0.79,5.16c-0.55,3.23-0.83,5.74-0.83,7.53c0,1.26,0.43,1.89,1.31,1.89
			c1.9,0,5.04-0.19,9.41-0.57C1836.1,644.18,1838.32,643.84,1838.39,643.54z M1842.79,652.11c0,2.32,0.49,4.21,1.46,5.68
			c0.97,1.47,2.26,2.2,3.87,2.2c3.42,0,6.84-1.87,10.28-5.62s5.16-7.92,5.16-12.5c0-2.82-0.66-5.11-1.98-6.86
			c-1.32-1.75-3.09-2.63-5.31-2.63c-3.69,0-6.86,2.26-9.51,6.79C1844.12,643.69,1842.79,648,1842.79,652.11z"/>
	</g>
	<g>
		<g>
			<ellipse class="st28" cx="1035.25" cy="1467.26" rx="636.03" ry="145.02"/>
			<g>
				<g>
					<path class="st105" d="M421.54,912.32l54.93,438.33c2.98,31.83,23.43,59.31,53.04,71.38c60.73,24.75,175.43,51.49,328.28-2.84
						c33.73-11.99,58.13-41.62,63.72-76.98l68.04-429.89C989.56,912.32,776.99,1079.59,421.54,912.32z"/>
					<path class="st106" d="M414.57,901.87c0,0,317.12,202.12,568.02,0l83.63-48.79c0,0-341.51,76.67-533.17-10.45L414.57,901.87z"
						/>
					<path class="st107" d="M1057.47,866.61l-59.73,417.23c-5.23,36.51-26.75,68.67-58.54,87.37
						c-34.04,20.02-75.18,43.23-88.8,46.84c-24.63,6.54,128.71-505.73,128.71-505.73L1057.47,866.61z"/>
					<path class="st108" d="M414.57,901.87l-17.42,55.76c0,0,254.39,202.12,595.9,6.97l-10.45-62.73
						C982.59,901.87,686.39,1069.13,414.57,901.87z"/>
					<polygon class="st108" points="982.59,901.87 1066.23,853.08 1076.68,880.96 993.05,964.59 					"/>
					<path class="st109" d="M794.84,884.11c0,0,2.16,53.93-51.41,91.6c0,0,9.79,339.41-33.15,471.3c0,0-53.45,1.12-94.21-4.09
						c0,0,90.47-197.52,54.25-466.86c0,0,85.75-63.74,99.69-91.62L794.84,884.11z"/>
					<path class="st110" d="M743.44,975.71c53.57-37.67,51.41-91.6,51.41-91.6l-24.82,0.34c-13.94,27.88-99.69,91.62-99.69,91.62
						S730.79,979.86,743.44,975.71z"/>
					<path class="st110" d="M494.74,861.78c0,0,171.24,103.1,519.22,22.66l-11.29,5.71c0,0-294.13,115.63-545.66-9.51L494.74,861.78
						z"/>
					<path class="st109" d="M1003.5,891.41c0,0-5.21,336.45-107.15,495.8l59.73-35.65c0,0,69.97-46.13,56.95-467.45l-9.39,5.48
						L1003.5,891.41z"/>
					<path class="st111" d="M876.38,835.28c-33.9-10.75-73.06,21.34-95.48,44c0,0,0,0,0,0c-36.16-17.79-54.43,0.23-54.43,0.23l0,0
						c-20.47-29.42-59.11-77.12-94.63-77.18c-51.36-0.09-40.52,51.75-49.13,78.8c-8.61,27.05-14.32,67.92,24.66,63.38
						c38.98-4.54,98.69,8.22,119.68-14.2c24.19,20.19,52.13,6.94,52.13,6.94l0,0c22.87,24.49,77.72,30.94,113.7,46.71
						c38.4,16.82,34.96-25.5,27.9-55.04C913.72,899.39,927.3,851.43,876.38,835.28z"/>
					<path class="st112" d="M728.2,880.96c0,0-27.88,27.88,0,48.79"/>
					<path class="st112" d="M781.24,881.13c0,0,28.76,31.08,1.57,55.76"/>
					<line class="st112" x1="718.74" y1="895.06" x2="627.15" y2="846.11"/>
					<path class="st112" d="M714.26,912.32c0,0-34.85-10.45-62.73,0"/>
					<path class="st112" d="M794.41,891.41c0,0,10.45-20.91,38.33-17.42"/>
					<path class="st112" d="M799.16,915.06c0,0,93.64-8.94,105.43,23.78"/>
				</g>
				<g>
					<path class="st113" d="M1040.37,1026.1l39.53,315.39c2.14,22.9,16.86,42.68,38.16,51.36c43.69,17.81,126.22,37.05,236.2-2.04
						c24.27-8.63,41.82-29.95,45.85-55.39l48.96-309.31C1449.07,1026.1,1296.12,1146.45,1040.37,1026.1z"/>
					<path class="st114" d="M1035.35,1018.57c0,0,228.17,145.43,408.7,0l60.18-35.1c0,0-245.72,55.16-383.62-7.52L1035.35,1018.57z"
						/>
					<path class="st115" d="M1497.93,993.21l-42.98,300.2c-3.76,26.27-19.25,49.41-42.12,62.86c-24.49,14.4-54.09,31.1-63.89,33.7
						c-17.72,4.7,92.6-363.88,92.6-363.88L1497.93,993.21z"/>
					<path class="st116" d="M1035.35,1018.57l-12.54,40.12c0,0,183.04,145.43,428.76,5.01l-7.52-45.13
						C1444.05,1018.57,1230.93,1138.93,1035.35,1018.57z"/>
					<polygon class="st116" points="1444.05,1018.57 1504.23,983.47 1511.75,1003.53 1451.57,1063.71 					"/>
					<path class="st117" d="M1308.96,1005.8c0,0,1.55,38.81-36.99,65.91c0,0,8.2,238.48-22.69,333.38c0,0-37.42,2.1-66.75-1.65
						c0,0,62.9-137.68,36.84-331.48c0,0,61.7-45.86,71.73-65.92L1308.96,1005.8z"/>
					<path class="st118" d="M1271.98,1071.71c38.54-27.1,36.99-65.91,36.99-65.91l-17.86,0.24c-10.03,20.06-71.73,65.92-71.73,65.92
						S1262.88,1074.69,1271.98,1071.71z"/>
					<path class="st119" d="M1093.03,989.73c0,0,123.21,74.18,373.58,16.3l-8.12,4.11c0,0-211.63,83.2-392.61-6.84L1093.03,989.73z"
						/>
					<path class="st120" d="M1459.1,1011.05c0,0-3.75,242.08-77.09,356.73l42.98-25.65c0,0,50.35-33.19,40.98-336.34l-6.75,3.94
						L1459.1,1011.05z"/>
					<path class="st121" d="M1367.63,970.67c-24.39-7.73-52.57,15.35-68.7,31.66c0,0,0,0,0,0c-26.02-12.8-39.17,0.17-39.17,0.17l0,0
						c-14.73-21.17-42.53-55.49-68.09-55.53c-36.95-0.06-29.15,37.24-35.35,56.7c-6.19,19.46-10.31,48.87,17.74,45.6
						c28.05-3.27,71.01,5.92,86.11-10.21c17.4,14.53,37.51,5,37.51,5h0c16.46,17.62,55.92,22.26,81.81,33.61
						c27.63,12.1,25.15-18.35,20.08-39.6C1394.5,1016.8,1404.26,982.29,1367.63,970.67z"/>
					<path class="st112" d="M1261.01,1003.53c0,0-20.06,20.06,0,35.1"/>
					<path class="st112" d="M1299.18,1003.66c0,0,20.7,22.36,1.13,40.12"/>
					<line class="st112" x1="1254.2" y1="1013.68" x2="1188.3" y2="978.46"/>
					<path class="st112" d="M1250.99,1026.1c0,0-25.07-7.52-45.13,0"/>
					<path class="st112" d="M1308.65,1011.05c0,0,7.52-15.04,27.58-12.54"/>
					<path class="st112" d="M1312.07,1028.07c0,0,67.38-6.43,75.86,17.11"/>
				</g>
				<g>
					<path class="st113" d="M881.13,1285.54l26.17,208.78c1.42,15.16,11.16,28.25,25.26,34c28.92,11.79,83.56,24.52,156.36-1.35
						c16.07-5.71,27.69-19.82,30.35-36.67l32.41-204.76C1151.68,1285.54,1050.43,1365.21,881.13,1285.54z"/>
					<path class="st114" d="M877.81,1280.56c0,0,151.04,96.27,270.55,0l39.84-23.24c0,0-162.66,36.52-253.95-4.98L877.81,1280.56z"
						/>
					<path class="st115" d="M1184.02,1263.76l-28.45,198.73c-2.49,17.39-12.74,32.71-27.88,41.61
						c-16.21,9.53-35.81,20.59-42.29,22.31c-11.73,3.11,61.3-240.88,61.3-240.88L1184.02,1263.76z"/>
					<path class="st116" d="M877.81,1280.56l-8.3,26.56c0,0,121.17,96.27,283.83,3.32l-4.98-29.88
						C1148.36,1280.56,1007.27,1360.23,877.81,1280.56z"/>
					<polygon class="st116" points="1148.36,1280.56 1188.19,1257.32 1193.17,1270.6 1153.34,1310.43 					"/>
					<path class="st122" d="M1058.93,1272.1c0,0,1.03,25.69-24.48,43.63c0,0,5.43,157.87-15.02,220.69c0,0-24.77,1.39-44.19-1.09
						c0,0,41.64-91.14,24.39-219.43c0,0,40.84-30.36,47.48-43.64L1058.93,1272.1z"/>
					<path class="st123" d="M1034.45,1315.73c25.51-17.94,24.48-43.63,24.48-43.63l-11.82,0.16c-6.64,13.28-47.48,43.64-47.48,43.64
						S1028.42,1317.7,1034.45,1315.73z"/>
					<path class="st110" d="M915.99,1261.47c0,0,81.56,49.11,247.3,10.79l-5.38,2.72c0,0-140.09,55.08-259.9-4.53L915.99,1261.47z"
						/>
					<path class="st124" d="M1158.31,1275.58c0,0-2.48,160.25-51.04,236.15l28.45-16.98c0,0,33.33-21.97,27.13-222.65l-4.47,2.61
						L1158.31,1275.58z"/>
					<path class="st125" d="M1097.77,1248.84c-16.14-5.12-34.8,10.16-45.48,20.96c0,0,0,0,0,0c-17.23-8.47-25.93,0.11-25.93,0.11
						l0,0c-9.75-14.01-28.16-36.73-45.07-36.76c-24.46-0.04-19.3,24.65-23.4,37.53c-4.1,12.88-6.82,32.35,11.74,30.19
						c18.57-2.16,47.01,3.92,57-6.76c11.52,9.62,24.83,3.31,24.83,3.31h0c10.89,11.67,37.02,14.74,54.16,22.25
						c18.29,8.01,16.65-12.15,13.29-26.21C1115.55,1279.38,1122.02,1256.53,1097.77,1248.84z"/>
					<path class="st112" d="M1027.19,1270.6c0,0-13.28,13.28,0,23.24"/>
					<path class="st112" d="M1052.45,1270.68c0,0,13.7,14.8,0.75,26.56"/>
					<line class="st112" x1="1022.68" y1="1277.32" x2="979.06" y2="1254"/>
					<path class="st112" d="M1020.55,1285.54c0,0-16.6-4.98-29.88,0"/>
					<path class="st112" d="M1058.73,1275.58c0,0,4.98-9.96,18.26-8.3"/>
					<path class="st112" d="M1060.99,1286.84c0,0,44.6-4.26,50.22,11.33"/>
				</g>
			</g>
		</g>
		<g>
			<line class="st126" x1="1544.9" y1="1108.84" x2="1781.08" y2="1108.84"/>
			<line class="st126" x1="1495.18" y1="1324.31" x2="1640.2" y2="1324.31"/>
			<line class="st126" x1="1565.61" y1="1245.58" x2="1872.23" y2="1245.58"/>
			<line class="st126" x1="1507.61" y1="1187.57" x2="1710.64" y2="1187.57"/>
		</g>
		<g>
			<line class="st126" x1="368.15" y1="1324.31" x2="131.97" y2="1324.31"/>
			<line class="st126" x1="417.87" y1="1108.84" x2="272.84" y2="1108.84"/>
			<line class="st126" x1="347.43" y1="1187.57" x2="40.81" y2="1187.57"/>
			<line class="st126" x1="405.44" y1="1245.58" x2="202.41" y2="1245.58"/>
		</g>
	</g>
	<g>
		<path d="M541.06,1665.89c0,0.4,1.04,1.05,3.14,1.92c1.96,0.84,3.3,1.61,4.05,2.3c0.74,0.69,1.73,1.95,2.96,3.77
			c1.23,1.82,2.07,3.55,2.53,5.18c0.46,1.64,0.68,3.95,0.68,6.95c0,5.53-1.82,10.65-5.46,15.35c-3.64,4.7-8.25,8.43-13.81,11.18
			c-5.56,2.75-10.22,4.12-13.96,4.12c-5.6,0-11.02-1.57-16.26-4.7c-5.24-3.14-7.87-7.33-7.87-12.59c0-1.42,0.41-2.46,1.24-3.14
			c0.83-0.67,1.71-1.01,2.66-1.01c1.72,0,3.56,1.55,5.51,4.65c1.62,2.6,3.81,4.66,6.58,6.2c2.76,1.53,5.29,2.3,7.59,2.3
			c7.11,0,13.11-2.83,17.98-8.5c4.87-5.67,7.31-10.25,7.31-13.76c0-3.95-1.26-7.3-3.79-10.07c-2.53-2.76-5.75-4.15-9.66-4.15
			c-2.26,0-4.72,0.76-7.38,2.28c-2.66,1.52-4.94,2.28-6.83,2.28c-1.08,0-2.28-0.35-3.59-1.06c-1.32-0.71-1.97-1.6-1.97-2.68
			c0-0.4,0.22-0.99,0.66-1.74c0.44-0.76,0.89-1.25,1.37-1.47s1.67-0.67,3.59-1.34c6.91-2.33,11.65-4.3,14.21-5.92
			c2.56-1.62,5.11-4.28,7.64-7.99c2.53-3.71,3.79-6.95,3.79-9.71c0-3.84-1.79-5.77-5.36-5.77c-2.7,0-5.47,0.47-8.32,1.42
			c-2.85,0.94-5.39,2.05-7.61,3.31c-2.23,1.26-3.67,2.12-4.32,2.58c-0.66,0.46-1.63,1.86-2.91,4.22c-1.15,2.06-2.92,3.58-5.31,4.58
			c-2.39,1-3.96,1.49-4.7,1.49c-2.19,0-3.29-0.93-3.29-2.78c0-2.09,1.65-4.92,4.96-8.5c3.3-3.57,8.13-6.85,14.47-9.84
			c6.34-2.98,12.95-4.48,19.83-4.48c3.14,0,5.83,1.46,8.09,4.38c2.26,2.92,3.39,6.4,3.39,10.44
			C552.85,1649.78,548.92,1656.55,541.06,1665.89z"/>
		<path d="M601.76,1692.34c-4.72,6.34-9.39,11.09-14.01,14.26c-4.62,3.17-8.85,4.75-12.7,4.75c-2.6,0-4.84-1.1-6.73-3.29
			c-1.89-2.19-2.83-5.01-2.83-8.45c0-8.87,3.96-18.42,11.89-28.65c7.92-10.23,15.8-15.35,23.62-15.35c2.83,0,4.94,1.62,6.32,4.86
			c0.44,1.08,1.13,1.62,2.07,1.62c2.7,0,4.05,1.05,4.05,3.14c0,1.05-0.17,2.48-0.51,4.3c-1.82,9.95-2.73,16.96-2.73,21.04
			c0,8.16,1.55,13.05,4.65,14.67c1.48,0.81,2.23,1.8,2.23,2.98c0,1.05-0.73,2.1-2.17,3.16c-1.45,1.06-2.85,1.59-4.2,1.59
			c-2.6,0-4.74-1.79-6.42-5.36C602.6,1704.04,601.76,1698.95,601.76,1692.34z M598.68,1663.86c-4.45,0-9.63,4.17-15.53,12.52
			s-8.85,15.27-8.85,20.76c0,3.88,1.28,5.82,3.84,5.82c3.71,0,8.85-3.74,15.43-11.23s9.86-14.36,9.86-20.64
			C603.43,1666.27,601.84,1663.86,598.68,1663.86z"/>
		<path d="M659.73,1659.21c7.65,3.1,11.48,10.45,11.48,22.05c0,8.7-2.71,16.3-8.14,22.81c-5.43,6.51-11.33,9.76-17.7,9.76
			c-5.7,0-10.13-2.26-13.3-6.78c-3.17-4.52-4.75-11.13-4.75-19.83c0-10.49,1.85-21.1,5.54-31.84c3.69-10.74,8.29-18.85,13.81-24.33
			c5.51-5.48,11.08-8.22,16.72-8.22c3.41,0,6.15,1.12,8.22,3.36c2.07,2.24,3.11,5.35,3.11,9.33c0,3.17-1.37,6.93-4.12,11.28
			C667.83,1651.17,664.21,1655.3,659.73,1659.21z M661.95,1682.68c0-5.02-0.93-9.07-2.78-12.14c-1.85-3.07-3.91-4.6-6.17-4.6
			c-0.67,0-4.43,2.6-11.28,7.79c-1.75,1.35-3.46,2.6-5.11,3.74c-0.51,2.9-0.76,6.09-0.76,9.56c0,6.14,0.92,10.76,2.76,13.86
			c1.84,3.1,4.38,4.65,7.61,4.65c4.52,0,8.27-2.37,11.25-7.11c2.98-4.74,4.48-9.96,4.48-15.65V1682.68z M637.77,1668.41
			c12.98-10.01,21.01-17.17,24.08-21.47c3.07-4.3,4.6-7.68,4.6-10.14c0-3.94-1.59-5.92-4.75-5.92c-4.42,0-8.86,3.32-13.33,9.96
			C643.9,1647.49,640.37,1656.68,637.77,1668.41z"/>
		<path d="M696.24,1713.28c-4.62,0-8.43-1.75-11.43-5.26c-3-3.51-4.5-7.84-4.5-13c0-8.7,2.92-17.27,8.78-25.72
			c5.85-8.45,12.85-12.67,21.02-12.67c5.39,0,9.77,2.07,13.13,6.22s5.03,9.09,5.03,14.82c0,8.77-3.46,16.89-10.39,24.38
			S703.73,1713.28,696.24,1713.28z M689.21,1693.7c0,3.41,0.72,6.19,2.15,8.35c1.43,2.16,3.33,3.24,5.69,3.24
			c5.02,0,10.07-2.76,15.12-8.27c5.06-5.51,7.59-11.64,7.59-18.39c0-4.15-0.97-7.51-2.91-10.09c-1.94-2.58-4.54-3.87-7.81-3.87
			c-5.43,0-10.09,3.33-13.99,9.99C691.16,1681.32,689.21,1687.67,689.21,1693.7z"/>
		<path d="M778.54,1651.88c-1.21-5.26-2.71-8.94-4.5-11.03c-1.79-2.09-4.15-3.71-7.08-4.86c-2.93-1.15-5.58-1.72-7.94-1.72
			c-0.91,0-2.25,0.35-4.02,1.04c-1.77,0.69-3.13,1.32-4.07,1.9c-1.31,0.78-2.53,1.16-3.64,1.16c-1.28,0-1.92-0.67-1.92-2.02
			c0-1.45,1.1-3.46,3.29-6.02c2.19-2.56,6.05-3.84,11.58-3.84h2.17c5.5,0,10.35,1.44,14.57,4.32c4.21,2.88,7.21,7.01,8.98,12.37
			c1.77,5.36,2.66,12.56,2.66,21.6c0,6.14-1.94,13.57-5.82,22.31c-3.88,8.73-8.81,15.34-14.79,19.83
			c-5.99,4.48-12.35,6.73-19.09,6.73c-2.43,0-4.7-1.4-6.83-4.2c-2.12-2.8-3.19-6.27-3.19-10.42c0-7.65,1.68-14.41,5.03-20.26
			c3.35-5.85,7.11-10.6,11.28-14.24c4.16-3.64,9.92-6.58,17.27-8.8c2.43-0.71,4.08-1.26,4.96-1.67
			C778.3,1653.65,778.67,1652.92,778.54,1651.88z M779.9,1662.19c-7.79,1.59-13.76,4.1-17.91,7.54
			c-9.38,8.77-14.06,18.6-14.06,29.49c0,1.45,0.25,2.81,0.76,4.07s1.08,1.9,1.72,1.9c2.5,0,4.77-0.44,6.83-1.31
			c2.06-0.88,4.57-2.71,7.54-5.49c2.97-2.78,5.66-6.23,8.07-10.34c2.41-4.11,4.16-8.08,5.26-11.89c1.1-3.81,1.68-6.73,1.75-8.78
			C779.92,1665.34,779.94,1663.61,779.9,1662.19z"/>
		<path d="M808.48,1713.63c-5.06,0-8.94-1.45-11.66-4.35c-2.71-2.9-4.07-6.96-4.07-12.19c0-8.8,3.49-18.08,10.47-27.84
			c6.98-9.76,13.47-14.64,19.47-14.64c2.73,0,5.08,1.48,7.06,4.43c1.97,2.95,2.96,6.08,2.96,9.38c0,1.99-0.43,3.7-1.29,5.13
			c-0.86,1.43-1.73,2.15-2.61,2.15c-1.96,0-3.34-1.97-4.15-5.92c-0.91-4.25-2.23-6.37-3.95-6.37c-3.51,0-7.65,4.17-12.44,12.49
			c-4.79,8.33-7.18,15.36-7.18,21.09c0,5.73,3.25,8.6,9.76,8.6c4.96,0,10.79-2.33,17.5-6.98c2.36-1.65,4.1-2.48,5.21-2.48
			c1.15,0,1.72,0.66,1.72,1.97c0,2.56-3.02,5.79-9.05,9.69C820.2,1711.69,814.28,1713.63,808.48,1713.63z"/>
		<path d="M857.44,1684.15c7.99-1.38,15.16-6.54,21.5-15.48c2.97-4.15,5.57-7.09,7.81-8.83c2.24-1.74,4.63-2.6,7.16-2.6
			c1.01,0,2.02,0.46,3.04,1.37c1.01,0.91,1.52,1.99,1.52,3.24c0,1.65-1.57,2.95-4.7,3.89c-1.65,0.51-3.2,1.37-4.65,2.58
			c-1.45,1.21-4.2,4.11-8.25,8.7c-3.17,3.57-6.02,6.09-8.55,7.54c-0.24,0.14-0.35,0.25-0.35,0.35c0,0.14,0.15,0.27,0.46,0.4
			c2.46,1.31,5.06,3.86,7.79,7.64c3.98,5.5,6.96,8.96,8.95,10.39c1.99,1.43,4.27,2.15,6.83,2.15l1.67-0.05
			c1.18-0.07,1.77,0.46,1.77,1.57c0,1.28-0.72,2.61-2.17,4s-3.84,2.07-7.18,2.07c-2.56,0-5.05-1.1-7.46-3.31
			c-2.41-2.21-5.17-5.79-8.27-10.75c-1.79-2.93-3.46-5.16-5.01-6.68c-1.55-1.52-3.27-2.28-5.16-2.28c-0.4,0-1.65,0.34-3.74,1.01
			c-2.09,0.67-3.26,1.32-3.51,1.95c-0.25,0.62-0.44,2.87-0.56,6.73c-0.12,3.86-0.18,6.97-0.18,9.33c0,1.25-0.59,2.36-1.77,3.34
			c-1.18,0.98-2.46,1.47-3.84,1.47c-1.42,0-2.53-0.41-3.34-1.24c-0.81-0.83-1.21-1.68-1.21-2.55c0-1.21,0.46-4.08,1.37-8.6
			c1.62-8.23,3.24-21.8,4.86-40.72c0.13-1.82,0.83-3.46,2.07-4.93c1.25-1.47,2.66-2.2,4.25-2.2c0.88,0,1.61,0.47,2.2,1.42
			c0.59,0.94,0.89,2.16,0.89,3.64c0,1.18-0.2,2.53-0.61,4.05C859.11,1669.73,857.91,1676.86,857.44,1684.15z"/>
		<path d="M921.37,1713.28c-4.62,0-8.43-1.75-11.43-5.26c-3-3.51-4.5-7.84-4.5-13c0-8.7,2.92-17.27,8.78-25.72
			c5.85-8.45,12.85-12.67,21.02-12.67c5.39,0,9.77,2.07,13.13,6.22s5.03,9.09,5.03,14.82c0,8.77-3.46,16.89-10.39,24.38
			S928.86,1713.28,921.37,1713.28z M914.34,1693.7c0,3.41,0.72,6.19,2.15,8.35c1.43,2.16,3.33,3.24,5.69,3.24
			c5.02,0,10.07-2.76,15.12-8.27c5.06-5.51,7.59-11.64,7.59-18.39c0-4.15-0.97-7.51-2.91-10.09c-1.94-2.58-4.54-3.87-7.81-3.87
			c-5.43,0-10.09,3.33-13.99,9.99C916.29,1681.32,914.34,1687.67,914.34,1693.7z"/>
		<path d="M1000.89,1688.75c-4.32,7.25-8.73,12.86-13.25,16.84c-4.52,3.98-8.72,5.97-12.59,5.97c-2.23,0-4.49-1.3-6.8-3.89
			c-2.31-2.6-3.46-6.59-3.46-11.99c0-4.42,1.06-10.93,3.19-19.52c1.79-7.18,2.68-12.22,2.68-15.12c0.98-2.02,2.51-3.04,4.6-3.04
			c1.42,0,2.55,0.5,3.39,1.49c0.84,1,1.26,2.03,1.26,3.11c0,2.36-0.83,5.72-2.48,10.07c-3.14,8.46-4.7,15.73-4.7,21.8
			c0,5.53,1.28,8.29,3.84,8.29c3.27,0,7.44-2.78,12.49-8.35c5.06-5.56,9.39-13.32,13-23.27c1.42-3.98,2.57-6.57,3.46-7.76
			c0.89-1.2,2.1-1.8,3.62-1.8c2.29,0,3.44,1.52,3.44,4.55c0,0.37-0.32,1.6-0.96,3.69c-2.02,7.38-3.03,14.36-3.03,20.94
			c0,7.89,1.3,13,3.89,15.33c1.35,1.25,2.02,2.26,2.02,3.03c0,0.94-0.68,1.8-2.05,2.58c-1.37,0.78-2.61,1.16-3.72,1.16
			c-2.36,0-4.27-1.75-5.72-5.26c-1.45-3.51-2.17-8.68-2.17-15.53v-1.67C1000.84,1689.88,1000.85,1689.32,1000.89,1688.75z
			 M1015.55,1636.65c0,0.61-0.18,1.41-0.53,2.4c-0.35,1-0.85,2.03-1.49,3.11s-1.42,2.16-2.33,3.24c-0.91,1.08-1.94,2.01-3.09,2.78
			c-0.81,0.57-1.78,1.1-2.91,1.59c-1.13,0.49-2.32,0.9-3.57,1.24c-1.25,0.34-2.52,0.6-3.82,0.78c-1.3,0.19-2.54,0.28-3.72,0.28
			c-1.92,0-3.78-0.23-5.56-0.68c-1.79-0.46-3.44-1.1-4.96-1.92c-1.52-0.83-2.88-1.81-4.1-2.96c-1.21-1.15-2.23-2.41-3.03-3.79
			c-0.24-0.4-0.46-0.89-0.68-1.47c-0.22-0.57-0.4-1.14-0.56-1.69c-0.15-0.56-0.27-1.05-0.35-1.49c-0.08-0.44-0.13-0.72-0.13-0.86
			c0-0.88,0.12-1.61,0.35-2.2c0.24-0.59,0.53-1.06,0.89-1.42c0.35-0.35,0.75-0.6,1.19-0.73c0.44-0.13,0.86-0.2,1.26-0.2
			c1.01,0,1.85,0.19,2.53,0.58c0.67,0.39,1.04,0.99,1.11,1.8c0.13,1.55,0.45,3,0.94,4.35c0.49,1.35,1.22,2.5,2.2,3.44
			c0.98,0.98,2.28,1.78,3.89,2.4c1.62,0.62,3.54,0.94,5.77,0.94c0.54,0,1.17-0.05,1.9-0.15c0.72-0.1,1.46-0.25,2.2-0.46
			c0.74-0.2,1.46-0.44,2.15-0.71c0.69-0.27,1.29-0.57,1.8-0.91c0.81-0.54,1.51-1.18,2.1-1.92c0.59-0.74,1.1-1.52,1.52-2.33
			c0.42-0.81,0.78-1.62,1.06-2.43c0.29-0.81,0.53-1.55,0.73-2.23c0.34-1.01,0.83-1.74,1.47-2.17c0.64-0.44,1.3-0.66,1.97-0.66
			c1.25,0,2.19,0.35,2.83,1.06C1015.23,1633.97,1015.55,1635.1,1015.55,1636.65z"/>
		<path d="M1079.54,1704.88c-1.65,6.07-3.2,14.58-4.65,25.54l-1.42,9.56c-0.24,1.35-0.86,2.69-1.87,4.02c-1.01,1.33-1.94,2-2.78,2
			c-1.04,0-2.23-0.53-3.57-1.59c-1.33-1.06-2-1.91-2-2.55c0-1.85,0.42-4.42,1.26-7.69c6.17-24.92,9.26-46.8,9.26-65.65l-0.05-4.25
			c-0.07-3.64,0.57-6.29,1.92-7.94c1.35-1.65,2.9-2.48,4.65-2.48c0.81,0,1.58,0.63,2.33,1.9c0.74,1.26,1.11,3.06,1.11,5.39
			c0,3.27-0.34,7.23-1.01,11.89c-0.88,5.87-1.33,9.24-1.37,10.12c5.02-8.77,10.35-15.61,15.98-20.54
			c5.63-4.92,10.86-7.38,15.68-7.38c3.41,0,6.28,1.27,8.62,3.82c2.34,2.55,3.52,5.71,3.52,9.48c0,10.99-4.22,20.97-12.65,29.94
			c-8.43,8.97-16.64,13.45-24.63,13.45c-1.99,0-3.57-0.51-4.73-1.52S1080.78,1707.55,1079.54,1704.88z M1110.95,1664.17
			c-4.75,0-10.64,4.45-17.65,13.35c-7.01,8.9-10.52,15.83-10.52,20.79c0,1.21,0.69,2.39,2.07,3.54c1.38,1.15,3.14,1.72,5.26,1.72
			c4.82,0,10.37-3.57,16.64-10.7c6.27-7.13,9.41-14.14,9.41-21.02c0-2.46-0.5-4.36-1.49-5.69
			C1113.67,1664.83,1112.43,1664.17,1110.95,1664.17z"/>
		<path d="M1170.83,1692.34c-4.72,6.34-9.39,11.09-14.01,14.26c-4.62,3.17-8.85,4.75-12.7,4.75c-2.6,0-4.84-1.1-6.73-3.29
			c-1.89-2.19-2.83-5.01-2.83-8.45c0-8.87,3.96-18.42,11.89-28.65c7.92-10.23,15.8-15.35,23.62-15.35c2.83,0,4.94,1.62,6.32,4.86
			c0.44,1.08,1.13,1.62,2.07,1.62c2.7,0,4.05,1.05,4.05,3.14c0,1.05-0.17,2.48-0.51,4.3c-1.82,9.95-2.73,16.96-2.73,21.04
			c0,8.16,1.55,13.05,4.65,14.67c1.48,0.81,2.23,1.8,2.23,2.98c0,1.05-0.73,2.1-2.17,3.16c-1.45,1.06-2.85,1.59-4.2,1.59
			c-2.6,0-4.74-1.79-6.42-5.36C1171.68,1704.04,1170.83,1698.95,1170.83,1692.34z M1167.75,1663.86c-4.45,0-9.63,4.17-15.53,12.52
			s-8.85,15.27-8.85,20.76c0,3.88,1.28,5.82,3.84,5.82c3.71,0,8.85-3.74,15.43-11.23s9.86-14.36,9.86-20.64
			C1172.5,1666.27,1170.92,1663.86,1167.75,1663.86z"/>
		<path d="M1227.28,1658.2c-1.28-3.47-4.25-7.23-8.9-11.28c-4.38-3.78-6.58-7.01-6.58-9.71c0-2.16,0.71-3.9,2.13-5.23
			c1.42-1.33,4.05-2.54,7.89-3.62c4.79-1.31,9.66-2.81,14.62-4.48c4.96-1.67,7.94-2.74,8.95-3.21c0.64-0.3,1.3-0.46,1.97-0.46
			c1.11,0,1.67,0.99,1.67,2.98c0,1.11-1.35,2.63-4.05,4.55c-2.7,1.92-7.47,3.71-14.31,5.36c-4.32,1.08-6.95,1.88-7.92,2.4
			c-0.96,0.52-1.44,1.05-1.44,1.59c0,1.21,1.31,2.97,3.94,5.26c9.91,8.67,14.87,19.54,14.87,32.62c0,5.63-1.48,11.66-4.45,18.08
			c-2.97,6.42-6.92,11.2-11.86,14.34c-4.94,3.14-9.77,4.7-14.49,4.7c-4.25,0-7.47-2.07-9.66-6.22c-2.19-4.15-3.29-8.72-3.29-13.71
			c0-8.83,2.72-17.16,8.17-24.99c5.45-7.82,11.2-11.73,17.27-11.73c0.81,0,1.82,0.52,3.03,1.57
			C1225.97,1658.05,1226.77,1658.43,1227.28,1658.2z M1205.23,1692.39c0,3.74,0.5,6.68,1.49,8.8c0.99,2.12,2.3,3.19,3.92,3.19
			c2.16,0,5.07-1.33,8.75-4c3.68-2.66,6.63-6.61,8.88-11.84c2.24-5.23,3.36-10.12,3.36-14.67c0-3.78-0.53-6.84-1.59-9.18
			c-1.06-2.34-2.05-3.52-2.96-3.52c-6,0-11.14,3.66-15.43,10.98C1207.37,1679.48,1205.23,1686.22,1205.23,1692.39z"/>
		<path d="M1265.72,1713.28c-4.62,0-8.43-1.75-11.43-5.26c-3-3.51-4.5-7.84-4.5-13c0-8.7,2.92-17.27,8.78-25.72
			c5.85-8.45,12.85-12.67,21.02-12.67c5.39,0,9.77,2.07,13.13,6.22s5.03,9.09,5.03,14.82c0,8.77-3.46,16.89-10.39,24.38
			S1273.21,1713.28,1265.72,1713.28z M1258.69,1693.7c0,3.41,0.72,6.19,2.15,8.35c1.43,2.16,3.33,3.24,5.69,3.24
			c5.02,0,10.07-2.76,15.12-8.27c5.06-5.51,7.59-11.64,7.59-18.39c0-4.15-0.97-7.51-2.91-10.09c-1.94-2.58-4.54-3.87-7.81-3.87
			c-5.43,0-10.09,3.33-13.99,9.99C1260.64,1681.32,1258.69,1687.67,1258.69,1693.7z"/>
		<path d="M1345.33,1680.91c-5.26,4.59-10.45,8.23-15.58,10.93c-5.13,2.7-8.99,4.05-11.58,4.05c-3.34,0-5.89-1.39-7.66-4.17
			c-1.77-2.78-2.66-6.03-2.66-9.74c0-4.99,0.88-10.55,2.63-16.67c1.75-6.12,4.75-9.18,9-9.18c0.94,0,1.72,0.56,2.33,1.67
			c0.61,1.11,0.91,2.38,0.91,3.79c0,1.85-0.91,4.35-2.73,7.49c-2.36,4.01-3.54,7.44-3.54,10.27c0,1.65,0.29,3.27,0.89,4.86
			c0.59,1.58,1.61,2.38,3.06,2.38c3.64,0,8.24-1.85,13.78-5.54c5.55-3.69,8.96-6.93,10.24-9.71c1.28-2.78,1.92-4.93,1.92-6.45
			c0-0.67-0.07-1.31-0.2-1.92s-0.2-1.25-0.2-1.92c0-1.25,0.42-2.71,1.26-4.38c0.84-1.67,1.97-2.5,3.39-2.5
			c1.72,0,2.92,0.39,3.59,1.16c0.67,0.78,1.01,2.7,1.01,5.77c0,1.92-0.3,6.15-0.91,12.7c-0.13,1.45-0.22,2.82-0.25,4.1
			c-0.24,4.28-0.97,10.55-2.2,18.82c-1.23,8.26-2.2,12.9-2.91,13.91s-1.7,1.52-2.98,1.52c-3.2,0-4.8-1.03-4.8-3.09
			c0-1.04,0.15-1.97,0.46-2.78C1342.06,1705.03,1343.31,1696.59,1345.33,1680.91z"/>
		<path d="M1401.17,1688.75c-4.32,7.25-8.73,12.86-13.25,16.84c-4.52,3.98-8.72,5.97-12.59,5.97c-2.23,0-4.49-1.3-6.8-3.89
			c-2.31-2.6-3.46-6.59-3.46-11.99c0-4.42,1.06-10.93,3.19-19.52c1.79-7.18,2.68-12.22,2.68-15.12c0.98-2.02,2.51-3.04,4.6-3.04
			c1.42,0,2.55,0.5,3.39,1.49c0.84,1,1.26,2.03,1.26,3.11c0,2.36-0.83,5.72-2.48,10.07c-3.14,8.46-4.7,15.73-4.7,21.8
			c0,5.53,1.28,8.29,3.84,8.29c3.27,0,7.44-2.78,12.49-8.35c5.06-5.56,9.39-13.32,13-23.27c1.42-3.98,2.57-6.57,3.46-7.76
			c0.89-1.2,2.1-1.8,3.62-1.8c2.29,0,3.44,1.52,3.44,4.55c0,0.37-0.32,1.6-0.96,3.69c-2.02,7.38-3.03,14.36-3.03,20.94
			c0,7.89,1.3,13,3.89,15.33c1.35,1.25,2.02,2.26,2.02,3.03c0,0.94-0.68,1.8-2.05,2.58c-1.37,0.78-2.61,1.16-3.72,1.16
			c-2.36,0-4.27-1.75-5.72-5.26c-1.45-3.51-2.17-8.68-2.17-15.53v-1.67C1401.12,1689.88,1401.14,1689.32,1401.17,1688.75z"/>
		<path d="M1464.35,1688.75c-4.32,7.25-8.73,12.86-13.25,16.84c-4.52,3.98-8.72,5.97-12.59,5.97c-2.23,0-4.49-1.3-6.8-3.89
			c-2.31-2.6-3.46-6.59-3.46-11.99c0-4.42,1.06-10.93,3.19-19.52c1.79-7.18,2.68-12.22,2.68-15.12c0.98-2.02,2.51-3.04,4.6-3.04
			c1.42,0,2.55,0.5,3.39,1.49c0.84,1,1.26,2.03,1.26,3.11c0,2.36-0.83,5.72-2.48,10.07c-3.14,8.46-4.7,15.73-4.7,21.8
			c0,5.53,1.28,8.29,3.84,8.29c3.27,0,7.44-2.78,12.49-8.35c5.06-5.56,9.39-13.32,13-23.27c1.42-3.98,2.57-6.57,3.46-7.76
			c0.89-1.2,2.1-1.8,3.62-1.8c2.29,0,3.44,1.52,3.44,4.55c0,0.37-0.32,1.6-0.96,3.69c-2.02,7.38-3.03,14.36-3.03,20.94
			c0,7.89,1.3,13,3.89,15.33c1.35,1.25,2.02,2.26,2.02,3.03c0,0.94-0.68,1.8-2.05,2.58c-1.37,0.78-2.61,1.16-3.72,1.16
			c-2.36,0-4.27-1.75-5.72-5.26c-1.45-3.51-2.17-8.68-2.17-15.53v-1.67C1464.3,1689.88,1464.31,1689.32,1464.35,1688.75z
			 M1479.02,1636.65c0,0.61-0.18,1.41-0.53,2.4c-0.35,1-0.85,2.03-1.49,3.11s-1.42,2.16-2.33,3.24c-0.91,1.08-1.94,2.01-3.09,2.78
			c-0.81,0.57-1.78,1.1-2.91,1.59c-1.13,0.49-2.32,0.9-3.57,1.24c-1.25,0.34-2.52,0.6-3.82,0.78c-1.3,0.19-2.54,0.28-3.72,0.28
			c-1.92,0-3.78-0.23-5.56-0.68c-1.79-0.46-3.44-1.1-4.96-1.92c-1.52-0.83-2.88-1.81-4.1-2.96c-1.21-1.15-2.23-2.41-3.03-3.79
			c-0.24-0.4-0.46-0.89-0.68-1.47c-0.22-0.57-0.4-1.14-0.56-1.69c-0.15-0.56-0.27-1.05-0.35-1.49c-0.08-0.44-0.13-0.72-0.13-0.86
			c0-0.88,0.12-1.61,0.35-2.2c0.24-0.59,0.53-1.06,0.89-1.42c0.35-0.35,0.75-0.6,1.19-0.73c0.44-0.13,0.86-0.2,1.26-0.2
			c1.01,0,1.85,0.19,2.53,0.58c0.67,0.39,1.04,0.99,1.11,1.8c0.13,1.55,0.45,3,0.94,4.35c0.49,1.35,1.22,2.5,2.2,3.44
			c0.98,0.98,2.28,1.78,3.89,2.4c1.62,0.62,3.54,0.94,5.77,0.94c0.54,0,1.17-0.05,1.9-0.15c0.72-0.1,1.46-0.25,2.2-0.46
			c0.74-0.2,1.46-0.44,2.15-0.71c0.69-0.27,1.29-0.57,1.8-0.91c0.81-0.54,1.51-1.18,2.1-1.92c0.59-0.74,1.1-1.52,1.52-2.33
			c0.42-0.81,0.78-1.62,1.06-2.43c0.29-0.81,0.53-1.55,0.73-2.23c0.34-1.01,0.83-1.74,1.47-2.17c0.64-0.44,1.3-0.66,1.97-0.66
			c1.25,0,2.19,0.35,2.83,1.06C1478.69,1633.97,1479.02,1635.1,1479.02,1636.65z"/>
		<path class="st21" d="M758.6,1770.01v-0.87c0-2.58,0.24-4.79,0.72-6.64s1.42-4.29,2.8-7.33c1.88-4.05,3.26-6.62,4.16-7.71
			c0.4-0.51,1.91-1.95,4.52-4.31c1.6-1.46,2.79-2.35,3.58-2.7c0.79-0.34,1.43-0.51,1.92-0.51c0.75,0,1.13,0.46,1.13,1.37
			c0,0.6-1.26,2.1-3.79,4.52c-3.42,3.21-6.18,6.97-8.29,11.28s-3.16,8.07-3.16,11.26c0,1.53,0.43,4.47,1.29,8.84
			c0.11,0.54,0.17,0.96,0.21,1.24c0.58,2.84,1.26,4.97,2.05,6.39c0.79,1.42,2.04,2.88,3.76,4.37c1.88,1.61,2.81,2.88,2.81,3.79
			c0,1.02-0.86,1.53-2.58,1.53c-1.05,0-2.28-0.8-3.7-2.39c-1.41-1.6-2.68-3.24-3.81-4.93c-1.13-1.69-2.02-4.48-2.67-8.36
			C758.92,1774.95,758.6,1772.01,758.6,1770.01z"/>
		<path class="st21" d="M796.65,1759.75c-0.42-0.02-0.83,0.39-1.24,1.21c-3.63,7.26-6.37,12.19-8.23,14.78
			c-0.16,0.23-0.36,0.56-0.61,1c-2.19,3.91-3.8,5.87-4.81,5.87c-1.37,0-2.05-0.66-2.05-1.97c0-1.19,0.85-2.81,2.55-4.87
			c1.65-1.95,3.81-5.25,6.5-9.9c2.68-4.66,4.86-8.83,6.52-12.53c0.32-0.67,0.79-1,1.42-1c0.26,0,0.73,0.12,1.41,0.35
			s1.11,0.5,1.3,0.78c0.19,0.28,0.62,1.91,1.29,4.89c2.16,10.75,4.43,17.12,6.81,19.12c0.56,0.49,0.89,0.82,1,0.99
			c0.11,0.17,0.16,0.4,0.16,0.7c0,0.54-0.18,1.04-0.53,1.49c-0.35,0.45-0.69,0.73-1.03,0.85c-0.33,0.12-1.02,0.18-2.05,0.18
			c-0.37,0-1.23-0.91-2.58-2.72c-1.35-1.81-2.93-6.76-4.73-14.85C797.32,1761.95,796.95,1760.49,796.65,1759.75z"/>
		<path class="st21" d="M821.75,1782.5c-2.4,0-4.38-0.91-5.94-2.74c-1.56-1.82-2.34-4.08-2.34-6.76c0-4.52,1.52-8.98,4.56-13.37
			c3.04-4.39,6.69-6.59,10.93-6.59c2.81,0,5.08,1.08,6.83,3.23c1.74,2.16,2.62,4.73,2.62,7.71c0,4.56-1.8,8.78-5.41,12.68
			S825.64,1782.5,821.75,1782.5z M818.09,1772.33c0,1.77,0.37,3.22,1.12,4.34c0.75,1.12,1.73,1.68,2.96,1.68
			c2.61,0,5.23-1.43,7.86-4.3c2.63-2.87,3.95-6.05,3.95-9.56c0-2.16-0.5-3.91-1.51-5.25c-1.01-1.34-2.36-2.01-4.06-2.01
			c-2.82,0-5.25,1.73-7.27,5.19C819.1,1765.89,818.09,1769.19,818.09,1772.33z"/>
		<path class="st21" d="M860.78,1754.39c3.98,1.61,5.97,5.44,5.97,11.47c0,4.52-1.41,8.48-4.23,11.86
			c-2.82,3.38-5.89,5.08-9.21,5.08c-2.96,0-5.27-1.17-6.92-3.52s-2.47-5.79-2.47-10.31c0-5.45,0.96-10.97,2.88-16.56
			c1.92-5.58,4.31-9.8,7.18-12.65c2.87-2.85,5.76-4.27,8.69-4.27c1.77,0,3.2,0.58,4.27,1.75c1.08,1.17,1.62,2.78,1.62,4.85
			c0,1.65-0.71,3.6-2.14,5.87C864.99,1750.21,863.11,1752.35,860.78,1754.39z M861.93,1766.59c0-2.61-0.48-4.72-1.45-6.31
			c-0.96-1.6-2.03-2.39-3.21-2.39c-0.35,0-2.31,1.35-5.87,4.05c-0.91,0.7-1.8,1.35-2.66,1.95c-0.26,1.51-0.39,3.17-0.39,4.97
			c0,3.19,0.48,5.59,1.43,7.21c0.96,1.61,2.28,2.42,3.96,2.42c2.35,0,4.3-1.23,5.85-3.7s2.33-5.18,2.33-8.14V1766.59z
			 M849.36,1759.18c6.75-5.21,10.92-8.93,12.52-11.17c1.59-2.24,2.39-3.99,2.39-5.27c0-2.05-0.83-3.08-2.47-3.08
			c-2.3,0-4.61,1.73-6.93,5.18C852.55,1748.3,850.71,1753.07,849.36,1759.18z"/>
		<path class="st21" d="M890.66,1769.75c-2.25,3.77-4.54,6.69-6.89,8.76s-4.53,3.1-6.55,3.1c-1.16,0-2.34-0.67-3.54-2.03
			c-1.2-1.35-1.8-3.43-1.8-6.23c0-2.3,0.55-5.68,1.66-10.15c0.93-3.73,1.39-6.36,1.39-7.86c0.51-1.05,1.31-1.58,2.39-1.58
			c0.74,0,1.32,0.26,1.76,0.78c0.44,0.52,0.66,1.06,0.66,1.62c0,1.23-0.43,2.97-1.29,5.23c-1.63,4.4-2.45,8.18-2.45,11.34
			c0,2.88,0.67,4.31,2,4.31c1.7,0,3.87-1.45,6.5-4.34c2.63-2.89,4.88-6.93,6.76-12.1c0.74-2.07,1.34-3.41,1.8-4.04
			c0.46-0.62,1.09-0.93,1.88-0.93c1.19,0,1.79,0.79,1.79,2.37c0,0.19-0.17,0.83-0.5,1.92c-1.05,3.84-1.58,7.47-1.58,10.89
			c0,4.1,0.67,6.76,2.03,7.97c0.7,0.65,1.05,1.18,1.05,1.58c0,0.49-0.35,0.94-1.06,1.34c-0.71,0.4-1.35,0.6-1.93,0.6
			c-1.23,0-2.22-0.91-2.97-2.74c-0.75-1.82-1.13-4.51-1.13-8.07v-0.87C890.63,1770.34,890.64,1770.05,890.66,1769.75z"/>
		<path class="st21" d="M944.39,1760.96c-0.91,0-1.91,0.6-2.99,1.79c-1.08,1.19-2.72,3.87-4.93,8.02c-2.91,5.58-4.79,8.75-5.64,9.52
			s-1.56,1.16-2.12,1.16c-2.07,0-3.1-1-3.1-3c0-0.84,0.14-2.03,0.42-3.58c0.96-5.29,1.45-10.88,1.45-16.75
			c0-0.67,0.29-1.41,0.86-2.22c0.57-0.81,1.11-1.22,1.62-1.22c0.91,0,1.56,0.28,1.95,0.84c0.39,0.56,0.58,1.69,0.58,3.39
			c0,1.77-0.53,5.42-1.58,10.94c-0.35,1.82-0.53,2.98-0.53,3.47c0,0.28,0.07,0.42,0.21,0.42c0.26,0,1.48-2.1,3.66-6.29
			c2.19-4.26,4.11-7.26,5.76-9c1.65-1.74,3.46-2.6,5.45-2.6c1.58,0,2.86,0.72,3.85,2.16c0.99,1.44,1.71,4.06,2.17,7.86
			c0.49,4.33,0.93,7.03,1.33,8.09c0.39,1.06,1.02,1.59,1.88,1.59c0.54,0,1.23-0.19,2.05-0.58c0.14-0.07,0.25-0.11,0.32-0.11
			c0.75,0,1.13,0.44,1.13,1.32c0,0.77-0.52,1.59-1.55,2.46c-1.04,0.87-2.28,1.3-3.74,1.3c-1.49,0-2.64-0.59-3.46-1.78
			s-1.46-4.34-1.93-9.48C947,1763.54,945.97,1760.96,944.39,1760.96z"/>
		<path class="st21" d="M969.88,1782.5c-2.4,0-4.38-0.91-5.94-2.74c-1.56-1.82-2.34-4.08-2.34-6.76c0-4.52,1.52-8.98,4.56-13.37
			c3.04-4.39,6.69-6.59,10.93-6.59c2.81,0,5.08,1.08,6.83,3.23c1.74,2.16,2.62,4.73,2.62,7.71c0,4.56-1.8,8.78-5.41,12.68
			S973.77,1782.5,969.88,1782.5z M966.22,1772.33c0,1.77,0.37,3.22,1.12,4.34c0.75,1.12,1.73,1.68,2.96,1.68
			c2.61,0,5.23-1.43,7.86-4.3c2.63-2.87,3.95-6.05,3.95-9.56c0-2.16-0.5-3.91-1.51-5.25c-1.01-1.34-2.36-2.01-4.06-2.01
			c-2.82,0-5.25,1.73-7.27,5.19C967.23,1765.89,966.22,1769.19,966.22,1772.33z"/>
		<path class="st21" d="M1012.67,1750.57c-0.63-2.74-1.41-4.65-2.34-5.73c-0.93-1.09-2.16-1.93-3.68-2.52
			c-1.53-0.6-2.9-0.89-4.13-0.89c-0.47,0-1.17,0.18-2.09,0.54c-0.92,0.36-1.63,0.69-2.12,0.99c-0.68,0.4-1.32,0.6-1.89,0.6
			c-0.67,0-1-0.35-1-1.05c0-0.75,0.57-1.8,1.71-3.13c1.14-1.33,3.15-2,6.02-2h1.13c2.86,0,5.38,0.75,7.58,2.25
			c2.19,1.5,3.75,3.64,4.67,6.43c0.92,2.79,1.38,6.53,1.38,11.23c0,3.19-1.01,7.06-3.02,11.6c-2.02,4.54-4.58,7.98-7.69,10.31
			c-3.11,2.33-6.42,3.5-9.93,3.5c-1.26,0-2.45-0.73-3.55-2.18c-1.1-1.46-1.66-3.26-1.66-5.42c0-3.98,0.87-7.49,2.62-10.53
			c1.75-3.04,3.7-5.51,5.87-7.4c2.17-1.89,5.16-3.42,8.98-4.58c1.26-0.37,2.12-0.66,2.58-0.87S1012.74,1751.12,1012.67,1750.57z
			 M1013.38,1755.94c-4.05,0.82-7.15,2.13-9.31,3.92c-4.88,4.56-7.31,9.67-7.31,15.33c0,0.75,0.13,1.46,0.39,2.12
			c0.26,0.66,0.56,0.99,0.89,0.99c1.3,0,2.48-0.23,3.55-0.68c1.07-0.46,2.38-1.41,3.92-2.85s2.94-3.24,4.2-5.38
			c1.25-2.14,2.17-4.2,2.74-6.18c0.57-1.98,0.87-3.5,0.91-4.56C1013.39,1757.58,1013.4,1756.68,1013.38,1755.94z"/>
		<path class="st21" d="M1038.79,1771.62c-2.46,3.3-4.88,5.77-7.29,7.42c-2.4,1.65-4.6,2.47-6.6,2.47c-1.35,0-2.52-0.57-3.5-1.71
			c-0.98-1.14-1.47-2.6-1.47-4.39c0-4.61,2.06-9.58,6.18-14.9c4.12-5.32,8.21-7.98,12.28-7.98c1.47,0,2.57,0.84,3.29,2.52
			c0.23,0.56,0.59,0.84,1.08,0.84c1.4,0,2.1,0.54,2.1,1.63c0,0.54-0.09,1.29-0.26,2.24c-0.95,5.17-1.42,8.82-1.42,10.94
			c0,4.24,0.81,6.79,2.42,7.63c0.77,0.42,1.16,0.94,1.16,1.55c0,0.54-0.38,1.09-1.13,1.64s-1.48,0.83-2.18,0.83
			c-1.35,0-2.46-0.93-3.34-2.79S1038.79,1775.05,1038.79,1771.62z M1037.18,1756.81c-2.31,0-5.01,2.17-8.08,6.51
			c-3.07,4.34-4.6,7.94-4.6,10.8c0,2.02,0.67,3.02,2,3.02c1.93,0,4.6-1.95,8.02-5.84c3.42-3.89,5.13-7.47,5.13-10.73
			C1039.65,1758.06,1038.83,1756.81,1037.18,1756.81z"/>
		<path class="st21" d="M1057.75,1778.14c-0.86,3.16-1.67,7.58-2.42,13.28l-0.74,4.97c-0.12,0.7-0.45,1.4-0.97,2.09
			c-0.53,0.69-1.01,1.04-1.45,1.04c-0.54,0-1.16-0.28-1.85-0.83c-0.69-0.55-1.04-1-1.04-1.33c0-0.96,0.22-2.3,0.66-4
			c3.21-12.96,4.81-24.34,4.81-34.14l-0.03-2.21c-0.04-1.89,0.3-3.27,1-4.13c0.7-0.86,1.51-1.29,2.42-1.29
			c0.42,0,0.82,0.33,1.21,0.99c0.39,0.66,0.58,1.59,0.58,2.8c0,1.7-0.17,3.76-0.53,6.18c-0.46,3.05-0.69,4.8-0.71,5.26
			c2.61-4.56,5.38-8.12,8.31-10.68c2.93-2.56,5.65-3.84,8.15-3.84c1.77,0,3.26,0.66,4.48,1.99c1.22,1.32,1.83,2.97,1.83,4.93
			c0,5.72-2.19,10.91-6.58,15.57s-8.65,7-12.81,7c-1.04,0-1.85-0.26-2.46-0.79C1059.02,1780.48,1058.4,1779.52,1057.75,1778.14z
			 M1074.08,1756.97c-2.47,0-5.53,2.31-9.18,6.94c-3.65,4.63-5.47,8.23-5.47,10.81c0,0.63,0.36,1.25,1.08,1.84s1.63,0.89,2.74,0.89
			c2.51,0,5.39-1.85,8.65-5.56s4.89-7.35,4.89-10.93c0-1.28-0.26-2.27-0.78-2.96C1075.5,1757.31,1074.85,1756.97,1074.08,1756.97z"
			/>
		<path class="st21" d="M1095.18,1782.5c-2.4,0-4.38-0.91-5.94-2.74c-1.56-1.82-2.34-4.08-2.34-6.76c0-4.52,1.52-8.98,4.56-13.37
			c3.04-4.39,6.69-6.59,10.93-6.59c2.81,0,5.08,1.08,6.83,3.23c1.74,2.16,2.62,4.73,2.62,7.71c0,4.56-1.8,8.78-5.41,12.68
			S1099.07,1782.5,1095.18,1782.5z M1091.52,1772.33c0,1.77,0.37,3.22,1.12,4.34c0.75,1.12,1.73,1.68,2.96,1.68
			c2.61,0,5.23-1.43,7.86-4.3c2.63-2.87,3.95-6.05,3.95-9.56c0-2.16-0.5-3.91-1.51-5.25c-1.01-1.34-2.36-2.01-4.06-2.01
			c-2.82,0-5.25,1.73-7.27,5.19C1092.53,1765.89,1091.52,1769.19,1091.52,1772.33z"/>
		<path class="st21" d="M1136.57,1765.67c-2.74,2.38-5.44,4.28-8.1,5.68c-2.67,1.4-4.67,2.1-6.02,2.1c-1.74,0-3.06-0.72-3.99-2.17
			c-0.92-1.45-1.38-3.13-1.38-5.06c0-2.6,0.46-5.48,1.37-8.67c0.91-3.18,2.47-4.77,4.68-4.77c0.49,0,0.89,0.29,1.21,0.87
			s0.47,1.24,0.47,1.97c0,0.96-0.47,2.26-1.42,3.89c-1.23,2.09-1.84,3.87-1.84,5.34c0,0.86,0.15,1.7,0.46,2.52s0.84,1.24,1.59,1.24
			c1.89,0,4.28-0.96,7.17-2.88c2.88-1.92,4.66-3.6,5.33-5.05c0.67-1.45,1-2.56,1-3.35c0-0.35-0.04-0.68-0.11-1
			c-0.07-0.32-0.1-0.65-0.1-1c0-0.65,0.22-1.41,0.66-2.27c0.44-0.87,1.03-1.3,1.76-1.3c0.89,0,1.52,0.2,1.87,0.6
			c0.35,0.4,0.53,1.4,0.53,3c0,1-0.16,3.2-0.47,6.6c-0.07,0.75-0.11,1.46-0.13,2.13c-0.12,2.23-0.5,5.49-1.14,9.78
			c-0.64,4.3-1.14,6.71-1.51,7.23c-0.37,0.53-0.89,0.79-1.55,0.79c-1.67,0-2.5-0.53-2.5-1.6c0-0.54,0.08-1.03,0.24-1.45
			C1134.87,1778.22,1135.52,1773.83,1136.57,1765.67z"/>
		<path class="st21" d="M1169.56,1772.27c0,1.79-1.58,3.94-4.75,6.47c-3.17,2.52-6.43,3.79-9.8,3.79c-2.82,0-5-0.83-6.54-2.5
			s-2.3-3.99-2.3-6.97c0-5.01,1.69-9.78,5.08-14.31s7.08-6.79,11.1-6.79c1.32,0,2.39,0.43,3.22,1.29c0.83,0.86,1.25,1.89,1.25,3.1
			c0,2.7-1.32,5.29-3.97,7.76c-2.65,2.47-6.19,4.9-10.63,7.29c-0.91,0.47-1.37,1.09-1.37,1.84c0,1.46,0.42,2.62,1.26,3.5
			c0.84,0.88,2.09,1.31,3.74,1.31c3.77,0,7.62-2.09,11.55-6.26c0.58-0.58,1.02-0.87,1.32-0.87
			C1169.28,1770.93,1169.56,1771.38,1169.56,1772.27z M1151.28,1768.17c7.43-4.42,11.15-7.97,11.15-10.65
			c0-1.05-0.47-1.58-1.42-1.58c-1.61,0-3.43,1.18-5.46,3.55S1152.1,1764.75,1151.28,1768.17z"/>
		<path class="st21" d="M1180.39,1767.35c4.16-0.72,7.88-3.4,11.18-8.05c1.54-2.16,2.9-3.69,4.06-4.59c1.17-0.9,2.41-1.35,3.72-1.35
			c0.53,0,1.05,0.24,1.58,0.71c0.53,0.47,0.79,1.03,0.79,1.68c0,0.86-0.82,1.53-2.45,2.03c-0.86,0.26-1.67,0.71-2.42,1.34
			s-2.18,2.14-4.29,4.52c-1.65,1.86-3.13,3.17-4.44,3.92c-0.12,0.07-0.18,0.13-0.18,0.18c0,0.07,0.08,0.14,0.24,0.21
			c1.28,0.68,2.63,2.01,4.05,3.97c2.07,2.86,3.62,4.66,4.66,5.41s2.22,1.12,3.55,1.12l0.87-0.03c0.61-0.03,0.92,0.24,0.92,0.82
			c0,0.67-0.38,1.36-1.13,2.08s-2,1.08-3.73,1.08c-1.33,0-2.63-0.57-3.88-1.72c-1.25-1.15-2.69-3.01-4.3-5.59
			c-0.93-1.53-1.8-2.68-2.6-3.47c-0.81-0.79-1.7-1.18-2.68-1.18c-0.21,0-0.86,0.18-1.95,0.53c-1.09,0.35-1.7,0.69-1.83,1.01
			c-0.13,0.32-0.23,1.49-0.29,3.5c-0.06,2.01-0.09,3.63-0.09,4.85c0,0.65-0.31,1.23-0.92,1.74c-0.61,0.51-1.28,0.76-2,0.76
			c-0.74,0-1.32-0.22-1.74-0.64c-0.42-0.43-0.63-0.87-0.63-1.33c0-0.63,0.24-2.12,0.71-4.47c0.84-4.28,1.68-11.34,2.52-21.17
			c0.07-0.95,0.43-1.8,1.08-2.56c0.65-0.76,1.38-1.14,2.21-1.14c0.46,0,0.84,0.25,1.14,0.74c0.31,0.49,0.46,1.12,0.46,1.89
			c0,0.61-0.11,1.32-0.32,2.1C1181.26,1759.86,1180.64,1763.57,1180.39,1767.35z"/>
		<path class="st21" d="M1208.11,1794.55c-0.58,0-1.12-0.19-1.62-0.57c-0.5-0.38-0.75-0.77-0.75-1.17c0-0.35,0.14-0.79,0.43-1.31
			c0.29-0.53,1.28-1.85,2.96-3.97c1.19-1.44,2.51-4.02,3.96-7.76c1.45-3.73,2.17-6.04,2.17-6.92c0-5.61-0.79-10.61-2.37-14.99
			c-1.58-4.38-2.97-7.55-4.18-9.51c-1.21-1.96-2.97-3.98-5.29-6.09c-0.21-0.21-0.32-0.57-0.32-1.08c0-0.26,0.25-0.61,0.76-1.05
			c0.51-0.44,1.03-0.66,1.55-0.66c0.77,0,1.61,0.5,2.51,1.49s2.28,2.89,4.12,5.71c1.84,2.81,2.99,5,3.45,6.56
			c0.46,1.49,0.93,2.95,1.42,4.37c1.42,4.14,2.13,8.56,2.13,13.26c0,6.38-2.17,12.36-6.5,17.94c-0.74,0.98-1.26,1.77-1.58,2.37
			c-0.54,1.05-1.03,1.88-1.45,2.49C1209.11,1794.25,1208.64,1794.55,1208.11,1794.55z"/>
	</g>
</g>
<g id="Слой_2">
	<g id="Favorite">
	</g>
</g>
<g id="Слой_4">
</g>
</svg>
