<?xml version="1.0" encoding="utf-8"?>
<!-- Generator: Adobe Illustrator 23.1.0, SVG Export Plug-In . SVG Version: 6.00 Build 0)  -->
<svg version="1.1" xmlns="http://www.w3.org/2000/svg" xmlns:xlink="http://www.w3.org/1999/xlink" x="0px" y="0px"
	 viewBox="0 0 1920.45 2194.37" style="enable-background:new 0 0 1920.45 2194.37;" xml:space="preserve">
<style type="text/css">
	.st0{opacity:0.87;fill:url(#SVGID_1_);}
	.st1{fill:#33DEA7;}
	.st2{fill:#4890F1;}
	.st3{fill:#0B59C7;}
	.st4{fill:#1A328C;}
	.st5{fill:#367FE1;}
	.st6{fill:#FFFFFF;}
	.st7{fill:none;stroke:#FF1800;stroke-miterlimit:10;}
	.st8{fill:none;stroke:#4890F1;stroke-width:2.4807;stroke-miterlimit:10;}
	.st9{fill:none;stroke:#0B59C7;stroke-width:1.6033;stroke-miterlimit:10;}
	.st10{display:none;}
	.st11{display:inline;fill:none;stroke:#000000;stroke-miterlimit:10;}
	.st12{fill:#CFE2FF;}
	.st13{fill:none;stroke:#34E2AA;stroke-miterlimit:10;}
	.st14{fill:none;stroke:#34E2AA;stroke-width:0.9838;stroke-miterlimit:10;}
	.st15{fill:#34E2AA;fill-opacity:0.12;stroke:#34E2AA;stroke-miterlimit:10;}
	.st16{fill:#1B3390;}
	.st17{fill:#34E2AA;stroke:#1B3390;stroke-miterlimit:10;}
	.st18{fill:#FF8B2B;}
	.st19{opacity:0.5;fill:#4992F5;}
	.st20{fill:#4992F5;}
	.st21{fill:#0B5BCB;}
	.st22{fill:#ADD2FF;}
	.st23{fill:#2EC897;}
	.st24{fill:none;stroke:#4992F5;stroke-width:0.6143;stroke-miterlimit:10;}
	.st25{fill:none;stroke:#4992F5;stroke-width:0.4924;stroke-miterlimit:10;}
	.st26{fill:none;stroke:#4992F5;stroke-width:5;stroke-miterlimit:10;}
	.st27{fill:none;stroke:#0B5BCB;stroke-width:2.2717;stroke-miterlimit:10;}
	.st28{fill:#6078D5;}
	.st29{fill:#FFB87D;}
	.st30{fill:none;stroke:#284DD8;stroke-width:2.678;stroke-miterlimit:10;}
	.st31{fill:none;stroke:#34E2AA;stroke-width:6.3211;stroke-miterlimit:10;}
	.st32{fill:none;stroke:#4992F5;stroke-width:6.3211;stroke-miterlimit:10;}
	.st33{fill:none;stroke:#0B5BCB;stroke-width:2;stroke-miterlimit:10;}
	.st34{fill:#FFEBC9;}
	.st35{fill:#8CA4FB;stroke:#1B3390;stroke-width:1.8878;stroke-miterlimit:10;}
	.st36{fill:none;stroke:#1B3390;stroke-width:2;stroke-miterlimit:10;}
	.st37{fill:none;stroke:#34E2AA;stroke-width:1.8878;stroke-linecap:round;stroke-miterlimit:10;}
	.st38{fill:none;stroke:#34E2AA;stroke-width:1.8878;stroke-linecap:round;stroke-linejoin:round;stroke-miterlimit:10;}
	.st39{clip-path:url(#SVGID_5_);}
	.st40{fill:none;stroke:#F98600;stroke-width:15.7313;stroke-linecap:round;stroke-linejoin:round;stroke-miterlimit:10;}
	.st41{fill:none;stroke:#1B3390;stroke-width:3.7755;stroke-linecap:round;stroke-linejoin:round;stroke-miterlimit:10;}
	.st42{fill:#0B5BCB;stroke:#1B3390;stroke-width:1.7785;stroke-miterlimit:10;}
	.st43{fill:none;stroke:#1B3390;stroke-width:1.7785;stroke-linecap:round;stroke-miterlimit:10;}
	.st44{fill:none;stroke:#1B3390;stroke-width:1.7785;stroke-linecap:round;stroke-linejoin:round;stroke-miterlimit:10;}
	.st45{clip-path:url(#SVGID_7_);fill:none;stroke:#5FECBF;stroke-width:29.6424;stroke-linecap:round;stroke-miterlimit:10;}
	.st46{fill:none;stroke:#1B3390;stroke-width:1.7785;stroke-miterlimit:10;}
	.st47{fill:#34E2AA;stroke:#1B3390;stroke-width:1.1636;stroke-miterlimit:10;}
	.st48{fill:#94FFCC;stroke:#1B3390;stroke-width:1.1636;stroke-linecap:round;stroke-miterlimit:10;}
	.st49{fill:#94FFCC;stroke:#1B3390;stroke-width:1.1636;stroke-linecap:round;stroke-linejoin:round;stroke-miterlimit:10;}
	.st50{fill:#FFB87D;stroke:#1B3390;stroke-width:1.1636;stroke-miterlimit:10;}
	.st51{fill:#4992F5;stroke:#1B3390;stroke-width:1.1636;stroke-linecap:round;stroke-miterlimit:10;}
	.st52{fill:#4992F5;stroke:#1B3390;stroke-width:1.1636;stroke-linecap:round;stroke-linejoin:round;stroke-miterlimit:10;}
	.st53{fill:#FFB87D;stroke:#1B3390;stroke-width:1.1636;stroke-linecap:round;stroke-miterlimit:10;}
	.st54{fill:#FFB87D;stroke:#1B3390;stroke-width:1.1636;stroke-linecap:round;stroke-linejoin:round;stroke-miterlimit:10;}
	.st55{opacity:0.8;fill:#DBE2FF;}
	.st56{opacity:0.8;fill:#B3C2FF;}
	.st57{opacity:0.8;fill:#FFF3E8;}
	.st58{opacity:0.8;fill:#D6FFF9;}
	.st59{fill:#0C65DF;stroke:#1B3390;stroke-width:0.764;stroke-linecap:round;stroke-linejoin:round;stroke-miterlimit:10;}
	.st60{fill:#0C65DF;stroke:#1B3390;stroke-width:0.764;stroke-miterlimit:10;}
	.st61{fill:#0C65DF;stroke:#1B3390;stroke-width:0.764;stroke-linecap:round;stroke-miterlimit:10;}
	.st62{opacity:0.8;fill:#A1C9FF;}
	.st63{fill:none;stroke:#0B5BCB;stroke-width:1.87;stroke-miterlimit:10;}
	.st64{fill:#4992F5;stroke:#1B3390;stroke-width:2.4753;stroke-miterlimit:10;}
	.st65{fill:none;stroke:#1B3390;stroke-width:2.0994;stroke-linecap:round;stroke-miterlimit:10;}
	.st66{fill:#6CF4BC;stroke:#1B3390;stroke-width:1.6932;stroke-miterlimit:10;}
	.st67{fill:none;stroke:#1B3390;stroke-width:1.436;stroke-linecap:round;stroke-miterlimit:10;}
	.st68{fill:#FFB87D;stroke:#1B3390;stroke-width:2.1678;stroke-miterlimit:10;}
	.st69{fill:none;stroke:#1B3390;stroke-width:1.8386;stroke-linecap:round;stroke-miterlimit:10;}
	.st70{fill:#0B5FD5;stroke:#1B3390;stroke-width:1.6798;stroke-miterlimit:10;}
	.st71{fill:none;stroke:#1B3390;stroke-width:1.4247;stroke-linecap:round;stroke-miterlimit:10;}
	.st72{fill:#A6FFE1;stroke:#1B3390;stroke-width:2.0588;stroke-miterlimit:10;}
	.st73{fill:none;stroke:#1B3390;stroke-width:1.7462;stroke-linecap:round;stroke-miterlimit:10;}
	.st74{fill:#FF8B2B;stroke:#1B3390;stroke-width:2.4753;stroke-miterlimit:10;}
	.st75{fill:#34E2AA;stroke:#1B3390;stroke-width:2.1678;stroke-miterlimit:10;}
	.st76{fill:none;stroke:#1B3390;stroke-width:1.4475;stroke-linecap:round;stroke-miterlimit:10;}
	.st77{fill:#FFB87D;stroke:#1B3390;stroke-width:1.6825;stroke-miterlimit:10;}
	.st78{fill:none;stroke:#1B3390;stroke-width:1.427;stroke-linecap:round;stroke-miterlimit:10;}
	.st79{fill:#ABD0FF;}
	.st80{fill:none;stroke:#0B5BCB;stroke-width:3.3004;stroke-linecap:round;stroke-miterlimit:10;}
	.st81{fill:#E3EFFF;}
	.st82{clip-path:url(#SVGID_9_);fill:none;stroke:#FF8B2B;stroke-width:9.9011;stroke-linecap:round;stroke-miterlimit:10;}
	.st83{fill:#FFB87D;stroke:#1C3CB7;stroke-width:3;stroke-linecap:round;stroke-linejoin:round;stroke-miterlimit:10;}
	.st84{fill:#FFEED1;stroke:#1C3CB7;stroke-width:3;stroke-linejoin:round;stroke-miterlimit:10;}
	.st85{fill:#FF8B2B;stroke:#1C3CB7;stroke-width:3;stroke-miterlimit:10;}
	.st86{fill:#FFE2C9;stroke:#1C3CB7;stroke-width:3;stroke-linejoin:round;stroke-miterlimit:10;}
	.st87{fill:#1B3390;stroke:#1C3CB7;stroke-miterlimit:10;}
	.st88{fill:#0B5BCB;stroke:#1C3CB7;stroke-miterlimit:10;}
	.st89{fill:#4992F5;stroke:#1C3CB7;stroke-width:3;stroke-miterlimit:10;}
	.st90{fill:#4992F5;stroke:#1C3CB7;stroke-width:3;stroke-linecap:round;stroke-miterlimit:10;}
	.st91{fill:#8CA4FB;stroke:#1C3CB7;stroke-width:3;stroke-linecap:round;stroke-linejoin:round;stroke-miterlimit:10;}
	.st92{fill:#D1FFEF;stroke:#1C3CB7;stroke-width:3;stroke-linejoin:round;stroke-miterlimit:10;}
	.st93{fill:#0B5BCB;stroke:#1C3CB7;stroke-width:3;stroke-miterlimit:10;}
	.st94{fill:#B2C2FB;stroke:#1C3CB7;stroke-width:3;stroke-linejoin:round;stroke-miterlimit:10;}
	.st95{fill:#34E2AA;stroke:#1C3CB7;stroke-miterlimit:10;}
	.st96{fill:#66FFC8;stroke:#1C3CB7;stroke-miterlimit:10;}
	.st97{fill:#73FFCD;stroke:#1C3CB7;stroke-miterlimit:10;}
	.st98{fill:#00D38E;stroke:#1C3CB7;stroke-miterlimit:10;}
	.st99{fill:#34E2AA;stroke:#1C3CB7;stroke-width:3;stroke-miterlimit:10;}
	.st100{fill:#FF8B2B;stroke:#1C3CB7;stroke-miterlimit:10;}
	.st101{fill:#FFB87D;stroke:#1C3CB7;stroke-miterlimit:10;}
	.st102{fill:#FFB87D;stroke:#1C3CB7;stroke-width:3;stroke-miterlimit:10;}
	.st103{fill:none;stroke:#1C3CB7;stroke-width:2;stroke-miterlimit:10;}
	.st104{fill:#75FFCE;stroke:#1B3390;stroke-width:3;stroke-miterlimit:10;}
	.st105{fill:none;stroke:#1B3390;stroke-width:3;stroke-miterlimit:10;}
	.st106{fill:#00C39F;stroke:#1B3390;stroke-width:3;stroke-miterlimit:10;}
	.st107{fill:#A8FFE6;}
	.st108{opacity:0.8;fill:#A8FFE6;}
	.st109{fill:#8CA4FB;stroke:#1B3390;stroke-width:3;stroke-miterlimit:10;}
	.st110{fill:#0B5BCB;stroke:#1B3390;stroke-width:3;stroke-miterlimit:10;}
	.st111{fill:#D8E0FB;}
	.st112{opacity:0.8;fill:#D8E0FB;}
	.st113{fill:#FFB87D;stroke:#0655C3;stroke-width:3;stroke-linecap:round;stroke-linejoin:round;stroke-miterlimit:10;}
	.st114{fill:#FFE3CC;}
	.st115{fill:none;stroke:#0B5BCB;stroke-width:3;stroke-linecap:round;stroke-linejoin:round;stroke-miterlimit:10;}
	.st116{fill:#34E2AA;stroke:#1B3390;stroke-width:3;stroke-miterlimit:10;}
	.st117{fill:#BAFFE9;}
	.st118{fill:#ABFFE4;}
	.st119{fill:#5790DF;stroke:#0655C3;stroke-width:3;stroke-linecap:round;stroke-linejoin:round;stroke-miterlimit:10;}
	.st120{fill:#80B9F6;}
	.st121{fill:#629FE4;}
	.st122{fill:none;stroke:#0B5BCB;stroke-width:9.7499;stroke-miterlimit:10;}
	.st123{fill:#FFB87D;stroke:#0655C3;stroke-width:12.8755;stroke-linecap:round;stroke-linejoin:round;stroke-miterlimit:10;}
	.st124{fill:none;stroke:#0B5BCB;stroke-width:12.8755;stroke-linecap:round;stroke-linejoin:round;stroke-miterlimit:10;}
	.st125{fill:#34E2AA;stroke:#1B3390;stroke-width:12.8755;stroke-miterlimit:10;}
	.st126{fill:#5790DF;stroke:#0655C3;stroke-width:12.8755;stroke-linecap:round;stroke-linejoin:round;stroke-miterlimit:10;}
	.st127{fill:none;stroke:#0B5BCB;stroke-width:8.0256;stroke-miterlimit:10;}
	.st128{fill:#0B5BCB;stroke:#0B5BCB;stroke-width:4;stroke-miterlimit:10;}
	.st129{fill:#34E2AA;stroke:#0B5BCB;stroke-width:3;stroke-linejoin:round;stroke-miterlimit:10;}
	.st130{fill:none;stroke:#0B5BCB;stroke-width:3;stroke-linecap:round;stroke-miterlimit:10;}
	.st131{fill:#4992F5;stroke:#0B5BCB;stroke-width:4;stroke-miterlimit:10;}
	.st132{fill:#C7FFED;stroke:#34E2AA;stroke-width:3;stroke-miterlimit:10;}
	.st133{fill:#FFD1AB;stroke:#0B5BCB;stroke-width:3;stroke-miterlimit:10;}
	.st134{fill:#34E2AA;stroke:#34E2AA;stroke-width:3;stroke-linejoin:round;stroke-miterlimit:10;}
	.st135{fill:#8CA4FB;stroke:#0B5BCB;stroke-width:3;stroke-linejoin:round;stroke-miterlimit:10;}
	.st136{fill:#69FFC7;stroke:#0B5BCB;stroke-width:3;stroke-linejoin:round;stroke-miterlimit:10;}
	.st137{fill:#FFB87D;stroke:#0B5BCB;stroke-width:3;stroke-linejoin:round;stroke-miterlimit:10;}
	.st138{fill:#ADBEFF;}
	.st139{fill:#FFEAD9;}
	.st140{fill:#D6FFF4;}
	.st141{fill:#CCD6FF;}
	.st142{fill:none;stroke:#33DEA7;stroke-width:5.4384;stroke-miterlimit:10;}
	.st143{fill:#4AE2B1;}
	.st144{fill:#8CA4FB;}
	.st145{opacity:0.25;fill:#FF8B2B;}
	.st146{fill:none;stroke:#FF8B2B;stroke-miterlimit:10;}
	.st147{fill:none;stroke:#FF8B2B;stroke-width:0.9367;stroke-miterlimit:10;}
	.st148{fill:#FF9843;}
	.st149{opacity:0.3;fill:#34E2AA;}
	.st150{display:inline;}
	.st151{fill:#0B87C7;}
	.st152{fill:#92FCCA;stroke:#1A328C;stroke-width:1.1636;stroke-miterlimit:10;}
	.st153{fill:#92FCCA;stroke:#1A328C;stroke-width:1.1636;stroke-linecap:round;stroke-miterlimit:10;}
	.st154{fill:#92FCCA;stroke:#1A328C;stroke-width:1.1636;stroke-linecap:round;stroke-linejoin:round;stroke-miterlimit:10;}
	.st155{fill:#0C63DB;stroke:#1A328C;stroke-width:0.764;stroke-linecap:round;stroke-linejoin:round;stroke-miterlimit:10;}
	.st156{fill:#0C63DB;stroke:#1A328C;stroke-width:0.764;stroke-miterlimit:10;}
	.st157{fill:#0C63DB;stroke:#1A328C;stroke-width:0.764;stroke-linecap:round;stroke-miterlimit:10;}
	.st158{fill:#8AA1F7;stroke:#1B3BB3;stroke-width:3;stroke-linecap:round;stroke-linejoin:round;stroke-miterlimit:10;}
	.st159{fill:#D1FFEF;stroke:#1B3BB3;stroke-width:3;stroke-linejoin:round;stroke-miterlimit:10;}
	.st160{fill:#0B59C7;stroke:#1B3BB3;stroke-width:3;stroke-miterlimit:10;}
	.st161{fill:#AFBFF7;stroke:#1B3BB3;stroke-width:3;stroke-linejoin:round;stroke-miterlimit:10;}
	.st162{fill:#1A328C;stroke:#1B3BB3;stroke-miterlimit:10;}
	.st163{fill:#66FFC8;stroke:#1B3BB3;stroke-miterlimit:10;}
	.st164{fill:#0B59C7;stroke:#1B3BB3;stroke-miterlimit:10;}
	.st165{fill:#4890F1;stroke:#1B3BB3;stroke-width:3;stroke-miterlimit:10;}
	.st166{fill:#4890F1;stroke:#1B3BB3;stroke-width:3;stroke-linecap:round;stroke-miterlimit:10;}
	.st167{fill:#8AA1F7;stroke:#0B59C7;stroke-width:5.0442;stroke-linejoin:round;stroke-miterlimit:10;}
	.st168{fill:#C1CCF7;}
	.st169{fill:none;stroke:#4890F1;stroke-width:10.418;stroke-miterlimit:10;}
	.st170{fill:none;stroke:#4890F1;stroke-width:8.3506;stroke-miterlimit:10;}
	.st171{fill:#E6F0FF;stroke:#DBE3FF;stroke-width:3.6654;stroke-miterlimit:10;}
	.st172{fill:#E6F0FF;}
	.st173{fill:#DBE3FF;}
	.st174{fill:#FFE1C9;stroke:#E0E6FF;stroke-width:5.2027;stroke-miterlimit:10;}
	.st175{fill:#E0FFF7;}
	.st176{fill:#E0E6FF;}
	.st177{fill:#DBE9FF;stroke:#CCD7FF;stroke-width:3.6654;stroke-miterlimit:10;}
	.st178{fill:#DBE9FF;}
	.st179{fill:#CCD7FF;}
	.st180{fill:#9EC2F7;stroke:#9CB1FF;stroke-width:3.6654;stroke-miterlimit:10;}
	.st181{fill:#9EC2F7;}
	.st182{fill:#9CB1FF;}
	.st183{fill:#99C3FF;stroke:#91A9FF;stroke-width:4.0452;stroke-miterlimit:10;}
	.st184{fill:#99C3FF;}
	.st185{fill:#91A9FF;}
	.st186{fill:#FFD7B5;stroke:#A1B5FF;stroke-width:5.2027;stroke-miterlimit:10;}
	.st187{fill:#A1B5FF;}
	.st188{fill:#B8FFEC;stroke:#A1B5FF;stroke-width:5.2027;stroke-miterlimit:10;}
	.st189{fill:#B8FFEC;}
	.st190{fill:#E0FFF7;stroke:#E0E6FF;stroke-width:5.2027;stroke-miterlimit:10;}
	.st191{fill:#FFEAD9;stroke:#DBE3FF;stroke-width:3.6654;stroke-miterlimit:10;}
	.st192{opacity:0.2;}
	.st193{fill:#4890F1;stroke:#1A328C;stroke-width:2.274;stroke-miterlimit:10;}
	.st194{fill:none;stroke:#1A328C;stroke-width:1.9286;stroke-linecap:round;stroke-miterlimit:10;}
	.st195{fill:#6AF0B9;stroke:#1A328C;stroke-width:1.5555;stroke-miterlimit:10;}
	.st196{fill:none;stroke:#1A328C;stroke-width:1.3193;stroke-linecap:round;stroke-miterlimit:10;}
	.st197{fill:#FFB87D;stroke:#1A328C;stroke-width:1.9915;stroke-miterlimit:10;}
	.st198{fill:none;stroke:#1A328C;stroke-width:1.6891;stroke-linecap:round;stroke-miterlimit:10;}
	.st199{fill:#0B5DD1;stroke:#1A328C;stroke-width:1.5432;stroke-miterlimit:10;}
	.st200{fill:none;stroke:#1A328C;stroke-width:1.3088;stroke-linecap:round;stroke-miterlimit:10;}
	.st201{fill:#A6FFE1;stroke:#1A328C;stroke-width:1.8914;stroke-miterlimit:10;}
	.st202{fill:none;stroke:#1A328C;stroke-width:1.6042;stroke-linecap:round;stroke-miterlimit:10;}
	.st203{fill:#8AA1F7;stroke:#1A328C;stroke-width:2.274;stroke-miterlimit:10;}
	.st204{fill:none;stroke:#1A328C;stroke-width:1.3298;stroke-linecap:round;stroke-miterlimit:10;}
	.st205{fill:#FFB87D;stroke:#1A328C;stroke-width:1.5457;stroke-miterlimit:10;}
	.st206{fill:none;stroke:#1A328C;stroke-width:1.311;stroke-linecap:round;stroke-miterlimit:10;}
	.st207{fill:none;stroke:#0B59C7;stroke-width:3.032;stroke-linecap:round;stroke-miterlimit:10;}
	.st208{clip-path:url(#SVGID_13_);fill:none;stroke:#FF8B2B;stroke-width:9.0959;stroke-linecap:round;stroke-miterlimit:10;}
	.st209{fill:#A6FFDE;stroke:#0B59C7;stroke-width:5;stroke-linejoin:round;stroke-miterlimit:10;}
	.st210{fill:#A6FFDE;stroke:#0B59C7;stroke-width:4.2028;stroke-linejoin:round;stroke-miterlimit:10;}
	.st211{fill:#8AA1F7;stroke:#1A328C;stroke-width:5;stroke-miterlimit:10;}
	.st212{fill:none;stroke:#1A328C;stroke-width:5;stroke-miterlimit:10;}
	.st213{fill:#0B59C7;stroke:#1A328C;stroke-width:5;stroke-miterlimit:10;}
	.st214{fill:#75FFCE;stroke:#1A328C;stroke-width:5;stroke-miterlimit:10;}
	.st215{fill:#D4DCF7;}
	.st216{opacity:0.8;fill:#D4DCF7;}
	.st217{fill:#558DDB;stroke:#0653BF;stroke-width:5;stroke-linecap:round;stroke-linejoin:round;stroke-miterlimit:10;}
	.st218{fill:#7EB6F2;}
	.st219{fill:#609CE0;}
	.st220{fill:none;stroke:#0B59C7;stroke-width:5;stroke-linecap:round;stroke-linejoin:round;stroke-miterlimit:10;}
	.st221{fill:#FF8B2B;stroke:#0B59C7;stroke-width:5;stroke-miterlimit:10;}
	.st222{fill:none;stroke:#33DEA7;stroke-width:5;stroke-linecap:round;stroke-miterlimit:10;}
	.st223{fill:none;stroke:#33DEA7;stroke-width:5;stroke-linecap:round;stroke-linejoin:round;stroke-miterlimit:10;}
	.st224{clip-path:url(#SVGID_15_);}
	.st225{fill:none;stroke:#1A328C;stroke-width:5;stroke-linecap:round;stroke-linejoin:round;stroke-miterlimit:10;}
	.st226{fill:#8AA1F7;stroke:#33DEA7;stroke-width:0.7994;stroke-miterlimit:10;}
	.st227{fill:none;stroke:#33DEA7;stroke-width:0.7994;stroke-linecap:round;stroke-miterlimit:10;}
	.st228{fill:none;stroke:#33DEA7;stroke-width:0.7994;stroke-linecap:round;stroke-linejoin:round;stroke-miterlimit:10;}
	.st229{clip-path:url(#SVGID_17_);}
	.st230{fill:none;stroke:#33DEA7;stroke-width:6.662;stroke-linecap:round;stroke-linejoin:round;stroke-miterlimit:10;}
	.st231{fill:none;stroke:#1A328C;stroke-width:1.5989;stroke-linecap:round;stroke-linejoin:round;stroke-miterlimit:10;}
	.st232{fill:#4890F1;stroke:#1A328C;stroke-width:1.7649;stroke-linecap:round;stroke-miterlimit:10;}
	.st233{fill:#4890F1;stroke:#1A328C;stroke-width:1.7649;stroke-linecap:round;stroke-linejoin:round;stroke-miterlimit:10;}
	.st234{opacity:0.8;fill:#C4D0FF;}
	.st235{fill:#FFB87D;stroke:#1B3BB3;stroke-width:5;stroke-linecap:round;stroke-linejoin:round;stroke-miterlimit:10;}
	.st236{fill:#FFD6B3;stroke:#1B3BB3;stroke-width:5;stroke-linejoin:round;stroke-miterlimit:10;}
	.st237{fill:#FF8B2B;stroke:#1B3BB3;stroke-width:5;stroke-miterlimit:10;}
	.st238{fill:#FFB87D;stroke:#1B3BB3;stroke-width:5;stroke-linejoin:round;stroke-miterlimit:10;}
	.st239{fill:#96FFD4;stroke:#1B3BB3;stroke-width:5;stroke-linejoin:round;stroke-miterlimit:10;}
	.st240{fill:#1A328C;stroke:#1B3BB3;stroke-width:5;stroke-miterlimit:10;}
	.st241{fill:#0B59C7;stroke:#1B3BB3;stroke-width:5;stroke-miterlimit:10;}
	.st242{fill:#4890F1;stroke:#1B3BB3;stroke-width:5;stroke-miterlimit:10;}
	.st243{fill:#4890F1;stroke:#1B3BB3;stroke-width:5;stroke-linecap:round;stroke-miterlimit:10;}
	.st244{fill:#FFB87D;stroke:#1B3BB3;stroke-width:1.6332;stroke-linecap:round;stroke-linejoin:round;stroke-miterlimit:10;}
	.st245{fill:#FFD8B8;stroke:#1B3BB3;stroke-width:1.6332;stroke-linejoin:round;stroke-miterlimit:10;}
	.st246{fill:#FF8B2B;stroke:#1B3BB3;stroke-width:1.6332;stroke-miterlimit:10;}
	.st247{fill:#FFB87D;stroke:#1B3BB3;stroke-width:1.6332;stroke-linejoin:round;stroke-miterlimit:10;}
	.st248{fill:#1A328C;stroke:#1B3BB3;stroke-width:0.5444;stroke-miterlimit:10;}
	.st249{fill:#0B59C7;stroke:#1B3BB3;stroke-width:0.5444;stroke-miterlimit:10;}
	.st250{fill:#4890F1;stroke:#1B3BB3;stroke-width:1.6332;stroke-miterlimit:10;}
	.st251{fill:#4890F1;stroke:#1B3BB3;stroke-width:1.6332;stroke-linecap:round;stroke-miterlimit:10;}
	.st252{fill:#92FCCA;stroke:#1A328C;stroke-width:5;stroke-miterlimit:10;}
	.st253{fill:none;stroke:#1A328C;stroke-width:5;stroke-linecap:round;stroke-miterlimit:10;}
	.st254{clip-path:url(#SVGID_21_);fill:none;stroke:#8AA1F7;stroke-width:5;stroke-linecap:round;stroke-miterlimit:10;}
	.st255{fill:#7DFFD5;}
	.st256{fill:#B3FFE4;}
	.st257{fill:none;stroke:#274CD4;stroke-width:0.3105;stroke-miterlimit:10;}
	.st258{fill:#FF8B2B;stroke:#0653BF;stroke-width:2.1766;stroke-linecap:round;stroke-linejoin:round;stroke-miterlimit:10;}
	.st259{fill:#FFD2AD;}
	.st260{fill:none;stroke:#0B59C7;stroke-width:2.1766;stroke-linecap:round;stroke-linejoin:round;stroke-miterlimit:10;}
	.st261{fill:#FFB87D;stroke:#33DEA7;stroke-width:5;stroke-miterlimit:10;}
	.st262{fill:#9EFFE0;stroke:#33DEA7;stroke-width:5;stroke-miterlimit:10;}
	.st263{fill:#FF8B2B;stroke:#33DEA7;stroke-width:5;stroke-linejoin:round;stroke-miterlimit:10;}
	.st264{fill:#FF8B2B;stroke:#1A328C;stroke-width:5;stroke-miterlimit:10;}
	.st265{fill:#6AF0B9;stroke:#1A328C;stroke-width:5;stroke-miterlimit:10;}
	.st266{fill:#B5CBE8;stroke:#1A328C;stroke-width:5;stroke-miterlimit:10;}
	.st267{fill:#0B5DD1;stroke:#1A328C;stroke-width:5;stroke-miterlimit:10;}
	.st268{fill:#4890F1;stroke:#1A328C;stroke-width:5;stroke-miterlimit:10;}
	.st269{fill:#6BFFCA;stroke:#1A328C;stroke-width:5;stroke-miterlimit:10;}
	.st270{fill:none;stroke:#0B59C7;stroke-width:5;stroke-linecap:round;stroke-miterlimit:10;}
	.st271{clip-path:url(#SVGID_23_);fill:none;stroke:#FF8B2B;stroke-width:19;stroke-linecap:round;stroke-miterlimit:10;}
	.st272{fill:#FF8B2B;stroke:#0B59C7;stroke-width:5;stroke-linejoin:round;stroke-miterlimit:10;}
	.st273{fill:#FFC99C;}
	.st274{fill:#8AA1F7;stroke:#0B59C7;stroke-width:5;stroke-linejoin:round;stroke-miterlimit:10;}
	.st275{fill:#33DEA7;stroke:#1A328C;stroke-width:5;stroke-miterlimit:10;}
	.st276{fill:#8AA1F7;stroke:#0B59C7;stroke-width:1.5989;stroke-miterlimit:10;}
	.st277{fill:none;stroke:#0B59C7;stroke-width:1.5989;stroke-linecap:round;stroke-miterlimit:10;}
	.st278{fill:none;stroke:#0B59C7;stroke-width:1.5989;stroke-linecap:round;stroke-linejoin:round;stroke-miterlimit:10;}
	.st279{clip-path:url(#SVGID_25_);}
	.st280{fill:none;stroke:#FF8B2B;stroke-width:13.324;stroke-linecap:round;stroke-linejoin:round;stroke-miterlimit:10;}
	.st281{fill:none;stroke:#1A328C;stroke-width:3.1978;stroke-linecap:round;stroke-linejoin:round;stroke-miterlimit:10;}
	.st282{fill:#4890F1;stroke:#1A328C;stroke-width:1.0806;stroke-miterlimit:10;}
	.st283{fill:#4890F1;stroke:#1A328C;stroke-width:1.0806;stroke-linecap:round;stroke-miterlimit:10;}
	.st284{fill:#4890F1;stroke:#1A328C;stroke-width:1.0806;stroke-linecap:round;stroke-linejoin:round;stroke-miterlimit:10;}
	.st285{fill:#8AA1F7;stroke:#1B3BB3;stroke-width:5;stroke-linecap:round;stroke-linejoin:round;stroke-miterlimit:10;}
	.st286{fill:#D1FFEF;stroke:#1B3BB3;stroke-width:5;stroke-linejoin:round;stroke-miterlimit:10;}
	.st287{fill:#AFBFF7;stroke:#1B3BB3;stroke-width:5;stroke-linejoin:round;stroke-miterlimit:10;}
	.st288{fill:#66FFC8;stroke:#1B3BB3;stroke-width:5;stroke-miterlimit:10;}
	.st289{fill:none;stroke:#274CD4;stroke-width:0.9742;stroke-miterlimit:10;}
	.st290{fill:#8AA1F7;stroke:#0653BF;stroke-width:5;stroke-linecap:round;stroke-linejoin:round;stroke-miterlimit:10;}
	.st291{fill:#BAC8FF;}
	.st292{fill:#9EB2FF;}
	.st293{fill:#8AA1F7;stroke:#0B59C7;stroke-width:5;stroke-miterlimit:10;}
	.st294{clip-path:url(#SVGID_29_);}
	.st295{fill:none;stroke:#33DEA7;stroke-width:25;stroke-linecap:round;stroke-linejoin:round;stroke-miterlimit:10;}
	.st296{fill:#0B59C7;stroke:#0B59C7;stroke-width:5;stroke-miterlimit:10;}
	.st297{fill:#4890F1;stroke:#0B59C7;stroke-width:5;stroke-miterlimit:10;}
	.st298{fill:#FF9B47;stroke:#0B59C7;stroke-width:1.6094;stroke-linejoin:round;stroke-miterlimit:10;}
	.st299{fill:#FFC696;}
	.st300{fill:#6CCFAF;stroke:#0B59C7;stroke-width:1.5694;stroke-miterlimit:10;}
	.st301{fill:#9EFFE0;stroke:#0B59C7;stroke-width:1.5694;stroke-miterlimit:10;}
	.st302{fill:none;stroke:#0B59C7;stroke-width:1.5694;stroke-linecap:round;stroke-miterlimit:10;}
	.st303{fill:#00BD80;stroke:#0B59C7;stroke-width:1.5694;stroke-linejoin:round;stroke-miterlimit:10;}
	.st304{fill:#FF8B2B;stroke:#0653BF;stroke-width:1.5522;stroke-linecap:round;stroke-linejoin:round;stroke-miterlimit:10;}
	.st305{fill:none;stroke:#0B59C7;stroke-width:1.5522;stroke-linecap:round;stroke-linejoin:round;stroke-miterlimit:10;}
	.st306{fill:#1D4BB8;}
	.st307{fill:#33DEA7;stroke:#1A328C;stroke-miterlimit:10;}
	.st308{fill:#2DC494;}
	.st309{fill:#E3FFFB;stroke:#1A328C;stroke-miterlimit:10;}
	.st310{fill:#D9E5FF;stroke:#1A328C;stroke-miterlimit:10;}
	.st311{fill:#C9FFEB;}
	.st312{fill:#FFD0A8;}
	.st313{fill:#41F2B3;}
	.st314{fill:#31FFC0;}
	.st315{fill:#5CFFCD;}
	.st316{fill:#87FFDA;}
	.st317{fill:#9CFFE0;}
	.st318{fill:#ADFFE6;}
	.st319{fill:#BAFFEA;}
	.st320{fill:#C4DEFF;}
	.st321{fill:#FFFFFF;stroke:#33DEA7;stroke-width:2.0266;stroke-miterlimit:10;}
	.st322{fill:#FFFFFF;stroke:#FF8B2B;stroke-width:2.0266;stroke-miterlimit:10;}
	.st323{fill:#00BD81;}
	.st324{fill:#FFFFFF;stroke:#4890F1;stroke-width:2.0266;stroke-miterlimit:10;}
	.st325{fill:none;stroke:#1A328C;stroke-width:1.9243;stroke-miterlimit:10;}
	.st326{opacity:0.2;clip-path:url(#SVGID_43_);}
	.st327{clip-path:url(#SVGID_45_);fill:none;stroke:#FF8B2B;stroke-width:9.0959;stroke-linecap:round;stroke-miterlimit:10;}
	.st328{clip-path:url(#SVGID_47_);}
	.st329{clip-path:url(#SVGID_49_);}
	.st330{clip-path:url(#SVGID_53_);fill:none;stroke:#8AA1F7;stroke-width:5;stroke-linecap:round;stroke-miterlimit:10;}
	.st331{clip-path:url(#SVGID_55_);fill:none;stroke:#FF8B2B;stroke-width:19;stroke-linecap:round;stroke-miterlimit:10;}
	.st332{clip-path:url(#SVGID_57_);}
	.st333{clip-path:url(#SVGID_61_);}
	.st334{fill:#FFDCBF;stroke:#BFCCFF;stroke-width:5.4294;stroke-miterlimit:10;}
	.st335{fill:#BFCCFF;}
	.st336{fill:#BFD8FF;stroke:#ADBFFF;stroke-width:3.8251;stroke-miterlimit:10;}
	.st337{fill:#ADBFFF;}
	.st338{fill:#74A9F7;stroke:#6384FF;stroke-width:3.8251;stroke-miterlimit:10;}
	.st339{fill:#74A9F7;}
	.st340{fill:#6384FF;}
	.st341{fill:#94C0FF;stroke:#8FA7FF;stroke-width:4.2215;stroke-miterlimit:10;}
	.st342{fill:#94C0FF;}
	.st343{fill:#8FA7FF;}
	.st344{fill:#FFC899;stroke:#87A1FF;stroke-width:4;stroke-miterlimit:10;}
	.st345{fill:#87A1FF;}
	.st346{fill:#A1FFE6;stroke:#A1B5FF;stroke-width:3;stroke-miterlimit:10;}
	.st347{fill:#A1FFE6;}
	.st348{fill:#CCFFF2;stroke:#BDCAFF;stroke-width:5.4294;stroke-miterlimit:10;}
	.st349{fill:#BDCAFF;}
	.st350{fill:none;stroke:#4890F1;stroke-width:1.7372;stroke-miterlimit:10;}
	.st351{fill:none;stroke:#4890F1;stroke-width:2.5336;stroke-miterlimit:10;}
	.st352{fill:#FFEFE0;stroke:#4890F1;stroke-width:2.5336;stroke-miterlimit:10;}
</style>
<g id="Слой_1">
	<g>
		<circle class="st6" cx="216.29" cy="527.97" r="148.72"/>
		<g>
			<path class="st21" d="M114.28,499.3l0.21,3.09c0,1.82-2.29,2.72-6.86,2.72c-0.49,0-1.19-0.59-2.1-1.78
				c-0.84-1.12-1.47-1.61-1.89-1.47c-0.38,0-2.3,0.47-5.74,1.41c-3.44,0.94-5.49,1.55-6.16,1.83c-4.23,1.36-7.2,2.04-8.91,2.04
				c-1.61,0-2.89-0.54-3.85-1.62c-0.96-1.08-1.44-2.13-1.44-3.14c0-1.85,1.58-3.2,4.74-4.06c3.16-0.85,5.91-1.49,8.25-1.91
				c7.51-1.54,11.91-2.69,13.2-3.46c0.38-6.67,1.17-14.32,2.36-22.95l2.99-22.11c-2.03,0-4.84,1.22-8.43,3.67
				c-6.39,4.19-12.02,6.29-16.87,6.29c-1.57,0-2.36-1.1-2.36-3.3c0-1.4,0.27-2.32,0.81-2.78c0.54-0.45,2.98-1.61,7.31-3.48
				c4.33-1.87,9.78-4.76,16.35-8.67c6.57-3.91,10.15-5.87,10.74-5.87c1.12,0,2.08,0.77,2.88,2.31c0.8,1.54,1.21,2.88,1.21,4.03
				c0,0.98-0.51,1.97-1.52,2.99c-3.42,14.95-5.41,26.4-5.97,34.34c-0.56,7.95-0.65,12.58-0.26,13.91c2.65-0.1,6.48-0.86,11.47-2.25
				c6.88-1.85,12.43-2.78,16.66-2.78c0.84,1.61,1.26,2.97,1.26,4.09c0,1.19-0.18,1.96-0.52,2.31c-0.35,0.35-1.5,0.86-3.46,1.52
				c-1.96,0.66-5.33,1.31-10.11,1.94C121.25,497.14,116.59,498.19,114.28,499.3z"/>
			<path class="st21" d="M185.33,448.22c-1.99,1.89-4.35,4.85-7.07,8.91c-0.73,1.08-1.33,1.94-1.78,2.57
				c-0.49,0.66-0.82,1.14-1,1.41c1.96,1.19,5.75,2.18,11.37,2.99c7.19,1.05,12.55,2.24,16.06,3.56c3.51,1.33,6.04,3.26,7.6,5.79
				c1.55,2.53,2.33,5.98,2.33,10.35c0,2.72-1.26,5.78-3.77,9.17c-2.51,3.39-6.71,6.6-12.57,9.64c-5.87,3.04-12.36,4.56-19.49,4.56
				c-5.83,0-10.84-1.15-15.01-3.46c-4.17-2.31-6.26-4.24-6.26-5.82c0-3.35,2.11-5.03,6.34-5.03c0.94,0,1.96,0.44,3.04,1.31
				c3.88,2.72,8.33,4.09,13.36,4.09c5.34,0,10.84-1.59,16.48-4.77s8.46-6.22,8.46-9.12c0-3.7-1.37-6.54-4.11-8.51
				c-2.74-1.97-7.01-3.27-12.81-3.9l-11.84-1.31c-3.32-0.42-5.89-1.28-7.7-2.59c-1.82-1.31-2.72-2.52-2.72-3.64
				c0-1.19,0.65-2.53,1.94-4.03c0.28-0.38,1.8-2.58,4.56-6.6c5.69-8.49,9.28-12.97,10.77-13.44c1.48-0.47,10.91-0.99,28.26-1.55
				c3.07-0.07,6.25-0.58,9.54-1.52c2.58-0.7,4.19-1.05,4.82-1.05c2.17,0,4.05,0.65,5.66,1.94c1.15,0.59,1.73,1.24,1.73,1.94
				c0,1.01-0.65,2.29-1.94,3.82c-1.29,1.54-3.15,2.48-5.58,2.83c-2.43,0.35-5.46,0.52-9.09,0.52l-17.5-0.52
				C192.24,446.76,188.23,447.25,185.33,448.22z"/>
			<path class="st21" d="M245.47,507.27c-5.59,0-9.9-1.9-12.94-5.71c-3.04-3.81-4.56-8.56-4.56-14.25c0-6.95,2.13-14.62,6.39-23
				c4.26-8.38,10.47-15.26,18.63-20.64c8.15-5.38,15.34-8.07,21.56-8.07c4.54,0,9.43,1.5,14.67,4.51c5.24,3,8.91,6.37,11,10.11
				c2.1,3.74,3.14,8.7,3.14,14.88c0,9.26-6.03,18.6-18.1,28.03C273.19,502.55,259.93,507.27,245.47,507.27z M282.35,445.76
				c-0.8,1.01-2.06,1.52-3.77,1.52c-0.25,0-0.91-0.38-1.99-1.15c-1.12-0.8-2.13-1.2-3.04-1.2c-4.3,0-7.7,0.67-10.22,2.02
				c-2.51,1.35-5.96,4.13-10.35,8.36c-4.38,4.23-7.96,8.86-10.71,13.91c-2.76,5.05-4.14,10.17-4.14,15.38
				c0,6.18,1.45,10.06,4.35,11.63s6.06,2.36,9.48,2.36c4.33,0,9.74-1.73,16.24-5.19c6.5-3.46,12.5-7.9,18.02-13.33
				c5.52-5.43,8.28-9.86,8.28-13.28c0-1.96-0.31-4.23-0.94-6.84c-0.63-2.6-1.32-4.39-2.07-5.37c-0.75-0.98-2.15-2.55-4.19-4.72
				C285.26,447.68,283.61,446.32,282.35,445.76z"/>
		</g>
		<circle class="st122" cx="185.69" cy="469.19" r="156"/>
	</g>
	<g>
		<path class="st18" d="M1280.45,340.89c-0.5,0.64-1.59,0.96-3.28,0.96c-0.62,0-1.64-0.08-3.06-0.25c-1.62-0.19-2.78-0.29-3.49-0.29
			h-2.35c-0.69,0-1.31,0.01-1.85,0.04h-1.71c-0.57,0-1.18,0.01-1.82,0.04c-0.52,1.02-0.78,2.64-0.78,4.85
			c0,2.71-0.06,4.41-0.18,5.09c-0.12,0.67-0.14,1.61-0.07,2.83s-0.58,1.83-1.96,1.83c-1.02,0-1.69-0.2-2.01-0.59
			c-0.32-0.39-0.48-1.1-0.48-2.12c0-0.55,0.2-2.41,0.61-5.59c0.19-1.54,0.38-3.65,0.57-6.31c-1.52-0.14-3.81-0.21-6.88-0.21
			c-0.52,0-1.22,0.12-2.1,0.36c-0.93,0.21-1.53,0.32-1.82,0.32c-0.64,0-1.22-0.24-1.73-0.73c-0.51-0.49-0.77-1.05-0.77-1.69
			c0-0.47,0.17-0.98,0.52-1.51c0.34-0.53,0.73-0.8,1.16-0.8c0.83,0,1.7,0.08,2.6,0.25c0.93,0.17,1.61,0.25,2.07,0.25l7.16-0.36
			c0.29-0.9,0.43-1.83,0.43-2.78c0-1.28-0.09-3.47-0.29-6.56c-0.09-1.28-0.14-2.39-0.14-3.31c0-0.81,0.24-1.62,0.73-2.42
			c0.49-0.81,1.1-1.21,1.83-1.21c0.38,0,0.8,0.39,1.26,1.18s0.69,1.39,0.69,1.82c0,1.24-0.11,2.89-0.32,4.95s-0.32,3.48-0.32,4.24
			c0,1.21,0.07,2.42,0.21,3.63c0.47,0.17,1.86,0.25,4.17,0.25l8.16-0.14c2.21,0,3.63,0.24,4.27,0.71
			C1280.13,338.08,1280.45,339.18,1280.45,340.89z"/>
		<path class="st18" d="M1313.59,354.39l0.14,2.1c0,1.23-1.56,1.85-4.67,1.85c-0.33,0-0.81-0.4-1.43-1.21c-0.57-0.76-1-1.09-1.28-1
			c-0.26,0-1.56,0.32-3.9,0.96c-2.34,0.64-3.73,1.06-4.19,1.25c-2.87,0.93-4.89,1.39-6.06,1.39c-1.09,0-1.96-0.37-2.62-1.1
			s-0.98-1.45-0.98-2.14c0-1.26,1.07-2.18,3.22-2.76c2.15-0.58,4.02-1.02,5.61-1.3c5.11-1.04,8.1-1.83,8.98-2.35
			c0.26-4.54,0.8-9.74,1.6-15.6l2.03-15.03c-1.38,0-3.29,0.83-5.74,2.49c-4.35,2.85-8.17,4.28-11.47,4.28c-1.07,0-1.6-0.75-1.6-2.24
			c0-0.95,0.18-1.58,0.55-1.89c0.37-0.31,2.02-1.1,4.97-2.37c2.94-1.27,6.65-3.24,11.12-5.9c4.46-2.66,6.9-3.99,7.3-3.99
			c0.76,0,1.41,0.52,1.96,1.57c0.55,1.05,0.82,1.96,0.82,2.74c0,0.67-0.34,1.34-1.03,2.03c-2.33,10.17-3.68,17.95-4.06,23.35
			c-0.38,5.4-0.44,8.56-0.18,9.46c1.8-0.07,4.41-0.58,7.8-1.53c4.68-1.26,8.46-1.89,11.33-1.89c0.57,1.09,0.85,2.02,0.85,2.78
			c0,0.81-0.12,1.33-0.36,1.57c-0.24,0.24-1.02,0.58-2.35,1.03c-1.33,0.45-3.62,0.89-6.88,1.32
			C1318.33,352.92,1315.15,353.63,1313.59,354.39z"/>
		<path class="st18" d="M1361.9,319.65c-1.35,1.28-2.96,3.3-4.81,6.06c-0.5,0.74-0.9,1.32-1.21,1.75c-0.33,0.45-0.56,0.77-0.68,0.96
			c1.33,0.81,3.91,1.48,7.73,2.03c4.89,0.71,8.53,1.52,10.92,2.42c2.39,0.9,4.11,2.22,5.17,3.94c1.06,1.72,1.59,4.07,1.59,7.04
			c0,1.85-0.86,3.93-2.57,6.23s-4.56,4.49-8.55,6.55c-3.99,2.07-8.41,3.1-13.25,3.1c-3.97,0-7.37-0.78-10.21-2.35
			c-2.84-1.57-4.26-2.89-4.26-3.95c0-2.28,1.44-3.42,4.31-3.42c0.64,0,1.33,0.3,2.07,0.89c2.64,1.85,5.66,2.78,9.08,2.78
			c3.63,0,7.37-1.08,11.21-3.24c3.83-2.16,5.75-4.23,5.75-6.2c0-2.52-0.93-4.45-2.8-5.79s-4.77-2.23-8.71-2.65l-8.05-0.89
			c-2.26-0.28-4-0.87-5.24-1.76c-1.24-0.89-1.85-1.72-1.85-2.48c0-0.81,0.44-1.72,1.32-2.74c0.19-0.26,1.22-1.76,3.1-4.49
			c3.87-5.77,6.31-8.82,7.32-9.14c1.01-0.32,7.42-0.67,19.22-1.05c2.09-0.05,4.25-0.39,6.48-1.03c1.76-0.47,2.85-0.71,3.28-0.71
			c1.47,0,2.75,0.44,3.85,1.32c0.78,0.4,1.18,0.84,1.18,1.32c0,0.69-0.44,1.56-1.32,2.6c-0.88,1.05-2.14,1.69-3.79,1.92
			c-1.65,0.24-3.71,0.36-6.18,0.36l-11.9-0.36C1366.6,318.66,1363.87,318.99,1361.9,319.65z"/>
		<path class="st18" d="M1390.25,365.68c4.42-1.09,7.26-2.64,8.51-4.65c1.26-2.01,1.89-3.44,1.89-4.29c0-2.42-0.33-4.13-1-5.13
			c-0.31-0.45-0.46-0.89-0.46-1.32c0-0.36,0.16-0.87,0.48-1.53c0.32-0.66,0.65-1,0.98-1c0.5,0,1.28,0.18,2.35,0.55
			c1.07,0.37,1.7,0.69,1.89,0.96c0.19,0.27,0.5,1.16,0.94,2.65c0.44,1.5,0.66,2.78,0.66,3.85c0,0.4-0.45,1.66-1.34,3.76
			s-2.11,3.74-3.65,4.92c-1.54,1.18-2.99,1.89-4.35,2.16c-0.55,0.09-1.06,0.23-1.53,0.39c-1.88,0.83-3.41,1.25-4.6,1.25
			c-0.69,0-1.03-0.56-1.03-1.67C1390,366.14,1390.09,365.85,1390.25,365.68z"/>
		<path class="st18" d="M1425.95,359.8c-3.8,0-6.73-1.29-8.8-3.88c-2.07-2.59-3.1-5.82-3.1-9.69c0-4.73,1.45-9.94,4.35-15.64
			s7.12-10.38,12.67-14.04c5.54-3.66,10.43-5.49,14.66-5.49c3.09,0,6.41,1.02,9.97,3.06c3.56,2.04,6.06,4.33,7.48,6.88
			c1.42,2.54,2.14,5.91,2.14,10.12c0,6.29-4.1,12.65-12.31,19.06S1435.78,359.8,1425.95,359.8z M1451.03,317.98
			c-0.55,0.69-1.4,1.03-2.56,1.03c-0.17,0-0.62-0.26-1.35-0.78c-0.76-0.55-1.45-0.82-2.07-0.82c-2.92,0-5.24,0.46-6.95,1.37
			c-1.71,0.91-4.06,2.81-7.04,5.68c-2.98,2.87-5.41,6.03-7.29,9.46c-1.88,3.43-2.81,6.92-2.81,10.46c0,4.2,0.99,6.84,2.96,7.91
			c1.97,1.07,4.12,1.6,6.45,1.6c2.94,0,6.63-1.18,11.04-3.53c4.42-2.35,8.5-5.37,12.25-9.07c3.75-3.69,5.63-6.7,5.63-9.03
			c0-1.33-0.21-2.88-0.64-4.65c-0.43-1.77-0.9-2.99-1.41-3.65c-0.51-0.66-1.46-1.73-2.85-3.21S1451.89,318.36,1451.03,317.98z"/>
		<path class="st18" d="M1507.78,340.17c5.63-0.97,10.68-4.61,15.14-10.9c2.09-2.92,3.92-4.99,5.5-6.22
			c1.58-1.22,3.26-1.83,5.04-1.83c0.71,0,1.42,0.32,2.14,0.96c0.71,0.64,1.07,1.4,1.07,2.28c0,1.16-1.1,2.08-3.31,2.74
			c-1.16,0.36-2.26,0.96-3.28,1.82s-2.96,2.9-5.81,6.13c-2.23,2.52-4.24,4.29-6.02,5.31c-0.17,0.1-0.25,0.18-0.25,0.25
			c0,0.1,0.11,0.19,0.32,0.29c1.73,0.93,3.56,2.72,5.49,5.38c2.8,3.87,4.9,6.31,6.31,7.32c1.4,1.01,3,1.51,4.81,1.51l1.17-0.04
			c0.83-0.05,1.25,0.32,1.25,1.1c0,0.9-0.51,1.84-1.53,2.81c-1.02,0.97-2.71,1.46-5.06,1.46c-1.8,0-3.56-0.78-5.25-2.33
			c-1.7-1.56-3.64-4.08-5.83-7.57c-1.26-2.07-2.43-3.63-3.53-4.7s-2.3-1.6-3.63-1.6c-0.28,0-1.16,0.24-2.64,0.71
			c-1.47,0.48-2.3,0.93-2.48,1.37c-0.18,0.44-0.31,2.02-0.39,4.74c-0.08,2.72-0.13,4.91-0.13,6.57c0,0.88-0.42,1.66-1.25,2.35
			c-0.83,0.69-1.73,1.03-2.71,1.03c-1,0-1.78-0.29-2.35-0.87c-0.57-0.58-0.85-1.18-0.85-1.8c0-0.86,0.32-2.87,0.96-6.06
			c1.14-5.79,2.28-15.35,3.42-28.68c0.09-1.28,0.58-2.44,1.46-3.47c0.88-1.03,1.88-1.55,2.99-1.55c0.62,0,1.13,0.33,1.55,1
			c0.42,0.67,0.62,1.52,0.62,2.56c0,0.83-0.14,1.78-0.43,2.85C1508.96,330.02,1508.11,335.04,1507.78,340.17z"/>
		<path class="st18" d="M1598.7,317.44c-0.86-3.71-1.91-6.29-3.17-7.77c-1.26-1.47-2.92-2.61-4.99-3.42
			c-2.07-0.81-3.93-1.21-5.59-1.21c-0.64,0-1.58,0.24-2.83,0.73s-2.2,0.93-2.87,1.34c-0.93,0.55-1.78,0.82-2.56,0.82
			c-0.9,0-1.35-0.48-1.35-1.43c0-1.02,0.77-2.43,2.32-4.24c1.54-1.8,4.26-2.71,8.16-2.71h1.53c3.87,0,7.29,1.02,10.26,3.05
			c2.97,2.03,5.08,4.93,6.32,8.71s1.87,8.85,1.87,15.21c0,4.32-1.37,9.56-4.1,15.71c-2.73,6.15-6.21,10.81-10.42,13.97
			s-8.7,4.74-13.45,4.74c-1.71,0-3.31-0.99-4.81-2.96s-2.24-4.42-2.24-7.34c0-5.39,1.18-10.15,3.54-14.27
			c2.36-4.12,5.01-7.46,7.94-10.03c2.93-2.57,6.99-4.63,12.17-6.2c1.71-0.5,2.87-0.89,3.49-1.18
			C1598.53,318.69,1598.79,318.18,1598.7,317.44z M1599.66,324.71c-5.49,1.12-9.69,2.89-12.61,5.31c-6.6,6.18-9.9,13.1-9.9,20.77
			c0,1.02,0.18,1.98,0.53,2.87s0.76,1.34,1.21,1.34c1.76,0,3.36-0.31,4.81-0.93c1.45-0.62,3.22-1.91,5.31-3.87s3.98-4.39,5.68-7.29
			c1.7-2.9,2.93-5.69,3.71-8.37c0.77-2.68,1.18-4.74,1.23-6.18C1599.67,326.93,1599.68,325.71,1599.66,324.71z"/>
		<path class="st18" d="M1620.47,360.69c-3.25,0-5.94-1.24-8.05-3.71c-2.11-2.47-3.17-5.52-3.17-9.16c0-6.13,2.06-12.17,6.18-18.12
			c4.12-5.95,9.05-8.92,14.8-8.92c3.8,0,6.88,1.46,9.25,4.38c2.36,2.92,3.54,6.4,3.54,10.44c0,6.18-2.44,11.9-7.32,17.17
			C1630.82,358.06,1625.74,360.69,1620.47,360.69z M1615.51,346.91c0,2.4,0.5,4.36,1.51,5.88c1.01,1.52,2.34,2.28,4.01,2.28
			c3.54,0,7.09-1.94,10.65-5.82s5.34-8.2,5.34-12.95c0-2.92-0.68-5.29-2.05-7.11c-1.37-1.82-3.2-2.73-5.5-2.73
			c-3.82,0-7.11,2.35-9.85,7.04C1616.89,338.18,1615.51,342.66,1615.51,346.91z"/>
		<path class="st18" d="M1673.33,322.61c5.39,2.19,8.09,7.36,8.09,15.53c0,6.13-1.91,11.48-5.74,16.07
			c-3.82,4.58-7.98,6.88-12.47,6.88c-4.01,0-7.14-1.59-9.37-4.77c-2.23-3.18-3.35-7.84-3.35-13.97c0-7.39,1.3-14.86,3.9-22.43
			c2.6-7.56,5.84-13.28,9.73-17.14c3.88-3.86,7.81-5.79,11.77-5.79c2.4,0,4.33,0.79,5.79,2.37c1.46,1.58,2.19,3.77,2.19,6.57
			c0,2.23-0.97,4.88-2.9,7.94C1679.04,316.95,1676.49,319.86,1673.33,322.61z M1674.9,339.14c0-3.54-0.65-6.39-1.96-8.55
			c-1.31-2.16-2.76-3.24-4.35-3.24c-0.48,0-3.12,1.83-7.94,5.49c-1.24,0.95-2.43,1.83-3.6,2.64c-0.36,2.04-0.53,4.29-0.53,6.73
			c0,4.32,0.65,7.58,1.94,9.76s3.08,3.28,5.36,3.28c3.18,0,5.82-1.67,7.93-5.01c2.1-3.34,3.15-7.01,3.15-11.03V339.14z
			 M1657.87,329.09c9.14-7.05,14.8-12.1,16.96-15.12c2.16-3.03,3.24-5.41,3.24-7.14c0-2.78-1.12-4.17-3.35-4.17
			c-3.11,0-6.24,2.34-9.39,7.02C1662.19,314.36,1659.7,320.83,1657.87,329.09z"/>
		<path class="st18" d="M1720.93,346.83c0,2.42-2.14,5.34-6.43,8.76c-4.29,3.42-8.71,5.13-13.27,5.13c-3.82,0-6.78-1.13-8.85-3.38
			c-2.08-2.26-3.12-5.4-3.12-9.44c0-6.79,2.29-13.25,6.88-19.38c4.58-6.13,9.59-9.19,15.03-9.19c1.78,0,3.24,0.58,4.36,1.75
			c1.13,1.16,1.69,2.57,1.69,4.2c0,3.66-1.79,7.16-5.38,10.51c-3.59,3.35-8.38,6.64-14.39,9.87c-1.24,0.64-1.85,1.47-1.85,2.49
			c0,1.97,0.57,3.55,1.71,4.74c1.14,1.19,2.83,1.78,5.06,1.78c5.11,0,10.32-2.83,15.64-8.48c0.78-0.78,1.38-1.18,1.78-1.18
			C1720.55,345.02,1720.93,345.62,1720.93,346.83z M1696.17,341.28c10.07-5.98,15.11-10.79,15.11-14.43c0-1.42-0.64-2.14-1.92-2.14
			c-2.19,0-4.65,1.6-7.39,4.81C1699.22,332.73,1697.29,336.65,1696.17,341.28z"/>
		<path class="st18" d="M1735.25,354.78c-1.16,4.27-2.26,10.27-3.28,17.99l-1,6.73c-0.17,0.95-0.61,1.89-1.32,2.83
			c-0.71,0.94-1.37,1.41-1.96,1.41c-0.74,0-1.57-0.37-2.51-1.12c-0.94-0.75-1.41-1.35-1.41-1.8c0-1.31,0.3-3.11,0.89-5.42
			c4.35-17.55,6.52-32.97,6.52-46.24l-0.04-2.99c-0.05-2.56,0.4-4.43,1.35-5.59c0.95-1.16,2.04-1.75,3.28-1.75
			c0.57,0,1.12,0.45,1.64,1.34s0.78,2.16,0.78,3.79c0,2.3-0.24,5.09-0.71,8.37c-0.62,4.13-0.94,6.51-0.96,7.13
			c3.54-6.17,7.29-11,11.26-14.46c3.97-3.47,7.65-5.2,11.04-5.2c2.4,0,4.42,0.9,6.07,2.69c1.65,1.79,2.48,4.02,2.48,6.68
			c0,7.74-2.97,14.77-8.91,21.09c-5.94,6.32-11.72,9.48-17.35,9.48c-1.4,0-2.51-0.36-3.33-1.07S1736.13,356.66,1735.25,354.78z
			 M1757.38,326.1c-3.35,0-7.49,3.13-12.43,9.41c-4.94,6.27-7.41,11.15-7.41,14.64c0,0.85,0.49,1.69,1.46,2.49
			c0.97,0.81,2.21,1.21,3.71,1.21c3.4,0,7.3-2.51,11.72-7.54c4.42-5.02,6.63-9.96,6.63-14.8c0-1.73-0.35-3.07-1.05-4.01
			C1759.29,326.57,1758.42,326.1,1757.38,326.1z"/>
		<path class="st18" d="M1800.7,343.42c-3.04,5.11-6.15,9.06-9.33,11.86c-3.18,2.8-6.14,4.2-8.87,4.2c-1.57,0-3.17-0.91-4.79-2.74
			c-1.63-1.83-2.44-4.64-2.44-8.44c0-3.11,0.75-7.7,2.24-13.75c1.26-5.06,1.89-8.61,1.89-10.65c0.69-1.42,1.77-2.14,3.24-2.14
			c1,0,1.79,0.35,2.39,1.05c0.59,0.7,0.89,1.43,0.89,2.19c0,1.66-0.58,4.03-1.75,7.09c-2.21,5.96-3.31,11.08-3.31,15.35
			c0,3.9,0.9,5.84,2.71,5.84c2.3,0,5.24-1.96,8.8-5.88c3.56-3.92,6.61-9.38,9.16-16.39c1-2.8,1.81-4.63,2.44-5.47
			c0.63-0.84,1.48-1.26,2.55-1.26c1.62,0,2.42,1.07,2.42,3.21c0,0.26-0.23,1.13-0.68,2.6c-1.42,5.2-2.14,10.12-2.14,14.75
			c0,5.56,0.91,9.16,2.74,10.79c0.95,0.88,1.42,1.59,1.42,2.14c0,0.67-0.48,1.27-1.44,1.82s-1.83,0.82-2.62,0.82
			c-1.66,0-3-1.23-4.03-3.71c-1.02-2.47-1.53-6.12-1.53-10.94v-1.18C1800.66,344.21,1800.67,343.82,1800.7,343.42z"/>
		<path class="st18" d="M1846.19,336.36c0.05-0.12,0.11-0.24,0.18-0.36l0.25-0.43c2.16-5.3,4.88-9.36,8.14-12.2
			c3.27-2.84,6.83-4.26,10.71-4.26c3.8,0,6.88,1.46,9.24,4.38s3.54,6.4,3.54,10.44c0,6.18-2.44,11.9-7.32,17.17
			c-4.88,5.27-9.96,7.91-15.23,7.91c-3.23,0-5.91-1.23-8.03-3.71c-2.13-2.47-3.19-5.51-3.19-9.12l-0.07-1.46
			c-0.05-0.83-0.1-1.35-0.16-1.57s-0.3-0.32-0.73-0.32h-6.16c-2.28,0.02-4.25,0.19-5.91,0.5c-1.66,0.31-2.65,0.61-2.97,0.89
			c-0.32,0.29-0.56,0.91-0.73,1.89c-0.26,1.52-0.49,2.62-0.68,3.31c-0.21,0.81-0.32,1.65-0.32,2.53l0.14,2.99
			c0,1.07-0.29,2.2-0.87,3.4c-0.58,1.2-1.5,1.8-2.76,1.8c-1.95,0-2.92-1.27-2.92-3.81l0.14-3.14c0-0.38,0.26-2.21,0.78-5.49
			c0.64-4.04,1.25-10.38,1.82-19.02c0.19-2.78,0.33-4.49,0.41-5.13c0.08-0.64,0.51-1.26,1.28-1.87c0.77-0.61,1.62-0.91,2.55-0.91
			c1.71,0,2.57,0.7,2.57,2.1c0,0.21-0.27,2-0.82,5.34c-0.57,3.35-0.85,5.95-0.85,7.8c0,1.31,0.45,1.96,1.35,1.96
			c1.97,0,5.22-0.2,9.74-0.59S1846.12,336.67,1846.19,336.36z M1850.75,345.23c0,2.4,0.5,4.36,1.51,5.88
			c1.01,1.52,2.34,2.28,4.01,2.28c3.54,0,7.09-1.94,10.65-5.82s5.34-8.2,5.34-12.95c0-2.92-0.68-5.29-2.05-7.11
			c-1.37-1.82-3.2-2.73-5.5-2.73c-3.82,0-7.11,2.35-9.85,7.04C1852.12,336.51,1850.75,340.98,1850.75,345.23z"/>
	</g>
	<g>
		<path d="M483.45,1350.93c-1.99-0.7-2.99-2.5-2.99-5.4c0-2.27,4.62-4.48,13.86-6.63s17.3-3.22,24.18-3.22
			c7.61,0,13.66,1.57,18.13,4.72c4.47,3.14,6.71,7.32,6.71,12.52c0,7.72-4.25,14.64-12.76,20.75c-8.51,6.11-19.97,10.6-34.39,13.46
			c-3.81,0.77-5.95,1.41-6.42,1.91c-0.47,0.51-0.84,3.61-1.1,9.33c-0.26,5.71-0.39,9.68-0.39,11.92c0,1.57-0.5,2.99-1.49,4.24
			s-2.16,1.89-3.48,1.89c-3.07,0-4.61-2.08-4.61-6.23c0-2.27,0.63-8.59,1.89-18.97l3.72-31.07c0.1-0.52,0.13-2.03,0.08-4.51
			C484.32,1353.17,484.01,1351.59,483.45,1350.93z M494.35,1347.94c-0.24,1.01-0.49,2.88-0.73,5.61c-0.49,4.85-1.1,10.22-1.83,16.08
			c-0.38,3.07-0.75,6.41-1.1,10.01c11.49-1.57,21.69-4.78,30.6-9.64c8.91-4.85,13.36-10.18,13.36-15.98
			c0-7.13-5.52-10.69-16.55-10.69C510.85,1343.33,502.94,1344.87,494.35,1347.94z"/>
		<path d="M592.53,1396.77c0,3.56-3.15,7.86-9.46,12.89c-6.3,5.03-12.81,7.54-19.52,7.54c-5.62,0-9.96-1.66-13.02-4.98
			c-3.06-3.32-4.58-7.95-4.58-13.88c0-9.99,3.37-19.49,10.11-28.5c6.74-9.01,14.11-13.52,22.11-13.52c2.62,0,4.76,0.86,6.42,2.57
			c1.66,1.71,2.49,3.77,2.49,6.18c0,5.38-2.64,10.53-7.91,15.46c-5.27,4.92-12.33,9.76-21.17,14.51c-1.82,0.94-2.72,2.17-2.72,3.67
			c0,2.9,0.84,5.22,2.51,6.97c1.68,1.75,4.16,2.62,7.44,2.62c7.51,0,15.18-4.16,23-12.47c1.15-1.15,2.02-1.73,2.62-1.73
			C591.97,1394.1,592.53,1394.99,592.53,1396.77z M556.12,1388.6c14.81-8.8,22.21-15.87,22.21-21.22c0-2.1-0.94-3.14-2.83-3.14
			c-3.21,0-6.84,2.36-10.87,7.07S557.76,1381.79,556.12,1388.6z"/>
		<path d="M674.83,1391.74c-4.47,7.51-9.05,13.33-13.73,17.45c-4.68,4.12-9.03,6.18-13.05,6.18c-2.3,0-4.65-1.34-7.05-4.03
			c-2.39-2.69-3.59-6.83-3.59-12.42c0-2.86,0.3-6.02,0.89-9.48c-3.32,6.57-7.58,12.21-12.78,16.92c-5.21,4.71-9.85,7.07-13.94,7.07
			c-1.96,0-4.1-1.15-6.42-3.46c-2.32-2.31-3.48-5.41-3.48-9.33c0-4.51,0.19-7.89,0.58-10.16c0.31-2.06,0.58-4.19,0.79-6.39
			c0.21-1.75,0.45-3.39,0.73-4.92c1.36-7.51,1.89-12.35,1.57-14.51c0.73-2.48,2.43-3.72,5.08-3.72c1.05,0,2.07,0.43,3.07,1.28
			c1,0.86,1.49,2.26,1.49,4.22c0,3.21-0.72,7.23-2.15,12.05c-1.92,6.46-2.88,12.19-2.88,17.18c0,2.72,0.2,4.84,0.6,6.34
			c0.4,1.5,1.3,2.25,2.7,2.25c4.61,0,9.81-4.09,15.59-12.26c5.78-8.17,10.36-16.69,13.75-25.57c1.5-4.02,3.39-6.02,5.66-6.02
			c1.47,0,2.64,0.52,3.51,1.55c0.87,1.03,1.31,2.1,1.31,3.22c0,2.44-0.86,5.92-2.57,10.43c-3.25,8.63-4.87,15.98-4.87,22.06
			c0,5.73,1.33,8.59,3.98,8.59c1.19,0,2.65-0.42,4.37-1.26c1.73-0.84,3.87-2.54,6.42-5.11c2.55-2.57,5.04-5.73,7.47-9.48
			c2.43-3.75,3.96-6.48,4.58-8.17c0.63-1.69,1.9-5.68,3.83-11.97c1.22-4.09,2.35-6.85,3.38-8.3c1.03-1.45,2.37-2.17,4.01-2.17
			c2.38,0,3.56,1.57,3.56,4.72c0,0.38-0.33,1.66-1,3.82c-0.98,3.35-1.8,7.61-2.46,12.76c-0.66,5.15-1,9.4-1,12.76
			c0,8.17,1.34,13.46,4.03,15.87c1.4,1.29,2.1,2.34,2.1,3.14c0,0.98-0.71,1.87-2.12,2.67c-1.41,0.8-2.7,1.2-3.85,1.2
			c-2.45,0-4.42-1.82-5.92-5.45c-1.5-3.63-2.25-8.99-2.25-16.08v-1.73C674.78,1392.91,674.8,1392.34,674.83,1391.74z"/>
		<path d="M736.65,1395.46c-4.89,6.57-9.73,11.49-14.51,14.77c-4.79,3.28-9.17,4.92-13.15,4.92c-2.69,0-5.01-1.13-6.97-3.41
			c-1.96-2.27-2.93-5.19-2.93-8.75c0-9.19,4.1-19.08,12.31-29.68c8.21-10.6,16.36-15.9,24.47-15.9c2.93,0,5.12,1.68,6.55,5.03
			c0.45,1.12,1.17,1.68,2.15,1.68c2.79,0,4.19,1.08,4.19,3.25c0,1.08-0.17,2.57-0.52,4.45c-1.89,10.3-2.83,17.57-2.83,21.79
			c0,8.45,1.61,13.52,4.82,15.19c1.54,0.84,2.3,1.87,2.3,3.09c0,1.08-0.75,2.17-2.25,3.27s-2.95,1.65-4.35,1.65
			c-2.69,0-4.91-1.85-6.65-5.55C737.53,1407.58,736.65,1402.31,736.65,1395.46z M733.46,1365.97c-4.61,0-9.97,4.32-16.08,12.97
			c-6.11,8.64-9.17,15.81-9.17,21.51c0,4.02,1.33,6.02,3.98,6.02c3.84,0,9.17-3.88,15.98-11.63s10.22-14.88,10.22-21.38
			C738.38,1368.46,736.74,1365.97,733.46,1365.97z"/>
		<path d="M802.77,1381.37c0.07-0.17,0.16-0.35,0.26-0.52l0.37-0.63c3.18-7.79,7.17-13.77,11.97-17.94
			c4.8-4.17,10.05-6.26,15.74-6.26c5.59,0,10.12,2.15,13.6,6.44c3.47,4.3,5.21,9.41,5.21,15.35c0,9.08-3.59,17.5-10.77,25.25
			s-14.64,11.63-22.4,11.63c-4.75,0-8.69-1.82-11.81-5.45c-3.13-3.63-4.69-8.1-4.69-13.41l-0.11-2.15
			c-0.07-1.22-0.15-1.99-0.24-2.31c-0.09-0.31-0.45-0.47-1.07-0.47h-9.06c-3.35,0.04-6.25,0.28-8.7,0.73
			c-2.44,0.45-3.9,0.89-4.37,1.31c-0.47,0.42-0.83,1.35-1.07,2.78c-0.38,2.24-0.72,3.86-1,4.87c-0.31,1.19-0.47,2.43-0.47,3.72
			l0.21,4.4c0,1.57-0.43,3.24-1.28,5c-0.86,1.76-2.21,2.65-4.06,2.65c-2.86,0-4.3-1.87-4.3-5.61l0.21-4.61
			c0-0.56,0.38-3.25,1.15-8.07c0.94-5.94,1.83-15.26,2.67-27.98c0.28-4.09,0.48-6.6,0.6-7.54c0.12-0.94,0.75-1.86,1.89-2.75
			s2.38-1.34,3.75-1.34c2.51,0,3.77,1.03,3.77,3.09c0,0.31-0.4,2.93-1.21,7.86c-0.84,4.92-1.26,8.75-1.26,11.47
			c0,1.92,0.66,2.88,1.99,2.88c2.9,0,7.68-0.29,14.33-0.86S802.67,1381.82,802.77,1381.37z M809.48,1394.41
			c0,3.53,0.74,6.41,2.23,8.64c1.48,2.24,3.45,3.35,5.89,3.35c5.2,0,10.43-2.85,15.67-8.57c5.24-5.71,7.86-12.06,7.86-19.04
			c0-4.3-1-7.78-3.01-10.45c-2.01-2.67-4.71-4.01-8.09-4.01c-5.62,0-10.45,3.45-14.49,10.35
			C811.49,1381.59,809.48,1388.16,809.48,1394.41z"/>
		<path d="M948.21,1427.21c-0.11,0.14-0.35,0.66-0.73,1.57c-2.1,4.72-4.33,7.23-6.71,7.54l-1.42,0.26c-0.94,0-1.41-0.47-1.41-1.41
			c0-0.73,0.87-3.6,2.62-8.59c1.5-4.37,2.25-7.39,2.25-9.06c0-1.47-0.25-2.2-0.73-2.2c-0.04,0-0.8,0.34-2.31,1.02
			s-2.46,1.02-2.88,1.02c-1.82,0-3.11-0.56-3.88-1.68c-0.77-1.12-1.15-3.37-1.15-6.76c0-3.32,1-9.41,2.99-18.28
			c0.07-0.77,0.12-1.24,0.16-1.41c-4.82,7.96-9.76,14.31-14.83,19.04c-5.06,4.73-9.57,7.1-13.52,7.1c-2.3,0-4.65-1.34-7.05-4.03
			c-2.39-2.69-3.59-6.83-3.59-12.42c0-2.9,0.37-6.43,1.1-10.58c-4.4,7.82-9.08,13.96-14.04,18.42c-4.96,4.45-9.43,6.68-13.41,6.68
			c-1.96,0-4.1-1.15-6.42-3.46c-2.32-2.31-3.48-5.41-3.48-9.33c0-4.51,0.19-7.89,0.58-10.16c0.31-2.06,0.58-4.19,0.79-6.39
			c0.21-1.75,0.45-3.39,0.73-4.92c1.36-7.51,1.89-12.35,1.57-14.51c0.73-2.48,2.43-3.72,5.08-3.72c1.05,0,2.07,0.43,3.07,1.28
			c1,0.86,1.49,2.26,1.49,4.22c0,3.21-0.72,7.23-2.15,12.05c-1.92,6.46-2.88,12.19-2.88,17.18c0,2.72,0.2,4.84,0.6,6.34
			c0.4,1.5,1.3,2.25,2.7,2.25c3.77,0,8.57-3.65,14.38-10.95c5.82-7.3,10.73-16.21,14.75-26.72c1.61-4.12,3.74-6.18,6.39-6.18
			c1.47,0,2.64,0.52,3.51,1.55c0.87,1.03,1.31,2.1,1.31,3.22c0,2.44-0.86,5.92-2.57,10.43c-3.25,8.63-4.87,15.98-4.87,22.06
			c0,5.73,1.33,8.59,3.98,8.59c1.08,0,2.44-0.36,4.06-1.07c1.62-0.72,3.62-2.22,5.97-4.51c2.36-2.29,4.64-5.04,6.84-8.25
			c2.2-3.21,3.81-5.74,4.82-7.6c1.01-1.85,2.83-6.84,5.45-14.98c1.4-4.3,2.58-7.11,3.56-8.44c0.98-1.33,2.22-2.02,3.72-2.1h1.26
			c1.19,0,2.17,0.25,2.96,0.76c0.79,0.51,1.18,2.1,1.18,4.79c0,1.5-0.7,4.71-2.1,9.64c-2.66,9.4-4.3,20.22-4.92,32.48
			c0.14,1.01,0.49,1.52,1.05,1.52c0.1,0,0.28-0.05,0.52-0.16c1.54-1.01,3.11-1.52,4.72-1.52c2.55,0,3.91,1.33,4.09,3.98l0.37,3.3
			c0,2.69-0.45,5.19-1.36,7.49L948.21,1427.21z"/>
		<path d="M996.35,1391.74c-4.47,7.51-9.05,13.33-13.73,17.45c-4.68,4.12-9.03,6.18-13.05,6.18c-2.3,0-4.65-1.34-7.05-4.03
			c-2.39-2.69-3.59-6.83-3.59-12.42c0-4.58,1.1-11.32,3.3-20.22c1.85-7.44,2.78-12.66,2.78-15.67c1.01-2.1,2.6-3.14,4.77-3.14
			c1.47,0,2.64,0.52,3.51,1.55c0.87,1.03,1.31,2.1,1.31,3.22c0,2.44-0.86,5.92-2.57,10.43c-3.25,8.77-4.87,16.29-4.87,22.58
			c0,5.73,1.33,8.59,3.98,8.59c3.39,0,7.7-2.88,12.94-8.64c5.24-5.76,9.73-13.8,13.46-24.1c1.47-4.12,2.66-6.8,3.59-8.04
			c0.93-1.24,2.17-1.86,3.75-1.86c2.38,0,3.56,1.57,3.56,4.71c0,0.38-0.33,1.66-1,3.82c-2.1,7.65-3.14,14.88-3.14,21.69
			c0,8.17,1.34,13.46,4.03,15.87c1.4,1.29,2.1,2.34,2.1,3.14c0,0.98-0.71,1.87-2.12,2.67c-1.41,0.8-2.7,1.2-3.85,1.2
			c-2.45,0-4.42-1.82-5.92-5.45c-1.5-3.63-2.25-8.99-2.25-16.08v-1.73C996.3,1392.91,996.32,1392.34,996.35,1391.74z"/>
		<path d="M1061.79,1391.74c-4.47,7.51-9.05,13.33-13.73,17.45c-4.68,4.12-9.03,6.18-13.05,6.18c-2.3,0-4.65-1.34-7.05-4.03
			c-2.39-2.69-3.59-6.83-3.59-12.42c0-4.58,1.1-11.32,3.3-20.22c1.85-7.44,2.78-12.66,2.78-15.67c1.01-2.1,2.6-3.14,4.77-3.14
			c1.47,0,2.64,0.52,3.51,1.55c0.87,1.03,1.31,2.1,1.31,3.22c0,2.44-0.86,5.92-2.57,10.43c-3.25,8.77-4.87,16.29-4.87,22.58
			c0,5.73,1.33,8.59,3.98,8.59c3.39,0,7.7-2.88,12.94-8.64c5.24-5.76,9.73-13.8,13.46-24.1c1.47-4.12,2.66-6.8,3.59-8.04
			c0.93-1.24,2.17-1.86,3.75-1.86c2.38,0,3.56,1.57,3.56,4.71c0,0.38-0.33,1.66-1,3.82c-2.1,7.65-3.14,14.88-3.14,21.69
			c0,8.17,1.34,13.46,4.03,15.87c1.4,1.29,2.1,2.34,2.1,3.14c0,0.98-0.71,1.87-2.12,2.67c-1.41,0.8-2.7,1.2-3.85,1.2
			c-2.45,0-4.42-1.82-5.92-5.45c-1.5-3.63-2.25-8.99-2.25-16.08v-1.73C1061.74,1392.91,1061.75,1392.34,1061.79,1391.74z
			 M1076.98,1337.78c0,0.63-0.18,1.46-0.55,2.49c-0.37,1.03-0.88,2.1-1.55,3.22c-0.66,1.12-1.47,2.24-2.41,3.35
			c-0.94,1.12-2.01,2.08-3.2,2.88c-0.84,0.59-1.84,1.14-3.01,1.65c-1.17,0.51-2.4,0.94-3.69,1.28c-1.29,0.35-2.61,0.62-3.96,0.81
			c-1.34,0.19-2.63,0.29-3.85,0.29c-1.99,0-3.91-0.24-5.76-0.71c-1.85-0.47-3.56-1.13-5.13-1.99c-1.57-0.86-2.99-1.88-4.24-3.06
			c-1.26-1.19-2.3-2.5-3.14-3.93c-0.25-0.42-0.48-0.92-0.71-1.52c-0.23-0.59-0.42-1.18-0.58-1.76c-0.16-0.58-0.28-1.09-0.37-1.55
			c-0.09-0.45-0.13-0.75-0.13-0.89c0-0.91,0.12-1.67,0.37-2.28c0.24-0.61,0.55-1.1,0.92-1.47c0.37-0.37,0.78-0.62,1.23-0.76
			c0.45-0.14,0.89-0.21,1.31-0.21c1.05,0,1.92,0.2,2.62,0.6c0.7,0.4,1.08,1.02,1.15,1.86c0.14,1.61,0.46,3.11,0.97,4.51
			c0.51,1.4,1.27,2.58,2.28,3.56c1.01,1.01,2.36,1.84,4.03,2.49c1.68,0.65,3.67,0.97,5.97,0.97c0.56,0,1.21-0.05,1.96-0.16
			c0.75-0.1,1.51-0.26,2.28-0.47c0.77-0.21,1.51-0.45,2.23-0.73c0.72-0.28,1.34-0.59,1.86-0.94c0.84-0.56,1.56-1.22,2.17-1.99
			c0.61-0.77,1.13-1.57,1.57-2.41c0.44-0.84,0.8-1.68,1.1-2.52c0.3-0.84,0.55-1.61,0.76-2.31c0.35-1.05,0.86-1.8,1.52-2.25
			c0.66-0.45,1.34-0.68,2.04-0.68c1.29,0,2.27,0.37,2.93,1.1C1076.65,1335,1076.98,1336.17,1076.98,1337.78z"/>
		<path d="M1204.5,1391.74c-4.47,7.51-9.05,13.33-13.73,17.45c-4.68,4.12-9.03,6.18-13.05,6.18c-2.3,0-4.65-1.34-7.05-4.03
			c-2.39-2.69-3.59-6.83-3.59-12.42c0-2.86,0.3-6.02,0.89-9.48c-3.32,6.57-7.58,12.21-12.78,16.92c-5.21,4.71-9.85,7.07-13.94,7.07
			c-1.96,0-4.1-1.15-6.42-3.46c-2.32-2.31-3.48-5.41-3.48-9.33c0-4.51,0.19-7.89,0.58-10.16c0.31-2.06,0.58-4.19,0.79-6.39
			c0.21-1.75,0.45-3.39,0.73-4.92c1.36-7.51,1.89-12.35,1.57-14.51c0.73-2.48,2.43-3.72,5.08-3.72c1.05,0,2.07,0.43,3.07,1.28
			c1,0.86,1.49,2.26,1.49,4.22c0,3.21-0.72,7.23-2.15,12.05c-1.92,6.46-2.88,12.19-2.88,17.18c0,2.72,0.2,4.84,0.6,6.34
			c0.4,1.5,1.3,2.25,2.7,2.25c4.61,0,9.81-4.09,15.59-12.26c5.78-8.17,10.36-16.69,13.75-25.57c1.5-4.02,3.39-6.02,5.66-6.02
			c1.47,0,2.64,0.52,3.51,1.55c0.87,1.03,1.31,2.1,1.31,3.22c0,2.44-0.86,5.92-2.57,10.43c-3.25,8.63-4.87,15.98-4.87,22.06
			c0,5.73,1.33,8.59,3.98,8.59c1.19,0,2.65-0.42,4.37-1.26c1.73-0.84,3.87-2.54,6.42-5.11c2.55-2.57,5.04-5.73,7.47-9.48
			c2.43-3.75,3.96-6.48,4.58-8.17c0.63-1.69,1.9-5.68,3.83-11.97c1.22-4.09,2.35-6.85,3.38-8.3c1.03-1.45,2.37-2.17,4.01-2.17
			c2.38,0,3.56,1.57,3.56,4.72c0,0.38-0.33,1.66-1,3.82c-0.98,3.35-1.8,7.61-2.46,12.76c-0.66,5.15-1,9.4-1,12.76
			c0,8.17,1.34,13.46,4.03,15.87c1.4,1.29,2.1,2.34,2.1,3.14c0,0.98-0.71,1.87-2.12,2.67c-1.41,0.8-2.7,1.2-3.85,1.2
			c-2.45,0-4.42-1.82-5.92-5.45c-1.5-3.63-2.25-8.99-2.25-16.08v-1.73C1204.45,1392.91,1204.47,1392.34,1204.5,1391.74z"/>
		<path d="M1270.56,1373.09c-3.25,0.07-10.2,9.69-20.85,28.87c-3.6,6.46-5.69,9.98-6.29,10.56c-0.59,0.58-1.69,1.09-3.27,1.55
			c-1.59,0.45-2.91,0.68-3.96,0.68c-2.34,0-3.51-4.56-3.51-13.67c0-5.13,1.1-14.42,3.3-27.87c0.91-5.45,1.36-9.34,1.36-11.68
			c0-2.31,1.03-3.46,3.09-3.46c3.88,0,5.82,2.79,5.82,8.38c0,2.62-0.65,7.75-1.94,15.4c-1.5,8.73-2.27,14.04-2.31,15.93
			c2.17-2.1,5.34-6.69,9.54-13.78c5.94-9.71,10.31-15.87,13.12-18.47c2.81-2.6,5.72-3.9,8.72-3.9c2.27,0,4.08,1.52,5.42,4.56
			c1.34,3.04,2.16,10.29,2.44,21.74c0.07,2.86,0.33,5,0.79,6.39c0.45,1.4,0.79,2.1,1,2.1c1.64,0,5.2-5.59,10.69-16.77
			c2.93-5.9,5.79-10.39,8.57-13.46c2.78-3.07,5.86-4.61,9.25-4.61c2.83,0,4.89,1.46,6.18,4.37c1.29,2.92,2.22,7.24,2.78,12.97
			c0.52,5.8,1.34,11.11,2.44,15.93c1.1,4.82,3.12,7.91,6.05,9.27c1.99,0.94,2.99,2.04,2.99,3.3c0,1.22-0.84,2.48-2.52,3.77
			c-1.68,1.29-3.21,1.94-4.61,1.94c-2.79,0-5.29-1.71-7.49-5.13c-2.2-3.42-3.86-10.83-4.98-22.21c-0.49-4.58-0.96-7.82-1.41-9.74
			c-0.45-1.92-1.17-2.88-2.15-2.88c-1.47,0-3.21,1.4-5.21,4.19c-2.01,2.79-5.25,8.47-9.72,17.03c-3.49,6.67-6.14,11.12-7.94,13.33
			c-1.8,2.22-3.54,3.33-5.21,3.33c-1.5,0-2.85-0.6-4.03-1.81c-1.19-1.2-1.94-2.65-2.25-4.35c-0.31-1.69-0.65-5.86-1-12.5
			C1272.92,1381.33,1271.96,1374.91,1270.56,1373.09z"/>
		<path d="M1380.01,1396.04c-5.31,5-10.62,8.91-15.93,11.74c-5.31,2.83-9.38,4.24-12.21,4.24c-3.25,0-5.84-1.39-7.78-4.17
			c-1.94-2.78-2.91-6.19-2.91-10.24c0-5.9,1.13-12.88,3.38-20.93c2.25-8.05,3.97-12.62,5.16-13.7c1.19-1.08,2.76-1.62,4.72-1.62
			c1.05,0,1.87,0.62,2.46,1.86c0.59,1.24,0.89,2.51,0.89,3.8c0,0.87-0.4,2.01-1.21,3.41c-4.58,7.93-6.86,16.12-6.86,24.57
			c0,1.96,0.37,3.68,1.1,5.16c0.73,1.49,1.85,2.23,3.35,2.23c1.92,0,4.29-0.58,7.1-1.75c2.81-1.17,5.98-3.08,9.51-5.74
			c3.53-2.65,5.9-4.8,7.13-6.44c1.22-1.64,2.09-3.51,2.59-5.61c0.51-2.1,0.86-6.64,1.07-13.62c0.21-6.98,1.9-10.48,5.08-10.48
			c1.89,0,3.11,0.5,3.67,1.49c0.56,1,0.84,2.89,0.84,5.68c0,2.1-0.31,6.64-0.94,13.62c-0.14,1.57-0.23,3.02-0.26,4.35
			c-1.01,18.65-3.81,33.27-8.38,43.85c-4.58,10.58-11.23,15.87-19.96,15.87c-6.85,0-12.93-1.79-18.26-5.37
			c-5.33-3.58-7.99-6.61-7.99-9.09c0-1.15,0.27-2.29,0.81-3.41c0.54-1.12,1.23-1.68,2.07-1.68c0.42,0,0.87,0.33,1.36,1
			c4.58,7.02,11.61,10.53,21.11,10.53c6.04,0,10.56-3.69,13.57-11.08S1379.21,1407.63,1380.01,1396.04z"/>
		<path d="M1414.8,1408.45c-1.71,6.29-3.32,15.11-4.82,26.46l-1.47,9.9c-0.24,1.4-0.89,2.78-1.94,4.17
			c-1.05,1.38-2.01,2.07-2.88,2.07c-1.08,0-2.31-0.55-3.69-1.65c-1.38-1.1-2.07-1.98-2.07-2.65c0-1.92,0.44-4.58,1.31-7.96
			c6.39-25.81,9.59-48.48,9.59-68l-0.05-4.4c-0.07-3.77,0.59-6.51,1.99-8.23c1.4-1.71,3-2.57,4.82-2.57c0.84,0,1.64,0.66,2.41,1.96
			c0.77,1.31,1.15,3.17,1.15,5.58c0,3.39-0.35,7.49-1.05,12.31c-0.91,6.08-1.38,9.57-1.41,10.48c5.2-9.08,10.72-16.17,16.55-21.27
			c5.83-5.1,11.25-7.65,16.24-7.65c3.53,0,6.5,1.32,8.93,3.96c2.43,2.64,3.64,5.91,3.64,9.82c0,11.39-4.37,21.73-13.1,31.02
			c-8.73,9.29-17.24,13.94-25.51,13.94c-2.06,0-3.69-0.52-4.9-1.57S1416.09,1411.21,1414.8,1408.45z M1447.33,1366.28
			c-4.92,0-11.02,4.61-18.28,13.83s-10.9,16.4-10.9,21.53c0,1.26,0.71,2.48,2.15,3.67c1.43,1.19,3.25,1.78,5.45,1.78
			c4.99,0,10.74-3.69,17.24-11.08c6.5-7.39,9.74-14.64,9.74-21.77c0-2.55-0.52-4.51-1.54-5.89
			C1450.15,1366.97,1448.87,1366.28,1447.33,1366.28z"/>
		<path d="M1540.9,1368.64c-2.83,4.54-6.81,12.23-11.95,23.05c-1.15,2.45-2.32,4.8-3.51,7.07c-0.38,0.73-1.12,2.36-2.2,4.87
			c-3.67,8.52-6.86,12.78-9.59,12.78c-2.17,0-3.75-0.26-4.74-0.79c-1-0.52-1.95-1.96-2.86-4.3c-0.91-2.34-2.25-7.84-4.03-16.5
			c-2.06-9.81-3.46-15.86-4.19-18.13c-2.38,5.34-4.49,10.5-6.34,15.46c-2.79,7.3-5.5,13.25-8.12,17.84
			c-2.62,4.59-4.5,7.35-5.66,8.28c-1.15,0.92-2.25,1.39-3.3,1.39c-1.08,0-2.06-0.42-2.93-1.26s-1.31-1.66-1.31-2.46
			c0.21-1.43,0.45-2.32,0.73-2.67c3.04-3.74,5.66-7.72,7.86-11.95c2.2-4.23,5-10.56,8.41-19.02c3.41-8.45,5.58-15.38,6.52-20.8
			c0.45-2.31,2.15-3.46,5.08-3.46c1.71,0,2.88,0.26,3.51,0.79c0.63,0.52,1.25,1.59,1.86,3.2c0.61,1.61,0.97,3.04,1.07,4.3
			c0.21,1.5,0.8,4.84,1.78,10.01c0.87,4.86,1.45,8.3,1.73,10.32c0.49,2.9,1.35,6.71,2.59,11.42c1.24,4.72,2.21,7.07,2.91,7.07
			c0.49,0,1.19-1.06,2.1-3.2l4.4-10.16c0.8-1.85,1.66-3.67,2.57-5.45l6.03-12.31c3.28-6.78,5.81-11.69,7.57-14.75
			c1.76-3.06,2.95-4.9,3.56-5.53c0.61-0.63,1.3-0.94,2.07-0.94c1.33,0,2.81,0.36,4.45,1.07c1.64,0.72,2.5,1.51,2.57,2.38
			c0.07,0.87,0.23,4.52,0.47,10.95l0.68,16.35c0.21,5.2,0.52,9.63,0.94,13.28c0.42,3.65,1.15,6.59,2.2,8.83
			c1.64,3.56,2.46,6.32,2.46,8.28c0,1.68-0.69,2.83-2.07,3.46c-1.38,0.63-2.66,0.94-3.85,0.94c-2.45,0-4.32-1.96-5.63-5.87
			c-1.31-3.91-2.26-15.12-2.86-33.63C1541.69,1373.3,1541.35,1369.9,1540.9,1368.64z"/>
		<path class="st21" d="M470.53,1475.91v-0.9c0-2.67,0.25-4.96,0.75-6.88c0.5-1.92,1.47-4.45,2.9-7.59c1.94-4.2,3.38-6.86,4.3-7.98
			c0.42-0.53,1.98-2.02,4.69-4.47c1.65-1.51,2.89-2.44,3.71-2.79c0.82-0.35,1.48-0.53,1.99-0.53c0.78,0,1.17,0.47,1.17,1.42
			c0,0.62-1.31,2.18-3.92,4.69c-3.54,3.32-6.4,7.22-8.58,11.69c-2.18,4.47-3.27,8.35-3.27,11.66c0,1.58,0.44,4.63,1.33,9.15
			c0.11,0.56,0.18,0.99,0.22,1.28c0.6,2.94,1.31,5.15,2.13,6.62s2.12,2.98,3.9,4.52c1.94,1.67,2.92,2.98,2.92,3.92
			c0,1.05-0.89,1.58-2.67,1.58c-1.09,0-2.37-0.83-3.83-2.48c-1.46-1.65-2.78-3.36-3.95-5.11c-1.17-1.75-2.09-4.64-2.76-8.66
			C470.86,1481.03,470.53,1477.98,470.53,1475.91z"/>
		<path class="st21" d="M515.4,1455.78c-0.65-2.83-1.46-4.81-2.42-5.94c-0.96-1.13-2.23-2-3.81-2.62c-1.58-0.62-3.01-0.93-4.28-0.93
			c-0.49,0-1.21,0.19-2.17,0.56c-0.95,0.37-1.68,0.71-2.19,1.02c-0.71,0.42-1.36,0.63-1.96,0.63c-0.69,0-1.04-0.36-1.04-1.09
			c0-0.78,0.59-1.86,1.77-3.24c1.18-1.38,3.26-2.07,6.24-2.07h1.17c2.96,0,5.58,0.78,7.85,2.33s3.88,3.77,4.84,6.66
			c0.95,2.89,1.43,6.77,1.43,11.63c0,3.31-1.04,7.31-3.13,12.01s-4.75,8.26-7.97,10.68c-3.22,2.42-6.65,3.62-10.28,3.62
			c-1.31,0-2.53-0.75-3.68-2.26s-1.72-3.38-1.72-5.61c0-4.12,0.9-7.76,2.71-10.91c1.81-3.15,3.83-5.71,6.08-7.67
			c2.24-1.96,5.34-3.54,9.3-4.74c1.31-0.38,2.2-0.68,2.67-0.9C515.27,1456.74,515.47,1456.34,515.4,1455.78z M516.13,1461.34
			c-4.2,0.85-7.41,2.21-9.64,4.06c-5.05,4.72-7.57,10.02-7.57,15.88c0,0.78,0.14,1.51,0.41,2.19c0.27,0.68,0.58,1.02,0.93,1.02
			c1.34,0,2.57-0.24,3.68-0.71c1.11-0.47,2.46-1.46,4.06-2.96c1.6-1.5,3.05-3.35,4.34-5.57c1.3-2.22,2.24-4.35,2.83-6.4
			c0.59-2.05,0.9-3.63,0.94-4.73C516.14,1463.03,516.15,1462.1,516.13,1461.34z"/>
		<path class="st21" d="M529.34,1484.33c-0.89,3.27-1.73,7.85-2.51,13.76l-0.76,5.15c-0.13,0.73-0.46,1.45-1.01,2.17
			s-1.04,1.08-1.5,1.08c-0.56,0-1.2-0.29-1.92-0.86c-0.72-0.57-1.08-1.03-1.08-1.38c0-1,0.23-2.38,0.68-4.14
			c3.32-13.42,4.99-25.21,4.99-35.36l-0.03-2.29c-0.04-1.96,0.31-3.39,1.04-4.28c0.73-0.89,1.56-1.33,2.51-1.33
			c0.44,0,0.85,0.34,1.25,1.02s0.6,1.65,0.6,2.9c0,1.76-0.18,3.9-0.54,6.4c-0.47,3.16-0.72,4.98-0.74,5.45
			c2.71-4.72,5.58-8.41,8.61-11.06c3.03-2.65,5.85-3.98,8.45-3.98c1.83,0,3.38,0.69,4.65,2.06c1.26,1.37,1.89,3.07,1.89,5.11
			c0,5.92-2.27,11.3-6.81,16.13c-4.54,4.83-8.96,7.25-13.27,7.25c-1.07,0-1.92-0.27-2.55-0.82
			C530.67,1486.76,530.02,1485.77,529.34,1484.33z M546.26,1462.4c-2.56,0-5.73,2.4-9.51,7.19c-3.78,4.79-5.67,8.53-5.67,11.2
			c0,0.65,0.37,1.29,1.12,1.91c0.74,0.62,1.69,0.93,2.83,0.93c2.6,0,5.58-1.92,8.96-5.76s5.07-7.61,5.07-11.32
			c0-1.33-0.27-2.35-0.8-3.06C547.73,1462.76,547.06,1462.4,546.26,1462.4z"/>
		<path class="st21" d="M578.52,1477.58c-2.54,3.41-5.06,5.98-7.55,7.68c-2.49,1.71-4.77,2.56-6.84,2.56c-1.4,0-2.61-0.59-3.62-1.77
			c-1.02-1.18-1.53-2.7-1.53-4.55c0-4.78,2.13-9.92,6.4-15.43c4.27-5.51,8.51-8.27,12.72-8.27c1.53,0,2.66,0.87,3.41,2.62
			c0.24,0.58,0.61,0.87,1.12,0.87c1.45,0,2.18,0.56,2.18,1.69c0,0.56-0.09,1.33-0.27,2.32c-0.98,5.36-1.47,9.14-1.47,11.33
			c0,4.4,0.83,7.03,2.51,7.9c0.8,0.44,1.2,0.97,1.2,1.61c0,0.56-0.39,1.13-1.17,1.7c-0.78,0.57-1.54,0.86-2.26,0.86
			c-1.4,0-2.55-0.96-3.46-2.89C578.97,1483.88,578.52,1481.14,578.52,1477.58z M576.86,1462.24c-2.4,0-5.19,2.25-8.36,6.74
			c-3.18,4.5-4.77,8.22-4.77,11.18c0,2.09,0.69,3.13,2.07,3.13c2,0,4.77-2.02,8.31-6.05c3.54-4.03,5.31-7.74,5.31-11.12
			C579.42,1463.54,578.56,1462.24,576.86,1462.24z"/>
		<path class="st21" d="M592.28,1482.78l-0.05-0.57c-0.18-1.83,0.39-3.76,1.7-5.78c1.32-2.02,4.63-4.36,9.93-7.03
			c3.38-1.71,5.07-3.26,5.07-4.66c0-0.74-0.31-1.32-0.93-1.72c-0.62-0.4-1.15-0.6-1.61-0.6c-1.36,0-3.98,0.96-7.85,2.89
			c-0.31,0.16-0.49,0.25-0.54,0.25c-1.49,0-2.23-0.53-2.23-1.58c0-1.71,1.47-3.13,4.41-4.26c2.94-1.13,5.5-1.7,7.68-1.7
			c1.36,0,2.79,0.54,4.28,1.62s2.23,2.53,2.23,4.35c0,1.49-0.48,2.92-1.44,4.3c-0.96,1.38-3.37,3.13-7.22,5.26
			c-3.16,1.74-5.3,3.18-6.42,4.3c-1.12,1.13-1.68,2.4-1.68,3.81c0,1.04,0.48,1.72,1.44,2.04c0.96,0.33,1.69,0.49,2.18,0.49
			c3.41,0,6.46-0.71,9.15-2.13c0.93-0.47,1.62-0.71,2.07-0.71c0.94,0,1.42,0.53,1.42,1.58c0,1.6-1.29,2.93-3.87,4
			c-2.58,1.07-5.85,1.61-9.81,1.61c-1.89,0-3.64-0.54-5.26-1.62C593.33,1485.85,592.44,1484.47,592.28,1482.78z"/>
		<path class="st21" d="M627.94,1488.85c-2.49,0-4.54-0.94-6.16-2.83c-1.62-1.89-2.42-4.22-2.42-7c0-4.69,1.58-9.3,4.73-13.85
			c3.15-4.55,6.92-6.82,11.32-6.82c2.91,0,5.26,1.12,7.07,3.35c1.81,2.23,2.71,4.9,2.71,7.98c0,4.72-1.87,9.1-5.6,13.13
			C635.85,1486.84,631.97,1488.85,627.94,1488.85z M624.15,1478.31c0,1.83,0.38,3.33,1.16,4.49c0.77,1.16,1.79,1.74,3.07,1.74
			c2.71,0,5.42-1.48,8.15-4.45c2.72-2.97,4.09-6.27,4.09-9.9c0-2.23-0.52-4.05-1.57-5.44c-1.04-1.39-2.45-2.08-4.21-2.08
			c-2.92,0-5.43,1.79-7.53,5.38C625.2,1471.64,624.15,1475.06,624.15,1478.31z"/>
		<path class="st21" d="M671.5,1475.07c0.04-0.4,0.06-0.64,0.08-0.74c-2.51,4.14-5.08,7.44-7.71,9.9c-2.63,2.46-4.98,3.69-7.03,3.69
			c-1.2,0-2.42-0.7-3.66-2.1s-1.87-3.55-1.87-6.46c0-2.38,0.57-5.88,1.72-10.52c0.96-3.87,1.44-6.58,1.44-8.15
			c0.53-1.09,1.35-1.63,2.48-1.63c0.76,0,1.37,0.27,1.83,0.8c0.45,0.54,0.68,1.09,0.68,1.68c0,1.27-0.45,3.08-1.33,5.42
			c-1.69,4.56-2.53,8.47-2.53,11.74c0,2.98,0.69,4.47,2.07,4.47c1.76,0,4-1.5,6.73-4.5c2.72-3,5.06-7.17,7-12.53
			c0.74-2.07,1.35-3.44,1.83-4.1s1.1-1.01,1.88-1.05h0.27c0.85,0,1.42,0.19,1.69,0.57s0.41,1.15,0.41,2.32
			c0,0.74-0.21,2.04-0.63,3.9c-1.22,5.29-1.92,10.54-2.12,15.77c0.07,0.53,0.25,0.79,0.54,0.79c0.05,0,0.15-0.03,0.27-0.08
			c0.8-0.53,1.62-0.79,2.45-0.79c1.31,0,2.01,0.69,2.1,2.07l0.19,1.72c0,1.8-0.58,4.2-1.74,7.22c-1.16,3.01-2.63,4.52-4.41,4.52
			c-0.53,0-0.79-0.29-0.79-0.87c0-0.47,0.39-1.93,1.17-4.39c0.76-2.42,1.14-4.03,1.14-4.85c0-0.67-0.13-1.01-0.38-1.01
			c-0.02,0-0.42,0.18-1.2,0.53c-0.78,0.35-1.28,0.53-1.5,0.53c-0.95,0-1.62-0.29-2.02-0.87s-0.6-1.75-0.6-3.51
			C669.95,1482.85,670.46,1479.68,671.5,1475.07z"/>
		<path class="st21" d="M707.57,1478.26c0,1.85-1.64,4.09-4.92,6.7c-3.28,2.62-6.66,3.92-10.15,3.92c-2.92,0-5.18-0.86-6.77-2.59
			c-1.59-1.73-2.38-4.13-2.38-7.22c0-5.19,1.75-10.13,5.26-14.82c3.5-4.69,7.34-7.03,11.5-7.03c1.36,0,2.47,0.45,3.34,1.33
			c0.86,0.89,1.29,1.96,1.29,3.21c0,2.8-1.37,5.48-4.11,8.04c-2.74,2.56-6.41,5.08-11.01,7.55c-0.94,0.49-1.42,1.13-1.42,1.91
			c0,1.51,0.44,2.72,1.31,3.62c0.87,0.91,2.16,1.36,3.87,1.36c3.9,0,7.89-2.16,11.96-6.48c0.6-0.6,1.05-0.9,1.36-0.9
			C707.28,1476.87,707.57,1477.33,707.57,1478.26z M688.63,1474.01c7.7-4.58,11.55-8.25,11.55-11.03c0-1.09-0.49-1.63-1.47-1.63
			c-1.67,0-3.56,1.23-5.65,3.68C690.96,1467.47,689.49,1470.47,688.63,1474.01z"/>
		<path class="st21" d="M733.31,1469.7c0.2-0.38,0.52-2.66,0.95-6.84c0.33-3.34,1.39-5.01,3.19-5.01c1.47,0,2.21,0.74,2.21,2.21
			c0,0.35-0.13,1.04-0.38,2.1c-1.4,5.79-2.1,10.65-2.1,14.57c0,4.25,0.7,7,2.1,8.25c0.73,0.67,1.09,1.22,1.09,1.63
			c0,0.51-0.37,0.97-1.1,1.39c-0.74,0.42-1.4,0.63-2,0.63c-2.83,0-4.25-4.38-4.25-13.13c0-0.58-0.22-0.87-0.65-0.87
			c-1.71,0-3.8,0.1-6.27,0.3c-2.47,0.2-4.24,0.45-5.3,0.76c-1.06,0.31-1.72,0.6-1.96,0.86s-0.46,0.96-0.65,2.1
			c-0.19,1.14-0.29,2.31-0.29,3.53v3.35c0,1.94-0.89,2.92-2.67,2.92c-1.49,0-2.23-0.97-2.23-2.92c0-1.27,0.16-2.89,0.49-4.85
			c0.6-3.6,1.2-9.79,1.8-18.58c0.07-1.14,0.17-1.87,0.3-2.18c0.13-0.31,0.46-0.65,0.99-1.02c0.54-0.37,1.12-0.56,1.76-0.56
			c1.31,0,1.96,0.54,1.96,1.61c0,0.16-0.21,1.53-0.63,4.09c-0.44,2.56-0.65,4.55-0.65,5.97c0,1,0.34,1.5,1.04,1.5
			c1.38,0,3.9-0.23,7.57-0.69C731.29,1470.34,733.18,1469.98,733.31,1469.7z"/>
		<path class="st21" d="M766.14,1469.7c0.2-0.38,0.52-2.66,0.95-6.84c0.33-3.34,1.39-5.01,3.19-5.01c1.47,0,2.21,0.74,2.21,2.21
			c0,0.35-0.13,1.04-0.38,2.1c-1.4,5.79-2.1,10.65-2.1,14.57c0,4.25,0.7,7,2.1,8.25c0.73,0.67,1.09,1.22,1.09,1.63
			c0,0.51-0.37,0.97-1.1,1.39c-0.74,0.42-1.4,0.63-2,0.63c-2.83,0-4.25-4.38-4.25-13.13c0-0.58-0.22-0.87-0.65-0.87
			c-1.71,0-3.8,0.1-6.27,0.3c-2.47,0.2-4.24,0.45-5.3,0.76c-1.06,0.31-1.72,0.6-1.96,0.86s-0.46,0.96-0.65,2.1
			c-0.19,1.14-0.29,2.31-0.29,3.53v3.35c0,1.94-0.89,2.92-2.67,2.92c-1.49,0-2.23-0.97-2.23-2.92c0-1.27,0.16-2.89,0.49-4.85
			c0.6-3.6,1.2-9.79,1.8-18.58c0.07-1.14,0.17-1.87,0.3-2.18c0.13-0.31,0.46-0.65,0.99-1.02c0.54-0.37,1.12-0.56,1.76-0.56
			c1.31,0,1.96,0.54,1.96,1.61c0,0.16-0.21,1.53-0.63,4.09c-0.44,2.56-0.65,4.55-0.65,5.97c0,1,0.34,1.5,1.04,1.5
			c1.38,0,3.9-0.23,7.57-0.69C764.11,1470.34,766.01,1469.98,766.14,1469.7z"/>
		<path class="st21" d="M785.24,1456.63c0.24-0.16,0.5-0.25,0.79-0.25c0.45,0,0.84,0.61,1.14,1.83c0,0.78-0.21,1.77-0.63,2.97
			c-1.24,3.43-1.85,5.83-1.85,7.19c0,0.36,0.11,0.56,0.33,0.6c4.18-4.01,8.05-6.02,11.61-6.02c2.2,0,4.04,0.83,5.53,2.49
			s2.23,3.18,2.23,4.56c0,4.21-2.15,8.26-6.44,12.14s-8.62,5.82-12.98,5.82c-1.94,0-3.46-0.8-4.54-2.41
			c-1.08-1.61-1.62-3.91-1.62-6.91c0-3.25,0.41-6.85,1.23-10.79c0.82-3.94,1.47-6.57,1.96-7.9c0.2-0.56,0.38-1.14,0.54-1.72
			C782.72,1457.51,783.62,1456.97,785.24,1456.63z M783.96,1473.71c-0.36,2.02-0.54,4.03-0.54,6.05c0,2.74,1.08,4.11,3.24,4.11
			c2.43,0,5.16-1.45,8.17-4.36c3.01-2.91,4.52-5.73,4.52-8.47c0-1.13-0.3-2.07-0.9-2.83c-0.6-0.76-1.43-1.14-2.48-1.14
			c-1.44,0-2.85,0.36-4.24,1.08c-1.39,0.72-2.94,1.88-4.65,3.47c-0.65,0.62-1.18,1.09-1.57,1.43
			C785.13,1473.38,784.61,1473.6,783.96,1473.71z M811.39,1479.97c0,1.38,0.19,2.93,0.57,4.66c0.07,0.33,0.11,0.6,0.11,0.82
			c0,0.33-0.3,0.75-0.9,1.27s-1.24,0.78-1.91,0.78c-1.76,0-2.64-1.62-2.64-4.85c0-3.21,0.7-8.61,2.1-16.18
			c0.51-2.76,0.76-4.43,0.76-5.01c0-1.14,0.21-2.12,0.63-2.93c0.42-0.81,1.01-1.21,1.77-1.21c0.93,0,1.66,0.22,2.19,0.67
			c0.54,0.45,0.8,0.94,0.8,1.48s-0.13,1.3-0.38,2.26c-1.42,5.18-2.29,8.8-2.62,10.87C811.56,1474.66,811.39,1477.12,811.39,1479.97z
			"/>
		<path class="st21" d="M843.65,1478.26c0,1.85-1.64,4.09-4.92,6.7c-3.28,2.62-6.66,3.92-10.15,3.92c-2.92,0-5.18-0.86-6.77-2.59
			c-1.59-1.73-2.38-4.13-2.38-7.22c0-5.19,1.75-10.13,5.26-14.82c3.5-4.69,7.34-7.03,11.5-7.03c1.36,0,2.47,0.45,3.34,1.33
			c0.86,0.89,1.29,1.96,1.29,3.21c0,2.8-1.37,5.48-4.11,8.04c-2.74,2.56-6.41,5.08-11.01,7.55c-0.94,0.49-1.42,1.13-1.42,1.91
			c0,1.51,0.44,2.72,1.31,3.62c0.87,0.91,2.16,1.36,3.87,1.36c3.9,0,7.89-2.16,11.96-6.48c0.6-0.6,1.05-0.9,1.36-0.9
			C843.36,1476.87,843.65,1477.33,843.65,1478.26z M824.71,1474.01c7.7-4.58,11.55-8.25,11.55-11.03c0-1.09-0.49-1.63-1.47-1.63
			c-1.67,0-3.56,1.23-5.65,3.68C827.04,1467.47,825.57,1470.47,824.71,1474.01z"/>
		<path class="st21" d="M877.18,1473.16c4.3-0.74,8.16-3.52,11.58-8.34c1.6-2.23,3-3.82,4.21-4.75c1.21-0.94,2.49-1.4,3.85-1.4
			c0.54,0,1.09,0.25,1.63,0.74c0.54,0.49,0.82,1.07,0.82,1.74c0,0.89-0.84,1.59-2.53,2.1c-0.89,0.27-1.73,0.74-2.51,1.39
			c-0.78,0.65-2.26,2.22-4.44,4.69c-1.71,1.93-3.24,3.28-4.6,4.06c-0.13,0.07-0.19,0.14-0.19,0.19c0,0.07,0.08,0.15,0.25,0.22
			c1.33,0.71,2.72,2.08,4.2,4.11c2.14,2.96,3.75,4.83,4.82,5.6c1.07,0.77,2.3,1.16,3.68,1.16l0.9-0.03
			c0.64-0.04,0.95,0.25,0.95,0.84c0,0.69-0.39,1.41-1.17,2.15s-2.07,1.12-3.87,1.12c-1.38,0-2.72-0.6-4.02-1.78
			s-2.78-3.12-4.45-5.79c-0.96-1.58-1.86-2.78-2.7-3.6c-0.84-0.82-1.76-1.23-2.78-1.23c-0.22,0-0.89,0.18-2.02,0.54
			c-1.13,0.36-1.76,0.71-1.89,1.05c-0.14,0.34-0.24,1.54-0.3,3.62c-0.06,2.08-0.1,3.76-0.1,5.03c0,0.67-0.32,1.27-0.95,1.8
			c-0.64,0.53-1.33,0.79-2.07,0.79c-0.76,0-1.36-0.22-1.8-0.67c-0.44-0.45-0.65-0.9-0.65-1.38c0-0.65,0.25-2.2,0.74-4.63
			c0.87-4.43,1.74-11.74,2.62-21.93c0.07-0.98,0.44-1.87,1.12-2.66c0.67-0.79,1.43-1.19,2.29-1.19c0.47,0,0.87,0.25,1.19,0.76
			c0.32,0.51,0.48,1.16,0.48,1.96c0,0.64-0.11,1.36-0.33,2.18C878.08,1465.4,877.44,1469.24,877.18,1473.16z"/>
		<path class="st21" d="M922.03,1477.58c-2.54,3.41-5.06,5.98-7.55,7.68c-2.49,1.71-4.77,2.56-6.84,2.56c-1.4,0-2.61-0.59-3.62-1.77
			c-1.02-1.18-1.53-2.7-1.53-4.55c0-4.78,2.13-9.92,6.4-15.43c4.27-5.51,8.51-8.27,12.72-8.27c1.53,0,2.66,0.87,3.41,2.62
			c0.24,0.58,0.61,0.87,1.12,0.87c1.45,0,2.18,0.56,2.18,1.69c0,0.56-0.09,1.33-0.27,2.32c-0.98,5.36-1.47,9.14-1.47,11.33
			c0,4.4,0.83,7.03,2.51,7.9c0.8,0.44,1.2,0.97,1.2,1.61c0,0.56-0.39,1.13-1.17,1.7c-0.78,0.57-1.54,0.86-2.26,0.86
			c-1.4,0-2.55-0.96-3.46-2.89C922.48,1483.88,922.03,1481.14,922.03,1477.58z M920.36,1462.24c-2.4,0-5.19,2.25-8.36,6.74
			c-3.18,4.5-4.77,8.22-4.77,11.18c0,2.09,0.69,3.13,2.07,3.13c2,0,4.77-2.02,8.31-6.05c3.54-4.03,5.31-7.74,5.31-11.12
			C922.92,1463.54,922.07,1462.24,920.36,1462.24z"/>
		<path class="st21" d="M971.17,1463.63c-1.47,2.36-3.54,6.36-6.21,11.99c-0.6,1.27-1.21,2.5-1.83,3.68
			c-0.2,0.38-0.58,1.23-1.14,2.53c-1.91,4.43-3.57,6.65-4.99,6.65c-1.13,0-1.95-0.14-2.46-0.41s-1.01-1.02-1.49-2.23
			s-1.17-4.08-2.1-8.58c-1.07-5.1-1.8-8.25-2.18-9.43c-1.23,2.78-2.33,5.46-3.3,8.04c-1.45,3.8-2.86,6.89-4.22,9.28
			s-2.34,3.82-2.94,4.3c-0.6,0.48-1.17,0.72-1.72,0.72c-0.56,0-1.07-0.22-1.53-0.65c-0.45-0.44-0.68-0.86-0.68-1.28
			c0.11-0.74,0.24-1.21,0.38-1.39c1.58-1.94,2.94-4.01,4.09-6.21c1.14-2.2,2.6-5.49,4.37-9.89c1.77-4.4,2.9-8,3.39-10.82
			c0.24-1.2,1.12-1.8,2.64-1.8c0.89,0,1.5,0.14,1.83,0.41c0.33,0.27,0.65,0.83,0.97,1.66c0.32,0.84,0.5,1.58,0.56,2.23
			c0.11,0.78,0.42,2.52,0.93,5.2c0.45,2.52,0.75,4.31,0.9,5.37c0.25,1.51,0.7,3.49,1.35,5.94c0.64,2.45,1.15,3.68,1.51,3.68
			c0.25,0,0.62-0.55,1.09-1.66l2.29-5.29c0.42-0.96,0.86-1.91,1.33-2.83l3.13-6.4c1.71-3.52,3.02-6.08,3.94-7.67
			c0.92-1.59,1.53-2.55,1.85-2.87c0.32-0.33,0.68-0.49,1.08-0.49c0.69,0,1.46,0.19,2.32,0.56c0.85,0.37,1.3,0.79,1.33,1.24
			c0.04,0.45,0.12,2.35,0.25,5.69l0.35,8.5c0.11,2.71,0.27,5.01,0.49,6.91c0.22,1.9,0.6,3.43,1.14,4.59
			c0.85,1.85,1.28,3.29,1.28,4.3c0,0.87-0.36,1.47-1.08,1.8c-0.72,0.33-1.38,0.49-2,0.49c-1.27,0-2.25-1.02-2.93-3.05
			c-0.68-2.03-1.18-7.86-1.48-17.49C971.58,1466.05,971.41,1464.28,971.17,1463.63z"/>
		<path class="st21" d="M1005.25,1469.7c0.2-0.38,0.52-2.66,0.95-6.84c0.33-3.34,1.39-5.01,3.19-5.01c1.47,0,2.21,0.74,2.21,2.21
			c0,0.35-0.13,1.04-0.38,2.1c-1.4,5.79-2.1,10.65-2.1,14.57c0,4.25,0.7,7,2.1,8.25c0.73,0.67,1.09,1.22,1.09,1.63
			c0,0.51-0.37,0.97-1.1,1.39c-0.74,0.42-1.4,0.63-2,0.63c-2.83,0-4.25-4.38-4.25-13.13c0-0.58-0.22-0.87-0.65-0.87
			c-1.71,0-3.8,0.1-6.27,0.3c-2.47,0.2-4.24,0.45-5.3,0.76c-1.06,0.31-1.72,0.6-1.96,0.86s-0.46,0.96-0.65,2.1
			c-0.19,1.14-0.29,2.31-0.29,3.53v3.35c0,1.94-0.89,2.92-2.67,2.92c-1.49,0-2.23-0.97-2.23-2.92c0-1.27,0.16-2.89,0.49-4.85
			c0.6-3.6,1.2-9.79,1.8-18.58c0.07-1.14,0.17-1.87,0.3-2.18c0.13-0.31,0.46-0.65,0.99-1.02c0.54-0.37,1.12-0.56,1.76-0.56
			c1.31,0,1.96,0.54,1.96,1.61c0,0.16-0.21,1.53-0.63,4.09c-0.44,2.56-0.65,4.55-0.65,5.97c0,1,0.34,1.5,1.04,1.5
			c1.38,0,3.9-0.23,7.57-0.69C1003.23,1470.34,1005.13,1469.98,1005.25,1469.7z"/>
		<path class="st21" d="M1037.26,1475.64c-2.32,3.9-4.7,6.93-7.14,9.07c-2.43,2.14-4.69,3.21-6.78,3.21c-1.2,0-2.42-0.7-3.66-2.1
			s-1.87-3.55-1.87-6.46c0-2.38,0.57-5.88,1.72-10.52c0.96-3.87,1.44-6.58,1.44-8.15c0.53-1.09,1.35-1.63,2.48-1.63
			c0.76,0,1.37,0.27,1.83,0.8c0.45,0.54,0.68,1.09,0.68,1.68c0,1.27-0.45,3.08-1.33,5.42c-1.69,4.56-2.53,8.47-2.53,11.74
			c0,2.98,0.69,4.47,2.07,4.47c1.76,0,4-1.5,6.73-4.5c2.72-3,5.06-7.17,7-12.53c0.76-2.14,1.38-3.54,1.87-4.18
			c0.48-0.64,1.13-0.97,1.95-0.97c1.23,0,1.85,0.82,1.85,2.45c0,0.2-0.17,0.86-0.52,1.99c-1.09,3.98-1.63,7.74-1.63,11.28
			c0,4.25,0.7,7,2.1,8.25c0.73,0.67,1.09,1.22,1.09,1.63c0,0.51-0.37,0.97-1.1,1.39c-0.74,0.42-1.4,0.63-2,0.63
			c-1.27,0-2.3-0.94-3.08-2.83s-1.17-4.68-1.17-8.36v-0.9C1037.24,1476.25,1037.25,1475.95,1037.26,1475.64z"/>
		<path class="st21" d="M1095.1,1455.78c-0.65-2.83-1.46-4.81-2.42-5.94c-0.96-1.13-2.23-2-3.81-2.62
			c-1.58-0.62-3.01-0.93-4.28-0.93c-0.49,0-1.21,0.19-2.17,0.56c-0.95,0.37-1.68,0.71-2.19,1.02c-0.71,0.42-1.36,0.63-1.96,0.63
			c-0.69,0-1.04-0.36-1.04-1.09c0-0.78,0.59-1.86,1.77-3.24c1.18-1.38,3.26-2.07,6.24-2.07h1.17c2.96,0,5.58,0.78,7.85,2.33
			s3.88,3.77,4.84,6.66c0.95,2.89,1.43,6.77,1.43,11.63c0,3.31-1.04,7.31-3.13,12.01s-4.75,8.26-7.97,10.68
			c-3.22,2.42-6.65,3.62-10.28,3.62c-1.31,0-2.53-0.75-3.68-2.26s-1.72-3.38-1.72-5.61c0-4.12,0.9-7.76,2.71-10.91
			c1.81-3.15,3.83-5.71,6.08-7.67c2.24-1.96,5.34-3.54,9.3-4.74c1.31-0.38,2.2-0.68,2.67-0.9
			C1094.97,1456.74,1095.17,1456.34,1095.1,1455.78z M1095.84,1461.34c-4.2,0.85-7.41,2.21-9.64,4.06
			c-5.05,4.72-7.57,10.02-7.57,15.88c0,0.78,0.14,1.51,0.41,2.19c0.27,0.68,0.58,1.02,0.93,1.02c1.34,0,2.57-0.24,3.68-0.71
			c1.11-0.47,2.46-1.46,4.06-2.96c1.6-1.5,3.05-3.35,4.34-5.57c1.3-2.22,2.24-4.35,2.83-6.4c0.59-2.05,0.9-3.63,0.94-4.73
			C1095.85,1463.03,1095.85,1462.1,1095.84,1461.34z"/>
		<path class="st21" d="M1119.07,1465.29c-0.44-0.02-0.86,0.4-1.28,1.25c-3.76,7.52-6.6,12.62-8.53,15.31
			c-0.16,0.24-0.37,0.58-0.63,1.04c-2.27,4.05-3.93,6.08-4.99,6.08c-1.42,0-2.13-0.68-2.13-2.04c0-1.23,0.88-2.92,2.64-5.04
			c1.71-2.02,3.95-5.43,6.73-10.26c2.78-4.82,5.03-9.15,6.76-12.98c0.33-0.69,0.82-1.04,1.47-1.04c0.27,0,0.76,0.12,1.46,0.37
			c0.7,0.25,1.15,0.51,1.35,0.8c0.2,0.29,0.64,1.98,1.33,5.07c2.23,11.13,4.58,17.74,7.06,19.81c0.58,0.51,0.93,0.85,1.04,1.02
			c0.11,0.17,0.16,0.41,0.16,0.72c0,0.56-0.18,1.08-0.54,1.54c-0.36,0.46-0.72,0.76-1.06,0.89c-0.34,0.13-1.05,0.19-2.13,0.19
			c-0.38,0-1.27-0.94-2.67-2.82c-1.4-1.88-3.03-7.01-4.9-15.38C1119.77,1467.56,1119.38,1466.05,1119.07,1465.29z"/>
		<path class="st21" d="M1161.68,1459.02c0,0.49-0.38,1.57-1.14,3.24c-0.62,1.34-1.25,4.01-1.91,8.01c-0.65,4-0.98,7.24-0.98,9.73
			c0,1.09,0.11,2.55,0.33,4.39c0.09,0.87,0.14,1.6,0.14,2.18c0,0.31-0.27,0.63-0.8,0.95c-0.54,0.33-1.02,0.49-1.46,0.49
			c-1.13,0-1.85-0.25-2.17-0.76c-0.32-0.51-0.48-1.55-0.48-3.13l0.25-8.8c-2.72,2.27-4.67,3.95-5.83,5.04
			c-1.33,1.22-2.25,2.03-2.78,2.42c-2.51,2.02-4.32,3.73-5.45,5.15c-0.18,0.22-0.46,0.44-0.84,0.68c-0.38,0.24-0.65,0.35-0.79,0.35
			c-0.8,0-1.44-0.38-1.93-1.14c-0.49-0.76-0.74-1.34-0.74-1.74c0-0.45,0.93-1.48,2.78-3.08c0.51-0.44,1-0.82,1.47-1.14
			c2.69-1.83,5.36-4.01,8.01-6.54l-2.97,0.03c-0.98-0.07-2.15-0.48-3.5-1.21c-1.35-0.74-2.18-1.56-2.48-2.48
			c-0.3-0.92-0.45-1.78-0.45-2.6c0-2.62,1.41-4.99,4.22-7.11c2.82-2.12,6.21-3.57,10.19-4.33c0.45,0,1.23-0.11,2.34-0.33
			c1.11-0.2,1.73-0.3,1.88-0.3c0.18,0,0.63,0.09,1.33,0.27l0.9-0.16c0.56,0,1.14,0.19,1.74,0.56
			C1161.17,1458.02,1161.54,1458.48,1161.68,1459.02z M1156.21,1461.69c-0.2-0.36-0.43-0.54-0.68-0.54c-2.54,0-5.37,0.79-8.49,2.38
			c-3.12,1.59-4.67,3.53-4.67,5.82c0,0.65,0.4,1.22,1.21,1.69c0.81,0.47,1.97,0.71,3.47,0.71c2.72,0,4.81-0.26,6.27-0.79
			c0.44-0.29,0.79-0.89,1.06-1.8L1156.21,1461.69z"/>
		<path class="st21" d="M1209.82,1455.78c-0.65-2.83-1.46-4.81-2.42-5.94c-0.96-1.13-2.23-2-3.81-2.62
			c-1.58-0.62-3.01-0.93-4.28-0.93c-0.49,0-1.21,0.19-2.17,0.56c-0.95,0.37-1.68,0.71-2.19,1.02c-0.71,0.42-1.36,0.63-1.96,0.63
			c-0.69,0-1.04-0.36-1.04-1.09c0-0.78,0.59-1.86,1.77-3.24c1.18-1.38,3.26-2.07,6.24-2.07h1.17c2.96,0,5.58,0.78,7.85,2.33
			s3.88,3.77,4.84,6.66c0.95,2.89,1.43,6.77,1.43,11.63c0,3.31-1.04,7.31-3.13,12.01s-4.75,8.26-7.97,10.68
			c-3.22,2.42-6.65,3.62-10.28,3.62c-1.31,0-2.53-0.75-3.68-2.26s-1.72-3.38-1.72-5.61c0-4.12,0.9-7.76,2.71-10.91
			c1.81-3.15,3.83-5.71,6.08-7.67c2.24-1.96,5.34-3.54,9.3-4.74c1.31-0.38,2.2-0.68,2.67-0.9
			C1209.69,1456.74,1209.9,1456.34,1209.82,1455.78z M1210.56,1461.34c-4.2,0.85-7.41,2.21-9.64,4.06
			c-5.05,4.72-7.57,10.02-7.57,15.88c0,0.78,0.14,1.51,0.41,2.19c0.27,0.68,0.58,1.02,0.93,1.02c1.34,0,2.57-0.24,3.68-0.71
			c1.11-0.47,2.46-1.46,4.06-2.96c1.6-1.5,3.05-3.35,4.34-5.57c1.3-2.22,2.24-4.35,2.83-6.4c0.59-2.05,0.9-3.63,0.94-4.73
			C1210.57,1463.03,1210.58,1462.1,1210.56,1461.34z"/>
		<path class="st21" d="M1223.77,1484.33c-0.89,3.27-1.73,7.85-2.51,13.76l-0.76,5.15c-0.13,0.73-0.46,1.45-1.01,2.17
			s-1.04,1.08-1.5,1.08c-0.56,0-1.2-0.29-1.92-0.86c-0.72-0.57-1.08-1.03-1.08-1.38c0-1,0.23-2.38,0.68-4.14
			c3.32-13.42,4.99-25.21,4.99-35.36l-0.03-2.29c-0.04-1.96,0.31-3.39,1.04-4.28c0.73-0.89,1.56-1.33,2.51-1.33
			c0.44,0,0.85,0.34,1.25,1.02s0.6,1.65,0.6,2.9c0,1.76-0.18,3.9-0.54,6.4c-0.47,3.16-0.72,4.98-0.74,5.45
			c2.71-4.72,5.58-8.41,8.61-11.06c3.03-2.65,5.85-3.98,8.45-3.98c1.83,0,3.38,0.69,4.65,2.06c1.26,1.37,1.89,3.07,1.89,5.11
			c0,5.92-2.27,11.3-6.81,16.13c-4.54,4.83-8.96,7.25-13.27,7.25c-1.07,0-1.92-0.27-2.55-0.82
			C1225.09,1486.76,1224.44,1485.77,1223.77,1484.33z M1240.69,1462.4c-2.56,0-5.73,2.4-9.51,7.19c-3.78,4.79-5.67,8.53-5.67,11.2
			c0,0.65,0.37,1.29,1.12,1.91c0.74,0.62,1.69,0.93,2.83,0.93c2.6,0,5.58-1.92,8.96-5.76s5.07-7.61,5.07-11.32
			c0-1.33-0.27-2.35-0.8-3.06C1242.16,1462.76,1241.49,1462.4,1240.69,1462.4z"/>
		<path class="st21" d="M1272.94,1477.58c-2.54,3.41-5.06,5.98-7.55,7.68c-2.49,1.71-4.77,2.56-6.84,2.56
			c-1.4,0-2.61-0.59-3.62-1.77c-1.02-1.18-1.53-2.7-1.53-4.55c0-4.78,2.13-9.92,6.4-15.43c4.27-5.51,8.51-8.27,12.72-8.27
			c1.53,0,2.66,0.87,3.41,2.62c0.24,0.58,0.61,0.87,1.12,0.87c1.45,0,2.18,0.56,2.18,1.69c0,0.56-0.09,1.33-0.27,2.32
			c-0.98,5.36-1.47,9.14-1.47,11.33c0,4.4,0.83,7.03,2.51,7.9c0.8,0.44,1.2,0.97,1.2,1.61c0,0.56-0.39,1.13-1.17,1.7
			c-0.78,0.57-1.54,0.86-2.26,0.86c-1.4,0-2.55-0.96-3.46-2.89C1273.4,1483.88,1272.94,1481.14,1272.94,1477.58z M1271.28,1462.24
			c-2.4,0-5.19,2.25-8.36,6.74c-3.18,4.5-4.77,8.22-4.77,11.18c0,2.09,0.69,3.13,2.07,3.13c2,0,4.77-2.02,8.31-6.05
			c3.54-4.03,5.31-7.74,5.31-11.12C1273.84,1463.54,1272.99,1462.24,1271.28,1462.24z"/>
		<path class="st21" d="M1286.7,1482.78l-0.05-0.57c-0.18-1.83,0.39-3.76,1.7-5.78c1.32-2.02,4.63-4.36,9.93-7.03
			c3.38-1.71,5.07-3.26,5.07-4.66c0-0.74-0.31-1.32-0.93-1.72c-0.62-0.4-1.15-0.6-1.61-0.6c-1.36,0-3.98,0.96-7.85,2.89
			c-0.31,0.16-0.49,0.25-0.54,0.25c-1.49,0-2.23-0.53-2.23-1.58c0-1.71,1.47-3.13,4.41-4.26c2.94-1.13,5.5-1.7,7.68-1.7
			c1.36,0,2.79,0.54,4.28,1.62s2.23,2.53,2.23,4.35c0,1.49-0.48,2.92-1.44,4.3c-0.96,1.38-3.37,3.13-7.22,5.26
			c-3.16,1.74-5.3,3.18-6.42,4.3c-1.12,1.13-1.68,2.4-1.68,3.81c0,1.04,0.48,1.72,1.44,2.04c0.96,0.33,1.69,0.49,2.18,0.49
			c3.41,0,6.46-0.71,9.15-2.13c0.93-0.47,1.62-0.71,2.07-0.71c0.94,0,1.42,0.53,1.42,1.58c0,1.6-1.29,2.93-3.87,4
			c-2.58,1.07-5.85,1.61-9.81,1.61c-1.89,0-3.64-0.54-5.26-1.62C1287.76,1485.85,1286.87,1484.47,1286.7,1482.78z"/>
		<path class="st21" d="M1322.36,1488.85c-2.49,0-4.54-0.94-6.16-2.83c-1.62-1.89-2.42-4.22-2.42-7c0-4.69,1.58-9.3,4.73-13.85
			c3.15-4.55,6.92-6.82,11.32-6.82c2.91,0,5.26,1.12,7.07,3.35c1.81,2.23,2.71,4.9,2.71,7.98c0,4.72-1.87,9.1-5.6,13.13
			C1330.28,1486.84,1326.4,1488.85,1322.36,1488.85z M1318.58,1478.31c0,1.83,0.38,3.33,1.16,4.49c0.77,1.16,1.79,1.74,3.07,1.74
			c2.71,0,5.42-1.48,8.15-4.45c2.72-2.97,4.09-6.27,4.09-9.9c0-2.23-0.52-4.05-1.57-5.44c-1.04-1.39-2.45-2.08-4.21-2.08
			c-2.92,0-5.43,1.79-7.53,5.38C1319.63,1471.64,1318.58,1475.06,1318.58,1478.31z"/>
		<path class="st21" d="M1365.93,1475.07c0.04-0.4,0.06-0.64,0.08-0.74c-2.51,4.14-5.08,7.44-7.71,9.9
			c-2.63,2.46-4.98,3.69-7.03,3.69c-1.2,0-2.42-0.7-3.66-2.1s-1.87-3.55-1.87-6.46c0-2.38,0.57-5.88,1.72-10.52
			c0.96-3.87,1.44-6.58,1.44-8.15c0.53-1.09,1.35-1.63,2.48-1.63c0.76,0,1.37,0.27,1.83,0.8c0.45,0.54,0.68,1.09,0.68,1.68
			c0,1.27-0.45,3.08-1.33,5.42c-1.69,4.56-2.53,8.47-2.53,11.74c0,2.98,0.69,4.47,2.07,4.47c1.76,0,4-1.5,6.73-4.5
			c2.72-3,5.06-7.17,7-12.53c0.74-2.07,1.35-3.44,1.83-4.1s1.1-1.01,1.88-1.05h0.27c0.85,0,1.42,0.19,1.69,0.57s0.41,1.15,0.41,2.32
			c0,0.74-0.21,2.04-0.63,3.9c-1.22,5.29-1.92,10.54-2.12,15.77c0.07,0.53,0.25,0.79,0.54,0.79c0.05,0,0.15-0.03,0.27-0.08
			c0.8-0.53,1.62-0.79,2.45-0.79c1.31,0,2.01,0.69,2.1,2.07l0.19,1.72c0,1.8-0.58,4.2-1.74,7.22c-1.16,3.01-2.63,4.52-4.41,4.52
			c-0.53,0-0.79-0.29-0.79-0.87c0-0.47,0.39-1.93,1.17-4.39c0.76-2.42,1.14-4.03,1.14-4.85c0-0.67-0.13-1.01-0.38-1.01
			c-0.02,0-0.42,0.18-1.2,0.53c-0.78,0.35-1.28,0.53-1.5,0.53c-0.95,0-1.62-0.29-2.02-0.87s-0.6-1.75-0.6-3.51
			C1364.37,1482.85,1364.89,1479.68,1365.93,1475.07z"/>
		<path class="st21" d="M1401.99,1478.26c0,1.85-1.64,4.09-4.92,6.7c-3.28,2.62-6.66,3.92-10.15,3.92c-2.92,0-5.18-0.86-6.77-2.59
			c-1.59-1.73-2.38-4.13-2.38-7.22c0-5.19,1.75-10.13,5.26-14.82c3.5-4.69,7.34-7.03,11.5-7.03c1.36,0,2.47,0.45,3.34,1.33
			c0.86,0.89,1.29,1.96,1.29,3.21c0,2.8-1.37,5.48-4.11,8.04c-2.74,2.56-6.41,5.08-11.01,7.55c-0.94,0.49-1.42,1.13-1.42,1.91
			c0,1.51,0.44,2.72,1.31,3.62c0.87,0.91,2.16,1.36,3.87,1.36c3.9,0,7.89-2.16,11.96-6.48c0.6-0.6,1.05-0.9,1.36-0.9
			C1401.7,1476.87,1401.99,1477.33,1401.99,1478.26z M1383.06,1474.01c7.7-4.58,11.55-8.25,11.55-11.03c0-1.09-0.49-1.63-1.47-1.63
			c-1.67,0-3.56,1.23-5.65,3.68C1385.39,1467.47,1383.91,1470.47,1383.06,1474.01z"/>
		<path class="st21" d="M1427.74,1469.7c0.2-0.38,0.52-2.66,0.95-6.84c0.33-3.34,1.39-5.01,3.19-5.01c1.47,0,2.21,0.74,2.21,2.21
			c0,0.35-0.13,1.04-0.38,2.1c-1.4,5.79-2.1,10.65-2.1,14.57c0,4.25,0.7,7,2.1,8.25c0.73,0.67,1.09,1.22,1.09,1.63
			c0,0.51-0.37,0.97-1.1,1.39c-0.74,0.42-1.4,0.63-2,0.63c-2.83,0-4.25-4.38-4.25-13.13c0-0.58-0.22-0.87-0.65-0.87
			c-1.71,0-3.8,0.1-6.27,0.3c-2.47,0.2-4.24,0.45-5.3,0.76c-1.06,0.31-1.72,0.6-1.96,0.86s-0.46,0.96-0.65,2.1
			c-0.19,1.14-0.29,2.31-0.29,3.53v3.35c0,1.94-0.89,2.92-2.67,2.92c-1.49,0-2.23-0.97-2.23-2.92c0-1.27,0.16-2.89,0.49-4.85
			c0.6-3.6,1.2-9.79,1.8-18.58c0.07-1.14,0.17-1.87,0.3-2.18c0.13-0.31,0.46-0.65,0.99-1.02c0.54-0.37,1.12-0.56,1.76-0.56
			c1.31,0,1.96,0.54,1.96,1.61c0,0.16-0.21,1.53-0.63,4.09c-0.44,2.56-0.65,4.55-0.65,5.97c0,1,0.34,1.5,1.04,1.5
			c1.38,0,3.9-0.23,7.57-0.69C1425.71,1470.34,1427.61,1469.98,1427.74,1469.7z"/>
		<path class="st21" d="M1460.57,1469.7c0.2-0.38,0.52-2.66,0.95-6.84c0.33-3.34,1.39-5.01,3.19-5.01c1.47,0,2.21,0.74,2.21,2.21
			c0,0.35-0.13,1.04-0.38,2.1c-1.4,5.79-2.1,10.65-2.1,14.57c0,4.25,0.7,7,2.1,8.25c0.73,0.67,1.09,1.22,1.09,1.63
			c0,0.51-0.37,0.97-1.1,1.39c-0.74,0.42-1.4,0.63-2,0.63c-2.83,0-4.25-4.38-4.25-13.13c0-0.58-0.22-0.87-0.65-0.87
			c-1.71,0-3.8,0.1-6.27,0.3c-2.47,0.2-4.24,0.45-5.3,0.76c-1.06,0.31-1.72,0.6-1.96,0.86s-0.46,0.96-0.65,2.1
			c-0.19,1.14-0.29,2.31-0.29,3.53v3.35c0,1.94-0.89,2.92-2.67,2.92c-1.49,0-2.23-0.97-2.23-2.92c0-1.27,0.16-2.89,0.49-4.85
			c0.6-3.6,1.2-9.79,1.8-18.58c0.07-1.14,0.17-1.87,0.3-2.18c0.13-0.31,0.46-0.65,0.99-1.02c0.54-0.37,1.12-0.56,1.76-0.56
			c1.31,0,1.96,0.54,1.96,1.61c0,0.16-0.21,1.53-0.63,4.09c-0.44,2.56-0.65,4.55-0.65,5.97c0,1,0.34,1.5,1.04,1.5
			c1.38,0,3.9-0.23,7.57-0.69C1458.54,1470.34,1460.44,1469.98,1460.57,1469.7z"/>
		<path class="st21" d="M1481.3,1488.85c-2.49,0-4.54-0.94-6.16-2.83c-1.62-1.89-2.42-4.22-2.42-7c0-4.69,1.58-9.3,4.73-13.85
			c3.15-4.55,6.92-6.82,11.32-6.82c2.91,0,5.26,1.12,7.07,3.35c1.81,2.23,2.71,4.9,2.71,7.98c0,4.72-1.87,9.1-5.6,13.13
			C1489.21,1486.84,1485.33,1488.85,1481.3,1488.85z M1477.51,1478.31c0,1.83,0.38,3.33,1.16,4.49c0.77,1.16,1.79,1.74,3.07,1.74
			c2.71,0,5.42-1.48,8.15-4.45c2.72-2.97,4.09-6.27,4.09-9.9c0-2.23-0.52-4.05-1.57-5.44c-1.04-1.39-2.45-2.08-4.21-2.08
			c-2.92,0-5.43,1.79-7.53,5.38C1478.56,1471.64,1477.51,1475.06,1477.51,1478.31z"/>
		<path class="st21" d="M1504.27,1482.78l-0.05-0.57c-0.18-1.83,0.39-3.76,1.7-5.78c1.32-2.02,4.63-4.36,9.93-7.03
			c3.38-1.71,5.07-3.26,5.07-4.66c0-0.74-0.31-1.32-0.93-1.72c-0.62-0.4-1.15-0.6-1.61-0.6c-1.36,0-3.98,0.96-7.85,2.89
			c-0.31,0.16-0.49,0.25-0.54,0.25c-1.49,0-2.23-0.53-2.23-1.58c0-1.71,1.47-3.13,4.41-4.26c2.94-1.13,5.5-1.7,7.68-1.7
			c1.36,0,2.79,0.54,4.28,1.62s2.23,2.53,2.23,4.35c0,1.49-0.48,2.92-1.44,4.3c-0.96,1.38-3.37,3.13-7.22,5.26
			c-3.16,1.74-5.3,3.18-6.42,4.3c-1.12,1.13-1.68,2.4-1.68,3.81c0,1.04,0.48,1.72,1.44,2.04c0.96,0.33,1.69,0.49,2.18,0.49
			c3.41,0,6.46-0.71,9.15-2.13c0.93-0.47,1.62-0.71,2.07-0.71c0.94,0,1.42,0.53,1.42,1.58c0,1.6-1.29,2.93-3.87,4
			c-2.58,1.07-5.85,1.61-9.81,1.61c-1.89,0-3.64-0.54-5.26-1.62C1505.32,1485.85,1504.43,1484.47,1504.27,1482.78z"/>
		<path class="st21" d="M1539.93,1488.85c-2.49,0-4.54-0.94-6.16-2.83c-1.62-1.89-2.42-4.22-2.42-7c0-4.69,1.58-9.3,4.73-13.85
			c3.15-4.55,6.92-6.82,11.32-6.82c2.91,0,5.26,1.12,7.07,3.35c1.81,2.23,2.71,4.9,2.71,7.98c0,4.72-1.87,9.1-5.6,13.13
			C1547.84,1486.84,1543.96,1488.85,1539.93,1488.85z M1536.14,1478.31c0,1.83,0.38,3.33,1.16,4.49c0.77,1.16,1.79,1.74,3.07,1.74
			c2.71,0,5.42-1.48,8.15-4.45c2.72-2.97,4.09-6.27,4.09-9.9c0-2.23-0.52-4.05-1.57-5.44c-1.04-1.39-2.45-2.08-4.21-2.08
			c-2.92,0-5.43,1.79-7.53,5.38C1537.19,1471.64,1536.14,1475.06,1536.14,1478.31z"/>
		<path class="st21" d="M902.99,1544.38c-2.83,2.47-5.63,4.43-8.39,5.88c-2.76,1.45-4.84,2.18-6.24,2.18c-1.8,0-3.17-0.75-4.13-2.25
			c-0.95-1.5-1.43-3.25-1.43-5.24c0-2.69,0.47-5.68,1.42-8.98s2.56-4.94,4.85-4.94c0.51,0,0.93,0.3,1.25,0.9
			c0.33,0.6,0.49,1.28,0.49,2.04c0,1-0.49,2.34-1.47,4.03c-1.27,2.16-1.91,4-1.91,5.53c0,0.89,0.16,1.76,0.48,2.62
			c0.32,0.85,0.87,1.28,1.65,1.28c1.96,0,4.44-0.99,7.42-2.98s4.83-3.73,5.52-5.23c0.69-1.5,1.04-2.66,1.04-3.47
			c0-0.36-0.04-0.71-0.11-1.04c-0.07-0.33-0.11-0.67-0.11-1.04c0-0.67,0.23-1.46,0.68-2.36c0.45-0.9,1.06-1.35,1.83-1.35
			c0.93,0,1.57,0.21,1.93,0.63c0.36,0.42,0.54,1.45,0.54,3.11c0,1.04-0.16,3.31-0.49,6.84c-0.07,0.78-0.12,1.52-0.14,2.21
			c-0.13,2.31-0.52,5.69-1.19,10.13c-0.66,4.45-1.19,6.95-1.57,7.49c-0.38,0.54-0.92,0.82-1.61,0.82c-1.73,0-2.59-0.55-2.59-1.66
			c0-0.56,0.08-1.06,0.25-1.5C901.23,1557.38,901.9,1552.83,902.99,1544.38z"/>
		<path class="st21" d="M937.16,1551.22c0,1.85-1.64,4.09-4.92,6.7c-3.28,2.62-6.66,3.92-10.15,3.92c-2.92,0-5.18-0.86-6.77-2.59
			c-1.59-1.73-2.38-4.13-2.38-7.22c0-5.19,1.75-10.13,5.26-14.82c3.5-4.69,7.34-7.03,11.5-7.03c1.36,0,2.47,0.45,3.34,1.33
			c0.86,0.89,1.29,1.96,1.29,3.21c0,2.8-1.37,5.48-4.11,8.04c-2.74,2.56-6.41,5.08-11.01,7.55c-0.94,0.49-1.42,1.13-1.42,1.91
			c0,1.51,0.44,2.72,1.31,3.62c0.87,0.91,2.16,1.36,3.87,1.36c3.9,0,7.89-2.16,11.96-6.48c0.6-0.6,1.05-0.9,1.36-0.9
			C936.87,1549.83,937.16,1550.29,937.16,1551.22z M918.22,1546.97c7.7-4.58,11.55-8.25,11.55-11.03c0-1.09-0.49-1.63-1.47-1.63
			c-1.67,0-3.56,1.23-5.65,3.68C920.55,1540.43,919.08,1543.43,918.22,1546.97z"/>
		<path class="st21" d="M958.13,1538.25c-0.44-0.02-0.86,0.4-1.28,1.25c-3.76,7.52-6.6,12.62-8.53,15.31
			c-0.16,0.24-0.37,0.58-0.63,1.04c-2.27,4.05-3.93,6.08-4.99,6.08c-1.42,0-2.13-0.68-2.13-2.04c0-1.23,0.88-2.92,2.64-5.04
			c1.71-2.02,3.95-5.43,6.73-10.26c2.78-4.82,5.03-9.15,6.76-12.98c0.33-0.69,0.82-1.04,1.47-1.04c0.27,0,0.76,0.12,1.46,0.37
			c0.7,0.25,1.15,0.51,1.35,0.8c0.2,0.29,0.64,1.98,1.33,5.07c2.23,11.13,4.58,17.74,7.06,19.81c0.58,0.51,0.93,0.85,1.04,1.02
			c0.11,0.17,0.16,0.41,0.16,0.72c0,0.56-0.18,1.08-0.54,1.54c-0.36,0.46-0.72,0.76-1.06,0.89c-0.34,0.13-1.05,0.19-2.13,0.19
			c-0.38,0-1.27-0.94-2.67-2.82c-1.4-1.88-3.03-7.01-4.9-15.38C958.82,1540.52,958.44,1539.01,958.13,1538.25z"/>
		<path class="st21" d="M984.12,1561.82c-2.49,0-4.54-0.94-6.16-2.83c-1.62-1.89-2.42-4.22-2.42-7c0-4.69,1.58-9.3,4.73-13.85
			c3.15-4.55,6.92-6.82,11.32-6.82c2.91,0,5.26,1.12,7.07,3.35c1.81,2.23,2.71,4.9,2.71,7.98c0,4.72-1.87,9.1-5.6,13.13
			C992.04,1559.8,988.16,1561.82,984.12,1561.82z M980.34,1551.27c0,1.83,0.38,3.33,1.16,4.49c0.77,1.16,1.79,1.74,3.07,1.74
			c2.71,0,5.42-1.48,8.15-4.45c2.72-2.97,4.09-6.27,4.09-9.9c0-2.23-0.52-4.05-1.57-5.44c-1.04-1.39-2.45-2.08-4.21-2.08
			c-2.92,0-5.43,1.79-7.53,5.38C981.39,1544.6,980.34,1548.02,980.34,1551.27z"/>
		<path class="st21" d="M1024.55,1532.69c4.12,1.67,6.18,5.63,6.18,11.88c0,4.69-1.46,8.78-4.39,12.29
			c-2.92,3.51-6.1,5.26-9.54,5.26c-3.07,0-5.46-1.22-7.17-3.65s-2.56-5.99-2.56-10.68c0-5.65,0.99-11.36,2.98-17.15
			c1.99-5.78,4.47-10.15,7.44-13.1c2.97-2.95,5.97-4.43,9-4.43c1.83,0,3.31,0.6,4.43,1.81c1.12,1.21,1.68,2.88,1.68,5.03
			c0,1.71-0.74,3.73-2.22,6.08C1028.92,1528.36,1026.97,1530.59,1024.55,1532.69z M1025.75,1545.33c0-2.71-0.5-4.89-1.5-6.54
			c-1-1.65-2.11-2.48-3.32-2.48c-0.36,0-2.39,1.4-6.08,4.2c-0.94,0.73-1.86,1.4-2.75,2.02c-0.27,1.56-0.41,3.28-0.41,5.15
			c0,3.31,0.5,5.79,1.49,7.46c0.99,1.67,2.36,2.51,4.1,2.51c2.43,0,4.45-1.28,6.06-3.83c1.61-2.55,2.41-5.36,2.41-8.43V1545.33z
			 M1012.73,1537.65c6.99-5.39,11.32-9.25,12.97-11.56c1.65-2.32,2.48-4.14,2.48-5.46c0-2.13-0.85-3.19-2.56-3.19
			c-2.38,0-4.77,1.79-7.18,5.37C1016.03,1526.38,1014.13,1531.33,1012.73,1537.65z"/>
		<path class="st21" d="M1060.95,1551.22c0,1.85-1.64,4.09-4.92,6.7c-3.28,2.62-6.66,3.92-10.15,3.92c-2.92,0-5.18-0.86-6.77-2.59
			c-1.59-1.73-2.38-4.13-2.38-7.22c0-5.19,1.75-10.13,5.26-14.82c3.5-4.69,7.34-7.03,11.5-7.03c1.36,0,2.47,0.45,3.34,1.33
			c0.86,0.89,1.29,1.96,1.29,3.21c0,2.8-1.37,5.48-4.11,8.04c-2.74,2.56-6.41,5.08-11.01,7.55c-0.94,0.49-1.42,1.13-1.42,1.91
			c0,1.51,0.44,2.72,1.31,3.62c0.87,0.91,2.16,1.36,3.87,1.36c3.9,0,7.89-2.16,11.96-6.48c0.6-0.6,1.05-0.9,1.36-0.9
			C1060.66,1549.83,1060.95,1550.29,1060.95,1551.22z M1042.02,1546.97c7.7-4.58,11.55-8.25,11.55-11.03c0-1.09-0.49-1.63-1.47-1.63
			c-1.67,0-3.56,1.23-5.65,3.68C1044.35,1540.43,1042.87,1543.43,1042.02,1546.97z"/>
		<path class="st21" d="M1072.17,1546.12c4.3-0.74,8.16-3.52,11.58-8.34c1.6-2.23,3-3.82,4.21-4.75c1.21-0.94,2.49-1.4,3.85-1.4
			c0.54,0,1.09,0.25,1.63,0.74c0.54,0.49,0.82,1.07,0.82,1.74c0,0.89-0.84,1.59-2.53,2.1c-0.89,0.27-1.73,0.74-2.51,1.39
			c-0.78,0.65-2.26,2.22-4.44,4.69c-1.71,1.93-3.24,3.28-4.6,4.06c-0.13,0.07-0.19,0.14-0.19,0.19c0,0.07,0.08,0.15,0.25,0.22
			c1.33,0.71,2.72,2.08,4.2,4.11c2.14,2.96,3.75,4.83,4.82,5.6c1.07,0.77,2.3,1.16,3.68,1.16l0.9-0.03
			c0.64-0.04,0.95,0.25,0.95,0.84c0,0.69-0.39,1.41-1.17,2.15s-2.07,1.12-3.87,1.12c-1.38,0-2.72-0.6-4.02-1.78
			s-2.78-3.12-4.45-5.79c-0.96-1.58-1.86-2.78-2.7-3.6c-0.84-0.82-1.76-1.23-2.78-1.23c-0.22,0-0.89,0.18-2.02,0.54
			c-1.13,0.36-1.76,0.71-1.89,1.05c-0.14,0.34-0.24,1.54-0.3,3.62c-0.06,2.08-0.1,3.76-0.1,5.03c0,0.67-0.32,1.27-0.95,1.8
			c-0.64,0.53-1.33,0.79-2.07,0.79c-0.76,0-1.36-0.22-1.8-0.67c-0.44-0.45-0.65-0.9-0.65-1.38c0-0.65,0.25-2.2,0.74-4.63
			c0.87-4.43,1.74-11.74,2.62-21.93c0.07-0.98,0.44-1.87,1.12-2.66c0.67-0.79,1.43-1.19,2.29-1.19c0.47,0,0.87,0.25,1.19,0.76
			c0.32,0.51,0.48,1.16,0.48,1.96c0,0.64-0.11,1.36-0.33,2.18C1073.07,1538.36,1072.43,1542.2,1072.17,1546.12z"/>
		<path class="st21" d="M1117.02,1550.54c-2.54,3.41-5.06,5.98-7.55,7.68c-2.49,1.71-4.77,2.56-6.84,2.56
			c-1.4,0-2.61-0.59-3.62-1.77c-1.02-1.18-1.53-2.7-1.53-4.55c0-4.78,2.13-9.92,6.4-15.43c4.27-5.51,8.51-8.27,12.72-8.27
			c1.53,0,2.66,0.87,3.41,2.62c0.24,0.58,0.61,0.87,1.12,0.87c1.45,0,2.18,0.56,2.18,1.69c0,0.56-0.09,1.33-0.27,2.32
			c-0.98,5.36-1.47,9.14-1.47,11.33c0,4.4,0.83,7.03,2.51,7.9c0.8,0.44,1.2,0.97,1.2,1.61c0,0.56-0.39,1.13-1.17,1.7
			c-0.78,0.57-1.54,0.86-2.26,0.86c-1.4,0-2.55-0.96-3.46-2.89C1117.47,1556.84,1117.02,1554.1,1117.02,1550.54z M1115.35,1535.2
			c-2.4,0-5.19,2.25-8.36,6.74c-3.18,4.5-4.77,8.22-4.77,11.18c0,2.09,0.69,3.13,2.07,3.13c2,0,4.77-2.02,8.31-6.05
			c3.54-4.03,5.31-7.74,5.31-11.12C1117.92,1536.5,1117.06,1535.2,1115.35,1535.2z"/>
		<path class="st21" d="M1133.64,1574.29c-0.6,0-1.16-0.2-1.68-0.59c-0.52-0.39-0.78-0.79-0.78-1.21c0-0.36,0.15-0.82,0.45-1.36
			c0.3-0.54,1.32-1.92,3.07-4.11c1.23-1.49,2.6-4.17,4.1-8.04c1.5-3.87,2.25-6.26,2.25-7.17c0-5.81-0.82-10.99-2.45-15.53
			c-1.63-4.54-3.08-7.82-4.33-9.85c-1.25-2.03-3.08-4.13-5.48-6.31c-0.22-0.22-0.33-0.59-0.33-1.12c0-0.27,0.26-0.64,0.79-1.09
			c0.53-0.45,1.06-0.68,1.61-0.68c0.8,0,1.67,0.51,2.6,1.54c0.94,1.03,2.36,3,4.26,5.91c1.91,2.92,3.1,5.18,3.57,6.8
			c0.47,1.54,0.96,3.05,1.47,4.52c1.47,4.29,2.21,8.86,2.21,13.73c0,6.61-2.24,12.8-6.73,18.58c-0.76,1.02-1.31,1.83-1.63,2.45
			c-0.56,1.09-1.06,1.95-1.5,2.57C1134.67,1573.98,1134.18,1574.29,1133.64,1574.29z"/>
	</g>
	<g>
		<g>
			<polygon class="st123" points="1486.19,575.14 1170.66,502.25 1033.95,614.49 1206.95,1064.57 1559.83,735.96 			"/>
			<polyline class="st123" points="1276.51,523.63 1185.24,665.65 1205.38,1058.06 1395.59,714.24 1381.69,547.92 			"/>
			<polygon class="st114" points="1045.01,621.99 1161.1,662.75 1093.9,591.45 			"/>
			<polygon class="st114" points="1199.91,672.49 1385.25,715.3 1222.32,635.84 			"/>
			<polygon class="st114" points="1411.72,721.42 1547.16,738.76 1407.66,678.65 			"/>
			<polygon class="st114" points="1174.44,722.39 1188.64,962.73 1098.06,690.8 			"/>
			<polygon class="st114" points="1373.01,768.26 1254.84,978.02 1455.5,773.37 			"/>
			<polygon class="st124" points="1486.19,575.14 1170.66,502.25 1033.95,614.49 1206.95,1064.57 1559.83,735.96 			"/>
		</g>
		<g>
			<polygon class="st125" points="880.14,518.93 535.75,570.98 443.48,737.34 794.69,1118.94 1017.46,650.6 			"/>
			<polyline class="st125" points="650.07,550.44 615.02,728.6 790.54,1113.04 844.61,693.9 764.86,533.09 			"/>
			<polygon class="st117" points="457.51,740.47 589.74,735.27 494.3,690.57 			"/>
			<polygon class="st117" points="632.4,729.64 834.69,699.07 640.3,684.11 			"/>
			<polygon class="st117" points="863.59,694.7 1005.9,658.42 842.59,653.54 			"/>
			<polygon class="st118" points="626.69,789.62 736.06,1024.34 537.81,788.28 			"/>
			<polygon class="st118" points="843.43,756.87 808.31,1013.43 927.94,729.32 			"/>
			<polygon class="st124" points="880.14,518.93 535.75,570.98 443.48,737.34 794.69,1118.94 1017.46,650.6 			"/>
		</g>
		<g>
			<polygon class="st126" points="1138.23,791.45 904.6,783.98 823.49,882.59 1008.97,1177.11 1212.88,895.03 			"/>
			<polyline class="st126" points="982.54,784.31 937.78,897.65 1006.95,1172.71 1093.54,902.63 1060.42,786.8 			"/>
			<polygon class="st120" points="832.37,886.36 920.28,898.98 862.72,857.89 			"/>
			<polygon class="st120" points="949.12,900.45 1086.36,904.83 959.87,871.35 			"/>
			<polygon class="st120" points="1105.97,905.46 1204.3,898.79 1097.1,875.74 			"/>
			<polygon class="st121" points="938.07,939.34 981.76,1107.55 879.57,927.66 			"/>
			<polygon class="st121" points="1085.11,944.04 1030.77,1109.12 1144.24,936.12 			"/>
			<polygon class="st124" points="1138.23,791.45 904.6,783.98 823.49,882.59 1008.97,1177.11 1212.88,895.03 			"/>
		</g>
		<line class="st127" x1="632.32" y1="1123.04" x2="91.55" y2="1123.04"/>
		<line class="st127" x1="555.06" y1="1045.79" x2="323.3" y2="1045.79"/>
		<line class="st127" x1="14.29" y1="891.28" x2="361.93" y2="891.28"/>
		<line class="st127" x1="361.93" y1="775.4" x2="168.8" y2="775.4"/>
		<line class="st127" x1="14.29" y1="698.15" x2="439.18" y2="698.15"/>
		<line class="st127" x1="1134.46" y1="1200.29" x2="1597.98" y2="1200.29"/>
		<line class="st127" x1="1327.59" y1="1123.04" x2="1791.11" y2="1123.04"/>
		<line class="st127" x1="1597.98" y1="1007.16" x2="1829.74" y2="1007.16"/>
		<line class="st127" x1="1482.1" y1="929.91" x2="1906.99" y2="929.91"/>
		<line class="st127" x1="1597.98" y1="814.03" x2="1752.48" y2="814.03"/>
		<line class="st127" x1="1597.98" y1="736.77" x2="1906.99" y2="736.77"/>
	</g>
</g>
<g id="Слой_2">
	<g id="Favorite">
	</g>
</g>
<g id="Слой_4">
</g>
</svg>
