<?xml version="1.0" encoding="utf-8"?>
<!-- Generator: Adobe Illustrator 23.1.0, SVG Export Plug-In . SVG Version: 6.00 Build 0)  -->
<svg version="1.1" xmlns="http://www.w3.org/2000/svg" xmlns:xlink="http://www.w3.org/1999/xlink" x="0px" y="0px"
	 viewBox="0 0 1920.45 2194.37" style="enable-background:new 0 0 1920.45 2194.37;" xml:space="preserve">
<style type="text/css">
	.st0{opacity:0.87;fill:url(#SVGID_1_);}
	.st1{fill:#33DEA7;}
	.st2{fill:#4890F1;}
	.st3{fill:#0B59C7;}
	.st4{fill:#1A328C;}
	.st5{fill:#367FE1;}
	.st6{fill:#FFFFFF;}
	.st7{fill:none;stroke:#FF1800;stroke-miterlimit:10;}
	.st8{fill:none;stroke:#4890F1;stroke-width:2.4807;stroke-miterlimit:10;}
	.st9{fill:none;stroke:#0B59C7;stroke-width:1.6033;stroke-miterlimit:10;}
	.st10{display:none;}
	.st11{display:inline;fill:none;stroke:#000000;stroke-miterlimit:10;}
	.st12{fill:#CFE2FF;}
	.st13{fill:none;stroke:#34E2AA;stroke-miterlimit:10;}
	.st14{fill:none;stroke:#34E2AA;stroke-width:0.9838;stroke-miterlimit:10;}
	.st15{fill:#34E2AA;fill-opacity:0.12;stroke:#34E2AA;stroke-miterlimit:10;}
	.st16{fill:#1B3390;}
	.st17{fill:#34E2AA;stroke:#1B3390;stroke-miterlimit:10;}
	.st18{fill:#FF8B2B;}
	.st19{opacity:0.5;fill:#4992F5;}
	.st20{fill:#4992F5;}
	.st21{fill:#0B5BCB;}
	.st22{fill:#ADD2FF;}
	.st23{fill:#2EC897;}
	.st24{fill:none;stroke:#4992F5;stroke-width:0.6143;stroke-miterlimit:10;}
	.st25{fill:none;stroke:#4992F5;stroke-width:0.4924;stroke-miterlimit:10;}
	.st26{fill:none;stroke:#4992F5;stroke-width:5;stroke-miterlimit:10;}
	.st27{fill:none;stroke:#0B5BCB;stroke-width:2.2717;stroke-miterlimit:10;}
	.st28{fill:#6078D5;}
	.st29{fill:#FFB87D;}
	.st30{fill:none;stroke:#284DD8;stroke-width:2.678;stroke-miterlimit:10;}
	.st31{fill:none;stroke:#34E2AA;stroke-width:6.3211;stroke-miterlimit:10;}
	.st32{fill:none;stroke:#4992F5;stroke-width:6.3211;stroke-miterlimit:10;}
	.st33{fill:none;stroke:#0B5BCB;stroke-width:2;stroke-miterlimit:10;}
	.st34{fill:#FFEBC9;}
	.st35{fill:#8CA4FB;stroke:#1B3390;stroke-width:1.8878;stroke-miterlimit:10;}
	.st36{fill:none;stroke:#1B3390;stroke-width:2;stroke-miterlimit:10;}
	.st37{fill:none;stroke:#34E2AA;stroke-width:1.8878;stroke-linecap:round;stroke-miterlimit:10;}
	.st38{fill:none;stroke:#34E2AA;stroke-width:1.8878;stroke-linecap:round;stroke-linejoin:round;stroke-miterlimit:10;}
	.st39{clip-path:url(#SVGID_5_);}
	.st40{fill:none;stroke:#F98600;stroke-width:15.7313;stroke-linecap:round;stroke-linejoin:round;stroke-miterlimit:10;}
	.st41{fill:none;stroke:#1B3390;stroke-width:3.7755;stroke-linecap:round;stroke-linejoin:round;stroke-miterlimit:10;}
	.st42{fill:#0B5BCB;stroke:#1B3390;stroke-width:1.7785;stroke-miterlimit:10;}
	.st43{fill:none;stroke:#1B3390;stroke-width:1.7785;stroke-linecap:round;stroke-miterlimit:10;}
	.st44{fill:none;stroke:#1B3390;stroke-width:1.7785;stroke-linecap:round;stroke-linejoin:round;stroke-miterlimit:10;}
	.st45{clip-path:url(#SVGID_7_);fill:none;stroke:#5FECBF;stroke-width:29.6424;stroke-linecap:round;stroke-miterlimit:10;}
	.st46{fill:none;stroke:#1B3390;stroke-width:1.7785;stroke-miterlimit:10;}
	.st47{fill:#34E2AA;stroke:#1B3390;stroke-width:1.1636;stroke-miterlimit:10;}
	.st48{fill:#94FFCC;stroke:#1B3390;stroke-width:1.1636;stroke-linecap:round;stroke-miterlimit:10;}
	.st49{fill:#94FFCC;stroke:#1B3390;stroke-width:1.1636;stroke-linecap:round;stroke-linejoin:round;stroke-miterlimit:10;}
	.st50{fill:#FFB87D;stroke:#1B3390;stroke-width:1.1636;stroke-miterlimit:10;}
	.st51{fill:#4992F5;stroke:#1B3390;stroke-width:1.1636;stroke-linecap:round;stroke-miterlimit:10;}
	.st52{fill:#4992F5;stroke:#1B3390;stroke-width:1.1636;stroke-linecap:round;stroke-linejoin:round;stroke-miterlimit:10;}
	.st53{fill:#FFB87D;stroke:#1B3390;stroke-width:1.1636;stroke-linecap:round;stroke-miterlimit:10;}
	.st54{fill:#FFB87D;stroke:#1B3390;stroke-width:1.1636;stroke-linecap:round;stroke-linejoin:round;stroke-miterlimit:10;}
	.st55{opacity:0.8;fill:#DBE2FF;}
	.st56{opacity:0.8;fill:#B3C2FF;}
	.st57{opacity:0.8;fill:#FFF3E8;}
	.st58{opacity:0.8;fill:#D6FFF9;}
	.st59{fill:#0C65DF;stroke:#1B3390;stroke-width:0.764;stroke-linecap:round;stroke-linejoin:round;stroke-miterlimit:10;}
	.st60{fill:#0C65DF;stroke:#1B3390;stroke-width:0.764;stroke-miterlimit:10;}
	.st61{fill:#0C65DF;stroke:#1B3390;stroke-width:0.764;stroke-linecap:round;stroke-miterlimit:10;}
	.st62{opacity:0.8;fill:#A1C9FF;}
	.st63{fill:none;stroke:#0B5BCB;stroke-width:1.87;stroke-miterlimit:10;}
	.st64{fill:none;stroke:#0B5BCB;stroke-width:9.4538;stroke-miterlimit:10;}
	.st65{fill:none;stroke:#284DD8;stroke-width:11.1442;stroke-miterlimit:10;}
	.st66{fill:none;stroke:#0B5BCB;stroke-width:8.323;stroke-miterlimit:10;}
	.st67{fill:#4992F5;stroke:#1B3390;stroke-width:2.4753;stroke-miterlimit:10;}
	.st68{fill:none;stroke:#1B3390;stroke-width:2.0994;stroke-linecap:round;stroke-miterlimit:10;}
	.st69{fill:#6CF4BC;stroke:#1B3390;stroke-width:1.6932;stroke-miterlimit:10;}
	.st70{fill:none;stroke:#1B3390;stroke-width:1.436;stroke-linecap:round;stroke-miterlimit:10;}
	.st71{fill:#FFB87D;stroke:#1B3390;stroke-width:2.1678;stroke-miterlimit:10;}
	.st72{fill:none;stroke:#1B3390;stroke-width:1.8386;stroke-linecap:round;stroke-miterlimit:10;}
	.st73{fill:#0B5FD5;stroke:#1B3390;stroke-width:1.6798;stroke-miterlimit:10;}
	.st74{fill:none;stroke:#1B3390;stroke-width:1.4247;stroke-linecap:round;stroke-miterlimit:10;}
	.st75{fill:#A6FFE1;stroke:#1B3390;stroke-width:2.0588;stroke-miterlimit:10;}
	.st76{fill:none;stroke:#1B3390;stroke-width:1.7462;stroke-linecap:round;stroke-miterlimit:10;}
	.st77{fill:#FF8B2B;stroke:#1B3390;stroke-width:2.4753;stroke-miterlimit:10;}
	.st78{fill:#34E2AA;stroke:#1B3390;stroke-width:2.1678;stroke-miterlimit:10;}
	.st79{fill:none;stroke:#1B3390;stroke-width:1.4475;stroke-linecap:round;stroke-miterlimit:10;}
	.st80{fill:#FFB87D;stroke:#1B3390;stroke-width:1.6825;stroke-miterlimit:10;}
	.st81{fill:none;stroke:#1B3390;stroke-width:1.427;stroke-linecap:round;stroke-miterlimit:10;}
	.st82{fill:#ABD0FF;}
	.st83{fill:none;stroke:#0B5BCB;stroke-width:3.3004;stroke-linecap:round;stroke-miterlimit:10;}
	.st84{fill:#E3EFFF;}
	.st85{clip-path:url(#SVGID_9_);fill:none;stroke:#FF8B2B;stroke-width:9.9011;stroke-linecap:round;stroke-miterlimit:10;}
	.st86{fill:#FFB87D;stroke:#1C3CB7;stroke-width:3;stroke-linecap:round;stroke-linejoin:round;stroke-miterlimit:10;}
	.st87{fill:#FFEED1;stroke:#1C3CB7;stroke-width:3;stroke-linejoin:round;stroke-miterlimit:10;}
	.st88{fill:#FF8B2B;stroke:#1C3CB7;stroke-width:3;stroke-miterlimit:10;}
	.st89{fill:#FFE2C9;stroke:#1C3CB7;stroke-width:3;stroke-linejoin:round;stroke-miterlimit:10;}
	.st90{fill:#1B3390;stroke:#1C3CB7;stroke-miterlimit:10;}
	.st91{fill:#0B5BCB;stroke:#1C3CB7;stroke-miterlimit:10;}
	.st92{fill:#4992F5;stroke:#1C3CB7;stroke-width:3;stroke-miterlimit:10;}
	.st93{fill:#4992F5;stroke:#1C3CB7;stroke-width:3;stroke-linecap:round;stroke-miterlimit:10;}
	.st94{fill:#8CA4FB;stroke:#1C3CB7;stroke-width:3;stroke-linecap:round;stroke-linejoin:round;stroke-miterlimit:10;}
	.st95{fill:#D1FFEF;stroke:#1C3CB7;stroke-width:3;stroke-linejoin:round;stroke-miterlimit:10;}
	.st96{fill:#0B5BCB;stroke:#1C3CB7;stroke-width:3;stroke-miterlimit:10;}
	.st97{fill:#B2C2FB;stroke:#1C3CB7;stroke-width:3;stroke-linejoin:round;stroke-miterlimit:10;}
	.st98{fill:#34E2AA;stroke:#1C3CB7;stroke-miterlimit:10;}
	.st99{fill:#66FFC8;stroke:#1C3CB7;stroke-miterlimit:10;}
	.st100{fill:#73FFCD;stroke:#1C3CB7;stroke-miterlimit:10;}
	.st101{fill:#00D38E;stroke:#1C3CB7;stroke-miterlimit:10;}
	.st102{fill:#34E2AA;stroke:#1C3CB7;stroke-width:3;stroke-miterlimit:10;}
	.st103{fill:#FF8B2B;stroke:#1C3CB7;stroke-miterlimit:10;}
	.st104{fill:#FFB87D;stroke:#1C3CB7;stroke-miterlimit:10;}
	.st105{fill:#FFB87D;stroke:#1C3CB7;stroke-width:3;stroke-miterlimit:10;}
	.st106{fill:none;stroke:#1C3CB7;stroke-width:2;stroke-miterlimit:10;}
	.st107{fill:#75FFCE;stroke:#1B3390;stroke-width:3;stroke-miterlimit:10;}
	.st108{fill:none;stroke:#1B3390;stroke-width:3;stroke-miterlimit:10;}
	.st109{fill:#00C39F;stroke:#1B3390;stroke-width:3;stroke-miterlimit:10;}
	.st110{fill:#A8FFE6;}
	.st111{opacity:0.8;fill:#A8FFE6;}
	.st112{fill:#8CA4FB;stroke:#1B3390;stroke-width:3;stroke-miterlimit:10;}
	.st113{fill:#0B5BCB;stroke:#1B3390;stroke-width:3;stroke-miterlimit:10;}
	.st114{fill:#D8E0FB;}
	.st115{opacity:0.8;fill:#D8E0FB;}
	.st116{fill:#FFB87D;stroke:#0655C3;stroke-width:3;stroke-linecap:round;stroke-linejoin:round;stroke-miterlimit:10;}
	.st117{fill:#FFE3CC;}
	.st118{fill:none;stroke:#0B5BCB;stroke-width:3;stroke-linecap:round;stroke-linejoin:round;stroke-miterlimit:10;}
	.st119{fill:#34E2AA;stroke:#1B3390;stroke-width:3;stroke-miterlimit:10;}
	.st120{fill:#BAFFE9;}
	.st121{fill:#ABFFE4;}
	.st122{fill:#5790DF;stroke:#0655C3;stroke-width:3;stroke-linecap:round;stroke-linejoin:round;stroke-miterlimit:10;}
	.st123{fill:#80B9F6;}
	.st124{fill:#629FE4;}
	.st125{fill:#0B5BCB;stroke:#0B5BCB;stroke-width:4;stroke-miterlimit:10;}
	.st126{fill:#34E2AA;stroke:#0B5BCB;stroke-width:3;stroke-linejoin:round;stroke-miterlimit:10;}
	.st127{fill:none;stroke:#0B5BCB;stroke-width:3;stroke-linecap:round;stroke-miterlimit:10;}
	.st128{fill:#4992F5;stroke:#0B5BCB;stroke-width:4;stroke-miterlimit:10;}
	.st129{fill:#C7FFED;stroke:#34E2AA;stroke-width:3;stroke-miterlimit:10;}
	.st130{fill:#FFD1AB;stroke:#0B5BCB;stroke-width:3;stroke-miterlimit:10;}
	.st131{fill:#34E2AA;stroke:#34E2AA;stroke-width:3;stroke-linejoin:round;stroke-miterlimit:10;}
	.st132{fill:#8CA4FB;stroke:#0B5BCB;stroke-width:3;stroke-linejoin:round;stroke-miterlimit:10;}
	.st133{fill:#69FFC7;stroke:#0B5BCB;stroke-width:3;stroke-linejoin:round;stroke-miterlimit:10;}
	.st134{fill:#FFB87D;stroke:#0B5BCB;stroke-width:3;stroke-linejoin:round;stroke-miterlimit:10;}
	.st135{fill:#ADBEFF;}
	.st136{fill:#FFEAD9;}
	.st137{fill:#D6FFF4;}
	.st138{fill:#CCD6FF;}
	.st139{fill:none;stroke:#33DEA7;stroke-width:5.4384;stroke-miterlimit:10;}
	.st140{fill:#4AE2B1;}
	.st141{fill:#8CA4FB;}
	.st142{opacity:0.25;fill:#FF8B2B;}
	.st143{fill:none;stroke:#FF8B2B;stroke-miterlimit:10;}
	.st144{fill:none;stroke:#FF8B2B;stroke-width:0.9367;stroke-miterlimit:10;}
	.st145{fill:#FF9843;}
	.st146{opacity:0.3;fill:#34E2AA;}
	.st147{display:inline;}
	.st148{fill:#0B87C7;}
	.st149{fill:#92FCCA;stroke:#1A328C;stroke-width:1.1636;stroke-miterlimit:10;}
	.st150{fill:#92FCCA;stroke:#1A328C;stroke-width:1.1636;stroke-linecap:round;stroke-miterlimit:10;}
	.st151{fill:#92FCCA;stroke:#1A328C;stroke-width:1.1636;stroke-linecap:round;stroke-linejoin:round;stroke-miterlimit:10;}
	.st152{fill:#0C63DB;stroke:#1A328C;stroke-width:0.764;stroke-linecap:round;stroke-linejoin:round;stroke-miterlimit:10;}
	.st153{fill:#0C63DB;stroke:#1A328C;stroke-width:0.764;stroke-miterlimit:10;}
	.st154{fill:#0C63DB;stroke:#1A328C;stroke-width:0.764;stroke-linecap:round;stroke-miterlimit:10;}
	.st155{fill:#8AA1F7;stroke:#1B3BB3;stroke-width:3;stroke-linecap:round;stroke-linejoin:round;stroke-miterlimit:10;}
	.st156{fill:#D1FFEF;stroke:#1B3BB3;stroke-width:3;stroke-linejoin:round;stroke-miterlimit:10;}
	.st157{fill:#0B59C7;stroke:#1B3BB3;stroke-width:3;stroke-miterlimit:10;}
	.st158{fill:#AFBFF7;stroke:#1B3BB3;stroke-width:3;stroke-linejoin:round;stroke-miterlimit:10;}
	.st159{fill:#1A328C;stroke:#1B3BB3;stroke-miterlimit:10;}
	.st160{fill:#66FFC8;stroke:#1B3BB3;stroke-miterlimit:10;}
	.st161{fill:#0B59C7;stroke:#1B3BB3;stroke-miterlimit:10;}
	.st162{fill:#4890F1;stroke:#1B3BB3;stroke-width:3;stroke-miterlimit:10;}
	.st163{fill:#4890F1;stroke:#1B3BB3;stroke-width:3;stroke-linecap:round;stroke-miterlimit:10;}
	.st164{fill:#8AA1F7;stroke:#0B59C7;stroke-width:5.0442;stroke-linejoin:round;stroke-miterlimit:10;}
	.st165{fill:#C1CCF7;}
	.st166{fill:none;stroke:#4890F1;stroke-width:10.418;stroke-miterlimit:10;}
	.st167{fill:none;stroke:#4890F1;stroke-width:8.3506;stroke-miterlimit:10;}
	.st168{fill:#E6F0FF;stroke:#DBE3FF;stroke-width:3.6654;stroke-miterlimit:10;}
	.st169{fill:#E6F0FF;}
	.st170{fill:#DBE3FF;}
	.st171{fill:#FFE1C9;stroke:#E0E6FF;stroke-width:5.2027;stroke-miterlimit:10;}
	.st172{fill:#E0FFF7;}
	.st173{fill:#E0E6FF;}
	.st174{fill:#DBE9FF;stroke:#CCD7FF;stroke-width:3.6654;stroke-miterlimit:10;}
	.st175{fill:#DBE9FF;}
	.st176{fill:#CCD7FF;}
	.st177{fill:#9EC2F7;stroke:#9CB1FF;stroke-width:3.6654;stroke-miterlimit:10;}
	.st178{fill:#9EC2F7;}
	.st179{fill:#9CB1FF;}
	.st180{fill:#99C3FF;stroke:#91A9FF;stroke-width:4.0452;stroke-miterlimit:10;}
	.st181{fill:#99C3FF;}
	.st182{fill:#91A9FF;}
	.st183{fill:#FFD7B5;stroke:#A1B5FF;stroke-width:5.2027;stroke-miterlimit:10;}
	.st184{fill:#A1B5FF;}
	.st185{fill:#B8FFEC;stroke:#A1B5FF;stroke-width:5.2027;stroke-miterlimit:10;}
	.st186{fill:#B8FFEC;}
	.st187{fill:#E0FFF7;stroke:#E0E6FF;stroke-width:5.2027;stroke-miterlimit:10;}
	.st188{fill:#FFEAD9;stroke:#DBE3FF;stroke-width:3.6654;stroke-miterlimit:10;}
	.st189{opacity:0.2;}
	.st190{fill:#4890F1;stroke:#1A328C;stroke-width:2.274;stroke-miterlimit:10;}
	.st191{fill:none;stroke:#1A328C;stroke-width:1.9286;stroke-linecap:round;stroke-miterlimit:10;}
	.st192{fill:#6AF0B9;stroke:#1A328C;stroke-width:1.5555;stroke-miterlimit:10;}
	.st193{fill:none;stroke:#1A328C;stroke-width:1.3193;stroke-linecap:round;stroke-miterlimit:10;}
	.st194{fill:#FFB87D;stroke:#1A328C;stroke-width:1.9915;stroke-miterlimit:10;}
	.st195{fill:none;stroke:#1A328C;stroke-width:1.6891;stroke-linecap:round;stroke-miterlimit:10;}
	.st196{fill:#0B5DD1;stroke:#1A328C;stroke-width:1.5432;stroke-miterlimit:10;}
	.st197{fill:none;stroke:#1A328C;stroke-width:1.3088;stroke-linecap:round;stroke-miterlimit:10;}
	.st198{fill:#A6FFE1;stroke:#1A328C;stroke-width:1.8914;stroke-miterlimit:10;}
	.st199{fill:none;stroke:#1A328C;stroke-width:1.6042;stroke-linecap:round;stroke-miterlimit:10;}
	.st200{fill:#8AA1F7;stroke:#1A328C;stroke-width:2.274;stroke-miterlimit:10;}
	.st201{fill:none;stroke:#1A328C;stroke-width:1.3298;stroke-linecap:round;stroke-miterlimit:10;}
	.st202{fill:#FFB87D;stroke:#1A328C;stroke-width:1.5457;stroke-miterlimit:10;}
	.st203{fill:none;stroke:#1A328C;stroke-width:1.311;stroke-linecap:round;stroke-miterlimit:10;}
	.st204{fill:none;stroke:#0B59C7;stroke-width:3.032;stroke-linecap:round;stroke-miterlimit:10;}
	.st205{clip-path:url(#SVGID_13_);fill:none;stroke:#FF8B2B;stroke-width:9.0959;stroke-linecap:round;stroke-miterlimit:10;}
	.st206{fill:#A6FFDE;stroke:#0B59C7;stroke-width:5;stroke-linejoin:round;stroke-miterlimit:10;}
	.st207{fill:#A6FFDE;stroke:#0B59C7;stroke-width:4.2028;stroke-linejoin:round;stroke-miterlimit:10;}
	.st208{fill:#8AA1F7;stroke:#1A328C;stroke-width:5;stroke-miterlimit:10;}
	.st209{fill:none;stroke:#1A328C;stroke-width:5;stroke-miterlimit:10;}
	.st210{fill:#0B59C7;stroke:#1A328C;stroke-width:5;stroke-miterlimit:10;}
	.st211{fill:#75FFCE;stroke:#1A328C;stroke-width:5;stroke-miterlimit:10;}
	.st212{fill:#D4DCF7;}
	.st213{opacity:0.8;fill:#D4DCF7;}
	.st214{fill:#558DDB;stroke:#0653BF;stroke-width:5;stroke-linecap:round;stroke-linejoin:round;stroke-miterlimit:10;}
	.st215{fill:#7EB6F2;}
	.st216{fill:#609CE0;}
	.st217{fill:none;stroke:#0B59C7;stroke-width:5;stroke-linecap:round;stroke-linejoin:round;stroke-miterlimit:10;}
	.st218{fill:#FF8B2B;stroke:#0B59C7;stroke-width:5;stroke-miterlimit:10;}
	.st219{fill:none;stroke:#33DEA7;stroke-width:5;stroke-linecap:round;stroke-miterlimit:10;}
	.st220{fill:none;stroke:#33DEA7;stroke-width:5;stroke-linecap:round;stroke-linejoin:round;stroke-miterlimit:10;}
	.st221{clip-path:url(#SVGID_15_);}
	.st222{fill:none;stroke:#1A328C;stroke-width:5;stroke-linecap:round;stroke-linejoin:round;stroke-miterlimit:10;}
	.st223{fill:#8AA1F7;stroke:#33DEA7;stroke-width:0.7994;stroke-miterlimit:10;}
	.st224{fill:none;stroke:#33DEA7;stroke-width:0.7994;stroke-linecap:round;stroke-miterlimit:10;}
	.st225{fill:none;stroke:#33DEA7;stroke-width:0.7994;stroke-linecap:round;stroke-linejoin:round;stroke-miterlimit:10;}
	.st226{clip-path:url(#SVGID_17_);}
	.st227{fill:none;stroke:#33DEA7;stroke-width:6.662;stroke-linecap:round;stroke-linejoin:round;stroke-miterlimit:10;}
	.st228{fill:none;stroke:#1A328C;stroke-width:1.5989;stroke-linecap:round;stroke-linejoin:round;stroke-miterlimit:10;}
	.st229{fill:#4890F1;stroke:#1A328C;stroke-width:1.7649;stroke-linecap:round;stroke-miterlimit:10;}
	.st230{fill:#4890F1;stroke:#1A328C;stroke-width:1.7649;stroke-linecap:round;stroke-linejoin:round;stroke-miterlimit:10;}
	.st231{opacity:0.8;fill:#C4D0FF;}
	.st232{fill:#FFB87D;stroke:#1B3BB3;stroke-width:5;stroke-linecap:round;stroke-linejoin:round;stroke-miterlimit:10;}
	.st233{fill:#FFD6B3;stroke:#1B3BB3;stroke-width:5;stroke-linejoin:round;stroke-miterlimit:10;}
	.st234{fill:#FF8B2B;stroke:#1B3BB3;stroke-width:5;stroke-miterlimit:10;}
	.st235{fill:#FFB87D;stroke:#1B3BB3;stroke-width:5;stroke-linejoin:round;stroke-miterlimit:10;}
	.st236{fill:#96FFD4;stroke:#1B3BB3;stroke-width:5;stroke-linejoin:round;stroke-miterlimit:10;}
	.st237{fill:#1A328C;stroke:#1B3BB3;stroke-width:5;stroke-miterlimit:10;}
	.st238{fill:#0B59C7;stroke:#1B3BB3;stroke-width:5;stroke-miterlimit:10;}
	.st239{fill:#4890F1;stroke:#1B3BB3;stroke-width:5;stroke-miterlimit:10;}
	.st240{fill:#4890F1;stroke:#1B3BB3;stroke-width:5;stroke-linecap:round;stroke-miterlimit:10;}
	.st241{fill:#FFB87D;stroke:#1B3BB3;stroke-width:1.6332;stroke-linecap:round;stroke-linejoin:round;stroke-miterlimit:10;}
	.st242{fill:#FFD8B8;stroke:#1B3BB3;stroke-width:1.6332;stroke-linejoin:round;stroke-miterlimit:10;}
	.st243{fill:#FF8B2B;stroke:#1B3BB3;stroke-width:1.6332;stroke-miterlimit:10;}
	.st244{fill:#FFB87D;stroke:#1B3BB3;stroke-width:1.6332;stroke-linejoin:round;stroke-miterlimit:10;}
	.st245{fill:#1A328C;stroke:#1B3BB3;stroke-width:0.5444;stroke-miterlimit:10;}
	.st246{fill:#0B59C7;stroke:#1B3BB3;stroke-width:0.5444;stroke-miterlimit:10;}
	.st247{fill:#4890F1;stroke:#1B3BB3;stroke-width:1.6332;stroke-miterlimit:10;}
	.st248{fill:#4890F1;stroke:#1B3BB3;stroke-width:1.6332;stroke-linecap:round;stroke-miterlimit:10;}
	.st249{fill:#92FCCA;stroke:#1A328C;stroke-width:5;stroke-miterlimit:10;}
	.st250{fill:none;stroke:#1A328C;stroke-width:5;stroke-linecap:round;stroke-miterlimit:10;}
	.st251{clip-path:url(#SVGID_21_);fill:none;stroke:#8AA1F7;stroke-width:5;stroke-linecap:round;stroke-miterlimit:10;}
	.st252{fill:#7DFFD5;}
	.st253{fill:#B3FFE4;}
	.st254{fill:none;stroke:#274CD4;stroke-width:0.3105;stroke-miterlimit:10;}
	.st255{fill:#FF8B2B;stroke:#0653BF;stroke-width:2.1766;stroke-linecap:round;stroke-linejoin:round;stroke-miterlimit:10;}
	.st256{fill:#FFD2AD;}
	.st257{fill:none;stroke:#0B59C7;stroke-width:2.1766;stroke-linecap:round;stroke-linejoin:round;stroke-miterlimit:10;}
	.st258{fill:#FFB87D;stroke:#33DEA7;stroke-width:5;stroke-miterlimit:10;}
	.st259{fill:#9EFFE0;stroke:#33DEA7;stroke-width:5;stroke-miterlimit:10;}
	.st260{fill:#FF8B2B;stroke:#33DEA7;stroke-width:5;stroke-linejoin:round;stroke-miterlimit:10;}
	.st261{fill:#FF8B2B;stroke:#1A328C;stroke-width:5;stroke-miterlimit:10;}
	.st262{fill:#6AF0B9;stroke:#1A328C;stroke-width:5;stroke-miterlimit:10;}
	.st263{fill:#B5CBE8;stroke:#1A328C;stroke-width:5;stroke-miterlimit:10;}
	.st264{fill:#0B5DD1;stroke:#1A328C;stroke-width:5;stroke-miterlimit:10;}
	.st265{fill:#4890F1;stroke:#1A328C;stroke-width:5;stroke-miterlimit:10;}
	.st266{fill:#6BFFCA;stroke:#1A328C;stroke-width:5;stroke-miterlimit:10;}
	.st267{fill:none;stroke:#0B59C7;stroke-width:5;stroke-linecap:round;stroke-miterlimit:10;}
	.st268{clip-path:url(#SVGID_23_);fill:none;stroke:#FF8B2B;stroke-width:19;stroke-linecap:round;stroke-miterlimit:10;}
	.st269{fill:#FF8B2B;stroke:#0B59C7;stroke-width:5;stroke-linejoin:round;stroke-miterlimit:10;}
	.st270{fill:#FFC99C;}
	.st271{fill:#8AA1F7;stroke:#0B59C7;stroke-width:5;stroke-linejoin:round;stroke-miterlimit:10;}
	.st272{fill:#33DEA7;stroke:#1A328C;stroke-width:5;stroke-miterlimit:10;}
	.st273{fill:#8AA1F7;stroke:#0B59C7;stroke-width:1.5989;stroke-miterlimit:10;}
	.st274{fill:none;stroke:#0B59C7;stroke-width:1.5989;stroke-linecap:round;stroke-miterlimit:10;}
	.st275{fill:none;stroke:#0B59C7;stroke-width:1.5989;stroke-linecap:round;stroke-linejoin:round;stroke-miterlimit:10;}
	.st276{clip-path:url(#SVGID_25_);}
	.st277{fill:none;stroke:#FF8B2B;stroke-width:13.324;stroke-linecap:round;stroke-linejoin:round;stroke-miterlimit:10;}
	.st278{fill:none;stroke:#1A328C;stroke-width:3.1978;stroke-linecap:round;stroke-linejoin:round;stroke-miterlimit:10;}
	.st279{fill:#4890F1;stroke:#1A328C;stroke-width:1.0806;stroke-miterlimit:10;}
	.st280{fill:#4890F1;stroke:#1A328C;stroke-width:1.0806;stroke-linecap:round;stroke-miterlimit:10;}
	.st281{fill:#4890F1;stroke:#1A328C;stroke-width:1.0806;stroke-linecap:round;stroke-linejoin:round;stroke-miterlimit:10;}
	.st282{fill:#8AA1F7;stroke:#1B3BB3;stroke-width:5;stroke-linecap:round;stroke-linejoin:round;stroke-miterlimit:10;}
	.st283{fill:#D1FFEF;stroke:#1B3BB3;stroke-width:5;stroke-linejoin:round;stroke-miterlimit:10;}
	.st284{fill:#AFBFF7;stroke:#1B3BB3;stroke-width:5;stroke-linejoin:round;stroke-miterlimit:10;}
	.st285{fill:#66FFC8;stroke:#1B3BB3;stroke-width:5;stroke-miterlimit:10;}
	.st286{fill:none;stroke:#274CD4;stroke-width:0.9742;stroke-miterlimit:10;}
	.st287{fill:#8AA1F7;stroke:#0653BF;stroke-width:5;stroke-linecap:round;stroke-linejoin:round;stroke-miterlimit:10;}
	.st288{fill:#BAC8FF;}
	.st289{fill:#9EB2FF;}
	.st290{fill:#8AA1F7;stroke:#0B59C7;stroke-width:5;stroke-miterlimit:10;}
	.st291{clip-path:url(#SVGID_29_);}
	.st292{fill:none;stroke:#33DEA7;stroke-width:25;stroke-linecap:round;stroke-linejoin:round;stroke-miterlimit:10;}
	.st293{fill:#0B59C7;stroke:#0B59C7;stroke-width:5;stroke-miterlimit:10;}
	.st294{fill:#4890F1;stroke:#0B59C7;stroke-width:5;stroke-miterlimit:10;}
	.st295{fill:#FF9B47;stroke:#0B59C7;stroke-width:1.6094;stroke-linejoin:round;stroke-miterlimit:10;}
	.st296{fill:#FFC696;}
	.st297{fill:#6CCFAF;stroke:#0B59C7;stroke-width:1.5694;stroke-miterlimit:10;}
	.st298{fill:#9EFFE0;stroke:#0B59C7;stroke-width:1.5694;stroke-miterlimit:10;}
	.st299{fill:none;stroke:#0B59C7;stroke-width:1.5694;stroke-linecap:round;stroke-miterlimit:10;}
	.st300{fill:#00BD80;stroke:#0B59C7;stroke-width:1.5694;stroke-linejoin:round;stroke-miterlimit:10;}
	.st301{fill:#FF8B2B;stroke:#0653BF;stroke-width:1.5522;stroke-linecap:round;stroke-linejoin:round;stroke-miterlimit:10;}
	.st302{fill:none;stroke:#0B59C7;stroke-width:1.5522;stroke-linecap:round;stroke-linejoin:round;stroke-miterlimit:10;}
	.st303{fill:#1D4BB8;}
	.st304{fill:#33DEA7;stroke:#1A328C;stroke-miterlimit:10;}
	.st305{fill:#2DC494;}
	.st306{fill:#E3FFFB;stroke:#1A328C;stroke-miterlimit:10;}
	.st307{fill:#D9E5FF;stroke:#1A328C;stroke-miterlimit:10;}
	.st308{fill:#C9FFEB;}
	.st309{fill:#FFD0A8;}
	.st310{fill:#41F2B3;}
	.st311{fill:#31FFC0;}
	.st312{fill:#5CFFCD;}
	.st313{fill:#87FFDA;}
	.st314{fill:#9CFFE0;}
	.st315{fill:#ADFFE6;}
	.st316{fill:#BAFFEA;}
	.st317{fill:#C4DEFF;}
	.st318{fill:#FFFFFF;stroke:#33DEA7;stroke-width:2.0266;stroke-miterlimit:10;}
	.st319{fill:#FFFFFF;stroke:#FF8B2B;stroke-width:2.0266;stroke-miterlimit:10;}
	.st320{fill:#00BD81;}
	.st321{fill:#FFFFFF;stroke:#4890F1;stroke-width:2.0266;stroke-miterlimit:10;}
	.st322{fill:none;stroke:#1A328C;stroke-width:1.9243;stroke-miterlimit:10;}
	.st323{opacity:0.2;clip-path:url(#SVGID_43_);}
	.st324{clip-path:url(#SVGID_45_);fill:none;stroke:#FF8B2B;stroke-width:9.0959;stroke-linecap:round;stroke-miterlimit:10;}
	.st325{clip-path:url(#SVGID_47_);}
	.st326{clip-path:url(#SVGID_49_);}
	.st327{clip-path:url(#SVGID_53_);fill:none;stroke:#8AA1F7;stroke-width:5;stroke-linecap:round;stroke-miterlimit:10;}
	.st328{clip-path:url(#SVGID_55_);fill:none;stroke:#FF8B2B;stroke-width:19;stroke-linecap:round;stroke-miterlimit:10;}
	.st329{clip-path:url(#SVGID_57_);}
	.st330{clip-path:url(#SVGID_61_);}
	.st331{fill:#FFDCBF;stroke:#BFCCFF;stroke-width:5.4294;stroke-miterlimit:10;}
	.st332{fill:#BFCCFF;}
	.st333{fill:#BFD8FF;stroke:#ADBFFF;stroke-width:3.8251;stroke-miterlimit:10;}
	.st334{fill:#ADBFFF;}
	.st335{fill:#74A9F7;stroke:#6384FF;stroke-width:3.8251;stroke-miterlimit:10;}
	.st336{fill:#74A9F7;}
	.st337{fill:#6384FF;}
	.st338{fill:#94C0FF;stroke:#8FA7FF;stroke-width:4.2215;stroke-miterlimit:10;}
	.st339{fill:#94C0FF;}
	.st340{fill:#8FA7FF;}
	.st341{fill:#FFC899;stroke:#87A1FF;stroke-width:4;stroke-miterlimit:10;}
	.st342{fill:#87A1FF;}
	.st343{fill:#A1FFE6;stroke:#A1B5FF;stroke-width:3;stroke-miterlimit:10;}
	.st344{fill:#A1FFE6;}
	.st345{fill:#CCFFF2;stroke:#BDCAFF;stroke-width:5.4294;stroke-miterlimit:10;}
	.st346{fill:#BDCAFF;}
	.st347{fill:none;stroke:#4890F1;stroke-width:1.7372;stroke-miterlimit:10;}
	.st348{fill:none;stroke:#4890F1;stroke-width:2.5336;stroke-miterlimit:10;}
	.st349{fill:#FFEFE0;stroke:#4890F1;stroke-width:2.5336;stroke-miterlimit:10;}
</style>
<g id="Слой_1">
	<g>
		<circle class="st6" cx="214.76" cy="592.05" r="144.2"/>
		<g>
			<path class="st21" d="M191.85,564.25l0.2,3c0,1.76-2.22,2.64-6.66,2.64c-0.47,0-1.15-0.58-2.03-1.73
				c-0.81-1.08-1.42-1.56-1.83-1.42c-0.37,0-2.23,0.46-5.56,1.37c-3.34,0.91-5.33,1.51-5.97,1.78c-4.1,1.32-6.98,1.98-8.64,1.98
				c-1.56,0-2.8-0.53-3.73-1.57s-1.4-2.07-1.4-3.05c0-1.79,1.53-3.11,4.6-3.94c3.06-0.83,5.73-1.45,8-1.85
				c7.28-1.49,11.55-2.61,12.8-3.35c0.37-6.47,1.13-13.88,2.29-22.25l2.9-21.44c-1.96,0-4.69,1.19-8.18,3.56
				c-6.2,4.06-11.65,6.1-16.36,6.1c-1.52,0-2.29-1.07-2.29-3.2c0-1.35,0.26-2.25,0.79-2.69c0.53-0.44,2.89-1.57,7.09-3.38
				c4.2-1.81,9.48-4.61,15.85-8.41c6.37-3.79,9.84-5.69,10.41-5.69c1.08,0,2.01,0.75,2.79,2.24c0.78,1.49,1.17,2.79,1.17,3.91
				c0,0.95-0.49,1.91-1.47,2.9c-3.32,14.5-5.25,25.59-5.79,33.3c-0.54,7.7-0.63,12.2-0.25,13.49c2.57-0.1,6.28-0.83,11.13-2.18
				c6.67-1.79,12.06-2.69,16.15-2.69c0.81,1.56,1.22,2.88,1.22,3.96c0,1.15-0.17,1.9-0.51,2.24c-0.34,0.34-1.46,0.83-3.35,1.47
				c-1.9,0.64-5.17,1.27-9.8,1.88C198.6,562.15,194.08,563.17,191.85,564.25z"/>
		</g>
		<circle class="st64" cx="185.09" cy="535.05" r="151.26"/>
	</g>
	<g>
		<path class="st29" d="M439.24,1122.49c6.97,13.06,21.54,30.35,35.42,35.48c29.76,11,98.97,32.22,148.56,71.23
			c63.96,50.31,407,127.01,571.46-17.85l53.68-57.25c0,0,30.2-30.31,57.09-30.36c26.89-0.05,57.06-47.17,23.39-80.72
			c0,0-13.47-13.42-33.6,6.78c0,0-23.6-36.94-63.95-40.22c0,0-17.84-52.4-71.64-59.03c0,0-27.98-66.81-72.57-72.31
			c0,0-39.11-55.65-94.82-49.98c0,0-72.57-72.31-111.47-16.51c0,0-83.69-61.14-100.27,16.9c0,0-73.51-56.05-100.25,28.04
			c0,0-33.47-22.23-72.39,27.99c-10.05,16.83-11.06,44.6-11.06,44.6s-54.8,17.67-44.63,68.08c0,0-13.46-6.7-26.82,40.39
			c0,0-6.72,3.37-20.12,26.93c0,0-14.01,26.38-41.91,4.15C443.72,1057.66,424.39,1091.19,439.24,1122.49z"/>
		<g>
			<path class="st65" d="M1296.93,1054.84c0,0-29.16-52.48-75.47-44.02c-8.74,1.6-16.55,6.06-23.62,11.45
				c-5.23,3.99-21.31,13.73-50.55-4.14"/>
			<path class="st65" d="M1226.63,1011.72c0,0-8.67-50.86-55.88-64.23c-26.97-6.67-30.32,3.42-47.16,10.17s-43.82-6.64-43.82-6.64"
				/>
			<path class="st65" d="M1153.9,944.17c0,0-33.89-107.51-104.57-56.96c0,0-13.45,13.47-33.67,13.51"/>
			<path class="st65" d="M1079.64,873.71c0,0-67.57-97.37-138.2-19.92c-20.18,20.21-23.53,30.3-23.53,30.3"/>
			<path class="st65" d="M985.2,826.81c0,0-60.81-83.93-117.96-6.51c0,0-30.24,50.48-43.72,47.14"/>
			<path class="st65" d="M877.33,810.2c0,0-70.88-63.74-101.06,16.99c0,0-13.39,47.09-30.24,50.48"/>
			<path class="st65" d="M776.27,827.19c0,0-33.77-36.92-74.16-13.31c-20.19,16.85-33.56,74.02-33.56,74.02s0.05,26.89-33.65,26.96"
				/>
			<path class="st65" d="M678.6,857.63c0,0-40.49-30.18-77.44,33.76c0,0-13.42,30.28,3.47,57.14c0,0,10.16,26.88,6.81,36.97"/>
			<path class="st65" d="M597.84,925.01c0,0-57.26,13.55-43.67,77.4c0,0,23.66,40.3,20.32,57.11c-3.34,16.81-6.7,23.54-6.7,23.54"/>
			<path class="st65" d="M554.18,1002.41c0,0-26.98-10.04-26.88,43.75c0,0,13.62,77.3-20.07,80.72"/>
			<path class="st65" d="M527.3,1049.52c0,0,1.93-5.83-7.47,0.24c-6.84,4.41-11.67,11.18-14.41,18.84
				c-2.06,5.77-6.67,12.22-16.96,12.28c-6.67,0.04-12.95-2.97-17.72-7.62c-8.07-7.86-25.15-18.55-32.66,21.81
				c-10.01,53.81,50.68,70.5,50.68,70.5s43.81,3.28,84.3,30.1s138.35,103.96,364.12,96.83s296.09-123.24,296.09-123.24
				s46.94-47.15,63.79-43.82c30.26-0.05,50.38-23.62,44.08-65.63c-27.49-55.42-60.63,13.56-60.63,13.56s-11.74,31.96-75.83-4.9"/>
		</g>
		<g>
			<line class="st66" x1="393.43" y1="582.27" x2="393.43" y2="944.32"/>
			<line class="st66" x1="484.98" y1="453.27" x2="484.98" y2="831.96"/>
			<line class="st66" x1="597.34" y1="611.41" x2="597.34" y2="790.35"/>
			<line class="st66" x1="776.29" y1="453.27" x2="776.29" y2="752.9"/>
			<line class="st66" x1="905.29" y1="619.73" x2="905.29" y2="732.09"/>
			<line class="st66" x1="1055.11" y1="453.27" x2="1055.11" y2="715.44"/>
			<line class="st66" x1="1225.73" y1="453.27" x2="1225.73" y2="944.32"/>
			<line class="st66" x1="1167.47" y1="698.8" x2="1167.47" y2="861.09"/>
			<line class="st66" x1="1342.25" y1="702.96" x2="1342.25" y2="977.62"/>
		</g>
		<path class="st34" d="M745.26,834.67c-1.18-10.82-12.77-16.95-22.51-12.08c-11.87,5.94-28.31,21.87-42.18,63.48
			C669.53,922.88,749.68,875.01,745.26,834.67z"/>
		<path class="st34" d="M836.81,809.7c-1.18-10.82-12.77-16.95-22.51-12.08c-11.87,5.94-28.31,21.87-42.18,63.48
			C761.08,897.91,841.23,850.04,836.81,809.7z"/>
		<path class="st34" d="M936.48,815.85c0.73-10.86-9.6-18.93-20.04-15.85c-12.73,3.76-31.71,16.56-52.67,55.08
			C846.43,889.39,933.74,856.34,936.48,815.85z"/>
		<path class="st34" d="M651.32,874.18c-0.84-7.69-9.07-12.04-15.99-8.58c-8.43,4.22-20.11,15.53-29.96,45.09
			C597.52,936.84,654.46,902.84,651.32,874.18z"/>
		<path class="st34" d="M587.43,955.89c-1.82-4.98-8.01-6.53-12.05-3.09c-4.92,4.19-10.84,13.63-12.55,34.92
			C561.9,1006.42,594.21,974.45,587.43,955.89z"/>
		<path class="st34" d="M1172.75,1147.37c4.42-4.24,9.72-7.5,15.6-9.18c8.24-2.36,16.79-1.31,8.93,18.12
			c-13.24,32.73-69.95,77.34-140.32,78.74c-23.28,1.65-18.11-24.46,19.6-26.44C1108.25,1206.96,1157.74,1161.77,1172.75,1147.37z"/>
		<g>
			<path d="M411.5,1477.2h-9.3c-5.32,0-10.04-2.93-14.17-8.79c-4.13-5.86-6.2-11.5-6.2-16.92c0-8.09,2.04-16.4,6.12-24.92
				c4.08-8.52,9.34-15.48,15.77-20.88c6.43-5.4,12.73-8.1,18.9-8.1c0.07,0,1.65-0.16,4.75-0.48c3.1-0.32,5.82-0.48,8.15-0.48
				c3.93,0,7.31,0.68,10.13,2.03c2.83,1.35,5.72,3.56,8.69,6.6c2.96,3.05,5.19,6.57,6.68,10.57c1.49,4,2.24,8.01,2.24,12.04
				c0,5.69-2.9,12.56-8.71,20.6c-5.81,8.04-12.83,14.84-21.06,20.4C425.27,1474.42,417.94,1477.2,411.5,1477.2z M434.26,1403.85
				h-0.3c-0.71,0-2,0.22-3.86,0.66c-2.17,0.51-3.76,0.8-4.78,0.86c-3.35,0.54-7.48,2.2-12.37,4.98c-4.89,2.78-9.93,8.48-15.11,17.09
				c-5.18,8.62-7.77,16.71-7.77,24.26c0,5.11,1.61,9.39,4.83,12.83c3.22,3.44,7.01,5.16,11.38,5.16c6.43,0,13.24-2.23,20.42-6.68
				c7.18-4.45,13.38-9.83,18.62-16.13c5.23-6.3,7.9-10.87,8-13.72l0.1-2.44c0.41-9.69-1.72-16.55-6.38-20.6
				C442.38,1406.07,438.12,1403.98,434.26,1403.85z"/>
			<path d="M474.65,1465.06l-0.1-1.07c-0.34-3.42,0.72-7.01,3.17-10.77c2.46-3.76,8.63-8.13,18.52-13.11
				c6.3-3.18,9.45-6.08,9.45-8.69c0-1.39-0.58-2.46-1.73-3.2c-1.15-0.74-2.15-1.12-3-1.12c-2.54,0-7.42,1.8-14.63,5.38
				c-0.58,0.3-0.91,0.46-1.02,0.46c-2.78,0-4.17-0.98-4.17-2.95c0-3.18,2.74-5.83,8.23-7.95c5.49-2.12,10.26-3.17,14.33-3.17
				c2.54,0,5.2,1.01,7.98,3.02c2.78,2.02,4.17,4.72,4.17,8.1c0,2.78-0.9,5.45-2.69,8.03c-1.79,2.57-6.28,5.84-13.46,9.8
				c-5.89,3.25-9.88,5.93-11.96,8.03c-2.08,2.1-3.12,4.47-3.12,7.11c0,1.93,0.9,3.2,2.69,3.81c1.79,0.61,3.15,0.91,4.06,0.91
				c6.37,0,12.06-1.32,17.07-3.96c1.73-0.88,3.01-1.32,3.86-1.32c1.76,0,2.64,0.98,2.64,2.95c0,2.98-2.41,5.47-7.21,7.47
				c-4.81,2-10.91,3-18.29,3c-3.52,0-6.79-1.01-9.8-3.02C476.61,1470.79,474.95,1468.21,474.65,1465.06z"/>
			<path d="M536.11,1467.96c-1.66,6.1-3.22,14.65-4.67,25.65l-1.42,9.6c-0.24,1.35-0.86,2.7-1.88,4.04
				c-1.02,1.34-1.95,2.01-2.79,2.01c-1.05,0-2.24-0.53-3.58-1.6c-1.34-1.07-2.01-1.92-2.01-2.57c0-1.86,0.42-4.44,1.27-7.72
				c6.2-25.03,9.3-47.01,9.3-65.94l-0.05-4.27c-0.07-3.66,0.58-6.32,1.93-7.98c1.35-1.66,2.91-2.49,4.67-2.49
				c0.81,0,1.59,0.64,2.34,1.91s1.12,3.07,1.12,5.41c0,3.29-0.34,7.26-1.02,11.94c-0.88,5.89-1.34,9.28-1.37,10.16
				c5.05-8.81,10.4-15.68,16.05-20.62c5.66-4.94,10.9-7.42,15.75-7.42c3.42,0,6.31,1.28,8.66,3.84c2.35,2.56,3.53,5.73,3.53,9.52
				c0,11.04-4.23,21.06-12.7,30.07c-8.47,9.01-16.71,13.51-24.74,13.51c-2,0-3.58-0.51-4.75-1.52
				C538.58,1472.48,537.37,1470.63,536.11,1467.96z M567.66,1427.06c-4.77,0-10.68,4.47-17.73,13.41
				c-7.04,8.94-10.57,15.9-10.57,20.88c0,1.22,0.69,2.4,2.08,3.56c1.39,1.15,3.15,1.73,5.28,1.73c4.84,0,10.41-3.58,16.71-10.74
				s9.45-14.2,9.45-21.11c0-2.47-0.5-4.38-1.5-5.72C570.39,1427.73,569.15,1427.06,567.66,1427.06z"/>
			<path d="M608.4,1476.39c-4.64,0-8.47-1.76-11.48-5.28c-3.01-3.52-4.52-7.87-4.52-13.06c0-8.74,2.94-17.35,8.81-25.83
				s12.91-12.73,21.11-12.73c5.42,0,9.81,2.08,13.18,6.25c3.37,4.17,5.05,9.13,5.05,14.88c0,8.81-3.48,16.97-10.44,24.49
				C623.16,1472.63,615.92,1476.39,608.4,1476.39z M601.34,1456.73c0,3.42,0.72,6.21,2.16,8.38c1.44,2.17,3.34,3.25,5.71,3.25
				c5.05,0,10.11-2.77,15.19-8.31s7.62-11.69,7.62-18.47c0-4.17-0.97-7.54-2.92-10.13s-4.56-3.89-7.85-3.89
				c-5.45,0-10.13,3.35-14.05,10.03C603.3,1444.29,601.34,1450.67,601.34,1456.73z"/>
			<path d="M717.21,1429.35c-2.74,4.4-6.6,11.85-11.58,22.35c-1.12,2.37-2.25,4.66-3.4,6.86c-0.37,0.71-1.08,2.29-2.13,4.72
				c-3.56,8.26-6.66,12.4-9.3,12.4c-2.1,0-3.63-0.25-4.6-0.76c-0.97-0.51-1.89-1.9-2.77-4.17c-0.88-2.27-2.18-7.6-3.91-16
				c-2-9.52-3.35-15.37-4.06-17.58c-2.3,5.18-4.35,10.18-6.15,14.99c-2.71,7.08-5.33,12.84-7.87,17.3
				c-2.54,4.45-4.37,7.13-5.49,8.03c-1.12,0.9-2.18,1.35-3.2,1.35c-1.05,0-2-0.41-2.84-1.22c-0.85-0.81-1.27-1.61-1.27-2.39
				c0.2-1.39,0.44-2.25,0.71-2.59c2.95-3.62,5.49-7.48,7.62-11.58c2.13-4.1,4.85-10.24,8.15-18.44c3.3-8.2,5.41-14.92,6.32-20.17
				c0.44-2.24,2.08-3.35,4.93-3.35c1.66,0,2.79,0.25,3.4,0.76c0.61,0.51,1.21,1.54,1.8,3.1c0.59,1.56,0.94,2.95,1.04,4.17
				c0.2,1.46,0.78,4.69,1.73,9.7c0.85,4.71,1.41,8.04,1.68,10.01c0.47,2.81,1.31,6.5,2.51,11.07c1.2,4.57,2.14,6.86,2.82,6.86
				c0.47,0,1.15-1.03,2.03-3.1l4.27-9.85c0.78-1.79,1.61-3.56,2.49-5.28l5.84-11.94c3.18-6.57,5.63-11.34,7.34-14.3
				c1.71-2.96,2.86-4.75,3.45-5.36c0.59-0.61,1.26-0.91,2.01-0.91c1.29,0,2.73,0.35,4.32,1.04c1.59,0.69,2.42,1.47,2.49,2.31
				c0.07,0.85,0.22,4.39,0.46,10.62l0.66,15.85c0.2,5.05,0.51,9.34,0.92,12.88c0.41,3.54,1.12,6.39,2.13,8.56
				c1.59,3.45,2.39,6.13,2.39,8.03c0,1.63-0.67,2.74-2.01,3.35c-1.34,0.61-2.58,0.91-3.73,0.91c-2.37,0-4.19-1.9-5.46-5.69
				c-1.27-3.79-2.19-14.66-2.77-32.61C717.97,1433.87,717.65,1430.57,717.21,1429.35z"/>
			<path d="M780.76,1440.68c0.37-0.71,0.96-4.96,1.78-12.75c0.61-6.23,2.59-9.35,5.94-9.35c2.74,0,4.11,1.37,4.11,4.11
				c0,0.64-0.24,1.95-0.71,3.91c-2.61,10.8-3.91,19.86-3.91,27.18c0,7.92,1.3,13.06,3.91,15.39c1.35,1.25,2.03,2.27,2.03,3.05
				c0,0.95-0.69,1.81-2.06,2.59c-1.37,0.78-2.62,1.17-3.73,1.17c-5.28,0-7.92-8.16-7.92-24.49c0-1.08-0.41-1.63-1.22-1.63
				c-3.18,0-7.08,0.19-11.68,0.56c-4.61,0.37-7.9,0.85-9.88,1.42c-1.98,0.58-3.2,1.11-3.66,1.6c-0.46,0.49-0.86,1.8-1.22,3.91
				c-0.36,2.12-0.53,4.31-0.53,6.58v6.25c0,3.62-1.66,5.44-4.98,5.44c-2.78,0-4.17-1.81-4.17-5.44c0-2.37,0.3-5.38,0.92-9.04
				c1.12-6.71,2.23-18.25,3.35-34.65c0.13-2.13,0.32-3.49,0.56-4.06c0.24-0.58,0.85-1.21,1.85-1.91c1-0.69,2.09-1.04,3.28-1.04
				c2.44,0,3.66,1,3.66,3c0,0.3-0.39,2.84-1.17,7.62c-0.81,4.78-1.22,8.48-1.22,11.13c0,1.86,0.64,2.79,1.93,2.79
				c2.57,0,7.28-0.43,14.12-1.3C776.99,1441.87,780.52,1441.18,780.76,1440.68z"/>
			<path d="M816.37,1416.29c0.44-0.3,0.93-0.46,1.47-0.46c0.85,0,1.56,1.13,2.13,3.4c0,1.46-0.39,3.3-1.17,5.54
				c-2.3,6.4-3.46,10.87-3.46,13.41c0,0.68,0.2,1.05,0.61,1.12c7.79-7.48,15-11.23,21.64-11.23c4.1,0,7.54,1.55,10.31,4.65
				c2.78,3.1,4.17,5.94,4.17,8.51c0,7.86-4.01,15.4-12.01,22.63c-8.01,7.23-16.08,10.85-24.21,10.85c-3.63,0-6.44-1.5-8.46-4.5
				c-2.01-3-3.02-7.29-3.02-12.88c0-6.06,0.76-12.77,2.29-20.12c1.52-7.35,2.74-12.26,3.66-14.73c0.37-1.05,0.71-2.12,1.02-3.2
				C811.68,1417.94,813.36,1416.94,816.37,1416.29z M813.98,1448.14c-0.68,3.76-1.02,7.52-1.02,11.28c0,5.11,2.01,7.67,6.04,7.67
				c4.54,0,9.62-2.71,15.24-8.13c5.62-5.42,8.43-10.68,8.43-15.8c0-2.1-0.56-3.86-1.68-5.28c-1.12-1.42-2.66-2.13-4.62-2.13
				c-2.68,0-5.31,0.67-7.9,2.01c-2.59,1.34-5.48,3.5-8.66,6.48c-1.22,1.15-2.19,2.04-2.92,2.67
				C816.18,1447.53,815.2,1447.94,813.98,1448.14z M865.14,1459.83c0,2.57,0.36,5.47,1.07,8.69c0.13,0.61,0.2,1.12,0.2,1.52
				c0,0.61-0.56,1.4-1.68,2.36c-1.12,0.97-2.3,1.45-3.56,1.45c-3.29,0-4.93-3.01-4.93-9.04c0-5.99,1.3-16.05,3.91-30.17
				c0.95-5.15,1.42-8.26,1.42-9.35c0-2.13,0.39-3.95,1.17-5.46c0.78-1.51,1.88-2.26,3.3-2.26c1.73,0,3.09,0.42,4.09,1.24
				c1,0.83,1.5,1.75,1.5,2.77s-0.24,2.42-0.71,4.22c-2.64,9.65-4.27,16.41-4.88,20.27S865.14,1454.51,865.14,1459.83z"/>
			<path d="M917.67,1451.75c-4.34,7.28-8.77,12.92-13.31,16.92c-4.54,4-8.75,5.99-12.65,5.99c-2.24,0-4.51-1.3-6.83-3.91
				c-2.32-2.61-3.48-6.62-3.48-12.04c0-4.44,1.07-10.97,3.2-19.61c1.79-7.21,2.69-12.28,2.69-15.19c0.98-2.03,2.52-3.05,4.62-3.05
				c1.42,0,2.56,0.5,3.4,1.5c0.85,1,1.27,2.04,1.27,3.12c0,2.37-0.83,5.74-2.49,10.11c-3.15,8.5-4.72,15.8-4.72,21.89
				c0,5.55,1.29,8.33,3.86,8.33c3.28,0,7.47-2.79,12.55-8.38s9.43-13.38,13.06-23.37c1.42-4,2.58-6.6,3.48-7.8
				c0.9-1.2,2.11-1.8,3.63-1.8c2.3,0,3.45,1.52,3.45,4.57c0,0.37-0.32,1.61-0.97,3.71c-2.03,7.42-3.05,14.43-3.05,21.03
				c0,7.92,1.3,13.06,3.91,15.39c1.35,1.25,2.03,2.27,2.03,3.05c0,0.95-0.69,1.81-2.06,2.59c-1.37,0.78-2.62,1.17-3.73,1.17
				c-2.37,0-4.28-1.76-5.74-5.28c-1.46-3.52-2.18-8.72-2.18-15.6v-1.68C917.61,1452.89,917.63,1452.33,917.67,1451.75z
				 M932.4,1399.43c0,0.61-0.18,1.41-0.53,2.41c-0.36,1-0.86,2.04-1.5,3.12c-0.64,1.08-1.42,2.17-2.34,3.25
				c-0.91,1.08-1.95,2.02-3.1,2.79c-0.81,0.58-1.79,1.11-2.92,1.6c-1.13,0.49-2.33,0.91-3.58,1.24c-1.25,0.34-2.53,0.6-3.84,0.79
				c-1.3,0.19-2.55,0.28-3.73,0.28c-1.93,0-3.79-0.23-5.59-0.69c-1.8-0.46-3.45-1.1-4.98-1.93c-1.52-0.83-2.9-1.82-4.11-2.97
				c-1.22-1.15-2.24-2.42-3.05-3.81c-0.24-0.41-0.47-0.9-0.69-1.47c-0.22-0.58-0.41-1.14-0.56-1.7s-0.27-1.06-0.36-1.5
				c-0.08-0.44-0.13-0.73-0.13-0.86c0-0.88,0.12-1.62,0.36-2.21c0.24-0.59,0.53-1.07,0.89-1.42c0.36-0.36,0.75-0.6,1.19-0.74
				c0.44-0.13,0.86-0.2,1.27-0.2c1.02,0,1.86,0.2,2.54,0.58c0.68,0.39,1.05,0.99,1.12,1.8c0.13,1.56,0.45,3.01,0.94,4.37
				c0.49,1.35,1.23,2.51,2.21,3.45c0.98,0.98,2.29,1.79,3.91,2.41c1.63,0.63,3.56,0.94,5.79,0.94c0.54,0,1.18-0.05,1.91-0.15
				c0.73-0.1,1.46-0.25,2.21-0.46c0.74-0.2,1.46-0.44,2.16-0.71c0.69-0.27,1.29-0.58,1.8-0.91c0.81-0.54,1.52-1.19,2.11-1.93
				c0.59-0.74,1.1-1.52,1.52-2.34c0.42-0.81,0.78-1.63,1.07-2.44c0.29-0.81,0.53-1.56,0.74-2.23c0.34-1.02,0.83-1.74,1.47-2.18
				c0.64-0.44,1.3-0.66,1.98-0.66c1.25,0,2.2,0.36,2.85,1.07C932.08,1396.73,932.4,1397.87,932.4,1399.43z"/>
			<path d="M1056.04,1451.75c-4.34,7.28-8.77,12.92-13.31,16.92c-4.54,4-8.75,5.99-12.65,5.99c-2.24,0-4.51-1.3-6.83-3.91
				c-2.32-2.61-3.48-6.62-3.48-12.04c0-2.78,0.29-5.84,0.86-9.19c-3.22,6.37-7.35,11.84-12.4,16.41c-5.05,4.57-9.55,6.86-13.51,6.86
				c-1.9,0-3.97-1.12-6.22-3.35c-2.25-2.24-3.38-5.25-3.38-9.04c0-4.37,0.19-7.65,0.56-9.85c0.3-2,0.56-4.06,0.76-6.2
				c0.2-1.69,0.44-3.28,0.71-4.78c1.32-7.28,1.83-11.97,1.52-14.07c0.71-2.4,2.35-3.61,4.93-3.61c1.02,0,2.01,0.42,2.97,1.24
				c0.96,0.83,1.45,2.19,1.45,4.09c0,3.12-0.7,7.01-2.08,11.68c-1.86,6.27-2.79,11.82-2.79,16.66c0,2.64,0.19,4.69,0.58,6.15
				c0.39,1.46,1.26,2.18,2.62,2.18c4.47,0,9.51-3.96,15.11-11.89s10.05-16.19,13.34-24.79c1.46-3.89,3.29-5.84,5.49-5.84
				c1.42,0,2.56,0.5,3.4,1.5c0.85,1,1.27,2.04,1.27,3.12c0,2.37-0.83,5.74-2.49,10.11c-3.15,8.37-4.72,15.49-4.72,21.39
				c0,5.55,1.29,8.33,3.86,8.33c1.15,0,2.57-0.41,4.24-1.22c1.68-0.81,3.75-2.46,6.22-4.95c2.47-2.49,4.88-5.55,7.24-9.19
				c2.35-3.64,3.84-6.28,4.45-7.92c0.61-1.64,1.85-5.51,3.71-11.61c1.19-3.96,2.28-6.65,3.28-8.05c1-1.4,2.29-2.11,3.89-2.11
				c2.3,0,3.45,1.52,3.45,4.57c0,0.37-0.32,1.61-0.96,3.71c-0.95,3.25-1.75,7.38-2.39,12.37c-0.64,5-0.97,9.12-0.97,12.37
				c0,7.92,1.3,13.06,3.91,15.39c1.35,1.25,2.03,2.27,2.03,3.05c0,0.95-0.69,1.81-2.06,2.59c-1.37,0.78-2.62,1.17-3.73,1.17
				c-2.37,0-4.28-1.76-5.74-5.28c-1.46-3.52-2.18-8.72-2.18-15.6v-1.68C1055.99,1452.89,1056.01,1452.33,1056.04,1451.75z"/>
			<path d="M1115.99,1455.36c-4.74,6.37-9.43,11.14-14.07,14.33c-4.64,3.18-8.89,4.77-12.75,4.77c-2.61,0-4.86-1.1-6.76-3.3
				c-1.9-2.2-2.84-5.03-2.84-8.48c0-8.91,3.98-18.5,11.94-28.78c7.96-10.28,15.87-15.42,23.72-15.42c2.84,0,4.96,1.63,6.35,4.88
				c0.44,1.08,1.13,1.63,2.08,1.63c2.71,0,4.06,1.05,4.06,3.15c0,1.05-0.17,2.49-0.51,4.32c-1.83,9.99-2.74,17.04-2.74,21.13
				c0,8.2,1.56,13.11,4.67,14.73c1.49,0.81,2.24,1.81,2.24,3c0,1.05-0.73,2.11-2.18,3.17c-1.46,1.07-2.86,1.6-4.22,1.6
				c-2.61,0-4.76-1.8-6.45-5.38C1116.83,1467.11,1115.99,1462,1115.99,1455.36z M1112.89,1426.76c-4.47,0-9.67,4.19-15.6,12.57
				c-5.93,8.38-8.89,15.33-8.89,20.85c0,3.9,1.29,5.84,3.86,5.84c3.73,0,8.89-3.76,15.49-11.28c6.6-7.52,9.91-14.43,9.91-20.73
				C1117.66,1429.18,1116.07,1426.76,1112.89,1426.76z"/>
			<path d="M1141.64,1465.06l-0.1-1.07c-0.34-3.42,0.72-7.01,3.17-10.77c2.46-3.76,8.63-8.13,18.52-13.11
				c6.3-3.18,9.45-6.08,9.45-8.69c0-1.39-0.58-2.46-1.73-3.2c-1.15-0.74-2.15-1.12-3-1.12c-2.54,0-7.42,1.8-14.63,5.38
				c-0.58,0.3-0.91,0.46-1.02,0.46c-2.78,0-4.17-0.98-4.17-2.95c0-3.18,2.74-5.83,8.23-7.95c5.49-2.12,10.26-3.17,14.33-3.17
				c2.54,0,5.2,1.01,7.98,3.02c2.78,2.02,4.17,4.72,4.17,8.1c0,2.78-0.9,5.45-2.69,8.03c-1.79,2.57-6.28,5.84-13.46,9.8
				c-5.89,3.25-9.88,5.93-11.96,8.03c-2.08,2.1-3.12,4.47-3.12,7.11c0,1.93,0.9,3.2,2.69,3.81c1.79,0.61,3.15,0.91,4.06,0.91
				c6.37,0,12.06-1.32,17.07-3.96c1.73-0.88,3.01-1.32,3.86-1.32c1.76,0,2.64,0.98,2.64,2.95c0,2.98-2.41,5.47-7.21,7.47
				c-4.81,2-10.91,3-18.29,3c-3.52,0-6.79-1.01-9.8-3.02C1143.6,1470.79,1141.94,1468.21,1141.64,1465.06z"/>
			<path d="M1273.57,1414.72c-1.22-5.28-2.73-8.97-4.52-11.07c-1.8-2.1-4.17-3.73-7.11-4.88c-2.95-1.15-5.61-1.73-7.98-1.73
				c-0.91,0-2.26,0.35-4.04,1.04c-1.78,0.69-3.14,1.33-4.09,1.9c-1.32,0.78-2.54,1.17-3.66,1.17c-1.29,0-1.93-0.68-1.93-2.03
				c0-1.46,1.1-3.47,3.3-6.05c2.2-2.57,6.08-3.86,11.63-3.86h2.18c5.52,0,10.4,1.45,14.63,4.34s7.24,7.04,9.02,12.42
				c1.78,5.38,2.67,12.62,2.67,21.69c0,6.16-1.95,13.63-5.84,22.4c-3.89,8.77-8.85,15.41-14.86,19.91
				c-6.01,4.5-12.4,6.76-19.18,6.76c-2.44,0-4.72-1.41-6.86-4.22s-3.2-6.3-3.2-10.46c0-7.69,1.68-14.47,5.05-20.34
				c3.37-5.88,7.15-10.64,11.33-14.3c4.18-3.66,9.96-6.6,17.35-8.84c2.44-0.71,4.1-1.27,4.98-1.68
				C1273.33,1416.5,1273.7,1415.77,1273.57,1414.72z M1274.94,1425.08c-7.82,1.59-13.82,4.11-17.98,7.57
				c-9.42,8.81-14.12,18.68-14.12,29.62c0,1.46,0.25,2.82,0.76,4.09c0.51,1.27,1.08,1.9,1.73,1.9c2.51,0,4.79-0.44,6.86-1.32
				c2.07-0.88,4.59-2.72,7.57-5.51s5.68-6.26,8.1-10.39c2.42-4.13,4.18-8.11,5.28-11.94c1.1-3.83,1.68-6.76,1.75-8.81
				C1274.95,1428.24,1274.97,1426.5,1274.94,1425.08z"/>
			<path d="M1318.27,1432.45c-0.81-0.03-1.61,0.75-2.39,2.34c-7.01,14.02-12.31,23.54-15.9,28.55c-0.3,0.44-0.69,1.08-1.17,1.93
				c-4.23,7.55-7.33,11.33-9.3,11.33c-2.64,0-3.96-1.27-3.96-3.81c0-2.3,1.64-5.44,4.93-9.4c3.18-3.76,7.37-10.13,12.55-19.13
				c5.18-8.99,9.38-17.06,12.6-24.21c0.61-1.29,1.52-1.93,2.74-1.93c0.51,0,1.41,0.23,2.72,0.69c1.3,0.46,2.14,0.96,2.51,1.5
				c0.37,0.54,1.2,3.69,2.49,9.45c4.17,20.76,8.55,33.07,13.16,36.93c1.08,0.95,1.73,1.58,1.93,1.9c0.2,0.32,0.3,0.77,0.3,1.35
				c0,1.05-0.34,2.01-1.02,2.87c-0.68,0.86-1.34,1.41-1.98,1.65c-0.64,0.24-1.96,0.36-3.96,0.36c-0.71,0-2.37-1.75-4.98-5.26
				c-2.61-3.51-5.66-13.06-9.14-28.68C1319.56,1436.68,1318.84,1433.87,1318.27,1432.45z"/>
			<path d="M1397.72,1420.76c0,0.91-0.71,2.93-2.13,6.05c-1.15,2.51-2.34,7.48-3.56,14.94c-1.22,7.45-1.83,13.5-1.83,18.14
				c0,2.03,0.2,4.76,0.61,8.18c0.17,1.63,0.25,2.98,0.25,4.06c0,0.58-0.5,1.17-1.5,1.78s-1.91,0.91-2.72,0.91
				c-2.1,0-3.45-0.47-4.04-1.42c-0.59-0.95-0.89-2.9-0.89-5.84l0.46-16.41c-5.08,4.23-8.7,7.37-10.87,9.4
				c-2.47,2.27-4.2,3.78-5.18,4.52c-4.67,3.76-8.06,6.96-10.16,9.6c-0.34,0.41-0.86,0.83-1.58,1.27c-0.71,0.44-1.2,0.66-1.47,0.66
				c-1.49,0-2.69-0.71-3.61-2.13c-0.92-1.42-1.37-2.51-1.37-3.25c0-0.85,1.73-2.76,5.18-5.74c0.95-0.81,1.86-1.52,2.74-2.13
				c5.01-3.42,9.99-7.48,14.93-12.19l-5.54,0.05c-1.83-0.14-4-0.89-6.53-2.26c-2.52-1.37-4.06-2.91-4.62-4.62
				c-0.56-1.71-0.84-3.33-0.84-4.85c0-4.88,2.62-9.3,7.87-13.26c5.25-3.96,11.58-6.65,19-8.08c0.85,0,2.3-0.2,4.37-0.61
				c2.07-0.37,3.23-0.56,3.51-0.56c0.34,0,1.17,0.17,2.49,0.51l1.68-0.3c1.05,0,2.13,0.35,3.25,1.04
				C1396.75,1418.89,1397.45,1419.75,1397.72,1420.76z M1387.51,1425.74c-0.37-0.68-0.8-1.02-1.27-1.02
				c-4.74,0-10.02,1.48-15.82,4.45c-5.81,2.96-8.71,6.58-8.71,10.85c0,1.22,0.75,2.27,2.26,3.15c1.51,0.88,3.67,1.32,6.48,1.32
				c5.08,0,8.97-0.49,11.68-1.47c0.81-0.54,1.47-1.66,1.98-3.35L1387.51,1425.74z"/>
			<path d="M568.07,1535.43c-5.28,4.61-10.5,8.26-15.65,10.97c-5.15,2.71-9.03,4.06-11.63,4.06c-3.35,0-5.92-1.4-7.7-4.19
				c-1.78-2.79-2.67-6.05-2.67-9.78c0-5.01,0.88-10.59,2.64-16.74c1.76-6.15,4.78-9.22,9.04-9.22c0.95,0,1.73,0.56,2.34,1.68
				s0.91,2.39,0.91,3.81c0,1.86-0.91,4.37-2.74,7.52c-2.37,4.03-3.56,7.47-3.56,10.31c0,1.66,0.3,3.29,0.89,4.88
				c0.59,1.59,1.62,2.39,3.07,2.39c3.66,0,8.27-1.85,13.84-5.56c5.57-3.71,9-6.96,10.29-9.75s1.93-4.95,1.93-6.48
				c0-0.68-0.07-1.32-0.2-1.93c-0.14-0.61-0.2-1.25-0.2-1.93c0-1.25,0.42-2.72,1.27-4.39c0.85-1.68,1.98-2.51,3.4-2.51
				c1.73,0,2.93,0.39,3.61,1.17c0.68,0.78,1.02,2.71,1.02,5.79c0,1.93-0.3,6.18-0.91,12.75c-0.14,1.46-0.22,2.83-0.25,4.11
				c-0.24,4.3-0.97,10.6-2.21,18.9c-1.24,8.3-2.21,12.95-2.92,13.97s-1.71,1.52-3,1.52c-3.22,0-4.83-1.03-4.83-3.1
				c0-1.05,0.15-1.98,0.46-2.79C564.78,1559.66,566.04,1551.18,568.07,1535.43z"/>
			<path d="M631.77,1548.18c0,3.45-3.06,7.62-9.17,12.5c-6.11,4.88-12.42,7.31-18.92,7.31c-5.45,0-9.66-1.61-12.62-4.83
				c-2.96-3.22-4.44-7.7-4.44-13.46c0-9.69,3.27-18.9,9.8-27.64c6.54-8.74,13.68-13.11,21.44-13.11c2.54,0,4.61,0.83,6.22,2.49
				c1.61,1.66,2.41,3.66,2.41,5.99c0,5.22-2.56,10.21-7.67,14.99c-5.11,4.77-11.96,9.47-20.52,14.07c-1.76,0.91-2.64,2.1-2.64,3.56
				c0,2.81,0.81,5.06,2.44,6.76c1.63,1.69,4.03,2.54,7.21,2.54c7.28,0,14.71-4.03,22.3-12.09c1.12-1.12,1.96-1.68,2.54-1.68
				C631.23,1545.59,631.77,1546.45,631.77,1548.18z M596.46,1540.25c14.36-8.53,21.54-15.39,21.54-20.57c0-2.03-0.91-3.05-2.74-3.05
				c-3.12,0-6.63,2.29-10.54,6.86C600.81,1528.06,598.06,1533.65,596.46,1540.25z"/>
			<path d="M670.89,1524c-0.81-0.03-1.61,0.75-2.39,2.34c-7.01,14.02-12.31,23.54-15.9,28.55c-0.3,0.44-0.69,1.08-1.17,1.93
				c-4.23,7.55-7.33,11.33-9.3,11.33c-2.64,0-3.96-1.27-3.96-3.81c0-2.3,1.64-5.44,4.93-9.4c3.18-3.76,7.37-10.13,12.55-19.13
				c5.18-8.99,9.38-17.06,12.6-24.21c0.61-1.29,1.52-1.93,2.74-1.93c0.51,0,1.41,0.23,2.72,0.69c1.3,0.46,2.14,0.96,2.51,1.5
				c0.37,0.54,1.2,3.69,2.49,9.45c4.17,20.76,8.55,33.07,13.16,36.93c1.08,0.95,1.73,1.58,1.93,1.9c0.2,0.32,0.3,0.77,0.3,1.35
				c0,1.05-0.34,2.01-1.02,2.87c-0.68,0.86-1.34,1.41-1.98,1.65c-0.64,0.24-1.96,0.36-3.96,0.36c-0.71,0-2.37-1.75-4.98-5.26
				c-2.61-3.51-5.66-13.06-9.14-28.68C672.17,1528.23,671.46,1525.42,670.89,1524z"/>
			<path d="M719.35,1567.94c-4.64,0-8.47-1.76-11.48-5.28c-3.01-3.52-4.52-7.87-4.52-13.06c0-8.74,2.94-17.35,8.81-25.83
				s12.91-12.73,21.11-12.73c5.42,0,9.81,2.08,13.18,6.25c3.37,4.17,5.05,9.13,5.05,14.88c0,8.81-3.48,16.97-10.44,24.49
				C734.1,1564.18,726.87,1567.94,719.35,1567.94z M712.29,1548.28c0,3.42,0.72,6.21,2.16,8.38c1.44,2.17,3.34,3.25,5.71,3.25
				c5.05,0,10.11-2.77,15.19-8.31s7.62-11.69,7.62-18.47c0-4.17-0.97-7.54-2.92-10.13s-4.56-3.89-7.85-3.89
				c-5.45,0-10.13,3.35-14.05,10.03C714.24,1535.84,712.29,1542.22,712.29,1548.28z"/>
			<path d="M794.73,1513.64c7.69,3.12,11.53,10.5,11.53,22.15c0,8.74-2.73,16.38-8.18,22.91c-5.45,6.54-11.38,9.8-17.78,9.8
				c-5.72,0-10.18-2.27-13.36-6.81c-3.18-4.54-4.78-11.18-4.78-19.91c0-10.53,1.85-21.19,5.56-31.98
				c3.71-10.79,8.33-18.93,13.87-24.43c5.54-5.5,11.13-8.25,16.79-8.25c3.42,0,6.17,1.13,8.25,3.38c2.08,2.25,3.12,5.38,3.12,9.37
				c0,3.18-1.38,6.96-4.14,11.33C802.87,1505.56,799.24,1509.71,794.73,1513.64z M796.97,1537.21c0-5.05-0.93-9.11-2.79-12.19
				c-1.86-3.08-3.93-4.62-6.2-4.62c-0.68,0-4.45,2.61-11.33,7.82c-1.76,1.35-3.47,2.61-5.13,3.76c-0.51,2.91-0.76,6.11-0.76,9.6
				c0,6.16,0.92,10.8,2.77,13.92c1.85,3.12,4.39,4.67,7.65,4.67c4.54,0,8.31-2.38,11.3-7.14c3-4.76,4.5-10,4.5-15.72V1537.21z
				 M772.69,1522.88c13.04-10.06,21.1-17.25,24.18-21.56c3.08-4.32,4.62-7.71,4.62-10.19c0-3.96-1.59-5.94-4.77-5.94
				c-4.44,0-8.9,3.34-13.39,10.01C778.84,1501.87,775.29,1511.1,772.69,1522.88z"/>
			<path d="M862.6,1548.18c0,3.45-3.06,7.62-9.17,12.5c-6.11,4.88-12.42,7.31-18.92,7.31c-5.45,0-9.66-1.61-12.62-4.83
				c-2.96-3.22-4.44-7.7-4.44-13.46c0-9.69,3.27-18.9,9.8-27.64c6.54-8.74,13.68-13.11,21.44-13.11c2.54,0,4.61,0.83,6.22,2.49
				c1.61,1.66,2.41,3.66,2.41,5.99c0,5.22-2.56,10.21-7.67,14.99c-5.11,4.77-11.96,9.47-20.52,14.07c-1.76,0.91-2.64,2.1-2.64,3.56
				c0,2.81,0.81,5.06,2.44,6.76c1.63,1.69,4.03,2.54,7.21,2.54c7.28,0,14.71-4.03,22.3-12.09c1.12-1.12,1.96-1.68,2.54-1.68
				C862.06,1545.59,862.6,1546.45,862.6,1548.18z M827.3,1540.25c14.36-8.53,21.54-15.39,21.54-20.57c0-2.03-0.91-3.05-2.74-3.05
				c-3.12,0-6.63,2.29-10.54,6.86C831.64,1528.06,828.89,1533.65,827.3,1540.25z"/>
			<path d="M909.18,1535.43c-5.28,4.61-10.5,8.26-15.65,10.97c-5.15,2.71-9.03,4.06-11.63,4.06c-3.35,0-5.92-1.4-7.7-4.19
				c-1.78-2.79-2.67-6.05-2.67-9.78c0-5.01,0.88-10.59,2.64-16.74c1.76-6.15,4.78-9.22,9.04-9.22c0.95,0,1.73,0.56,2.34,1.68
				s0.91,2.39,0.91,3.81c0,1.86-0.91,4.37-2.74,7.52c-2.37,4.03-3.56,7.47-3.56,10.31c0,1.66,0.3,3.29,0.89,4.88
				c0.59,1.59,1.62,2.39,3.07,2.39c3.66,0,8.27-1.85,13.84-5.56c5.57-3.71,9-6.96,10.29-9.75s1.93-4.95,1.93-6.48
				c0-0.68-0.07-1.32-0.2-1.93c-0.14-0.61-0.2-1.25-0.2-1.93c0-1.25,0.42-2.72,1.27-4.39c0.85-1.68,1.98-2.51,3.4-2.51
				c1.73,0,2.93,0.39,3.61,1.17c0.68,0.78,1.02,2.71,1.02,5.79c0,1.93-0.3,6.18-0.91,12.75c-0.14,1.46-0.22,2.83-0.25,4.11
				c-0.24,4.3-0.97,10.6-2.21,18.9c-1.24,8.3-2.21,12.95-2.92,13.97s-1.71,1.52-3,1.52c-3.22,0-4.83-1.03-4.83-3.1
				c0-1.05,0.15-1.98,0.46-2.79C905.9,1559.66,907.15,1551.18,909.18,1535.43z"/>
			<path d="M972.89,1548.18c0,3.45-3.06,7.62-9.17,12.5c-6.11,4.88-12.42,7.31-18.92,7.31c-5.45,0-9.66-1.61-12.62-4.83
				c-2.96-3.22-4.44-7.7-4.44-13.46c0-9.69,3.27-18.9,9.8-27.64c6.54-8.74,13.68-13.11,21.44-13.11c2.54,0,4.61,0.83,6.22,2.49
				c1.61,1.66,2.41,3.66,2.41,5.99c0,5.22-2.56,10.21-7.67,14.99c-5.11,4.77-11.96,9.47-20.52,14.07c-1.76,0.91-2.64,2.1-2.64,3.56
				c0,2.81,0.81,5.06,2.44,6.76c1.63,1.69,4.03,2.54,7.21,2.54c7.28,0,14.71-4.03,22.3-12.09c1.12-1.12,1.96-1.68,2.54-1.68
				C972.34,1545.59,972.89,1546.45,972.89,1548.18z M937.58,1540.25c14.36-8.53,21.54-15.39,21.54-20.57c0-2.03-0.91-3.05-2.74-3.05
				c-3.12,0-6.63,2.29-10.54,6.86C941.92,1528.06,939.17,1533.65,937.58,1540.25z"/>
			<path d="M997.37,1568.3c-5.08,0-8.98-1.46-11.71-4.37c-2.73-2.91-4.09-6.99-4.09-12.24c0-8.84,3.5-18.16,10.52-27.96
				c7.01-9.8,13.53-14.71,19.56-14.71c2.74,0,5.11,1.48,7.09,4.44c1.98,2.96,2.97,6.1,2.97,9.42c0,2-0.43,3.72-1.29,5.16
				c-0.86,1.44-1.74,2.16-2.62,2.16c-1.96,0-3.35-1.98-4.17-5.94c-0.91-4.27-2.23-6.4-3.96-6.4c-3.52,0-7.69,4.18-12.5,12.55
				s-7.21,15.43-7.21,21.18c0,5.76,3.27,8.64,9.8,8.64c4.98,0,10.84-2.34,17.58-7.01c2.37-1.66,4.11-2.49,5.23-2.49
				c1.15,0,1.73,0.66,1.73,1.98c0,2.57-3.03,5.82-9.09,9.73C1009.14,1566.34,1003.2,1568.3,997.37,1568.3z"/>
			<path d="M1074.59,1525.22c-3.15,0.07-9.89,9.4-20.22,27.99c-3.49,6.27-5.52,9.68-6.1,10.24c-0.58,0.56-1.63,1.06-3.17,1.5
				c-1.54,0.44-2.82,0.66-3.84,0.66c-2.27,0-3.4-4.42-3.4-13.26c0-4.98,1.07-13.99,3.2-27.03c0.88-5.28,1.32-9.06,1.32-11.33
				c0-2.24,1-3.35,3-3.35c3.76,0,5.64,2.71,5.64,8.13c0,2.54-0.63,7.52-1.88,14.94c-1.46,8.47-2.2,13.61-2.24,15.44
				c2.1-2.03,5.18-6.48,9.25-13.36c5.76-9.41,10-15.38,12.72-17.91c2.73-2.52,5.54-3.78,8.46-3.78c2.2,0,3.95,1.47,5.26,4.42
				s2.09,9.97,2.36,21.08c0.07,2.78,0.32,4.84,0.76,6.2c0.44,1.35,0.76,2.03,0.97,2.03c1.59,0,5.05-5.42,10.36-16.26
				c2.84-5.72,5.61-10.07,8.31-13.06c2.69-2.98,5.68-4.47,8.97-4.47c2.74,0,4.74,1.41,5.99,4.24c1.25,2.83,2.15,7.02,2.69,12.57
				c0.51,5.62,1.29,10.77,2.36,15.44c1.07,4.67,3.02,7.67,5.87,8.99c1.93,0.91,2.9,1.98,2.9,3.2c0,1.19-0.81,2.4-2.44,3.66
				c-1.63,1.25-3.12,1.88-4.47,1.88c-2.71,0-5.13-1.66-7.26-4.98c-2.13-3.32-3.74-10.5-4.83-21.54c-0.47-4.44-0.93-7.59-1.37-9.45
				c-0.44-1.86-1.14-2.79-2.08-2.79c-1.42,0-3.11,1.35-5.05,4.06c-1.95,2.71-5.09,8.21-9.42,16.51c-3.39,6.47-5.95,10.78-7.7,12.93
				c-1.75,2.15-3.43,3.23-5.05,3.23c-1.46,0-2.76-0.58-3.91-1.75c-1.15-1.17-1.88-2.57-2.18-4.22c-0.3-1.64-0.63-5.68-0.97-12.12
				C1076.87,1533.21,1075.94,1526.98,1074.59,1525.22z"/>
			<path d="M1174.56,1513.64c7.69,3.12,11.53,10.5,11.53,22.15c0,8.74-2.73,16.38-8.18,22.91c-5.45,6.54-11.38,9.8-17.78,9.8
				c-5.72,0-10.18-2.27-13.36-6.81c-3.18-4.54-4.78-11.18-4.78-19.91c0-10.53,1.85-21.19,5.56-31.98
				c3.71-10.79,8.33-18.93,13.87-24.43c5.54-5.5,11.13-8.25,16.79-8.25c3.42,0,6.17,1.13,8.25,3.38c2.08,2.25,3.12,5.38,3.12,9.37
				c0,3.18-1.38,6.96-4.14,11.33C1182.7,1505.56,1179.06,1509.71,1174.56,1513.64z M1176.8,1537.21c0-5.05-0.93-9.11-2.79-12.19
				c-1.86-3.08-3.93-4.62-6.2-4.62c-0.68,0-4.45,2.61-11.33,7.82c-1.76,1.35-3.47,2.61-5.13,3.76c-0.51,2.91-0.76,6.11-0.76,9.6
				c0,6.16,0.92,10.8,2.77,13.92c1.85,3.12,4.39,4.67,7.65,4.67c4.54,0,8.31-2.38,11.3-7.14c3-4.76,4.5-10,4.5-15.72V1537.21z
				 M1152.51,1522.88c13.04-10.06,21.1-17.25,24.18-21.56c3.08-4.32,4.62-7.71,4.62-10.19c0-3.96-1.59-5.94-4.77-5.94
				c-4.44,0-8.9,3.34-13.39,10.01C1158.67,1501.87,1155.12,1511.1,1152.51,1522.88z"/>
			<path d="M1230.64,1546.91c-4.74,6.37-9.43,11.14-14.07,14.33c-4.64,3.18-8.89,4.77-12.75,4.77c-2.61,0-4.86-1.1-6.76-3.3
				c-1.9-2.2-2.84-5.03-2.84-8.48c0-8.91,3.98-18.5,11.94-28.78c7.96-10.28,15.87-15.42,23.72-15.42c2.84,0,4.96,1.63,6.35,4.88
				c0.44,1.08,1.13,1.63,2.08,1.63c2.71,0,4.06,1.05,4.06,3.15c0,1.05-0.17,2.49-0.51,4.32c-1.83,9.99-2.74,17.04-2.74,21.13
				c0,8.2,1.56,13.11,4.67,14.73c1.49,0.81,2.24,1.81,2.24,3c0,1.05-0.73,2.11-2.18,3.17c-1.46,1.07-2.86,1.6-4.22,1.6
				c-2.61,0-4.76-1.8-6.45-5.38C1231.49,1558.66,1230.64,1553.55,1230.64,1546.91z M1227.54,1518.31c-4.47,0-9.67,4.19-15.6,12.57
				c-5.93,8.38-8.89,15.33-8.89,20.85c0,3.9,1.29,5.84,3.86,5.84c3.73,0,8.89-3.76,15.49-11.28c6.6-7.52,9.91-14.43,9.91-20.73
				C1232.32,1520.73,1230.73,1518.31,1227.54,1518.31z"/>
			<path class="st21" d="M522.91,1624.92v-0.87c0-2.59,0.24-4.81,0.73-6.67s1.42-4.31,2.81-7.36c1.88-4.07,3.28-6.65,4.17-7.74
				c0.41-0.51,1.92-1.96,4.54-4.33c1.6-1.46,2.8-2.36,3.59-2.71c0.79-0.34,1.44-0.52,1.93-0.52c0.76,0,1.14,0.46,1.14,1.37
				c0,0.6-1.27,2.11-3.8,4.54c-3.43,3.22-6.21,7-8.32,11.33s-3.17,8.1-3.17,11.31c0,1.53,0.43,4.49,1.29,8.88
				c0.11,0.55,0.18,0.96,0.21,1.24c0.58,2.85,1.27,4.99,2.06,6.42c0.79,1.43,2.05,2.89,3.78,4.38c1.88,1.62,2.83,2.89,2.83,3.8
				c0,1.02-0.86,1.53-2.59,1.53c-1.06,0-2.29-0.8-3.71-2.4c-1.42-1.6-2.69-3.25-3.83-4.95c-1.14-1.7-2.03-4.5-2.68-8.4
				S522.91,1626.93,522.91,1624.92z"/>
			<path class="st21" d="M562.64,1609.23c4,1.62,6,5.46,6,11.52c0,4.54-1.42,8.52-4.25,11.91c-2.84,3.4-5.92,5.1-9.25,5.1
				c-2.98,0-5.29-1.18-6.95-3.54c-1.66-2.36-2.48-5.81-2.48-10.35c0-5.48,0.96-11.02,2.89-16.63c1.93-5.61,4.33-9.84,7.21-12.71
				s5.79-4.29,8.73-4.29c1.78,0,3.21,0.59,4.29,1.76c1.08,1.17,1.63,2.8,1.63,4.87c0,1.66-0.72,3.62-2.15,5.89
				C566.87,1605.03,564.98,1607.19,562.64,1609.23z M563.8,1621.48c0-2.62-0.48-4.74-1.45-6.34c-0.97-1.6-2.04-2.4-3.22-2.4
				c-0.35,0-2.32,1.36-5.89,4.07c-0.92,0.7-1.81,1.36-2.67,1.96c-0.26,1.51-0.4,3.18-0.4,4.99c0,3.21,0.48,5.62,1.44,7.24
				s2.29,2.43,3.98,2.43c2.36,0,4.32-1.24,5.88-3.71c1.56-2.47,2.34-5.2,2.34-8.18V1621.48z M551.17,1614.04
				c6.78-5.23,10.97-8.97,12.57-11.21c1.6-2.25,2.4-4.01,2.4-5.3c0-2.06-0.83-3.09-2.48-3.09c-2.31,0-4.63,1.73-6.96,5.2
				C554.37,1603.11,552.53,1607.91,551.17,1614.04z"/>
			<path class="st21" d="M581.71,1637.47c-2.41,0-4.4-0.92-5.97-2.75c-1.57-1.83-2.35-4.09-2.35-6.79c0-4.54,1.53-9.02,4.58-13.43
				c3.05-4.41,6.71-6.62,10.98-6.62c2.82,0,5.1,1.08,6.85,3.25c1.75,2.17,2.63,4.75,2.63,7.74c0,4.58-1.81,8.82-5.43,12.73
				S585.62,1637.47,581.71,1637.47z M578.04,1627.24c0,1.78,0.37,3.23,1.12,4.36c0.75,1.13,1.74,1.69,2.97,1.69
				c2.62,0,5.26-1.44,7.9-4.32s3.96-6.08,3.96-9.6c0-2.17-0.51-3.92-1.52-5.27s-2.37-2.02-4.08-2.02c-2.84,0-5.27,1.74-7.3,5.22
				C579.06,1620.78,578.04,1624.09,578.04,1627.24z"/>
			<path class="st21" d="M617.5,1619.9c2.27,0.37,4.04,1.21,5.31,2.51c1.27,1.3,1.9,2.9,1.9,4.78c0,2.98-1.26,5.46-3.78,7.44
				c-2.52,1.98-5.83,2.97-9.93,2.97c-2.45,0-4.56-0.53-6.33-1.58c-1.77-1.06-2.65-2.23-2.65-3.51c0-1.06,0.61-1.58,1.82-1.58
				c0.18,0,0.45,0.15,0.82,0.45c1.94,1.67,4.24,2.51,6.89,2.51c2.34,0,4.36-0.62,6.05-1.85c1.69-1.23,2.54-2.84,2.54-4.81
				c0-1.3-0.48-2.39-1.44-3.26c-0.96-0.87-2.07-1.31-3.34-1.31c-0.97,0-2.67,0.38-5.1,1.14c-0.48,0.16-0.99,0.24-1.53,0.24
				c-1.06,0-1.58-0.71-1.58-2.14c0-0.49,0.25-0.89,0.75-1.19c0.5-0.3,1.58-0.64,3.24-1.03c5.02-1.14,7.53-3.18,7.53-6.1
				c0-0.88-0.31-1.61-0.94-2.18c-0.63-0.57-1.43-0.86-2.42-0.86c-1.83,0-3.79,0.81-5.86,2.43c-1.22,0.95-2.14,1.43-2.77,1.43
				c-1.08,0-1.61-0.5-1.61-1.51c0-1.32,1.25-2.67,3.74-4.06c2.49-1.38,4.88-2.07,7.17-2.07s4.09,0.61,5.4,1.82
				c1.31,1.22,1.97,2.49,1.97,3.83C623.34,1615.59,621.39,1618.09,617.5,1619.9z"/>
			<path class="st21" d="M636.73,1606.22c0.23-0.16,0.48-0.24,0.77-0.24c0.44,0,0.81,0.59,1.11,1.77c0,0.76-0.2,1.72-0.61,2.88
				c-1.2,3.33-1.8,5.65-1.8,6.97c0,0.35,0.11,0.55,0.32,0.58c4.05-3.89,7.8-5.84,11.25-5.84c2.13,0,3.92,0.81,5.36,2.42
				c1.44,1.61,2.17,3.09,2.17,4.42c0,4.09-2.08,8.01-6.25,11.77c-4.17,3.76-8.36,5.64-12.59,5.64c-1.88,0-3.35-0.78-4.4-2.34
				s-1.57-3.79-1.57-6.7c0-3.15,0.4-6.64,1.19-10.46c0.79-3.82,1.43-6.37,1.9-7.66c0.19-0.55,0.37-1.1,0.53-1.66
				C634.29,1607.07,635.17,1606.55,636.73,1606.22z M635.49,1622.78c-0.35,1.95-0.53,3.91-0.53,5.86c0,2.66,1.05,3.99,3.14,3.99
				c2.36,0,5-1.41,7.92-4.23c2.92-2.82,4.38-5.56,4.38-8.22c0-1.09-0.29-2.01-0.87-2.75s-1.38-1.11-2.4-1.11
				c-1.39,0-2.76,0.35-4.11,1.04c-1.35,0.7-2.85,1.82-4.5,3.37c-0.63,0.6-1.14,1.06-1.52,1.39
				C636.63,1622.46,636.13,1622.67,635.49,1622.78z"/>
			<path class="st21" d="M694.11,1613.01c-1.43,2.29-3.43,6.16-6.02,11.62c-0.58,1.23-1.17,2.42-1.77,3.57
				c-0.19,0.37-0.56,1.19-1.11,2.46c-1.85,4.3-3.46,6.45-4.83,6.45c-1.09,0-1.89-0.13-2.39-0.4s-0.98-0.99-1.44-2.17
				c-0.46-1.18-1.14-3.95-2.03-8.32c-1.04-4.95-1.74-8-2.11-9.14c-1.2,2.69-2.26,5.29-3.2,7.79c-1.41,3.68-2.77,6.68-4.09,8.99
				c-1.32,2.32-2.27,3.71-2.85,4.17c-0.58,0.47-1.14,0.7-1.66,0.7c-0.55,0-1.04-0.21-1.48-0.63c-0.44-0.42-0.66-0.84-0.66-1.24
				c0.11-0.72,0.23-1.17,0.37-1.35c1.53-1.88,2.85-3.89,3.96-6.02c1.11-2.13,2.52-5.33,4.24-9.59c1.72-4.26,2.81-7.76,3.29-10.49
				c0.23-1.16,1.08-1.74,2.56-1.74c0.86,0,1.45,0.13,1.77,0.4c0.32,0.26,0.63,0.8,0.94,1.61c0.31,0.81,0.49,1.53,0.54,2.17
				c0.11,0.76,0.41,2.44,0.9,5.05c0.44,2.45,0.73,4.18,0.87,5.2c0.25,1.46,0.68,3.38,1.31,5.76s1.11,3.57,1.47,3.57
				c0.25,0,0.6-0.54,1.06-1.61l2.22-5.12c0.4-0.93,0.84-1.85,1.29-2.75l3.04-6.21c1.66-3.42,2.93-5.89,3.82-7.44
				c0.89-1.54,1.49-2.47,1.8-2.79c0.31-0.32,0.66-0.48,1.04-0.48c0.67,0,1.42,0.18,2.25,0.54c0.83,0.36,1.26,0.76,1.29,1.2
				c0.04,0.44,0.11,2.28,0.24,5.52l0.34,8.24c0.11,2.62,0.26,4.86,0.48,6.7s0.58,3.32,1.11,4.45c0.83,1.8,1.24,3.19,1.24,4.17
				c0,0.85-0.35,1.43-1.04,1.74c-0.7,0.32-1.34,0.48-1.94,0.48c-1.23,0-2.18-0.99-2.84-2.96s-1.14-7.63-1.44-16.96
				C694.51,1615.36,694.34,1613.64,694.11,1613.01z"/>
			<path class="st21" d="M726.36,1624.65c-2.25,3.79-4.56,6.72-6.92,8.8c-2.36,2.08-4.55,3.12-6.58,3.12
				c-1.16,0-2.35-0.68-3.55-2.03c-1.21-1.36-1.81-3.44-1.81-6.26c0-2.31,0.55-5.71,1.66-10.2c0.93-3.75,1.4-6.38,1.4-7.9
				c0.51-1.06,1.31-1.58,2.4-1.58c0.74,0,1.33,0.26,1.77,0.78c0.44,0.52,0.66,1.06,0.66,1.63c0,1.23-0.43,2.98-1.29,5.26
				c-1.64,4.42-2.46,8.22-2.46,11.39c0,2.89,0.67,4.33,2.01,4.33c1.71,0,3.88-1.45,6.52-4.36s4.9-6.96,6.79-12.15
				c0.74-2.08,1.34-3.43,1.81-4.05c0.47-0.63,1.1-0.94,1.89-0.94c1.2,0,1.8,0.79,1.8,2.38c0,0.19-0.17,0.84-0.5,1.93
				c-1.06,3.86-1.58,7.5-1.58,10.94c0,4.12,0.68,6.79,2.03,8c0.7,0.65,1.06,1.18,1.06,1.58c0,0.49-0.36,0.94-1.07,1.35
				c-0.71,0.4-1.36,0.61-1.94,0.61c-1.23,0-2.23-0.92-2.98-2.75c-0.76-1.83-1.14-4.53-1.14-8.11v-0.87
				C726.34,1625.25,726.34,1624.95,726.36,1624.65z"/>
			<path class="st21" d="M769.55,1637.65c-2.64,0-4.67-0.76-6.09-2.27c-1.42-1.51-2.13-3.64-2.13-6.37c0-4.6,1.82-9.44,5.47-14.54
				c3.65-5.1,7.04-7.65,10.17-7.65c1.43,0,2.66,0.77,3.68,2.31c1.03,1.54,1.55,3.17,1.55,4.9c0,1.04-0.22,1.93-0.67,2.68
				c-0.45,0.75-0.9,1.12-1.36,1.12c-1.02,0-1.74-1.03-2.17-3.09c-0.48-2.22-1.16-3.33-2.06-3.33c-1.83,0-4,2.18-6.5,6.52
				c-2.5,4.35-3.75,8.02-3.75,11.02c0,2.99,1.7,4.49,5.1,4.49c2.59,0,5.64-1.22,9.14-3.65c1.23-0.86,2.14-1.29,2.72-1.29
				c0.6,0,0.9,0.34,0.9,1.03c0,1.34-1.58,3.02-4.73,5.06C775.67,1636.63,772.58,1637.65,769.55,1637.65z"/>
			<path class="st21" d="M829.38,1615.83c-0.92,0-1.92,0.6-3,1.8c-1.08,1.2-2.73,3.88-4.95,8.06c-2.92,5.6-4.81,8.79-5.67,9.56
				s-1.56,1.16-2.13,1.16c-2.08,0-3.12-1-3.12-3.01c0-0.85,0.14-2.04,0.42-3.59c0.97-5.32,1.45-10.93,1.45-16.83
				c0-0.67,0.29-1.41,0.86-2.23c0.57-0.82,1.11-1.23,1.62-1.23c0.92,0,1.57,0.28,1.96,0.85c0.39,0.56,0.58,1.7,0.58,3.41
				c0,1.78-0.53,5.44-1.58,10.99c-0.35,1.83-0.53,2.99-0.53,3.49c0,0.28,0.07,0.42,0.21,0.42c0.26,0,1.49-2.1,3.67-6.31
				c2.2-4.28,4.13-7.29,5.79-9.03c1.66-1.74,3.48-2.62,5.47-2.62c1.58,0,2.88,0.72,3.87,2.17s1.72,4.08,2.18,7.9
				c0.49,4.35,0.94,7.06,1.33,8.12c0.4,1.07,1.03,1.6,1.89,1.6c0.55,0,1.23-0.19,2.06-0.58c0.14-0.07,0.25-0.11,0.32-0.11
				c0.76,0,1.14,0.44,1.14,1.32c0,0.78-0.52,1.6-1.56,2.47c-1.04,0.87-2.29,1.31-3.75,1.31c-1.5,0-2.65-0.59-3.47-1.78
				c-0.82-1.19-1.47-4.36-1.94-9.52C832.01,1618.42,830.97,1615.83,829.38,1615.83z"/>
			<path class="st21" d="M854.98,1637.47c-2.41,0-4.4-0.92-5.97-2.75c-1.57-1.83-2.35-4.09-2.35-6.79c0-4.54,1.53-9.02,4.58-13.43
				c3.05-4.41,6.71-6.62,10.98-6.62c2.82,0,5.1,1.08,6.85,3.25c1.75,2.17,2.63,4.75,2.63,7.74c0,4.58-1.81,8.82-5.43,12.73
				S858.89,1637.47,854.98,1637.47z M851.31,1627.24c0,1.78,0.37,3.23,1.12,4.36c0.75,1.13,1.74,1.69,2.97,1.69
				c2.62,0,5.26-1.44,7.9-4.32s3.96-6.08,3.96-9.6c0-2.17-0.51-3.92-1.52-5.27s-2.37-2.02-4.08-2.02c-2.84,0-5.27,1.74-7.3,5.22
				C852.33,1620.78,851.31,1624.09,851.31,1627.24z"/>
			<path class="st21" d="M892.67,1614.62c-0.42-0.02-0.84,0.39-1.24,1.22c-3.65,7.29-6.4,12.24-8.27,14.85
				c-0.16,0.23-0.36,0.56-0.61,1c-2.2,3.93-3.81,5.89-4.83,5.89c-1.37,0-2.06-0.66-2.06-1.98c0-1.2,0.85-2.83,2.56-4.89
				c1.66-1.96,3.83-5.27,6.53-9.95c2.69-4.68,4.88-8.87,6.55-12.59c0.32-0.67,0.79-1,1.43-1c0.26,0,0.73,0.12,1.41,0.36
				c0.68,0.24,1.11,0.5,1.31,0.78c0.19,0.28,0.63,1.92,1.29,4.91c2.17,10.8,4.45,17.2,6.84,19.2c0.56,0.49,0.9,0.82,1,0.99
				s0.16,0.4,0.16,0.7c0,0.55-0.18,1.04-0.53,1.49s-0.7,0.73-1.03,0.86c-0.33,0.12-1.02,0.19-2.06,0.19c-0.37,0-1.23-0.91-2.59-2.73
				c-1.36-1.82-2.94-6.79-4.75-14.91C893.34,1616.82,892.97,1615.36,892.67,1614.62z"/>
			<path class="st21" d="M915.52,1622.25c4.17-0.72,7.92-3.42,11.23-8.08c1.55-2.17,2.91-3.7,4.08-4.61
				c1.17-0.91,2.42-1.36,3.74-1.36c0.53,0,1.06,0.24,1.58,0.71c0.53,0.48,0.79,1.04,0.79,1.69c0,0.86-0.82,1.54-2.46,2.03
				c-0.86,0.26-1.67,0.71-2.43,1.35c-0.76,0.63-2.19,2.15-4.31,4.54c-1.66,1.87-3.14,3.18-4.46,3.94c-0.12,0.07-0.18,0.13-0.18,0.18
				c0,0.07,0.08,0.14,0.24,0.21c1.29,0.69,2.64,2.02,4.07,3.99c2.08,2.87,3.64,4.68,4.68,5.43c1.04,0.75,2.23,1.12,3.57,1.12
				l0.87-0.03c0.62-0.04,0.92,0.24,0.92,0.82c0,0.67-0.38,1.36-1.14,2.09c-0.76,0.72-2.01,1.08-3.75,1.08
				c-1.34,0-2.64-0.58-3.9-1.73c-1.26-1.15-2.7-3.02-4.32-5.61c-0.93-1.53-1.8-2.69-2.62-3.49c-0.81-0.79-1.71-1.19-2.69-1.19
				c-0.21,0-0.86,0.18-1.95,0.53c-1.09,0.35-1.7,0.69-1.84,1.02c-0.13,0.33-0.23,1.5-0.29,3.51c-0.06,2.02-0.09,3.64-0.09,4.87
				c0,0.65-0.31,1.23-0.92,1.74c-0.62,0.51-1.29,0.77-2.01,0.77c-0.74,0-1.32-0.22-1.74-0.65c-0.42-0.43-0.63-0.88-0.63-1.33
				c0-0.63,0.24-2.13,0.71-4.49c0.84-4.3,1.69-11.39,2.54-21.26c0.07-0.95,0.43-1.81,1.08-2.58c0.65-0.77,1.39-1.15,2.22-1.15
				c0.46,0,0.84,0.25,1.15,0.74c0.31,0.49,0.46,1.13,0.46,1.9c0,0.62-0.11,1.32-0.32,2.11
				C916.4,1614.72,915.77,1618.45,915.52,1622.25z"/>
			<path class="st21" d="M959.85,1624.65c-2.25,3.79-4.56,6.72-6.92,8.8c-2.36,2.08-4.55,3.12-6.58,3.12
				c-1.16,0-2.35-0.68-3.55-2.03c-1.21-1.36-1.81-3.44-1.81-6.26c0-2.31,0.55-5.71,1.66-10.2c0.93-3.75,1.4-6.38,1.4-7.9
				c0.51-1.06,1.31-1.58,2.4-1.58c0.74,0,1.33,0.26,1.77,0.78c0.44,0.52,0.66,1.06,0.66,1.63c0,1.23-0.43,2.98-1.29,5.26
				c-1.64,4.42-2.46,8.22-2.46,11.39c0,2.89,0.67,4.33,2.01,4.33c1.71,0,3.88-1.45,6.52-4.36s4.9-6.96,6.79-12.15
				c0.74-2.08,1.34-3.43,1.81-4.05c0.47-0.63,1.1-0.94,1.89-0.94c1.2,0,1.8,0.79,1.8,2.38c0,0.19-0.17,0.84-0.5,1.93
				c-1.06,3.86-1.58,7.5-1.58,10.94c0,4.12,0.68,6.79,2.03,8c0.7,0.65,1.06,1.18,1.06,1.58c0,0.49-0.36,0.94-1.07,1.35
				c-0.71,0.4-1.36,0.61-1.94,0.61c-1.23,0-2.23-0.92-2.98-2.75c-0.76-1.83-1.14-4.53-1.14-8.11v-0.87
				C959.82,1625.25,959.83,1624.95,959.85,1624.65z"/>
			<path class="st21" d="M1013.82,1615.83c-0.92,0-1.92,0.6-3,1.8c-1.08,1.2-2.73,3.88-4.95,8.06c-2.92,5.6-4.81,8.79-5.67,9.56
				s-1.56,1.16-2.13,1.16c-2.08,0-3.12-1-3.12-3.01c0-0.85,0.14-2.04,0.42-3.59c0.97-5.32,1.45-10.93,1.45-16.83
				c0-0.67,0.29-1.41,0.86-2.23c0.57-0.82,1.11-1.23,1.62-1.23c0.92,0,1.57,0.28,1.96,0.85c0.39,0.56,0.58,1.7,0.58,3.41
				c0,1.78-0.53,5.44-1.58,10.99c-0.35,1.83-0.53,2.99-0.53,3.49c0,0.28,0.07,0.42,0.21,0.42c0.26,0,1.49-2.1,3.67-6.31
				c2.2-4.28,4.13-7.29,5.79-9.03c1.66-1.74,3.48-2.62,5.47-2.62c1.58,0,2.88,0.72,3.87,2.17s1.72,4.08,2.18,7.9
				c0.49,4.35,0.94,7.06,1.33,8.12c0.4,1.07,1.03,1.6,1.89,1.6c0.55,0,1.23-0.19,2.06-0.58c0.14-0.07,0.25-0.11,0.32-0.11
				c0.76,0,1.14,0.44,1.14,1.32c0,0.78-0.52,1.6-1.56,2.47c-1.04,0.87-2.29,1.31-3.75,1.31c-1.5,0-2.65-0.59-3.47-1.78
				c-0.82-1.19-1.47-4.36-1.94-9.52C1016.44,1618.42,1015.4,1615.83,1013.82,1615.83z"/>
			<path class="st21" d="M1050.35,1624.65c-2.25,3.79-4.56,6.72-6.92,8.8c-2.36,2.08-4.55,3.12-6.58,3.12
				c-1.16,0-2.35-0.68-3.55-2.03c-1.21-1.36-1.81-3.44-1.81-6.26c0-2.31,0.55-5.71,1.66-10.2c0.93-3.75,1.4-6.38,1.4-7.9
				c0.51-1.06,1.31-1.58,2.4-1.58c0.74,0,1.33,0.26,1.77,0.78c0.44,0.52,0.66,1.06,0.66,1.63c0,1.23-0.43,2.98-1.29,5.26
				c-1.64,4.42-2.46,8.22-2.46,11.39c0,2.89,0.67,4.33,2.01,4.33c1.71,0,3.88-1.45,6.52-4.36s4.9-6.96,6.79-12.15
				c0.74-2.08,1.34-3.43,1.81-4.05c0.47-0.63,1.1-0.94,1.89-0.94c1.2,0,1.8,0.79,1.8,2.38c0,0.19-0.17,0.84-0.5,1.93
				c-1.06,3.86-1.58,7.5-1.58,10.94c0,4.12,0.68,6.79,2.03,8c0.7,0.65,1.06,1.18,1.06,1.58c0,0.49-0.36,0.94-1.07,1.35
				c-0.71,0.4-1.36,0.61-1.94,0.61c-1.23,0-2.23-0.92-2.98-2.75c-0.76-1.83-1.14-4.53-1.14-8.11v-0.87
				C1050.32,1625.25,1050.33,1624.95,1050.35,1624.65z"/>
			<path class="st21" d="M1069.79,1633.08c-0.86,3.17-1.67,7.62-2.43,13.34l-0.74,4.99c-0.12,0.7-0.45,1.4-0.98,2.1
				s-1.01,1.04-1.45,1.04c-0.55,0-1.17-0.28-1.86-0.83c-0.7-0.55-1.04-1-1.04-1.33c0-0.97,0.22-2.31,0.66-4.02
				c3.22-13.01,4.83-24.44,4.83-34.29l-0.03-2.22c-0.04-1.9,0.3-3.28,1-4.15c0.7-0.86,1.51-1.29,2.43-1.29
				c0.42,0,0.83,0.33,1.21,0.99c0.39,0.66,0.58,1.6,0.58,2.81c0,1.71-0.18,3.78-0.53,6.21c-0.46,3.06-0.7,4.83-0.71,5.28
				c2.62-4.58,5.41-8.15,8.35-10.72c2.94-2.57,5.67-3.86,8.19-3.86c1.78,0,3.28,0.67,4.5,1.99c1.22,1.33,1.84,2.98,1.84,4.95
				c0,5.74-2.2,10.95-6.6,15.64c-4.4,4.68-8.69,7.03-12.87,7.03c-1.04,0-1.86-0.26-2.47-0.79S1070.44,1634.47,1069.79,1633.08z
				 M1086.2,1611.82c-2.48,0-5.56,2.32-9.22,6.97c-3.66,4.65-5.5,8.27-5.5,10.86c0,0.63,0.36,1.25,1.08,1.85
				c0.72,0.6,1.64,0.9,2.75,0.9c2.52,0,5.42-1.86,8.69-5.59s4.91-7.38,4.91-10.98c0-1.29-0.26-2.28-0.78-2.97
				S1086.97,1611.82,1086.2,1611.82z"/>
			<path class="st21" d="M1107.38,1637.47c-2.41,0-4.4-0.92-5.97-2.75c-1.57-1.83-2.35-4.09-2.35-6.79c0-4.54,1.53-9.02,4.58-13.43
				c3.05-4.41,6.71-6.62,10.98-6.62c2.82,0,5.1,1.08,6.85,3.25c1.75,2.17,2.63,4.75,2.63,7.74c0,4.58-1.81,8.82-5.43,12.73
				S1111.29,1637.47,1107.38,1637.47z M1103.71,1627.24c0,1.78,0.37,3.23,1.12,4.36c0.75,1.13,1.74,1.69,2.97,1.69
				c2.62,0,5.26-1.44,7.9-4.32s3.96-6.08,3.96-9.6c0-2.17-0.51-3.92-1.52-5.27s-2.37-2.02-4.08-2.02c-2.84,0-5.27,1.74-7.3,5.22
				C1104.73,1620.78,1103.71,1624.09,1103.71,1627.24z"/>
			<path class="st21" d="M1152.5,1624.13c-0.23,3.96-0.61,7.85-1.14,11.65c-0.26,0.72-0.93,1.08-2.01,1.08
				c-1.55,0-2.32-0.79-2.32-2.38c0-0.65,0.18-1.87,0.55-3.65c0.26-1.55,0.41-2.6,0.42-3.16s0.06-1.16,0.13-1.82
				c0.07-0.66,0.06-1.18-0.03-1.57c-0.9,0.12-2.73,1.2-5.49,3.22c-2.77,2.02-5.13,4.03-7.11,6.02v-0.03
				c-0.12,0.07-0.51,0.73-1.16,1.98c-0.93,1.87-1.96,2.8-3.09,2.8c-0.53,0-1.11-0.23-1.76-0.69c-0.64-0.46-0.96-0.92-0.96-1.37
				c0-1.09,1.03-2.72,3.08-4.87c2.05-2.16,4.32-4,6.8-5.53c3.03-1.87,5.12-3.37,6.26-4.52c-0.51-0.72-1.51-1.51-2.99-2.38
				c-1.5-0.88-2.89-1.87-4.17-2.96c-0.18-0.14-0.39-0.3-0.63-0.48c-2.27-1.53-3.78-2.68-4.53-3.45c-0.75-0.77-1.12-1.59-1.12-2.47
				c0-0.58,0.22-1.11,0.66-1.6c0.44-0.48,0.87-0.73,1.29-0.73c0.26,0,0.74,0.14,1.43,0.42c0.69,0.28,1.18,0.58,1.48,0.9l1.29,1.22
				c4.56,4.47,8.17,7.32,10.83,8.53c0.14,0,0.32-0.17,0.53-0.5c0.18-0.6,0.26-1.56,0.26-2.88c0-1.23-0.13-2.61-0.4-4.15
				c-0.14-0.79-0.21-1.31-0.21-1.56c0-0.83,0.32-1.5,0.96-2.01c0.64-0.51,1.34-0.77,2.1-0.77c0.86,0,1.45,0.18,1.77,0.53
				c0.32,0.35,0.48,0.95,0.48,1.8l-0.34,8.4v0.53c0,0.25,0.01,0.45,0.03,0.61c0.62,0,1.26-0.24,1.93-0.73
				c0.67-0.48,1.66-1.45,2.98-2.89c5.79-6,9.15-9.01,10.06-9.01c0.51,0,0.98,0.21,1.4,0.63s0.63,0.92,0.63,1.48
				c0,0.28-0.96,1.48-2.89,3.58c-1.93,2.1-3.91,4.04-5.96,5.8c-2.62,2.25-3.94,3.43-3.94,3.51c0,0.12,1.09,1.04,3.28,2.75
				c2.36,1.85,3.99,3.16,4.89,3.94c0.12,0.09,0.3,0.2,0.53,0.34c2.61,1.6,4.24,2.8,4.89,3.59s0.98,1.46,0.98,2.01
				c0,0.51-0.22,1.04-0.66,1.57c-0.44,0.54-0.87,0.81-1.29,0.81c-1.57,0-5.2-2.63-10.91-7.9c-2.54-2.36-4.07-3.6-4.6-3.72
				c-0.23-0.04-0.41-0.08-0.53-0.13c-0.18-0.05-0.49-0.07-0.95-0.04C1152.78,1623.93,1152.53,1624,1152.5,1624.13z"/>
			<path class="st21" d="M1184.91,1637.47c-2.41,0-4.4-0.92-5.97-2.75c-1.57-1.83-2.35-4.09-2.35-6.79c0-4.54,1.53-9.02,4.58-13.43
				c3.05-4.41,6.71-6.62,10.98-6.62c2.82,0,5.1,1.08,6.85,3.25c1.75,2.17,2.63,4.75,2.63,7.74c0,4.58-1.81,8.82-5.43,12.73
				S1188.82,1637.47,1184.91,1637.47z M1181.24,1627.24c0,1.78,0.37,3.23,1.12,4.36c0.75,1.13,1.74,1.69,2.97,1.69
				c2.62,0,5.26-1.44,7.9-4.32s3.96-6.08,3.96-9.6c0-2.17-0.51-3.92-1.52-5.27s-2.37-2.02-4.08-2.02c-2.84,0-5.27,1.74-7.3,5.22
				C1182.26,1620.78,1181.24,1624.09,1181.24,1627.24z"/>
			<path class="st21" d="M1213.15,1622.25c4.17-0.72,7.92-3.42,11.23-8.08c1.55-2.17,2.91-3.7,4.08-4.61
				c1.17-0.91,2.42-1.36,3.74-1.36c0.53,0,1.06,0.24,1.58,0.71c0.53,0.48,0.79,1.04,0.79,1.69c0,0.86-0.82,1.54-2.46,2.03
				c-0.86,0.26-1.67,0.71-2.43,1.35c-0.76,0.63-2.19,2.15-4.31,4.54c-1.66,1.87-3.14,3.18-4.46,3.94c-0.12,0.07-0.18,0.13-0.18,0.18
				c0,0.07,0.08,0.14,0.24,0.21c1.29,0.69,2.64,2.02,4.07,3.99c2.08,2.87,3.64,4.68,4.68,5.43c1.04,0.75,2.23,1.12,3.57,1.12
				l0.87-0.03c0.62-0.04,0.92,0.24,0.92,0.82c0,0.67-0.38,1.36-1.14,2.09c-0.76,0.72-2.01,1.08-3.75,1.08
				c-1.34,0-2.64-0.58-3.9-1.73c-1.26-1.15-2.7-3.02-4.32-5.61c-0.93-1.53-1.8-2.69-2.62-3.49c-0.81-0.79-1.71-1.19-2.69-1.19
				c-0.21,0-0.86,0.18-1.95,0.53c-1.09,0.35-1.7,0.69-1.84,1.02c-0.13,0.33-0.23,1.5-0.29,3.51c-0.06,2.02-0.09,3.64-0.09,4.87
				c0,0.65-0.31,1.23-0.92,1.74c-0.62,0.51-1.29,0.77-2.01,0.77c-0.74,0-1.32-0.22-1.74-0.65c-0.42-0.43-0.63-0.88-0.63-1.33
				c0-0.63,0.24-2.13,0.71-4.49c0.84-4.3,1.69-11.39,2.54-21.26c0.07-0.95,0.43-1.81,1.08-2.58c0.65-0.77,1.39-1.15,2.22-1.15
				c0.46,0,0.84,0.25,1.15,0.74c0.31,0.49,0.46,1.13,0.46,1.9c0,0.62-0.11,1.32-0.32,2.11
				C1214.02,1614.72,1213.4,1618.45,1213.15,1622.25z"/>
			<path class="st21" d="M1240.99,1649.56c-0.58,0-1.12-0.19-1.63-0.57c-0.5-0.38-0.75-0.77-0.75-1.18c0-0.35,0.15-0.79,0.44-1.32
				c0.29-0.53,1.28-1.86,2.97-3.99c1.2-1.44,2.52-4.04,3.98-7.79c1.45-3.75,2.18-6.07,2.18-6.95c0-5.64-0.79-10.65-2.38-15.06
				c-1.58-4.4-2.99-7.59-4.2-9.55c-1.21-1.96-2.99-4-5.31-6.12c-0.21-0.21-0.32-0.57-0.32-1.08c0-0.26,0.25-0.62,0.77-1.06
				c0.51-0.44,1.03-0.66,1.56-0.66c0.77,0,1.62,0.5,2.52,1.49c0.91,1,2.29,2.91,4.13,5.73c1.85,2.83,3,5.02,3.46,6.59
				c0.46,1.5,0.93,2.96,1.43,4.38c1.43,4.16,2.14,8.59,2.14,13.31c0,6.41-2.17,12.42-6.52,18.02c-0.74,0.99-1.27,1.78-1.58,2.38
				c-0.55,1.06-1.03,1.89-1.45,2.5C1241.99,1649.26,1241.52,1649.56,1240.99,1649.56z"/>
		</g>
	</g>
	<g>
		<path class="st18" d="M1336.59,410.65c-0.48,0.62-1.54,0.93-3.18,0.93c-0.6,0-1.59-0.08-2.97-0.24c-1.57-0.18-2.69-0.28-3.38-0.28
			h-2.28c-0.67,0-1.27,0.01-1.8,0.03h-1.66c-0.55,0-1.14,0.01-1.76,0.03c-0.51,0.99-0.76,2.56-0.76,4.7c0,2.63-0.06,4.27-0.17,4.94
			c-0.12,0.65-0.14,1.56-0.07,2.75c0.07,1.19-0.56,1.78-1.9,1.78c-0.99,0-1.64-0.19-1.95-0.57c-0.31-0.38-0.47-1.06-0.47-2.06
			c0-0.53,0.2-2.34,0.59-5.42c0.18-1.5,0.37-3.53,0.55-6.11c-1.47-0.14-3.7-0.21-6.67-0.21c-0.51,0-1.19,0.12-2.04,0.35
			c-0.9,0.21-1.49,0.31-1.76,0.31c-0.62,0-1.18-0.24-1.67-0.71c-0.5-0.47-0.74-1.02-0.74-1.64c0-0.46,0.17-0.95,0.5-1.47
			c0.33-0.52,0.71-0.78,1.12-0.78c0.81,0,1.65,0.08,2.52,0.24c0.9,0.16,1.57,0.24,2,0.24l6.94-0.35c0.28-0.88,0.42-1.77,0.42-2.69
			c0-1.24-0.09-3.36-0.28-6.36c-0.09-1.24-0.14-2.31-0.14-3.21c0-0.78,0.24-1.57,0.71-2.35c0.47-0.78,1.07-1.17,1.78-1.17
			c0.37,0,0.78,0.38,1.23,1.14s0.67,1.35,0.67,1.76c0,1.2-0.1,2.8-0.31,4.8c-0.21,2-0.31,3.37-0.31,4.11c0,1.17,0.07,2.35,0.21,3.52
			c0.46,0.16,1.81,0.24,4.04,0.24l7.91-0.14c2.14,0,3.52,0.23,4.15,0.69C1336.28,407.93,1336.59,408.99,1336.59,410.65z"/>
		<path class="st18" d="M1351.86,428.99c-3.68,0-6.53-1.25-8.53-3.77c-2-2.51-3.01-5.64-3.01-9.4c0-4.58,1.41-9.64,4.21-15.16
			c2.81-5.53,6.9-10.06,12.28-13.61c5.38-3.55,10.12-5.32,14.21-5.32c2.99,0,6.22,0.99,9.67,2.97c3.45,1.98,5.87,4.2,7.25,6.67
			c1.38,2.46,2.07,5.73,2.07,9.81c0,6.1-3.98,12.26-11.94,18.48C1370.14,425.88,1361.4,428.99,1351.86,428.99z M1376.18,388.43
			c-0.53,0.67-1.36,1-2.49,1c-0.16,0-0.6-0.25-1.31-0.76c-0.74-0.53-1.4-0.79-2-0.79c-2.83,0-5.08,0.44-6.74,1.33
			c-1.66,0.89-3.93,2.72-6.82,5.51c-2.89,2.79-5.25,5.84-7.06,9.17c-1.82,3.33-2.73,6.71-2.73,10.14c0,4.08,0.96,6.63,2.87,7.67
			c1.91,1.04,4,1.55,6.25,1.55c2.86,0,6.42-1.14,10.71-3.42c4.28-2.28,8.24-5.21,11.88-8.79c3.64-3.58,5.46-6.5,5.46-8.76
			c0-1.29-0.21-2.79-0.62-4.51c-0.42-1.72-0.87-2.9-1.36-3.54c-0.5-0.64-1.42-1.68-2.76-3.11
			C1378.1,389.7,1377.01,388.8,1376.18,388.43z"/>
		<path class="st18" d="M1391.38,434.69c4.28-1.06,7.03-2.56,8.26-4.51c1.22-1.95,1.83-3.33,1.83-4.16c0-2.35-0.32-4.01-0.97-4.97
			c-0.3-0.44-0.45-0.86-0.45-1.28c0-0.35,0.16-0.84,0.47-1.49c0.31-0.64,0.63-0.97,0.95-0.97c0.48,0,1.24,0.18,2.28,0.54
			c1.04,0.36,1.65,0.67,1.83,0.93c0.18,0.27,0.49,1.12,0.92,2.57c0.43,1.45,0.64,2.69,0.64,3.73c0,0.39-0.43,1.61-1.3,3.64
			s-2.04,3.63-3.54,4.77c-1.5,1.14-2.9,1.84-4.21,2.09c-0.53,0.09-1.03,0.22-1.49,0.38c-1.82,0.81-3.3,1.21-4.46,1.21
			c-0.67,0-1-0.54-1-1.62C1391.14,435.14,1391.22,434.85,1391.38,434.69z"/>
		<path class="st18" d="M1439.4,423.74l0.14,2.04c0,1.2-1.51,1.8-4.53,1.8c-0.32,0-0.78-0.39-1.38-1.17
			c-0.55-0.74-0.97-1.06-1.24-0.97c-0.25,0-1.51,0.31-3.78,0.93c-2.27,0.62-3.62,1.02-4.06,1.21c-2.79,0.9-4.74,1.35-5.87,1.35
			c-1.06,0-1.91-0.36-2.54-1.07s-0.95-1.4-0.95-2.07c0-1.22,1.04-2.11,3.13-2.68c2.08-0.56,3.9-0.98,5.44-1.26
			c4.95-1.01,7.85-1.77,8.71-2.28c0.25-4.4,0.77-9.44,1.55-15.13l1.97-14.58c-1.34,0-3.19,0.81-5.56,2.42
			c-4.21,2.76-7.92,4.15-11.12,4.15c-1.04,0-1.55-0.73-1.55-2.18c0-0.92,0.18-1.53,0.54-1.83s1.96-1.06,4.82-2.3
			c2.86-1.23,6.45-3.14,10.78-5.72c4.33-2.58,6.69-3.87,7.08-3.87c0.74,0,1.37,0.51,1.9,1.52c0.53,1.01,0.79,1.9,0.79,2.66
			c0,0.65-0.33,1.3-1,1.97c-2.26,9.86-3.57,17.4-3.94,22.64c-0.37,5.24-0.43,8.3-0.17,9.17c1.75-0.07,4.27-0.56,7.57-1.49
			c4.54-1.22,8.2-1.83,10.98-1.83c0.55,1.06,0.83,1.96,0.83,2.69c0,0.78-0.12,1.29-0.34,1.52c-0.23,0.23-0.99,0.56-2.28,1
			c-1.29,0.44-3.51,0.86-6.67,1.28C1443.99,422.31,1440.91,423,1439.4,423.74z"/>
		<path class="st18" d="M1501.88,409.95c5.46-0.94,10.35-4.47,14.68-10.57c2.03-2.83,3.8-4.84,5.34-6.03
			c1.53-1.19,3.16-1.78,4.89-1.78c0.69,0,1.38,0.31,2.07,0.93c0.69,0.62,1.04,1.36,1.04,2.21c0,1.13-1.07,2.02-3.21,2.66
			c-1.13,0.35-2.19,0.93-3.18,1.76s-2.87,2.81-5.63,5.94c-2.17,2.44-4.11,4.16-5.84,5.15c-0.16,0.09-0.24,0.17-0.24,0.24
			c0,0.09,0.1,0.18,0.31,0.28c1.68,0.9,3.46,2.64,5.32,5.22c2.72,3.75,4.75,6.12,6.11,7.1c1.36,0.98,2.91,1.47,4.66,1.47l1.14-0.03
			c0.81-0.05,1.21,0.31,1.21,1.07c0,0.88-0.5,1.78-1.49,2.73c-0.99,0.94-2.63,1.42-4.91,1.42c-1.75,0-3.45-0.75-5.09-2.26
			c-1.65-1.51-3.53-3.96-5.65-7.34c-1.22-2-2.36-3.52-3.42-4.56c-1.06-1.04-2.23-1.55-3.52-1.55c-0.28,0-1.13,0.23-2.56,0.69
			c-1.43,0.46-2.23,0.9-2.4,1.33c-0.17,0.43-0.3,1.96-0.38,4.59c-0.08,2.64-0.12,4.76-0.12,6.37c0,0.85-0.4,1.61-1.21,2.28
			c-0.81,0.67-1.68,1-2.63,1c-0.97,0-1.73-0.28-2.28-0.85c-0.55-0.56-0.83-1.15-0.83-1.74c0-0.83,0.31-2.79,0.93-5.87
			c1.11-5.62,2.21-14.89,3.32-27.81c0.09-1.24,0.56-2.37,1.42-3.37c0.85-1,1.82-1.5,2.9-1.5c0.6,0,1.1,0.32,1.5,0.97
			c0.4,0.65,0.6,1.47,0.6,2.49c0,0.81-0.14,1.73-0.41,2.76C1503.02,400.11,1502.21,404.98,1501.88,409.95z"/>
		<path class="st18" d="M1590.04,387.92c-0.83-3.59-1.85-6.1-3.07-7.53c-1.22-1.43-2.83-2.53-4.84-3.32c-2-0.78-3.81-1.17-5.42-1.17
			c-0.62,0-1.54,0.24-2.75,0.71c-1.21,0.47-2.14,0.9-2.78,1.3c-0.9,0.53-1.73,0.79-2.49,0.79c-0.88,0-1.31-0.46-1.31-1.38
			c0-0.99,0.75-2.36,2.25-4.11c1.5-1.75,4.13-2.63,7.91-2.63h1.49c3.75,0,7.07,0.98,9.95,2.95c2.88,1.97,4.92,4.78,6.13,8.45
			s1.81,8.58,1.81,14.75c0,4.19-1.32,9.27-3.97,15.23c-2.65,5.96-6.02,10.48-10.1,13.54c-4.09,3.06-8.43,4.59-13.04,4.59
			c-1.66,0-3.21-0.96-4.66-2.87c-1.45-1.91-2.18-4.28-2.18-7.12c0-5.23,1.15-9.84,3.44-13.83c2.29-4,4.86-7.24,7.7-9.72
			c2.84-2.49,6.78-4.49,11.8-6.01c1.66-0.48,2.79-0.86,3.39-1.14C1589.88,389.12,1590.13,388.63,1590.04,387.92z M1590.97,394.96
			c-5.32,1.08-9.4,2.8-12.23,5.15c-6.4,5.99-9.6,12.7-9.6,20.14c0,0.99,0.17,1.92,0.52,2.78c0.35,0.86,0.74,1.3,1.17,1.3
			c1.7,0,3.26-0.3,4.66-0.9c1.4-0.6,3.12-1.85,5.15-3.75c2.03-1.9,3.86-4.25,5.51-7.06c1.65-2.81,2.84-5.51,3.59-8.12
			c0.75-2.6,1.15-4.6,1.19-5.99C1590.98,397.11,1590.99,395.93,1590.97,394.96z"/>
		<path class="st18" d="M1611.14,429.85c-3.16,0-5.76-1.2-7.81-3.59c-2.05-2.4-3.07-5.35-3.07-8.88c0-5.94,2-11.8,5.99-17.57
			c4-5.77,8.78-8.65,14.35-8.65c3.68,0,6.67,1.42,8.96,4.25c2.29,2.83,3.44,6.21,3.44,10.12c0,5.99-2.37,11.54-7.1,16.65
			S1616.26,429.85,1611.14,429.85z M1606.34,416.48c0,2.33,0.49,4.23,1.47,5.7c0.98,1.47,2.27,2.21,3.89,2.21
			c3.43,0,6.87-1.88,10.33-5.65c3.45-3.77,5.18-7.95,5.18-12.56c0-2.83-0.66-5.13-1.99-6.89c-1.33-1.76-3.1-2.64-5.34-2.64
			c-3.71,0-6.89,2.27-9.55,6.82C1607.67,408.03,1606.34,412.36,1606.34,416.48z"/>
		<path class="st18" d="M1662.41,392.92c5.23,2.12,7.84,7.14,7.84,15.06c0,5.94-1.85,11.13-5.56,15.58
			c-3.71,4.44-7.74,6.67-12.09,6.67c-3.89,0-6.92-1.54-9.08-4.63c-2.17-3.09-3.25-7.6-3.25-13.54c0-7.16,1.26-14.41,3.78-21.75
			c2.52-7.33,5.67-12.87,9.43-16.62c3.77-3.74,7.57-5.61,11.42-5.61c2.33,0,4.2,0.77,5.61,2.3c1.42,1.53,2.12,3.66,2.12,6.37
			c0,2.17-0.94,4.73-2.82,7.7S1665.47,390.25,1662.41,392.92z M1663.93,408.95c0-3.43-0.63-6.19-1.9-8.29
			c-1.27-2.1-2.67-3.14-4.21-3.14c-0.46,0-3.03,1.77-7.7,5.32c-1.2,0.92-2.36,1.77-3.49,2.56c-0.35,1.98-0.52,4.16-0.52,6.53
			c0,4.19,0.63,7.35,1.88,9.46c1.25,2.12,2.99,3.18,5.2,3.18c3.09,0,5.65-1.62,7.69-4.85s3.06-6.8,3.06-10.69V408.95z
			 M1647.41,399.21c8.87-6.84,14.35-11.73,16.44-14.66s3.14-5.24,3.14-6.93c0-2.69-1.08-4.04-3.25-4.04c-3.02,0-6.05,2.27-9.1,6.81
			C1651.6,384.92,1649.19,391.2,1647.41,399.21z"/>
		<path class="st18" d="M1708.56,416.41c0,2.35-2.08,5.18-6.23,8.5c-4.16,3.32-8.45,4.97-12.87,4.97c-3.71,0-6.57-1.09-8.58-3.28
			c-2.01-2.19-3.02-5.24-3.02-9.15c0-6.59,2.22-12.85,6.67-18.79c4.44-5.94,9.3-8.91,14.58-8.91c1.73,0,3.14,0.56,4.23,1.69
			c1.09,1.13,1.64,2.49,1.64,4.08c0,3.55-1.74,6.94-5.22,10.19s-8.13,6.44-13.96,9.57c-1.2,0.62-1.8,1.43-1.8,2.42
			c0,1.91,0.55,3.44,1.66,4.59c1.11,1.15,2.74,1.73,4.91,1.73c4.95,0,10.01-2.74,15.17-8.22c0.76-0.76,1.33-1.14,1.73-1.14
			C1708.19,414.65,1708.56,415.24,1708.56,416.41z M1684.55,411.02c9.76-5.8,14.65-10.47,14.65-13.99c0-1.38-0.62-2.07-1.87-2.07
			c-2.12,0-4.51,1.55-7.17,4.66C1687.5,402.73,1685.63,406.53,1684.55,411.02z"/>
		<path class="st18" d="M1722.44,424.12c-1.13,4.15-2.19,9.96-3.18,17.44l-0.97,6.53c-0.16,0.92-0.59,1.84-1.28,2.75
			c-0.69,0.91-1.32,1.36-1.9,1.36c-0.71,0-1.53-0.36-2.43-1.09c-0.91-0.73-1.37-1.31-1.37-1.74c0-1.27,0.29-3.02,0.86-5.25
			c4.21-17.02,6.32-31.96,6.32-44.84l-0.03-2.9c-0.05-2.49,0.39-4.29,1.31-5.42c0.92-1.13,1.98-1.69,3.18-1.69
			c0.55,0,1.08,0.43,1.59,1.3c0.51,0.86,0.76,2.09,0.76,3.68c0,2.23-0.23,4.94-0.69,8.12c-0.6,4.01-0.91,6.31-0.93,6.91
			c3.43-5.99,7.07-10.66,10.92-14.02c3.85-3.36,7.42-5.04,10.71-5.04c2.33,0,4.29,0.87,5.89,2.61c1.6,1.74,2.4,3.9,2.4,6.48
			c0,7.51-2.88,14.32-8.64,20.45c-5.76,6.13-11.36,9.19-16.82,9.19c-1.36,0-2.44-0.35-3.23-1.04
			C1724.12,427.19,1723.3,425.94,1722.44,424.12z M1743.9,396.31c-3.25,0-7.27,3.04-12.06,9.12c-4.79,6.08-7.19,10.81-7.19,14.2
			c0,0.83,0.47,1.64,1.42,2.42c0.94,0.78,2.14,1.17,3.59,1.17c3.29,0,7.08-2.44,11.37-7.31s6.42-9.66,6.42-14.35
			c0-1.68-0.34-2.98-1.02-3.89C1745.75,396.76,1744.91,396.31,1743.9,396.31z"/>
		<path class="st18" d="M1785.9,413.1c-2.95,4.95-5.96,8.79-9.05,11.5c-3.09,2.72-5.95,4.08-8.6,4.08c-1.52,0-3.07-0.89-4.65-2.66
			c-1.58-1.77-2.37-4.5-2.37-8.19c0-3.02,0.72-7.46,2.18-13.33c1.22-4.9,1.83-8.35,1.83-10.33c0.67-1.38,1.71-2.07,3.14-2.07
			c0.97,0,1.74,0.34,2.31,1.02c0.58,0.68,0.86,1.39,0.86,2.12c0,1.61-0.56,3.9-1.69,6.87c-2.14,5.78-3.21,10.74-3.21,14.89
			c0,3.78,0.88,5.67,2.63,5.67c2.23,0,5.08-1.9,8.53-5.7c3.46-3.8,6.41-9.1,8.88-15.89c0.97-2.72,1.76-4.48,2.37-5.3
			c0.61-0.82,1.43-1.23,2.47-1.23c1.57,0,2.35,1.04,2.35,3.11c0,0.25-0.22,1.09-0.66,2.52c-1.38,5.04-2.07,9.81-2.07,14.3
			c0,5.39,0.89,8.88,2.66,10.47c0.92,0.85,1.38,1.54,1.38,2.07c0,0.65-0.47,1.23-1.4,1.76s-1.78,0.79-2.54,0.79
			c-1.61,0-2.91-1.2-3.9-3.59c-0.99-2.4-1.49-5.93-1.49-10.6v-1.14C1785.86,413.87,1785.88,413.49,1785.9,413.1z"/>
		<path class="st18" d="M1830.01,406.26c0.05-0.11,0.1-0.23,0.17-0.35l0.24-0.41c2.1-5.14,4.73-9.08,7.89-11.83
			c3.17-2.75,6.63-4.13,10.38-4.13c3.68,0,6.67,1.42,8.96,4.25c2.29,2.83,3.44,6.21,3.44,10.12c0,5.99-2.37,11.54-7.1,16.65
			s-9.65,7.67-14.77,7.67c-3.13,0-5.73-1.2-7.79-3.59c-2.06-2.4-3.09-5.34-3.09-8.84l-0.07-1.42c-0.05-0.81-0.1-1.31-0.16-1.52
			c-0.06-0.21-0.29-0.31-0.71-0.31h-5.98c-2.21,0.02-4.12,0.18-5.73,0.48c-1.61,0.3-2.57,0.59-2.88,0.86
			c-0.31,0.28-0.55,0.89-0.71,1.83c-0.25,1.47-0.47,2.54-0.66,3.21c-0.21,0.78-0.31,1.6-0.31,2.45l0.14,2.9
			c0,1.04-0.28,2.14-0.85,3.3s-1.46,1.74-2.68,1.74c-1.89,0-2.83-1.23-2.83-3.7l0.14-3.04c0-0.37,0.25-2.14,0.76-5.32
			c0.62-3.91,1.21-10.06,1.76-18.45c0.18-2.69,0.32-4.35,0.4-4.97c0.08-0.62,0.5-1.23,1.24-1.81c0.75-0.59,1.57-0.88,2.47-0.88
			c1.66,0,2.49,0.68,2.49,2.04c0,0.21-0.26,1.93-0.79,5.18c-0.55,3.25-0.83,5.77-0.83,7.57c0,1.27,0.44,1.9,1.31,1.9
			c1.91,0,5.06-0.19,9.45-0.57C1827.71,406.9,1829.94,406.56,1830.01,406.26z M1834.43,414.86c0,2.33,0.49,4.23,1.47,5.7
			c0.98,1.47,2.27,2.21,3.89,2.21c3.43,0,6.88-1.88,10.33-5.65c3.45-3.77,5.18-7.95,5.18-12.56c0-2.83-0.66-5.13-1.99-6.89
			c-1.33-1.76-3.1-2.64-5.34-2.64c-3.71,0-6.89,2.27-9.55,6.82C1835.76,406.4,1834.43,410.74,1834.43,414.86z"/>
	</g>
</g>
<g id="Слой_2">
	<g id="Favorite">
	</g>
</g>
<g id="Слой_4">
</g>
</svg>
