<?xml version="1.0" encoding="utf-8"?>
<!-- Generator: Adobe Illustrator 23.1.0, SVG Export Plug-In . SVG Version: 6.00 Build 0)  -->
<svg version="1.1" xmlns="http://www.w3.org/2000/svg" xmlns:xlink="http://www.w3.org/1999/xlink" x="0px" y="0px"
	 viewBox="0 0 1920.45 2194.37" style="enable-background:new 0 0 1920.45 2194.37;" xml:space="preserve">
<style type="text/css">
	.st0{opacity:0.87;fill:url(#SVGID_1_);}
	.st1{fill:#33DEA7;}
	.st2{fill:#4890F1;}
	.st3{fill:#0B59C7;}
	.st4{fill:#1A328C;}
	.st5{fill:#367FE1;}
	.st6{fill:#FFFFFF;}
	.st7{fill:none;stroke:#FF1800;stroke-miterlimit:10;}
	.st8{fill:none;stroke:#4890F1;stroke-width:2.4807;stroke-miterlimit:10;}
	.st9{fill:none;stroke:#0B59C7;stroke-width:1.6033;stroke-miterlimit:10;}
	.st10{display:none;}
	.st11{display:inline;fill:none;stroke:#000000;stroke-miterlimit:10;}
	.st12{fill:#CFE2FF;}
	.st13{fill:none;stroke:#34E2AA;stroke-miterlimit:10;}
	.st14{fill:none;stroke:#34E2AA;stroke-width:0.9838;stroke-miterlimit:10;}
	.st15{fill:#34E2AA;fill-opacity:0.12;stroke:#34E2AA;stroke-miterlimit:10;}
	.st16{fill:#1B3390;}
	.st17{fill:#34E2AA;stroke:#1B3390;stroke-miterlimit:10;}
	.st18{fill:#FF8B2B;}
	.st19{opacity:0.5;fill:#4992F5;}
	.st20{fill:#4992F5;}
	.st21{fill:#0B5BCB;}
	.st22{fill:#ADD2FF;}
	.st23{fill:#2EC897;}
	.st24{fill:none;stroke:#4992F5;stroke-width:0.6143;stroke-miterlimit:10;}
	.st25{fill:none;stroke:#4992F5;stroke-width:0.4924;stroke-miterlimit:10;}
	.st26{fill:none;stroke:#4992F5;stroke-width:5;stroke-miterlimit:10;}
	.st27{fill:none;stroke:#0B5BCB;stroke-width:2.2717;stroke-miterlimit:10;}
	.st28{fill:#6078D5;}
	.st29{fill:#FFB87D;}
	.st30{fill:none;stroke:#284DD8;stroke-width:2.678;stroke-miterlimit:10;}
	.st31{fill:none;stroke:#34E2AA;stroke-width:6.3211;stroke-miterlimit:10;}
	.st32{fill:none;stroke:#4992F5;stroke-width:6.3211;stroke-miterlimit:10;}
	.st33{fill:none;stroke:#0B5BCB;stroke-width:2;stroke-miterlimit:10;}
	.st34{fill:#FFEBC9;}
	.st35{fill:#8CA4FB;stroke:#1B3390;stroke-width:1.8878;stroke-miterlimit:10;}
	.st36{fill:none;stroke:#1B3390;stroke-width:2;stroke-miterlimit:10;}
	.st37{fill:none;stroke:#34E2AA;stroke-width:1.8878;stroke-linecap:round;stroke-miterlimit:10;}
	.st38{fill:none;stroke:#34E2AA;stroke-width:1.8878;stroke-linecap:round;stroke-linejoin:round;stroke-miterlimit:10;}
	.st39{clip-path:url(#SVGID_5_);}
	.st40{fill:none;stroke:#F98600;stroke-width:15.7313;stroke-linecap:round;stroke-linejoin:round;stroke-miterlimit:10;}
	.st41{fill:none;stroke:#1B3390;stroke-width:3.7755;stroke-linecap:round;stroke-linejoin:round;stroke-miterlimit:10;}
	.st42{fill:#0B5BCB;stroke:#1B3390;stroke-width:1.7785;stroke-miterlimit:10;}
	.st43{fill:none;stroke:#1B3390;stroke-width:1.7785;stroke-linecap:round;stroke-miterlimit:10;}
	.st44{fill:none;stroke:#1B3390;stroke-width:1.7785;stroke-linecap:round;stroke-linejoin:round;stroke-miterlimit:10;}
	.st45{clip-path:url(#SVGID_7_);fill:none;stroke:#5FECBF;stroke-width:29.6424;stroke-linecap:round;stroke-miterlimit:10;}
	.st46{fill:none;stroke:#1B3390;stroke-width:1.7785;stroke-miterlimit:10;}
	.st47{fill:#34E2AA;stroke:#1B3390;stroke-width:1.1636;stroke-miterlimit:10;}
	.st48{fill:#94FFCC;stroke:#1B3390;stroke-width:1.1636;stroke-linecap:round;stroke-miterlimit:10;}
	.st49{fill:#94FFCC;stroke:#1B3390;stroke-width:1.1636;stroke-linecap:round;stroke-linejoin:round;stroke-miterlimit:10;}
	.st50{fill:#FFB87D;stroke:#1B3390;stroke-width:1.1636;stroke-miterlimit:10;}
	.st51{fill:#4992F5;stroke:#1B3390;stroke-width:1.1636;stroke-linecap:round;stroke-miterlimit:10;}
	.st52{fill:#4992F5;stroke:#1B3390;stroke-width:1.1636;stroke-linecap:round;stroke-linejoin:round;stroke-miterlimit:10;}
	.st53{fill:#FFB87D;stroke:#1B3390;stroke-width:1.1636;stroke-linecap:round;stroke-miterlimit:10;}
	.st54{fill:#FFB87D;stroke:#1B3390;stroke-width:1.1636;stroke-linecap:round;stroke-linejoin:round;stroke-miterlimit:10;}
	.st55{opacity:0.8;fill:#DBE2FF;}
	.st56{opacity:0.8;fill:#B3C2FF;}
	.st57{opacity:0.8;fill:#FFF3E8;}
	.st58{opacity:0.8;fill:#D6FFF9;}
	.st59{fill:#0C65DF;stroke:#1B3390;stroke-width:0.764;stroke-linecap:round;stroke-linejoin:round;stroke-miterlimit:10;}
	.st60{fill:#0C65DF;stroke:#1B3390;stroke-width:0.764;stroke-miterlimit:10;}
	.st61{fill:#0C65DF;stroke:#1B3390;stroke-width:0.764;stroke-linecap:round;stroke-miterlimit:10;}
	.st62{opacity:0.8;fill:#A1C9FF;}
	.st63{fill:none;stroke:#0B5BCB;stroke-width:1.87;stroke-miterlimit:10;}
	.st64{fill:none;stroke:#0B5BCB;stroke-width:9.5974;stroke-miterlimit:10;}
	.st65{fill:#8CA4FB;stroke:#1B3390;stroke-width:7.9752;stroke-miterlimit:10;}
	.st66{fill:none;stroke:#1B3390;stroke-width:8.4494;stroke-miterlimit:10;}
	.st67{fill:none;stroke:#34E2AA;stroke-width:7.9752;stroke-linecap:round;stroke-miterlimit:10;}
	.st68{fill:none;stroke:#34E2AA;stroke-width:7.9752;stroke-linecap:round;stroke-linejoin:round;stroke-miterlimit:10;}
	.st69{clip-path:url(#SVGID_9_);}
	.st70{fill:none;stroke:#F98600;stroke-width:66.46;stroke-linecap:round;stroke-linejoin:round;stroke-miterlimit:10;}
	.st71{fill:none;stroke:#1B3390;stroke-width:15.9504;stroke-linecap:round;stroke-linejoin:round;stroke-miterlimit:10;}
	.st72{fill:#0B5BCB;stroke:#1B3390;stroke-width:7.5138;stroke-miterlimit:10;}
	.st73{fill:none;stroke:#1B3390;stroke-width:7.5138;stroke-linecap:round;stroke-miterlimit:10;}
	.st74{fill:none;stroke:#1B3390;stroke-width:7.5138;stroke-linecap:round;stroke-linejoin:round;stroke-miterlimit:10;}
	.st75{clip-path:url(#SVGID_11_);fill:none;stroke:#5FECBF;stroke-width:125.2304;stroke-linecap:round;stroke-miterlimit:10;}
	.st76{fill:none;stroke:#1B3390;stroke-width:7.5138;stroke-miterlimit:10;}
	.st77{fill:#34E2AA;stroke:#1B3390;stroke-width:8.5;stroke-miterlimit:10;}
	.st78{fill:#33DEA7;stroke:#1B3390;stroke-width:8.5;stroke-linecap:round;stroke-miterlimit:10;}
	.st79{fill:#33DEA7;stroke:#1B3390;stroke-width:4.9159;stroke-linecap:round;stroke-miterlimit:10;}
	.st80{fill:#94FFCC;stroke:#1B3390;stroke-width:8.5;stroke-linecap:round;stroke-linejoin:round;stroke-miterlimit:10;}
	.st81{fill:#33DEA7;stroke:#1B3390;stroke-width:8.5;stroke-linecap:round;stroke-linejoin:round;stroke-miterlimit:10;}
	.st82{fill:#FFB87D;stroke:#1B3390;stroke-width:8.5;stroke-miterlimit:10;}
	.st83{fill:#4992F5;stroke:#1B3390;stroke-width:4.9159;stroke-linecap:round;stroke-miterlimit:10;}
	.st84{fill:#4992F5;stroke:#1B3390;stroke-width:4.9159;stroke-linecap:round;stroke-linejoin:round;stroke-miterlimit:10;}
	.st85{fill:#FFB87D;stroke:#1B3390;stroke-width:8.5;stroke-linecap:round;stroke-miterlimit:10;}
	.st86{fill:#FFB87D;stroke:#1B3390;stroke-width:8.5;stroke-linecap:round;stroke-linejoin:round;stroke-miterlimit:10;}
	.st87{fill:#0C65DF;stroke:#1B3390;stroke-width:8.5;stroke-linecap:round;stroke-linejoin:round;stroke-miterlimit:10;}
	.st88{fill:#0C65DF;stroke:#1B3390;stroke-width:8.5;stroke-miterlimit:10;}
	.st89{fill:none;stroke:#0B5BCB;stroke-width:7.9001;stroke-miterlimit:10;}
	.st90{fill:#4992F5;stroke:#1B3390;stroke-width:2.4753;stroke-miterlimit:10;}
	.st91{fill:none;stroke:#1B3390;stroke-width:2.0994;stroke-linecap:round;stroke-miterlimit:10;}
	.st92{fill:#6CF4BC;stroke:#1B3390;stroke-width:1.6932;stroke-miterlimit:10;}
	.st93{fill:none;stroke:#1B3390;stroke-width:1.436;stroke-linecap:round;stroke-miterlimit:10;}
	.st94{fill:#FFB87D;stroke:#1B3390;stroke-width:2.1678;stroke-miterlimit:10;}
	.st95{fill:none;stroke:#1B3390;stroke-width:1.8386;stroke-linecap:round;stroke-miterlimit:10;}
	.st96{fill:#0B5FD5;stroke:#1B3390;stroke-width:1.6798;stroke-miterlimit:10;}
	.st97{fill:none;stroke:#1B3390;stroke-width:1.4247;stroke-linecap:round;stroke-miterlimit:10;}
	.st98{fill:#A6FFE1;stroke:#1B3390;stroke-width:2.0588;stroke-miterlimit:10;}
	.st99{fill:none;stroke:#1B3390;stroke-width:1.7462;stroke-linecap:round;stroke-miterlimit:10;}
	.st100{fill:#FF8B2B;stroke:#1B3390;stroke-width:2.4753;stroke-miterlimit:10;}
	.st101{fill:#34E2AA;stroke:#1B3390;stroke-width:2.1678;stroke-miterlimit:10;}
	.st102{fill:none;stroke:#1B3390;stroke-width:1.4475;stroke-linecap:round;stroke-miterlimit:10;}
	.st103{fill:#FFB87D;stroke:#1B3390;stroke-width:1.6825;stroke-miterlimit:10;}
	.st104{fill:none;stroke:#1B3390;stroke-width:1.427;stroke-linecap:round;stroke-miterlimit:10;}
	.st105{fill:#ABD0FF;}
	.st106{fill:none;stroke:#0B5BCB;stroke-width:3.3004;stroke-linecap:round;stroke-miterlimit:10;}
	.st107{fill:#E3EFFF;}
	.st108{clip-path:url(#SVGID_13_);fill:none;stroke:#FF8B2B;stroke-width:9.9011;stroke-linecap:round;stroke-miterlimit:10;}
	.st109{fill:#FFB87D;stroke:#1C3CB7;stroke-width:3;stroke-linecap:round;stroke-linejoin:round;stroke-miterlimit:10;}
	.st110{fill:#FFEED1;stroke:#1C3CB7;stroke-width:3;stroke-linejoin:round;stroke-miterlimit:10;}
	.st111{fill:#FF8B2B;stroke:#1C3CB7;stroke-width:3;stroke-miterlimit:10;}
	.st112{fill:#FFE2C9;stroke:#1C3CB7;stroke-width:3;stroke-linejoin:round;stroke-miterlimit:10;}
	.st113{fill:#1B3390;stroke:#1C3CB7;stroke-miterlimit:10;}
	.st114{fill:#0B5BCB;stroke:#1C3CB7;stroke-miterlimit:10;}
	.st115{fill:#4992F5;stroke:#1C3CB7;stroke-width:3;stroke-miterlimit:10;}
	.st116{fill:#4992F5;stroke:#1C3CB7;stroke-width:3;stroke-linecap:round;stroke-miterlimit:10;}
	.st117{fill:#8CA4FB;stroke:#1C3CB7;stroke-width:3;stroke-linecap:round;stroke-linejoin:round;stroke-miterlimit:10;}
	.st118{fill:#D1FFEF;stroke:#1C3CB7;stroke-width:3;stroke-linejoin:round;stroke-miterlimit:10;}
	.st119{fill:#0B5BCB;stroke:#1C3CB7;stroke-width:3;stroke-miterlimit:10;}
	.st120{fill:#B2C2FB;stroke:#1C3CB7;stroke-width:3;stroke-linejoin:round;stroke-miterlimit:10;}
	.st121{fill:#34E2AA;stroke:#1C3CB7;stroke-miterlimit:10;}
	.st122{fill:#66FFC8;stroke:#1C3CB7;stroke-miterlimit:10;}
	.st123{fill:#73FFCD;stroke:#1C3CB7;stroke-miterlimit:10;}
	.st124{fill:#00D38E;stroke:#1C3CB7;stroke-miterlimit:10;}
	.st125{fill:#34E2AA;stroke:#1C3CB7;stroke-width:3;stroke-miterlimit:10;}
	.st126{fill:#FF8B2B;stroke:#1C3CB7;stroke-miterlimit:10;}
	.st127{fill:#FFB87D;stroke:#1C3CB7;stroke-miterlimit:10;}
	.st128{fill:#FFB87D;stroke:#1C3CB7;stroke-width:3;stroke-miterlimit:10;}
	.st129{fill:none;stroke:#1C3CB7;stroke-width:2;stroke-miterlimit:10;}
	.st130{fill:#75FFCE;stroke:#1B3390;stroke-width:3;stroke-miterlimit:10;}
	.st131{fill:none;stroke:#1B3390;stroke-width:3;stroke-miterlimit:10;}
	.st132{fill:#00C39F;stroke:#1B3390;stroke-width:3;stroke-miterlimit:10;}
	.st133{fill:#A8FFE6;}
	.st134{opacity:0.8;fill:#A8FFE6;}
	.st135{fill:#8CA4FB;stroke:#1B3390;stroke-width:3;stroke-miterlimit:10;}
	.st136{fill:#0B5BCB;stroke:#1B3390;stroke-width:3;stroke-miterlimit:10;}
	.st137{fill:#D8E0FB;}
	.st138{opacity:0.8;fill:#D8E0FB;}
	.st139{fill:#FFB87D;stroke:#0655C3;stroke-width:3;stroke-linecap:round;stroke-linejoin:round;stroke-miterlimit:10;}
	.st140{fill:#FFE3CC;}
	.st141{fill:none;stroke:#0B5BCB;stroke-width:3;stroke-linecap:round;stroke-linejoin:round;stroke-miterlimit:10;}
	.st142{fill:#34E2AA;stroke:#1B3390;stroke-width:3;stroke-miterlimit:10;}
	.st143{fill:#BAFFE9;}
	.st144{fill:#ABFFE4;}
	.st145{fill:#5790DF;stroke:#0655C3;stroke-width:3;stroke-linecap:round;stroke-linejoin:round;stroke-miterlimit:10;}
	.st146{fill:#80B9F6;}
	.st147{fill:#629FE4;}
	.st148{fill:#0B5BCB;stroke:#0B5BCB;stroke-width:4;stroke-miterlimit:10;}
	.st149{fill:#34E2AA;stroke:#0B5BCB;stroke-width:3;stroke-linejoin:round;stroke-miterlimit:10;}
	.st150{fill:none;stroke:#0B5BCB;stroke-width:3;stroke-linecap:round;stroke-miterlimit:10;}
	.st151{fill:#4992F5;stroke:#0B5BCB;stroke-width:4;stroke-miterlimit:10;}
	.st152{fill:#C7FFED;stroke:#34E2AA;stroke-width:3;stroke-miterlimit:10;}
	.st153{fill:#FFD1AB;stroke:#0B5BCB;stroke-width:3;stroke-miterlimit:10;}
	.st154{fill:#34E2AA;stroke:#34E2AA;stroke-width:3;stroke-linejoin:round;stroke-miterlimit:10;}
	.st155{fill:#8CA4FB;stroke:#0B5BCB;stroke-width:3;stroke-linejoin:round;stroke-miterlimit:10;}
	.st156{fill:#69FFC7;stroke:#0B5BCB;stroke-width:3;stroke-linejoin:round;stroke-miterlimit:10;}
	.st157{fill:#FFB87D;stroke:#0B5BCB;stroke-width:3;stroke-linejoin:round;stroke-miterlimit:10;}
	.st158{fill:#ADBEFF;}
	.st159{fill:#FFEAD9;}
	.st160{fill:#D6FFF4;}
	.st161{fill:#CCD6FF;}
	.st162{fill:none;stroke:#33DEA7;stroke-width:5.4384;stroke-miterlimit:10;}
	.st163{fill:#4AE2B1;}
	.st164{fill:#8CA4FB;}
	.st165{opacity:0.25;fill:#FF8B2B;}
	.st166{fill:none;stroke:#FF8B2B;stroke-miterlimit:10;}
	.st167{fill:none;stroke:#FF8B2B;stroke-width:0.9367;stroke-miterlimit:10;}
	.st168{fill:#FF9843;}
	.st169{opacity:0.3;fill:#34E2AA;}
	.st170{display:inline;}
	.st171{fill:#0B87C7;}
	.st172{fill:#92FCCA;stroke:#1A328C;stroke-width:1.1636;stroke-miterlimit:10;}
	.st173{fill:#92FCCA;stroke:#1A328C;stroke-width:1.1636;stroke-linecap:round;stroke-miterlimit:10;}
	.st174{fill:#92FCCA;stroke:#1A328C;stroke-width:1.1636;stroke-linecap:round;stroke-linejoin:round;stroke-miterlimit:10;}
	.st175{fill:#0C63DB;stroke:#1A328C;stroke-width:0.764;stroke-linecap:round;stroke-linejoin:round;stroke-miterlimit:10;}
	.st176{fill:#0C63DB;stroke:#1A328C;stroke-width:0.764;stroke-miterlimit:10;}
	.st177{fill:#0C63DB;stroke:#1A328C;stroke-width:0.764;stroke-linecap:round;stroke-miterlimit:10;}
	.st178{fill:#8AA1F7;stroke:#1B3BB3;stroke-width:3;stroke-linecap:round;stroke-linejoin:round;stroke-miterlimit:10;}
	.st179{fill:#D1FFEF;stroke:#1B3BB3;stroke-width:3;stroke-linejoin:round;stroke-miterlimit:10;}
	.st180{fill:#0B59C7;stroke:#1B3BB3;stroke-width:3;stroke-miterlimit:10;}
	.st181{fill:#AFBFF7;stroke:#1B3BB3;stroke-width:3;stroke-linejoin:round;stroke-miterlimit:10;}
	.st182{fill:#1A328C;stroke:#1B3BB3;stroke-miterlimit:10;}
	.st183{fill:#66FFC8;stroke:#1B3BB3;stroke-miterlimit:10;}
	.st184{fill:#0B59C7;stroke:#1B3BB3;stroke-miterlimit:10;}
	.st185{fill:#4890F1;stroke:#1B3BB3;stroke-width:3;stroke-miterlimit:10;}
	.st186{fill:#4890F1;stroke:#1B3BB3;stroke-width:3;stroke-linecap:round;stroke-miterlimit:10;}
	.st187{fill:#8AA1F7;stroke:#0B59C7;stroke-width:5.0442;stroke-linejoin:round;stroke-miterlimit:10;}
	.st188{fill:#C1CCF7;}
	.st189{fill:none;stroke:#4890F1;stroke-width:10.418;stroke-miterlimit:10;}
	.st190{fill:none;stroke:#4890F1;stroke-width:8.3506;stroke-miterlimit:10;}
	.st191{fill:#E6F0FF;stroke:#DBE3FF;stroke-width:3.6654;stroke-miterlimit:10;}
	.st192{fill:#E6F0FF;}
	.st193{fill:#DBE3FF;}
	.st194{fill:#FFE1C9;stroke:#E0E6FF;stroke-width:5.2027;stroke-miterlimit:10;}
	.st195{fill:#E0FFF7;}
	.st196{fill:#E0E6FF;}
	.st197{fill:#DBE9FF;stroke:#CCD7FF;stroke-width:3.6654;stroke-miterlimit:10;}
	.st198{fill:#DBE9FF;}
	.st199{fill:#CCD7FF;}
	.st200{fill:#9EC2F7;stroke:#9CB1FF;stroke-width:3.6654;stroke-miterlimit:10;}
	.st201{fill:#9EC2F7;}
	.st202{fill:#9CB1FF;}
	.st203{fill:#99C3FF;stroke:#91A9FF;stroke-width:4.0452;stroke-miterlimit:10;}
	.st204{fill:#99C3FF;}
	.st205{fill:#91A9FF;}
	.st206{fill:#FFD7B5;stroke:#A1B5FF;stroke-width:5.2027;stroke-miterlimit:10;}
	.st207{fill:#A1B5FF;}
	.st208{fill:#B8FFEC;stroke:#A1B5FF;stroke-width:5.2027;stroke-miterlimit:10;}
	.st209{fill:#B8FFEC;}
	.st210{fill:#E0FFF7;stroke:#E0E6FF;stroke-width:5.2027;stroke-miterlimit:10;}
	.st211{fill:#FFEAD9;stroke:#DBE3FF;stroke-width:3.6654;stroke-miterlimit:10;}
	.st212{opacity:0.2;}
	.st213{fill:#4890F1;stroke:#1A328C;stroke-width:2.274;stroke-miterlimit:10;}
	.st214{fill:none;stroke:#1A328C;stroke-width:1.9286;stroke-linecap:round;stroke-miterlimit:10;}
	.st215{fill:#6AF0B9;stroke:#1A328C;stroke-width:1.5555;stroke-miterlimit:10;}
	.st216{fill:none;stroke:#1A328C;stroke-width:1.3193;stroke-linecap:round;stroke-miterlimit:10;}
	.st217{fill:#FFB87D;stroke:#1A328C;stroke-width:1.9915;stroke-miterlimit:10;}
	.st218{fill:none;stroke:#1A328C;stroke-width:1.6891;stroke-linecap:round;stroke-miterlimit:10;}
	.st219{fill:#0B5DD1;stroke:#1A328C;stroke-width:1.5432;stroke-miterlimit:10;}
	.st220{fill:none;stroke:#1A328C;stroke-width:1.3088;stroke-linecap:round;stroke-miterlimit:10;}
	.st221{fill:#A6FFE1;stroke:#1A328C;stroke-width:1.8914;stroke-miterlimit:10;}
	.st222{fill:none;stroke:#1A328C;stroke-width:1.6042;stroke-linecap:round;stroke-miterlimit:10;}
	.st223{fill:#8AA1F7;stroke:#1A328C;stroke-width:2.274;stroke-miterlimit:10;}
	.st224{fill:none;stroke:#1A328C;stroke-width:1.3298;stroke-linecap:round;stroke-miterlimit:10;}
	.st225{fill:#FFB87D;stroke:#1A328C;stroke-width:1.5457;stroke-miterlimit:10;}
	.st226{fill:none;stroke:#1A328C;stroke-width:1.311;stroke-linecap:round;stroke-miterlimit:10;}
	.st227{fill:none;stroke:#0B59C7;stroke-width:3.032;stroke-linecap:round;stroke-miterlimit:10;}
	.st228{clip-path:url(#SVGID_17_);fill:none;stroke:#FF8B2B;stroke-width:9.0959;stroke-linecap:round;stroke-miterlimit:10;}
	.st229{fill:#A6FFDE;stroke:#0B59C7;stroke-width:5;stroke-linejoin:round;stroke-miterlimit:10;}
	.st230{fill:#A6FFDE;stroke:#0B59C7;stroke-width:4.2028;stroke-linejoin:round;stroke-miterlimit:10;}
	.st231{fill:#8AA1F7;stroke:#1A328C;stroke-width:5;stroke-miterlimit:10;}
	.st232{fill:none;stroke:#1A328C;stroke-width:5;stroke-miterlimit:10;}
	.st233{fill:#0B59C7;stroke:#1A328C;stroke-width:5;stroke-miterlimit:10;}
	.st234{fill:#75FFCE;stroke:#1A328C;stroke-width:5;stroke-miterlimit:10;}
	.st235{fill:#D4DCF7;}
	.st236{opacity:0.8;fill:#D4DCF7;}
	.st237{fill:#558DDB;stroke:#0653BF;stroke-width:5;stroke-linecap:round;stroke-linejoin:round;stroke-miterlimit:10;}
	.st238{fill:#7EB6F2;}
	.st239{fill:#609CE0;}
	.st240{fill:none;stroke:#0B59C7;stroke-width:5;stroke-linecap:round;stroke-linejoin:round;stroke-miterlimit:10;}
	.st241{fill:#FF8B2B;stroke:#0B59C7;stroke-width:5;stroke-miterlimit:10;}
	.st242{fill:none;stroke:#33DEA7;stroke-width:5;stroke-linecap:round;stroke-miterlimit:10;}
	.st243{fill:none;stroke:#33DEA7;stroke-width:5;stroke-linecap:round;stroke-linejoin:round;stroke-miterlimit:10;}
	.st244{clip-path:url(#SVGID_19_);}
	.st245{fill:none;stroke:#1A328C;stroke-width:5;stroke-linecap:round;stroke-linejoin:round;stroke-miterlimit:10;}
	.st246{fill:#8AA1F7;stroke:#33DEA7;stroke-width:0.7994;stroke-miterlimit:10;}
	.st247{fill:none;stroke:#33DEA7;stroke-width:0.7994;stroke-linecap:round;stroke-miterlimit:10;}
	.st248{fill:none;stroke:#33DEA7;stroke-width:0.7994;stroke-linecap:round;stroke-linejoin:round;stroke-miterlimit:10;}
	.st249{clip-path:url(#SVGID_21_);}
	.st250{fill:none;stroke:#33DEA7;stroke-width:6.662;stroke-linecap:round;stroke-linejoin:round;stroke-miterlimit:10;}
	.st251{fill:none;stroke:#1A328C;stroke-width:1.5989;stroke-linecap:round;stroke-linejoin:round;stroke-miterlimit:10;}
	.st252{fill:#4890F1;stroke:#1A328C;stroke-width:1.7649;stroke-linecap:round;stroke-miterlimit:10;}
	.st253{fill:#4890F1;stroke:#1A328C;stroke-width:1.7649;stroke-linecap:round;stroke-linejoin:round;stroke-miterlimit:10;}
	.st254{opacity:0.8;fill:#C4D0FF;}
	.st255{fill:#FFB87D;stroke:#1B3BB3;stroke-width:5;stroke-linecap:round;stroke-linejoin:round;stroke-miterlimit:10;}
	.st256{fill:#FFD6B3;stroke:#1B3BB3;stroke-width:5;stroke-linejoin:round;stroke-miterlimit:10;}
	.st257{fill:#FF8B2B;stroke:#1B3BB3;stroke-width:5;stroke-miterlimit:10;}
	.st258{fill:#FFB87D;stroke:#1B3BB3;stroke-width:5;stroke-linejoin:round;stroke-miterlimit:10;}
	.st259{fill:#96FFD4;stroke:#1B3BB3;stroke-width:5;stroke-linejoin:round;stroke-miterlimit:10;}
	.st260{fill:#1A328C;stroke:#1B3BB3;stroke-width:5;stroke-miterlimit:10;}
	.st261{fill:#0B59C7;stroke:#1B3BB3;stroke-width:5;stroke-miterlimit:10;}
	.st262{fill:#4890F1;stroke:#1B3BB3;stroke-width:5;stroke-miterlimit:10;}
	.st263{fill:#4890F1;stroke:#1B3BB3;stroke-width:5;stroke-linecap:round;stroke-miterlimit:10;}
	.st264{fill:#FFB87D;stroke:#1B3BB3;stroke-width:1.6332;stroke-linecap:round;stroke-linejoin:round;stroke-miterlimit:10;}
	.st265{fill:#FFD8B8;stroke:#1B3BB3;stroke-width:1.6332;stroke-linejoin:round;stroke-miterlimit:10;}
	.st266{fill:#FF8B2B;stroke:#1B3BB3;stroke-width:1.6332;stroke-miterlimit:10;}
	.st267{fill:#FFB87D;stroke:#1B3BB3;stroke-width:1.6332;stroke-linejoin:round;stroke-miterlimit:10;}
	.st268{fill:#1A328C;stroke:#1B3BB3;stroke-width:0.5444;stroke-miterlimit:10;}
	.st269{fill:#0B59C7;stroke:#1B3BB3;stroke-width:0.5444;stroke-miterlimit:10;}
	.st270{fill:#4890F1;stroke:#1B3BB3;stroke-width:1.6332;stroke-miterlimit:10;}
	.st271{fill:#4890F1;stroke:#1B3BB3;stroke-width:1.6332;stroke-linecap:round;stroke-miterlimit:10;}
	.st272{fill:#92FCCA;stroke:#1A328C;stroke-width:5;stroke-miterlimit:10;}
	.st273{fill:none;stroke:#1A328C;stroke-width:5;stroke-linecap:round;stroke-miterlimit:10;}
	.st274{clip-path:url(#SVGID_25_);fill:none;stroke:#8AA1F7;stroke-width:5;stroke-linecap:round;stroke-miterlimit:10;}
	.st275{fill:#7DFFD5;}
	.st276{fill:#B3FFE4;}
	.st277{fill:none;stroke:#274CD4;stroke-width:0.3105;stroke-miterlimit:10;}
	.st278{fill:#FF8B2B;stroke:#0653BF;stroke-width:2.1766;stroke-linecap:round;stroke-linejoin:round;stroke-miterlimit:10;}
	.st279{fill:#FFD2AD;}
	.st280{fill:none;stroke:#0B59C7;stroke-width:2.1766;stroke-linecap:round;stroke-linejoin:round;stroke-miterlimit:10;}
	.st281{fill:#FFB87D;stroke:#33DEA7;stroke-width:5;stroke-miterlimit:10;}
	.st282{fill:#9EFFE0;stroke:#33DEA7;stroke-width:5;stroke-miterlimit:10;}
	.st283{fill:#FF8B2B;stroke:#33DEA7;stroke-width:5;stroke-linejoin:round;stroke-miterlimit:10;}
	.st284{fill:#FF8B2B;stroke:#1A328C;stroke-width:5;stroke-miterlimit:10;}
	.st285{fill:#6AF0B9;stroke:#1A328C;stroke-width:5;stroke-miterlimit:10;}
	.st286{fill:#B5CBE8;stroke:#1A328C;stroke-width:5;stroke-miterlimit:10;}
	.st287{fill:#0B5DD1;stroke:#1A328C;stroke-width:5;stroke-miterlimit:10;}
	.st288{fill:#4890F1;stroke:#1A328C;stroke-width:5;stroke-miterlimit:10;}
	.st289{fill:#6BFFCA;stroke:#1A328C;stroke-width:5;stroke-miterlimit:10;}
	.st290{fill:none;stroke:#0B59C7;stroke-width:5;stroke-linecap:round;stroke-miterlimit:10;}
	.st291{clip-path:url(#SVGID_27_);fill:none;stroke:#FF8B2B;stroke-width:19;stroke-linecap:round;stroke-miterlimit:10;}
	.st292{fill:#FF8B2B;stroke:#0B59C7;stroke-width:5;stroke-linejoin:round;stroke-miterlimit:10;}
	.st293{fill:#FFC99C;}
	.st294{fill:#8AA1F7;stroke:#0B59C7;stroke-width:5;stroke-linejoin:round;stroke-miterlimit:10;}
	.st295{fill:#33DEA7;stroke:#1A328C;stroke-width:5;stroke-miterlimit:10;}
	.st296{fill:#8AA1F7;stroke:#0B59C7;stroke-width:1.5989;stroke-miterlimit:10;}
	.st297{fill:none;stroke:#0B59C7;stroke-width:1.5989;stroke-linecap:round;stroke-miterlimit:10;}
	.st298{fill:none;stroke:#0B59C7;stroke-width:1.5989;stroke-linecap:round;stroke-linejoin:round;stroke-miterlimit:10;}
	.st299{clip-path:url(#SVGID_29_);}
	.st300{fill:none;stroke:#FF8B2B;stroke-width:13.324;stroke-linecap:round;stroke-linejoin:round;stroke-miterlimit:10;}
	.st301{fill:none;stroke:#1A328C;stroke-width:3.1978;stroke-linecap:round;stroke-linejoin:round;stroke-miterlimit:10;}
	.st302{fill:#4890F1;stroke:#1A328C;stroke-width:1.0806;stroke-miterlimit:10;}
	.st303{fill:#4890F1;stroke:#1A328C;stroke-width:1.0806;stroke-linecap:round;stroke-miterlimit:10;}
	.st304{fill:#4890F1;stroke:#1A328C;stroke-width:1.0806;stroke-linecap:round;stroke-linejoin:round;stroke-miterlimit:10;}
	.st305{fill:#8AA1F7;stroke:#1B3BB3;stroke-width:5;stroke-linecap:round;stroke-linejoin:round;stroke-miterlimit:10;}
	.st306{fill:#D1FFEF;stroke:#1B3BB3;stroke-width:5;stroke-linejoin:round;stroke-miterlimit:10;}
	.st307{fill:#AFBFF7;stroke:#1B3BB3;stroke-width:5;stroke-linejoin:round;stroke-miterlimit:10;}
	.st308{fill:#66FFC8;stroke:#1B3BB3;stroke-width:5;stroke-miterlimit:10;}
	.st309{fill:none;stroke:#274CD4;stroke-width:0.9742;stroke-miterlimit:10;}
	.st310{fill:#8AA1F7;stroke:#0653BF;stroke-width:5;stroke-linecap:round;stroke-linejoin:round;stroke-miterlimit:10;}
	.st311{fill:#BAC8FF;}
	.st312{fill:#9EB2FF;}
	.st313{fill:#8AA1F7;stroke:#0B59C7;stroke-width:5;stroke-miterlimit:10;}
	.st314{clip-path:url(#SVGID_33_);}
	.st315{fill:none;stroke:#33DEA7;stroke-width:25;stroke-linecap:round;stroke-linejoin:round;stroke-miterlimit:10;}
	.st316{fill:#0B59C7;stroke:#0B59C7;stroke-width:5;stroke-miterlimit:10;}
	.st317{fill:#4890F1;stroke:#0B59C7;stroke-width:5;stroke-miterlimit:10;}
	.st318{fill:#FF9B47;stroke:#0B59C7;stroke-width:1.6094;stroke-linejoin:round;stroke-miterlimit:10;}
	.st319{fill:#FFC696;}
	.st320{fill:#6CCFAF;stroke:#0B59C7;stroke-width:1.5694;stroke-miterlimit:10;}
	.st321{fill:#9EFFE0;stroke:#0B59C7;stroke-width:1.5694;stroke-miterlimit:10;}
	.st322{fill:none;stroke:#0B59C7;stroke-width:1.5694;stroke-linecap:round;stroke-miterlimit:10;}
	.st323{fill:#00BD80;stroke:#0B59C7;stroke-width:1.5694;stroke-linejoin:round;stroke-miterlimit:10;}
	.st324{fill:#FF8B2B;stroke:#0653BF;stroke-width:1.5522;stroke-linecap:round;stroke-linejoin:round;stroke-miterlimit:10;}
	.st325{fill:none;stroke:#0B59C7;stroke-width:1.5522;stroke-linecap:round;stroke-linejoin:round;stroke-miterlimit:10;}
	.st326{fill:#1D4BB8;}
	.st327{fill:#33DEA7;stroke:#1A328C;stroke-miterlimit:10;}
	.st328{fill:#2DC494;}
	.st329{fill:#E3FFFB;stroke:#1A328C;stroke-miterlimit:10;}
	.st330{fill:#D9E5FF;stroke:#1A328C;stroke-miterlimit:10;}
	.st331{fill:#C9FFEB;}
	.st332{fill:#FFD0A8;}
	.st333{fill:#41F2B3;}
	.st334{fill:#31FFC0;}
	.st335{fill:#5CFFCD;}
	.st336{fill:#87FFDA;}
	.st337{fill:#9CFFE0;}
	.st338{fill:#ADFFE6;}
	.st339{fill:#BAFFEA;}
	.st340{fill:#C4DEFF;}
	.st341{fill:#FFFFFF;stroke:#33DEA7;stroke-width:2.0266;stroke-miterlimit:10;}
	.st342{fill:#FFFFFF;stroke:#FF8B2B;stroke-width:2.0266;stroke-miterlimit:10;}
	.st343{fill:#00BD81;}
	.st344{fill:#FFFFFF;stroke:#4890F1;stroke-width:2.0266;stroke-miterlimit:10;}
	.st345{fill:none;stroke:#1A328C;stroke-width:1.9243;stroke-miterlimit:10;}
	.st346{opacity:0.2;clip-path:url(#SVGID_47_);}
	.st347{clip-path:url(#SVGID_49_);fill:none;stroke:#FF8B2B;stroke-width:9.0959;stroke-linecap:round;stroke-miterlimit:10;}
	.st348{clip-path:url(#SVGID_51_);}
	.st349{clip-path:url(#SVGID_53_);}
	.st350{clip-path:url(#SVGID_57_);fill:none;stroke:#8AA1F7;stroke-width:5;stroke-linecap:round;stroke-miterlimit:10;}
	.st351{clip-path:url(#SVGID_59_);fill:none;stroke:#FF8B2B;stroke-width:19;stroke-linecap:round;stroke-miterlimit:10;}
	.st352{clip-path:url(#SVGID_61_);}
	.st353{clip-path:url(#SVGID_65_);}
	.st354{fill:#FFDCBF;stroke:#BFCCFF;stroke-width:5.4294;stroke-miterlimit:10;}
	.st355{fill:#BFCCFF;}
	.st356{fill:#BFD8FF;stroke:#ADBFFF;stroke-width:3.8251;stroke-miterlimit:10;}
	.st357{fill:#ADBFFF;}
	.st358{fill:#74A9F7;stroke:#6384FF;stroke-width:3.8251;stroke-miterlimit:10;}
	.st359{fill:#74A9F7;}
	.st360{fill:#6384FF;}
	.st361{fill:#94C0FF;stroke:#8FA7FF;stroke-width:4.2215;stroke-miterlimit:10;}
	.st362{fill:#94C0FF;}
	.st363{fill:#8FA7FF;}
	.st364{fill:#FFC899;stroke:#87A1FF;stroke-width:4;stroke-miterlimit:10;}
	.st365{fill:#87A1FF;}
	.st366{fill:#A1FFE6;stroke:#A1B5FF;stroke-width:3;stroke-miterlimit:10;}
	.st367{fill:#A1FFE6;}
	.st368{fill:#CCFFF2;stroke:#BDCAFF;stroke-width:5.4294;stroke-miterlimit:10;}
	.st369{fill:#BDCAFF;}
	.st370{fill:none;stroke:#4890F1;stroke-width:1.7372;stroke-miterlimit:10;}
	.st371{fill:none;stroke:#4890F1;stroke-width:2.5336;stroke-miterlimit:10;}
	.st372{fill:#FFEFE0;stroke:#4890F1;stroke-width:2.5336;stroke-miterlimit:10;}
</style>
<g id="Слой_1">
	<g>
		<circle class="st6" cx="207.5" cy="580.85" r="146.4"/>
		<g>
			<path class="st21" d="M168.82,546.08c1.79-0.14,4.5-0.21,8.15-0.21c4.5,0,11.98,0.33,22.43,0.98c2.85,0.14,4.68,0.19,5.49,0.15
				c0.81-0.03,1.86-0.31,3.17-0.83c1.41-0.55,2.48-0.83,3.2-0.83c0.58,0,1.26,0.44,2.04,1.32c0.77,0.88,1.16,1.62,1.16,2.24
				c0,2.24-1.17,3.98-3.51,5.23c-2.34,1.26-4.42,1.88-6.24,1.88h-1.91c-3.3,0-5.72-0.22-7.27-0.67c-4.78-1.27-10.73-1.91-17.84-1.91
				c-6.08,0-11.43,0.74-16.04,2.22c-4.61,1.48-7.6,3.04-8.97,4.69c-1.55,1.86-2.71,3.02-3.48,3.48c-0.77,0.46-1.83,0.7-3.17,0.7
				c-2.68,0-4.02-1.19-4.02-3.56c0-3.61,1.48-6.8,4.43-9.57s7.92-5.92,14.9-9.46c4.09-2.03,6.58-3.42,7.48-4.18
				c0.89-0.76,3.36-2.97,7.4-6.65c4.04-3.68,7.11-6.84,9.21-9.49c2.1-2.65,3.6-5.01,4.51-7.09c0.91-2.08,1.37-4,1.37-5.75
				c0-2.41-1.43-4.86-4.28-7.35c-2.85-2.49-5.5-3.74-7.94-3.74c-2.1,0-5.26,1.31-9.49,3.94c-4.23,2.63-7.37,5.17-9.44,7.61
				c-1.34,1.58-3.39,2.37-6.14,2.37c-0.65,0-1.36-0.74-2.11-2.22c-0.76-1.48-1.13-2.66-1.13-3.56c0-0.65,0.09-1.1,0.26-1.34
				c0.17-0.24,1.9-1.53,5.18-3.87c3.28-2.34,6.24-4.36,8.87-6.06c2.63-1.7,5.27-3,7.92-3.89c2.65-0.89,6.05-1.34,10.21-1.34
				c3.54,0,6.87,1.47,9.98,4.41s5.42,5.83,6.94,8.66s2.27,4.46,2.27,4.87c0,4.71-3.52,11.23-10.55,19.55
				C184.82,535.16,177.14,541.58,168.82,546.08z"/>
		</g>
		<circle class="st64" cx="177.38" cy="522.99" r="153.56"/>
	</g>
	<g>
		
			<ellipse transform="matrix(0.9986 -0.0533 0.0533 0.9986 -68.1788 37.4191)" class="st28" cx="667.21" cy="1296.5" rx="168.67" ry="47.67"/>
		
			<ellipse transform="matrix(0.9824 -0.1868 0.1868 0.9824 -190.1862 157.8408)" class="st28" cx="742.64" cy="1088.33" rx="261.01" ry="81.2"/>
		
			<ellipse transform="matrix(0.1079 -0.9942 0.9942 0.1079 -20.0402 2140.9482)" class="st28" cx="1182.88" cy="1081.64" rx="85.07" ry="261.01"/>
		
			<ellipse transform="matrix(0.1079 -0.9942 0.9942 0.1079 -252.152 2225.1138)" class="st28" cx="1113.72" cy="1253.05" rx="81.2" ry="261.01"/>
		<g>
			<path class="st65" d="M1024.53,875.93c-17.02-9.74-4.13-27.61,3.54-36.09c3.97-4.39,5.45-10.59,3.7-16.24
				c-5.06-16.31-25.92-19.22-38.64-19.43c-5.79-0.09-11.15,2.86-14.45,7.62c-22.39,32.3-77.95,60.25-95.56,68.54
				c-2.7-4-5.68-7.77-8.96-11.23c-21.71-22.99-55.13-33.67-87.62-24.83l-257.77,70.15c-39.64,10.79-65.73,47.32-65.17,86.7
				c-38.42,17.18-106.33-6.88-135.99-19.09c-11.44-4.71-24.48,3.45-24.89,15.66c-0.48,14.39,5.92,29.7,11.82,31.1
				c4.85,1.14,5.71,5.91,5.39,10.31c-0.33,4.45-2.62,8.58-6.05,11.59c-22.21,19.44,7.72,27.46,30.72,37.95
				c18.11,8.26,6.15,27.25-1.13,36.39c-3.77,4.73-4.86,11.06-2.67,16.55c6.31,15.87,27.89,16.97,40.95,16.08
				c5.94-0.41,11.23-3.82,14.28-8.87c18.71-30.92,65.41-60.63,87.15-73.33c18.87,35.8,60.86,55.21,101.44,44.17l257.77-70.15
				c43.29-11.78,70.4-54.28,64.3-97.63c38.71-11.01,100.05,17.33,127.18,31.52c10.79,5.64,23.98-1.37,25.19-13.48
				c1.43-14.27-3.75-30.04-9.38-31.92c-4.63-1.55-5.15-6.35-4.54-10.7c0.62-4.4,3.12-8.32,6.65-11.02
				C1074.64,898.78,1046.14,888.29,1024.53,875.93z"/>
			<path class="st66" d="M319.71,1034.53l1.3-0.21c0,0,82.08-22.34,149.68,3.35"/>
			<path class="st66" d="M354.12,1101.21c0,0,19.81-49.61,120.78-63.31"/>
			<path class="st66" d="M446,1006.01c0,0,37.04,41.6,35.28,70.55c4.1-40.61-16.16-74.58-16.16-74.58"/>
			<path class="st67" d="M907.06,954.96c0.09-20.46-25.01-76.15-25.01-76.15s36.61,38.33,41.72,67.25"/>
			<path class="st68" d="M1015.68,868.7c0,0-81.18-3.35-104.03,48.65c71.58-34.96,134.2,17.28,134.2,17.28"/>
			<g>
				<defs>
					<path id="SVGID_8_" d="M1024.53,875.93c-17.02-9.74-4.13-27.61,3.54-36.09c3.97-4.39,5.45-10.59,3.7-16.24
						c-5.06-16.31-25.92-19.22-38.64-19.43c-5.79-0.09-11.15,2.86-14.45,7.62c-22.39,32.3-77.95,60.25-95.56,68.54
						c-2.7-4-5.68-7.77-8.96-11.23c-21.71-22.99-55.13-33.67-87.62-24.83l-257.77,70.15c-39.64,10.79-65.73,47.32-65.17,86.7
						c-38.42,17.18-106.33-6.88-135.99-19.09c-11.44-4.71-24.48,3.45-24.89,15.66c-0.48,14.39,5.92,29.7,11.82,31.1
						c4.85,1.14,5.71,5.91,5.39,10.31c-0.33,4.45-2.62,8.58-6.05,11.59c-22.21,19.44,7.72,27.46,30.72,37.95
						c18.11,8.26,6.15,27.25-1.13,36.39c-3.77,4.73-4.86,11.06-2.67,16.55c6.31,15.87,27.89,16.97,40.95,16.08
						c5.94-0.41,11.23-3.82,14.28-8.87c18.71-30.92,65.41-60.63,87.15-73.33c18.87,35.8,60.86,55.21,101.44,44.17l257.77-70.15
						c43.29-11.78,70.4-54.28,64.3-97.63c38.71-11.01,100.05,17.33,127.18,31.52c10.79,5.64,23.98-1.37,25.19-13.48
						c1.43-14.27-3.75-30.04-9.38-31.92c-4.63-1.55-5.15-6.35-4.54-10.7c0.62-4.4,3.12-8.32,6.65-11.02
						C1074.64,898.78,1046.14,888.29,1024.53,875.93z"/>
				</defs>
				<clipPath id="SVGID_1_">
					<use xlink:href="#SVGID_8_"  style="overflow:visible;"/>
				</clipPath>
				<g style="clip-path:url(#SVGID_1_);">
					<path class="st70" d="M371.92,892.36c0,0,283.04,27.67,393.28,523.89"/>
					<path class="st71" d="M467.57,862.47c0,0,282.01,36.67,376.4,536.15"/>
					<path class="st70" d="M600.16,820.56c0,0,281.6,39.71,370.59,540.18"/>
					<path class="st71" d="M697,794.78c0,0,280.19,48.66,353.2,551.7"/>
				</g>
				<use xlink:href="#SVGID_8_"  style="overflow:visible;fill:none;stroke:#1B3390;stroke-width:8.4494;stroke-miterlimit:10;"/>
			</g>
		</g>
		<g>
			<g>
				<g>
					<path class="st72" d="M1553.72,972.21c-10.88-14.93,7.08-25.33,16.95-29.67c5.1-2.24,8.77-7,9.44-12.53
						c1.93-15.97-14.88-26.51-25.74-31.59c-4.94-2.31-10.69-1.84-15.36,0.98c-31.69,19.14-90.23,21.77-108.57,22.12
						c-0.78-4.48-1.89-8.87-3.37-13.11c-9.81-28.13-34.42-50.19-65.77-55.1l-248.65-38.99c-38.24-6-74.75,15.37-89.43,49.43
						c-39.65-0.03-88.77-46.88-109.57-68.8c-8.03-8.46-22.37-6.47-27.43,3.88c-5.96,12.19-6.36,27.82-1.82,31.29
						c3.73,2.85,2.64,7.28,0.66,10.94c-2,3.7-5.56,6.37-9.67,7.63c-26.58,8.16-3.94,26.58,11.79,44.46
						c12.39,14.08-5.21,25.79-15,30.85c-5.06,2.62-8.44,7.63-8.67,13.2c-0.69,16.07,17.44,25.34,29.01,29.6
						c5.27,1.94,11.13,1.04,15.7-2.12c28-19.37,79.59-26.93,103.18-29.47c2.44,38.05,31.06,70.92,70.2,77.06l248.65,38.99
						c41.76,6.55,81.44-19.54,92.9-59.17c37.53,5.45,79.35,53.44,97.21,76.1c7.1,9.01,21.14,8.06,26.85-1.89
						c6.73-11.72,8.35-27.27,4.23-31.06c-3.38-3.11-1.98-7.45,0.22-10.95c2.22-3.55,5.88-5.95,9.96-6.91
						C1587.99,1011.16,1567.53,991.17,1553.72,972.21z"/>
					<path class="st73" d="M886.62,837.04l1.2,0.32c0,0,79.18,12.42,127.41,60.54"/>
					<path class="st73" d="M890.51,907.63c0,0,36.15-35.02,128.23-7.9"/>
					<path class="st73" d="M1006.19,861.18c0,0,15.82,50.04,3.15,74.25c19.17-33.34,14.83-70.35,14.83-70.35"/>
					<path class="st73" d="M1422.27,994.91c7.96-17.56,7.84-75.11,7.84-75.11s16.7,47.06,9.96,73.89"/>
					<path class="st74" d="M1548.89,962.58c0,0-68.5-34.15-108.19,1.75c75.01-2.48,108.73,66.56,108.73,66.56"/>
				</g>
				<g>
					<defs>
						<path id="SVGID_10_" d="M1553.72,972.21c-10.88-14.93,7.08-25.33,16.95-29.67c5.1-2.24,8.77-7,9.44-12.53
							c1.93-15.97-14.88-26.51-25.74-31.59c-4.94-2.31-10.69-1.84-15.36,0.98c-31.69,19.14-90.23,21.77-108.57,22.12
							c-0.78-4.48-1.89-8.87-3.37-13.11c-9.81-28.13-34.42-50.19-65.77-55.1l-248.65-38.99c-38.24-6-74.75,15.37-89.43,49.43
							c-39.65-0.03-88.77-46.88-109.57-68.8c-8.03-8.46-22.37-6.47-27.43,3.88c-5.96,12.19-6.36,27.82-1.82,31.29
							c3.73,2.85,2.64,7.28,0.66,10.94c-2,3.7-5.56,6.37-9.67,7.63c-26.58,8.16-3.94,26.58,11.79,44.46
							c12.39,14.08-5.21,25.79-15,30.85c-5.06,2.62-8.44,7.63-8.67,13.2c-0.69,16.07,17.44,25.34,29.01,29.6
							c5.27,1.94,11.13,1.04,15.7-2.12c28-19.37,79.59-26.93,103.18-29.47c2.44,38.05,31.06,70.92,70.2,77.06l248.65,38.99
							c41.76,6.55,81.44-19.54,92.9-59.17c37.53,5.45,79.35,53.44,97.21,76.1c7.1,9.01,21.14,8.06,26.85-1.89
							c6.73-11.72,8.35-27.27,4.23-31.06c-3.38-3.11-1.98-7.45,0.22-10.95c2.22-3.55,5.88-5.95,9.96-6.91
							C1587.99,1011.16,1567.53,991.17,1553.72,972.21z"/>
					</defs>
					<clipPath id="SVGID_3_">
						<use xlink:href="#SVGID_10_"  style="overflow:visible;"/>
					</clipPath>
					
						<path style="clip-path:url(#SVGID_3_);fill:none;stroke:#5FECBF;stroke-width:125.2304;stroke-linecap:round;stroke-miterlimit:10;" d="
						M1188.64,747.37c0,0,162.98,183.65-47.82,368.74"/>
				</g>
			</g>
			<path class="st73" d="M886.62,837.04l1.2,0.32c0,0,79.18,12.42,127.41,60.54"/>
			<path class="st73" d="M890.51,907.63c0,0,36.15-35.02,128.23-7.9"/>
			<path class="st73" d="M1006.19,861.18c0,0,15.82,50.04,3.15,74.25c19.17-33.34,14.83-70.35,14.83-70.35"/>
			<path class="st73" d="M1422.27,994.91c7.96-17.56,7.84-75.11,7.84-75.11s16.7,47.06,9.96,73.89"/>
			<path class="st74" d="M1548.89,962.58c0,0-68.5-34.15-108.19,1.75c75.01-2.48,108.73,66.56,108.73,66.56"/>
			<path class="st76" d="M1553.72,972.21c-10.88-14.93,7.08-25.33,16.95-29.67c5.1-2.24,8.77-7,9.44-12.53
				c1.93-15.97-14.88-26.51-25.74-31.59c-4.94-2.31-10.69-1.84-15.36,0.98c-31.69,19.14-90.23,21.77-108.57,22.12
				c-0.78-4.48-1.89-8.87-3.37-13.11c-9.81-28.13-34.42-50.19-65.77-55.1l-248.65-38.99c-38.24-6-74.75,15.37-89.43,49.43
				c-39.65-0.03-88.77-46.88-109.57-68.8c-8.03-8.46-22.37-6.47-27.43,3.88c-5.96,12.19-6.36,27.82-1.82,31.29
				c3.73,2.85,2.64,7.28,0.66,10.94c-2,3.7-5.56,6.37-9.67,7.63c-26.58,8.16-3.94,26.58,11.79,44.46
				c12.39,14.08-5.21,25.79-15,30.85c-5.06,2.62-8.44,7.63-8.67,13.2c-0.69,16.07,17.44,25.34,29.01,29.6
				c5.27,1.94,11.13,1.04,15.7-2.12c28-19.37,79.59-26.93,103.18-29.47c2.44,38.05,31.06,70.92,70.2,77.06l248.65,38.99
				c41.76,6.55,81.44-19.54,92.9-59.17c37.53,5.45,79.35,53.44,97.21,76.1c7.1,9.01,21.14,8.06,26.85-1.89
				c6.73-11.72,8.35-27.27,4.23-31.06c-3.38-3.11-1.98-7.45,0.22-10.95c2.22-3.55,5.88-5.95,9.96-6.91
				C1587.99,1011.16,1567.53,991.17,1553.72,972.21z"/>
		</g>
		<g>
			<g>
				<path class="st77" d="M1182.67,1147.52c-6.14-10.78,3.87-19.8,9.37-23.7c2.85-2.02,4.88-5.88,5.23-10.15
					c1.02-12.33-8.42-19.4-14.51-22.64c-2.77-1.48-5.98-0.78-8.59,1.66c-17.65,16.52-50.38,22-60.63,23.35
					c-0.45-3.38-1.09-6.67-1.93-9.83c-5.59-20.94-19.44-36.36-36.98-38.26l-139.19-15.1c-21.41-2.32-41.74,16.18-49.83,43.12
					c-22.17,2.33-49.81-30.61-61.53-46.14c-4.52-5.99-12.54-3.62-15.33,4.59c-3.29,9.67-3.45,21.66-0.9,24.05
					c2.1,1.96,1.5,5.41,0.41,8.33c-1.1,2.95-3.09,5.2-5.38,6.41c-14.84,7.81-2.11,20.57,6.76,33.32
					c6.98,10.04-2.82,20.04-8.27,24.49c-2.82,2.3-4.69,6.34-4.8,10.61c-0.32,12.34,9.85,18.35,16.33,20.93
					c2.95,1.17,6.23,0.14,8.77-2.55c15.59-16.48,44.41-25.32,57.59-28.66c1.5,28.96,17.63,52.42,39.54,54.79l139.19,15.1
					c23.38,2.54,45.47-19.78,51.73-50.77c21.01,1.95,44.57,36.18,54.64,52.46c4,6.47,11.85,4.91,15.01-3.03
					c3.72-9.36,4.57-21.36,2.25-24.01c-1.9-2.18-1.13-5.58,0.08-8.39c1.23-2.84,3.27-4.9,5.54-5.88
					C1201.98,1175.29,1190.46,1161.2,1182.67,1147.52z"/>
				<path class="st78" d="M809.11,1083.63l0.67,0.17c0,0,44.33,4.81,71.47,38.77"/>
				<path class="st78" d="M811.55,1137.4c0,0,20.08-28.93,71.68-13.64"/>
				<path class="st79" d="M876.07,1095.01c0,0,9.03,37.34,2.04,56.62c10.6-26.64,8.04-54.69,8.04-54.69"/>
				<path class="st80" d="M1109.24,1172.67c4.39-13.9,4.1-57.93,4.1-57.93s9.52,35.01,5.84,55.94"/>
				<path class="st81" d="M1178.3,1144.78c0,0-36.8-26.41-58.86,3.41c41.94-6.34,61.05,44.48,61.05,44.48"/>
			</g>
			<g>
				<g>
					<path class="st82" d="M1451.73,1190.6c-8.9-8.63-1.81-20.09,2.38-25.37c2.17-2.73,3.04-7,2.19-11.2
						c-2.46-12.13-13.5-16.28-20.25-17.7c-3.08-0.64-5.96,0.93-7.78,3.99c-12.34,20.79-42.24,35.18-51.71,39.34
						c-1.38-3.12-2.91-6.1-4.6-8.9c-11.21-18.55-28.81-29.49-46.19-26.42l-137.88,24.34c-21.2,3.74-35.57,27.19-35.82,55.31
						c-20.64,8.42-56.38-15.49-71.96-27.14c-6.01-4.49-13.05,0.02-13.44,8.68c-0.46,10.21,2.73,21.76,5.85,23.34
						c2.56,1.3,2.95,4.78,2.72,7.88c-0.24,3.14-1.51,5.86-3.37,7.66c-12.07,11.64,3.72,20.34,15.79,30.11
						c9.51,7.69,2.88,20.03-1.11,25.83c-2.07,3-2.73,7.4-1.65,11.53c3.13,11.94,14.58,14.88,21.52,15.54
						c3.16,0.3,6.02-1.61,7.71-4.9c10.37-20.18,35.58-36.71,47.31-43.59c9.53,27.39,31.56,45.41,53.26,41.58l137.88-24.34
						c23.16-4.09,38.15-31.68,35.51-63.19c20.71-3.99,52.9,22.31,67.11,35.13c5.65,5.1,12.75,1.41,13.57-7.1
						c0.96-10.03-1.57-21.78-4.54-23.68c-2.44-1.56-2.64-5.04-2.26-8.08c0.39-3.08,1.77-5.62,3.68-7.19
						C1478.02,1211.88,1463.03,1201.57,1451.73,1190.6z"/>
					<path class="st83" d="M1075.18,1233.49l0.69-0.02c0,0,43.91-7.75,79.45,17.29"/>
					<path class="st83" d="M1092.53,1284.45c0,0,11.21-33.39,65.03-33.1"/>
					<path class="st83" d="M1142.66,1225.74c0,0,19.1,33.34,17.76,53.8c2.74-28.54-7.55-54.76-7.55-54.76"/>
					<path class="st83" d="M1388.24,1235.24c0.33-14.58-12.22-56.77-12.22-56.77s18.91,30.97,21.22,52.09"/>
					<path class="st84" d="M1447.13,1184.57c0,0-43.07-10.47-55.93,24.32c38.5-17.79,71.04,25.68,71.04,25.68"/>
				</g>
			</g>
			<path class="st85" d="M1075.18,1233.49l0.69-0.02c0,0,43.91-7.75,79.45,17.29"/>
			<path class="st85" d="M1092.53,1284.45c0,0,11.21-33.39,65.03-33.1"/>
			<path class="st85" d="M1142.66,1225.74c0,0,19.1,33.34,17.76,53.8c2.74-28.54-7.55-54.76-7.55-54.76"/>
			<path class="st86" d="M1388.24,1235.24c0.33-14.58-12.22-56.77-12.22-56.77s18.91,30.97,21.22,52.09"/>
			<path class="st86" d="M1447.13,1184.57c0,0-43.07-10.47-55.93,24.32c38.5-17.79,71.04,25.68,71.04,25.68"/>
		</g>
		<path class="st55" d="M575.89,922.44c0,0-96.43,28.43-83.05,84.34c7.17,29.95,19.3,34.76,29.01,32.78
			c8.55-1.75,14.79-9.17,16-17.81c2.56-18.25,11.52-57.34,41.56-60.03C618.69,958.2,607.9,914.24,575.89,922.44z"/>
		<path class="st56" d="M1130.8,825.74c0,0-91.6,4.05-92,56.47c-0.21,28.08,9.47,35,18.51,35.37c7.95,0.33,15.1-4.88,18.06-12.26
			c6.26-15.6,22.76-48.24,49.94-44.04C1160.85,866.77,1160.93,825.5,1130.8,825.74z"/>
		<path class="st57" d="M1238.32,1170.42c0,0-70.05,3.1-70.36,43.19c-0.16,21.48,7.24,26.77,14.15,27.05
			c6.08,0.25,11.55-3.73,13.81-9.38c4.79-11.93,17.41-36.89,38.19-33.68C1261.31,1201.8,1261.37,1170.23,1238.32,1170.42z"/>
		<path class="st58" d="M963.29,1065.17c0,0-63.87,2.82-64.14,39.38c-0.15,19.58,6.6,24.4,12.9,24.66
			c5.55,0.23,10.53-3.4,12.59-8.55c4.37-10.87,15.87-33.63,34.82-30.71C984.24,1093.78,984.3,1065,963.29,1065.17z"/>
		<path class="st87" d="M774.4,1238.97c-5.14-6.32,0.37-13.24,3.51-16.36c1.63-1.61,2.52-4.33,2.29-7.14
			c-0.67-8.1-7.55-11.66-11.84-13.1c-1.96-0.66-3.96,0.14-5.38,2c-9.65,12.61-30.25,19.68-36.75,21.67
			c-0.66-2.14-1.43-4.2-2.31-6.16c-5.88-12.96-16.51-21.45-28.08-20.79l-91.78,5.24c-14.12,0.81-25.29,14.99-27.62,33.3
			c-14.11,3.9-35.57-14.45-44.83-23.25c-3.57-3.39-8.51-0.99-9.43,4.63c-1.08,6.62,0.1,14.4,2.01,15.67
			c1.57,1.04,1.56,3.34,1.17,5.35c-0.4,2.03-1.44,3.7-2.79,4.73c-8.77,6.66,0.85,13.55,7.97,20.85c5.61,5.75,0.34,13.29-2.72,16.75
			c-1.58,1.79-2.35,4.61-1.96,7.39c1.12,8.03,8.36,10.82,12.84,11.79c2.04,0.44,4.05-0.58,5.41-2.6
			c8.32-12.36,26.03-21.19,34.21-24.78c4.1,18.6,17.07,32.05,31.52,31.22l91.78-5.24c15.42-0.88,27.32-17.71,28.03-38.47
			c13.82-1.01,32.77,18.63,41.05,28.08c3.29,3.76,8.21,1.9,9.39-3.58c1.4-6.46,0.65-14.32-1.13-15.79
			c-1.47-1.21-1.34-3.49-0.85-5.44c0.49-1.98,1.59-3.53,2.96-4.4C789.9,1254.87,780.92,1246.99,774.4,1238.97z"/>
		<path class="st88" d="M525.56,1237.89l0.45,0.04c0,0,29.23-1.67,50.47,17.4"/>
		<path class="st88" d="M532.94,1272.46c0,0,9.89-20.91,44.95-16.57"/>
		<path class="st88" d="M570.15,1238.04c0,0,9.88,23.21,7.43,36.45c3.99-18.4-0.7-36.29-0.7-36.29"/>
		<path class="st87" d="M729.56,1263.18c1.34-9.48-3.59-37.96-3.59-37.96s9.94,21.65,9.82,35.6"/>
		<path class="st87" d="M771.86,1234.68c0,0-27.27-10.15-38.35,11.55c26.48-8.63,44.34,22.22,44.34,22.22"/>
		<path class="st62" d="M623.43,1209.31c0,0-41.06,8.72-37.3,32.42c2.02,12.7,6.91,15.09,11.02,14.58c3.62-0.45,6.45-3.34,7.23-6.9
			c1.65-7.51,6.65-23.5,19.24-23.64C640.08,1225.57,637.01,1206.93,623.43,1209.31z"/>
		<g>
			<line class="st89" x1="431.14" y1="636.12" x2="431.14" y2="933.92"/>
			<line class="st89" x1="531.42" y1="504.66" x2="531.42" y2="816.15"/>
			<line class="st89" x1="654.49" y1="693.88" x2="654.49" y2="841.06"/>
			<line class="st89" x1="833.6" y1="487.76" x2="833.6" y2="734.21"/>
			<line class="st89" x1="991.8" y1="675.37" x2="991.8" y2="767.79"/>
			<line class="st89" x1="1155.9" y1="490.09" x2="1155.9" y2="705.74"/>
			<line class="st89" x1="1342.78" y1="473.76" x2="1342.78" y2="818.53"/>
			<line class="st89" x1="1278.97" y1="681.26" x2="1278.97" y2="814.76"/>
			<line class="st89" x1="1470.42" y1="641.56" x2="1470.42" y2="867.47"/>
		</g>
		<g>
			<path d="M517.94,1482.79c-1.79,0-3.16-0.85-4.13-2.55s-1.44-5.01-1.44-9.93c0-8.46,1.99-26.65,5.98-54.56
				c0.24-1.2-0.19-1.93-1.29-2.19s-5.6-0.39-13.51-0.39c-10.8,0-16.98,0.64-18.57,1.91c-1.58,1.27-2.82,7.01-3.71,17.22
				c-0.34,4.06-1.34,10.64-2.99,19.75c-1.99,10.93-2.99,18.72-2.99,23.36l0.21,3.25c0,3.09-1.48,4.64-4.43,4.64
				c-3.54,0-5.31-2.22-5.31-6.65c0-3.54,0.29-6.67,0.88-9.39c0.96-4.61,1.77-9.04,2.42-13.31c0.41-2.68,0.89-5.59,1.44-8.72
				c2.2-12.45,3.3-21.32,3.3-26.61c0-1.79-0.83-2.77-2.48-2.94c-3.27-0.38-4.9-1.72-4.9-4.02c0-1.55,0.4-2.8,1.21-3.76
				c0.81-0.96,1.86-1.48,3.17-1.55c3.3-0.14,5.71-0.67,7.22-1.6c1.38-0.69,2.41-1.03,3.09-1.03c1.41,0,2.63,0.31,3.66,0.93
				c1.13,0.69,4.44,1.03,9.9,1.03c0.07,0,3.72-0.1,10.96-0.31c7.24-0.21,11.2-0.38,11.89-0.52c0.69-0.14,1.53-0.41,2.53-0.83
				c1.62-0.69,2.94-1.03,3.97-1.03l4.13,0.62l4.59-0.31c2.79,0,4.18,1.22,4.18,3.66c0,1.58-0.52,2.91-1.55,4
				c-1.03,1.08-2.2,1.66-3.51,1.73c-0.93,0.07-1.74,0.4-2.42,1.01c-0.69,0.6-1.6,3.22-2.73,7.86c-1.13,4.64-2.24,12.77-3.33,24.39
				c-1.08,11.62-1.62,22.07-1.62,31.36v1.86c0,0.72-0.45,1.47-1.34,2.24C519.52,1482.19,518.7,1482.65,517.94,1482.79z"/>
			<path d="M557.7,1482.94c-4.71,0-8.6-1.79-11.66-5.36c-3.06-3.58-4.59-7.99-4.59-13.25c0-8.87,2.98-17.61,8.95-26.22
				s13.11-12.92,21.43-12.92c5.5,0,9.96,2.11,13.38,6.34s5.13,9.27,5.13,15.11c0,8.94-3.53,17.22-10.6,24.86
				C572.68,1479.12,565.33,1482.94,557.7,1482.94z M550.53,1462.98c0,3.47,0.73,6.31,2.19,8.51c1.46,2.2,3.39,3.3,5.8,3.3
				c5.12,0,10.26-2.81,15.42-8.43c5.16-5.62,7.74-11.87,7.74-18.75c0-4.23-0.99-7.66-2.97-10.29c-1.98-2.63-4.63-3.95-7.97-3.95
				c-5.54,0-10.29,3.4-14.26,10.19C552.52,1450.36,550.53,1456.83,550.53,1462.98z"/>
			<path d="M632.69,1426.78c-1.31-3.54-4.33-7.37-9.08-11.5c-4.47-3.85-6.7-7.15-6.7-9.9c0-2.2,0.72-3.98,2.17-5.34
				c1.44-1.36,4.13-2.59,8.04-3.69c4.88-1.34,9.85-2.86,14.9-4.56c5.05-1.7,8.1-2.79,9.13-3.27c0.65-0.31,1.32-0.46,2.01-0.46
				c1.13,0,1.7,1.01,1.7,3.04c0,1.13-1.38,2.68-4.13,4.64c-2.75,1.96-7.62,3.78-14.59,5.47c-4.4,1.1-7.09,1.92-8.07,2.45
				c-0.98,0.53-1.47,1.07-1.47,1.62c0,1.24,1.34,3.03,4.02,5.36c10.11,8.84,15.16,19.92,15.16,33.26c0,5.74-1.51,11.89-4.54,18.44
				c-3.03,6.55-7.06,11.42-12.09,14.62c-5.04,3.2-9.96,4.8-14.78,4.8c-4.33,0-7.62-2.11-9.85-6.34c-2.24-4.23-3.35-8.89-3.35-13.98
				c0-9.01,2.78-17.5,8.33-25.48c5.55-7.98,11.42-11.96,17.61-11.96c0.83,0,1.86,0.53,3.09,1.6
				C631.35,1426.63,632.17,1427.02,632.69,1426.78z M610.2,1461.64c0,3.82,0.51,6.81,1.52,8.97s2.35,3.25,4,3.25
				c2.2,0,5.17-1.36,8.92-4.07c3.75-2.72,6.76-6.74,9.05-12.07c2.29-5.33,3.43-10.31,3.43-14.96c0-3.85-0.54-6.97-1.63-9.36
				c-1.08-2.39-2.09-3.58-3.02-3.58c-6.12,0-11.36,3.73-15.73,11.19C612.38,1448.47,610.2,1455.35,610.2,1461.64z"/>
			<path d="M703.03,1462.88c0,3.51-3.1,7.74-9.31,12.69c-6.21,4.95-12.61,7.43-19.21,7.43c-5.54,0-9.81-1.63-12.82-4.9
				c-3.01-3.27-4.51-7.82-4.51-13.67c0-9.83,3.32-19.18,9.95-28.05c6.63-8.87,13.89-13.31,21.76-13.31c2.58,0,4.68,0.84,6.32,2.53
				c1.63,1.69,2.45,3.71,2.45,6.09c0,5.29-2.6,10.37-7.79,15.21c-5.19,4.85-12.14,9.61-20.83,14.29c-1.79,0.93-2.68,2.13-2.68,3.61
				c0,2.85,0.83,5.14,2.48,6.86c1.65,1.72,4.09,2.58,7.32,2.58c7.39,0,14.94-4.09,22.64-12.27c1.13-1.13,1.99-1.7,2.58-1.7
				C702.48,1460.25,703.03,1461.13,703.03,1462.88z M667.19,1454.83c14.58-8.66,21.87-15.63,21.87-20.89c0-2.06-0.93-3.09-2.79-3.09
				c-3.16,0-6.73,2.32-10.7,6.96C671.6,1442.46,668.8,1448.13,667.19,1454.83z"/>
			<path d="M753.05,1420.33c-1.24-5.36-2.77-9.11-4.59-11.24c-1.82-2.13-4.23-3.78-7.22-4.95c-2.99-1.17-5.69-1.75-8.1-1.75
				c-0.93,0-2.29,0.35-4.1,1.06c-1.81,0.71-3.19,1.35-4.15,1.93c-1.34,0.79-2.58,1.19-3.71,1.19c-1.31,0-1.96-0.69-1.96-2.06
				c0-1.48,1.12-3.52,3.35-6.14c2.23-2.61,6.17-3.92,11.81-3.92h2.22c5.6,0,10.55,1.47,14.85,4.41s7.35,7.14,9.15,12.61
				c1.8,5.47,2.71,12.81,2.71,22.02c0,6.26-1.98,13.84-5.93,22.74c-3.95,8.9-8.98,15.64-15.08,20.22s-12.59,6.86-19.47,6.86
				c-2.48,0-4.8-1.43-6.96-4.28s-3.25-6.4-3.25-10.62c0-7.8,1.71-14.69,5.13-20.65c3.42-5.96,7.25-10.8,11.5-14.52
				c4.25-3.71,10.12-6.7,17.61-8.97c2.48-0.72,4.16-1.29,5.05-1.7C752.81,1422.14,753.19,1421.4,753.05,1420.33z M754.44,1430.85
				c-7.94,1.62-14.03,4.18-18.26,7.68c-9.56,8.94-14.34,18.96-14.34,30.07c0,1.48,0.26,2.86,0.77,4.15c0.52,1.29,1.1,1.93,1.75,1.93
				c2.54,0,4.87-0.45,6.96-1.34c2.1-0.89,4.66-2.76,7.68-5.6s5.77-6.35,8.23-10.55c2.46-4.19,4.25-8.23,5.36-12.12
				c1.12-3.88,1.71-6.87,1.78-8.95C754.46,1434.06,754.48,1432.3,754.44,1430.85z"/>
			<path d="M781.47,1421.93c0.45-0.31,0.95-0.46,1.5-0.46c0.86,0,1.58,1.15,2.17,3.46c0,1.48-0.4,3.35-1.19,5.62
				c-2.34,6.5-3.51,11.04-3.51,13.61c0,0.69,0.21,1.07,0.62,1.13c7.91-7.6,15.23-11.4,21.97-11.4c4.16,0,7.65,1.57,10.47,4.72
				c2.82,3.15,4.23,6.03,4.23,8.64c0,7.98-4.07,15.64-12.2,22.98c-8.13,7.34-16.32,11.01-24.57,11.01c-3.68,0-6.54-1.52-8.59-4.56
				c-2.05-3.04-3.07-7.4-3.07-13.07c0-6.15,0.77-12.96,2.32-20.42c1.55-7.46,2.78-12.45,3.71-14.96c0.38-1.06,0.72-2.15,1.03-3.25
				C776.71,1423.6,778.41,1422.59,781.47,1421.93z M779.04,1454.27c-0.69,3.82-1.03,7.63-1.03,11.45c0,5.19,2.04,7.79,6.14,7.79
				c4.61,0,9.76-2.75,15.47-8.25c5.71-5.5,8.56-10.85,8.56-16.04c0-2.13-0.57-3.92-1.7-5.36c-1.13-1.44-2.7-2.17-4.69-2.17
				c-2.72,0-5.39,0.68-8.02,2.04c-2.63,1.36-5.56,3.55-8.79,6.58c-1.24,1.17-2.23,2.07-2.96,2.71
				C781.27,1453.64,780.28,1454.06,779.04,1454.27z M830.98,1466.13c0,2.61,0.36,5.55,1.08,8.82c0.14,0.62,0.21,1.13,0.21,1.55
				c0,0.62-0.57,1.42-1.7,2.4s-2.34,1.47-3.61,1.47c-3.34,0-5-3.06-5-9.18c0-6.09,1.32-16.3,3.97-30.63
				c0.96-5.23,1.44-8.39,1.44-9.49c0-2.17,0.39-4.01,1.19-5.54c0.79-1.53,1.91-2.29,3.35-2.29c1.75,0,3.14,0.42,4.15,1.26
				c1.01,0.84,1.52,1.78,1.52,2.81c0,1.03-0.24,2.46-0.72,4.28c-2.68,9.8-4.33,16.66-4.95,20.58
				C831.29,1456.07,830.98,1460.73,830.98,1466.13z"/>
			<path d="M955.93,1435.19c-2.79,4.47-6.7,12.03-11.76,22.69c-1.13,2.41-2.29,4.73-3.46,6.96c-0.38,0.72-1.1,2.32-2.17,4.8
				c-3.61,8.39-6.76,12.58-9.44,12.58c-2.13,0-3.69-0.26-4.67-0.77s-1.92-1.93-2.81-4.23c-0.89-2.3-2.22-7.72-3.97-16.24
				c-2.03-9.66-3.4-15.61-4.13-17.84c-2.34,5.26-4.42,10.33-6.24,15.21c-2.75,7.19-5.42,13.04-7.99,17.56
				c-2.58,4.52-4.44,7.24-5.57,8.15c-1.13,0.91-2.22,1.37-3.25,1.37c-1.07,0-2.03-0.41-2.89-1.24s-1.29-1.63-1.29-2.42
				c0.21-1.41,0.45-2.29,0.72-2.63c2.99-3.68,5.57-7.6,7.74-11.76c2.17-4.16,4.93-10.4,8.28-18.72c3.35-8.32,5.49-15.14,6.42-20.47
				c0.45-2.27,2.11-3.4,5-3.4c1.68,0,2.84,0.26,3.46,0.77c0.62,0.52,1.23,1.56,1.83,3.15c0.6,1.58,0.95,2.99,1.06,4.23
				c0.21,1.48,0.79,4.76,1.75,9.85c0.86,4.78,1.43,8.17,1.7,10.16c0.48,2.85,1.33,6.6,2.55,11.24c1.22,4.64,2.17,6.96,2.86,6.96
				c0.48,0,1.17-1.05,2.06-3.15l4.33-10c0.79-1.82,1.63-3.61,2.53-5.36l5.93-12.12c3.23-6.67,5.72-11.51,7.45-14.52
				c1.74-3.01,2.9-4.82,3.51-5.44c0.6-0.62,1.28-0.93,2.04-0.93c1.31,0,2.77,0.35,4.38,1.06c1.62,0.7,2.46,1.49,2.53,2.35
				c0.07,0.86,0.22,4.45,0.46,10.78l0.67,16.09c0.21,5.12,0.52,9.48,0.93,13.07c0.41,3.59,1.13,6.49,2.17,8.69
				c1.62,3.51,2.42,6.22,2.42,8.15c0,1.65-0.68,2.79-2.04,3.4c-1.36,0.62-2.62,0.93-3.79,0.93c-2.41,0-4.25-1.93-5.54-5.78
				s-2.23-14.89-2.81-33.11C956.71,1439.78,956.38,1436.42,955.93,1435.19z"/>
			<path d="M1020.45,1446.69c0.38-0.72,0.98-5.04,1.8-12.94c0.62-6.33,2.63-9.49,6.03-9.49c2.79,0,4.18,1.39,4.18,4.18
				c0,0.65-0.24,1.98-0.72,3.97c-2.65,10.97-3.97,20.16-3.97,27.59c0,8.04,1.32,13.25,3.97,15.63c1.38,1.27,2.06,2.3,2.06,3.09
				c0,0.96-0.7,1.84-2.09,2.63c-1.39,0.79-2.66,1.19-3.79,1.19c-5.36,0-8.04-8.29-8.04-24.86c0-1.1-0.41-1.65-1.24-1.65
				c-3.23,0-7.19,0.19-11.86,0.57c-4.68,0.38-8.02,0.86-10.03,1.44c-2.01,0.58-3.25,1.13-3.71,1.62c-0.46,0.5-0.88,1.82-1.24,3.97
				c-0.36,2.15-0.54,4.38-0.54,6.68v6.34c0,3.68-1.68,5.52-5.05,5.52c-2.82,0-4.23-1.84-4.23-5.52c0-2.41,0.31-5.47,0.93-9.18
				c1.13-6.81,2.27-18.53,3.4-35.17c0.14-2.17,0.33-3.54,0.57-4.13c0.24-0.58,0.87-1.23,1.88-1.93c1.01-0.7,2.12-1.06,3.33-1.06
				c2.48,0,3.71,1.01,3.71,3.04c0,0.31-0.4,2.89-1.19,7.74c-0.83,4.85-1.24,8.61-1.24,11.29c0,1.89,0.65,2.84,1.96,2.84
				c2.61,0,7.39-0.44,14.34-1.31C1016.61,1447.9,1020.21,1447.2,1020.45,1446.69z"/>
			<path d="M1059.69,1482.94c-4.71,0-8.6-1.79-11.66-5.36c-3.06-3.58-4.59-7.99-4.59-13.25c0-8.87,2.98-17.61,8.95-26.22
				s13.11-12.92,21.43-12.92c5.5,0,9.96,2.11,13.38,6.34s5.13,9.27,5.13,15.11c0,8.94-3.53,17.22-10.6,24.86
				C1074.68,1479.12,1067.33,1482.94,1059.69,1482.94z M1052.53,1462.98c0,3.47,0.73,6.31,2.19,8.51c1.46,2.2,3.39,3.3,5.8,3.3
				c5.12,0,10.26-2.81,15.42-8.43c5.16-5.62,7.74-11.87,7.74-18.75c0-4.23-0.99-7.66-2.97-10.29c-1.98-2.63-4.63-3.95-7.97-3.95
				c-5.54,0-10.29,3.4-14.26,10.19C1054.51,1450.36,1052.53,1456.83,1052.53,1462.98z"/>
			<path d="M1147.78,1456.9c-0.45,7.74-1.19,15.32-2.22,22.74c-0.52,1.41-1.82,2.11-3.92,2.11c-3.03,0-4.54-1.55-4.54-4.64
				c0-1.27,0.36-3.64,1.08-7.12c0.52-3.02,0.79-5.08,0.83-6.16c0.03-1.08,0.12-2.27,0.26-3.56c0.14-1.29,0.12-2.31-0.05-3.07
				c-1.75,0.24-5.33,2.34-10.73,6.29c-5.4,3.95-10.02,7.87-13.87,11.76v-0.05c-0.24,0.14-1,1.43-2.27,3.87
				c-1.82,3.64-3.83,5.47-6.03,5.47c-1.03,0-2.17-0.45-3.43-1.34c-1.26-0.89-1.88-1.79-1.88-2.68c0-2.13,2-5.3,6.01-9.52
				c4-4.21,8.43-7.81,13.28-10.8c5.91-3.64,9.99-6.58,12.22-8.82c-1-1.41-2.94-2.96-5.83-4.64c-2.92-1.72-5.64-3.64-8.15-5.78
				c-0.34-0.27-0.76-0.58-1.24-0.93c-4.44-2.99-7.38-5.23-8.84-6.73c-1.46-1.5-2.19-3.1-2.19-4.82c0-1.13,0.43-2.17,1.29-3.12
				c0.86-0.95,1.7-1.42,2.53-1.42c0.52,0,1.44,0.28,2.79,0.83c1.34,0.55,2.3,1.13,2.89,1.75l2.53,2.37
				c8.9,8.73,15.95,14.29,21.14,16.66c0.27,0,0.62-0.33,1.03-0.98c0.34-1.17,0.52-3.04,0.52-5.62c0-2.41-0.26-5.11-0.77-8.1
				c-0.28-1.55-0.41-2.56-0.41-3.04c0-1.62,0.63-2.92,1.88-3.92c1.25-1,2.62-1.5,4.1-1.5c1.68,0,2.84,0.34,3.46,1.03
				c0.62,0.69,0.93,1.86,0.93,3.51l-0.67,16.4v1.03c0,0.48,0.02,0.88,0.05,1.19c1.2,0,2.46-0.47,3.76-1.42
				c1.31-0.95,3.25-2.83,5.83-5.65c11.31-11.72,17.86-17.59,19.65-17.59c1,0,1.91,0.41,2.73,1.24c0.83,0.82,1.24,1.79,1.24,2.89
				c0,0.55-1.88,2.88-5.65,6.99c-3.76,4.11-7.64,7.88-11.63,11.32c-5.12,4.4-7.68,6.69-7.68,6.86c0,0.24,2.13,2.03,6.39,5.36
				c4.61,3.61,7.79,6.17,9.54,7.68c0.24,0.17,0.58,0.4,1.03,0.67c5.09,3.13,8.27,5.47,9.54,7.01c1.27,1.55,1.91,2.85,1.91,3.92
				c0,1-0.43,2.02-1.29,3.07c-0.86,1.05-1.7,1.57-2.53,1.57c-3.06,0-10.16-5.14-21.3-15.42c-4.95-4.61-7.94-7.03-8.97-7.27
				c-0.45-0.07-0.79-0.15-1.03-0.26c-0.34-0.1-0.96-0.13-1.86-0.08C1148.33,1456.51,1147.85,1456.66,1147.78,1456.9z"/>
			<path d="M1230.76,1461.59c-4.81,6.46-9.58,11.31-14.29,14.54c-4.71,3.23-9.03,4.85-12.94,4.85c-2.65,0-4.93-1.12-6.86-3.35
				c-1.93-2.23-2.89-5.11-2.89-8.61c0-9.04,4.04-18.78,12.12-29.21c8.08-10.43,16.11-15.65,24.08-15.65c2.89,0,5.04,1.65,6.45,4.95
				c0.45,1.1,1.15,1.65,2.11,1.65c2.75,0,4.13,1.07,4.13,3.2c0,1.07-0.17,2.53-0.52,4.38c-1.86,10.14-2.79,17.29-2.79,21.45
				c0,8.32,1.58,13.31,4.74,14.96c1.51,0.83,2.27,1.84,2.27,3.04c0,1.07-0.74,2.14-2.22,3.22c-1.48,1.08-2.91,1.62-4.28,1.62
				c-2.65,0-4.83-1.82-6.55-5.47C1231.61,1473.52,1230.76,1468.33,1230.76,1461.59z M1227.61,1432.56c-4.54,0-9.82,4.25-15.83,12.76
				s-9.02,15.57-9.02,21.17c0,3.95,1.31,5.93,3.92,5.93c3.78,0,9.03-3.82,15.73-11.45c6.7-7.63,10.06-14.65,10.06-21.04
				C1232.46,1435.01,1230.84,1432.56,1227.61,1432.56z"/>
			<path d="M1296.92,1439.57c-3.2,0.07-10.04,9.54-20.53,28.42c-3.54,6.36-5.6,9.82-6.19,10.39s-1.66,1.07-3.22,1.52
				c-1.57,0.45-2.86,0.67-3.89,0.67c-2.3,0-3.46-4.49-3.46-13.46c0-5.05,1.08-14.2,3.25-27.44c0.89-5.36,1.34-9.2,1.34-11.5
				c0-2.27,1.01-3.4,3.04-3.4c3.82,0,5.72,2.75,5.72,8.25c0,2.58-0.64,7.63-1.91,15.16c-1.48,8.6-2.24,13.82-2.27,15.68
				c2.13-2.06,5.26-6.58,9.39-13.56c5.84-9.56,10.15-15.62,12.92-18.18c2.77-2.56,5.63-3.84,8.59-3.84c2.23,0,4.01,1.5,5.34,4.49
				c1.32,2.99,2.12,10.13,2.4,21.4c0.07,2.82,0.33,4.92,0.77,6.29c0.45,1.38,0.77,2.06,0.98,2.06c1.62,0,5.12-5.5,10.52-16.5
				c2.89-5.81,5.7-10.23,8.43-13.25c2.73-3.02,5.77-4.54,9.1-4.54c2.78,0,4.81,1.44,6.08,4.31c1.27,2.87,2.18,7.13,2.73,12.76
				c0.52,5.71,1.32,10.93,2.4,15.68s3.07,7.79,5.96,9.13c1.96,0.93,2.94,2.01,2.94,3.25c0,1.2-0.83,2.44-2.48,3.71
				c-1.65,1.27-3.16,1.91-4.54,1.91c-2.75,0-5.21-1.68-7.37-5.05c-2.17-3.37-3.8-10.66-4.9-21.87c-0.48-4.5-0.95-7.7-1.39-9.59
				c-0.45-1.89-1.15-2.84-2.11-2.84c-1.44,0-3.16,1.38-5.13,4.13c-1.98,2.75-5.17,8.34-9.57,16.76c-3.44,6.57-6.04,10.94-7.81,13.13
				c-1.77,2.18-3.48,3.27-5.13,3.27c-1.48,0-2.8-0.59-3.97-1.78c-1.17-1.19-1.91-2.61-2.22-4.28c-0.31-1.67-0.64-5.77-0.98-12.3
				C1299.24,1447.68,1298.3,1441.36,1296.92,1439.57z"/>
			<path d="M1380.62,1483.3c-5.16,0-9.12-1.48-11.89-4.44c-2.77-2.96-4.15-7.1-4.15-12.43c0-8.97,3.56-18.44,10.67-28.39
				c7.12-9.95,13.74-14.93,19.86-14.93c2.78,0,5.18,1.5,7.19,4.51c2.01,3.01,3.02,6.2,3.02,9.57c0,2.03-0.44,3.77-1.32,5.23
				c-0.88,1.46-1.76,2.19-2.66,2.19c-2,0-3.4-2.01-4.23-6.03c-0.93-4.33-2.27-6.5-4.02-6.5c-3.58,0-7.8,4.25-12.69,12.74
				c-4.88,8.49-7.32,15.66-7.32,21.51c0,5.85,3.32,8.77,9.95,8.77c5.05,0,11-2.37,17.84-7.12c2.41-1.68,4.18-2.53,5.31-2.53
				c1.17,0,1.75,0.67,1.75,2.01c0,2.61-3.08,5.9-9.23,9.88C1392.57,1481.32,1386.53,1483.3,1380.62,1483.3z"/>
			<path d="M1466.59,1426.47c0,0.93-0.72,2.97-2.17,6.14c-1.17,2.54-2.37,7.6-3.61,15.16c-1.24,7.56-1.86,13.7-1.86,18.41
				c0,2.06,0.21,4.83,0.62,8.3c0.17,1.65,0.26,3.03,0.26,4.13c0,0.58-0.51,1.19-1.52,1.81c-1.01,0.62-1.93,0.93-2.76,0.93
				c-2.13,0-3.5-0.48-4.1-1.44c-0.6-0.96-0.9-2.94-0.9-5.93l0.46-16.66c-5.16,4.3-8.84,7.48-11.04,9.54
				c-2.51,2.3-4.26,3.83-5.26,4.59c-4.74,3.82-8.18,7.07-10.31,9.75c-0.34,0.41-0.88,0.84-1.6,1.29c-0.72,0.45-1.22,0.67-1.5,0.67
				c-1.51,0-2.73-0.72-3.66-2.17c-0.93-1.44-1.39-2.54-1.39-3.3c0-0.86,1.75-2.8,5.26-5.83c0.96-0.83,1.89-1.55,2.79-2.17
				c5.09-3.47,10.14-7.6,15.16-12.38l-5.62,0.05c-1.86-0.14-4.07-0.9-6.63-2.29c-2.56-1.39-4.13-2.96-4.69-4.69
				c-0.57-1.74-0.85-3.38-0.85-4.92c0-4.95,2.66-9.44,7.99-13.46c5.33-4.02,11.76-6.76,19.29-8.2c0.86,0,2.34-0.21,4.43-0.62
				c2.1-0.38,3.28-0.57,3.56-0.57c0.34,0,1.19,0.17,2.53,0.52l1.7-0.31c1.07,0,2.17,0.35,3.3,1.06
				C1465.61,1424.57,1466.32,1425.44,1466.59,1426.47z M1456.23,1431.52c-0.38-0.69-0.81-1.03-1.29-1.03
				c-4.81,0-10.17,1.5-16.06,4.51c-5.9,3.01-8.84,6.68-8.84,11.01c0,1.24,0.76,2.3,2.29,3.2c1.53,0.89,3.72,1.34,6.58,1.34
				c5.16,0,9.11-0.5,11.86-1.5c0.83-0.55,1.5-1.68,2.01-3.4L1456.23,1431.52z"/>
			<path class="st21" d="M544.87,1540.79v-0.88c0-2.63,0.25-4.88,0.74-6.77c0.49-1.89,1.44-4.38,2.86-7.47
				c1.91-4.13,3.33-6.75,4.24-7.86c0.41-0.52,1.95-1.98,4.61-4.4c1.63-1.48,2.84-2.4,3.65-2.75c0.8-0.35,1.46-0.52,1.96-0.52
				c0.77,0,1.15,0.46,1.15,1.39c0,0.61-1.29,2.15-3.86,4.61c-3.49,3.27-6.3,7.11-8.45,11.5c-2.15,4.4-3.22,8.22-3.22,11.48
				c0,1.56,0.44,4.56,1.31,9.01c0.11,0.55,0.18,0.97,0.21,1.26c0.59,2.9,1.29,5.07,2.09,6.52c0.8,1.45,2.08,2.93,3.83,4.45
				c1.91,1.64,2.87,2.93,2.87,3.86c0,1.04-0.88,1.56-2.63,1.56c-1.07,0-2.33-0.81-3.77-2.44s-2.74-3.3-3.89-5.03
				c-1.15-1.73-2.06-4.57-2.72-8.53C545.21,1545.82,544.87,1542.82,544.87,1540.79z"/>
			<path class="st21" d="M581.75,1535.69c2.31,0.38,4.1,1.23,5.39,2.55c1.29,1.32,1.93,2.94,1.93,4.85c0,3.02-1.28,5.54-3.83,7.55
				s-5.92,3.02-10.08,3.02c-2.49,0-4.63-0.54-6.42-1.61c-1.8-1.07-2.69-2.26-2.69-3.57c0-1.07,0.62-1.61,1.85-1.61
				c0.18,0,0.46,0.15,0.83,0.46c1.97,1.7,4.3,2.55,7,2.55c2.38,0,4.42-0.63,6.14-1.88c1.72-1.25,2.58-2.88,2.58-4.88
				c0-1.32-0.49-2.43-1.46-3.31c-0.97-0.89-2.11-1.33-3.39-1.33c-0.98,0-2.71,0.38-5.18,1.15c-0.48,0.16-1,0.24-1.55,0.24
				c-1.07,0-1.61-0.72-1.61-2.17c0-0.5,0.25-0.9,0.76-1.21c0.51-0.3,1.6-0.65,3.28-1.05c5.1-1.16,7.64-3.23,7.64-6.19
				c0-0.89-0.32-1.63-0.95-2.21c-0.63-0.58-1.45-0.87-2.45-0.87c-1.86,0-3.84,0.82-5.95,2.47c-1.23,0.97-2.17,1.45-2.82,1.45
				c-1.09,0-1.64-0.51-1.64-1.53c0-1.34,1.26-2.71,3.79-4.12c2.53-1.4,4.96-2.1,7.28-2.1c2.32,0,4.15,0.62,5.48,1.85
				c1.33,1.23,2,2.53,2,3.89C587.67,1531.31,585.7,1533.85,581.75,1535.69z"/>
			<path class="st21" d="M613.12,1542.42c-2.5,3.36-4.98,5.88-7.43,7.56c-2.45,1.68-4.69,2.52-6.73,2.52
				c-1.38,0-2.57-0.58-3.57-1.74c-1-1.16-1.5-2.65-1.5-4.48c0-4.7,2.1-9.77,6.3-15.19c4.2-5.43,8.38-8.14,12.52-8.14
				c1.5,0,2.62,0.86,3.35,2.57c0.23,0.57,0.6,0.86,1.1,0.86c1.43,0,2.15,0.55,2.15,1.66c0,0.55-0.09,1.31-0.27,2.28
				c-0.97,5.27-1.45,8.99-1.45,11.16c0,4.33,0.82,6.92,2.47,7.78c0.79,0.43,1.18,0.96,1.18,1.58c0,0.55-0.38,1.11-1.15,1.68
				c-0.77,0.56-1.51,0.84-2.23,0.84c-1.38,0-2.51-0.95-3.41-2.84C613.57,1548.63,613.12,1545.93,613.12,1542.42z M611.49,1527.32
				c-2.36,0-5.1,2.21-8.23,6.64s-4.69,8.09-4.69,11.01c0,2.06,0.68,3.08,2.04,3.08c1.97,0,4.69-1.98,8.18-5.95
				c3.49-3.97,5.23-7.62,5.23-10.94C614.01,1528.6,613.17,1527.32,611.49,1527.32z"/>
			<path class="st21" d="M634.6,1553.71c-2.68,0-4.74-0.77-6.18-2.31c-1.44-1.54-2.16-3.69-2.16-6.46c0-4.67,1.85-9.59,5.55-14.76
				c3.7-5.18,7.14-7.76,10.32-7.76c1.45,0,2.7,0.78,3.74,2.35c1.05,1.56,1.57,3.22,1.57,4.97c0,1.06-0.23,1.96-0.68,2.72
				c-0.46,0.76-0.92,1.14-1.38,1.14c-1.04,0-1.77-1.05-2.2-3.14c-0.48-2.25-1.18-3.38-2.09-3.38c-1.86,0-4.06,2.21-6.6,6.62
				c-2.54,4.42-3.81,8.14-3.81,11.18c0,3.04,1.72,4.56,5.18,4.56c2.63,0,5.72-1.23,9.28-3.7c1.25-0.88,2.17-1.31,2.76-1.31
				c0.61,0,0.91,0.35,0.91,1.05c0,1.36-1.6,3.07-4.8,5.14C640.82,1552.68,637.68,1553.71,634.6,1553.71z"/>
			<path class="st21" d="M670.16,1530.33c-0.43-0.02-0.85,0.39-1.26,1.23c-3.7,7.4-6.5,12.43-8.39,15.07
				c-0.16,0.23-0.37,0.57-0.62,1.02c-2.23,3.99-3.87,5.98-4.91,5.98c-1.39,0-2.09-0.67-2.09-2.01c0-1.22,0.87-2.87,2.6-4.96
				c1.68-1.98,3.89-5.35,6.62-10.1s4.95-9.01,6.65-12.78c0.32-0.68,0.8-1.02,1.45-1.02c0.27,0,0.75,0.12,1.43,0.36
				c0.69,0.24,1.13,0.51,1.33,0.79c0.2,0.29,0.63,1.95,1.31,4.99c2.2,10.96,4.51,17.46,6.95,19.5c0.57,0.5,0.91,0.84,1.02,1.01
				c0.11,0.17,0.16,0.41,0.16,0.71c0,0.55-0.18,1.06-0.54,1.52s-0.71,0.75-1.05,0.87c-0.34,0.13-1.04,0.19-2.09,0.19
				c-0.38,0-1.25-0.93-2.63-2.78c-1.38-1.85-2.99-6.9-4.83-15.14C670.84,1532.56,670.47,1531.08,670.16,1530.33z"/>
			<path class="st21" d="M707.73,1542.72c-2.72,2.56-5.44,4.56-8.15,6.01c-2.72,1.45-4.8,2.17-6.25,2.17
				c-1.66,0-2.99-0.71-3.98-2.13c-0.99-1.42-1.49-3.17-1.49-5.24c0-3.02,0.58-6.59,1.73-10.71c1.15-4.12,2.03-6.46,2.64-7.01
				c0.61-0.55,1.41-0.83,2.41-0.83c0.54,0,0.96,0.32,1.26,0.95c0.3,0.63,0.46,1.28,0.46,1.94c0,0.45-0.21,1.03-0.62,1.74
				c-2.34,4.06-3.51,8.25-3.51,12.58c0,1,0.19,1.88,0.56,2.64c0.38,0.76,0.95,1.14,1.72,1.14c0.98,0,2.19-0.3,3.63-0.9
				c1.44-0.6,3.06-1.58,4.87-2.94c1.8-1.36,3.02-2.46,3.65-3.3c0.63-0.84,1.07-1.8,1.33-2.87c0.26-1.07,0.44-3.4,0.55-6.97
				c0.11-3.58,0.97-5.36,2.6-5.36c0.97,0,1.59,0.25,1.88,0.76c0.29,0.51,0.43,1.48,0.43,2.91c0,1.07-0.16,3.4-0.48,6.97
				c-0.07,0.8-0.12,1.55-0.13,2.23c-0.52,9.55-1.95,17.03-4.29,22.45c-2.34,5.42-5.75,8.13-10.22,8.13c-3.5,0-6.62-0.92-9.35-2.75
				c-2.73-1.83-4.09-3.38-4.09-4.65c0-0.59,0.14-1.17,0.42-1.74c0.28-0.57,0.63-0.86,1.06-0.86c0.21,0,0.45,0.17,0.7,0.51
				c2.34,3.59,5.94,5.39,10.81,5.39c3.09,0,5.41-1.89,6.95-5.67C706.35,1553.51,707.32,1548.65,707.73,1542.72z"/>
			<path class="st21" d="M742.94,1539.98c-0.23,4.02-0.62,7.96-1.15,11.83c-0.27,0.73-0.95,1.1-2.04,1.1c-1.57,0-2.36-0.8-2.36-2.41
				c0-0.66,0.19-1.9,0.56-3.7c0.27-1.57,0.41-2.64,0.43-3.2c0.02-0.56,0.06-1.18,0.13-1.85s0.06-1.2-0.03-1.6
				c-0.91,0.13-2.77,1.22-5.58,3.27c-2.81,2.06-5.21,4.09-7.21,6.11v-0.03c-0.13,0.07-0.52,0.74-1.18,2.01
				c-0.95,1.89-1.99,2.84-3.14,2.84c-0.54,0-1.13-0.23-1.78-0.7c-0.65-0.47-0.98-0.93-0.98-1.39c0-1.11,1.04-2.76,3.12-4.95
				c2.08-2.19,4.38-4.06,6.91-5.62c3.07-1.9,5.19-3.42,6.36-4.59c-0.52-0.73-1.53-1.54-3.03-2.41c-1.52-0.89-2.93-1.89-4.24-3
				c-0.18-0.14-0.39-0.3-0.64-0.48c-2.31-1.56-3.84-2.72-4.6-3.5c-0.76-0.78-1.14-1.61-1.14-2.51c0-0.59,0.22-1.13,0.67-1.62
				c0.45-0.49,0.88-0.74,1.31-0.74c0.27,0,0.75,0.14,1.45,0.43c0.7,0.29,1.2,0.59,1.5,0.91l1.31,1.23
				c4.63,4.54,8.29,7.43,10.99,8.66c0.14,0,0.32-0.17,0.54-0.51c0.18-0.61,0.27-1.58,0.27-2.92c0-1.25-0.13-2.65-0.4-4.21
				c-0.14-0.8-0.21-1.33-0.21-1.58c0-0.84,0.33-1.52,0.98-2.04c0.65-0.52,1.36-0.78,2.13-0.78c0.88,0,1.47,0.18,1.8,0.54
				c0.32,0.36,0.48,0.97,0.48,1.82l-0.35,8.53v0.54c0,0.25,0.01,0.46,0.03,0.62c0.63,0,1.28-0.25,1.96-0.74s1.69-1.47,3.03-2.94
				c5.88-6.1,9.29-9.14,10.22-9.14c0.52,0,0.99,0.21,1.42,0.64c0.43,0.43,0.64,0.93,0.64,1.5c0,0.29-0.98,1.5-2.94,3.63
				c-1.96,2.14-3.97,4.1-6.05,5.89c-2.66,2.29-4,3.48-4,3.57c0,0.13,1.11,1.06,3.33,2.79c2.4,1.88,4.05,3.21,4.96,4
				c0.13,0.09,0.3,0.21,0.54,0.35c2.65,1.63,4.3,2.84,4.96,3.65c0.66,0.8,0.99,1.48,0.99,2.04c0,0.52-0.22,1.05-0.67,1.6
				c-0.45,0.55-0.88,0.82-1.31,0.82c-1.59,0-5.28-2.67-11.08-8.02c-2.57-2.4-4.13-3.66-4.67-3.78c-0.23-0.04-0.41-0.08-0.54-0.13
				c-0.18-0.05-0.5-0.07-0.97-0.04S742.98,1539.86,742.94,1539.98z"/>
			<path class="st21" d="M786.95,1540.52c-2.29,3.84-4.63,6.82-7.03,8.93c-2.4,2.11-4.62,3.16-6.68,3.16
				c-1.18,0-2.38-0.69-3.61-2.06c-1.23-1.38-1.84-3.5-1.84-6.36c0-2.34,0.56-5.79,1.69-10.35c0.95-3.81,1.42-6.48,1.42-8.02
				c0.52-1.07,1.33-1.61,2.44-1.61c0.75,0,1.35,0.26,1.8,0.79c0.45,0.53,0.67,1.08,0.67,1.65c0,1.25-0.44,3.03-1.31,5.34
				c-1.66,4.49-2.49,8.34-2.49,11.56c0,2.93,0.68,4.4,2.04,4.4c1.73,0,3.94-1.47,6.62-4.42c2.68-2.95,4.98-7.06,6.89-12.34
				c0.75-2.11,1.36-3.48,1.84-4.12c0.47-0.63,1.11-0.95,1.92-0.95c1.21,0,1.82,0.8,1.82,2.41c0,0.2-0.17,0.85-0.51,1.96
				c-1.07,3.92-1.61,7.62-1.61,11.1c0,4.18,0.69,6.89,2.07,8.13c0.71,0.66,1.07,1.2,1.07,1.61c0,0.5-0.36,0.96-1.09,1.37
				c-0.72,0.41-1.38,0.62-1.97,0.62c-1.25,0-2.26-0.93-3.03-2.79c-0.77-1.86-1.15-4.6-1.15-8.23v-0.88
				C786.92,1541.12,786.93,1540.82,786.95,1540.52z"/>
			<path class="st21" d="M816.56,1530.33c-0.43-0.02-0.85,0.39-1.26,1.23c-3.7,7.4-6.5,12.43-8.39,15.07
				c-0.16,0.23-0.37,0.57-0.62,1.02c-2.23,3.99-3.87,5.98-4.91,5.98c-1.39,0-2.09-0.67-2.09-2.01c0-1.22,0.87-2.87,2.6-4.96
				c1.68-1.98,3.89-5.35,6.62-10.1s4.95-9.01,6.65-12.78c0.32-0.68,0.8-1.02,1.45-1.02c0.27,0,0.75,0.12,1.43,0.36
				c0.69,0.24,1.13,0.51,1.33,0.79c0.2,0.29,0.63,1.95,1.31,4.99c2.2,10.96,4.51,17.46,6.95,19.5c0.57,0.5,0.91,0.84,1.02,1.01
				c0.11,0.17,0.16,0.41,0.16,0.71c0,0.55-0.18,1.06-0.54,1.52s-0.71,0.75-1.05,0.87c-0.34,0.13-1.04,0.19-2.09,0.19
				c-0.38,0-1.25-0.93-2.63-2.78c-1.38-1.85-2.99-6.9-4.83-15.14C817.24,1532.56,816.86,1531.08,816.56,1530.33z"/>
			<path class="st21" d="M834.82,1557.28c3.33-0.82,5.46-1.99,6.41-3.5c0.95-1.51,1.42-2.59,1.42-3.23c0-1.82-0.25-3.11-0.75-3.86
				c-0.23-0.34-0.35-0.67-0.35-0.99c0-0.27,0.12-0.65,0.36-1.15c0.24-0.5,0.49-0.75,0.74-0.75c0.38,0,0.96,0.14,1.77,0.42
				c0.8,0.28,1.28,0.52,1.42,0.72c0.14,0.21,0.38,0.87,0.71,2c0.33,1.13,0.5,2.09,0.5,2.9c0,0.3-0.33,1.25-1.01,2.83
				c-0.67,1.58-1.59,2.82-2.75,3.7c-1.16,0.89-2.25,1.43-3.27,1.62c-0.41,0.07-0.79,0.17-1.15,0.29c-1.41,0.63-2.57,0.94-3.46,0.94
				c-0.52,0-0.78-0.42-0.78-1.26C834.63,1557.63,834.69,1557.4,834.82,1557.28z"/>
			<path class="st21" d="M895.45,1520.97c-0.64-2.79-1.44-4.74-2.39-5.85c-0.95-1.11-2.2-1.97-3.75-2.57
				c-1.55-0.61-2.96-0.91-4.21-0.91c-0.48,0-1.19,0.18-2.13,0.55c-0.94,0.37-1.66,0.7-2.16,1.01c-0.7,0.41-1.34,0.62-1.93,0.62
				c-0.68,0-1.02-0.36-1.02-1.07c0-0.77,0.58-1.83,1.74-3.19c1.16-1.36,3.21-2.04,6.14-2.04h1.15c2.91,0,5.49,0.76,7.72,2.29
				c2.23,1.53,3.82,3.71,4.76,6.56c0.94,2.84,1.41,6.66,1.41,11.45c0,3.25-1.03,7.2-3.08,11.83s-4.67,8.13-7.84,10.51
				s-6.55,3.57-10.12,3.57c-1.29,0-2.49-0.74-3.62-2.23c-1.13-1.48-1.69-3.33-1.69-5.52c0-4.06,0.89-7.64,2.67-10.74
				c1.78-3.1,3.77-5.62,5.98-7.55c2.21-1.93,5.26-3.49,9.16-4.67c1.29-0.38,2.16-0.67,2.63-0.89
				C895.33,1521.91,895.52,1521.52,895.45,1520.97z M896.18,1526.44c-4.13,0.84-7.29,2.17-9.49,4c-4.97,4.65-7.46,9.86-7.46,15.63
				c0,0.77,0.13,1.49,0.4,2.16s0.57,1.01,0.91,1.01c1.32,0,2.53-0.23,3.62-0.7c1.09-0.46,2.42-1.44,4-2.91
				c1.57-1.48,3-3.3,4.28-5.48c1.28-2.18,2.21-4.28,2.79-6.3c0.58-2.02,0.89-3.57,0.93-4.65
				C896.18,1528.11,896.19,1527.19,896.18,1526.44z"/>
			<path class="st21" d="M928.57,1543.09c0,1.82-1.61,4.02-4.84,6.6c-3.23,2.57-6.56,3.86-9.99,3.86c-2.88,0-5.1-0.85-6.66-2.55
				c-1.56-1.7-2.35-4.07-2.35-7.11c0-5.11,1.73-9.98,5.18-14.59c3.45-4.61,7.22-6.92,11.32-6.92c1.34,0,2.44,0.44,3.29,1.31
				c0.85,0.88,1.27,1.93,1.27,3.16c0,2.75-1.35,5.39-4.05,7.91c-2.7,2.52-6.31,5-10.83,7.43c-0.93,0.48-1.39,1.11-1.39,1.88
				c0,1.48,0.43,2.67,1.29,3.57c0.86,0.89,2.13,1.34,3.81,1.34c3.84,0,7.77-2.13,11.77-6.38c0.59-0.59,1.04-0.88,1.34-0.88
				C928.28,1541.72,928.57,1542.18,928.57,1543.09z M909.93,1538.91c7.58-4.51,11.37-8.13,11.37-10.86c0-1.07-0.48-1.61-1.45-1.61
				c-1.65,0-3.5,1.21-5.56,3.62C912.23,1532.47,910.77,1535.42,909.93,1538.91z"/>
			<path class="st21" d="M939.35,1549.07c-0.88,3.22-1.7,7.73-2.47,13.54l-0.75,5.07c-0.13,0.71-0.46,1.43-0.99,2.13
				c-0.54,0.71-1.03,1.06-1.47,1.06c-0.55,0-1.18-0.28-1.89-0.84c-0.71-0.56-1.06-1.01-1.06-1.35c0-0.98,0.22-2.34,0.67-4.08
				c3.27-13.21,4.91-24.81,4.91-34.81l-0.03-2.25c-0.04-1.93,0.3-3.33,1.02-4.21c0.71-0.88,1.54-1.31,2.47-1.31
				c0.43,0,0.84,0.33,1.23,1.01s0.59,1.62,0.59,2.86c0,1.73-0.18,3.83-0.54,6.3c-0.46,3.11-0.71,4.9-0.72,5.36
				c2.66-4.65,5.49-8.28,8.47-10.89c2.99-2.61,5.76-3.92,8.31-3.92c1.81,0,3.33,0.67,4.57,2.02c1.24,1.35,1.86,3.03,1.86,5.03
				c0,5.83-2.24,11.12-6.71,15.88c-4.47,4.76-8.82,7.13-13.06,7.13c-1.05,0-1.89-0.27-2.51-0.8
				C940.65,1551.46,940.01,1550.48,939.35,1549.07z M956,1527.48c-2.52,0-5.64,2.36-9.36,7.08s-5.58,8.39-5.58,11.02
				c0,0.64,0.37,1.27,1.1,1.88c0.73,0.61,1.66,0.91,2.79,0.91c2.56,0,5.5-1.89,8.82-5.67s4.99-7.5,4.99-11.14
				c0-1.31-0.26-2.31-0.79-3.02C957.45,1527.84,956.79,1527.48,956,1527.48z"/>
			<path class="st21" d="M992.26,1539.98c-0.23,4.02-0.62,7.96-1.15,11.83c-0.27,0.73-0.95,1.1-2.04,1.1c-1.57,0-2.36-0.8-2.36-2.41
				c0-0.66,0.19-1.9,0.56-3.7c0.27-1.57,0.41-2.64,0.43-3.2c0.02-0.56,0.06-1.18,0.13-1.85s0.06-1.2-0.03-1.6
				c-0.91,0.13-2.77,1.22-5.58,3.27c-2.81,2.06-5.21,4.09-7.21,6.11v-0.03c-0.13,0.07-0.52,0.74-1.18,2.01
				c-0.95,1.89-1.99,2.84-3.14,2.84c-0.54,0-1.13-0.23-1.78-0.7c-0.65-0.47-0.98-0.93-0.98-1.39c0-1.11,1.04-2.76,3.12-4.95
				c2.08-2.19,4.38-4.06,6.91-5.62c3.07-1.9,5.19-3.42,6.36-4.59c-0.52-0.73-1.53-1.54-3.03-2.41c-1.52-0.89-2.93-1.89-4.24-3
				c-0.18-0.14-0.39-0.3-0.64-0.48c-2.31-1.56-3.84-2.72-4.6-3.5c-0.76-0.78-1.14-1.61-1.14-2.51c0-0.59,0.22-1.13,0.67-1.62
				c0.45-0.49,0.88-0.74,1.31-0.74c0.27,0,0.75,0.14,1.45,0.43c0.7,0.29,1.2,0.59,1.5,0.91l1.31,1.23
				c4.63,4.54,8.29,7.43,10.99,8.66c0.14,0,0.32-0.17,0.54-0.51c0.18-0.61,0.27-1.58,0.27-2.92c0-1.25-0.13-2.65-0.4-4.21
				c-0.14-0.8-0.21-1.33-0.21-1.58c0-0.84,0.33-1.52,0.98-2.04c0.65-0.52,1.36-0.78,2.13-0.78c0.88,0,1.47,0.18,1.8,0.54
				c0.32,0.36,0.48,0.97,0.48,1.82l-0.35,8.53v0.54c0,0.25,0.01,0.46,0.03,0.62c0.63,0,1.28-0.25,1.96-0.74s1.69-1.47,3.03-2.94
				c5.88-6.1,9.29-9.14,10.22-9.14c0.52,0,0.99,0.21,1.42,0.64c0.43,0.43,0.64,0.93,0.64,1.5c0,0.29-0.98,1.5-2.94,3.63
				c-1.96,2.14-3.97,4.1-6.05,5.89c-2.66,2.29-4,3.48-4,3.57c0,0.13,1.11,1.06,3.33,2.79c2.4,1.88,4.05,3.21,4.96,4
				c0.13,0.09,0.3,0.21,0.54,0.35c2.65,1.63,4.3,2.84,4.96,3.65c0.66,0.8,0.99,1.48,0.99,2.04c0,0.52-0.22,1.05-0.67,1.6
				c-0.45,0.55-0.88,0.82-1.31,0.82c-1.59,0-5.28-2.67-11.08-8.02c-2.57-2.4-4.13-3.66-4.67-3.78c-0.23-0.04-0.41-0.08-0.54-0.13
				c-0.18-0.05-0.5-0.07-0.97-0.04S992.3,1539.86,992.26,1539.98z"/>
			<path class="st21" d="M1036.27,1540.52c-2.29,3.84-4.63,6.82-7.03,8.93c-2.4,2.11-4.62,3.16-6.68,3.16
				c-1.18,0-2.38-0.69-3.61-2.06c-1.23-1.38-1.84-3.5-1.84-6.36c0-2.34,0.56-5.79,1.69-10.35c0.95-3.81,1.42-6.48,1.42-8.02
				c0.52-1.07,1.33-1.61,2.44-1.61c0.75,0,1.35,0.26,1.8,0.79c0.45,0.53,0.67,1.08,0.67,1.65c0,1.25-0.44,3.03-1.31,5.34
				c-1.66,4.49-2.49,8.34-2.49,11.56c0,2.93,0.68,4.4,2.04,4.4c1.73,0,3.94-1.47,6.62-4.42c2.68-2.95,4.98-7.06,6.89-12.34
				c0.75-2.11,1.36-3.48,1.84-4.12c0.47-0.63,1.11-0.95,1.92-0.95c1.21,0,1.82,0.8,1.82,2.41c0,0.2-0.17,0.85-0.51,1.96
				c-1.07,3.92-1.61,7.62-1.61,11.1c0,4.18,0.69,6.89,2.07,8.13c0.71,0.66,1.07,1.2,1.07,1.61c0,0.5-0.36,0.96-1.09,1.37
				c-0.72,0.41-1.38,0.62-1.97,0.62c-1.25,0-2.26-0.93-3.03-2.79c-0.77-1.86-1.15-4.6-1.15-8.23v-0.88
				C1036.24,1541.12,1036.25,1540.82,1036.27,1540.52z"/>
			<path class="st21" d="M1078.24,1538.08c4.24-0.73,8.04-3.47,11.4-8.21c1.57-2.2,2.95-3.76,4.14-4.68
				c1.19-0.92,2.45-1.38,3.79-1.38c0.54,0,1.07,0.24,1.61,0.72c0.54,0.48,0.8,1.06,0.8,1.72c0,0.88-0.83,1.56-2.49,2.06
				c-0.88,0.27-1.7,0.72-2.47,1.37s-2.23,2.18-4.37,4.61c-1.68,1.9-3.19,3.23-4.53,4c-0.13,0.07-0.19,0.13-0.19,0.19
				c0,0.07,0.08,0.14,0.24,0.21c1.3,0.7,2.68,2.05,4.13,4.05c2.11,2.91,3.69,4.75,4.75,5.51c1.05,0.76,2.26,1.14,3.62,1.14
				l0.88-0.03c0.63-0.04,0.94,0.24,0.94,0.83c0,0.68-0.38,1.39-1.15,2.12c-0.77,0.73-2.04,1.1-3.81,1.1c-1.36,0-2.68-0.59-3.96-1.76
				s-2.74-3.07-4.38-5.7c-0.95-1.56-1.83-2.74-2.66-3.54c-0.82-0.8-1.73-1.21-2.74-1.21c-0.21,0-0.88,0.18-1.98,0.54
				c-1.11,0.36-1.73,0.7-1.86,1.03c-0.13,0.33-0.23,1.52-0.29,3.57c-0.06,2.05-0.09,3.7-0.09,4.95c0,0.66-0.31,1.25-0.94,1.77
				s-1.3,0.78-2.04,0.78c-0.75,0-1.34-0.22-1.77-0.66c-0.43-0.44-0.64-0.89-0.64-1.35c0-0.64,0.24-2.16,0.72-4.56
				c0.86-4.36,1.72-11.56,2.57-21.59c0.07-0.97,0.44-1.84,1.1-2.61s1.41-1.17,2.25-1.17c0.46,0,0.85,0.25,1.17,0.75
				c0.31,0.5,0.47,1.14,0.47,1.93c0,0.63-0.11,1.34-0.32,2.15C1079.12,1530.43,1078.49,1534.22,1078.24,1538.08z"/>
			<path class="st21" d="M1112.13,1553.52c-2.45,0-4.47-0.93-6.06-2.79c-1.59-1.86-2.39-4.16-2.39-6.89c0-4.61,1.55-9.16,4.65-13.64
				s6.82-6.72,11.14-6.72c2.86,0,5.18,1.1,6.96,3.3c1.78,2.2,2.67,4.82,2.67,7.86c0,4.65-1.84,8.96-5.51,12.93
				C1119.92,1551.54,1116.1,1553.52,1112.13,1553.52z M1108.4,1543.15c0,1.81,0.38,3.28,1.14,4.42c0.76,1.14,1.76,1.72,3.02,1.72
				c2.66,0,5.34-1.46,8.02-4.38c2.68-2.92,4.02-6.17,4.02-9.75c0-2.2-0.51-3.98-1.54-5.35c-1.03-1.37-2.41-2.05-4.14-2.05
				c-2.88,0-5.35,1.77-7.42,5.3C1109.44,1536.58,1108.4,1539.95,1108.4,1543.15z"/>
			<path class="st21" d="M1155.09,1534.67c0.2-0.38,0.51-2.62,0.94-6.73c0.32-3.29,1.37-4.93,3.14-4.93c1.45,0,2.17,0.72,2.17,2.17
				c0,0.34-0.13,1.03-0.38,2.06c-1.38,5.7-2.06,10.49-2.06,14.35c0,4.18,0.69,6.89,2.06,8.13c0.71,0.66,1.07,1.2,1.07,1.61
				c0,0.5-0.36,0.96-1.09,1.37c-0.72,0.41-1.38,0.62-1.97,0.62c-2.79,0-4.18-4.31-4.18-12.93c0-0.57-0.21-0.86-0.64-0.86
				c-1.68,0-3.74,0.1-6.17,0.29c-2.43,0.2-4.17,0.45-5.22,0.75c-1.05,0.3-1.69,0.59-1.93,0.84c-0.24,0.26-0.46,0.95-0.64,2.06
				c-0.19,1.12-0.28,2.28-0.28,3.47v3.3c0,1.91-0.88,2.87-2.63,2.87c-1.47,0-2.2-0.96-2.2-2.87c0-1.25,0.16-2.84,0.48-4.77
				c0.59-3.54,1.18-9.64,1.77-18.29c0.07-1.13,0.17-1.84,0.29-2.15c0.13-0.3,0.45-0.64,0.98-1.01c0.53-0.37,1.1-0.55,1.73-0.55
				c1.29,0,1.93,0.53,1.93,1.58c0,0.16-0.21,1.5-0.62,4.02c-0.43,2.52-0.64,4.48-0.64,5.87c0,0.98,0.34,1.47,1.02,1.47
				c1.36,0,3.84-0.23,7.46-0.68C1153.1,1535.3,1154.97,1534.94,1155.09,1534.67z"/>
			<path class="st21" d="M1188.08,1548.62c-0.75,2.63-1.48,7.27-2.17,13.92c-0.34,3.06-0.59,4.89-0.76,5.51s-0.51,1.24-1.01,1.88
				c-0.5,0.63-0.97,0.95-1.39,0.95c-0.55,0-1.18-0.28-1.89-0.84s-1.06-1.01-1.06-1.35c0-0.98,0.22-2.34,0.67-4.08
				c1.3-5.13,2.37-10.24,3.19-15.31c-3.24,2.4-6.23,3.59-8.98,3.59c-2.45,0-4.35-0.71-5.71-2.15c-1.36-1.43-2.04-3.43-2.04-6.01
				c0-4.34,1.64-8.82,4.92-13.42c3.28-4.6,6.37-6.91,9.27-6.91c1.05,0,2.02,0.44,2.9,1.33c0.88,0.89,1.52,2.09,1.93,3.61
				c0.55-6.56,0.83-11.37,0.83-14.43c0-1.45-0.21-3.13-0.64-5.04c-0.09-0.34-0.13-0.54-0.13-0.62c0-0.79,0.21-1.5,0.64-2.13
				c0.43-0.63,0.95-0.95,1.56-0.95c0.82,0,1.59,0.45,2.29,1.35c0.71,0.9,1.06,3.4,1.06,7.5c0,2.68-0.08,5-0.24,6.95
				s-0.61,6.19-1.34,12.74c-0.07,0.64-0.13,1.31-0.19,2.01c4.06-9.14,9.05-13.7,14.96-13.7c1.79,0,3.29,0.67,4.49,2
				c1.21,1.33,1.81,3.02,1.81,5.06c0,6.83-2.08,12.25-6.25,16.25c-4.17,4-8.14,6.01-11.93,6.01
				C1190.67,1552.32,1189.08,1551.08,1188.08,1548.62z M1184.35,1544.08c0.63-4.49,0.98-7.73,1.07-9.73
				c-0.5,0.3-0.99,0.46-1.47,0.46c-0.7,0-1.35-1.09-1.96-3.27c-0.27-0.93-0.52-1.53-0.76-1.81c-0.24-0.28-0.58-0.42-1.01-0.42
				c-0.93,0-2.15,0.98-3.67,2.94c-1.52,1.96-2.72,4.14-3.59,6.54c-0.88,2.4-1.31,4.37-1.31,5.89c0,2.43,1.39,3.65,4.18,3.65
				c1.16,0,2.61-0.42,4.34-1.26c1.73-0.84,3.02-1.73,3.86-2.65L1184.35,1544.08z M1189.93,1543.33c0,1.2,0.36,2.26,1.09,3.18
				c0.72,0.92,1.73,1.38,3.02,1.38c2.56,0,5.23-1.76,8.03-5.27c2.8-3.51,4.2-7.11,4.2-10.79c0-2.72-0.88-4.08-2.63-4.08
				c-1.41,0-2.72,0.43-3.93,1.3c-1.21,0.87-2.63,2.46-4.26,4.79C1193.8,1536.16,1191.97,1539.33,1189.93,1543.33z"/>
			<path class="st21" d="M1240.93,1543.09c0,1.82-1.61,4.02-4.84,6.6c-3.23,2.57-6.56,3.86-9.99,3.86c-2.88,0-5.1-0.85-6.66-2.55
				c-1.56-1.7-2.35-4.07-2.35-7.11c0-5.11,1.73-9.98,5.18-14.59c3.45-4.61,7.22-6.92,11.32-6.92c1.34,0,2.44,0.44,3.29,1.31
				c0.85,0.88,1.27,1.93,1.27,3.16c0,2.75-1.35,5.39-4.05,7.91c-2.7,2.52-6.31,5-10.83,7.43c-0.93,0.48-1.39,1.11-1.39,1.88
				c0,1.48,0.43,2.67,1.29,3.57c0.86,0.89,2.13,1.34,3.81,1.34c3.84,0,7.77-2.13,11.77-6.38c0.59-0.59,1.04-0.88,1.34-0.88
				C1240.65,1541.72,1240.93,1542.18,1240.93,1543.09z M1222.3,1538.91c7.58-4.51,11.37-8.13,11.37-10.86
				c0-1.07-0.48-1.61-1.45-1.61c-1.65,0-3.5,1.21-5.56,3.62C1224.59,1532.47,1223.14,1535.42,1222.3,1538.91z"/>
			<path class="st21" d="M1266.79,1530.97c-1.66,0.04-5.22,4.96-10.67,14.78c-1.84,3.31-2.91,5.11-3.22,5.4
				c-0.3,0.29-0.86,0.56-1.68,0.79s-1.49,0.35-2.02,0.35c-1.2,0-1.8-2.33-1.8-7c0-2.63,0.56-7.38,1.69-14.27
				c0.46-2.79,0.7-4.78,0.7-5.98c0-1.18,0.53-1.77,1.58-1.77c1.98,0,2.98,1.43,2.98,4.29c0,1.34-0.33,3.97-0.99,7.88
				c-0.77,4.47-1.16,7.19-1.18,8.15c1.11-1.07,2.74-3.42,4.88-7.05c3.04-4.97,5.28-8.12,6.72-9.45c1.44-1.33,2.93-2,4.46-2
				c1.16,0,2.09,0.78,2.78,2.33c0.69,1.56,1.1,5.27,1.25,11.13c0.04,1.47,0.17,2.56,0.4,3.27c0.23,0.72,0.4,1.07,0.51,1.07
				c0.84,0,2.66-2.86,5.47-8.58c1.5-3.02,2.96-5.32,4.38-6.89c1.42-1.57,3-2.36,4.73-2.36c1.45,0,2.5,0.75,3.17,2.24
				c0.66,1.49,1.13,3.71,1.42,6.64c0.27,2.97,0.68,5.69,1.25,8.15c0.56,2.47,1.6,4.05,3.1,4.75c1.02,0.48,1.53,1.05,1.53,1.69
				c0,0.63-0.43,1.27-1.29,1.93c-0.86,0.66-1.65,0.99-2.36,0.99c-1.43,0-2.71-0.88-3.83-2.63c-1.13-1.75-1.98-5.54-2.55-11.37
				c-0.25-2.34-0.49-4-0.72-4.99c-0.23-0.98-0.6-1.48-1.1-1.48c-0.75,0-1.64,0.72-2.67,2.15c-1.03,1.43-2.69,4.34-4.97,8.72
				c-1.79,3.42-3.14,5.69-4.06,6.83c-0.92,1.14-1.81,1.7-2.67,1.7c-0.77,0-1.46-0.31-2.06-0.93c-0.61-0.62-0.99-1.36-1.15-2.23
				c-0.16-0.87-0.33-3-0.51-6.4C1267.99,1535.19,1267.5,1531.9,1266.79,1530.97z"/>
			<path class="st21" d="M1308.43,1538.08c4.24-0.73,8.04-3.47,11.4-8.21c1.57-2.2,2.95-3.76,4.14-4.68
				c1.19-0.92,2.45-1.38,3.79-1.38c0.54,0,1.07,0.24,1.61,0.72c0.54,0.48,0.8,1.06,0.8,1.72c0,0.88-0.83,1.56-2.49,2.06
				c-0.88,0.27-1.7,0.72-2.47,1.37s-2.23,2.18-4.37,4.61c-1.68,1.9-3.19,3.23-4.53,4c-0.13,0.07-0.19,0.13-0.19,0.19
				c0,0.07,0.08,0.14,0.24,0.21c1.3,0.7,2.68,2.05,4.13,4.05c2.11,2.91,3.69,4.75,4.75,5.51c1.05,0.76,2.26,1.14,3.62,1.14
				l0.88-0.03c0.63-0.04,0.94,0.24,0.94,0.83c0,0.68-0.38,1.39-1.15,2.12c-0.77,0.73-2.04,1.1-3.81,1.1c-1.36,0-2.68-0.59-3.96-1.76
				s-2.74-3.07-4.38-5.7c-0.95-1.56-1.83-2.74-2.66-3.54c-0.82-0.8-1.73-1.21-2.74-1.21c-0.21,0-0.88,0.18-1.98,0.54
				c-1.11,0.36-1.73,0.7-1.86,1.03c-0.13,0.33-0.23,1.52-0.29,3.57c-0.06,2.05-0.09,3.7-0.09,4.95c0,0.66-0.31,1.25-0.94,1.77
				s-1.3,0.78-2.04,0.78c-0.75,0-1.34-0.22-1.77-0.66c-0.43-0.44-0.64-0.89-0.64-1.35c0-0.64,0.24-2.16,0.72-4.56
				c0.86-4.36,1.72-11.56,2.57-21.59c0.07-0.97,0.44-1.84,1.1-2.61s1.41-1.17,2.25-1.17c0.46,0,0.85,0.25,1.17,0.75
				c0.31,0.5,0.47,1.14,0.47,1.93c0,0.63-0.11,1.34-0.32,2.15C1309.32,1530.43,1308.68,1534.22,1308.43,1538.08z"/>
			<path class="st21" d="M1354.32,1542.72c-2.72,2.56-5.44,4.56-8.15,6.01c-2.72,1.45-4.8,2.17-6.25,2.17
				c-1.66,0-2.99-0.71-3.98-2.13c-0.99-1.42-1.49-3.17-1.49-5.24c0-3.02,0.58-6.59,1.73-10.71c1.15-4.12,2.03-6.46,2.64-7.01
				c0.61-0.55,1.41-0.83,2.41-0.83c0.54,0,0.96,0.32,1.26,0.95c0.3,0.63,0.46,1.28,0.46,1.94c0,0.45-0.21,1.03-0.62,1.74
				c-2.34,4.06-3.51,8.25-3.51,12.58c0,1,0.19,1.88,0.56,2.64c0.38,0.76,0.95,1.14,1.72,1.14c0.98,0,2.19-0.3,3.63-0.9
				c1.44-0.6,3.06-1.58,4.87-2.94c1.8-1.36,3.02-2.46,3.65-3.3c0.63-0.84,1.07-1.8,1.33-2.87c0.26-1.07,0.44-3.4,0.55-6.97
				c0.11-3.58,0.97-5.36,2.6-5.36c0.97,0,1.59,0.25,1.88,0.76c0.29,0.51,0.43,1.48,0.43,2.91c0,1.07-0.16,3.4-0.48,6.97
				c-0.07,0.8-0.12,1.55-0.13,2.23c-0.52,9.55-1.95,17.03-4.29,22.45c-2.34,5.42-5.75,8.13-10.22,8.13c-3.5,0-6.62-0.92-9.35-2.75
				c-2.73-1.83-4.09-3.38-4.09-4.65c0-0.59,0.14-1.17,0.42-1.74c0.28-0.57,0.63-0.86,1.06-0.86c0.21,0,0.45,0.17,0.7,0.51
				c2.34,3.59,5.94,5.39,10.81,5.39c3.09,0,5.41-1.89,6.95-5.67C1352.93,1553.51,1353.9,1548.65,1354.32,1542.72z"/>
			<path class="st21" d="M1369.15,1565.81c-0.59,0-1.14-0.19-1.65-0.58c-0.51-0.38-0.76-0.78-0.76-1.19c0-0.36,0.15-0.8,0.44-1.34
				c0.29-0.54,1.3-1.89,3.02-4.05c1.22-1.47,2.56-4.1,4.04-7.91c1.47-3.81,2.21-6.16,2.21-7.05c0-5.72-0.8-10.82-2.41-15.29
				c-1.61-4.47-3.03-7.7-4.26-9.69c-1.23-1.99-3.03-4.06-5.39-6.21c-0.21-0.21-0.32-0.58-0.32-1.1c0-0.27,0.26-0.63,0.78-1.07
				c0.52-0.45,1.05-0.67,1.58-0.67c0.79,0,1.64,0.51,2.56,1.52c0.92,1.01,2.32,2.95,4.2,5.82c1.88,2.87,3.05,5.1,3.51,6.69
				c0.46,1.52,0.95,3,1.45,4.45c1.45,4.22,2.17,8.72,2.17,13.52c0,6.51-2.21,12.6-6.62,18.29c-0.75,1-1.29,1.81-1.61,2.41
				c-0.55,1.07-1.05,1.92-1.47,2.53S1369.68,1565.81,1369.15,1565.81z"/>
		</g>
	</g>
	<g>
		<path class="st18" d="M1348.85,396.69c-0.49,0.63-1.57,0.95-3.23,0.95c-0.61,0-1.61-0.08-3.02-0.25
			c-1.59-0.19-2.74-0.28-3.44-0.28h-2.31c-0.68,0-1.29,0.01-1.82,0.04h-1.68c-0.56,0-1.16,0.01-1.79,0.04
			c-0.51,1.01-0.77,2.59-0.77,4.77c0,2.67-0.06,4.34-0.17,5.01c-0.12,0.65-0.14,1.58-0.07,2.79c0.07,1.2-0.57,1.81-1.93,1.81
			c-1.01,0-1.67-0.19-1.98-0.58s-0.47-1.08-0.47-2.09c0-0.54,0.2-2.37,0.6-5.51c0.19-1.52,0.37-3.59,0.56-6.21
			c-1.5-0.14-3.75-0.21-6.77-0.21c-0.51,0-1.2,0.12-2.07,0.35c-0.91,0.21-1.51,0.32-1.79,0.32c-0.63,0-1.2-0.24-1.7-0.72
			c-0.5-0.48-0.75-1.03-0.75-1.67c0-0.47,0.17-0.96,0.51-1.49s0.72-0.79,1.14-0.79c0.82,0,1.67,0.08,2.56,0.25
			c0.91,0.16,1.59,0.25,2.03,0.25l7.05-0.35c0.28-0.89,0.42-1.8,0.42-2.74c0-1.26-0.09-3.41-0.28-6.45
			c-0.09-1.26-0.14-2.35-0.14-3.26c0-0.79,0.24-1.59,0.72-2.38c0.48-0.79,1.08-1.19,1.81-1.19c0.37,0,0.79,0.39,1.25,1.16
			s0.68,1.37,0.68,1.79c0,1.22-0.11,2.84-0.32,4.87c-0.21,2.03-0.32,3.42-0.32,4.17c0,1.19,0.07,2.38,0.21,3.58
			c0.47,0.16,1.83,0.25,4.1,0.25l8.03-0.14c2.17,0,3.58,0.23,4.21,0.7C1348.54,393.93,1348.85,395.01,1348.85,396.69z"/>
		<path class="st18" d="M1364.35,415.31c-3.74,0-6.63-1.27-8.66-3.82c-2.03-2.55-3.05-5.73-3.05-9.54c0-4.65,1.43-9.78,4.28-15.4
			s7.01-10.22,12.47-13.82c5.46-3.6,10.27-5.4,14.43-5.4c3.04,0,6.31,1.01,9.82,3.02c3.51,2.01,5.96,4.27,7.36,6.77
			c1.4,2.5,2.1,5.82,2.1,9.96c0,6.2-4.04,12.45-12.12,18.76C1382.91,412.16,1374.03,415.31,1364.35,415.31z M1389.04,374.14
			c-0.54,0.68-1.38,1.02-2.53,1.02c-0.16,0-0.61-0.26-1.33-0.77c-0.75-0.54-1.43-0.81-2.03-0.81c-2.88,0-5.16,0.45-6.84,1.35
			c-1.68,0.9-3.99,2.76-6.93,5.59c-2.93,2.83-5.32,5.93-7.17,9.31c-1.85,3.38-2.77,6.81-2.77,10.29c0,4.14,0.97,6.73,2.91,7.79
			c1.94,1.05,4.06,1.58,6.35,1.58c2.9,0,6.52-1.16,10.87-3.47s8.37-5.29,12.06-8.92c3.69-3.64,5.54-6.6,5.54-8.89
			c0-1.31-0.21-2.83-0.63-4.58c-0.42-1.74-0.88-2.94-1.39-3.59c-0.5-0.65-1.44-1.71-2.81-3.16
			C1390.99,375.43,1389.88,374.52,1389.04,374.14z"/>
		<path class="st18" d="M1404.47,421.1c4.35-1.08,7.14-2.6,8.38-4.58c1.24-1.98,1.86-3.38,1.86-4.23c0-2.38-0.33-4.07-0.98-5.05
			c-0.3-0.44-0.46-0.88-0.46-1.3c0-0.35,0.16-0.85,0.47-1.51c0.32-0.65,0.64-0.98,0.96-0.98c0.49,0,1.26,0.18,2.31,0.54
			s1.67,0.68,1.86,0.95c0.19,0.27,0.5,1.14,0.93,2.61c0.43,1.47,0.65,2.74,0.65,3.79c0,0.4-0.44,1.63-1.31,3.7
			c-0.88,2.07-2.08,3.68-3.59,4.84c-1.52,1.16-2.95,1.86-4.28,2.12c-0.54,0.09-1.04,0.22-1.51,0.39c-1.85,0.82-3.36,1.23-4.52,1.23
			c-0.68,0-1.02-0.55-1.02-1.65C1404.23,421.55,1404.31,421.26,1404.47,421.1z"/>
		<path class="st18" d="M1446.24,405.53c1.22-0.09,3.06-0.14,5.54-0.14c3.06,0,8.15,0.22,15.25,0.67c1.94,0.09,3.18,0.13,3.73,0.1
			c0.55-0.02,1.27-0.21,2.16-0.56c0.96-0.37,1.68-0.56,2.17-0.56c0.4,0,0.86,0.3,1.39,0.89c0.53,0.6,0.79,1.1,0.79,1.53
			c0,1.52-0.8,2.71-2.38,3.56c-1.59,0.85-3,1.28-4.24,1.28h-1.3c-2.24,0-3.89-0.15-4.94-0.46c-3.25-0.86-7.29-1.3-12.13-1.3
			c-4.14,0-7.77,0.5-10.91,1.51c-3.13,1.01-5.17,2.07-6.1,3.19c-1.05,1.26-1.84,2.05-2.37,2.37c-0.53,0.32-1.24,0.47-2.16,0.47
			c-1.82,0-2.74-0.81-2.74-2.42c0-2.46,1-4.62,3.02-6.51c2.01-1.88,5.39-4.03,10.13-6.44c2.78-1.38,4.48-2.33,5.08-2.84
			c0.61-0.51,2.29-2.02,5.03-4.52c2.75-2.5,4.83-4.65,6.26-6.45c1.43-1.8,2.45-3.41,3.07-4.82s0.93-2.72,0.93-3.91
			c0-1.64-0.97-3.3-2.91-5c-1.94-1.69-3.74-2.54-5.4-2.54c-1.43,0-3.58,0.89-6.45,2.68c-2.88,1.79-5.01,3.51-6.42,5.17
			c-0.91,1.08-2.3,1.61-4.17,1.61c-0.44,0-0.92-0.5-1.44-1.51c-0.51-1-0.77-1.81-0.77-2.42c0-0.44,0.06-0.75,0.17-0.91
			s1.29-1.04,3.52-2.63c2.23-1.59,4.24-2.96,6.03-4.12c1.79-1.16,3.58-2.04,5.38-2.65c1.8-0.61,4.11-0.91,6.94-0.91
			c2.41,0,4.67,1,6.79,3c2.12,2,3.69,3.96,4.72,5.89c1.03,1.93,1.54,3.03,1.54,3.31c0,3.2-2.39,7.63-7.17,13.29
			C1457.11,398.11,1451.89,402.46,1446.24,405.53z"/>
		<path class="st18" d="M1520.16,395.99c5.54-0.96,10.51-4.54,14.9-10.73c2.06-2.88,3.86-4.92,5.42-6.12
			c1.55-1.2,3.21-1.81,4.96-1.81c0.7,0,1.4,0.32,2.1,0.95c0.7,0.63,1.05,1.38,1.05,2.24c0,1.15-1.09,2.05-3.26,2.7
			c-1.15,0.35-2.22,0.95-3.23,1.79s-2.91,2.85-5.72,6.03c-2.2,2.48-4.17,4.22-5.93,5.23c-0.16,0.09-0.25,0.18-0.25,0.25
			c0,0.09,0.11,0.19,0.32,0.28c1.71,0.91,3.51,2.68,5.4,5.29c2.76,3.81,4.83,6.21,6.21,7.21c1.38,0.99,2.96,1.49,4.73,1.49
			l1.16-0.04c0.82-0.05,1.23,0.32,1.23,1.09c0,0.89-0.5,1.81-1.51,2.77c-1.01,0.96-2.67,1.44-4.98,1.44c-1.78,0-3.5-0.77-5.17-2.3
			c-1.67-1.53-3.58-4.02-5.73-7.45c-1.24-2.03-2.4-3.58-3.47-4.63c-1.08-1.05-2.27-1.58-3.58-1.58c-0.28,0-1.15,0.23-2.6,0.7
			c-1.45,0.47-2.26,0.92-2.44,1.35c-0.18,0.43-0.3,1.99-0.39,4.66c-0.08,2.68-0.12,4.83-0.12,6.47c0,0.87-0.41,1.64-1.23,2.31
			c-0.82,0.68-1.71,1.02-2.67,1.02c-0.98,0-1.75-0.29-2.31-0.86c-0.56-0.57-0.84-1.16-0.84-1.77c0-0.84,0.32-2.83,0.95-5.96
			c1.12-5.7,2.24-15.11,3.37-28.23c0.09-1.26,0.57-2.4,1.44-3.42c0.87-1.02,1.85-1.53,2.95-1.53c0.61,0,1.12,0.33,1.53,0.98
			c0.41,0.65,0.61,1.5,0.61,2.52c0,0.82-0.14,1.75-0.42,2.81C1521.32,385.99,1520.49,390.94,1520.16,395.99z"/>
		<path class="st18" d="M1609.66,373.61c-0.84-3.65-1.88-6.19-3.12-7.64c-1.24-1.45-2.88-2.57-4.91-3.37
			c-2.03-0.79-3.87-1.19-5.51-1.19c-0.63,0-1.56,0.24-2.79,0.72c-1.23,0.48-2.17,0.92-2.82,1.32c-0.91,0.54-1.75,0.81-2.53,0.81
			c-0.89,0-1.33-0.47-1.33-1.4c0-1,0.76-2.4,2.28-4.17c1.52-1.78,4.2-2.67,8.03-2.67h1.51c3.81,0,7.18,1,10.1,3
			c2.92,2,5,4.86,6.22,8.57c1.23,3.72,1.84,8.71,1.84,14.97c0,4.25-1.34,9.41-4.03,15.46c-2.69,6.06-6.11,10.64-10.26,13.75
			c-4.15,3.11-8.56,4.66-13.24,4.66c-1.68,0-3.26-0.97-4.73-2.91c-1.47-1.94-2.21-4.35-2.21-7.22c0-5.31,1.16-9.99,3.49-14.04
			s4.93-7.35,7.82-9.87c2.89-2.52,6.88-4.56,11.98-6.1c1.68-0.49,2.83-0.88,3.44-1.16C1609.49,374.84,1609.75,374.34,1609.66,373.61
			z M1610.6,380.77c-5.4,1.1-9.54,2.84-12.41,5.23c-6.5,6.08-9.75,12.89-9.75,20.44c0,1.01,0.18,1.95,0.53,2.82
			c0.35,0.88,0.75,1.31,1.19,1.31c1.73,0,3.31-0.3,4.73-0.91c1.43-0.61,3.17-1.88,5.23-3.8c2.06-1.93,3.92-4.32,5.59-7.17
			c1.67-2.85,2.89-5.6,3.65-8.24c0.76-2.64,1.16-4.67,1.21-6.08C1610.61,382.95,1610.63,381.75,1610.6,380.77z"/>
		<path class="st18" d="M1631.08,416.19c-3.2,0-5.84-1.22-7.93-3.65s-3.12-5.44-3.12-9.01c0-6.03,2.03-11.98,6.08-17.83
			c4.06-5.86,8.91-8.78,14.57-8.78c3.74,0,6.77,1.44,9.1,4.31c2.33,2.88,3.49,6.3,3.49,10.28c0,6.08-2.4,11.71-7.21,16.9
			C1641.27,413.59,1636.27,416.19,1631.08,416.19z M1626.21,402.62c0,2.36,0.5,4.29,1.49,5.79c0.99,1.5,2.31,2.24,3.95,2.24
			c3.48,0,6.98-1.91,10.49-5.73c3.51-3.82,5.26-8.07,5.26-12.75c0-2.88-0.67-5.21-2.02-7c-1.34-1.79-3.15-2.68-5.42-2.68
			c-3.76,0-7,2.31-9.7,6.93C1627.56,394.03,1626.21,398.43,1626.21,402.62z"/>
		<path class="st18" d="M1683.12,378.7c5.31,2.15,7.96,7.25,7.96,15.29c0,6.03-1.88,11.3-5.65,15.82
			c-3.76,4.51-7.85,6.77-12.27,6.77c-3.95,0-7.03-1.57-9.22-4.7c-2.2-3.13-3.3-7.71-3.3-13.75c0-7.27,1.28-14.63,3.84-22.08
			c2.56-7.45,5.75-13.07,9.57-16.87c3.82-3.8,7.69-5.7,11.59-5.7c2.36,0,4.26,0.78,5.7,2.33c1.44,1.56,2.16,3.71,2.16,6.47
			c0,2.2-0.95,4.8-2.86,7.82C1688.74,373.12,1686.23,375.99,1683.12,378.7z M1684.67,394.97c0-3.48-0.64-6.29-1.93-8.42
			c-1.29-2.13-2.71-3.19-4.28-3.19c-0.47,0-3.07,1.8-7.82,5.4c-1.22,0.94-2.4,1.8-3.54,2.59c-0.35,2.01-0.53,4.22-0.53,6.63
			c0,4.26,0.64,7.46,1.91,9.61c1.27,2.15,3.03,3.23,5.28,3.23c3.13,0,5.73-1.64,7.8-4.93c2.07-3.28,3.1-6.9,3.1-10.85V394.97z
			 M1667.9,385.08c9-6.94,14.57-11.91,16.69-14.89c2.13-2.98,3.19-5.32,3.19-7.03c0-2.74-1.1-4.1-3.3-4.1
			c-3.06,0-6.14,2.3-9.24,6.91C1672.15,370.58,1669.7,376.95,1667.9,385.08z"/>
		<path class="st18" d="M1729.98,402.55c0,2.38-2.11,5.26-6.33,8.63c-4.22,3.37-8.57,5.05-13.06,5.05c-3.76,0-6.67-1.11-8.71-3.33
			s-3.07-5.32-3.07-9.29c0-6.69,2.26-13.05,6.77-19.08c4.51-6.03,9.44-9.05,14.8-9.05c1.75,0,3.18,0.57,4.3,1.72
			c1.11,1.15,1.67,2.52,1.67,4.14c0,3.6-1.76,7.05-5.29,10.35s-8.25,6.53-14.17,9.71c-1.22,0.63-1.82,1.45-1.82,2.45
			c0,1.94,0.56,3.5,1.68,4.66c1.12,1.17,2.78,1.75,4.98,1.75c5.03,0,10.16-2.78,15.39-8.35c0.77-0.77,1.36-1.16,1.75-1.16
			C1729.6,400.76,1729.98,401.35,1729.98,402.55z M1705.6,397.08c9.91-5.89,14.87-10.63,14.87-14.2c0-1.4-0.63-2.1-1.89-2.1
			c-2.15,0-4.58,1.58-7.28,4.73C1708.6,388.66,1706.7,392.52,1705.6,397.08z"/>
		<path class="st18" d="M1744.07,410.37c-1.15,4.21-2.22,10.11-3.23,17.71l-0.98,6.63c-0.16,0.93-0.6,1.86-1.3,2.79
			c-0.7,0.92-1.34,1.39-1.93,1.39c-0.73,0-1.55-0.37-2.47-1.1s-1.38-1.33-1.38-1.77c0-1.29,0.29-3.06,0.88-5.33
			c4.28-17.28,6.42-32.45,6.42-45.52l-0.04-2.95c-0.05-2.52,0.4-4.36,1.33-5.51c0.93-1.15,2.01-1.72,3.23-1.72
			c0.56,0,1.1,0.44,1.61,1.32c0.51,0.88,0.77,2.12,0.77,3.73c0,2.27-0.23,5.01-0.7,8.24c-0.61,4.07-0.92,6.41-0.95,7.01
			c3.48-6.08,7.18-10.82,11.08-14.24c3.9-3.41,7.53-5.12,10.87-5.12c2.36,0,4.35,0.88,5.98,2.65c1.62,1.77,2.44,3.96,2.44,6.58
			c0,7.62-2.92,14.54-8.77,20.76c-5.84,6.22-11.54,9.33-17.08,9.33c-1.38,0-2.47-0.35-3.28-1.05
			C1745.77,413.49,1744.94,412.21,1744.07,410.37z M1765.85,382.14c-3.3,0-7.38,3.09-12.24,9.26c-4.86,6.17-7.29,10.98-7.29,14.41
			c0,0.84,0.48,1.66,1.44,2.46c0.96,0.79,2.17,1.19,3.65,1.19c3.34,0,7.19-2.47,11.54-7.42c4.35-4.94,6.52-9.8,6.52-14.57
			c0-1.71-0.35-3.02-1.04-3.94C1767.74,382.6,1766.88,382.14,1765.85,382.14z"/>
		<path class="st18" d="M1808.49,399.18c-2.99,5.03-6.06,8.92-9.19,11.68c-3.13,2.76-6.04,4.14-8.73,4.14c-1.54,0-3.12-0.9-4.72-2.7
			c-1.6-1.8-2.4-4.57-2.4-8.31c0-3.06,0.74-7.58,2.21-13.54c1.24-4.98,1.86-8.47,1.86-10.49c0.68-1.4,1.74-2.1,3.19-2.1
			c0.98,0,1.76,0.35,2.35,1.03c0.58,0.69,0.88,1.41,0.88,2.16c0,1.64-0.57,3.96-1.72,6.98c-2.17,5.87-3.26,10.91-3.26,15.11
			c0,3.83,0.89,5.75,2.67,5.75c2.27,0,5.16-1.93,8.66-5.79s6.51-9.23,9.01-16.13c0.98-2.76,1.78-4.55,2.4-5.38
			c0.62-0.83,1.46-1.25,2.51-1.25c1.59,0,2.38,1.05,2.38,3.16c0,0.26-0.22,1.11-0.67,2.56c-1.4,5.12-2.1,9.96-2.1,14.52
			c0,5.47,0.9,9.01,2.7,10.63c0.93,0.86,1.4,1.57,1.4,2.1c0,0.65-0.47,1.25-1.42,1.79c-0.95,0.54-1.81,0.81-2.58,0.81
			c-1.64,0-2.96-1.22-3.96-3.65c-1.01-2.43-1.51-6.02-1.51-10.77v-1.16C1808.46,399.96,1808.47,399.58,1808.49,399.18z"/>
		<path class="st18" d="M1853.28,392.24c0.05-0.12,0.11-0.23,0.18-0.35l0.25-0.42c2.13-5.21,4.8-9.22,8.01-12.01
			c3.21-2.79,6.73-4.19,10.54-4.19c3.74,0,6.77,1.44,9.1,4.31s3.49,6.3,3.49,10.27c0,6.08-2.4,11.71-7.21,16.9
			c-4.8,5.19-9.8,7.79-14.99,7.79c-3.18,0-5.82-1.22-7.91-3.65c-2.09-2.43-3.14-5.42-3.14-8.98l-0.07-1.44
			c-0.05-0.82-0.1-1.33-0.16-1.54c-0.06-0.21-0.3-0.32-0.72-0.32h-6.07c-2.24,0.02-4.18,0.19-5.82,0.49s-2.61,0.6-2.93,0.88
			c-0.32,0.28-0.56,0.9-0.72,1.86c-0.26,1.5-0.48,2.58-0.67,3.26c-0.21,0.79-0.32,1.63-0.32,2.49l0.14,2.95
			c0,1.05-0.29,2.17-0.86,3.35c-0.57,1.18-1.48,1.77-2.72,1.77c-1.92,0-2.88-1.25-2.88-3.75l0.14-3.09c0-0.37,0.26-2.17,0.77-5.4
			c0.63-3.97,1.23-10.22,1.79-18.73c0.19-2.74,0.32-4.42,0.4-5.05c0.08-0.63,0.5-1.25,1.26-1.84s1.6-0.89,2.51-0.89
			c1.68,0,2.52,0.69,2.52,2.07c0,0.21-0.27,1.96-0.81,5.26c-0.56,3.3-0.84,5.86-0.84,7.68c0,1.29,0.44,1.93,1.33,1.93
			c1.94,0,5.14-0.19,9.59-0.58C1850.94,392.89,1853.21,392.54,1853.28,392.24z M1857.76,400.97c0,2.36,0.5,4.29,1.49,5.79
			c0.99,1.5,2.31,2.24,3.95,2.24c3.48,0,6.98-1.91,10.49-5.73c3.51-3.82,5.26-8.07,5.26-12.75c0-2.88-0.67-5.21-2.02-7
			c-1.34-1.79-3.15-2.68-5.42-2.68c-3.76,0-7,2.31-9.7,6.93C1859.11,392.38,1857.76,396.78,1857.76,400.97z"/>
	</g>
</g>
<g id="Слой_2">
	<g id="Favorite">
	</g>
</g>
<g id="Слой_4">
</g>
</svg>
