<?xml version="1.0" encoding="utf-8"?>
<!-- Generator: Adobe Illustrator 23.1.0, SVG Export Plug-In . SVG Version: 6.00 Build 0)  -->
<svg version="1.1" xmlns="http://www.w3.org/2000/svg" xmlns:xlink="http://www.w3.org/1999/xlink" x="0px" y="0px"
	 viewBox="0 0 1920.45 2194.37" style="enable-background:new 0 0 1920.45 2194.37;" xml:space="preserve">
<style type="text/css">
	.st0{opacity:0.87;fill:url(#SVGID_1_);}
	.st1{fill:#33DEA7;}
	.st2{fill:#4890F1;}
	.st3{fill:#0B59C7;}
	.st4{fill:#1A328C;}
	.st5{fill:#367FE1;}
	.st6{fill:#FFFFFF;}
	.st7{fill:none;stroke:#FF1800;stroke-miterlimit:10;}
	.st8{fill:none;stroke:#4890F1;stroke-width:2.4807;stroke-miterlimit:10;}
	.st9{fill:none;stroke:#0B59C7;stroke-width:1.6033;stroke-miterlimit:10;}
	.st10{display:none;}
	.st11{display:inline;fill:none;stroke:#000000;stroke-miterlimit:10;}
	.st12{fill:#CFE2FF;}
	.st13{fill:none;stroke:#34E2AA;stroke-miterlimit:10;}
	.st14{fill:none;stroke:#34E2AA;stroke-width:0.9838;stroke-miterlimit:10;}
	.st15{fill:#34E2AA;fill-opacity:0.12;stroke:#34E2AA;stroke-miterlimit:10;}
	.st16{fill:#1B3390;}
	.st17{fill:#34E2AA;stroke:#1B3390;stroke-miterlimit:10;}
	.st18{fill:#FF8B2B;}
	.st19{opacity:0.5;fill:#4992F5;}
	.st20{fill:#4992F5;}
	.st21{fill:#0B5BCB;}
	.st22{fill:#ADD2FF;}
	.st23{fill:#2EC897;}
	.st24{fill:none;stroke:#4992F5;stroke-width:0.6143;stroke-miterlimit:10;}
	.st25{fill:none;stroke:#4992F5;stroke-width:0.4924;stroke-miterlimit:10;}
	.st26{fill:none;stroke:#4992F5;stroke-width:5;stroke-miterlimit:10;}
	.st27{fill:none;stroke:#0B5BCB;stroke-width:2.2717;stroke-miterlimit:10;}
	.st28{fill:#6078D5;}
	.st29{fill:#FFB87D;}
	.st30{fill:none;stroke:#284DD8;stroke-width:2.678;stroke-miterlimit:10;}
	.st31{fill:none;stroke:#34E2AA;stroke-width:6.3211;stroke-miterlimit:10;}
	.st32{fill:none;stroke:#4992F5;stroke-width:6.3211;stroke-miterlimit:10;}
	.st33{fill:none;stroke:#0B5BCB;stroke-width:2;stroke-miterlimit:10;}
	.st34{fill:#FFEBC9;}
	.st35{fill:#8CA4FB;stroke:#1B3390;stroke-width:1.8878;stroke-miterlimit:10;}
	.st36{fill:none;stroke:#1B3390;stroke-width:2;stroke-miterlimit:10;}
	.st37{fill:none;stroke:#34E2AA;stroke-width:1.8878;stroke-linecap:round;stroke-miterlimit:10;}
	.st38{fill:none;stroke:#34E2AA;stroke-width:1.8878;stroke-linecap:round;stroke-linejoin:round;stroke-miterlimit:10;}
	.st39{clip-path:url(#SVGID_5_);}
	.st40{fill:none;stroke:#F98600;stroke-width:15.7313;stroke-linecap:round;stroke-linejoin:round;stroke-miterlimit:10;}
	.st41{fill:none;stroke:#1B3390;stroke-width:3.7755;stroke-linecap:round;stroke-linejoin:round;stroke-miterlimit:10;}
	.st42{fill:#0B5BCB;stroke:#1B3390;stroke-width:1.7785;stroke-miterlimit:10;}
	.st43{fill:none;stroke:#1B3390;stroke-width:1.7785;stroke-linecap:round;stroke-miterlimit:10;}
	.st44{fill:none;stroke:#1B3390;stroke-width:1.7785;stroke-linecap:round;stroke-linejoin:round;stroke-miterlimit:10;}
	.st45{clip-path:url(#SVGID_7_);fill:none;stroke:#5FECBF;stroke-width:29.6424;stroke-linecap:round;stroke-miterlimit:10;}
	.st46{fill:none;stroke:#1B3390;stroke-width:1.7785;stroke-miterlimit:10;}
	.st47{fill:#34E2AA;stroke:#1B3390;stroke-width:1.1636;stroke-miterlimit:10;}
	.st48{fill:#94FFCC;stroke:#1B3390;stroke-width:1.1636;stroke-linecap:round;stroke-miterlimit:10;}
	.st49{fill:#94FFCC;stroke:#1B3390;stroke-width:1.1636;stroke-linecap:round;stroke-linejoin:round;stroke-miterlimit:10;}
	.st50{fill:#FFB87D;stroke:#1B3390;stroke-width:1.1636;stroke-miterlimit:10;}
	.st51{fill:#4992F5;stroke:#1B3390;stroke-width:1.1636;stroke-linecap:round;stroke-miterlimit:10;}
	.st52{fill:#4992F5;stroke:#1B3390;stroke-width:1.1636;stroke-linecap:round;stroke-linejoin:round;stroke-miterlimit:10;}
	.st53{fill:#FFB87D;stroke:#1B3390;stroke-width:1.1636;stroke-linecap:round;stroke-miterlimit:10;}
	.st54{fill:#FFB87D;stroke:#1B3390;stroke-width:1.1636;stroke-linecap:round;stroke-linejoin:round;stroke-miterlimit:10;}
	.st55{opacity:0.8;fill:#DBE2FF;}
	.st56{opacity:0.8;fill:#B3C2FF;}
	.st57{opacity:0.8;fill:#FFF3E8;}
	.st58{opacity:0.8;fill:#D6FFF9;}
	.st59{fill:#0C65DF;stroke:#1B3390;stroke-width:0.764;stroke-linecap:round;stroke-linejoin:round;stroke-miterlimit:10;}
	.st60{fill:#0C65DF;stroke:#1B3390;stroke-width:0.764;stroke-miterlimit:10;}
	.st61{fill:#0C65DF;stroke:#1B3390;stroke-width:0.764;stroke-linecap:round;stroke-miterlimit:10;}
	.st62{opacity:0.8;fill:#A1C9FF;}
	.st63{fill:none;stroke:#0B5BCB;stroke-width:1.87;stroke-miterlimit:10;}
	.st64{fill:#4992F5;stroke:#1B3390;stroke-width:2.4753;stroke-miterlimit:10;}
	.st65{fill:none;stroke:#1B3390;stroke-width:2.0994;stroke-linecap:round;stroke-miterlimit:10;}
	.st66{fill:#6CF4BC;stroke:#1B3390;stroke-width:1.6932;stroke-miterlimit:10;}
	.st67{fill:none;stroke:#1B3390;stroke-width:1.436;stroke-linecap:round;stroke-miterlimit:10;}
	.st68{fill:#FFB87D;stroke:#1B3390;stroke-width:2.1678;stroke-miterlimit:10;}
	.st69{fill:none;stroke:#1B3390;stroke-width:1.8386;stroke-linecap:round;stroke-miterlimit:10;}
	.st70{fill:#0B5FD5;stroke:#1B3390;stroke-width:1.6798;stroke-miterlimit:10;}
	.st71{fill:none;stroke:#1B3390;stroke-width:1.4247;stroke-linecap:round;stroke-miterlimit:10;}
	.st72{fill:#A6FFE1;stroke:#1B3390;stroke-width:2.0588;stroke-miterlimit:10;}
	.st73{fill:none;stroke:#1B3390;stroke-width:1.7462;stroke-linecap:round;stroke-miterlimit:10;}
	.st74{fill:#FF8B2B;stroke:#1B3390;stroke-width:2.4753;stroke-miterlimit:10;}
	.st75{fill:#34E2AA;stroke:#1B3390;stroke-width:2.1678;stroke-miterlimit:10;}
	.st76{fill:none;stroke:#1B3390;stroke-width:1.4475;stroke-linecap:round;stroke-miterlimit:10;}
	.st77{fill:#FFB87D;stroke:#1B3390;stroke-width:1.6825;stroke-miterlimit:10;}
	.st78{fill:none;stroke:#1B3390;stroke-width:1.427;stroke-linecap:round;stroke-miterlimit:10;}
	.st79{fill:#ABD0FF;}
	.st80{fill:none;stroke:#0B5BCB;stroke-width:3.3004;stroke-linecap:round;stroke-miterlimit:10;}
	.st81{fill:#E3EFFF;}
	.st82{clip-path:url(#SVGID_9_);fill:none;stroke:#FF8B2B;stroke-width:9.9011;stroke-linecap:round;stroke-miterlimit:10;}
	.st83{fill:#FFB87D;stroke:#1C3CB7;stroke-width:3;stroke-linecap:round;stroke-linejoin:round;stroke-miterlimit:10;}
	.st84{fill:#FFEED1;stroke:#1C3CB7;stroke-width:3;stroke-linejoin:round;stroke-miterlimit:10;}
	.st85{fill:#FF8B2B;stroke:#1C3CB7;stroke-width:3;stroke-miterlimit:10;}
	.st86{fill:#FFE2C9;stroke:#1C3CB7;stroke-width:3;stroke-linejoin:round;stroke-miterlimit:10;}
	.st87{fill:#1B3390;stroke:#1C3CB7;stroke-miterlimit:10;}
	.st88{fill:#0B5BCB;stroke:#1C3CB7;stroke-miterlimit:10;}
	.st89{fill:#4992F5;stroke:#1C3CB7;stroke-width:3;stroke-miterlimit:10;}
	.st90{fill:#4992F5;stroke:#1C3CB7;stroke-width:3;stroke-linecap:round;stroke-miterlimit:10;}
	.st91{fill:#8CA4FB;stroke:#1C3CB7;stroke-width:3;stroke-linecap:round;stroke-linejoin:round;stroke-miterlimit:10;}
	.st92{fill:#D1FFEF;stroke:#1C3CB7;stroke-width:3;stroke-linejoin:round;stroke-miterlimit:10;}
	.st93{fill:#0B5BCB;stroke:#1C3CB7;stroke-width:3;stroke-miterlimit:10;}
	.st94{fill:#B2C2FB;stroke:#1C3CB7;stroke-width:3;stroke-linejoin:round;stroke-miterlimit:10;}
	.st95{fill:#34E2AA;stroke:#1C3CB7;stroke-miterlimit:10;}
	.st96{fill:#66FFC8;stroke:#1C3CB7;stroke-miterlimit:10;}
	.st97{fill:#73FFCD;stroke:#1C3CB7;stroke-miterlimit:10;}
	.st98{fill:#00D38E;stroke:#1C3CB7;stroke-miterlimit:10;}
	.st99{fill:#34E2AA;stroke:#1C3CB7;stroke-width:3;stroke-miterlimit:10;}
	.st100{fill:#FF8B2B;stroke:#1C3CB7;stroke-miterlimit:10;}
	.st101{fill:#FFB87D;stroke:#1C3CB7;stroke-miterlimit:10;}
	.st102{fill:#FFB87D;stroke:#1C3CB7;stroke-width:3;stroke-miterlimit:10;}
	.st103{fill:none;stroke:#1C3CB7;stroke-width:2;stroke-miterlimit:10;}
	.st104{fill:#75FFCE;stroke:#1B3390;stroke-width:3;stroke-miterlimit:10;}
	.st105{fill:none;stroke:#1B3390;stroke-width:3;stroke-miterlimit:10;}
	.st106{fill:#00C39F;stroke:#1B3390;stroke-width:3;stroke-miterlimit:10;}
	.st107{fill:#A8FFE6;}
	.st108{opacity:0.8;fill:#A8FFE6;}
	.st109{fill:#8CA4FB;stroke:#1B3390;stroke-width:3;stroke-miterlimit:10;}
	.st110{fill:#0B5BCB;stroke:#1B3390;stroke-width:3;stroke-miterlimit:10;}
	.st111{fill:#D8E0FB;}
	.st112{opacity:0.8;fill:#D8E0FB;}
	.st113{fill:#FFB87D;stroke:#0655C3;stroke-width:3;stroke-linecap:round;stroke-linejoin:round;stroke-miterlimit:10;}
	.st114{fill:#FFE3CC;}
	.st115{fill:none;stroke:#0B5BCB;stroke-width:3;stroke-linecap:round;stroke-linejoin:round;stroke-miterlimit:10;}
	.st116{fill:#34E2AA;stroke:#1B3390;stroke-width:3;stroke-miterlimit:10;}
	.st117{fill:#BAFFE9;}
	.st118{fill:#ABFFE4;}
	.st119{fill:#5790DF;stroke:#0655C3;stroke-width:3;stroke-linecap:round;stroke-linejoin:round;stroke-miterlimit:10;}
	.st120{fill:#80B9F6;}
	.st121{fill:#629FE4;}
	.st122{fill:#0B5BCB;stroke:#0B5BCB;stroke-width:4;stroke-miterlimit:10;}
	.st123{fill:#34E2AA;stroke:#0B5BCB;stroke-width:3;stroke-linejoin:round;stroke-miterlimit:10;}
	.st124{fill:none;stroke:#0B5BCB;stroke-width:3;stroke-linecap:round;stroke-miterlimit:10;}
	.st125{fill:#4992F5;stroke:#0B5BCB;stroke-width:4;stroke-miterlimit:10;}
	.st126{fill:#C7FFED;stroke:#34E2AA;stroke-width:3;stroke-miterlimit:10;}
	.st127{fill:#FFD1AB;stroke:#0B5BCB;stroke-width:3;stroke-miterlimit:10;}
	.st128{fill:#34E2AA;stroke:#34E2AA;stroke-width:3;stroke-linejoin:round;stroke-miterlimit:10;}
	.st129{fill:none;stroke:#0B5BCB;stroke-width:9.5222;stroke-miterlimit:10;}
	.st130{fill:#0B5BCB;stroke:#0B5BCB;stroke-width:16.7664;stroke-miterlimit:10;}
	.st131{fill:#34E2AA;stroke:#0B5BCB;stroke-width:12.5748;stroke-linejoin:round;stroke-miterlimit:10;}
	.st132{fill:none;stroke:#0B5BCB;stroke-width:12.5748;stroke-linecap:round;stroke-miterlimit:10;}
	.st133{fill:#4992F5;stroke:#0B5BCB;stroke-width:16.7664;stroke-miterlimit:10;}
	.st134{fill:#C7FFED;stroke:#34E2AA;stroke-width:12.5748;stroke-miterlimit:10;}
	.st135{fill:#FFD1AB;stroke:#0B5BCB;stroke-width:12.5748;stroke-miterlimit:10;}
	.st136{fill:#34E2AA;stroke:#34E2AA;stroke-width:12.5748;stroke-linejoin:round;stroke-miterlimit:10;}
	.st137{fill:none;stroke:#0B5BCB;stroke-width:7.8382;stroke-miterlimit:10;}
	.st138{fill:#8CA4FB;stroke:#0B5BCB;stroke-width:3;stroke-linejoin:round;stroke-miterlimit:10;}
	.st139{fill:#69FFC7;stroke:#0B5BCB;stroke-width:3;stroke-linejoin:round;stroke-miterlimit:10;}
	.st140{fill:#FFB87D;stroke:#0B5BCB;stroke-width:3;stroke-linejoin:round;stroke-miterlimit:10;}
	.st141{fill:#ADBEFF;}
	.st142{fill:#FFEAD9;}
	.st143{fill:#D6FFF4;}
	.st144{fill:#CCD6FF;}
	.st145{fill:none;stroke:#33DEA7;stroke-width:5.4384;stroke-miterlimit:10;}
	.st146{fill:#4AE2B1;}
	.st147{fill:#8CA4FB;}
	.st148{opacity:0.25;fill:#FF8B2B;}
	.st149{fill:none;stroke:#FF8B2B;stroke-miterlimit:10;}
	.st150{fill:none;stroke:#FF8B2B;stroke-width:0.9367;stroke-miterlimit:10;}
	.st151{fill:#FF9843;}
	.st152{opacity:0.3;fill:#34E2AA;}
	.st153{display:inline;}
	.st154{fill:#0B87C7;}
	.st155{fill:#92FCCA;stroke:#1A328C;stroke-width:1.1636;stroke-miterlimit:10;}
	.st156{fill:#92FCCA;stroke:#1A328C;stroke-width:1.1636;stroke-linecap:round;stroke-miterlimit:10;}
	.st157{fill:#92FCCA;stroke:#1A328C;stroke-width:1.1636;stroke-linecap:round;stroke-linejoin:round;stroke-miterlimit:10;}
	.st158{fill:#0C63DB;stroke:#1A328C;stroke-width:0.764;stroke-linecap:round;stroke-linejoin:round;stroke-miterlimit:10;}
	.st159{fill:#0C63DB;stroke:#1A328C;stroke-width:0.764;stroke-miterlimit:10;}
	.st160{fill:#0C63DB;stroke:#1A328C;stroke-width:0.764;stroke-linecap:round;stroke-miterlimit:10;}
	.st161{fill:#8AA1F7;stroke:#1B3BB3;stroke-width:3;stroke-linecap:round;stroke-linejoin:round;stroke-miterlimit:10;}
	.st162{fill:#D1FFEF;stroke:#1B3BB3;stroke-width:3;stroke-linejoin:round;stroke-miterlimit:10;}
	.st163{fill:#0B59C7;stroke:#1B3BB3;stroke-width:3;stroke-miterlimit:10;}
	.st164{fill:#AFBFF7;stroke:#1B3BB3;stroke-width:3;stroke-linejoin:round;stroke-miterlimit:10;}
	.st165{fill:#1A328C;stroke:#1B3BB3;stroke-miterlimit:10;}
	.st166{fill:#66FFC8;stroke:#1B3BB3;stroke-miterlimit:10;}
	.st167{fill:#0B59C7;stroke:#1B3BB3;stroke-miterlimit:10;}
	.st168{fill:#4890F1;stroke:#1B3BB3;stroke-width:3;stroke-miterlimit:10;}
	.st169{fill:#4890F1;stroke:#1B3BB3;stroke-width:3;stroke-linecap:round;stroke-miterlimit:10;}
	.st170{fill:#8AA1F7;stroke:#0B59C7;stroke-width:5.0442;stroke-linejoin:round;stroke-miterlimit:10;}
	.st171{fill:#C1CCF7;}
	.st172{fill:none;stroke:#4890F1;stroke-width:10.418;stroke-miterlimit:10;}
	.st173{fill:none;stroke:#4890F1;stroke-width:8.3506;stroke-miterlimit:10;}
	.st174{fill:#E6F0FF;stroke:#DBE3FF;stroke-width:3.6654;stroke-miterlimit:10;}
	.st175{fill:#E6F0FF;}
	.st176{fill:#DBE3FF;}
	.st177{fill:#FFE1C9;stroke:#E0E6FF;stroke-width:5.2027;stroke-miterlimit:10;}
	.st178{fill:#E0FFF7;}
	.st179{fill:#E0E6FF;}
	.st180{fill:#DBE9FF;stroke:#CCD7FF;stroke-width:3.6654;stroke-miterlimit:10;}
	.st181{fill:#DBE9FF;}
	.st182{fill:#CCD7FF;}
	.st183{fill:#9EC2F7;stroke:#9CB1FF;stroke-width:3.6654;stroke-miterlimit:10;}
	.st184{fill:#9EC2F7;}
	.st185{fill:#9CB1FF;}
	.st186{fill:#99C3FF;stroke:#91A9FF;stroke-width:4.0452;stroke-miterlimit:10;}
	.st187{fill:#99C3FF;}
	.st188{fill:#91A9FF;}
	.st189{fill:#FFD7B5;stroke:#A1B5FF;stroke-width:5.2027;stroke-miterlimit:10;}
	.st190{fill:#A1B5FF;}
	.st191{fill:#B8FFEC;stroke:#A1B5FF;stroke-width:5.2027;stroke-miterlimit:10;}
	.st192{fill:#B8FFEC;}
	.st193{fill:#E0FFF7;stroke:#E0E6FF;stroke-width:5.2027;stroke-miterlimit:10;}
	.st194{fill:#FFEAD9;stroke:#DBE3FF;stroke-width:3.6654;stroke-miterlimit:10;}
	.st195{opacity:0.2;}
	.st196{fill:#4890F1;stroke:#1A328C;stroke-width:2.274;stroke-miterlimit:10;}
	.st197{fill:none;stroke:#1A328C;stroke-width:1.9286;stroke-linecap:round;stroke-miterlimit:10;}
	.st198{fill:#6AF0B9;stroke:#1A328C;stroke-width:1.5555;stroke-miterlimit:10;}
	.st199{fill:none;stroke:#1A328C;stroke-width:1.3193;stroke-linecap:round;stroke-miterlimit:10;}
	.st200{fill:#FFB87D;stroke:#1A328C;stroke-width:1.9915;stroke-miterlimit:10;}
	.st201{fill:none;stroke:#1A328C;stroke-width:1.6891;stroke-linecap:round;stroke-miterlimit:10;}
	.st202{fill:#0B5DD1;stroke:#1A328C;stroke-width:1.5432;stroke-miterlimit:10;}
	.st203{fill:none;stroke:#1A328C;stroke-width:1.3088;stroke-linecap:round;stroke-miterlimit:10;}
	.st204{fill:#A6FFE1;stroke:#1A328C;stroke-width:1.8914;stroke-miterlimit:10;}
	.st205{fill:none;stroke:#1A328C;stroke-width:1.6042;stroke-linecap:round;stroke-miterlimit:10;}
	.st206{fill:#8AA1F7;stroke:#1A328C;stroke-width:2.274;stroke-miterlimit:10;}
	.st207{fill:none;stroke:#1A328C;stroke-width:1.3298;stroke-linecap:round;stroke-miterlimit:10;}
	.st208{fill:#FFB87D;stroke:#1A328C;stroke-width:1.5457;stroke-miterlimit:10;}
	.st209{fill:none;stroke:#1A328C;stroke-width:1.311;stroke-linecap:round;stroke-miterlimit:10;}
	.st210{fill:none;stroke:#0B59C7;stroke-width:3.032;stroke-linecap:round;stroke-miterlimit:10;}
	.st211{clip-path:url(#SVGID_13_);fill:none;stroke:#FF8B2B;stroke-width:9.0959;stroke-linecap:round;stroke-miterlimit:10;}
	.st212{fill:#A6FFDE;stroke:#0B59C7;stroke-width:5;stroke-linejoin:round;stroke-miterlimit:10;}
	.st213{fill:#A6FFDE;stroke:#0B59C7;stroke-width:4.2028;stroke-linejoin:round;stroke-miterlimit:10;}
	.st214{fill:#8AA1F7;stroke:#1A328C;stroke-width:5;stroke-miterlimit:10;}
	.st215{fill:none;stroke:#1A328C;stroke-width:5;stroke-miterlimit:10;}
	.st216{fill:#0B59C7;stroke:#1A328C;stroke-width:5;stroke-miterlimit:10;}
	.st217{fill:#75FFCE;stroke:#1A328C;stroke-width:5;stroke-miterlimit:10;}
	.st218{fill:#D4DCF7;}
	.st219{opacity:0.8;fill:#D4DCF7;}
	.st220{fill:#558DDB;stroke:#0653BF;stroke-width:5;stroke-linecap:round;stroke-linejoin:round;stroke-miterlimit:10;}
	.st221{fill:#7EB6F2;}
	.st222{fill:#609CE0;}
	.st223{fill:none;stroke:#0B59C7;stroke-width:5;stroke-linecap:round;stroke-linejoin:round;stroke-miterlimit:10;}
	.st224{fill:#FF8B2B;stroke:#0B59C7;stroke-width:5;stroke-miterlimit:10;}
	.st225{fill:none;stroke:#33DEA7;stroke-width:5;stroke-linecap:round;stroke-miterlimit:10;}
	.st226{fill:none;stroke:#33DEA7;stroke-width:5;stroke-linecap:round;stroke-linejoin:round;stroke-miterlimit:10;}
	.st227{clip-path:url(#SVGID_15_);}
	.st228{fill:none;stroke:#1A328C;stroke-width:5;stroke-linecap:round;stroke-linejoin:round;stroke-miterlimit:10;}
	.st229{fill:#8AA1F7;stroke:#33DEA7;stroke-width:0.7994;stroke-miterlimit:10;}
	.st230{fill:none;stroke:#33DEA7;stroke-width:0.7994;stroke-linecap:round;stroke-miterlimit:10;}
	.st231{fill:none;stroke:#33DEA7;stroke-width:0.7994;stroke-linecap:round;stroke-linejoin:round;stroke-miterlimit:10;}
	.st232{clip-path:url(#SVGID_17_);}
	.st233{fill:none;stroke:#33DEA7;stroke-width:6.662;stroke-linecap:round;stroke-linejoin:round;stroke-miterlimit:10;}
	.st234{fill:none;stroke:#1A328C;stroke-width:1.5989;stroke-linecap:round;stroke-linejoin:round;stroke-miterlimit:10;}
	.st235{fill:#4890F1;stroke:#1A328C;stroke-width:1.7649;stroke-linecap:round;stroke-miterlimit:10;}
	.st236{fill:#4890F1;stroke:#1A328C;stroke-width:1.7649;stroke-linecap:round;stroke-linejoin:round;stroke-miterlimit:10;}
	.st237{opacity:0.8;fill:#C4D0FF;}
	.st238{fill:#FFB87D;stroke:#1B3BB3;stroke-width:5;stroke-linecap:round;stroke-linejoin:round;stroke-miterlimit:10;}
	.st239{fill:#FFD6B3;stroke:#1B3BB3;stroke-width:5;stroke-linejoin:round;stroke-miterlimit:10;}
	.st240{fill:#FF8B2B;stroke:#1B3BB3;stroke-width:5;stroke-miterlimit:10;}
	.st241{fill:#FFB87D;stroke:#1B3BB3;stroke-width:5;stroke-linejoin:round;stroke-miterlimit:10;}
	.st242{fill:#96FFD4;stroke:#1B3BB3;stroke-width:5;stroke-linejoin:round;stroke-miterlimit:10;}
	.st243{fill:#1A328C;stroke:#1B3BB3;stroke-width:5;stroke-miterlimit:10;}
	.st244{fill:#0B59C7;stroke:#1B3BB3;stroke-width:5;stroke-miterlimit:10;}
	.st245{fill:#4890F1;stroke:#1B3BB3;stroke-width:5;stroke-miterlimit:10;}
	.st246{fill:#4890F1;stroke:#1B3BB3;stroke-width:5;stroke-linecap:round;stroke-miterlimit:10;}
	.st247{fill:#FFB87D;stroke:#1B3BB3;stroke-width:1.6332;stroke-linecap:round;stroke-linejoin:round;stroke-miterlimit:10;}
	.st248{fill:#FFD8B8;stroke:#1B3BB3;stroke-width:1.6332;stroke-linejoin:round;stroke-miterlimit:10;}
	.st249{fill:#FF8B2B;stroke:#1B3BB3;stroke-width:1.6332;stroke-miterlimit:10;}
	.st250{fill:#FFB87D;stroke:#1B3BB3;stroke-width:1.6332;stroke-linejoin:round;stroke-miterlimit:10;}
	.st251{fill:#1A328C;stroke:#1B3BB3;stroke-width:0.5444;stroke-miterlimit:10;}
	.st252{fill:#0B59C7;stroke:#1B3BB3;stroke-width:0.5444;stroke-miterlimit:10;}
	.st253{fill:#4890F1;stroke:#1B3BB3;stroke-width:1.6332;stroke-miterlimit:10;}
	.st254{fill:#4890F1;stroke:#1B3BB3;stroke-width:1.6332;stroke-linecap:round;stroke-miterlimit:10;}
	.st255{fill:#92FCCA;stroke:#1A328C;stroke-width:5;stroke-miterlimit:10;}
	.st256{fill:none;stroke:#1A328C;stroke-width:5;stroke-linecap:round;stroke-miterlimit:10;}
	.st257{clip-path:url(#SVGID_21_);fill:none;stroke:#8AA1F7;stroke-width:5;stroke-linecap:round;stroke-miterlimit:10;}
	.st258{fill:#7DFFD5;}
	.st259{fill:#B3FFE4;}
	.st260{fill:none;stroke:#274CD4;stroke-width:0.3105;stroke-miterlimit:10;}
	.st261{fill:#FF8B2B;stroke:#0653BF;stroke-width:2.1766;stroke-linecap:round;stroke-linejoin:round;stroke-miterlimit:10;}
	.st262{fill:#FFD2AD;}
	.st263{fill:none;stroke:#0B59C7;stroke-width:2.1766;stroke-linecap:round;stroke-linejoin:round;stroke-miterlimit:10;}
	.st264{fill:#FFB87D;stroke:#33DEA7;stroke-width:5;stroke-miterlimit:10;}
	.st265{fill:#9EFFE0;stroke:#33DEA7;stroke-width:5;stroke-miterlimit:10;}
	.st266{fill:#FF8B2B;stroke:#33DEA7;stroke-width:5;stroke-linejoin:round;stroke-miterlimit:10;}
	.st267{fill:#FF8B2B;stroke:#1A328C;stroke-width:5;stroke-miterlimit:10;}
	.st268{fill:#6AF0B9;stroke:#1A328C;stroke-width:5;stroke-miterlimit:10;}
	.st269{fill:#B5CBE8;stroke:#1A328C;stroke-width:5;stroke-miterlimit:10;}
	.st270{fill:#0B5DD1;stroke:#1A328C;stroke-width:5;stroke-miterlimit:10;}
	.st271{fill:#4890F1;stroke:#1A328C;stroke-width:5;stroke-miterlimit:10;}
	.st272{fill:#6BFFCA;stroke:#1A328C;stroke-width:5;stroke-miterlimit:10;}
	.st273{fill:none;stroke:#0B59C7;stroke-width:5;stroke-linecap:round;stroke-miterlimit:10;}
	.st274{clip-path:url(#SVGID_23_);fill:none;stroke:#FF8B2B;stroke-width:19;stroke-linecap:round;stroke-miterlimit:10;}
	.st275{fill:#FF8B2B;stroke:#0B59C7;stroke-width:5;stroke-linejoin:round;stroke-miterlimit:10;}
	.st276{fill:#FFC99C;}
	.st277{fill:#8AA1F7;stroke:#0B59C7;stroke-width:5;stroke-linejoin:round;stroke-miterlimit:10;}
	.st278{fill:#33DEA7;stroke:#1A328C;stroke-width:5;stroke-miterlimit:10;}
	.st279{fill:#8AA1F7;stroke:#0B59C7;stroke-width:1.5989;stroke-miterlimit:10;}
	.st280{fill:none;stroke:#0B59C7;stroke-width:1.5989;stroke-linecap:round;stroke-miterlimit:10;}
	.st281{fill:none;stroke:#0B59C7;stroke-width:1.5989;stroke-linecap:round;stroke-linejoin:round;stroke-miterlimit:10;}
	.st282{clip-path:url(#SVGID_25_);}
	.st283{fill:none;stroke:#FF8B2B;stroke-width:13.324;stroke-linecap:round;stroke-linejoin:round;stroke-miterlimit:10;}
	.st284{fill:none;stroke:#1A328C;stroke-width:3.1978;stroke-linecap:round;stroke-linejoin:round;stroke-miterlimit:10;}
	.st285{fill:#4890F1;stroke:#1A328C;stroke-width:1.0806;stroke-miterlimit:10;}
	.st286{fill:#4890F1;stroke:#1A328C;stroke-width:1.0806;stroke-linecap:round;stroke-miterlimit:10;}
	.st287{fill:#4890F1;stroke:#1A328C;stroke-width:1.0806;stroke-linecap:round;stroke-linejoin:round;stroke-miterlimit:10;}
	.st288{fill:#8AA1F7;stroke:#1B3BB3;stroke-width:5;stroke-linecap:round;stroke-linejoin:round;stroke-miterlimit:10;}
	.st289{fill:#D1FFEF;stroke:#1B3BB3;stroke-width:5;stroke-linejoin:round;stroke-miterlimit:10;}
	.st290{fill:#AFBFF7;stroke:#1B3BB3;stroke-width:5;stroke-linejoin:round;stroke-miterlimit:10;}
	.st291{fill:#66FFC8;stroke:#1B3BB3;stroke-width:5;stroke-miterlimit:10;}
	.st292{fill:none;stroke:#274CD4;stroke-width:0.9742;stroke-miterlimit:10;}
	.st293{fill:#8AA1F7;stroke:#0653BF;stroke-width:5;stroke-linecap:round;stroke-linejoin:round;stroke-miterlimit:10;}
	.st294{fill:#BAC8FF;}
	.st295{fill:#9EB2FF;}
	.st296{fill:#8AA1F7;stroke:#0B59C7;stroke-width:5;stroke-miterlimit:10;}
	.st297{clip-path:url(#SVGID_29_);}
	.st298{fill:none;stroke:#33DEA7;stroke-width:25;stroke-linecap:round;stroke-linejoin:round;stroke-miterlimit:10;}
	.st299{fill:#0B59C7;stroke:#0B59C7;stroke-width:5;stroke-miterlimit:10;}
	.st300{fill:#4890F1;stroke:#0B59C7;stroke-width:5;stroke-miterlimit:10;}
	.st301{fill:#FF9B47;stroke:#0B59C7;stroke-width:1.6094;stroke-linejoin:round;stroke-miterlimit:10;}
	.st302{fill:#FFC696;}
	.st303{fill:#6CCFAF;stroke:#0B59C7;stroke-width:1.5694;stroke-miterlimit:10;}
	.st304{fill:#9EFFE0;stroke:#0B59C7;stroke-width:1.5694;stroke-miterlimit:10;}
	.st305{fill:none;stroke:#0B59C7;stroke-width:1.5694;stroke-linecap:round;stroke-miterlimit:10;}
	.st306{fill:#00BD80;stroke:#0B59C7;stroke-width:1.5694;stroke-linejoin:round;stroke-miterlimit:10;}
	.st307{fill:#FF8B2B;stroke:#0653BF;stroke-width:1.5522;stroke-linecap:round;stroke-linejoin:round;stroke-miterlimit:10;}
	.st308{fill:none;stroke:#0B59C7;stroke-width:1.5522;stroke-linecap:round;stroke-linejoin:round;stroke-miterlimit:10;}
	.st309{fill:#1D4BB8;}
	.st310{fill:#33DEA7;stroke:#1A328C;stroke-miterlimit:10;}
	.st311{fill:#2DC494;}
	.st312{fill:#E3FFFB;stroke:#1A328C;stroke-miterlimit:10;}
	.st313{fill:#D9E5FF;stroke:#1A328C;stroke-miterlimit:10;}
	.st314{fill:#C9FFEB;}
	.st315{fill:#FFD0A8;}
	.st316{fill:#41F2B3;}
	.st317{fill:#31FFC0;}
	.st318{fill:#5CFFCD;}
	.st319{fill:#87FFDA;}
	.st320{fill:#9CFFE0;}
	.st321{fill:#ADFFE6;}
	.st322{fill:#BAFFEA;}
	.st323{fill:#C4DEFF;}
	.st324{fill:#FFFFFF;stroke:#33DEA7;stroke-width:2.0266;stroke-miterlimit:10;}
	.st325{fill:#FFFFFF;stroke:#FF8B2B;stroke-width:2.0266;stroke-miterlimit:10;}
	.st326{fill:#00BD81;}
	.st327{fill:#FFFFFF;stroke:#4890F1;stroke-width:2.0266;stroke-miterlimit:10;}
	.st328{fill:none;stroke:#1A328C;stroke-width:1.9243;stroke-miterlimit:10;}
	.st329{opacity:0.2;clip-path:url(#SVGID_43_);}
	.st330{clip-path:url(#SVGID_45_);fill:none;stroke:#FF8B2B;stroke-width:9.0959;stroke-linecap:round;stroke-miterlimit:10;}
	.st331{clip-path:url(#SVGID_47_);}
	.st332{clip-path:url(#SVGID_49_);}
	.st333{clip-path:url(#SVGID_53_);fill:none;stroke:#8AA1F7;stroke-width:5;stroke-linecap:round;stroke-miterlimit:10;}
	.st334{clip-path:url(#SVGID_55_);fill:none;stroke:#FF8B2B;stroke-width:19;stroke-linecap:round;stroke-miterlimit:10;}
	.st335{clip-path:url(#SVGID_57_);}
	.st336{clip-path:url(#SVGID_61_);}
	.st337{fill:#FFDCBF;stroke:#BFCCFF;stroke-width:5.4294;stroke-miterlimit:10;}
	.st338{fill:#BFCCFF;}
	.st339{fill:#BFD8FF;stroke:#ADBFFF;stroke-width:3.8251;stroke-miterlimit:10;}
	.st340{fill:#ADBFFF;}
	.st341{fill:#74A9F7;stroke:#6384FF;stroke-width:3.8251;stroke-miterlimit:10;}
	.st342{fill:#74A9F7;}
	.st343{fill:#6384FF;}
	.st344{fill:#94C0FF;stroke:#8FA7FF;stroke-width:4.2215;stroke-miterlimit:10;}
	.st345{fill:#94C0FF;}
	.st346{fill:#8FA7FF;}
	.st347{fill:#FFC899;stroke:#87A1FF;stroke-width:4;stroke-miterlimit:10;}
	.st348{fill:#87A1FF;}
	.st349{fill:#A1FFE6;stroke:#A1B5FF;stroke-width:3;stroke-miterlimit:10;}
	.st350{fill:#A1FFE6;}
	.st351{fill:#CCFFF2;stroke:#BDCAFF;stroke-width:5.4294;stroke-miterlimit:10;}
	.st352{fill:#BDCAFF;}
	.st353{fill:none;stroke:#4890F1;stroke-width:1.7372;stroke-miterlimit:10;}
	.st354{fill:none;stroke:#4890F1;stroke-width:2.5336;stroke-miterlimit:10;}
	.st355{fill:#FFEFE0;stroke:#4890F1;stroke-width:2.5336;stroke-miterlimit:10;}
</style>
<g id="Слой_1">
	<g>
		<circle class="st6" cx="212.76" cy="597.59" r="145.25"/>
		<g>
			<path class="st21" d="M144.25,519.71c-1.94,1.84-4.25,4.74-6.91,8.7c-0.72,1.06-1.3,1.89-1.74,2.51
				c-0.48,0.65-0.8,1.11-0.97,1.38c1.91,1.16,5.61,2.13,11.1,2.92c7.03,1.02,12.25,2.18,15.68,3.48c3.43,1.3,5.9,3.18,7.42,5.65
				c1.52,2.47,2.28,5.84,2.28,10.11c0,2.66-1.23,5.65-3.68,8.95c-2.46,3.31-6.55,6.45-12.28,9.41c-5.73,2.97-12.08,4.45-19.03,4.45
				c-5.7,0-10.58-1.13-14.66-3.38s-6.11-4.14-6.11-5.68c0-3.27,2.06-4.91,6.19-4.91c0.92,0,1.91,0.43,2.97,1.28
				c3.79,2.66,8.14,3.99,13.05,3.99c5.22,0,10.58-1.55,16.09-4.66c5.51-3.1,8.26-6.07,8.26-8.9c0-3.62-1.34-6.39-4.02-8.31
				c-2.68-1.93-6.85-3.2-12.51-3.81l-11.56-1.28c-3.24-0.41-5.75-1.25-7.52-2.53c-1.77-1.28-2.66-2.46-2.66-3.56
				c0-1.16,0.63-2.47,1.89-3.94c0.27-0.37,1.76-2.52,4.45-6.45c5.56-8.29,9.06-12.66,10.51-13.12c1.45-0.46,10.65-0.96,27.61-1.51
				c3-0.07,6.11-0.56,9.31-1.48c2.52-0.68,4.09-1.02,4.71-1.02c2.11,0,3.96,0.63,5.53,1.89c1.13,0.58,1.69,1.21,1.69,1.89
				c0,0.99-0.63,2.23-1.89,3.73c-1.26,1.5-3.08,2.42-5.45,2.76c-2.37,0.34-5.33,0.51-8.88,0.51l-17.09-0.51
				C151,518.28,147.08,518.76,144.25,519.71z"/>
			<path class="st21" d="M202.99,577.38c-5.46,0-9.67-1.86-12.64-5.58c-2.97-3.72-4.45-8.36-4.45-13.92
				c0-6.79,2.08-14.28,6.24-22.46c4.16-8.19,10.22-14.91,18.19-20.16c7.96-5.25,14.98-7.88,21.05-7.88c4.43,0,9.21,1.47,14.33,4.4
				c5.12,2.93,8.7,6.23,10.75,9.88c2.05,3.65,3.07,8.49,3.07,14.53c0,9.04-5.89,18.16-17.68,27.37
				C230.06,572.77,217.11,577.38,202.99,577.38z M239.01,517.31c-0.79,0.99-2.01,1.48-3.68,1.48c-0.24,0-0.89-0.38-1.94-1.13
				c-1.09-0.78-2.08-1.18-2.97-1.18c-4.2,0-7.52,0.66-9.98,1.97c-2.46,1.31-5.83,4.03-10.11,8.16c-4.28,4.13-7.77,8.66-10.46,13.58
				c-2.7,4.93-4.04,9.94-4.04,15.02c0,6.04,1.42,9.82,4.25,11.36s5.92,2.3,9.26,2.3c4.23,0,9.52-1.69,15.86-5.07
				s12.21-7.72,17.6-13.02c5.39-5.3,8.08-9.63,8.08-12.97c0-1.91-0.31-4.14-0.92-6.68c-0.61-2.54-1.29-4.29-2.02-5.24
				c-0.73-0.95-2.1-2.49-4.09-4.6C241.85,519.18,240.24,517.85,239.01,517.31z"/>
		</g>
		<circle class="st129" cx="182.87" cy="540.19" r="152.36"/>
	</g>
	<g>
		<path class="st18" d="M1336.78,427.46c-0.49,0.63-1.55,0.94-3.2,0.94c-0.6,0-1.6-0.08-2.99-0.24c-1.58-0.19-2.71-0.28-3.41-0.28
			h-2.3c-0.67,0-1.28,0.01-1.81,0.03h-1.67c-0.56,0-1.15,0.01-1.77,0.03c-0.51,1-0.77,2.57-0.77,4.73c0,2.64-0.06,4.3-0.17,4.98
			c-0.12,0.65-0.14,1.57-0.07,2.77c0.07,1.19-0.57,1.79-1.91,1.79c-1,0-1.65-0.19-1.97-0.57s-0.47-1.07-0.47-2.07
			c0-0.53,0.2-2.35,0.59-5.46c0.18-1.51,0.37-3.56,0.56-6.16c-1.49-0.14-3.72-0.21-6.72-0.21c-0.51,0-1.19,0.12-2.05,0.35
			c-0.9,0.21-1.5,0.31-1.77,0.31c-0.63,0-1.19-0.24-1.69-0.71c-0.5-0.48-0.75-1.03-0.75-1.65c0-0.46,0.17-0.96,0.5-1.48
			c0.34-0.52,0.71-0.78,1.13-0.78c0.81,0,1.66,0.08,2.54,0.24c0.9,0.16,1.58,0.24,2.02,0.24l6.99-0.35
			c0.28-0.88,0.42-1.79,0.42-2.71c0-1.25-0.09-3.39-0.28-6.4c-0.09-1.25-0.14-2.33-0.14-3.24c0-0.79,0.24-1.58,0.71-2.37
			c0.47-0.79,1.07-1.18,1.79-1.18c0.37,0,0.78,0.38,1.23,1.15c0.45,0.77,0.68,1.36,0.68,1.77c0,1.21-0.1,2.82-0.31,4.84
			c-0.21,2.02-0.31,3.4-0.31,4.14c0,1.18,0.07,2.37,0.21,3.55c0.46,0.16,1.82,0.24,4.07,0.24l7.97-0.14c2.16,0,3.55,0.23,4.18,0.7
			C1336.47,424.72,1336.78,425.79,1336.78,427.46z"/>
		<path class="st18" d="M1364.27,406.72c-1.32,1.25-2.89,3.22-4.7,5.92c-0.49,0.72-0.88,1.29-1.18,1.71
			c-0.33,0.44-0.54,0.75-0.66,0.94c1.3,0.79,3.82,1.45,7.55,1.98c4.78,0.7,8.33,1.48,10.66,2.37c2.33,0.88,4.01,2.16,5.04,3.84
			c1.03,1.68,1.55,3.97,1.55,6.87c0,1.81-0.83,3.84-2.5,6.09c-1.67,2.25-4.45,4.38-8.35,6.4c-3.9,2.02-8.21,3.03-12.94,3.03
			c-3.87,0-7.2-0.77-9.97-2.3c-2.77-1.53-4.16-2.82-4.16-3.86c0-2.23,1.4-3.34,4.21-3.34c0.63,0,1.3,0.29,2.02,0.87
			c2.57,1.81,5.53,2.71,8.87,2.71c3.55,0,7.2-1.06,10.94-3.17c3.75-2.11,5.62-4.13,5.62-6.05c0-2.46-0.91-4.34-2.73-5.65
			s-4.66-2.17-8.51-2.59l-7.86-0.87c-2.2-0.28-3.91-0.85-5.11-1.72c-1.21-0.87-1.81-1.68-1.81-2.42c0-0.79,0.43-1.68,1.29-2.68
			c0.19-0.25,1.19-1.72,3.03-4.38c3.78-5.64,6.16-8.61,7.15-8.92c0.99-0.31,7.24-0.66,18.77-1.03c2.04-0.05,4.15-0.38,6.33-1.01
			c1.72-0.46,2.78-0.7,3.2-0.7c1.44,0,2.69,0.43,3.76,1.29c0.77,0.39,1.15,0.82,1.15,1.29c0,0.67-0.43,1.52-1.29,2.54
			c-0.86,1.02-2.09,1.65-3.71,1.88c-1.61,0.23-3.63,0.35-6.04,0.35l-11.62-0.35C1368.86,405.75,1366.2,406.07,1364.27,406.72z"/>
		<path class="st18" d="M1391.97,451.67c4.31-1.07,7.09-2.58,8.32-4.54c1.23-1.96,1.84-3.36,1.84-4.19c0-2.37-0.33-4.04-0.97-5.01
			c-0.3-0.44-0.45-0.87-0.45-1.29c0-0.35,0.16-0.85,0.47-1.5c0.31-0.65,0.63-0.97,0.96-0.97c0.49,0,1.25,0.18,2.3,0.54
			c1.04,0.36,1.66,0.67,1.84,0.94c0.19,0.27,0.49,1.13,0.92,2.59c0.43,1.46,0.64,2.71,0.64,3.76c0,0.4-0.43,1.62-1.3,3.67
			s-2.06,3.65-3.57,4.8c-1.51,1.15-2.92,1.85-4.24,2.1c-0.53,0.09-1.03,0.22-1.5,0.38c-1.83,0.81-3.33,1.22-4.49,1.22
			c-0.67,0-1.01-0.54-1.01-1.64C1391.72,452.13,1391.8,451.84,1391.97,451.67z"/>
		<path class="st18" d="M1426.83,445.93c-3.71,0-6.58-1.26-8.59-3.79c-2.02-2.53-3.03-5.68-3.03-9.46c0-4.62,1.41-9.71,4.24-15.27
			c2.83-5.57,6.95-10.14,12.37-13.71c5.42-3.57,10.19-5.36,14.32-5.36c3.02,0,6.26,1,9.74,2.99c3.48,2,5.91,4.23,7.31,6.72
			c1.39,2.48,2.09,5.78,2.09,9.88c0,6.15-4.01,12.35-12.02,18.61C1445.24,442.8,1436.43,445.93,1426.83,445.93z M1451.32,405.09
			c-0.53,0.67-1.37,1.01-2.5,1.01c-0.16,0-0.6-0.25-1.32-0.77c-0.74-0.53-1.42-0.8-2.02-0.8c-2.85,0-5.12,0.45-6.79,1.34
			s-3.96,2.74-6.87,5.55c-2.91,2.81-5.28,5.89-7.12,9.24c-1.83,3.35-2.75,6.76-2.75,10.21c0,4.11,0.96,6.68,2.89,7.72
			c1.92,1.04,4.02,1.57,6.3,1.57c2.88,0,6.47-1.15,10.79-3.44s8.3-5.25,11.97-8.85c3.66-3.61,5.5-6.55,5.5-8.82
			c0-1.3-0.21-2.81-0.63-4.54c-0.42-1.73-0.88-2.92-1.38-3.57c-0.5-0.65-1.43-1.69-2.78-3.13
			C1453.26,406.36,1452.16,405.46,1451.32,405.09z"/>
		<path class="st18" d="M1506.75,426.76c5.5-0.95,10.43-4.5,14.79-10.65c2.04-2.85,3.83-4.88,5.38-6.07
			c1.54-1.19,3.18-1.79,4.92-1.79c0.7,0,1.39,0.31,2.09,0.94c0.7,0.63,1.04,1.37,1.04,2.23c0,1.14-1.08,2.03-3.24,2.68
			c-1.14,0.35-2.2,0.94-3.2,1.77c-1,0.83-2.89,2.83-5.67,5.98c-2.18,2.46-4.14,4.19-5.88,5.18c-0.16,0.09-0.24,0.17-0.24,0.24
			c0,0.09,0.1,0.19,0.31,0.28c1.69,0.9,3.48,2.66,5.36,5.25c2.74,3.78,4.79,6.16,6.16,7.15c1.37,0.99,2.93,1.48,4.7,1.48l1.15-0.03
			c0.81-0.05,1.22,0.31,1.22,1.08c0,0.88-0.5,1.8-1.5,2.75c-1,0.95-2.64,1.43-4.94,1.43c-1.76,0-3.47-0.76-5.13-2.28
			c-1.66-1.52-3.56-3.98-5.69-7.39c-1.23-2.02-2.38-3.55-3.44-4.59c-1.07-1.04-2.25-1.57-3.55-1.57c-0.28,0-1.14,0.23-2.58,0.7
			c-1.44,0.46-2.24,0.91-2.42,1.34c-0.17,0.43-0.3,1.97-0.38,4.63c-0.08,2.66-0.12,4.8-0.12,6.42c0,0.86-0.41,1.62-1.22,2.3
			c-0.81,0.67-1.69,1.01-2.64,1.01c-0.97,0-1.74-0.28-2.3-0.85s-0.83-1.15-0.83-1.76c0-0.84,0.31-2.81,0.94-5.92
			c1.11-5.66,2.23-15,3.34-28.01c0.09-1.25,0.57-2.38,1.43-3.39c0.86-1.01,1.83-1.51,2.92-1.51c0.6,0,1.11,0.33,1.51,0.97
			c0.41,0.65,0.61,1.48,0.61,2.5c0,0.81-0.14,1.74-0.42,2.78C1507.9,416.85,1507.08,421.75,1506.75,426.76z"/>
		<path class="st18" d="M1595.55,404.56c-0.83-3.62-1.87-6.15-3.1-7.58c-1.23-1.44-2.85-2.55-4.87-3.34
			c-2.02-0.79-3.84-1.18-5.46-1.18c-0.63,0-1.55,0.24-2.77,0.71s-2.15,0.91-2.8,1.3c-0.91,0.53-1.74,0.8-2.5,0.8
			c-0.88,0-1.32-0.46-1.32-1.39c0-1,0.75-2.38,2.26-4.14s4.16-2.64,7.97-2.64h1.5c3.78,0,7.12,0.99,10.02,2.98
			c2.9,1.98,4.96,4.82,6.18,8.51s1.83,8.64,1.83,14.86c0,4.22-1.33,9.34-4,15.34c-2.67,6.01-6.06,10.55-10.18,13.64
			c-4.12,3.08-8.5,4.63-13.13,4.63c-1.67,0-3.24-0.96-4.7-2.89c-1.46-1.92-2.19-4.31-2.19-7.17c0-5.27,1.15-9.91,3.46-13.93
			c2.31-4.02,4.89-7.29,7.76-9.79c2.87-2.51,6.83-4.52,11.88-6.05c1.67-0.49,2.81-0.87,3.41-1.15
			C1595.38,405.78,1595.64,405.28,1595.55,404.56z M1596.48,411.66c-5.36,1.09-9.46,2.82-12.32,5.18
			c-6.45,6.03-9.67,12.79-9.67,20.28c0,1,0.17,1.93,0.52,2.8c0.35,0.87,0.74,1.3,1.18,1.3c1.72,0,3.28-0.3,4.7-0.9
			c1.42-0.6,3.14-1.86,5.18-3.77c2.04-1.91,3.89-4.29,5.55-7.12c1.66-2.83,2.86-5.55,3.62-8.18c0.75-2.62,1.15-4.63,1.2-6.04
			C1596.5,413.82,1596.51,412.64,1596.48,411.66z"/>
		<path class="st18" d="M1616.8,446.8c-3.18,0-5.8-1.21-7.86-3.62s-3.1-5.39-3.1-8.94c0-5.98,2.01-11.88,6.04-17.69
			c4.02-5.81,8.84-8.72,14.46-8.72c3.71,0,6.72,1.43,9.03,4.28c2.31,2.85,3.46,6.25,3.46,10.19c0,6.03-2.38,11.62-7.15,16.77
			C1626.91,444.23,1621.95,446.8,1616.8,446.8z M1611.97,433.34c0,2.34,0.49,4.26,1.48,5.74c0.99,1.48,2.29,2.23,3.91,2.23
			c3.46,0,6.92-1.9,10.4-5.69s5.22-8.01,5.22-12.65c0-2.85-0.67-5.17-2-6.94c-1.33-1.77-3.13-2.66-5.38-2.66
			c-3.73,0-6.94,2.29-9.62,6.87S1611.97,429.19,1611.97,433.34z"/>
		<path class="st18" d="M1668.44,409.61c5.27,2.13,7.9,7.19,7.9,15.17c0,5.98-1.87,11.22-5.6,15.69c-3.74,4.48-7.79,6.72-12.18,6.72
			c-3.92,0-6.97-1.55-9.15-4.66s-3.27-7.65-3.27-13.64c0-7.21,1.27-14.51,3.81-21.9c2.54-7.39,5.71-12.97,9.5-16.74
			c3.79-3.77,7.63-5.65,11.5-5.65c2.34,0,4.23,0.77,5.65,2.31c1.43,1.54,2.14,3.68,2.14,6.42c0,2.18-0.95,4.77-2.83,7.76
			C1674.01,404.08,1671.52,406.92,1668.44,409.61z M1669.97,425.75c0-3.46-0.64-6.24-1.91-8.35c-1.28-2.11-2.69-3.17-4.24-3.17
			c-0.46,0-3.05,1.79-7.76,5.36c-1.21,0.93-2.38,1.79-3.51,2.57c-0.35,2-0.52,4.19-0.52,6.58c0,4.22,0.63,7.4,1.9,9.53
			c1.26,2.13,3.01,3.2,5.24,3.2c3.11,0,5.69-1.63,7.74-4.89c2.05-3.26,3.08-6.85,3.08-10.77V425.75z M1653.34,415.94
			c8.93-6.89,14.45-11.81,16.56-14.77c2.11-2.96,3.17-5.28,3.17-6.98c0-2.71-1.09-4.07-3.27-4.07c-3.04,0-6.09,2.28-9.17,6.85
			C1657.55,401.55,1655.12,407.87,1653.34,415.94z"/>
		<path class="st18" d="M1714.92,433.27c0,2.37-2.09,5.22-6.28,8.56c-4.19,3.34-8.51,5.01-12.96,5.01c-3.73,0-6.62-1.1-8.65-3.31
			c-2.03-2.2-3.04-5.28-3.04-9.22c0-6.63,2.24-12.94,6.71-18.93c4.48-5.98,9.37-8.98,14.68-8.98c1.74,0,3.16,0.57,4.26,1.71
			c1.1,1.14,1.65,2.5,1.65,4.11c0,3.57-1.75,6.99-5.25,10.26c-3.5,3.27-8.19,6.48-14.06,9.64c-1.21,0.63-1.81,1.44-1.81,2.44
			c0,1.93,0.56,3.47,1.67,4.63c1.11,1.16,2.76,1.74,4.94,1.74c4.99,0,10.08-2.76,15.27-8.28c0.77-0.77,1.35-1.15,1.74-1.15
			C1714.55,431.49,1714.92,432.09,1714.92,433.27z M1690.74,427.84c9.83-5.85,14.75-10.54,14.75-14.09c0-1.39-0.63-2.09-1.88-2.09
			c-2.13,0-4.54,1.57-7.22,4.7C1693.72,419.49,1691.83,423.32,1690.74,427.84z"/>
		<path class="st18" d="M1728.91,441.03c-1.14,4.18-2.2,10.03-3.2,17.57l-0.97,6.58c-0.16,0.93-0.59,1.85-1.29,2.77
			c-0.7,0.92-1.33,1.37-1.91,1.37c-0.72,0-1.54-0.37-2.45-1.1c-0.92-0.73-1.37-1.32-1.37-1.76c0-1.28,0.29-3.04,0.87-5.29
			c4.25-17.14,6.37-32.2,6.37-45.16l-0.03-2.92c-0.05-2.5,0.39-4.33,1.32-5.46c0.93-1.14,1.99-1.71,3.2-1.71
			c0.56,0,1.09,0.44,1.6,1.31c0.51,0.87,0.77,2.1,0.77,3.71c0,2.25-0.23,4.98-0.7,8.18c-0.6,4.04-0.92,6.36-0.94,6.96
			c3.46-6.03,7.12-10.74,10.99-14.13c3.87-3.39,7.47-5.08,10.79-5.08c2.34,0,4.32,0.88,5.93,2.63c1.61,1.75,2.42,3.93,2.42,6.52
			c0,7.56-2.9,14.43-8.7,20.6c-5.8,6.17-11.45,9.26-16.94,9.26c-1.37,0-2.45-0.35-3.25-1.04
			C1730.6,444.12,1729.77,442.86,1728.91,441.03z M1750.52,413.02c-3.27,0-7.32,3.06-12.14,9.19c-4.83,6.12-7.24,10.89-7.24,14.3
			c0,0.83,0.48,1.65,1.43,2.44s2.16,1.18,3.62,1.18c3.32,0,7.13-2.45,11.45-7.36c4.31-4.91,6.47-9.73,6.47-14.46
			c0-1.69-0.34-3-1.03-3.91C1752.39,413.48,1751.54,413.02,1750.52,413.02z"/>
		<path class="st18" d="M1792.82,429.93c-2.97,4.99-6.01,8.85-9.12,11.59c-3.11,2.74-6,4.11-8.66,4.11c-1.53,0-3.09-0.89-4.68-2.68
			c-1.59-1.79-2.38-4.53-2.38-8.25c0-3.04,0.73-7.52,2.19-13.43c1.23-4.94,1.84-8.41,1.84-10.4c0.67-1.39,1.73-2.09,3.17-2.09
			c0.97,0,1.75,0.34,2.33,1.03c0.58,0.68,0.87,1.4,0.87,2.14c0,1.62-0.57,3.93-1.71,6.92c-2.16,5.82-3.24,10.82-3.24,15
			c0,3.8,0.88,5.71,2.64,5.71c2.25,0,5.11-1.91,8.59-5.74s6.46-9.16,8.94-16.01c0.97-2.74,1.77-4.52,2.38-5.34
			c0.61-0.82,1.44-1.23,2.49-1.23c1.58,0,2.37,1.04,2.37,3.13c0,0.26-0.22,1.1-0.66,2.54c-1.39,5.08-2.09,9.88-2.09,14.4
			c0,5.43,0.89,8.94,2.68,10.54c0.93,0.86,1.39,1.55,1.39,2.09c0,0.65-0.47,1.24-1.41,1.77c-0.94,0.53-1.79,0.8-2.56,0.8
			c-1.62,0-2.93-1.21-3.93-3.62c-1-2.41-1.5-5.97-1.5-10.68v-1.15C1792.79,430.71,1792.8,430.32,1792.82,429.93z"/>
		<path class="st18" d="M1837.26,423.04c0.05-0.12,0.1-0.23,0.17-0.35l0.24-0.42c2.11-5.17,4.76-9.14,7.95-11.92
			c3.19-2.77,6.67-4.16,10.46-4.16c3.71,0,6.72,1.43,9.03,4.28c2.31,2.85,3.46,6.25,3.46,10.19c0,6.03-2.38,11.62-7.15,16.77
			s-9.72,7.72-14.87,7.72c-3.16,0-5.77-1.21-7.85-3.62c-2.08-2.41-3.11-5.38-3.11-8.91l-0.07-1.43c-0.05-0.81-0.1-1.32-0.16-1.53
			c-0.06-0.21-0.3-0.31-0.71-0.31h-6.02c-2.23,0.02-4.15,0.19-5.78,0.49c-1.62,0.3-2.59,0.59-2.91,0.87
			c-0.31,0.28-0.55,0.89-0.71,1.84c-0.25,1.48-0.48,2.56-0.66,3.24c-0.21,0.79-0.31,1.61-0.31,2.47l0.14,2.92
			c0,1.04-0.28,2.15-0.85,3.32c-0.57,1.17-1.47,1.76-2.7,1.76c-1.9,0-2.85-1.24-2.85-3.72l0.14-3.06c0-0.37,0.25-2.16,0.77-5.36
			c0.63-3.94,1.22-10.14,1.77-18.58c0.19-2.71,0.32-4.38,0.4-5.01c0.08-0.63,0.5-1.24,1.25-1.83c0.75-0.59,1.58-0.89,2.49-0.89
			c1.67,0,2.5,0.68,2.5,2.05c0,0.21-0.27,1.95-0.8,5.22c-0.56,3.27-0.83,5.81-0.83,7.62c0,1.28,0.44,1.91,1.32,1.91
			c1.93,0,5.1-0.19,9.52-0.57S1837.19,423.34,1837.26,423.04z M1841.71,431.7c0,2.34,0.49,4.26,1.48,5.74
			c0.99,1.48,2.29,2.23,3.91,2.23c3.46,0,6.92-1.9,10.4-5.69c3.48-3.79,5.22-8.01,5.22-12.65c0-2.85-0.67-5.17-2-6.94
			c-1.33-1.77-3.13-2.66-5.38-2.66c-3.74,0-6.94,2.29-9.62,6.87C1843.05,423.18,1841.71,427.55,1841.71,431.7z"/>
	</g>
	<g>
		<g>
			<g>
				<path class="st130" d="M468.23,942.4c0,0-24.21-204.06,435.79-83.01c0,0,323.35,84.27,372.65,175.3l104.64-40.41
					c0,0-338.95-238.65-760.91-235.19C620.41,759.09,374.85,772.92,468.23,942.4z"/>
				<path class="st131" d="M1427.5,990.21l-11.83-25.98c-8.13-17.86-29.19-25.74-47.05-17.61l-131.98,60.08
					c-17.86,8.13-25.74,29.19-17.61,47.05l15.11,33.2c-19.75,43.61-21.44,95.13-0.04,142.12c39.33,86.39,141.24,124.54,227.63,85.21
					c86.39-39.33,124.54-141.24,85.21-227.63C1523.66,1035.53,1478.42,1001.49,1427.5,990.21z M1333.15,1043.7
					c-32.09,14.61-62.65,16.44-68.27,4.1c-5.62-12.34,15.84-34.19,47.93-48.79s62.65-16.44,68.27-4.1
					C1386.7,1007.25,1365.24,1029.09,1333.15,1043.7z"/>
				<path class="st132" d="M1517.14,1103.35c34.87,70.06,6.34,155.12-63.72,189.99c-70.06,34.87-155.12,6.34-189.99-63.72
					c-15.54-31.23-18.49-65.45-10.77-96.86"/>
				<g>
					<path class="st21" d="M1355.67,1228.37c1.13-0.45,3.9-1.24,8.32-2.36c2.06-0.45,3.66-0.91,4.79-1.36
						c6.85-2.75,8.63-9.74,5.34-20.96c-1.9-6.35-8.61-23.88-20.14-52.57c-1.75-4.35-3.85-7.02-6.3-8
						c-2.45-0.98-6.02-0.53-10.69,1.35c-1.13,0.45-2.69,1.22-4.69,2.31c-1.55,0.81-2.93,1.46-4.13,1.94
						c-2.74,1.1-5.26,1.25-7.55,0.44c-2.29-0.81-3.92-2.43-4.9-4.85c-1.04-2.58-0.78-5.66,0.78-9.23c1.56-3.58,4.25-7.26,8.06-11.04
						c18.92-18.84,41.24-33.42,66.95-43.76c7.01-2.82,12.44-4.04,16.29-3.67c3.85,0.38,6.5,2.38,7.96,6c0.84,2.1,0.97,3.94,0.4,5.53
						c-0.58,1.59-2.16,3.7-4.76,6.34c-4.13,4.19-5.92,7.99-5.38,11.43s4.9,15.91,13.08,37.43c9.32,21.34,14.34,32.76,15.03,34.26
						c0.69,1.5,1.88,3.51,3.54,6.02c2.68,3.88,5.68,6.1,8.99,6.64s8.37-0.37,15.19-2.73c7.7-2.72,12.74-1.14,15.11,4.74
						c2.46,6.13-1.28,12.31-11.22,18.55c-13.84,8.65-28.62,16.14-44.34,22.45c-10.32,4.15-20.31,7.46-29.99,9.94
						c-12.18,3.02-21.92,4.64-29.22,4.86c-7.12,0.24-11.58-1.9-13.39-6.42c-0.97-2.42-0.81-4.92,0.5-7.5
						C1350.59,1231.58,1352.72,1229.64,1355.67,1228.37z"/>
				</g>
				<path class="st133" d="M1381.32,994.28c0,0-770.85,337.64-912.5-50.85c-5.38-14.76-9.86-30.57-13.35-47.49
					c-0.94-4.57-1.63-9.22-1.79-13.89c-3.27-96.8,166.73-122.96,166.73-122.96s-233.92-2.46-257.15,183.75
					c-13.35,107.01,45.36,210.96,143.25,256.19c240.19,110.96,679.36-44.6,764.98-145.33L1381.32,994.28z"/>
			</g>
			<g>
				<path class="st134" d="M1296.05,679.46c0,0-33.46-169.75-370.63,46.37c0,0-237.22,151.27-253.15,236.96l-94.3-5.27
					c0,0,209.74-278.98,548.68-385.5C1126.66,572.02,1326.97,519.5,1296.05,679.46z"/>
				<path class="st135" d="M469.22,1074.42c-9.13,79.4,47.83,151.16,127.22,160.29s151.16-47.83,160.29-127.22
					c4.97-43.19-9.73-84.03-36.85-113.85l3.51-30.51c1.89-16.41-9.89-31.24-26.3-33.13l-121.3-13.95
					c-16.41-1.89-31.24,9.89-33.13,26.3l-2.75,23.88C502.05,988.45,474.62,1027.44,469.22,1074.42z M578.33,957.96
					c1.3-11.34,26.27-17.79,55.76-14.4c29.49,3.39,52.34,15.34,51.03,26.68c-1.3,11.34-26.27,17.79-55.76,14.4
					C599.87,981.25,577.03,969.3,578.33,957.96z"/>
				<path class="st132" d="M497.41,1080.08c-9.79,65.16,35.1,125.91,100.26,135.7c65.16,9.79,125.91-35.1,135.7-100.26
					c4.36-29.05-2.14-57.22-16.46-80.39"/>
				<g>
					<path class="st18" d="M560.36,1127.15c1,0.21,3.32,0.94,6.94,2.21c1.66,0.64,2.99,1.06,3.99,1.27
						c6.09,1.25,10.59-2.82,13.49-12.23c1.62-5.34,5.06-20.76,10.31-46.27c0.8-3.87,0.56-6.72-0.7-8.55
						c-1.27-1.83-3.98-3.17-8.13-4.03c-1-0.21-2.46-0.39-4.36-0.56c-1.46-0.15-2.73-0.34-3.81-0.56c-2.44-0.5-4.27-1.57-5.5-3.2
						c-1.23-1.63-1.63-3.53-1.18-5.68c0.47-2.29,2.08-4.33,4.84-6.11c2.76-1.79,6.35-3.12,10.79-4c22.04-4.42,44.49-4.28,67.34,0.42
						c6.23,1.28,10.61,2.95,13.14,5c2.53,2.06,3.46,4.69,2.8,7.91c-0.38,1.86-1.15,3.22-2.29,4.06c-1.15,0.85-3.24,1.59-6.28,2.24
						c-4.84,1.02-7.87,2.86-9.09,5.52c-1.22,2.66-3.96,13.45-8.23,32.36c-3.38,19.32-5.17,29.66-5.38,31.04
						c-0.21,1.38-0.31,3.33-0.31,5.87c0.08,3.97,1.15,6.92,3.22,8.84s6.05,3.63,11.93,5.15c6.67,1.67,9.47,5.12,8.4,10.35
						c-1.12,5.44-6.62,8.05-16.5,7.8c-13.74-0.36-27.59-1.98-41.56-4.86c-9.17-1.89-17.73-4.21-25.67-6.97
						c-9.95-3.54-17.54-6.93-22.77-10.18c-5.11-3.14-7.24-6.72-6.42-10.73c0.44-2.15,1.72-3.83,3.84-5.03
						C555.3,1127.04,557.69,1126.67,560.36,1127.15z"/>
				</g>
				<path class="st136" d="M593.41,958.9c0,0,689.58,69.46,702.44-278.47c0.49-13.22-0.02-27.05-1.61-41.5
					c-0.43-3.91-1.08-7.81-2.16-11.59c-22.45-78.4-165.42-55.32-165.42-55.32s186.76-62.56,253.61,80.6
					c38.41,82.27,18.3,180.76-48.41,242.35c-163.69,151.11-534.06,128.44-661.34,87.2L593.41,958.9z"/>
			</g>
			<g>
				<path d="M343.82,1478.16c-1.77,0-3.14-0.84-4.09-2.53s-1.43-4.97-1.43-9.85c0-8.39,1.98-26.44,5.94-54.13
					c0.24-1.19-0.19-1.92-1.28-2.17s-5.56-0.38-13.41-0.38c-10.71,0-16.85,0.63-18.42,1.89c-1.57,1.26-2.8,6.96-3.68,17.09
					c-0.34,4.03-1.33,10.56-2.97,19.6c-1.98,10.85-2.97,18.57-2.97,23.18l0.21,3.22c0,3.07-1.47,4.6-4.4,4.6
					c-3.51,0-5.27-2.2-5.27-6.6c0-3.51,0.29-6.62,0.87-9.31c0.95-4.57,1.76-8.97,2.4-13.2c0.41-2.66,0.89-5.54,1.43-8.65
					c2.18-12.35,3.27-21.15,3.27-26.4c0-1.77-0.82-2.75-2.46-2.92c-3.24-0.38-4.86-1.71-4.86-3.99c0-1.53,0.4-2.78,1.2-3.73
					c0.8-0.95,1.85-1.47,3.15-1.54c3.27-0.14,5.66-0.67,7.16-1.59c1.36-0.68,2.39-1.02,3.07-1.02c1.4,0,2.61,0.31,3.63,0.92
					c1.13,0.68,4.4,1.02,9.82,1.02c0.07,0,3.69-0.1,10.87-0.31c7.18-0.2,11.11-0.38,11.79-0.51c0.68-0.14,1.52-0.41,2.51-0.82
					c1.6-0.68,2.92-1.02,3.94-1.02l4.09,0.61l4.55-0.31c2.76,0,4.14,1.21,4.14,3.63c0,1.57-0.51,2.89-1.53,3.97
					c-1.02,1.07-2.18,1.65-3.48,1.71c-0.92,0.07-1.72,0.4-2.41,1c-0.68,0.6-1.59,3.2-2.71,7.8c-1.13,4.6-2.23,12.67-3.3,24.2
					c-1.08,11.53-1.61,21.9-1.61,31.11v1.84c0,0.72-0.44,1.46-1.33,2.23C345.39,1477.57,344.57,1478.02,343.82,1478.16z"/>
				<path d="M383.27,1478.31c-4.67,0-8.53-1.77-11.56-5.32c-3.04-3.55-4.55-7.93-4.55-13.15c0-8.8,2.96-17.47,8.88-26.02
					c5.92-8.54,13-12.82,21.26-12.82c5.46,0,9.88,2.1,13.28,6.29c3.39,4.2,5.09,9.19,5.09,14.99c0,8.87-3.5,17.09-10.51,24.66
					S390.84,1478.31,383.27,1478.31z M376.15,1458.51c0,3.45,0.72,6.26,2.17,8.44c1.45,2.18,3.37,3.27,5.76,3.27
					c5.08,0,10.18-2.79,15.3-8.37c5.12-5.58,7.68-11.78,7.68-18.6c0-4.2-0.98-7.6-2.94-10.21c-1.96-2.61-4.6-3.91-7.91-3.91
					c-5.49,0-10.21,3.37-14.15,10.11C378.12,1445.98,376.15,1452.4,376.15,1458.51z"/>
				<path d="M437.97,1448.84c8.08-1.4,15.33-6.62,21.75-15.66c3-4.2,5.64-7.17,7.91-8.93c2.27-1.76,4.68-2.64,7.24-2.64
					c1.02,0,2.05,0.46,3.07,1.38s1.54,2.01,1.54,3.27c0,1.67-1.59,2.99-4.76,3.94c-1.67,0.51-3.24,1.38-4.71,2.61
					s-4.25,4.16-8.34,8.8c-3.21,3.62-6.09,6.16-8.65,7.62c-0.24,0.14-0.36,0.26-0.36,0.36c0,0.14,0.15,0.27,0.46,0.41
					c2.49,1.33,5.12,3.91,7.88,7.73c4.02,5.56,7.04,9.07,9.06,10.51c2.01,1.45,4.31,2.17,6.91,2.17l1.69-0.05
					c1.19-0.07,1.79,0.46,1.79,1.59c0,1.3-0.73,2.64-2.2,4.04c-1.47,1.4-3.89,2.1-7.27,2.1c-2.59,0-5.11-1.12-7.55-3.35
					c-2.44-2.23-5.23-5.86-8.37-10.87c-1.81-2.97-3.5-5.22-5.07-6.75c-1.57-1.53-3.31-2.3-5.22-2.3c-0.41,0-1.67,0.34-3.79,1.02
					c-2.12,0.68-3.3,1.34-3.56,1.97c-0.26,0.63-0.44,2.9-0.56,6.81c-0.12,3.91-0.18,7.05-0.18,9.44c0,1.26-0.6,2.39-1.79,3.38
					c-1.19,0.99-2.49,1.48-3.89,1.48c-1.43,0-2.56-0.42-3.38-1.25c-0.82-0.84-1.23-1.7-1.23-2.58c0-1.23,0.46-4.13,1.38-8.7
					c1.64-8.32,3.27-22.05,4.91-41.19c0.14-1.84,0.84-3.5,2.1-4.99s2.69-2.23,4.3-2.23c0.89,0,1.63,0.48,2.23,1.43
					c0.6,0.96,0.9,2.18,0.9,3.68c0,1.19-0.21,2.56-0.61,4.09C439.65,1434.26,438.44,1441.47,437.97,1448.84z"/>
				<path d="M522.19,1457.13c-4.78,6.41-9.5,11.22-14.17,14.43c-4.67,3.21-8.95,4.81-12.84,4.81c-2.63,0-4.89-1.11-6.8-3.33
					c-1.91-2.22-2.87-5.07-2.87-8.54c0-8.97,4.01-18.63,12.02-28.99c8.02-10.35,15.98-15.53,23.9-15.53c2.87,0,5,1.64,6.4,4.91
					c0.44,1.09,1.14,1.64,2.1,1.64c2.73,0,4.09,1.06,4.09,3.17c0,1.06-0.17,2.51-0.51,4.35c-1.84,10.06-2.76,17.16-2.76,21.29
					c0,8.26,1.57,13.2,4.71,14.84c1.5,0.82,2.25,1.83,2.25,3.02c0,1.06-0.73,2.12-2.2,3.2c-1.47,1.07-2.88,1.61-4.25,1.61
					c-2.63,0-4.79-1.81-6.5-5.42C523.04,1468.97,522.19,1463.81,522.19,1457.13z M519.06,1428.32c-4.5,0-9.74,4.22-15.71,12.66
					s-8.95,15.44-8.95,21c0,3.92,1.3,5.88,3.89,5.88c3.75,0,8.96-3.79,15.61-11.36c6.65-7.57,9.98-14.53,9.98-20.88
					C523.87,1430.76,522.27,1428.32,519.06,1428.32z"/>
				<path d="M574.22,1444.29c4.4,0.72,7.83,2.34,10.28,4.86c2.46,2.52,3.68,5.61,3.68,9.26c0,5.77-2.44,10.57-7.32,14.4
					c-4.88,3.84-11.29,5.76-19.24,5.76c-4.74,0-8.83-1.02-12.25-3.07c-3.43-2.05-5.14-4.31-5.14-6.81c0-2.05,1.18-3.07,3.53-3.07
					c0.34,0,0.87,0.29,1.59,0.87c3.75,3.24,8.2,4.86,13.35,4.86c4.54,0,8.44-1.19,11.72-3.58c3.28-2.39,4.91-5.49,4.91-9.31
					c0-2.52-0.93-4.63-2.79-6.32c-1.86-1.69-4.02-2.53-6.47-2.53c-1.88,0-5.17,0.73-9.88,2.2c-0.92,0.31-1.91,0.46-2.97,0.46
					c-2.05,0-3.07-1.38-3.07-4.14c0-0.95,0.49-1.72,1.46-2.3c0.97-0.58,3.06-1.25,6.27-2c9.72-2.22,14.58-6.16,14.58-11.82
					c0-1.71-0.61-3.11-1.82-4.22c-1.21-1.11-2.77-1.66-4.68-1.66c-3.55,0-7.33,1.57-11.36,4.71c-2.35,1.84-4.14,2.76-5.37,2.76
					c-2.08,0-3.12-0.97-3.12-2.92c0-2.56,2.41-5.18,7.24-7.85c4.83-2.68,9.46-4.02,13.89-4.02c4.43,0,7.92,1.18,10.46,3.53
					c2.54,2.35,3.81,4.83,3.81,7.42C585.53,1435.93,581.76,1440.77,574.22,1444.29z"/>
				<path d="M634.09,1457.13c-4.78,6.41-9.5,11.22-14.17,14.43c-4.67,3.21-8.95,4.81-12.84,4.81c-2.63,0-4.89-1.11-6.8-3.33
					c-1.91-2.22-2.87-5.07-2.87-8.54c0-8.97,4.01-18.63,12.02-28.99c8.02-10.35,15.98-15.53,23.9-15.53c2.87,0,5,1.64,6.4,4.91
					c0.44,1.09,1.14,1.64,2.1,1.64c2.73,0,4.09,1.06,4.09,3.17c0,1.06-0.17,2.51-0.51,4.35c-1.84,10.06-2.76,17.16-2.76,21.29
					c0,8.26,1.57,13.2,4.71,14.84c1.5,0.82,2.25,1.83,2.25,3.02c0,1.06-0.73,2.12-2.2,3.2c-1.47,1.07-2.88,1.61-4.25,1.61
					c-2.63,0-4.79-1.81-6.5-5.42C634.94,1468.97,634.09,1463.81,634.09,1457.13z M630.97,1428.32c-4.5,0-9.74,4.22-15.71,12.66
					s-8.95,15.44-8.95,21c0,3.92,1.3,5.88,3.89,5.88c3.75,0,8.96-3.79,15.61-11.36s9.98-14.53,9.98-20.88
					C635.78,1430.76,634.17,1428.32,630.97,1428.32z"/>
				<path d="M699.74,1435.28c-3.17,0.07-9.96,9.47-20.36,28.19c-3.51,6.31-5.56,9.75-6.14,10.31c-0.58,0.56-1.65,1.07-3.2,1.51
					c-1.55,0.44-2.84,0.67-3.86,0.67c-2.29,0-3.43-4.45-3.43-13.35c0-5.01,1.07-14.09,3.22-27.22c0.89-5.32,1.33-9.12,1.33-11.41
					c0-2.25,1.01-3.38,3.02-3.38c3.79,0,5.68,2.73,5.68,8.19c0,2.56-0.63,7.57-1.89,15.04c-1.47,8.53-2.22,13.71-2.25,15.55
					c2.11-2.05,5.22-6.53,9.31-13.46c5.8-9.48,10.07-15.49,12.82-18.04c2.75-2.54,5.59-3.81,8.52-3.81c2.22,0,3.98,1.48,5.3,4.45
					c1.31,2.97,2.11,10.05,2.38,21.23c0.07,2.8,0.32,4.88,0.77,6.24c0.44,1.36,0.77,2.05,0.97,2.05c1.6,0,5.08-5.46,10.44-16.37
					c2.87-5.76,5.65-10.15,8.37-13.15c2.71-3,5.72-4.5,9.03-4.5c2.76,0,4.78,1.42,6.04,4.27c1.26,2.85,2.17,7.07,2.71,12.66
					c0.51,5.66,1.31,10.85,2.38,15.55s3.04,7.73,5.91,9.06c1.94,0.92,2.92,2,2.92,3.22c0,1.19-0.82,2.42-2.46,3.68
					c-1.64,1.26-3.14,1.89-4.5,1.89c-2.73,0-5.17-1.67-7.32-5.01c-2.15-3.34-3.77-10.57-4.86-21.69c-0.48-4.47-0.94-7.64-1.38-9.52
					c-0.44-1.88-1.14-2.81-2.1-2.81c-1.43,0-3.13,1.36-5.09,4.09c-1.96,2.73-5.13,8.27-9.49,16.63c-3.41,6.52-6,10.86-7.75,13.02
					c-1.76,2.17-3.45,3.25-5.09,3.25c-1.47,0-2.78-0.59-3.94-1.77c-1.16-1.18-1.89-2.59-2.2-4.25c-0.31-1.65-0.63-5.72-0.97-12.2
					C702.04,1443.33,701.1,1437.05,699.74,1435.28z"/>
				<path d="M812.61,1458.41c0,3.48-3.08,7.68-9.24,12.59c-6.16,4.91-12.51,7.37-19.06,7.37c-5.49,0-9.73-1.62-12.71-4.86
					c-2.99-3.24-4.48-7.76-4.48-13.56c0-9.76,3.29-19.03,9.88-27.83c6.58-8.8,13.78-13.2,21.59-13.2c2.56,0,4.65,0.84,6.27,2.51
					c1.62,1.67,2.43,3.68,2.43,6.04c0,5.25-2.58,10.28-7.73,15.09c-5.15,4.81-12.04,9.53-20.67,14.17
					c-1.77,0.92-2.66,2.12-2.66,3.58c0,2.83,0.82,5.1,2.46,6.81c1.64,1.71,4.06,2.56,7.27,2.56c7.33,0,14.82-4.06,22.46-12.18
					c1.13-1.13,1.98-1.69,2.56-1.69C812.06,1455.8,812.61,1456.67,812.61,1458.41z M777.05,1450.43c14.46-8.6,21.7-15.5,21.7-20.72
					c0-2.05-0.92-3.07-2.76-3.07c-3.14,0-6.68,2.3-10.62,6.91C781.42,1438.15,778.65,1443.77,777.05,1450.43z"/>
				<path d="M852.01,1434.05c-0.82-0.03-1.62,0.75-2.4,2.35c-7.06,14.12-12.4,23.71-16.02,28.76c-0.31,0.44-0.7,1.09-1.18,1.94
					c-4.26,7.61-7.39,11.41-9.36,11.41c-2.66,0-3.99-1.28-3.99-3.84c0-2.32,1.65-5.47,4.96-9.47c3.21-3.79,7.42-10.21,12.64-19.26
					c5.22-9.06,9.45-17.18,12.69-24.38c0.61-1.3,1.54-1.94,2.76-1.94c0.51,0,1.42,0.23,2.74,0.69c1.31,0.46,2.16,0.96,2.53,1.51
					c0.38,0.55,1.21,3.72,2.51,9.52c4.2,20.91,8.61,33.31,13.25,37.2c1.09,0.96,1.74,1.59,1.94,1.92c0.21,0.32,0.31,0.78,0.31,1.36
					c0,1.06-0.34,2.02-1.02,2.89c-0.68,0.87-1.35,1.42-2,1.66c-0.65,0.24-1.98,0.36-3.99,0.36c-0.72,0-2.39-1.77-5.01-5.3
					c-2.63-3.53-5.7-13.16-9.21-28.88C853.31,1438.32,852.59,1435.48,852.01,1434.05z"/>
				<path d="M897.75,1417.78c0.44-0.31,0.94-0.46,1.48-0.46c0.85,0,1.57,1.14,2.15,3.43c0,1.47-0.39,3.33-1.18,5.58
					c-2.32,6.45-3.48,10.95-3.48,13.51c0,0.68,0.21,1.06,0.61,1.13c7.85-7.54,15.11-11.31,21.8-11.31c4.13,0,7.59,1.56,10.39,4.68
					c2.8,3.12,4.2,5.98,4.2,8.57c0,7.91-4.03,15.51-12.1,22.79c-8.07,7.28-16.19,10.92-24.38,10.92c-3.65,0-6.49-1.51-8.52-4.53
					c-2.03-3.02-3.04-7.34-3.04-12.97c0-6.11,0.77-12.86,2.3-20.26c1.54-7.4,2.76-12.35,3.68-14.84c0.38-1.06,0.72-2.13,1.02-3.22
					C893.03,1419.44,894.72,1418.43,897.75,1417.78z M895.35,1449.86c-0.68,3.79-1.02,7.57-1.02,11.36c0,5.15,2.03,7.73,6.09,7.73
					c4.57,0,9.69-2.73,15.35-8.19c5.66-5.46,8.49-10.76,8.49-15.91c0-2.11-0.56-3.89-1.69-5.32c-1.13-1.43-2.68-2.15-4.66-2.15
					c-2.7,0-5.35,0.67-7.96,2.02c-2.61,1.35-5.52,3.52-8.72,6.52c-1.23,1.16-2.21,2.06-2.94,2.69
					C897.56,1449.24,896.58,1449.66,895.35,1449.86z"/>
				<path d="M981.26,1442.34c0.38-0.72,0.97-5,1.79-12.84c0.61-6.28,2.61-9.42,5.99-9.42c2.76,0,4.14,1.38,4.14,4.14
					c0,0.65-0.24,1.96-0.72,3.94c-2.63,10.88-3.94,20.01-3.94,27.37c0,7.98,1.31,13.15,3.94,15.5c1.36,1.26,2.05,2.29,2.05,3.07
					c0,0.96-0.69,1.82-2.07,2.61c-1.38,0.78-2.64,1.18-3.76,1.18c-5.32,0-7.98-8.22-7.98-24.66c0-1.09-0.41-1.64-1.23-1.64
					c-3.21,0-7.13,0.19-11.77,0.56c-4.64,0.38-7.96,0.85-9.95,1.43c-2,0.58-3.22,1.12-3.68,1.61c-0.46,0.49-0.87,1.81-1.23,3.94
					s-0.54,4.34-0.54,6.63v6.29c0,3.65-1.67,5.48-5.01,5.48c-2.8,0-4.2-1.82-4.2-5.48c0-2.39,0.31-5.42,0.92-9.11
					c1.13-6.75,2.25-18.39,3.38-34.9c0.14-2.15,0.32-3.51,0.56-4.09c0.24-0.58,0.86-1.22,1.87-1.92c1-0.7,2.11-1.05,3.3-1.05
					c2.46,0,3.68,1.01,3.68,3.02c0,0.31-0.39,2.87-1.18,7.68c-0.82,4.81-1.23,8.54-1.23,11.21c0,1.88,0.65,2.81,1.94,2.81
					c2.59,0,7.33-0.44,14.22-1.3C977.45,1443.54,981.02,1442.85,981.26,1442.34z"/>
				<path d="M1017.13,1417.78c0.44-0.31,0.94-0.46,1.48-0.46c0.85,0,1.57,1.14,2.15,3.43c0,1.47-0.39,3.33-1.18,5.58
					c-2.32,6.45-3.48,10.95-3.48,13.51c0,0.68,0.21,1.06,0.61,1.13c7.85-7.54,15.11-11.31,21.8-11.31c4.13,0,7.59,1.56,10.39,4.68
					c2.8,3.12,4.2,5.98,4.2,8.57c0,7.91-4.03,15.51-12.1,22.79c-8.07,7.28-16.19,10.92-24.38,10.92c-3.65,0-6.49-1.51-8.52-4.53
					c-2.03-3.02-3.04-7.34-3.04-12.97c0-6.11,0.77-12.86,2.3-20.26c1.54-7.4,2.76-12.35,3.68-14.84c0.38-1.06,0.72-2.13,1.02-3.22
					C1012.4,1419.44,1014.09,1418.43,1017.13,1417.78z M1014.72,1449.86c-0.68,3.79-1.02,7.57-1.02,11.36
					c0,5.15,2.03,7.73,6.09,7.73c4.57,0,9.69-2.73,15.35-8.19c5.66-5.46,8.49-10.76,8.49-15.91c0-2.11-0.56-3.89-1.69-5.32
					c-1.13-1.43-2.68-2.15-4.66-2.15c-2.7,0-5.35,0.67-7.96,2.02c-2.61,1.35-5.52,3.52-8.72,6.52c-1.23,1.16-2.21,2.06-2.94,2.69
					C1016.93,1449.24,1015.95,1449.66,1014.72,1449.86z M1066.25,1461.63c0,2.59,0.36,5.51,1.07,8.75c0.14,0.61,0.2,1.13,0.2,1.54
					c0,0.61-0.56,1.41-1.69,2.38c-1.13,0.97-2.32,1.46-3.58,1.46c-3.31,0-4.96-3.04-4.96-9.11c0-6.04,1.31-16.17,3.94-30.39
					c0.95-5.18,1.43-8.32,1.43-9.42c0-2.15,0.39-3.98,1.18-5.5c0.78-1.52,1.89-2.28,3.33-2.28c1.74,0,3.11,0.42,4.12,1.25
					c1.01,0.84,1.51,1.77,1.51,2.79s-0.24,2.44-0.72,4.25c-2.66,9.72-4.3,16.53-4.91,20.42
					C1066.55,1451.65,1066.25,1456.28,1066.25,1461.63z"/>
				<path d="M1119.15,1453.5c-4.37,7.33-8.84,13.01-13.41,17.04c-4.57,4.03-8.82,6.04-12.74,6.04c-2.25,0-4.55-1.31-6.88-3.94
					c-2.34-2.63-3.5-6.67-3.5-12.13c0-4.47,1.08-11.05,3.22-19.75c1.81-7.27,2.71-12.36,2.71-15.3c0.99-2.05,2.54-3.07,4.66-3.07
					c1.43,0,2.58,0.5,3.43,1.51c0.85,1.01,1.28,2.06,1.28,3.15c0,2.39-0.84,5.78-2.51,10.18c-3.17,8.56-4.76,15.91-4.76,22.05
					c0,5.59,1.3,8.39,3.89,8.39c3.31,0,7.52-2.81,12.64-8.44c5.12-5.63,9.5-13.47,13.15-23.54c1.43-4.02,2.6-6.64,3.5-7.85
					c0.9-1.21,2.12-1.82,3.66-1.82c2.32,0,3.48,1.54,3.48,4.6c0,0.38-0.33,1.62-0.97,3.74c-2.05,7.47-3.07,14.53-3.07,21.18
					c0,7.98,1.31,13.15,3.94,15.5c1.36,1.26,2.05,2.29,2.05,3.07c0,0.96-0.69,1.82-2.07,2.61c-1.38,0.78-2.64,1.18-3.76,1.18
					c-2.39,0-4.32-1.77-5.78-5.32s-2.2-8.78-2.2-15.71v-1.69C1119.1,1454.64,1119.12,1454.08,1119.15,1453.5z M1133.99,1400.79
					c0,0.61-0.18,1.42-0.54,2.43c-0.36,1.01-0.86,2.06-1.51,3.15c-0.65,1.09-1.43,2.18-2.35,3.27c-0.92,1.09-1.96,2.03-3.12,2.81
					c-0.82,0.58-1.8,1.12-2.94,1.61c-1.14,0.5-2.35,0.91-3.61,1.25c-1.26,0.34-2.55,0.61-3.86,0.79c-1.31,0.19-2.57,0.28-3.76,0.28
					c-1.94,0-3.82-0.23-5.63-0.69c-1.81-0.46-3.48-1.11-5.01-1.94c-1.53-0.84-2.92-1.83-4.14-2.99c-1.23-1.16-2.25-2.44-3.07-3.84
					c-0.24-0.41-0.47-0.9-0.69-1.48c-0.22-0.58-0.41-1.15-0.56-1.71c-0.15-0.56-0.27-1.07-0.36-1.51c-0.08-0.44-0.13-0.73-0.13-0.87
					c0-0.89,0.12-1.63,0.36-2.23c0.24-0.6,0.54-1.07,0.9-1.43c0.36-0.36,0.76-0.6,1.2-0.74c0.44-0.14,0.87-0.2,1.28-0.2
					c1.02,0,1.88,0.2,2.56,0.59c0.68,0.39,1.06,1,1.13,1.82c0.14,1.57,0.45,3.04,0.95,4.4c0.49,1.36,1.24,2.52,2.23,3.48
					c0.99,0.99,2.3,1.8,3.94,2.43c1.64,0.63,3.58,0.95,5.83,0.95c0.54,0,1.18-0.05,1.92-0.15c0.73-0.1,1.48-0.26,2.23-0.46
					c0.75-0.2,1.47-0.44,2.17-0.72c0.7-0.27,1.3-0.58,1.82-0.92c0.82-0.55,1.53-1.19,2.12-1.94c0.6-0.75,1.11-1.54,1.54-2.35
					c0.43-0.82,0.78-1.64,1.07-2.46c0.29-0.82,0.54-1.57,0.74-2.25c0.34-1.02,0.83-1.76,1.48-2.2c0.65-0.44,1.31-0.67,2-0.67
					c1.26,0,2.22,0.36,2.87,1.07C1133.67,1398.08,1133.99,1399.23,1133.99,1400.79z"/>
				<path d="M1223.69,1436.41c-1.77,0-3.71,1.16-5.81,3.48c-2.1,2.32-5.3,7.52-9.59,15.61c-5.66,10.85-9.32,17.02-10.98,18.52
					c-1.66,1.5-3.03,2.25-4.12,2.25c-4.03,0-6.04-1.94-6.04-5.83c0-1.64,0.27-3.96,0.82-6.96c1.88-10.3,2.81-21.17,2.81-32.59
					c0-1.3,0.55-2.74,1.66-4.32c1.11-1.59,2.16-2.38,3.15-2.38c1.77,0,3.04,0.55,3.79,1.64c0.75,1.09,1.13,3.29,1.13,6.6
					c0,3.45-1.02,10.54-3.07,21.29c-0.68,3.55-1.02,5.8-1.02,6.75c0,0.55,0.14,0.82,0.41,0.82c0.51,0,2.88-4.08,7.11-12.23
					c4.26-8.29,8-14.12,11.21-17.5c3.21-3.38,6.74-5.07,10.59-5.07c3.07,0,5.57,1.4,7.5,4.2c1.93,2.8,3.33,7.9,4.22,15.3
					c0.95,8.43,1.82,13.67,2.58,15.73c0.77,2.06,1.99,3.1,3.66,3.1c1.06,0,2.39-0.38,3.99-1.13c0.27-0.14,0.48-0.2,0.61-0.2
					c1.47,0,2.2,0.85,2.2,2.56c0,1.5-1.01,3.1-3.02,4.78s-4.43,2.53-7.27,2.53c-2.9,0-5.14-1.15-6.73-3.45
					c-1.59-2.3-2.84-8.45-3.76-18.45C1228.77,1441.42,1226.76,1436.41,1223.69,1436.41z"/>
				<path d="M1268.2,1469.82c-1.67,6.14-3.24,14.75-4.71,25.84l-1.43,9.67c-0.24,1.36-0.87,2.72-1.89,4.07
					c-1.02,1.35-1.96,2.02-2.81,2.02c-1.06,0-2.26-0.54-3.61-1.61s-2.02-1.94-2.02-2.58c0-1.88,0.43-4.47,1.28-7.78
					c6.24-25.21,9.36-47.35,9.36-66.42l-0.05-4.3c-0.07-3.68,0.58-6.36,1.94-8.03c1.36-1.67,2.93-2.51,4.71-2.51
					c0.82,0,1.6,0.64,2.35,1.92c0.75,1.28,1.13,3.1,1.13,5.45c0,3.31-0.34,7.32-1.02,12.02c-0.89,5.94-1.35,9.35-1.38,10.23
					c5.08-8.87,10.47-15.79,16.17-20.77c5.7-4.98,10.98-7.47,15.86-7.47c3.45,0,6.35,1.29,8.72,3.86c2.37,2.58,3.56,5.77,3.56,9.59
					c0,11.12-4.26,21.22-12.79,30.29c-8.53,9.07-16.83,13.61-24.92,13.61c-2.01,0-3.61-0.51-4.78-1.54
					C1270.69,1474.37,1269.47,1472.51,1268.2,1469.82z M1299.98,1428.63c-4.81,0-10.76,4.5-17.86,13.51s-10.64,16.02-10.64,21.03
					c0,1.23,0.7,2.42,2.1,3.58c1.4,1.16,3.17,1.74,5.32,1.74c4.88,0,10.49-3.61,16.83-10.82c6.34-7.21,9.52-14.3,9.52-21.26
					c0-2.49-0.5-4.41-1.51-5.76C1302.73,1429.3,1301.48,1428.63,1299.98,1428.63z"/>
				<path d="M1341.02,1478.31c-4.67,0-8.53-1.77-11.56-5.32c-3.04-3.55-4.55-7.93-4.55-13.15c0-8.8,2.96-17.47,8.88-26.02
					c5.92-8.54,13-12.82,21.26-12.82c5.46,0,9.88,2.1,13.28,6.29c3.39,4.2,5.09,9.19,5.09,14.99c0,8.87-3.5,17.09-10.51,24.66
					S1348.59,1478.31,1341.02,1478.31z M1333.9,1458.51c0,3.45,0.72,6.26,2.17,8.44c1.45,2.18,3.37,3.27,5.76,3.27
					c5.08,0,10.18-2.79,15.3-8.37c5.12-5.58,7.68-11.78,7.68-18.6c0-4.2-0.98-7.6-2.94-10.21c-1.96-2.61-4.6-3.91-7.91-3.91
					c-5.49,0-10.21,3.37-14.15,10.11C1335.87,1445.98,1333.9,1452.4,1333.9,1458.51z"/>
				<path d="M1422.83,1452.42c0.07-0.75,0.12-1.21,0.15-1.38c-4.71,7.78-9.53,13.98-14.48,18.6c-4.95,4.62-9.35,6.93-13.2,6.93
					c-2.25,0-4.55-1.31-6.88-3.94c-2.34-2.63-3.5-6.67-3.5-12.13c0-4.47,1.08-11.05,3.22-19.75c1.81-7.27,2.71-12.36,2.71-15.3
					c0.99-2.05,2.54-3.07,4.66-3.07c1.43,0,2.58,0.5,3.43,1.51c0.85,1.01,1.28,2.06,1.28,3.15c0,2.39-0.84,5.78-2.51,10.18
					c-3.17,8.56-4.76,15.91-4.76,22.05c0,5.59,1.3,8.39,3.89,8.39c3.31,0,7.52-2.81,12.64-8.44c5.12-5.63,9.5-13.47,13.15-23.54
					c1.4-3.89,2.54-6.46,3.43-7.7c0.89-1.24,2.06-1.9,3.53-1.97h0.51c1.6,0,2.66,0.36,3.17,1.07c0.51,0.72,0.77,2.17,0.77,4.35
					c0,1.4-0.39,3.84-1.18,7.32c-2.29,9.93-3.62,19.8-3.99,29.63c0.14,0.99,0.48,1.48,1.02,1.48c0.1,0,0.27-0.05,0.51-0.15
					c1.5-0.99,3.04-1.48,4.6-1.48c2.46,0,3.77,1.3,3.94,3.89l0.36,3.22c0,3.38-1.09,7.9-3.27,13.56c-2.18,5.66-4.95,8.49-8.29,8.49
					c-0.99,0-1.48-0.55-1.48-1.64c0-0.89,0.73-3.63,2.2-8.24c1.43-4.54,2.15-7.57,2.15-9.11c0-1.26-0.24-1.89-0.72-1.89
					c-0.03,0-0.79,0.33-2.25,1c-1.47,0.67-2.4,1-2.81,1c-1.77,0-3.04-0.55-3.79-1.64c-0.75-1.09-1.13-3.29-1.13-6.6
					C1419.92,1467.04,1420.89,1461.09,1422.83,1452.42z"/>
				<path d="M1490.58,1458.41c0,3.48-3.08,7.68-9.24,12.59c-6.16,4.91-12.51,7.37-19.06,7.37c-5.49,0-9.73-1.62-12.71-4.86
					c-2.99-3.24-4.48-7.76-4.48-13.56c0-9.76,3.29-19.03,9.88-27.83c6.58-8.8,13.78-13.2,21.59-13.2c2.56,0,4.65,0.84,6.27,2.51
					c1.62,1.67,2.43,3.68,2.43,6.04c0,5.25-2.58,10.28-7.73,15.09c-5.15,4.81-12.04,9.53-20.67,14.17
					c-1.77,0.92-2.66,2.12-2.66,3.58c0,2.83,0.82,5.1,2.46,6.81c1.64,1.71,4.06,2.56,7.27,2.56c7.33,0,14.82-4.06,22.46-12.18
					c1.13-1.13,1.98-1.69,2.56-1.69C1490.03,1455.8,1490.58,1456.67,1490.58,1458.41z M1455.02,1450.43
					c14.46-8.6,21.7-15.5,21.7-20.72c0-2.05-0.92-3.07-2.76-3.07c-3.14,0-6.68,2.3-10.62,6.91
					C1459.39,1438.15,1456.62,1443.77,1455.02,1450.43z"/>
				<path d="M1515.24,1478.67c-5.12,0-9.05-1.47-11.79-4.4c-2.75-2.93-4.12-7.04-4.12-12.33c0-8.9,3.53-18.29,10.59-28.17
					c7.06-9.88,13.63-14.81,19.7-14.81c2.76,0,5.14,1.49,7.14,4.48c2,2.99,2.99,6.15,2.99,9.49c0,2.01-0.44,3.74-1.3,5.19
					c-0.87,1.45-1.75,2.17-2.64,2.17c-1.98,0-3.38-2-4.2-5.99c-0.92-4.3-2.25-6.45-3.99-6.45c-3.55,0-7.74,4.21-12.59,12.64
					c-4.84,8.43-7.27,15.54-7.27,21.34c0,5.8,3.29,8.7,9.88,8.7c5.01,0,10.92-2.35,17.7-7.06c2.39-1.67,4.14-2.51,5.27-2.51
					c1.16,0,1.74,0.67,1.74,2c0,2.59-3.05,5.86-9.16,9.8C1527.09,1476.7,1521.11,1478.67,1515.24,1478.67z"/>
				<path d="M1568.35,1478.67c-5.12,0-9.05-1.47-11.79-4.4c-2.75-2.93-4.12-7.04-4.12-12.33c0-8.9,3.53-18.29,10.59-28.17
					c7.06-9.88,13.63-14.81,19.7-14.81c2.76,0,5.14,1.49,7.14,4.48c2,2.99,2.99,6.15,2.99,9.49c0,2.01-0.44,3.74-1.3,5.19
					c-0.87,1.45-1.75,2.17-2.64,2.17c-1.98,0-3.38-2-4.2-5.99c-0.92-4.3-2.25-6.45-3.99-6.45c-3.55,0-7.74,4.21-12.59,12.64
					c-4.84,8.43-7.27,15.54-7.27,21.34c0,5.8,3.29,8.7,9.88,8.7c5.01,0,10.92-2.35,17.7-7.06c2.39-1.67,4.14-2.51,5.27-2.51
					c1.16,0,1.74,0.67,1.74,2c0,2.59-3.05,5.86-9.16,9.8C1580.2,1476.7,1574.22,1478.67,1568.35,1478.67z"/>
				<path class="st21" d="M513.78,1535.7v-0.88c0-2.61,0.24-4.85,0.73-6.72c0.49-1.87,1.43-4.34,2.83-7.41c1.9-4.1,3.3-6.7,4.2-7.8
					c0.41-0.51,1.93-1.97,4.58-4.36c1.61-1.47,2.82-2.38,3.62-2.73c0.8-0.35,1.45-0.52,1.94-0.52c0.76,0,1.14,0.46,1.14,1.38
					c0,0.6-1.28,2.13-3.83,4.58c-3.46,3.25-6.25,7.05-8.38,11.41c-2.13,4.36-3.19,8.16-3.19,11.39c0,1.54,0.43,4.52,1.3,8.94
					c0.11,0.55,0.18,0.97,0.21,1.25c0.58,2.87,1.28,5.03,2.08,6.47c0.8,1.44,2.07,2.91,3.8,4.42c1.9,1.63,2.85,2.91,2.85,3.83
					c0,1.03-0.87,1.54-2.61,1.54c-1.06,0-2.31-0.81-3.74-2.42c-1.43-1.61-2.71-3.28-3.86-4.99c-1.14-1.71-2.04-4.53-2.7-8.46
					S513.78,1537.73,513.78,1535.7z"/>
				<path class="st21" d="M555.29,1537.33c-2.48,3.33-4.94,5.84-7.37,7.5c-2.43,1.67-4.66,2.5-6.68,2.5c-1.37,0-2.54-0.58-3.54-1.73
					c-0.99-1.15-1.49-2.63-1.49-4.44c0-4.67,2.08-9.69,6.25-15.07c4.17-5.38,8.31-8.08,12.42-8.08c1.49,0,2.6,0.85,3.33,2.55
					c0.23,0.57,0.59,0.85,1.09,0.85c1.42,0,2.13,0.55,2.13,1.65c0,0.55-0.09,1.3-0.27,2.26c-0.96,5.23-1.44,8.92-1.44,11.07
					c0,4.29,0.82,6.86,2.45,7.72c0.78,0.43,1.17,0.95,1.17,1.57c0,0.55-0.38,1.1-1.14,1.66s-1.5,0.84-2.21,0.84
					c-1.37,0-2.49-0.94-3.38-2.82C555.73,1543.48,555.29,1540.8,555.29,1537.33z M553.66,1522.35c-2.34,0-5.06,2.19-8.17,6.58
					c-3.1,4.39-4.66,8.03-4.66,10.92c0,2.04,0.67,3.06,2.02,3.06c1.95,0,4.66-1.97,8.12-5.91c3.46-3.94,5.19-7.56,5.19-10.86
					C556.17,1523.61,555.33,1522.35,553.66,1522.35z"/>
				<path class="st21" d="M607.57,1519.9c4.03,1.63,6.04,5.5,6.04,11.6c0,4.58-1.43,8.58-4.28,12c-2.86,3.42-5.96,5.14-9.31,5.14
					c-3,0-5.33-1.19-7-3.57c-1.67-2.38-2.5-5.85-2.5-10.43c0-5.52,0.97-11.1,2.91-16.75s4.36-9.92,7.26-12.8
					c2.9-2.88,5.83-4.32,8.79-4.32c1.79,0,3.23,0.59,4.32,1.77c1.09,1.18,1.64,2.82,1.64,4.91c0,1.67-0.72,3.65-2.17,5.93
					C611.83,1515.67,609.93,1517.84,607.57,1519.9z M608.74,1532.24c0-2.64-0.49-4.77-1.46-6.39c-0.98-1.61-2.06-2.42-3.25-2.42
					c-0.36,0-2.33,1.37-5.93,4.1c-0.92,0.71-1.82,1.37-2.69,1.97c-0.27,1.53-0.4,3.2-0.4,5.03c0,3.23,0.48,5.66,1.45,7.29
					c0.97,1.63,2.3,2.45,4,2.45c2.38,0,4.35-1.25,5.92-3.74c1.57-2.49,2.35-5.24,2.35-8.23V1532.24z M596.02,1524.74
					c6.83-5.27,11.05-9.03,12.67-11.29c1.61-2.26,2.42-4.04,2.42-5.33c0-2.08-0.83-3.11-2.5-3.11c-2.32,0-4.66,1.75-7.01,5.24
					C599.25,1513.73,597.39,1518.57,596.02,1524.74z"/>
				<path class="st21" d="M626.78,1548.34c-2.43,0-4.43-0.92-6.01-2.77c-1.58-1.84-2.37-4.12-2.37-6.84c0-4.58,1.54-9.09,4.62-13.53
					s6.76-6.67,11.06-6.67c2.84,0,5.14,1.09,6.9,3.27c1.76,2.18,2.65,4.78,2.65,7.8c0,4.61-1.82,8.89-5.47,12.82
					C634.51,1546.37,630.72,1548.34,626.78,1548.34z M623.08,1538.04c0,1.79,0.38,3.25,1.13,4.39s1.75,1.7,2.99,1.7
					c2.64,0,5.29-1.45,7.96-4.35c2.66-2.9,3.99-6.12,3.99-9.67c0-2.18-0.51-3.95-1.53-5.31c-1.02-1.36-2.39-2.04-4.11-2.04
					c-2.86,0-5.31,1.75-7.36,5.25C624.11,1531.53,623.08,1534.87,623.08,1538.04z"/>
				<path class="st21" d="M669.91,1525.96c-1.65,0.04-5.18,4.92-10.59,14.66c-1.83,3.28-2.89,5.07-3.19,5.36
					c-0.3,0.29-0.86,0.55-1.66,0.79c-0.81,0.23-1.48,0.35-2.01,0.35c-1.19,0-1.78-2.31-1.78-6.94c0-2.61,0.56-7.33,1.68-14.15
					c0.46-2.77,0.69-4.75,0.69-5.93c0-1.17,0.52-1.76,1.57-1.76c1.97,0,2.95,1.42,2.95,4.26c0,1.33-0.33,3.94-0.98,7.82
					c-0.76,4.43-1.15,7.13-1.17,8.09c1.1-1.06,2.71-3.4,4.84-7c3.02-4.93,5.24-8.06,6.67-9.38s2.9-1.98,4.43-1.98
					c1.15,0,2.07,0.77,2.75,2.31c0.68,1.54,1.09,5.22,1.24,11.04c0.04,1.45,0.17,2.54,0.4,3.25c0.23,0.71,0.4,1.06,0.5,1.06
					c0.83,0,2.64-2.84,5.43-8.51c1.49-3,2.94-5.28,4.35-6.84c1.41-1.56,2.98-2.34,4.7-2.34c1.44,0,2.48,0.74,3.14,2.22
					s1.13,3.68,1.41,6.58c0.27,2.94,0.68,5.64,1.24,8.09c0.56,2.45,1.58,4.02,3.07,4.71c1.01,0.48,1.52,1.04,1.52,1.68
					c0,0.62-0.43,1.26-1.28,1.92s-1.63,0.98-2.34,0.98c-1.42,0-2.69-0.87-3.8-2.61c-1.12-1.74-1.96-5.5-2.53-11.28
					c-0.25-2.32-0.49-3.97-0.72-4.95c-0.23-0.98-0.59-1.46-1.09-1.46c-0.75,0-1.63,0.71-2.65,2.13c-1.02,1.42-2.67,4.3-4.94,8.65
					c-1.77,3.39-3.12,5.65-4.03,6.77c-0.91,1.13-1.8,1.69-2.65,1.69c-0.76,0-1.45-0.31-2.05-0.92c-0.6-0.61-0.98-1.35-1.14-2.21
					c-0.16-0.86-0.33-2.98-0.51-6.35C671.11,1530.15,670.62,1526.89,669.91,1525.96z"/>
				<path class="st21" d="M746.4,1535.44c-2.27,3.81-4.59,6.77-6.97,8.86c-2.38,2.09-4.59,3.14-6.63,3.14
					c-1.17,0-2.36-0.68-3.58-2.05c-1.21-1.37-1.82-3.47-1.82-6.31c0-2.32,0.56-5.75,1.68-10.27c0.94-3.78,1.41-6.43,1.41-7.96
					c0.51-1.06,1.32-1.6,2.42-1.6c0.75,0,1.34,0.26,1.78,0.78c0.44,0.52,0.67,1.07,0.67,1.64c0,1.24-0.43,3.01-1.3,5.29
					c-1.65,4.45-2.47,8.27-2.47,11.47c0,2.91,0.67,4.36,2.02,4.36c1.72,0,3.91-1.46,6.57-4.39c2.66-2.93,4.94-7.01,6.84-12.24
					c0.74-2.09,1.35-3.45,1.82-4.08c0.47-0.63,1.1-0.94,1.9-0.94c1.21,0,1.81,0.8,1.81,2.39c0,0.2-0.17,0.84-0.51,1.94
					c-1.06,3.88-1.6,7.56-1.6,11.02c0,4.15,0.68,6.84,2.05,8.06c0.71,0.66,1.06,1.19,1.06,1.6c0,0.5-0.36,0.95-1.08,1.36
					c-0.72,0.41-1.37,0.61-1.96,0.61c-1.24,0-2.24-0.92-3.01-2.77c-0.76-1.84-1.14-4.57-1.14-8.17v-0.88
					C746.38,1536.03,746.39,1535.74,746.4,1535.44z"/>
				<path class="st21" d="M816.59,1523.7c-1.44,2.31-3.46,6.21-6.07,11.71c-0.58,1.24-1.18,2.44-1.78,3.59
					c-0.2,0.37-0.57,1.2-1.12,2.47c-1.86,4.33-3.49,6.49-4.87,6.49c-1.1,0-1.9-0.13-2.41-0.4c-0.51-0.27-0.99-0.99-1.45-2.18
					c-0.46-1.19-1.14-3.98-2.05-8.38c-1.05-4.98-1.76-8.05-2.13-9.21c-1.21,2.71-2.28,5.33-3.22,7.85
					c-1.42,3.71-2.79,6.73-4.12,9.06c-1.33,2.33-2.29,3.73-2.87,4.2c-0.59,0.47-1.14,0.71-1.68,0.71c-0.55,0-1.05-0.21-1.49-0.64
					c-0.44-0.43-0.67-0.84-0.67-1.25c0.11-0.73,0.23-1.18,0.37-1.36c1.54-1.9,2.87-3.92,3.99-6.07c1.12-2.15,2.54-5.37,4.27-9.66
					c1.73-4.29,2.83-7.81,3.31-10.56c0.23-1.17,1.09-1.76,2.58-1.76c0.87,0,1.46,0.13,1.78,0.4s0.63,0.81,0.94,1.62
					c0.31,0.82,0.49,1.54,0.55,2.18c0.11,0.76,0.41,2.46,0.9,5.08c0.44,2.47,0.74,4.21,0.88,5.24c0.25,1.47,0.69,3.41,1.32,5.8
					c0.63,2.39,1.12,3.59,1.48,3.59c0.25,0,0.6-0.54,1.06-1.62l2.23-5.16c0.41-0.94,0.84-1.86,1.3-2.77l3.06-6.25
					c1.67-3.44,2.95-5.94,3.84-7.49c0.9-1.55,1.5-2.49,1.81-2.81c0.31-0.32,0.66-0.48,1.05-0.48c0.67,0,1.43,0.18,2.26,0.55
					c0.83,0.36,1.27,0.77,1.3,1.21c0.04,0.44,0.12,2.3,0.24,5.56l0.35,8.3c0.11,2.64,0.27,4.89,0.48,6.74
					c0.21,1.85,0.59,3.35,1.12,4.48c0.83,1.81,1.25,3.21,1.25,4.2c0,0.85-0.35,1.44-1.05,1.76c-0.7,0.32-1.35,0.48-1.96,0.48
					c-1.24,0-2.19-0.99-2.86-2.98c-0.67-1.99-1.15-7.68-1.45-17.08C816.99,1526.07,816.82,1524.34,816.59,1523.7z"/>
				<path class="st21" d="M853.07,1537.99c0,1.81-1.6,3.99-4.8,6.54c-3.2,2.55-6.51,3.83-9.91,3.83c-2.86,0-5.06-0.84-6.61-2.53
					c-1.55-1.68-2.33-4.03-2.33-7.05c0-5.07,1.71-9.9,5.13-14.47c3.42-4.58,7.17-6.86,11.23-6.86c1.33,0,2.42,0.43,3.26,1.3
					s1.26,1.92,1.26,3.14c0,2.73-1.34,5.35-4.02,7.85c-2.68,2.5-6.26,4.96-10.75,7.37c-0.92,0.48-1.38,1.1-1.38,1.86
					c0,1.47,0.43,2.65,1.28,3.54c0.85,0.89,2.11,1.33,3.78,1.33c3.81,0,7.71-2.11,11.68-6.33c0.58-0.59,1.03-0.88,1.33-0.88
					C852.79,1536.63,853.07,1537.09,853.07,1537.99z M834.58,1533.84c7.52-4.47,11.28-8.06,11.28-10.78c0-1.06-0.48-1.6-1.44-1.6
					c-1.63,0-3.47,1.2-5.52,3.59C836.86,1527.45,835.41,1530.38,834.58,1533.84z"/>
				<path class="st21" d="M878.88,1516.04c-0.64-2.77-1.43-4.7-2.37-5.8c-0.94-1.1-2.18-1.95-3.73-2.55c-1.54-0.6-2.94-0.9-4.18-0.9
					c-0.48,0-1.18,0.18-2.12,0.55c-0.93,0.36-1.65,0.7-2.14,1c-0.69,0.41-1.33,0.61-1.92,0.61c-0.67,0-1.01-0.35-1.01-1.06
					c0-0.76,0.58-1.82,1.73-3.17c1.15-1.35,3.18-2.02,6.09-2.02h1.14c2.89,0,5.45,0.76,7.66,2.27c2.22,1.52,3.79,3.69,4.72,6.51
					s1.4,6.61,1.4,11.36c0,3.23-1.02,7.14-3.06,11.73c-2.04,4.59-4.63,8.07-7.78,10.43c-3.15,2.36-6.5,3.54-10.04,3.54
					c-1.28,0-2.47-0.74-3.59-2.21c-1.12-1.47-1.68-3.3-1.68-5.48c0-4.03,0.88-7.58,2.65-10.66c1.76-3.08,3.74-5.57,5.93-7.49
					c2.19-1.92,5.22-3.46,9.09-4.63c1.28-0.37,2.15-0.67,2.61-0.88S878.95,1516.59,878.88,1516.04z M879.6,1521.47
					c-4.1,0.83-7.24,2.15-9.42,3.96c-4.93,4.61-7.4,9.78-7.4,15.51c0,0.76,0.13,1.48,0.4,2.14c0.27,0.67,0.57,1,0.9,1
					c1.31,0,2.51-0.23,3.59-0.69c1.08-0.46,2.4-1.42,3.96-2.89c1.56-1.46,2.97-3.28,4.24-5.44s2.19-4.25,2.77-6.25
					c0.58-2,0.88-3.54,0.92-4.62C879.61,1523.12,879.62,1522.21,879.6,1521.47z"/>
				<path class="st21" d="M905.3,1537.33c-2.48,3.33-4.94,5.84-7.37,7.5c-2.43,1.67-4.66,2.5-6.68,2.5c-1.37,0-2.54-0.58-3.54-1.73
					c-0.99-1.15-1.49-2.63-1.49-4.44c0-4.67,2.08-9.69,6.25-15.07c4.17-5.38,8.31-8.08,12.42-8.08c1.49,0,2.6,0.85,3.33,2.55
					c0.23,0.57,0.59,0.85,1.09,0.85c1.42,0,2.13,0.55,2.13,1.65c0,0.55-0.09,1.3-0.27,2.26c-0.96,5.23-1.44,8.92-1.44,11.07
					c0,4.29,0.82,6.86,2.45,7.72c0.78,0.43,1.17,0.95,1.17,1.57c0,0.55-0.38,1.1-1.14,1.66s-1.5,0.84-2.21,0.84
					c-1.37,0-2.49-0.94-3.38-2.82C905.74,1543.48,905.3,1540.8,905.3,1537.33z M903.68,1522.35c-2.34,0-5.06,2.19-8.17,6.58
					c-3.1,4.39-4.66,8.03-4.66,10.92c0,2.04,0.67,3.06,2.02,3.06c1.95,0,4.66-1.97,8.12-5.91c3.46-3.94,5.19-7.56,5.19-10.86
					C906.18,1523.61,905.35,1522.35,903.68,1522.35z"/>
				<path class="st21" d="M934.28,1525.33c-0.43-0.02-0.84,0.39-1.25,1.22c-3.67,7.34-6.45,12.33-8.33,14.95
					c-0.16,0.23-0.36,0.57-0.61,1.01c-2.22,3.96-3.84,5.93-4.87,5.93c-1.38,0-2.08-0.67-2.08-2c0-1.21,0.86-2.85,2.58-4.92
					c1.67-1.97,3.86-5.31,6.57-10.02s4.91-8.94,6.6-12.68c0.32-0.67,0.8-1.01,1.44-1.01c0.27,0,0.74,0.12,1.42,0.36
					c0.68,0.24,1.12,0.5,1.32,0.79s0.63,1.93,1.3,4.95c2.18,10.87,4.48,17.32,6.89,19.34c0.57,0.5,0.9,0.83,1.01,1
					c0.11,0.17,0.16,0.4,0.16,0.71c0,0.55-0.18,1.05-0.53,1.5c-0.36,0.45-0.7,0.74-1.04,0.86c-0.34,0.12-1.03,0.19-2.08,0.19
					c-0.37,0-1.24-0.92-2.61-2.75c-1.37-1.84-2.96-6.84-4.79-15.02C934.95,1527.54,934.58,1526.07,934.28,1525.33z"/>
				<path class="st21" d="M958.06,1516.87c0.23-0.16,0.49-0.24,0.77-0.24c0.44,0,0.82,0.59,1.12,1.78c0,0.76-0.2,1.73-0.61,2.9
					c-1.21,3.35-1.81,5.69-1.81,7.02c0,0.35,0.11,0.55,0.32,0.59c4.08-3.92,7.86-5.88,11.33-5.88c2.15,0,3.95,0.81,5.4,2.43
					c1.45,1.62,2.18,3.11,2.18,4.46c0,4.12-2.1,8.07-6.29,11.85c-4.2,3.79-8.42,5.68-12.68,5.68c-1.9,0-3.38-0.78-4.43-2.35
					c-1.06-1.57-1.58-3.82-1.58-6.75c0-3.17,0.4-6.69,1.2-10.54c0.8-3.85,1.44-6.42,1.92-7.72c0.2-0.55,0.37-1.11,0.53-1.68
					C955.61,1517.73,956.48,1517.2,958.06,1516.87z M956.81,1533.55c-0.35,1.97-0.53,3.94-0.53,5.91c0,2.68,1.06,4.02,3.17,4.02
					c2.38,0,5.04-1.42,7.98-4.26c2.94-2.84,4.42-5.6,4.42-8.27c0-1.1-0.29-2.02-0.88-2.77c-0.59-0.74-1.39-1.12-2.42-1.12
					c-1.4,0-2.78,0.35-4.14,1.05c-1.36,0.7-2.87,1.83-4.54,3.39c-0.64,0.6-1.15,1.07-1.53,1.4
					C957.96,1533.22,957.45,1533.44,956.81,1533.55z"/>
				<path class="st21" d="M987.3,1533.02c4.2-0.73,7.97-3.44,11.31-8.14c1.56-2.18,2.93-3.73,4.11-4.64s2.43-1.37,3.76-1.37
					c0.53,0,1.06,0.24,1.6,0.72s0.8,1.05,0.8,1.7c0,0.87-0.83,1.55-2.47,2.05c-0.87,0.27-1.69,0.72-2.45,1.36s-2.21,2.16-4.34,4.58
					c-1.67,1.88-3.17,3.2-4.5,3.96c-0.13,0.07-0.19,0.13-0.19,0.19c0,0.07,0.08,0.14,0.24,0.21c1.29,0.69,2.66,2.03,4.1,4.02
					c2.09,2.89,3.66,4.71,4.71,5.47c1.05,0.75,2.24,1.13,3.59,1.13l0.88-0.03c0.62-0.04,0.93,0.24,0.93,0.83
					c0,0.67-0.38,1.37-1.14,2.1c-0.76,0.73-2.02,1.09-3.78,1.09c-1.35,0-2.66-0.58-3.92-1.74c-1.27-1.16-2.72-3.05-4.35-5.65
					c-0.94-1.54-1.82-2.71-2.63-3.51c-0.82-0.8-1.72-1.2-2.71-1.2c-0.21,0-0.87,0.18-1.97,0.53c-1.1,0.35-1.72,0.7-1.85,1.02
					c-0.13,0.33-0.23,1.51-0.29,3.54c-0.06,2.03-0.09,3.67-0.09,4.91c0,0.66-0.31,1.24-0.93,1.76c-0.62,0.51-1.29,0.77-2.02,0.77
					c-0.75,0-1.33-0.22-1.76-0.65s-0.64-0.88-0.64-1.34c0-0.64,0.24-2.15,0.72-4.52c0.85-4.33,1.7-11.47,2.55-21.42
					c0.07-0.96,0.43-1.82,1.09-2.59s1.4-1.16,2.24-1.16c0.46,0,0.85,0.25,1.16,0.74c0.31,0.5,0.47,1.14,0.47,1.92
					c0,0.62-0.11,1.33-0.32,2.13C988.18,1525.43,987.55,1529.18,987.3,1533.02z"/>
				<path class="st21" d="M1031.1,1537.33c-2.48,3.33-4.94,5.84-7.37,7.5c-2.43,1.67-4.66,2.5-6.68,2.5c-1.37,0-2.54-0.58-3.54-1.73
					c-0.99-1.15-1.49-2.63-1.49-4.44c0-4.67,2.08-9.69,6.25-15.07c4.17-5.38,8.31-8.08,12.42-8.08c1.49,0,2.6,0.85,3.33,2.55
					c0.23,0.57,0.59,0.85,1.09,0.85c1.42,0,2.13,0.55,2.13,1.65c0,0.55-0.09,1.3-0.27,2.26c-0.96,5.23-1.44,8.92-1.44,11.07
					c0,4.29,0.82,6.86,2.45,7.72c0.78,0.43,1.17,0.95,1.17,1.57c0,0.55-0.38,1.1-1.14,1.66s-1.5,0.84-2.21,0.84
					c-1.37,0-2.49-0.94-3.38-2.82C1031.54,1543.48,1031.1,1540.8,1031.1,1537.33z M1029.48,1522.35c-2.34,0-5.06,2.19-8.17,6.58
					c-3.1,4.39-4.66,8.03-4.66,10.92c0,2.04,0.67,3.06,2.02,3.06c1.95,0,4.66-1.97,8.12-5.91c3.46-3.94,5.19-7.56,5.19-10.86
					C1031.98,1523.61,1031.14,1522.35,1029.48,1522.35z"/>
				<path class="st21" d="M1085.06,1526.55c-0.92,0-1.93,0.6-3.02,1.81c-1.09,1.21-2.75,3.91-4.99,8.12
					c-2.94,5.64-4.85,8.85-5.71,9.63c-0.86,0.78-1.57,1.17-2.14,1.17c-2.09,0-3.14-1.01-3.14-3.03c0-0.85,0.14-2.06,0.42-3.62
					c0.98-5.36,1.46-11.01,1.46-16.95c0-0.67,0.29-1.42,0.86-2.25s1.12-1.24,1.64-1.24c0.92,0,1.58,0.28,1.97,0.85
					c0.39,0.57,0.59,1.71,0.59,3.43c0,1.79-0.53,5.48-1.6,11.07c-0.36,1.85-0.53,3.02-0.53,3.51c0,0.28,0.07,0.43,0.21,0.43
					c0.27,0,1.5-2.12,3.7-6.36c2.22-4.31,4.16-7.34,5.83-9.1c1.67-1.76,3.5-2.63,5.51-2.63c1.6,0,2.9,0.73,3.9,2.18
					c1,1.46,1.73,4.11,2.2,7.96c0.5,4.38,0.94,7.11,1.34,8.18c0.4,1.07,1.03,1.61,1.9,1.61c0.55,0,1.24-0.19,2.08-0.59
					c0.14-0.07,0.25-0.11,0.32-0.11c0.76,0,1.14,0.44,1.14,1.33c0,0.78-0.52,1.61-1.57,2.49c-1.05,0.88-2.31,1.32-3.78,1.32
					c-1.51,0-2.67-0.6-3.5-1.8c-0.82-1.2-1.48-4.39-1.96-9.59C1087.7,1529.16,1086.65,1526.55,1085.06,1526.55z"/>
				<path class="st21" d="M1110.84,1548.34c-2.43,0-4.43-0.92-6.01-2.77c-1.58-1.84-2.37-4.12-2.37-6.84
					c0-4.58,1.54-9.09,4.62-13.53s6.76-6.67,11.06-6.67c2.84,0,5.14,1.09,6.9,3.27c1.76,2.18,2.65,4.78,2.65,7.8
					c0,4.61-1.82,8.89-5.47,12.82C1118.57,1546.37,1114.78,1548.34,1110.84,1548.34z M1107.14,1538.04c0,1.79,0.38,3.25,1.13,4.39
					s1.75,1.7,2.99,1.7c2.64,0,5.29-1.45,7.96-4.35c2.66-2.9,3.99-6.12,3.99-9.67c0-2.18-0.51-3.95-1.53-5.31
					c-1.02-1.36-2.39-2.04-4.11-2.04c-2.86,0-5.31,1.75-7.36,5.25C1108.16,1531.53,1107.14,1534.87,1107.14,1538.04z"/>
				<path class="st21" d="M1154.13,1516.04c-0.64-2.77-1.43-4.7-2.37-5.8c-0.94-1.1-2.18-1.95-3.73-2.55
					c-1.54-0.6-2.94-0.9-4.18-0.9c-0.48,0-1.18,0.18-2.12,0.55c-0.93,0.36-1.65,0.7-2.14,1c-0.69,0.41-1.33,0.61-1.92,0.61
					c-0.67,0-1.01-0.35-1.01-1.06c0-0.76,0.58-1.82,1.73-3.17c1.15-1.35,3.18-2.02,6.09-2.02h1.14c2.89,0,5.45,0.76,7.66,2.27
					c2.22,1.52,3.79,3.69,4.72,6.51s1.4,6.61,1.4,11.36c0,3.23-1.02,7.14-3.06,11.73c-2.04,4.59-4.63,8.07-7.78,10.43
					c-3.15,2.36-6.5,3.54-10.04,3.54c-1.28,0-2.47-0.74-3.59-2.21c-1.12-1.47-1.68-3.3-1.68-5.48c0-4.03,0.88-7.58,2.65-10.66
					c1.76-3.08,3.74-5.57,5.93-7.49c2.19-1.92,5.22-3.46,9.09-4.63c1.28-0.37,2.15-0.67,2.61-0.88S1154.2,1516.59,1154.13,1516.04z
					 M1154.85,1521.47c-4.1,0.83-7.24,2.15-9.42,3.96c-4.93,4.61-7.4,9.78-7.4,15.51c0,0.76,0.13,1.48,0.4,2.14
					c0.27,0.67,0.57,1,0.9,1c1.31,0,2.51-0.23,3.59-0.69c1.08-0.46,2.4-1.42,3.96-2.89c1.56-1.46,2.97-3.28,4.24-5.44
					s2.19-4.25,2.77-6.25c0.58-2,0.88-3.54,0.92-4.62C1154.85,1523.12,1154.86,1522.21,1154.85,1521.47z"/>
				<path class="st21" d="M1175.01,1528.92c4.08-3.92,7.86-5.88,11.33-5.88c2.15,0,3.95,0.81,5.4,2.43
					c1.46,1.62,2.18,3.11,2.18,4.46c0,4.12-2.1,8.07-6.29,11.85c-4.2,3.79-8.42,5.68-12.68,5.68c-1.9,0-3.38-0.78-4.43-2.35
					s-1.58-3.82-1.58-6.75c0-3.16,0.58-7.36,1.73-12.61c0.41-1.84,0.61-2.86,0.61-3.03c0-0.44-0.06-0.71-0.19-0.8
					c-0.12-0.09-0.39-0.13-0.8-0.13c-0.14,0-1.1,0.1-2.87,0.29c-1.95,0.23-3.07,0.35-3.35,0.35c-2.25,0-3.57-0.2-3.95-0.6
					c-0.38-0.4-0.57-0.86-0.57-1.37c0-0.76,0.24-1.43,0.73-2c0.49-0.57,1.18-0.85,2.09-0.85c0.73,0,1.46,0.06,2.21,0.19
					c0.73,0.12,1.34,0.19,1.84,0.19c2.16,0,4.14-0.3,5.93-0.9c0.92-0.3,1.46-0.45,1.6-0.45c1.56,0,2.47,0.65,2.71,1.94
					c0.07,0.41-0.32,2.23-1.17,5.45c-0.53,1.99-0.8,3.42-0.8,4.31C1174.69,1528.69,1174.8,1528.88,1175.01,1528.92z
					 M1173.98,1533.55c-0.37,1.97-0.55,3.94-0.53,5.91c0,2.68,1.05,4.02,3.17,4.02c2.38,0,5.04-1.42,7.98-4.26
					c2.94-2.84,4.42-5.6,4.42-8.27c0-1.1-0.29-2.02-0.88-2.77c-0.58-0.74-1.39-1.12-2.42-1.12c-1.4,0-2.78,0.35-4.14,1.05
					c-1.36,0.7-2.87,1.83-4.54,3.39c-0.64,0.6-1.15,1.07-1.53,1.4C1175.12,1533.22,1174.61,1533.44,1173.98,1533.55z"/>
				<path class="st21" d="M1223.97,1537.99c0,1.81-1.6,3.99-4.8,6.54c-3.2,2.55-6.51,3.83-9.91,3.83c-2.86,0-5.06-0.84-6.61-2.53
					c-1.55-1.68-2.33-4.03-2.33-7.05c0-5.07,1.71-9.9,5.13-14.47c3.42-4.58,7.17-6.86,11.23-6.86c1.33,0,2.42,0.43,3.26,1.3
					s1.26,1.92,1.26,3.14c0,2.73-1.34,5.35-4.02,7.85c-2.68,2.5-6.26,4.96-10.75,7.37c-0.92,0.48-1.38,1.1-1.38,1.86
					c0,1.47,0.43,2.65,1.28,3.54c0.85,0.89,2.11,1.33,3.78,1.33c3.81,0,7.71-2.11,11.68-6.33c0.58-0.59,1.03-0.88,1.33-0.88
					C1223.69,1536.63,1223.97,1537.09,1223.97,1537.99z M1205.48,1533.84c7.52-4.47,11.28-8.06,11.28-10.78
					c0-1.06-0.48-1.6-1.44-1.6c-1.63,0-3.47,1.2-5.52,3.59C1207.75,1527.45,1206.31,1530.38,1205.48,1533.84z"/>
				<path class="st21" d="M1238.68,1537.11c-4.04,3.48-6.71,6.98-8.01,10.51c-0.5,1.17-1,2.05-1.52,2.63
					c-2.11-0.12-3.17-1.11-3.17-2.95c0-2.71,3.02-6.83,9.07-12.35l1.28-1.2c-3.53-5.3-5.29-9.37-5.29-12.21
					c0-2.52,1.06-3.78,3.19-3.78c0.6,0,1.04,0.26,1.32,0.77c0.27,0.51,0.49,1.69,0.65,3.51c0.23,2.82,1.45,5.81,3.65,8.97
					c4.91-4.22,8.23-8,9.95-11.33c0.58-1.06,1.04-1.74,1.36-2.02c0.32-0.28,0.75-0.43,1.28-0.43c0.64,0,1.24,0.25,1.8,0.74
					c0.56,0.5,0.84,1.13,0.84,1.89c0,1.77-4.31,6.63-12.93,14.58c2.96,3.8,6.12,6.64,9.47,8.54c0.41,0.23,0.8,0.47,1.17,0.72
					c0.07,0.16,0.11,0.41,0.11,0.75c0,0.76-0.28,1.45-0.84,2.05c-0.56,0.6-1.23,0.9-2.01,0.9
					C1247.65,1547.41,1243.86,1543.98,1238.68,1537.11z"/>
				<path class="st21" d="M1276.81,1537.33c-2.48,3.33-4.94,5.84-7.37,7.5c-2.43,1.67-4.66,2.5-6.68,2.5
					c-1.37,0-2.54-0.58-3.54-1.73c-0.99-1.15-1.49-2.63-1.49-4.44c0-4.67,2.08-9.69,6.25-15.07c4.17-5.38,8.31-8.08,12.42-8.08
					c1.49,0,2.6,0.85,3.33,2.55c0.23,0.57,0.59,0.85,1.09,0.85c1.42,0,2.13,0.55,2.13,1.65c0,0.55-0.09,1.3-0.27,2.26
					c-0.96,5.23-1.44,8.92-1.44,11.07c0,4.29,0.82,6.86,2.45,7.72c0.78,0.43,1.17,0.95,1.17,1.57c0,0.55-0.38,1.1-1.14,1.66
					s-1.5,0.84-2.21,0.84c-1.37,0-2.49-0.94-3.38-2.82C1277.26,1543.48,1276.81,1540.8,1276.81,1537.33z M1275.19,1522.35
					c-2.34,0-5.06,2.19-8.17,6.58c-3.1,4.39-4.66,8.03-4.66,10.92c0,2.04,0.67,3.06,2.02,3.06c1.95,0,4.66-1.97,8.12-5.91
					c3.46-3.94,5.19-7.56,5.19-10.86C1277.69,1523.61,1276.86,1522.35,1275.19,1522.35z"/>
				<path class="st21" d="M1305.79,1525.33c-0.43-0.02-0.84,0.39-1.25,1.22c-3.67,7.34-6.45,12.33-8.33,14.95
					c-0.16,0.23-0.36,0.57-0.61,1.01c-2.22,3.96-3.84,5.93-4.87,5.93c-1.38,0-2.08-0.67-2.08-2c0-1.21,0.86-2.85,2.58-4.92
					c1.67-1.97,3.86-5.31,6.57-10.02s4.91-8.94,6.6-12.68c0.32-0.67,0.8-1.01,1.44-1.01c0.27,0,0.74,0.12,1.42,0.36
					c0.68,0.24,1.12,0.5,1.32,0.79s0.63,1.93,1.3,4.95c2.18,10.87,4.48,17.32,6.89,19.34c0.57,0.5,0.9,0.83,1.01,1
					c0.11,0.17,0.16,0.4,0.16,0.71c0,0.55-0.18,1.05-0.53,1.5c-0.36,0.45-0.7,0.74-1.04,0.86c-0.34,0.12-1.03,0.19-2.08,0.19
					c-0.37,0-1.24-0.92-2.61-2.75c-1.37-1.84-2.96-6.84-4.79-15.02C1306.46,1527.54,1306.09,1526.07,1305.79,1525.33z"/>
				<path class="st21" d="M1341.33,1537.33c-2.48,3.33-4.94,5.84-7.37,7.5c-2.43,1.67-4.66,2.5-6.68,2.5
					c-1.37,0-2.54-0.58-3.54-1.73c-0.99-1.15-1.49-2.63-1.49-4.44c0-4.67,2.08-9.69,6.25-15.07c4.17-5.38,8.31-8.08,12.42-8.08
					c1.49,0,2.6,0.85,3.33,2.55c0.23,0.57,0.59,0.85,1.09,0.85c1.42,0,2.13,0.55,2.13,1.65c0,0.55-0.09,1.3-0.27,2.26
					c-0.96,5.23-1.44,8.92-1.44,11.07c0,4.29,0.82,6.86,2.45,7.72c0.78,0.43,1.17,0.95,1.17,1.57c0,0.55-0.38,1.1-1.14,1.66
					s-1.5,0.84-2.21,0.84c-1.37,0-2.49-0.94-3.38-2.82C1341.78,1543.48,1341.33,1540.8,1341.33,1537.33z M1339.71,1522.35
					c-2.34,0-5.06,2.19-8.17,6.58c-3.1,4.39-4.66,8.03-4.66,10.92c0,2.04,0.67,3.06,2.02,3.06c1.95,0,4.66-1.97,8.12-5.91
					c3.46-3.94,5.19-7.56,5.19-10.86C1342.21,1523.61,1341.38,1522.35,1339.71,1522.35z"/>
				<path class="st21" d="M1357.56,1560.53c-0.59,0-1.13-0.19-1.64-0.57c-0.5-0.38-0.76-0.78-0.76-1.18c0-0.35,0.15-0.8,0.44-1.33
					c0.29-0.53,1.29-1.87,2.99-4.02c1.21-1.45,2.54-4.07,4-7.85c1.46-3.78,2.2-6.11,2.2-7c0-5.68-0.8-10.73-2.4-15.17
					c-1.6-4.43-3.01-7.64-4.23-9.62c-1.22-1.98-3.01-4.03-5.35-6.16c-0.21-0.21-0.32-0.58-0.32-1.09c0-0.27,0.26-0.62,0.77-1.06
					s1.04-0.67,1.57-0.67c0.78,0,1.63,0.5,2.54,1.5c0.91,1,2.3,2.93,4.16,5.77c1.86,2.85,3.02,5.06,3.49,6.64
					c0.46,1.51,0.94,2.98,1.44,4.42c1.44,4.19,2.16,8.66,2.16,13.41c0,6.46-2.19,12.51-6.57,18.15c-0.75,0.99-1.28,1.79-1.6,2.39
					c-0.55,1.06-1.04,1.9-1.46,2.51C1358.57,1560.22,1358.1,1560.53,1357.56,1560.53z"/>
			</g>
		</g>
		<g>
			<line class="st137" x1="468.25" y1="692.54" x2="468.25" y2="524.7"/>
			<line class="st137" x1="530.99" y1="692.54" x2="530.99" y2="404.84"/>
			<line class="st137" x1="685.17" y1="692.54" x2="685.17" y2="601.78"/>
			<line class="st137" x1="757.69" y1="692.54" x2="757.69" y2="473.33"/>
			<line class="st137" x1="907.35" y1="619.06" x2="907.35" y2="349.19"/>
			<line class="st137" x1="1019.45" y1="563.77" x2="1019.45" y2="404.84"/>
			<line class="st137" x1="1126.24" y1="456.54" x2="1126.24" y2="516.14"/>
			<line class="st137" x1="1231.96" y1="473.33" x2="1231.96" y2="524.7"/>
			<line class="st137" x1="1359.65" y1="499.01" x2="1359.65" y2="558.41"/>
			<line class="st137" x1="1438.84" y1="843.62" x2="1438.84" y2="501.2"/>
			<line class="st137" x1="1532.01" y1="857.56" x2="1532.01" y2="672.41"/>
		</g>
	</g>
</g>
<g id="Слой_2">
	<g id="Favorite">
	</g>
</g>
<g id="Слой_4">
</g>
</svg>
