<?xml version="1.0" encoding="utf-8"?>
<!-- Generator: Adobe Illustrator 23.1.0, SVG Export Plug-In . SVG Version: 6.00 Build 0)  -->
<svg version="1.1" xmlns="http://www.w3.org/2000/svg" xmlns:xlink="http://www.w3.org/1999/xlink" x="0px" y="0px"
	 viewBox="0 0 1920.45 2194.37" style="enable-background:new 0 0 1920.45 2194.37;" xml:space="preserve">
<style type="text/css">
	.st0{opacity:0.87;fill:url(#SVGID_1_);}
	.st1{fill:#33DEA7;}
	.st2{fill:#4890F1;}
	.st3{fill:#0B59C7;}
	.st4{fill:#1A328C;}
	.st5{fill:#367FE1;}
	.st6{fill:#FFFFFF;}
	.st7{fill:none;stroke:#FF1800;stroke-miterlimit:10;}
	.st8{fill:none;stroke:#4890F1;stroke-width:2.4807;stroke-miterlimit:10;}
	.st9{fill:none;stroke:#0B59C7;stroke-width:1.6033;stroke-miterlimit:10;}
	.st10{display:none;}
	.st11{display:inline;fill:none;stroke:#000000;stroke-miterlimit:10;}
	.st12{fill:#CFE2FF;}
	.st13{fill:none;stroke:#34E2AA;stroke-miterlimit:10;}
	.st14{fill:none;stroke:#34E2AA;stroke-width:0.9838;stroke-miterlimit:10;}
	.st15{fill:#34E2AA;fill-opacity:0.12;stroke:#34E2AA;stroke-miterlimit:10;}
	.st16{fill:#1B3390;}
	.st17{fill:#34E2AA;stroke:#1B3390;stroke-miterlimit:10;}
	.st18{fill:#FF8B2B;}
	.st19{opacity:0.5;fill:#4992F5;}
	.st20{fill:#4992F5;}
	.st21{fill:#0B5BCB;}
	.st22{fill:#ADD2FF;}
	.st23{fill:#2EC897;}
	.st24{fill:none;stroke:#4992F5;stroke-width:0.6143;stroke-miterlimit:10;}
	.st25{fill:none;stroke:#4992F5;stroke-width:0.4924;stroke-miterlimit:10;}
	.st26{fill:none;stroke:#4992F5;stroke-width:5;stroke-miterlimit:10;}
	.st27{fill:none;stroke:#0B5BCB;stroke-width:2.2717;stroke-miterlimit:10;}
	.st28{fill:#6078D5;}
	.st29{fill:#FFB87D;}
	.st30{fill:none;stroke:#284DD8;stroke-width:2.678;stroke-miterlimit:10;}
	.st31{fill:none;stroke:#34E2AA;stroke-width:6.3211;stroke-miterlimit:10;}
	.st32{fill:none;stroke:#4992F5;stroke-width:6.3211;stroke-miterlimit:10;}
	.st33{fill:none;stroke:#0B5BCB;stroke-width:2;stroke-miterlimit:10;}
	.st34{fill:#FFEBC9;}
	.st35{fill:#8CA4FB;stroke:#1B3390;stroke-width:1.8878;stroke-miterlimit:10;}
	.st36{fill:none;stroke:#1B3390;stroke-width:2;stroke-miterlimit:10;}
	.st37{fill:none;stroke:#34E2AA;stroke-width:1.8878;stroke-linecap:round;stroke-miterlimit:10;}
	.st38{fill:none;stroke:#34E2AA;stroke-width:1.8878;stroke-linecap:round;stroke-linejoin:round;stroke-miterlimit:10;}
	.st39{clip-path:url(#SVGID_5_);}
	.st40{fill:none;stroke:#F98600;stroke-width:15.7313;stroke-linecap:round;stroke-linejoin:round;stroke-miterlimit:10;}
	.st41{fill:none;stroke:#1B3390;stroke-width:3.7755;stroke-linecap:round;stroke-linejoin:round;stroke-miterlimit:10;}
	.st42{fill:#0B5BCB;stroke:#1B3390;stroke-width:1.7785;stroke-miterlimit:10;}
	.st43{fill:none;stroke:#1B3390;stroke-width:1.7785;stroke-linecap:round;stroke-miterlimit:10;}
	.st44{fill:none;stroke:#1B3390;stroke-width:1.7785;stroke-linecap:round;stroke-linejoin:round;stroke-miterlimit:10;}
	.st45{clip-path:url(#SVGID_7_);fill:none;stroke:#5FECBF;stroke-width:29.6424;stroke-linecap:round;stroke-miterlimit:10;}
	.st46{fill:none;stroke:#1B3390;stroke-width:1.7785;stroke-miterlimit:10;}
	.st47{fill:#34E2AA;stroke:#1B3390;stroke-width:1.1636;stroke-miterlimit:10;}
	.st48{fill:#94FFCC;stroke:#1B3390;stroke-width:1.1636;stroke-linecap:round;stroke-miterlimit:10;}
	.st49{fill:#94FFCC;stroke:#1B3390;stroke-width:1.1636;stroke-linecap:round;stroke-linejoin:round;stroke-miterlimit:10;}
	.st50{fill:#FFB87D;stroke:#1B3390;stroke-width:1.1636;stroke-miterlimit:10;}
	.st51{fill:#4992F5;stroke:#1B3390;stroke-width:1.1636;stroke-linecap:round;stroke-miterlimit:10;}
	.st52{fill:#4992F5;stroke:#1B3390;stroke-width:1.1636;stroke-linecap:round;stroke-linejoin:round;stroke-miterlimit:10;}
	.st53{fill:#FFB87D;stroke:#1B3390;stroke-width:1.1636;stroke-linecap:round;stroke-miterlimit:10;}
	.st54{fill:#FFB87D;stroke:#1B3390;stroke-width:1.1636;stroke-linecap:round;stroke-linejoin:round;stroke-miterlimit:10;}
	.st55{opacity:0.8;fill:#DBE2FF;}
	.st56{opacity:0.8;fill:#B3C2FF;}
	.st57{opacity:0.8;fill:#FFF3E8;}
	.st58{opacity:0.8;fill:#D6FFF9;}
	.st59{fill:#0C65DF;stroke:#1B3390;stroke-width:0.764;stroke-linecap:round;stroke-linejoin:round;stroke-miterlimit:10;}
	.st60{fill:#0C65DF;stroke:#1B3390;stroke-width:0.764;stroke-miterlimit:10;}
	.st61{fill:#0C65DF;stroke:#1B3390;stroke-width:0.764;stroke-linecap:round;stroke-miterlimit:10;}
	.st62{opacity:0.8;fill:#A1C9FF;}
	.st63{fill:none;stroke:#0B5BCB;stroke-width:1.87;stroke-miterlimit:10;}
	.st64{fill:#4992F5;stroke:#1B3390;stroke-width:2.4753;stroke-miterlimit:10;}
	.st65{fill:none;stroke:#1B3390;stroke-width:2.0994;stroke-linecap:round;stroke-miterlimit:10;}
	.st66{fill:#6CF4BC;stroke:#1B3390;stroke-width:1.6932;stroke-miterlimit:10;}
	.st67{fill:none;stroke:#1B3390;stroke-width:1.436;stroke-linecap:round;stroke-miterlimit:10;}
	.st68{fill:#FFB87D;stroke:#1B3390;stroke-width:2.1678;stroke-miterlimit:10;}
	.st69{fill:none;stroke:#1B3390;stroke-width:1.8386;stroke-linecap:round;stroke-miterlimit:10;}
	.st70{fill:#0B5FD5;stroke:#1B3390;stroke-width:1.6798;stroke-miterlimit:10;}
	.st71{fill:none;stroke:#1B3390;stroke-width:1.4247;stroke-linecap:round;stroke-miterlimit:10;}
	.st72{fill:#A6FFE1;stroke:#1B3390;stroke-width:2.0588;stroke-miterlimit:10;}
	.st73{fill:none;stroke:#1B3390;stroke-width:1.7462;stroke-linecap:round;stroke-miterlimit:10;}
	.st74{fill:#FF8B2B;stroke:#1B3390;stroke-width:2.4753;stroke-miterlimit:10;}
	.st75{fill:#34E2AA;stroke:#1B3390;stroke-width:2.1678;stroke-miterlimit:10;}
	.st76{fill:none;stroke:#1B3390;stroke-width:1.4475;stroke-linecap:round;stroke-miterlimit:10;}
	.st77{fill:#FFB87D;stroke:#1B3390;stroke-width:1.6825;stroke-miterlimit:10;}
	.st78{fill:none;stroke:#1B3390;stroke-width:1.427;stroke-linecap:round;stroke-miterlimit:10;}
	.st79{fill:#ABD0FF;}
	.st80{fill:none;stroke:#0B5BCB;stroke-width:3.3004;stroke-linecap:round;stroke-miterlimit:10;}
	.st81{fill:#E3EFFF;}
	.st82{clip-path:url(#SVGID_9_);fill:none;stroke:#FF8B2B;stroke-width:9.9011;stroke-linecap:round;stroke-miterlimit:10;}
	.st83{fill:none;stroke:#0B5BCB;stroke-width:9.737;stroke-miterlimit:10;}
	.st84{fill:#4992F5;stroke:#1B3390;stroke-width:10.6093;stroke-miterlimit:10;}
	.st85{fill:none;stroke:#1B3390;stroke-width:8.9981;stroke-linecap:round;stroke-miterlimit:10;}
	.st86{fill:#6CF4BC;stroke:#1B3390;stroke-width:7.2572;stroke-miterlimit:10;}
	.st87{fill:none;stroke:#1B3390;stroke-width:6.1551;stroke-linecap:round;stroke-miterlimit:10;}
	.st88{fill:#FFB87D;stroke:#1B3390;stroke-width:9.2915;stroke-miterlimit:10;}
	.st89{fill:none;stroke:#1B3390;stroke-width:7.8804;stroke-linecap:round;stroke-miterlimit:10;}
	.st90{fill:#0B5FD5;stroke:#1B3390;stroke-width:7.1997;stroke-miterlimit:10;}
	.st91{fill:none;stroke:#1B3390;stroke-width:6.1063;stroke-linecap:round;stroke-miterlimit:10;}
	.st92{fill:#A6FFE1;stroke:#1B3390;stroke-width:8.8244;stroke-miterlimit:10;}
	.st93{fill:none;stroke:#1B3390;stroke-width:7.4843;stroke-linecap:round;stroke-miterlimit:10;}
	.st94{fill:#FF8B2B;stroke:#1B3390;stroke-width:10.6093;stroke-miterlimit:10;}
	.st95{fill:#34E2AA;stroke:#1B3390;stroke-width:9.2915;stroke-miterlimit:10;}
	.st96{fill:none;stroke:#1B3390;stroke-width:6.2044;stroke-linecap:round;stroke-miterlimit:10;}
	.st97{fill:#FFB87D;stroke:#1B3390;stroke-width:7.2116;stroke-miterlimit:10;}
	.st98{fill:none;stroke:#1B3390;stroke-width:6.1164;stroke-linecap:round;stroke-miterlimit:10;}
	.st99{fill:none;stroke:#0B5BCB;stroke-width:14.1457;stroke-linecap:round;stroke-miterlimit:10;}
	.st100{clip-path:url(#SVGID_11_);fill:none;stroke:#FF8B2B;stroke-width:42.4372;stroke-linecap:round;stroke-miterlimit:10;}
	.st101{fill:none;stroke:#0B5BCB;stroke-width:8.5723;stroke-miterlimit:10;}
	.st102{fill:#FFB87D;stroke:#1C3CB7;stroke-width:3;stroke-linecap:round;stroke-linejoin:round;stroke-miterlimit:10;}
	.st103{fill:#FFEED1;stroke:#1C3CB7;stroke-width:3;stroke-linejoin:round;stroke-miterlimit:10;}
	.st104{fill:#FF8B2B;stroke:#1C3CB7;stroke-width:3;stroke-miterlimit:10;}
	.st105{fill:#FFE2C9;stroke:#1C3CB7;stroke-width:3;stroke-linejoin:round;stroke-miterlimit:10;}
	.st106{fill:#1B3390;stroke:#1C3CB7;stroke-miterlimit:10;}
	.st107{fill:#0B5BCB;stroke:#1C3CB7;stroke-miterlimit:10;}
	.st108{fill:#4992F5;stroke:#1C3CB7;stroke-width:3;stroke-miterlimit:10;}
	.st109{fill:#4992F5;stroke:#1C3CB7;stroke-width:3;stroke-linecap:round;stroke-miterlimit:10;}
	.st110{fill:#8CA4FB;stroke:#1C3CB7;stroke-width:3;stroke-linecap:round;stroke-linejoin:round;stroke-miterlimit:10;}
	.st111{fill:#D1FFEF;stroke:#1C3CB7;stroke-width:3;stroke-linejoin:round;stroke-miterlimit:10;}
	.st112{fill:#0B5BCB;stroke:#1C3CB7;stroke-width:3;stroke-miterlimit:10;}
	.st113{fill:#B2C2FB;stroke:#1C3CB7;stroke-width:3;stroke-linejoin:round;stroke-miterlimit:10;}
	.st114{fill:#34E2AA;stroke:#1C3CB7;stroke-miterlimit:10;}
	.st115{fill:#66FFC8;stroke:#1C3CB7;stroke-miterlimit:10;}
	.st116{fill:#73FFCD;stroke:#1C3CB7;stroke-miterlimit:10;}
	.st117{fill:#00D38E;stroke:#1C3CB7;stroke-miterlimit:10;}
	.st118{fill:#34E2AA;stroke:#1C3CB7;stroke-width:3;stroke-miterlimit:10;}
	.st119{fill:#FF8B2B;stroke:#1C3CB7;stroke-miterlimit:10;}
	.st120{fill:#FFB87D;stroke:#1C3CB7;stroke-miterlimit:10;}
	.st121{fill:#FFB87D;stroke:#1C3CB7;stroke-width:3;stroke-miterlimit:10;}
	.st122{fill:none;stroke:#1C3CB7;stroke-width:2;stroke-miterlimit:10;}
	.st123{fill:#75FFCE;stroke:#1B3390;stroke-width:3;stroke-miterlimit:10;}
	.st124{fill:none;stroke:#1B3390;stroke-width:3;stroke-miterlimit:10;}
	.st125{fill:#00C39F;stroke:#1B3390;stroke-width:3;stroke-miterlimit:10;}
	.st126{fill:#A8FFE6;}
	.st127{opacity:0.8;fill:#A8FFE6;}
	.st128{fill:#8CA4FB;stroke:#1B3390;stroke-width:3;stroke-miterlimit:10;}
	.st129{fill:#0B5BCB;stroke:#1B3390;stroke-width:3;stroke-miterlimit:10;}
	.st130{fill:#D8E0FB;}
	.st131{opacity:0.8;fill:#D8E0FB;}
	.st132{fill:#FFB87D;stroke:#0655C3;stroke-width:3;stroke-linecap:round;stroke-linejoin:round;stroke-miterlimit:10;}
	.st133{fill:#FFE3CC;}
	.st134{fill:none;stroke:#0B5BCB;stroke-width:3;stroke-linecap:round;stroke-linejoin:round;stroke-miterlimit:10;}
	.st135{fill:#34E2AA;stroke:#1B3390;stroke-width:3;stroke-miterlimit:10;}
	.st136{fill:#BAFFE9;}
	.st137{fill:#ABFFE4;}
	.st138{fill:#5790DF;stroke:#0655C3;stroke-width:3;stroke-linecap:round;stroke-linejoin:round;stroke-miterlimit:10;}
	.st139{fill:#80B9F6;}
	.st140{fill:#629FE4;}
	.st141{fill:#0B5BCB;stroke:#0B5BCB;stroke-width:4;stroke-miterlimit:10;}
	.st142{fill:#34E2AA;stroke:#0B5BCB;stroke-width:3;stroke-linejoin:round;stroke-miterlimit:10;}
	.st143{fill:none;stroke:#0B5BCB;stroke-width:3;stroke-linecap:round;stroke-miterlimit:10;}
	.st144{fill:#4992F5;stroke:#0B5BCB;stroke-width:4;stroke-miterlimit:10;}
	.st145{fill:#C7FFED;stroke:#34E2AA;stroke-width:3;stroke-miterlimit:10;}
	.st146{fill:#FFD1AB;stroke:#0B5BCB;stroke-width:3;stroke-miterlimit:10;}
	.st147{fill:#34E2AA;stroke:#34E2AA;stroke-width:3;stroke-linejoin:round;stroke-miterlimit:10;}
	.st148{fill:#8CA4FB;stroke:#0B5BCB;stroke-width:3;stroke-linejoin:round;stroke-miterlimit:10;}
	.st149{fill:#69FFC7;stroke:#0B5BCB;stroke-width:3;stroke-linejoin:round;stroke-miterlimit:10;}
	.st150{fill:#FFB87D;stroke:#0B5BCB;stroke-width:3;stroke-linejoin:round;stroke-miterlimit:10;}
	.st151{fill:#ADBEFF;}
	.st152{fill:#FFEAD9;}
	.st153{fill:#D6FFF4;}
	.st154{fill:#CCD6FF;}
	.st155{fill:none;stroke:#33DEA7;stroke-width:5.4384;stroke-miterlimit:10;}
	.st156{fill:#4AE2B1;}
	.st157{fill:#8CA4FB;}
	.st158{opacity:0.25;fill:#FF8B2B;}
	.st159{fill:none;stroke:#FF8B2B;stroke-miterlimit:10;}
	.st160{fill:none;stroke:#FF8B2B;stroke-width:0.9367;stroke-miterlimit:10;}
	.st161{fill:#FF9843;}
	.st162{opacity:0.3;fill:#34E2AA;}
	.st163{display:inline;}
	.st164{fill:#0B87C7;}
	.st165{fill:#92FCCA;stroke:#1A328C;stroke-width:1.1636;stroke-miterlimit:10;}
	.st166{fill:#92FCCA;stroke:#1A328C;stroke-width:1.1636;stroke-linecap:round;stroke-miterlimit:10;}
	.st167{fill:#92FCCA;stroke:#1A328C;stroke-width:1.1636;stroke-linecap:round;stroke-linejoin:round;stroke-miterlimit:10;}
	.st168{fill:#0C63DB;stroke:#1A328C;stroke-width:0.764;stroke-linecap:round;stroke-linejoin:round;stroke-miterlimit:10;}
	.st169{fill:#0C63DB;stroke:#1A328C;stroke-width:0.764;stroke-miterlimit:10;}
	.st170{fill:#0C63DB;stroke:#1A328C;stroke-width:0.764;stroke-linecap:round;stroke-miterlimit:10;}
	.st171{fill:#8AA1F7;stroke:#1B3BB3;stroke-width:3;stroke-linecap:round;stroke-linejoin:round;stroke-miterlimit:10;}
	.st172{fill:#D1FFEF;stroke:#1B3BB3;stroke-width:3;stroke-linejoin:round;stroke-miterlimit:10;}
	.st173{fill:#0B59C7;stroke:#1B3BB3;stroke-width:3;stroke-miterlimit:10;}
	.st174{fill:#AFBFF7;stroke:#1B3BB3;stroke-width:3;stroke-linejoin:round;stroke-miterlimit:10;}
	.st175{fill:#1A328C;stroke:#1B3BB3;stroke-miterlimit:10;}
	.st176{fill:#66FFC8;stroke:#1B3BB3;stroke-miterlimit:10;}
	.st177{fill:#0B59C7;stroke:#1B3BB3;stroke-miterlimit:10;}
	.st178{fill:#4890F1;stroke:#1B3BB3;stroke-width:3;stroke-miterlimit:10;}
	.st179{fill:#4890F1;stroke:#1B3BB3;stroke-width:3;stroke-linecap:round;stroke-miterlimit:10;}
	.st180{fill:#8AA1F7;stroke:#0B59C7;stroke-width:5.0442;stroke-linejoin:round;stroke-miterlimit:10;}
	.st181{fill:#C1CCF7;}
	.st182{fill:none;stroke:#4890F1;stroke-width:10.418;stroke-miterlimit:10;}
	.st183{fill:none;stroke:#4890F1;stroke-width:8.3506;stroke-miterlimit:10;}
	.st184{fill:#E6F0FF;stroke:#DBE3FF;stroke-width:3.6654;stroke-miterlimit:10;}
	.st185{fill:#E6F0FF;}
	.st186{fill:#DBE3FF;}
	.st187{fill:#FFE1C9;stroke:#E0E6FF;stroke-width:5.2027;stroke-miterlimit:10;}
	.st188{fill:#E0FFF7;}
	.st189{fill:#E0E6FF;}
	.st190{fill:#DBE9FF;stroke:#CCD7FF;stroke-width:3.6654;stroke-miterlimit:10;}
	.st191{fill:#DBE9FF;}
	.st192{fill:#CCD7FF;}
	.st193{fill:#9EC2F7;stroke:#9CB1FF;stroke-width:3.6654;stroke-miterlimit:10;}
	.st194{fill:#9EC2F7;}
	.st195{fill:#9CB1FF;}
	.st196{fill:#99C3FF;stroke:#91A9FF;stroke-width:4.0452;stroke-miterlimit:10;}
	.st197{fill:#99C3FF;}
	.st198{fill:#91A9FF;}
	.st199{fill:#FFD7B5;stroke:#A1B5FF;stroke-width:5.2027;stroke-miterlimit:10;}
	.st200{fill:#A1B5FF;}
	.st201{fill:#B8FFEC;stroke:#A1B5FF;stroke-width:5.2027;stroke-miterlimit:10;}
	.st202{fill:#B8FFEC;}
	.st203{fill:#E0FFF7;stroke:#E0E6FF;stroke-width:5.2027;stroke-miterlimit:10;}
	.st204{fill:#FFEAD9;stroke:#DBE3FF;stroke-width:3.6654;stroke-miterlimit:10;}
	.st205{opacity:0.2;}
	.st206{fill:#4890F1;stroke:#1A328C;stroke-width:2.274;stroke-miterlimit:10;}
	.st207{fill:none;stroke:#1A328C;stroke-width:1.9286;stroke-linecap:round;stroke-miterlimit:10;}
	.st208{fill:#6AF0B9;stroke:#1A328C;stroke-width:1.5555;stroke-miterlimit:10;}
	.st209{fill:none;stroke:#1A328C;stroke-width:1.3193;stroke-linecap:round;stroke-miterlimit:10;}
	.st210{fill:#FFB87D;stroke:#1A328C;stroke-width:1.9915;stroke-miterlimit:10;}
	.st211{fill:none;stroke:#1A328C;stroke-width:1.6891;stroke-linecap:round;stroke-miterlimit:10;}
	.st212{fill:#0B5DD1;stroke:#1A328C;stroke-width:1.5432;stroke-miterlimit:10;}
	.st213{fill:none;stroke:#1A328C;stroke-width:1.3088;stroke-linecap:round;stroke-miterlimit:10;}
	.st214{fill:#A6FFE1;stroke:#1A328C;stroke-width:1.8914;stroke-miterlimit:10;}
	.st215{fill:none;stroke:#1A328C;stroke-width:1.6042;stroke-linecap:round;stroke-miterlimit:10;}
	.st216{fill:#8AA1F7;stroke:#1A328C;stroke-width:2.274;stroke-miterlimit:10;}
	.st217{fill:none;stroke:#1A328C;stroke-width:1.3298;stroke-linecap:round;stroke-miterlimit:10;}
	.st218{fill:#FFB87D;stroke:#1A328C;stroke-width:1.5457;stroke-miterlimit:10;}
	.st219{fill:none;stroke:#1A328C;stroke-width:1.311;stroke-linecap:round;stroke-miterlimit:10;}
	.st220{fill:none;stroke:#0B59C7;stroke-width:3.032;stroke-linecap:round;stroke-miterlimit:10;}
	.st221{clip-path:url(#SVGID_15_);fill:none;stroke:#FF8B2B;stroke-width:9.0959;stroke-linecap:round;stroke-miterlimit:10;}
	.st222{fill:#A6FFDE;stroke:#0B59C7;stroke-width:5;stroke-linejoin:round;stroke-miterlimit:10;}
	.st223{fill:#A6FFDE;stroke:#0B59C7;stroke-width:4.2028;stroke-linejoin:round;stroke-miterlimit:10;}
	.st224{fill:#8AA1F7;stroke:#1A328C;stroke-width:5;stroke-miterlimit:10;}
	.st225{fill:none;stroke:#1A328C;stroke-width:5;stroke-miterlimit:10;}
	.st226{fill:#0B59C7;stroke:#1A328C;stroke-width:5;stroke-miterlimit:10;}
	.st227{fill:#75FFCE;stroke:#1A328C;stroke-width:5;stroke-miterlimit:10;}
	.st228{fill:#D4DCF7;}
	.st229{opacity:0.8;fill:#D4DCF7;}
	.st230{fill:#558DDB;stroke:#0653BF;stroke-width:5;stroke-linecap:round;stroke-linejoin:round;stroke-miterlimit:10;}
	.st231{fill:#7EB6F2;}
	.st232{fill:#609CE0;}
	.st233{fill:none;stroke:#0B59C7;stroke-width:5;stroke-linecap:round;stroke-linejoin:round;stroke-miterlimit:10;}
	.st234{fill:#FF8B2B;stroke:#0B59C7;stroke-width:5;stroke-miterlimit:10;}
	.st235{fill:none;stroke:#33DEA7;stroke-width:5;stroke-linecap:round;stroke-miterlimit:10;}
	.st236{fill:none;stroke:#33DEA7;stroke-width:5;stroke-linecap:round;stroke-linejoin:round;stroke-miterlimit:10;}
	.st237{clip-path:url(#SVGID_17_);}
	.st238{fill:none;stroke:#1A328C;stroke-width:5;stroke-linecap:round;stroke-linejoin:round;stroke-miterlimit:10;}
	.st239{fill:#8AA1F7;stroke:#33DEA7;stroke-width:0.7994;stroke-miterlimit:10;}
	.st240{fill:none;stroke:#33DEA7;stroke-width:0.7994;stroke-linecap:round;stroke-miterlimit:10;}
	.st241{fill:none;stroke:#33DEA7;stroke-width:0.7994;stroke-linecap:round;stroke-linejoin:round;stroke-miterlimit:10;}
	.st242{clip-path:url(#SVGID_19_);}
	.st243{fill:none;stroke:#33DEA7;stroke-width:6.662;stroke-linecap:round;stroke-linejoin:round;stroke-miterlimit:10;}
	.st244{fill:none;stroke:#1A328C;stroke-width:1.5989;stroke-linecap:round;stroke-linejoin:round;stroke-miterlimit:10;}
	.st245{fill:#4890F1;stroke:#1A328C;stroke-width:1.7649;stroke-linecap:round;stroke-miterlimit:10;}
	.st246{fill:#4890F1;stroke:#1A328C;stroke-width:1.7649;stroke-linecap:round;stroke-linejoin:round;stroke-miterlimit:10;}
	.st247{opacity:0.8;fill:#C4D0FF;}
	.st248{fill:#FFB87D;stroke:#1B3BB3;stroke-width:5;stroke-linecap:round;stroke-linejoin:round;stroke-miterlimit:10;}
	.st249{fill:#FFD6B3;stroke:#1B3BB3;stroke-width:5;stroke-linejoin:round;stroke-miterlimit:10;}
	.st250{fill:#FF8B2B;stroke:#1B3BB3;stroke-width:5;stroke-miterlimit:10;}
	.st251{fill:#FFB87D;stroke:#1B3BB3;stroke-width:5;stroke-linejoin:round;stroke-miterlimit:10;}
	.st252{fill:#96FFD4;stroke:#1B3BB3;stroke-width:5;stroke-linejoin:round;stroke-miterlimit:10;}
	.st253{fill:#1A328C;stroke:#1B3BB3;stroke-width:5;stroke-miterlimit:10;}
	.st254{fill:#0B59C7;stroke:#1B3BB3;stroke-width:5;stroke-miterlimit:10;}
	.st255{fill:#4890F1;stroke:#1B3BB3;stroke-width:5;stroke-miterlimit:10;}
	.st256{fill:#4890F1;stroke:#1B3BB3;stroke-width:5;stroke-linecap:round;stroke-miterlimit:10;}
	.st257{fill:#FFB87D;stroke:#1B3BB3;stroke-width:1.6332;stroke-linecap:round;stroke-linejoin:round;stroke-miterlimit:10;}
	.st258{fill:#FFD8B8;stroke:#1B3BB3;stroke-width:1.6332;stroke-linejoin:round;stroke-miterlimit:10;}
	.st259{fill:#FF8B2B;stroke:#1B3BB3;stroke-width:1.6332;stroke-miterlimit:10;}
	.st260{fill:#FFB87D;stroke:#1B3BB3;stroke-width:1.6332;stroke-linejoin:round;stroke-miterlimit:10;}
	.st261{fill:#1A328C;stroke:#1B3BB3;stroke-width:0.5444;stroke-miterlimit:10;}
	.st262{fill:#0B59C7;stroke:#1B3BB3;stroke-width:0.5444;stroke-miterlimit:10;}
	.st263{fill:#4890F1;stroke:#1B3BB3;stroke-width:1.6332;stroke-miterlimit:10;}
	.st264{fill:#4890F1;stroke:#1B3BB3;stroke-width:1.6332;stroke-linecap:round;stroke-miterlimit:10;}
	.st265{fill:#92FCCA;stroke:#1A328C;stroke-width:5;stroke-miterlimit:10;}
	.st266{fill:none;stroke:#1A328C;stroke-width:5;stroke-linecap:round;stroke-miterlimit:10;}
	.st267{clip-path:url(#SVGID_23_);fill:none;stroke:#8AA1F7;stroke-width:5;stroke-linecap:round;stroke-miterlimit:10;}
	.st268{fill:#7DFFD5;}
	.st269{fill:#B3FFE4;}
	.st270{fill:none;stroke:#274CD4;stroke-width:0.3105;stroke-miterlimit:10;}
	.st271{fill:#FF8B2B;stroke:#0653BF;stroke-width:2.1766;stroke-linecap:round;stroke-linejoin:round;stroke-miterlimit:10;}
	.st272{fill:#FFD2AD;}
	.st273{fill:none;stroke:#0B59C7;stroke-width:2.1766;stroke-linecap:round;stroke-linejoin:round;stroke-miterlimit:10;}
	.st274{fill:#FFB87D;stroke:#33DEA7;stroke-width:5;stroke-miterlimit:10;}
	.st275{fill:#9EFFE0;stroke:#33DEA7;stroke-width:5;stroke-miterlimit:10;}
	.st276{fill:#FF8B2B;stroke:#33DEA7;stroke-width:5;stroke-linejoin:round;stroke-miterlimit:10;}
	.st277{fill:#FF8B2B;stroke:#1A328C;stroke-width:5;stroke-miterlimit:10;}
	.st278{fill:#6AF0B9;stroke:#1A328C;stroke-width:5;stroke-miterlimit:10;}
	.st279{fill:#B5CBE8;stroke:#1A328C;stroke-width:5;stroke-miterlimit:10;}
	.st280{fill:#0B5DD1;stroke:#1A328C;stroke-width:5;stroke-miterlimit:10;}
	.st281{fill:#4890F1;stroke:#1A328C;stroke-width:5;stroke-miterlimit:10;}
	.st282{fill:#6BFFCA;stroke:#1A328C;stroke-width:5;stroke-miterlimit:10;}
	.st283{fill:none;stroke:#0B59C7;stroke-width:5;stroke-linecap:round;stroke-miterlimit:10;}
	.st284{clip-path:url(#SVGID_25_);fill:none;stroke:#FF8B2B;stroke-width:19;stroke-linecap:round;stroke-miterlimit:10;}
	.st285{fill:#FF8B2B;stroke:#0B59C7;stroke-width:5;stroke-linejoin:round;stroke-miterlimit:10;}
	.st286{fill:#FFC99C;}
	.st287{fill:#8AA1F7;stroke:#0B59C7;stroke-width:5;stroke-linejoin:round;stroke-miterlimit:10;}
	.st288{fill:#33DEA7;stroke:#1A328C;stroke-width:5;stroke-miterlimit:10;}
	.st289{fill:#8AA1F7;stroke:#0B59C7;stroke-width:1.5989;stroke-miterlimit:10;}
	.st290{fill:none;stroke:#0B59C7;stroke-width:1.5989;stroke-linecap:round;stroke-miterlimit:10;}
	.st291{fill:none;stroke:#0B59C7;stroke-width:1.5989;stroke-linecap:round;stroke-linejoin:round;stroke-miterlimit:10;}
	.st292{clip-path:url(#SVGID_27_);}
	.st293{fill:none;stroke:#FF8B2B;stroke-width:13.324;stroke-linecap:round;stroke-linejoin:round;stroke-miterlimit:10;}
	.st294{fill:none;stroke:#1A328C;stroke-width:3.1978;stroke-linecap:round;stroke-linejoin:round;stroke-miterlimit:10;}
	.st295{fill:#4890F1;stroke:#1A328C;stroke-width:1.0806;stroke-miterlimit:10;}
	.st296{fill:#4890F1;stroke:#1A328C;stroke-width:1.0806;stroke-linecap:round;stroke-miterlimit:10;}
	.st297{fill:#4890F1;stroke:#1A328C;stroke-width:1.0806;stroke-linecap:round;stroke-linejoin:round;stroke-miterlimit:10;}
	.st298{fill:#8AA1F7;stroke:#1B3BB3;stroke-width:5;stroke-linecap:round;stroke-linejoin:round;stroke-miterlimit:10;}
	.st299{fill:#D1FFEF;stroke:#1B3BB3;stroke-width:5;stroke-linejoin:round;stroke-miterlimit:10;}
	.st300{fill:#AFBFF7;stroke:#1B3BB3;stroke-width:5;stroke-linejoin:round;stroke-miterlimit:10;}
	.st301{fill:#66FFC8;stroke:#1B3BB3;stroke-width:5;stroke-miterlimit:10;}
	.st302{fill:none;stroke:#274CD4;stroke-width:0.9742;stroke-miterlimit:10;}
	.st303{fill:#8AA1F7;stroke:#0653BF;stroke-width:5;stroke-linecap:round;stroke-linejoin:round;stroke-miterlimit:10;}
	.st304{fill:#BAC8FF;}
	.st305{fill:#9EB2FF;}
	.st306{fill:#8AA1F7;stroke:#0B59C7;stroke-width:5;stroke-miterlimit:10;}
	.st307{clip-path:url(#SVGID_31_);}
	.st308{fill:none;stroke:#33DEA7;stroke-width:25;stroke-linecap:round;stroke-linejoin:round;stroke-miterlimit:10;}
	.st309{fill:#0B59C7;stroke:#0B59C7;stroke-width:5;stroke-miterlimit:10;}
	.st310{fill:#4890F1;stroke:#0B59C7;stroke-width:5;stroke-miterlimit:10;}
	.st311{fill:#FF9B47;stroke:#0B59C7;stroke-width:1.6094;stroke-linejoin:round;stroke-miterlimit:10;}
	.st312{fill:#FFC696;}
	.st313{fill:#6CCFAF;stroke:#0B59C7;stroke-width:1.5694;stroke-miterlimit:10;}
	.st314{fill:#9EFFE0;stroke:#0B59C7;stroke-width:1.5694;stroke-miterlimit:10;}
	.st315{fill:none;stroke:#0B59C7;stroke-width:1.5694;stroke-linecap:round;stroke-miterlimit:10;}
	.st316{fill:#00BD80;stroke:#0B59C7;stroke-width:1.5694;stroke-linejoin:round;stroke-miterlimit:10;}
	.st317{fill:#FF8B2B;stroke:#0653BF;stroke-width:1.5522;stroke-linecap:round;stroke-linejoin:round;stroke-miterlimit:10;}
	.st318{fill:none;stroke:#0B59C7;stroke-width:1.5522;stroke-linecap:round;stroke-linejoin:round;stroke-miterlimit:10;}
	.st319{fill:#1D4BB8;}
	.st320{fill:#33DEA7;stroke:#1A328C;stroke-miterlimit:10;}
	.st321{fill:#2DC494;}
	.st322{fill:#E3FFFB;stroke:#1A328C;stroke-miterlimit:10;}
	.st323{fill:#D9E5FF;stroke:#1A328C;stroke-miterlimit:10;}
	.st324{fill:#C9FFEB;}
	.st325{fill:#FFD0A8;}
	.st326{fill:#41F2B3;}
	.st327{fill:#31FFC0;}
	.st328{fill:#5CFFCD;}
	.st329{fill:#87FFDA;}
	.st330{fill:#9CFFE0;}
	.st331{fill:#ADFFE6;}
	.st332{fill:#BAFFEA;}
	.st333{fill:#C4DEFF;}
	.st334{fill:#FFFFFF;stroke:#33DEA7;stroke-width:2.0266;stroke-miterlimit:10;}
	.st335{fill:#FFFFFF;stroke:#FF8B2B;stroke-width:2.0266;stroke-miterlimit:10;}
	.st336{fill:#00BD81;}
	.st337{fill:#FFFFFF;stroke:#4890F1;stroke-width:2.0266;stroke-miterlimit:10;}
	.st338{fill:none;stroke:#1A328C;stroke-width:1.9243;stroke-miterlimit:10;}
	.st339{opacity:0.2;clip-path:url(#SVGID_45_);}
	.st340{clip-path:url(#SVGID_47_);fill:none;stroke:#FF8B2B;stroke-width:9.0959;stroke-linecap:round;stroke-miterlimit:10;}
	.st341{clip-path:url(#SVGID_49_);}
	.st342{clip-path:url(#SVGID_51_);}
	.st343{clip-path:url(#SVGID_55_);fill:none;stroke:#8AA1F7;stroke-width:5;stroke-linecap:round;stroke-miterlimit:10;}
	.st344{clip-path:url(#SVGID_57_);fill:none;stroke:#FF8B2B;stroke-width:19;stroke-linecap:round;stroke-miterlimit:10;}
	.st345{clip-path:url(#SVGID_59_);}
	.st346{clip-path:url(#SVGID_63_);}
	.st347{fill:#FFDCBF;stroke:#BFCCFF;stroke-width:5.4294;stroke-miterlimit:10;}
	.st348{fill:#BFCCFF;}
	.st349{fill:#BFD8FF;stroke:#ADBFFF;stroke-width:3.8251;stroke-miterlimit:10;}
	.st350{fill:#ADBFFF;}
	.st351{fill:#74A9F7;stroke:#6384FF;stroke-width:3.8251;stroke-miterlimit:10;}
	.st352{fill:#74A9F7;}
	.st353{fill:#6384FF;}
	.st354{fill:#94C0FF;stroke:#8FA7FF;stroke-width:4.2215;stroke-miterlimit:10;}
	.st355{fill:#94C0FF;}
	.st356{fill:#8FA7FF;}
	.st357{fill:#FFC899;stroke:#87A1FF;stroke-width:4;stroke-miterlimit:10;}
	.st358{fill:#87A1FF;}
	.st359{fill:#A1FFE6;stroke:#A1B5FF;stroke-width:3;stroke-miterlimit:10;}
	.st360{fill:#A1FFE6;}
	.st361{fill:#CCFFF2;stroke:#BDCAFF;stroke-width:5.4294;stroke-miterlimit:10;}
	.st362{fill:#BDCAFF;}
	.st363{fill:none;stroke:#4890F1;stroke-width:1.7372;stroke-miterlimit:10;}
	.st364{fill:none;stroke:#4890F1;stroke-width:2.5336;stroke-miterlimit:10;}
	.st365{fill:#FFEFE0;stroke:#4890F1;stroke-width:2.5336;stroke-miterlimit:10;}
</style>
<g id="Слой_1">
	<g>
		<circle class="st6" cx="211.29" cy="619.28" r="148.52"/>
		<g>
			<path class="st21" d="M180.37,539.64c-1.99,1.88-4.34,4.85-7.06,8.89c-0.73,1.08-1.33,1.94-1.78,2.56
				c-0.49,0.66-0.82,1.13-0.99,1.41c1.95,1.19,5.74,2.18,11.35,2.98c7.18,1.05,12.53,2.23,16.04,3.56c3.5,1.33,6.03,3.25,7.59,5.78
				c1.55,2.53,2.33,5.97,2.33,10.33c0,2.72-1.26,5.77-3.77,9.16c-2.51,3.38-6.7,6.59-12.56,9.63c-5.86,3.03-12.35,4.55-19.46,4.55
				c-5.83,0-10.82-1.15-14.99-3.45c-4.17-2.3-6.25-4.24-6.25-5.81c0-3.35,2.11-5.02,6.33-5.02c0.94,0,1.95,0.44,3.03,1.31
				c3.87,2.72,8.32,4.08,13.34,4.08c5.34,0,10.82-1.59,16.46-4.76c5.63-3.17,8.45-6.21,8.45-9.1c0-3.7-1.37-6.53-4.11-8.5
				c-2.74-1.97-7-3.27-12.79-3.9l-11.82-1.31c-3.31-0.42-5.88-1.28-7.69-2.59c-1.81-1.31-2.72-2.52-2.72-3.64
				c0-1.19,0.65-2.53,1.94-4.03c0.28-0.38,1.8-2.58,4.55-6.59c5.68-8.48,9.27-12.95,10.75-13.42c1.48-0.47,10.89-0.98,28.23-1.54
				c3.07-0.07,6.24-0.58,9.52-1.52c2.58-0.7,4.19-1.05,4.81-1.05c2.16,0,4.04,0.65,5.65,1.94c1.15,0.59,1.73,1.24,1.73,1.94
				c0,1.01-0.65,2.29-1.94,3.82c-1.29,1.54-3.15,2.48-5.57,2.83c-2.42,0.35-5.45,0.52-9.08,0.52l-17.48-0.52
				C187.28,538.17,183.27,538.66,180.37,539.64z"/>
		</g>
		<circle class="st83" cx="180.73" cy="560.57" r="155.79"/>
	</g>
	<g>
		<path class="st18" d="M1341.02,432.44c-0.5,0.64-1.59,0.96-3.27,0.96c-0.62,0-1.64-0.08-3.06-0.25c-1.61-0.19-2.78-0.28-3.49-0.28
			h-2.35c-0.69,0-1.3,0.01-1.85,0.04h-1.71c-0.57,0-1.17,0.01-1.81,0.04c-0.52,1.02-0.78,2.63-0.78,4.84c0,2.7-0.06,4.4-0.18,5.09
			c-0.12,0.66-0.14,1.61-0.07,2.83c0.07,1.22-0.58,1.83-1.96,1.83c-1.02,0-1.69-0.2-2.01-0.59c-0.32-0.39-0.48-1.1-0.48-2.12
			c0-0.54,0.2-2.41,0.6-5.59c0.19-1.54,0.38-3.64,0.57-6.3c-1.52-0.14-3.81-0.21-6.87-0.21c-0.52,0-1.22,0.12-2.1,0.36
			c-0.92,0.21-1.53,0.32-1.81,0.32c-0.64,0-1.22-0.24-1.73-0.73c-0.51-0.49-0.76-1.05-0.76-1.69c0-0.47,0.17-0.98,0.52-1.51
			c0.34-0.53,0.73-0.8,1.16-0.8c0.83,0,1.7,0.08,2.6,0.25c0.93,0.17,1.61,0.25,2.06,0.25l7.15-0.36c0.29-0.9,0.43-1.83,0.43-2.78
			c0-1.28-0.1-3.46-0.29-6.55c-0.09-1.28-0.14-2.38-0.14-3.31c0-0.81,0.24-1.61,0.73-2.42c0.49-0.81,1.1-1.21,1.83-1.21
			c0.38,0,0.8,0.39,1.26,1.17c0.46,0.78,0.69,1.39,0.69,1.81c0,1.23-0.11,2.88-0.32,4.95c-0.21,2.06-0.32,3.48-0.32,4.23
			c0,1.21,0.07,2.42,0.21,3.63c0.47,0.17,1.86,0.25,4.16,0.25l8.15-0.14c2.21,0,3.63,0.24,4.27,0.71
			C1340.69,429.64,1341.02,430.73,1341.02,432.44z"/>
		<path class="st18" d="M1356.74,451.33c-3.79,0-6.72-1.29-8.79-3.88c-2.06-2.58-3.09-5.81-3.09-9.68c0-4.72,1.45-9.93,4.34-15.62
			s7.11-10.36,12.65-14.02c5.54-3.65,10.42-5.48,14.64-5.48c3.08,0,6.4,1.02,9.96,3.06s6.05,4.33,7.47,6.87
			c1.42,2.54,2.13,5.91,2.13,10.1c0,6.29-4.1,12.63-12.29,19.03C1375.57,448.13,1366.56,451.33,1356.74,451.33z M1381.79,409.57
			c-0.55,0.69-1.4,1.03-2.56,1.03c-0.17,0-0.62-0.26-1.35-0.78c-0.76-0.55-1.45-0.82-2.06-0.82c-2.92,0-5.23,0.46-6.94,1.37
			c-1.71,0.91-4.05,2.81-7.03,5.67c-2.98,2.87-5.4,6.02-7.28,9.45c-1.87,3.43-2.81,6.91-2.81,10.44c0,4.2,0.98,6.83,2.95,7.9
			s4.12,1.6,6.44,1.6c2.94,0,6.62-1.17,11.03-3.52c4.41-2.35,8.49-5.37,12.24-9.05c3.75-3.69,5.62-6.69,5.62-9.02
			c0-1.33-0.21-2.88-0.64-4.64c-0.43-1.77-0.9-2.98-1.41-3.65c-0.51-0.66-1.46-1.73-2.85-3.2
			C1383.76,410.87,1382.64,409.95,1381.79,409.57z"/>
		<path class="st18" d="M1397.44,457.2c4.41-1.09,7.25-2.64,8.5-4.64c1.26-2,1.89-3.43,1.89-4.29c0-2.42-0.33-4.13-1-5.12
			c-0.31-0.45-0.46-0.89-0.46-1.32c0-0.36,0.16-0.87,0.48-1.53s0.65-1,0.98-1c0.5,0,1.28,0.18,2.35,0.55
			c1.07,0.37,1.7,0.69,1.89,0.96c0.19,0.27,0.5,1.16,0.94,2.65c0.44,1.49,0.66,2.77,0.66,3.84c0,0.4-0.45,1.65-1.33,3.75
			c-0.89,2.1-2.11,3.74-3.65,4.91c-1.54,1.17-2.99,1.89-4.34,2.15c-0.55,0.09-1.06,0.23-1.53,0.39c-1.87,0.83-3.4,1.25-4.59,1.25
			c-0.69,0-1.03-0.56-1.03-1.67C1397.19,457.67,1397.27,457.37,1397.44,457.2z"/>
		<path class="st18" d="M1441.91,411.24c-1.35,1.28-2.95,3.3-4.8,6.05c-0.5,0.74-0.9,1.32-1.21,1.74c-0.33,0.45-0.56,0.77-0.68,0.96
			c1.33,0.81,3.9,1.48,7.72,2.03c4.89,0.71,8.52,1.52,10.9,2.42c2.38,0.9,4.1,2.21,5.16,3.93c1.05,1.72,1.58,4.06,1.58,7.03
			c0,1.85-0.85,3.93-2.56,6.23c-1.71,2.3-4.55,4.48-8.54,6.55c-3.98,2.06-8.4,3.1-13.23,3.1c-3.96,0-7.36-0.78-10.19-2.35
			c-2.83-1.57-4.25-2.88-4.25-3.95c0-2.28,1.43-3.42,4.3-3.42c0.64,0,1.33,0.3,2.06,0.89c2.63,1.85,5.66,2.77,9.07,2.77
			c3.63,0,7.36-1.08,11.19-3.24c3.83-2.16,5.75-4.22,5.75-6.19c0-2.51-0.93-4.44-2.79-5.78c-1.86-1.34-4.76-2.22-8.7-2.65
			l-8.04-0.89c-2.25-0.28-4-0.87-5.23-1.76c-1.23-0.89-1.85-1.71-1.85-2.47c0-0.81,0.44-1.72,1.32-2.74
			c0.19-0.26,1.22-1.75,3.1-4.48c3.87-5.76,6.3-8.81,7.31-9.13c1.01-0.32,7.41-0.67,19.19-1.05c2.09-0.05,4.25-0.39,6.47-1.03
			c1.75-0.47,2.85-0.71,3.27-0.71c1.47,0,2.75,0.44,3.84,1.32c0.78,0.4,1.17,0.84,1.17,1.32c0,0.69-0.44,1.55-1.32,2.6
			c-0.88,1.04-2.14,1.68-3.79,1.92c-1.65,0.24-3.71,0.36-6.17,0.36l-11.88-0.36C1446.61,410.24,1443.88,410.57,1441.91,411.24z"/>
		<path class="st18" d="M1511.26,431.73c5.62-0.97,10.66-4.6,15.12-10.89c2.09-2.92,3.92-4.99,5.5-6.21
			c1.58-1.22,3.25-1.83,5.03-1.83c0.71,0,1.42,0.32,2.13,0.96c0.71,0.64,1.07,1.4,1.07,2.28c0,1.16-1.1,2.08-3.31,2.74
			c-1.16,0.36-2.25,0.96-3.27,1.81c-1.02,0.85-2.95,2.89-5.8,6.12c-2.23,2.51-4.23,4.28-6.01,5.3c-0.17,0.1-0.25,0.18-0.25,0.25
			c0,0.1,0.11,0.19,0.32,0.28c1.73,0.93,3.56,2.72,5.48,5.37c2.8,3.87,4.9,6.3,6.3,7.31c1.4,1.01,3,1.51,4.8,1.51l1.17-0.04
			c0.83-0.05,1.25,0.32,1.25,1.1c0,0.9-0.51,1.84-1.53,2.81c-1.02,0.97-2.7,1.46-5.05,1.46c-1.8,0-3.55-0.78-5.25-2.33
			c-1.7-1.55-3.63-4.07-5.82-7.56c-1.26-2.06-2.43-3.63-3.52-4.7c-1.09-1.07-2.3-1.6-3.63-1.6c-0.29,0-1.16,0.24-2.63,0.71
			c-1.47,0.47-2.29,0.93-2.47,1.37c-0.18,0.44-0.31,2.02-0.39,4.73c-0.08,2.72-0.13,4.9-0.13,6.56c0,0.88-0.42,1.66-1.25,2.35
			c-0.83,0.69-1.73,1.03-2.7,1.03c-1,0-1.78-0.29-2.35-0.87s-0.85-1.18-0.85-1.8c0-0.85,0.32-2.87,0.96-6.05
			c1.14-5.79,2.28-15.33,3.42-28.64c0.09-1.28,0.58-2.44,1.46-3.47c0.88-1.03,1.87-1.55,2.99-1.55c0.62,0,1.13,0.33,1.55,1
			c0.42,0.66,0.62,1.52,0.62,2.56c0,0.83-0.14,1.78-0.43,2.85C1512.43,421.59,1511.59,426.61,1511.26,431.73z"/>
		<path class="st18" d="M1602.05,409.03c-0.85-3.7-1.91-6.29-3.17-7.76c-1.26-1.47-2.92-2.61-4.98-3.42
			c-2.06-0.81-3.93-1.21-5.58-1.21c-0.64,0-1.58,0.24-2.83,0.73c-1.25,0.49-2.2,0.93-2.86,1.33c-0.92,0.55-1.78,0.82-2.56,0.82
			c-0.9,0-1.35-0.47-1.35-1.42c0-1.02,0.77-2.43,2.31-4.23c1.54-1.8,4.26-2.7,8.15-2.7h1.53c3.87,0,7.28,1.01,10.25,3.04
			s5.07,4.93,6.32,8.7c1.25,3.77,1.87,8.84,1.87,15.19c0,4.32-1.36,9.55-4.09,15.69c-2.73,6.14-6.2,10.79-10.41,13.95
			s-8.69,4.73-13.43,4.73c-1.71,0-3.31-0.98-4.8-2.95c-1.49-1.97-2.24-4.41-2.24-7.33c0-5.38,1.18-10.13,3.54-14.25
			c2.36-4.11,5-7.45,7.93-10.02c2.93-2.56,6.98-4.63,12.15-6.19c1.71-0.5,2.87-0.89,3.49-1.17
			C1601.89,410.28,1602.15,409.77,1602.05,409.03z M1603.01,416.29c-5.48,1.12-9.68,2.88-12.59,5.3
			c-6.59,6.17-9.89,13.08-9.89,20.74c0,1.02,0.18,1.97,0.53,2.86c0.36,0.89,0.76,1.33,1.21,1.33c1.75,0,3.36-0.31,4.8-0.93
			c1.45-0.62,3.21-1.9,5.3-3.86c2.09-1.96,3.98-4.38,5.67-7.28c1.7-2.89,2.93-5.68,3.7-8.36c0.77-2.68,1.18-4.74,1.23-6.17
			C1603.02,418.5,1603.04,417.29,1603.01,416.29z"/>
		<path class="st18" d="M1623.79,452.22c-3.25,0-5.93-1.23-8.04-3.7c-2.11-2.47-3.17-5.51-3.17-9.14c0-6.12,2.06-12.15,6.17-18.09
			c4.11-5.94,9.04-8.91,14.78-8.91c3.79,0,6.87,1.46,9.23,4.38c2.36,2.92,3.54,6.39,3.54,10.42c0,6.17-2.44,11.88-7.31,17.15
			C1634.13,449.59,1629.06,452.22,1623.79,452.22z M1618.85,438.46c0,2.4,0.5,4.35,1.51,5.87c1.01,1.52,2.34,2.28,4,2.28
			c3.53,0,7.08-1.94,10.64-5.82c3.56-3.88,5.34-8.19,5.34-12.93c0-2.92-0.68-5.28-2.05-7.1c-1.36-1.81-3.2-2.72-5.5-2.72
			c-3.82,0-7.1,2.34-9.84,7.03C1620.21,429.74,1618.85,434.21,1618.85,438.46z"/>
		<path class="st18" d="M1676.59,414.19c5.38,2.18,8.08,7.35,8.08,15.51c0,6.12-1.91,11.47-5.73,16.05
			c-3.82,4.58-7.97,6.87-12.45,6.87c-4.01,0-7.13-1.59-9.36-4.77s-3.34-7.83-3.34-13.95c0-7.38,1.3-14.84,3.9-22.4
			c2.6-7.55,5.83-13.26,9.71-17.11c3.88-3.85,7.8-5.78,11.76-5.78c2.4,0,4.32,0.79,5.78,2.37c1.46,1.58,2.19,3.77,2.19,6.56
			c0,2.23-0.97,4.87-2.9,7.93C1682.29,408.53,1679.74,411.44,1676.59,414.19z M1678.15,430.7c0-3.53-0.65-6.38-1.96-8.54
			c-1.3-2.16-2.75-3.24-4.34-3.24c-0.47,0-3.12,1.83-7.93,5.48c-1.23,0.95-2.43,1.83-3.59,2.63c-0.36,2.04-0.53,4.28-0.53,6.72
			c0,4.32,0.65,7.57,1.94,9.75c1.29,2.18,3.08,3.27,5.35,3.27c3.18,0,5.82-1.67,7.92-5c2.1-3.33,3.15-7,3.15-11.01V430.7z
			 M1661.15,420.67c9.13-7.04,14.78-12.08,16.94-15.1c2.16-3.02,3.24-5.4,3.24-7.13c0-2.77-1.12-4.16-3.34-4.16
			c-3.11,0-6.23,2.34-9.37,7.01C1665.46,405.95,1662.97,412.41,1661.15,420.67z"/>
		<path class="st18" d="M1724.12,438.38c0,2.42-2.14,5.34-6.42,8.75s-8.7,5.12-13.25,5.12c-3.82,0-6.77-1.13-8.84-3.38
			c-2.08-2.25-3.11-5.4-3.11-9.43c0-6.78,2.29-13.24,6.87-19.35c4.58-6.12,9.58-9.18,15.01-9.18c1.78,0,3.23,0.58,4.36,1.74
			c1.13,1.16,1.69,2.56,1.69,4.2c0,3.65-1.79,7.15-5.37,10.5c-3.58,3.34-8.37,6.63-14.37,9.86c-1.23,0.64-1.85,1.47-1.85,2.49
			c0,1.97,0.57,3.55,1.71,4.73c1.14,1.19,2.82,1.78,5.05,1.78c5.1,0,10.31-2.82,15.62-8.47c0.78-0.78,1.38-1.17,1.78-1.17
			C1723.74,436.57,1724.12,437.17,1724.12,438.38z M1699.39,432.83c10.06-5.98,15.08-10.78,15.08-14.41c0-1.42-0.64-2.13-1.92-2.13
			c-2.18,0-4.64,1.6-7.38,4.8C1702.44,424.29,1700.51,428.21,1699.39,432.83z"/>
		<path class="st18" d="M1738.42,446.32c-1.16,4.27-2.25,10.26-3.27,17.97l-1,6.72c-0.17,0.95-0.6,1.89-1.32,2.83
			s-1.36,1.41-1.96,1.41c-0.74,0-1.57-0.37-2.51-1.12c-0.94-0.75-1.41-1.35-1.41-1.8c0-1.31,0.3-3.11,0.89-5.41
			c4.34-17.53,6.51-32.92,6.51-46.18l-0.04-2.99c-0.05-2.56,0.4-4.42,1.35-5.59c0.95-1.16,2.04-1.74,3.27-1.74
			c0.57,0,1.12,0.44,1.64,1.33c0.52,0.89,0.78,2.15,0.78,3.79c0,2.3-0.24,5.09-0.71,8.36c-0.62,4.13-0.94,6.5-0.96,7.12
			c3.53-6.17,7.28-10.98,11.24-14.44c3.96-3.46,7.64-5.19,11.03-5.19c2.4,0,4.42,0.9,6.07,2.69c1.65,1.79,2.47,4.02,2.47,6.67
			c0,7.73-2.97,14.75-8.89,21.06c-5.93,6.31-11.71,9.46-17.33,9.46c-1.4,0-2.51-0.36-3.33-1.07S1739.3,448.19,1738.42,446.32z
			 M1760.52,417.68c-3.34,0-7.48,3.13-12.42,9.39s-7.4,11.14-7.4,14.62c0,0.85,0.49,1.68,1.46,2.49c0.97,0.81,2.21,1.21,3.7,1.21
			c3.39,0,7.29-2.51,11.71-7.52c4.41-5.02,6.62-9.94,6.62-14.78c0-1.73-0.35-3.06-1.05-4
			C1762.43,418.15,1761.56,417.68,1760.52,417.68z"/>
		<path class="st18" d="M1803.78,434.97c-3.04,5.1-6.14,9.05-9.32,11.85c-3.18,2.8-6.13,4.2-8.86,4.2c-1.57,0-3.16-0.91-4.79-2.74
			c-1.63-1.83-2.44-4.64-2.44-8.43c0-3.11,0.75-7.68,2.24-13.73c1.26-5.05,1.89-8.6,1.89-10.64c0.69-1.42,1.77-2.13,3.24-2.13
			c1,0,1.79,0.35,2.38,1.05c0.59,0.7,0.89,1.43,0.89,2.19c0,1.66-0.58,4.02-1.74,7.08c-2.21,5.95-3.31,11.06-3.31,15.33
			c0,3.89,0.9,5.83,2.7,5.83c2.3,0,5.23-1.96,8.79-5.87c3.56-3.91,6.61-9.37,9.14-16.37c1-2.8,1.81-4.62,2.44-5.46
			c0.63-0.84,1.48-1.26,2.54-1.26c1.61,0,2.42,1.07,2.42,3.2c0,0.26-0.23,1.13-0.68,2.6c-1.42,5.19-2.13,10.1-2.13,14.73
			c0,5.55,0.91,9.14,2.74,10.78c0.95,0.88,1.42,1.59,1.42,2.13c0,0.66-0.48,1.27-1.44,1.81c-0.96,0.55-1.83,0.82-2.61,0.82
			c-1.66,0-3-1.23-4.02-3.7c-1.02-2.47-1.53-6.11-1.53-10.92v-1.17C1803.74,435.76,1803.76,435.37,1803.78,434.97z"/>
		<path class="st18" d="M1849.21,427.92c0.05-0.12,0.11-0.24,0.18-0.36l0.25-0.43c2.16-5.29,4.87-9.35,8.13-12.19
			c3.26-2.83,6.82-4.25,10.69-4.25c3.79,0,6.87,1.46,9.23,4.38c2.36,2.92,3.54,6.39,3.54,10.42c0,6.17-2.44,11.88-7.31,17.15
			s-9.94,7.9-15.21,7.9c-3.23,0-5.9-1.23-8.02-3.7c-2.12-2.47-3.18-5.5-3.18-9.11l-0.07-1.46c-0.05-0.83-0.1-1.35-0.16-1.57
			c-0.06-0.21-0.3-0.32-0.73-0.32h-6.16c-2.28,0.02-4.25,0.19-5.91,0.5c-1.66,0.31-2.65,0.6-2.97,0.89s-0.56,0.91-0.73,1.89
			c-0.26,1.52-0.49,2.62-0.68,3.31c-0.21,0.81-0.32,1.65-0.32,2.53l0.14,2.99c0,1.07-0.29,2.2-0.87,3.4c-0.58,1.2-1.5,1.8-2.76,1.8
			c-1.94,0-2.92-1.27-2.92-3.81l0.14-3.13c0-0.38,0.26-2.21,0.78-5.48c0.64-4.03,1.25-10.37,1.81-19c0.19-2.77,0.33-4.48,0.41-5.12
			c0.08-0.64,0.51-1.26,1.28-1.87c0.77-0.6,1.62-0.91,2.54-0.91c1.71,0,2.56,0.7,2.56,2.1c0,0.21-0.27,1.99-0.82,5.34
			c-0.57,3.34-0.85,5.94-0.85,7.79c0,1.3,0.45,1.96,1.35,1.96c1.97,0,5.21-0.2,9.73-0.59
			C1846.85,428.58,1849.14,428.23,1849.21,427.92z M1853.77,436.78c0,2.4,0.5,4.35,1.51,5.87c1.01,1.52,2.34,2.28,4,2.28
			c3.53,0,7.08-1.94,10.64-5.82s5.34-8.19,5.34-12.93c0-2.92-0.68-5.28-2.05-7.1c-1.36-1.81-3.2-2.72-5.5-2.72
			c-3.82,0-7.1,2.34-9.84,7.03C1855.14,428.07,1853.77,432.54,1853.77,436.78z"/>
	</g>
	<g>
		<path d="M612.07,1454.49c0,2.58-0.89,8.48-2.67,17.68c-3.8,19.53-5.91,38.25-6.33,56.14c0,1.54-0.89,3.04-2.67,4.53
			c-1.78,1.48-3.24,2.22-4.39,2.22c-1.01,0-2.01-0.41-3.01-1.23c-0.99-0.82-1.53-1.88-1.6-3.17v-0.21c0-0.87,0.33-3.33,0.99-7.38
			c1.85-11.34,2.77-18.22,2.77-20.67v-0.79c0-1.64-0.96-2.46-2.88-2.46c-1.5,0-4.69,0.24-9.58,0.73c-4.88,0.52-8.13,0.79-9.73,0.79
			c-1.01,0-4.6,0.26-10.78,0.78c-6.17,0.52-9.5,0.94-9.99,1.26c-0.7,0.17-1.24,3.54-1.62,10.1c-0.59,9.84-1.26,16-1.99,18.5
			c-0.73,2.49-2.08,3.74-4.03,3.74c-0.87,0-2.05-0.79-3.53-2.38s-2.26-2.96-2.33-4.11v-0.37c0-1.08,0.3-2.63,0.89-4.66
			c0.63-2.2,1.33-6.04,2.09-11.54c0.77-5.49,2.46-20.15,5.08-43.98l0.89-8c0.24-2.34,0.67-3.88,1.28-4.63
			c0.61-0.75,1.23-1.16,1.86-1.23c0.63-0.07,1.17-0.1,1.62-0.1c3.56,0.66,5.41,2.27,5.55,4.81v1.31c0,3.14-0.75,8.27-2.25,15.38
			c-1.57,7.33-2.35,12.42-2.35,15.28v0.42c0,1.29,1.94,1.94,5.81,1.94c5.58,0,13.18-0.47,22.79-1.41c9.61-0.94,14.68-2.18,15.2-3.71
			c0.52-1.53,1.18-5.68,1.96-12.43c0.79-6.75,1.28-13.8,1.49-21.16c0-0.63,0.71-1.48,2.12-2.56c1.41-1.08,2.75-1.62,4-1.62
			c1.22,0,2.42,0.35,3.58,1.05c1.17,0.7,1.75,1.64,1.75,2.83V1454.49z"/>
		<path d="M660.15,1509.11c-4.47,7.5-9.03,13.31-13.71,17.42c-4.67,4.12-9.02,6.17-13.03,6.17c-2.3,0-4.65-1.34-7.04-4.03
			c-2.39-2.69-3.58-6.82-3.58-12.4c0-4.57,1.1-11.3,3.3-20.2c1.85-7.43,2.77-12.64,2.77-15.64c1.01-2.09,2.6-3.14,4.76-3.14
			c1.47,0,2.63,0.52,3.51,1.54c0.87,1.03,1.31,2.1,1.31,3.22c0,2.44-0.85,5.91-2.56,10.41c-3.24,8.76-4.87,16.27-4.87,22.55
			c0,5.72,1.33,8.58,3.98,8.58c3.38,0,7.69-2.88,12.92-8.63c5.23-5.75,9.71-13.78,13.45-24.07c1.46-4.12,2.66-6.79,3.58-8.03
			c0.92-1.24,2.17-1.86,3.74-1.86c2.37,0,3.56,1.57,3.56,4.71c0,0.38-0.33,1.66-0.99,3.82c-2.09,7.64-3.14,14.86-3.14,21.66
			c0,8.16,1.34,13.45,4.03,15.85c1.39,1.29,2.09,2.34,2.09,3.14c0,0.98-0.71,1.87-2.12,2.67c-1.41,0.8-2.69,1.2-3.85,1.2
			c-2.44,0-4.41-1.81-5.91-5.44c-1.5-3.63-2.25-8.98-2.25-16.06v-1.73C660.1,1510.28,660.12,1509.7,660.15,1509.11z"/>
		<path d="M802.67,1509.11c-4.46,7.5-9.03,13.31-13.71,17.42c-4.67,4.12-9.02,6.17-13.03,6.17c-2.3,0-4.65-1.34-7.04-4.03
			c-2.39-2.69-3.58-6.82-3.58-12.4c0-2.86,0.3-6.02,0.89-9.47c-3.31,6.56-7.57,12.19-12.77,16.9s-9.84,7.06-13.92,7.06
			c-1.95,0-4.09-1.15-6.41-3.45c-2.32-2.3-3.48-5.41-3.48-9.31c0-4.5,0.19-7.88,0.58-10.15c0.31-2.06,0.58-4.19,0.79-6.38
			c0.21-1.74,0.45-3.38,0.73-4.92c1.36-7.5,1.88-12.33,1.57-14.49c0.73-2.48,2.42-3.71,5.08-3.71c1.05,0,2.07,0.43,3.06,1.28
			c0.99,0.86,1.49,2.26,1.49,4.21c0,3.21-0.72,7.22-2.15,12.03c-1.92,6.45-2.88,12.17-2.88,17.16c0,2.72,0.2,4.83,0.6,6.33
			c0.4,1.5,1.3,2.25,2.7,2.25c4.6,0,9.79-4.08,15.57-12.24c5.77-8.16,10.35-16.67,13.73-25.53c1.5-4.01,3.38-6.02,5.65-6.02
			c1.46,0,2.63,0.51,3.5,1.54c0.87,1.03,1.31,2.1,1.31,3.22c0,2.44-0.86,5.91-2.56,10.41c-3.24,8.62-4.87,15.96-4.87,22.03
			c0,5.72,1.33,8.58,3.98,8.58c1.19,0,2.64-0.42,4.37-1.26c1.73-0.84,3.86-2.54,6.41-5.1c2.54-2.56,5.03-5.72,7.46-9.47
			c2.42-3.75,3.95-6.47,4.58-8.16c0.63-1.69,1.9-5.68,3.82-11.96c1.22-4.08,2.35-6.84,3.38-8.29c1.03-1.45,2.36-2.17,4-2.17
			c2.37,0,3.56,1.57,3.56,4.71c0,0.38-0.33,1.66-0.99,3.82c-0.98,3.35-1.8,7.6-2.46,12.74c-0.66,5.15-0.99,9.39-0.99,12.74
			c0,8.16,1.34,13.45,4.03,15.85c1.39,1.29,2.09,2.34,2.09,3.14c0,0.98-0.71,1.87-2.12,2.67c-1.41,0.8-2.69,1.2-3.85,1.2
			c-2.44,0-4.41-1.81-5.91-5.44c-1.5-3.63-2.25-8.98-2.25-16.06v-1.73C802.62,1510.28,802.64,1509.7,802.67,1509.11z"/>
		<path d="M864.41,1512.82c-4.88,6.56-9.71,11.48-14.49,14.75c-4.78,3.28-9.16,4.92-13.13,4.92c-2.69,0-5.01-1.13-6.96-3.4
			c-1.95-2.27-2.93-5.18-2.93-8.74c0-9.17,4.1-19.05,12.29-29.64c8.2-10.59,16.34-15.88,24.43-15.88c2.93,0,5.11,1.67,6.54,5.02
			c0.45,1.12,1.17,1.67,2.14,1.67c2.79,0,4.19,1.08,4.19,3.24c0,1.08-0.18,2.56-0.52,4.45c-1.88,10.29-2.83,17.55-2.83,21.77
			c0,8.44,1.6,13.5,4.81,15.17c1.53,0.84,2.3,1.87,2.3,3.09c0,1.08-0.75,2.17-2.25,3.27c-1.5,1.1-2.95,1.65-4.34,1.65
			c-2.69,0-4.9-1.85-6.64-5.55C865.28,1524.93,864.41,1519.66,864.41,1512.82z M861.22,1483.37c-4.6,0-9.96,4.32-16.06,12.95
			c-6.1,8.63-9.16,15.79-9.16,21.48c0,4.01,1.33,6.02,3.98,6.02c3.84,0,9.16-3.87,15.96-11.62c6.8-7.74,10.2-14.86,10.2-21.35
			C866.14,1485.86,864.5,1483.37,861.22,1483.37z"/>
		<path d="M890.83,1522.82l-0.1-1.1c-0.35-3.52,0.74-7.22,3.27-11.09c2.53-3.87,8.89-8.37,19.07-13.5c6.49-3.28,9.73-6.26,9.73-8.95
			c0-1.43-0.59-2.53-1.78-3.3c-1.19-0.77-2.21-1.15-3.09-1.15c-2.62,0-7.64,1.85-15.07,5.55c-0.59,0.31-0.94,0.47-1.05,0.47
			c-2.86,0-4.29-1.01-4.29-3.03c0-3.28,2.83-6.01,8.48-8.19c5.65-2.18,10.57-3.27,14.75-3.27c2.62,0,5.35,1.04,8.21,3.11
			c2.86,2.08,4.29,4.86,4.29,8.35c0,2.86-0.92,5.62-2.77,8.27c-1.85,2.65-6.47,6.02-13.87,10.1c-6.07,3.35-10.18,6.1-12.32,8.27
			c-2.14,2.16-3.22,4.6-3.22,7.32c0,1.99,0.92,3.3,2.77,3.92c1.85,0.63,3.24,0.94,4.19,0.94c6.56,0,12.42-1.36,17.58-4.08
			c1.78-0.91,3.1-1.36,3.98-1.36c1.81,0,2.72,1.01,2.72,3.03c0,3.07-2.48,5.63-7.43,7.69c-4.95,2.06-11.23,3.09-18.84,3.09
			c-3.63,0-6.99-1.04-10.1-3.11C892.86,1528.72,891.15,1526.06,890.83,1522.82z"/>
		<path d="M982.71,1513.4c-5.3,4.99-10.6,8.89-15.91,11.72c-5.3,2.83-9.37,4.24-12.19,4.24c-3.24,0-5.83-1.39-7.77-4.16
			s-2.9-6.18-2.9-10.23c0-5.89,1.12-12.86,3.37-20.9c2.25-8.04,3.97-12.6,5.15-13.68c1.18-1.08,2.75-1.62,4.71-1.62
			c1.05,0,1.87,0.62,2.46,1.86c0.59,1.24,0.89,2.5,0.89,3.79c0,0.87-0.4,2.01-1.2,3.4c-4.57,7.92-6.85,16.1-6.85,24.54
			c0,1.95,0.37,3.67,1.1,5.15c0.73,1.48,1.85,2.22,3.35,2.22c1.92,0,4.28-0.58,7.09-1.75c2.81-1.17,5.97-3.08,9.5-5.73
			c3.52-2.65,5.89-4.8,7.12-6.44c1.22-1.64,2.08-3.51,2.59-5.6c0.5-2.09,0.86-6.63,1.07-13.6c0.21-6.98,1.9-10.46,5.08-10.46
			c1.88,0,3.1,0.5,3.66,1.49s0.84,2.89,0.84,5.68c0,2.09-0.31,6.63-0.94,13.6c-0.14,1.57-0.23,3.02-0.26,4.34
			c-1.01,18.63-3.8,33.22-8.37,43.79s-11.21,15.85-19.93,15.85c-6.84,0-12.92-1.79-18.23-5.36c-5.32-3.58-7.98-6.6-7.98-9.08
			c0-1.15,0.27-2.29,0.81-3.4c0.54-1.12,1.23-1.67,2.07-1.67c0.42,0,0.87,0.33,1.36,0.99c4.57,7.01,11.6,10.52,21.09,10.52
			c6.03,0,10.55-3.69,13.55-11.07C980,1534.46,981.91,1524.98,982.71,1513.4z"/>
		<path d="M1088.71,1497.7c0.38-0.73,0.99-5.11,1.83-13.13c0.63-6.42,2.67-9.63,6.12-9.63c2.83,0,4.24,1.41,4.24,4.24
			c0,0.66-0.24,2.01-0.73,4.03c-2.69,11.13-4.03,20.46-4.03,27.99c0,8.16,1.34,13.45,4.03,15.85c1.4,1.29,2.09,2.34,2.09,3.14
			c0,0.98-0.71,1.87-2.12,2.67c-1.41,0.8-2.7,1.2-3.85,1.2c-5.44,0-8.16-8.41-8.16-25.22c0-1.12-0.42-1.67-1.26-1.67
			c-3.28,0-7.29,0.19-12.03,0.58c-4.74,0.38-8.14,0.87-10.18,1.47c-2.04,0.59-3.3,1.14-3.77,1.65c-0.47,0.51-0.89,1.85-1.26,4.03
			c-0.37,2.18-0.55,4.44-0.55,6.78v6.44c0,3.73-1.71,5.6-5.13,5.6c-2.86,0-4.29-1.87-4.29-5.6c0-2.44,0.31-5.55,0.94-9.31
			c1.15-6.91,2.3-18.8,3.45-35.68c0.14-2.2,0.33-3.59,0.58-4.19c0.24-0.59,0.88-1.25,1.91-1.96c1.03-0.71,2.15-1.07,3.38-1.07
			c2.51,0,3.77,1.03,3.77,3.09c0,0.31-0.4,2.93-1.2,7.85c-0.84,4.92-1.26,8.74-1.26,11.46c0,1.92,0.66,2.88,1.99,2.88
			c2.65,0,7.5-0.44,14.55-1.33C1084.82,1498.93,1088.47,1498.23,1088.71,1497.7z"/>
		<path d="M1148.51,1512.82c-4.88,6.56-9.71,11.48-14.49,14.75c-4.78,3.28-9.16,4.92-13.13,4.92c-2.69,0-5.01-1.13-6.96-3.4
			c-1.95-2.27-2.93-5.18-2.93-8.74c0-9.17,4.1-19.05,12.29-29.64c8.2-10.59,16.34-15.88,24.43-15.88c2.93,0,5.11,1.67,6.54,5.02
			c0.45,1.12,1.17,1.67,2.14,1.67c2.79,0,4.19,1.08,4.19,3.24c0,1.08-0.18,2.56-0.52,4.45c-1.88,10.29-2.83,17.55-2.83,21.77
			c0,8.44,1.6,13.5,4.81,15.17c1.53,0.84,2.3,1.87,2.3,3.09c0,1.08-0.75,2.17-2.25,3.27c-1.5,1.1-2.95,1.65-4.34,1.65
			c-2.69,0-4.9-1.85-6.64-5.55C1149.39,1524.93,1148.51,1519.66,1148.51,1512.82z M1145.32,1483.37c-4.6,0-9.96,4.32-16.06,12.95
			c-6.1,8.63-9.16,15.79-9.16,21.48c0,4.01,1.33,6.02,3.98,6.02c3.84,0,9.16-3.87,15.96-11.62c6.8-7.74,10.2-14.86,10.2-21.35
			C1150.24,1485.86,1148.6,1483.37,1145.32,1483.37z"/>
		<path d="M1201.72,1499.69c4.5,0.73,8,2.39,10.52,4.97c2.51,2.58,3.77,5.74,3.77,9.47c0,5.9-2.49,10.8-7.48,14.73
			c-4.99,3.92-11.55,5.89-19.67,5.89c-4.85,0-9.03-1.05-12.53-3.14c-3.5-2.09-5.26-4.41-5.26-6.96c0-2.09,1.2-3.14,3.61-3.14
			c0.35,0,0.89,0.3,1.62,0.89c3.84,3.31,8.39,4.97,13.66,4.97c4.64,0,8.63-1.22,11.98-3.66c3.35-2.44,5.02-5.62,5.02-9.52
			c0-2.58-0.95-4.73-2.85-6.46s-4.11-2.59-6.62-2.59c-1.92,0-5.28,0.75-10.1,2.25c-0.94,0.31-1.95,0.47-3.04,0.47
			c-2.09,0-3.14-1.41-3.14-4.24c0-0.98,0.5-1.76,1.49-2.35c0.99-0.59,3.13-1.27,6.41-2.04c9.94-2.27,14.91-6.3,14.91-12.09
			c0-1.74-0.62-3.18-1.86-4.32c-1.24-1.13-2.83-1.7-4.79-1.7c-3.63,0-7.5,1.6-11.62,4.81c-2.41,1.88-4.24,2.83-5.49,2.83
			c-2.13,0-3.19-0.99-3.19-2.98c0-2.62,2.47-5.29,7.4-8.03c4.94-2.74,9.67-4.11,14.21-4.11s8.1,1.2,10.7,3.61
			c2.6,2.41,3.9,4.94,3.9,7.59C1213.29,1491.15,1209.43,1496.1,1201.72,1499.69z"/>
		<path d="M1262.94,1512.82c-4.88,6.56-9.71,11.48-14.49,14.75c-4.78,3.28-9.16,4.92-13.13,4.92c-2.69,0-5.01-1.13-6.96-3.4
			c-1.95-2.27-2.93-5.18-2.93-8.74c0-9.17,4.1-19.05,12.29-29.64c8.2-10.59,16.34-15.88,24.43-15.88c2.93,0,5.11,1.67,6.54,5.02
			c0.45,1.12,1.17,1.67,2.14,1.67c2.79,0,4.19,1.08,4.19,3.24c0,1.08-0.18,2.56-0.52,4.45c-1.88,10.29-2.83,17.55-2.83,21.77
			c0,8.44,1.6,13.5,4.81,15.17c1.53,0.84,2.3,1.87,2.3,3.09c0,1.08-0.75,2.17-2.25,3.27c-1.5,1.1-2.95,1.65-4.34,1.65
			c-2.69,0-4.9-1.85-6.64-5.55C1263.81,1524.93,1262.94,1519.66,1262.94,1512.82z M1259.75,1483.37c-4.6,0-9.96,4.32-16.06,12.95
			c-6.1,8.63-9.16,15.79-9.16,21.48c0,4.01,1.33,6.02,3.98,6.02c3.84,0,9.16-3.87,15.96-11.62c6.8-7.74,10.2-14.86,10.2-21.35
			C1264.67,1485.86,1263.03,1483.37,1259.75,1483.37z"/>
		<path d="M1330.38,1470.97c-1.26-5.44-2.81-9.24-4.66-11.41c-1.85-2.16-4.29-3.84-7.33-5.02c-3.03-1.19-5.77-1.78-8.21-1.78
			c-0.94,0-2.33,0.36-4.16,1.07c-1.83,0.72-3.24,1.37-4.21,1.96c-1.36,0.8-2.62,1.2-3.77,1.2c-1.33,0-1.99-0.7-1.99-2.09
			c0-1.5,1.13-3.58,3.4-6.23c2.27-2.65,6.26-3.98,11.98-3.98h2.25c5.68,0,10.71,1.49,15.07,4.47c4.36,2.98,7.46,7.25,9.29,12.79
			c1.83,5.55,2.75,12.99,2.75,22.34c0,6.35-2.01,14.04-6.02,23.07c-4.01,9.03-9.11,15.87-15.3,20.51
			c-6.19,4.64-12.78,6.96-19.75,6.96c-2.51,0-4.87-1.45-7.06-4.34s-3.3-6.49-3.3-10.78c0-7.92,1.74-14.9,5.21-20.95
			c3.47-6.05,7.36-10.96,11.67-14.73c4.31-3.77,10.26-6.8,17.87-9.1c2.51-0.73,4.22-1.31,5.13-1.73
			C1330.14,1472.8,1330.52,1472.05,1330.38,1470.97z M1331.79,1481.64c-8.06,1.64-14.23,4.24-18.52,7.8
			c-9.7,9.07-14.54,19.24-14.54,30.5c0,1.5,0.26,2.9,0.78,4.21c0.52,1.31,1.12,1.96,1.78,1.96c2.58,0,4.94-0.45,7.06-1.36
			c2.13-0.91,4.73-2.8,7.8-5.68c3.07-2.88,5.85-6.44,8.34-10.7c2.49-4.25,4.31-8.35,5.44-12.3c1.13-3.94,1.74-6.97,1.81-9.08
			C1331.81,1484.89,1331.83,1483.11,1331.79,1481.64z"/>
		<path class="st21" d="M564.89,1593.17v-0.9c0-2.67,0.25-4.96,0.75-6.87c0.5-1.91,1.46-4.44,2.9-7.58c1.94-4.19,3.37-6.85,4.3-7.97
			c0.42-0.53,1.98-2.01,4.68-4.46c1.65-1.51,2.88-2.44,3.7-2.79s1.48-0.53,1.99-0.53c0.78,0,1.17,0.47,1.17,1.42
			c0,0.62-1.31,2.18-3.92,4.68c-3.54,3.32-6.39,7.21-8.57,11.67s-3.26,8.34-3.26,11.64c0,1.58,0.44,4.63,1.33,9.14
			c0.11,0.56,0.18,0.99,0.22,1.28c0.6,2.94,1.31,5.14,2.12,6.61s2.11,2.97,3.89,4.52c1.94,1.67,2.91,2.97,2.91,3.92
			c0,1.05-0.89,1.58-2.67,1.58c-1.09,0-2.36-0.83-3.82-2.48s-2.77-3.35-3.94-5.1c-1.17-1.75-2.09-4.63-2.76-8.65
			S564.89,1595.24,564.89,1593.17z"/>
		<path class="st21" d="M605,1576.47c-0.69-1.87-2.29-3.89-4.79-6.07c-2.36-2.03-3.54-3.77-3.54-5.22c0-1.16,0.38-2.1,1.14-2.82
			s2.18-1.36,4.24-1.95c2.58-0.71,5.2-1.51,7.86-2.41c2.67-0.9,4.27-1.47,4.82-1.73c0.34-0.16,0.7-0.24,1.06-0.24
			c0.6,0,0.9,0.54,0.9,1.6c0,0.6-0.73,1.42-2.18,2.45s-4.02,2-7.7,2.88c-2.32,0.58-3.74,1.01-4.26,1.29
			c-0.52,0.28-0.78,0.57-0.78,0.86c0,0.65,0.71,1.6,2.12,2.83c5.33,4.66,8,10.51,8,17.55c0,3.03-0.8,6.27-2.39,9.73
			c-1.6,3.46-3.72,6.03-6.38,7.71c-2.66,1.69-5.26,2.53-7.79,2.53c-2.29,0-4.02-1.12-5.2-3.35c-1.18-2.23-1.77-4.69-1.77-7.37
			c0-4.75,1.46-9.23,4.39-13.44c2.93-4.21,6.03-6.31,9.29-6.31c0.44,0,0.98,0.28,1.63,0.84
			C604.29,1576.38,604.72,1576.59,605,1576.47z M593.13,1594.86c0,2.01,0.27,3.59,0.8,4.73s1.24,1.71,2.11,1.71
			c1.16,0,2.73-0.72,4.71-2.15c1.98-1.43,3.57-3.55,4.77-6.37c1.21-2.81,1.81-5.44,1.81-7.89c0-2.03-0.29-3.68-0.86-4.94
			c-0.57-1.26-1.1-1.89-1.59-1.89c-3.23,0-6,1.97-8.3,5.9C594.28,1587.91,593.13,1591.54,593.13,1594.86z"/>
		<path class="st21" d="M637.83,1595.13c-2.76,2.59-5.51,4.63-8.27,6.09s-4.87,2.2-6.34,2.2c-1.69,0-3.03-0.72-4.04-2.16
			s-1.51-3.21-1.51-5.32c0-3.07,0.58-6.69,1.75-10.87s2.06-6.55,2.68-7.11c0.62-0.56,1.43-0.84,2.45-0.84
			c0.54,0,0.97,0.32,1.28,0.97c0.31,0.64,0.46,1.3,0.46,1.97c0,0.45-0.21,1.04-0.63,1.77c-2.38,4.12-3.56,8.37-3.56,12.76
			c0,1.02,0.19,1.91,0.57,2.68c0.38,0.77,0.96,1.16,1.74,1.16c1,0,2.23-0.3,3.69-0.91c1.46-0.61,3.11-1.6,4.94-2.98
			c1.83-1.38,3.07-2.49,3.7-3.35s1.08-1.82,1.35-2.91c0.26-1.09,0.45-3.45,0.56-7.07c0.11-3.63,0.99-5.44,2.64-5.44
			c0.98,0,1.61,0.26,1.9,0.78c0.29,0.52,0.44,1.5,0.44,2.95c0,1.09-0.16,3.45-0.49,7.07c-0.07,0.82-0.12,1.57-0.14,2.26
			c-0.53,9.69-1.98,17.28-4.35,22.77c-2.38,5.5-5.83,8.24-10.37,8.24c-3.56,0-6.72-0.93-9.48-2.79c-2.77-1.86-4.15-3.43-4.15-4.72
			c0-0.6,0.14-1.19,0.42-1.77c0.28-0.58,0.64-0.87,1.07-0.87c0.22,0,0.45,0.17,0.71,0.52c2.38,3.65,6.03,5.47,10.96,5.47
			c3.14,0,5.49-1.92,7.05-5.75C636.43,1606.08,637.42,1601.15,637.83,1595.13z"/>
		<path class="st21" d="M656.17,1590.42c4.3-0.74,8.15-3.52,11.56-8.33c1.6-2.23,3-3.81,4.2-4.75c1.21-0.93,2.49-1.4,3.85-1.4
			c0.54,0,1.09,0.24,1.63,0.73c0.54,0.49,0.82,1.07,0.82,1.74c0,0.89-0.84,1.59-2.53,2.09c-0.89,0.27-1.72,0.73-2.5,1.39
			s-2.26,2.21-4.43,4.68c-1.71,1.92-3.24,3.27-4.6,4.05c-0.13,0.07-0.19,0.14-0.19,0.19c0,0.07,0.08,0.15,0.24,0.22
			c1.32,0.71,2.72,2.08,4.19,4.11c2.14,2.96,3.75,4.82,4.82,5.59c1.07,0.77,2.29,1.16,3.67,1.16l0.9-0.03
			c0.63-0.04,0.95,0.25,0.95,0.84c0,0.69-0.39,1.41-1.17,2.15c-0.78,0.74-2.07,1.12-3.86,1.12c-1.38,0-2.72-0.59-4.01-1.78
			c-1.3-1.19-2.78-3.11-4.45-5.78c-0.96-1.58-1.86-2.77-2.69-3.59c-0.83-0.82-1.76-1.22-2.78-1.22c-0.22,0-0.89,0.18-2.01,0.54
			c-1.13,0.36-1.75,0.71-1.89,1.05c-0.14,0.34-0.24,1.54-0.3,3.62c-0.06,2.08-0.1,3.75-0.1,5.02c0,0.67-0.32,1.27-0.95,1.8
			c-0.63,0.53-1.32,0.79-2.07,0.79c-0.76,0-1.36-0.22-1.8-0.67s-0.65-0.9-0.65-1.37c0-0.65,0.24-2.19,0.73-4.63
			c0.87-4.43,1.74-11.73,2.61-21.9c0.07-0.98,0.44-1.86,1.12-2.65c0.67-0.79,1.43-1.18,2.29-1.18c0.47,0,0.87,0.25,1.18,0.76
			c0.32,0.51,0.48,1.16,0.48,1.96c0,0.64-0.11,1.36-0.33,2.18C657.07,1582.67,656.43,1586.51,656.17,1590.42z"/>
		<path class="st21" d="M705.9,1595.51c0,1.85-1.64,4.08-4.91,6.69c-3.27,2.61-6.65,3.92-10.13,3.92c-2.92,0-5.17-0.86-6.76-2.58
			c-1.59-1.72-2.38-4.13-2.38-7.21c0-5.19,1.75-10.12,5.25-14.8c3.5-4.68,7.33-7.02,11.48-7.02c1.36,0,2.47,0.44,3.33,1.33
			c0.86,0.89,1.29,1.96,1.29,3.21c0,2.79-1.37,5.47-4.11,8.03c-2.74,2.56-6.4,5.07-10.99,7.54c-0.94,0.49-1.42,1.13-1.42,1.9
			c0,1.51,0.44,2.71,1.31,3.62c0.87,0.91,2.16,1.36,3.86,1.36c3.9,0,7.88-2.16,11.94-6.48c0.6-0.6,1.05-0.9,1.36-0.9
			C705.61,1594.12,705.9,1594.59,705.9,1595.51z M687,1591.27c7.69-4.57,11.54-8.24,11.54-11.02c0-1.09-0.49-1.63-1.47-1.63
			c-1.67,0-3.55,1.22-5.65,3.67S687.85,1587.73,687,1591.27z"/>
		<path class="st21" d="M732.13,1583.21c-1.69,0.04-5.3,5.03-10.83,14.99c-1.87,3.36-2.96,5.18-3.26,5.48s-0.88,0.57-1.7,0.8
			s-1.51,0.35-2.05,0.35c-1.21,0-1.82-2.37-1.82-7.1c0-2.67,0.57-7.49,1.71-14.47c0.47-2.83,0.71-4.85,0.71-6.07
			c0-1.2,0.54-1.8,1.61-1.8c2.01,0,3.02,1.45,3.02,4.35c0,1.36-0.34,4.03-1.01,8c-0.78,4.53-1.18,7.29-1.2,8.27
			c1.12-1.09,2.78-3.47,4.95-7.16c3.08-5.04,5.36-8.24,6.82-9.59c1.46-1.35,2.97-2.03,4.53-2.03c1.18,0,2.12,0.79,2.82,2.37
			c0.7,1.58,1.12,5.34,1.27,11.29c0.04,1.49,0.17,2.59,0.41,3.32c0.24,0.73,0.41,1.09,0.52,1.09c0.85,0,2.7-2.9,5.55-8.71
			c1.52-3.07,3.01-5.4,4.45-6.99c1.44-1.6,3.04-2.39,4.8-2.39c1.47,0,2.54,0.76,3.21,2.27c0.67,1.51,1.15,3.76,1.44,6.73
			c0.27,3.01,0.69,5.77,1.26,8.27c0.57,2.5,1.62,4.11,3.14,4.82c1.03,0.49,1.55,1.06,1.55,1.71c0,0.64-0.43,1.29-1.31,1.96
			c-0.87,0.67-1.67,1.01-2.39,1.01c-1.45,0-2.75-0.89-3.89-2.67c-1.14-1.78-2-5.62-2.58-11.54c-0.25-2.38-0.5-4.06-0.73-5.06
			c-0.24-1-0.61-1.5-1.12-1.5c-0.76,0-1.66,0.73-2.71,2.18c-1.04,1.45-2.73,4.4-5.05,8.84c-1.81,3.46-3.19,5.77-4.12,6.92
			c-0.93,1.15-1.84,1.73-2.71,1.73c-0.78,0-1.48-0.31-2.09-0.94c-0.62-0.63-1.01-1.38-1.17-2.26s-0.34-3.04-0.52-6.49
			C733.36,1587.49,732.86,1584.16,732.13,1583.21z"/>
		<path class="st21" d="M788.07,1592.9c-2.32,3.9-4.7,6.92-7.13,9.06s-4.69,3.21-6.77,3.21c-1.2,0-2.42-0.7-3.66-2.1
			c-1.24-1.4-1.86-3.55-1.86-6.45c0-2.38,0.57-5.88,1.71-10.5c0.96-3.86,1.44-6.57,1.44-8.13c0.53-1.09,1.35-1.63,2.48-1.63
			c0.76,0,1.37,0.27,1.82,0.8c0.45,0.54,0.68,1.09,0.68,1.67c0,1.27-0.45,3.07-1.33,5.41c-1.69,4.55-2.53,8.46-2.53,11.73
			c0,2.98,0.69,4.46,2.07,4.46c1.76,0,4-1.5,6.72-4.49c2.72-2.99,5.05-7.16,6.99-12.52c0.76-2.14,1.38-3.53,1.86-4.18
			c0.48-0.64,1.13-0.97,1.95-0.97c1.23,0,1.85,0.82,1.85,2.45c0,0.2-0.17,0.86-0.52,1.99c-1.09,3.97-1.63,7.73-1.63,11.26
			c0,4.24,0.7,6.99,2.09,8.24c0.73,0.67,1.09,1.22,1.09,1.63c0,0.51-0.37,0.97-1.1,1.39c-0.73,0.42-1.4,0.63-2,0.63
			c-1.27,0-2.29-0.94-3.07-2.83c-0.78-1.89-1.17-4.67-1.17-8.35v-0.9C788.04,1593.51,788.05,1593.21,788.07,1592.9z"/>
		<path class="st21" d="M808.37,1590.42c4.3-0.74,8.15-3.52,11.56-8.33c1.6-2.23,3-3.81,4.2-4.75c1.21-0.93,2.49-1.4,3.85-1.4
			c0.54,0,1.09,0.24,1.63,0.73c0.54,0.49,0.82,1.07,0.82,1.74c0,0.89-0.84,1.59-2.53,2.09c-0.89,0.27-1.72,0.73-2.5,1.39
			s-2.26,2.21-4.43,4.68c-1.71,1.92-3.24,3.27-4.6,4.05c-0.13,0.07-0.19,0.14-0.19,0.19c0,0.07,0.08,0.15,0.24,0.22
			c1.32,0.71,2.72,2.08,4.19,4.11c2.14,2.96,3.75,4.82,4.82,5.59c1.07,0.77,2.29,1.16,3.67,1.16l0.9-0.03
			c0.63-0.04,0.95,0.25,0.95,0.84c0,0.69-0.39,1.41-1.17,2.15c-0.78,0.74-2.07,1.12-3.86,1.12c-1.38,0-2.72-0.59-4.01-1.78
			c-1.3-1.19-2.78-3.11-4.45-5.78c-0.96-1.58-1.86-2.77-2.69-3.59c-0.83-0.82-1.76-1.22-2.78-1.22c-0.22,0-0.89,0.18-2.01,0.54
			c-1.13,0.36-1.75,0.71-1.89,1.05c-0.14,0.34-0.24,1.54-0.3,3.62c-0.06,2.08-0.1,3.75-0.1,5.02c0,0.67-0.32,1.27-0.95,1.8
			c-0.63,0.53-1.32,0.79-2.07,0.79c-0.76,0-1.36-0.22-1.8-0.67s-0.65-0.9-0.65-1.37c0-0.65,0.24-2.19,0.73-4.63
			c0.87-4.43,1.74-11.73,2.61-21.9c0.07-0.98,0.44-1.86,1.12-2.65c0.67-0.79,1.43-1.18,2.29-1.18c0.47,0,0.87,0.25,1.18,0.76
			c0.32,0.51,0.48,1.16,0.48,1.96c0,0.64-0.11,1.36-0.33,2.18C809.26,1582.67,808.62,1586.51,808.37,1590.42z"/>
		<path class="st21" d="M877.8,1573.06c-0.65-2.83-1.46-4.81-2.42-5.93c-0.96-1.12-2.23-1.99-3.81-2.61c-1.58-0.62-3-0.92-4.27-0.92
			c-0.49,0-1.21,0.19-2.16,0.56c-0.95,0.37-1.68,0.71-2.19,1.02c-0.71,0.42-1.36,0.63-1.96,0.63c-0.69,0-1.03-0.36-1.03-1.09
			c0-0.78,0.59-1.86,1.77-3.24c1.18-1.38,3.25-2.07,6.23-2.07h1.17c2.96,0,5.57,0.78,7.84,2.33s3.88,3.77,4.83,6.65
			c0.95,2.88,1.43,6.76,1.43,11.62c0,3.3-1.04,7.3-3.13,12c-2.09,4.7-4.74,8.25-7.96,10.67s-6.64,3.62-10.27,3.62
			c-1.31,0-2.53-0.75-3.67-2.26s-1.71-3.37-1.71-5.6c0-4.12,0.9-7.75,2.71-10.9c1.8-3.15,3.83-5.7,6.07-7.66s5.34-3.54,9.29-4.73
			c1.31-0.38,2.19-0.68,2.67-0.9S877.87,1573.63,877.8,1573.06z M878.53,1578.62c-4.19,0.85-7.4,2.2-9.63,4.05
			c-5.04,4.72-7.56,10-7.56,15.86c0,0.78,0.14,1.51,0.41,2.19c0.27,0.68,0.58,1.02,0.93,1.02c1.34,0,2.57-0.24,3.67-0.71
			c1.11-0.47,2.46-1.46,4.05-2.95c1.6-1.5,3.04-3.35,4.34-5.56s2.24-4.34,2.83-6.39c0.59-2.05,0.9-3.62,0.94-4.72
			C878.54,1580.31,878.55,1579.38,878.53,1578.62z"/>
		<path class="st21" d="M901.74,1582.56c-0.44-0.02-0.86,0.4-1.28,1.25c-3.75,7.51-6.59,12.61-8.52,15.29
			c-0.16,0.24-0.37,0.58-0.63,1.03c-2.27,4.04-3.93,6.07-4.98,6.07c-1.42,0-2.12-0.68-2.12-2.04c0-1.23,0.88-2.91,2.64-5.03
			c1.71-2.01,3.95-5.43,6.72-10.24c2.77-4.82,5.02-9.14,6.75-12.96c0.33-0.69,0.82-1.03,1.47-1.03c0.27,0,0.76,0.12,1.46,0.37
			c0.7,0.24,1.15,0.51,1.35,0.8c0.2,0.29,0.64,1.98,1.33,5.06c2.23,11.12,4.58,17.71,7.05,19.78c0.58,0.51,0.92,0.85,1.03,1.02
			c0.11,0.17,0.16,0.41,0.16,0.72c0,0.56-0.18,1.07-0.54,1.54c-0.36,0.46-0.72,0.76-1.06,0.88c-0.34,0.13-1.05,0.19-2.12,0.19
			c-0.38,0-1.27-0.94-2.67-2.82c-1.4-1.88-3.03-7-4.9-15.36C902.43,1584.83,902.05,1583.32,901.74,1582.56z"/>
		<path class="st21" d="M944.29,1576.3c0,0.49-0.38,1.57-1.14,3.24c-0.62,1.34-1.25,4.01-1.9,8c-0.65,3.99-0.98,7.23-0.98,9.71
			c0,1.09,0.11,2.55,0.33,4.38c0.09,0.87,0.14,1.6,0.14,2.18c0,0.31-0.27,0.63-0.8,0.95c-0.54,0.33-1.02,0.49-1.46,0.49
			c-1.13,0-1.85-0.25-2.16-0.76c-0.32-0.51-0.48-1.55-0.48-3.13l0.24-8.79c-2.72,2.27-4.66,3.95-5.82,5.03
			c-1.32,1.22-2.25,2.02-2.77,2.42c-2.5,2.01-4.32,3.73-5.44,5.14c-0.18,0.22-0.46,0.44-0.84,0.68c-0.38,0.24-0.64,0.35-0.79,0.35
			c-0.8,0-1.44-0.38-1.93-1.14c-0.49-0.76-0.73-1.34-0.73-1.74c0-0.45,0.92-1.48,2.77-3.07c0.51-0.44,1-0.82,1.47-1.14
			c2.68-1.83,5.35-4.01,8-6.53l-2.97,0.03c-0.98-0.07-2.15-0.48-3.5-1.21c-1.35-0.73-2.18-1.56-2.48-2.48
			c-0.3-0.92-0.45-1.78-0.45-2.6c0-2.61,1.41-4.98,4.22-7.1s6.2-3.56,10.18-4.33c0.45,0,1.23-0.11,2.34-0.33
			c1.11-0.2,1.73-0.3,1.88-0.3c0.18,0,0.63,0.09,1.33,0.27l0.9-0.16c0.56,0,1.14,0.19,1.74,0.56
			C943.78,1575.3,944.15,1575.76,944.29,1576.3z M938.82,1578.97c-0.2-0.36-0.43-0.54-0.68-0.54c-2.54,0-5.37,0.79-8.48,2.38
			c-3.11,1.59-4.67,3.52-4.67,5.81c0,0.65,0.4,1.22,1.21,1.69c0.81,0.47,1.96,0.71,3.47,0.71c2.72,0,4.81-0.26,6.26-0.79
			c0.44-0.29,0.79-0.89,1.06-1.8L938.82,1578.97z"/>
		<path class="st21" d="M977.18,1590.42c4.3-0.74,8.15-3.52,11.56-8.33c1.6-2.23,3-3.81,4.2-4.75c1.21-0.93,2.49-1.4,3.85-1.4
			c0.54,0,1.09,0.24,1.63,0.73c0.54,0.49,0.82,1.07,0.82,1.74c0,0.89-0.84,1.59-2.53,2.09c-0.89,0.27-1.72,0.73-2.5,1.39
			s-2.26,2.21-4.43,4.68c-1.71,1.92-3.24,3.27-4.6,4.05c-0.13,0.07-0.19,0.14-0.19,0.19c0,0.07,0.08,0.15,0.24,0.22
			c1.32,0.71,2.72,2.08,4.19,4.11c2.14,2.96,3.75,4.82,4.82,5.59c1.07,0.77,2.29,1.16,3.67,1.16l0.9-0.03
			c0.63-0.04,0.95,0.25,0.95,0.84c0,0.69-0.39,1.41-1.17,2.15c-0.78,0.74-2.07,1.12-3.86,1.12c-1.38,0-2.72-0.59-4.01-1.78
			c-1.3-1.19-2.78-3.11-4.45-5.78c-0.96-1.58-1.86-2.77-2.69-3.59c-0.83-0.82-1.76-1.22-2.78-1.22c-0.22,0-0.89,0.18-2.01,0.54
			c-1.13,0.36-1.75,0.71-1.89,1.05c-0.14,0.34-0.24,1.54-0.3,3.62c-0.06,2.08-0.1,3.75-0.1,5.02c0,0.67-0.32,1.27-0.95,1.8
			c-0.63,0.53-1.32,0.79-2.07,0.79c-0.76,0-1.36-0.22-1.8-0.67s-0.65-0.9-0.65-1.37c0-0.65,0.24-2.19,0.73-4.63
			c0.87-4.43,1.74-11.73,2.61-21.9c0.07-0.98,0.44-1.86,1.12-2.65c0.67-0.79,1.43-1.18,2.29-1.18c0.47,0,0.87,0.25,1.18,0.76
			c0.32,0.51,0.48,1.16,0.48,1.96c0,0.64-0.11,1.36-0.33,2.18C978.08,1582.67,977.44,1586.51,977.18,1590.42z"/>
		<path class="st21" d="M1008.88,1601.58c-0.89,3.26-1.72,7.84-2.5,13.74l-0.76,5.14c-0.13,0.73-0.46,1.45-1.01,2.16
			c-0.54,0.72-1.04,1.07-1.5,1.07c-0.56,0-1.2-0.29-1.92-0.86c-0.72-0.57-1.08-1.03-1.08-1.37c0-1,0.23-2.38,0.68-4.14
			c3.32-13.4,4.98-25.18,4.98-35.31l-0.03-2.29c-0.04-1.96,0.31-3.38,1.03-4.27s1.56-1.33,2.5-1.33c0.44,0,0.85,0.34,1.25,1.02
			c0.4,0.68,0.6,1.65,0.6,2.9c0,1.76-0.18,3.89-0.54,6.39c-0.47,3.16-0.72,4.97-0.73,5.44c2.7-4.72,5.57-8.4,8.6-11.05
			c3.03-2.65,5.84-3.97,8.43-3.97c1.83,0,3.38,0.68,4.64,2.05c1.26,1.37,1.89,3.07,1.89,5.1c0,5.91-2.27,11.28-6.8,16.11
			c-4.54,4.83-8.95,7.24-13.25,7.24c-1.07,0-1.92-0.27-2.54-0.82C1010.2,1604,1009.55,1603.01,1008.88,1601.58z M1025.78,1579.68
			c-2.56,0-5.72,2.39-9.5,7.18s-5.66,8.52-5.66,11.18c0,0.65,0.37,1.29,1.12,1.9c0.74,0.62,1.69,0.93,2.83,0.93
			c2.59,0,5.58-1.92,8.95-5.75c3.37-3.84,5.06-7.6,5.06-11.3c0-1.32-0.27-2.34-0.8-3.06
			C1027.24,1580.03,1026.57,1579.68,1025.78,1579.68z"/>
		<path class="st21" d="M1057.99,1594.83c-2.54,3.41-5.05,5.97-7.54,7.67c-2.49,1.71-4.76,2.56-6.83,2.56c-1.4,0-2.6-0.59-3.62-1.77
			c-1.02-1.18-1.52-2.69-1.52-4.54c0-4.77,2.13-9.91,6.39-15.41c4.26-5.5,8.5-8.26,12.71-8.26c1.52,0,2.66,0.87,3.4,2.61
			c0.24,0.58,0.61,0.87,1.12,0.87c1.45,0,2.18,0.56,2.18,1.69c0,0.56-0.09,1.33-0.27,2.31c-0.98,5.35-1.47,9.12-1.47,11.32
			c0,4.39,0.83,7.02,2.5,7.89c0.8,0.44,1.2,0.97,1.2,1.6c0,0.56-0.39,1.13-1.17,1.7c-0.78,0.57-1.53,0.86-2.26,0.86
			c-1.4,0-2.55-0.96-3.46-2.88C1058.44,1601.12,1057.99,1598.39,1057.99,1594.83z M1056.33,1579.51c-2.39,0-5.18,2.24-8.35,6.73
			c-3.17,4.49-4.76,8.21-4.76,11.17c0,2.09,0.69,3.13,2.07,3.13c2,0,4.76-2.01,8.3-6.04c3.54-4.03,5.3-7.73,5.3-11.1
			C1058.89,1580.81,1058.03,1579.51,1056.33,1579.51z"/>
		<path class="st21" d="M1079.78,1606.28c-2.72,0-4.81-0.78-6.27-2.34s-2.19-3.75-2.19-6.56c0-4.73,1.88-9.73,5.63-14.98
			c3.75-5.25,7.25-7.88,10.47-7.88c1.47,0,2.73,0.79,3.79,2.38c1.06,1.59,1.59,3.27,1.59,5.05c0,1.07-0.23,1.99-0.69,2.76
			c-0.46,0.77-0.93,1.16-1.4,1.16c-1.05,0-1.8-1.06-2.23-3.18c-0.49-2.29-1.2-3.43-2.12-3.43c-1.89,0-4.12,2.24-6.69,6.72
			c-2.58,4.48-3.86,8.26-3.86,11.35c0,3.08,1.75,4.63,5.25,4.63c2.67,0,5.8-1.25,9.41-3.75c1.27-0.89,2.2-1.33,2.8-1.33
			c0.62,0,0.92,0.35,0.92,1.06c0,1.38-1.62,3.12-4.87,5.21C1086.08,1605.24,1082.9,1606.28,1079.78,1606.28z"/>
		<path class="st21" d="M1118.93,1594.83c-2.54,3.41-5.05,5.97-7.54,7.67c-2.49,1.71-4.76,2.56-6.83,2.56c-1.4,0-2.6-0.59-3.62-1.77
			c-1.02-1.18-1.52-2.69-1.52-4.54c0-4.77,2.13-9.91,6.39-15.41c4.26-5.5,8.5-8.26,12.71-8.26c1.52,0,2.66,0.87,3.4,2.61
			c0.24,0.58,0.61,0.87,1.12,0.87c1.45,0,2.18,0.56,2.18,1.69c0,0.56-0.09,1.33-0.27,2.31c-0.98,5.35-1.47,9.12-1.47,11.32
			c0,4.39,0.83,7.02,2.5,7.89c0.8,0.44,1.2,0.97,1.2,1.6c0,0.56-0.39,1.13-1.17,1.7c-0.78,0.57-1.53,0.86-2.26,0.86
			c-1.4,0-2.55-0.96-3.46-2.88C1119.39,1601.12,1118.93,1598.39,1118.93,1594.83z M1117.27,1579.51c-2.39,0-5.18,2.24-8.35,6.73
			c-3.17,4.49-4.76,8.21-4.76,11.17c0,2.09,0.69,3.13,2.07,3.13c2,0,4.76-2.01,8.3-6.04c3.54-4.03,5.3-7.73,5.3-11.1
			C1119.83,1580.81,1118.98,1579.51,1117.27,1579.51z"/>
		<path class="st21" d="M1150.11,1577.01c4.12,1.67,6.18,5.62,6.18,11.86c0,4.68-1.46,8.77-4.38,12.27
			c-2.92,3.5-6.09,5.25-9.52,5.25c-3.07,0-5.45-1.22-7.16-3.65c-1.71-2.43-2.56-5.99-2.56-10.67c0-5.64,0.99-11.35,2.98-17.13
			c1.99-5.78,4.46-10.14,7.43-13.09s5.96-4.42,8.99-4.42c1.83,0,3.31,0.6,4.42,1.81c1.12,1.21,1.67,2.88,1.67,5.02
			c0,1.71-0.74,3.73-2.22,6.07C1154.47,1572.68,1152.52,1574.91,1150.11,1577.01z M1151.31,1589.63c0-2.7-0.5-4.88-1.5-6.53
			c-1-1.65-2.1-2.48-3.32-2.48c-0.36,0-2.38,1.4-6.07,4.19c-0.94,0.73-1.86,1.4-2.75,2.01c-0.27,1.56-0.41,3.27-0.41,5.14
			c0,3.3,0.49,5.79,1.48,7.46s2.35,2.5,4.09,2.5c2.43,0,4.45-1.27,6.05-3.82c1.61-2.55,2.41-5.35,2.41-8.42V1589.63z
			 M1138.31,1581.96c6.98-5.39,11.3-9.24,12.95-11.55c1.65-2.31,2.48-4.13,2.48-5.46c0-2.12-0.85-3.18-2.56-3.18
			c-2.38,0-4.77,1.79-7.17,5.36C1141.6,1570.71,1139.7,1575.65,1138.31,1581.96z"/>
		<path class="st21" d="M1181.07,1588.68c-2.83,2.47-5.62,4.43-8.38,5.88s-4.83,2.18-6.23,2.18c-1.79,0-3.17-0.75-4.12-2.24
			c-0.95-1.5-1.43-3.24-1.43-5.24c0-2.68,0.47-5.67,1.42-8.96c0.94-3.29,2.56-4.94,4.84-4.94c0.51,0,0.92,0.3,1.25,0.9
			c0.33,0.6,0.49,1.28,0.49,2.04c0,1-0.49,2.34-1.47,4.03c-1.27,2.16-1.9,4-1.9,5.52c0,0.89,0.16,1.76,0.48,2.61
			c0.32,0.85,0.87,1.28,1.65,1.28c1.96,0,4.43-0.99,7.41-2.98c2.98-1.99,4.82-3.73,5.51-5.22c0.69-1.5,1.03-2.65,1.03-3.47
			c0-0.36-0.04-0.71-0.11-1.03c-0.07-0.33-0.11-0.67-0.11-1.03c0-0.67,0.23-1.46,0.68-2.35c0.45-0.9,1.06-1.35,1.82-1.35
			c0.92,0,1.57,0.21,1.93,0.63c0.36,0.42,0.54,1.45,0.54,3.1c0,1.03-0.16,3.31-0.49,6.83c-0.07,0.78-0.12,1.51-0.14,2.2
			c-0.13,2.3-0.52,5.68-1.18,10.12s-1.18,6.94-1.56,7.48c-0.38,0.54-0.92,0.82-1.61,0.82c-1.72,0-2.58-0.55-2.58-1.66
			c0-0.56,0.08-1.06,0.25-1.5C1179.31,1601.66,1179.99,1597.12,1181.07,1588.68z"/>
		<path class="st21" d="M1211.11,1592.9c-2.32,3.9-4.7,6.92-7.13,9.06s-4.69,3.21-6.77,3.21c-1.2,0-2.42-0.7-3.66-2.1
			c-1.24-1.4-1.86-3.55-1.86-6.45c0-2.38,0.57-5.88,1.71-10.5c0.96-3.86,1.44-6.57,1.44-8.13c0.53-1.09,1.35-1.63,2.48-1.63
			c0.76,0,1.37,0.27,1.82,0.8c0.45,0.54,0.68,1.09,0.68,1.67c0,1.27-0.45,3.07-1.33,5.41c-1.69,4.55-2.53,8.46-2.53,11.73
			c0,2.98,0.69,4.46,2.07,4.46c1.76,0,4-1.5,6.72-4.49c2.72-2.99,5.05-7.16,6.99-12.52c0.76-2.14,1.38-3.53,1.86-4.18
			c0.48-0.64,1.13-0.97,1.95-0.97c1.23,0,1.85,0.82,1.85,2.45c0,0.2-0.17,0.86-0.52,1.99c-1.09,3.97-1.63,7.73-1.63,11.26
			c0,4.24,0.7,6.99,2.09,8.24c0.73,0.67,1.09,1.22,1.09,1.63c0,0.51-0.37,0.97-1.1,1.39c-0.73,0.42-1.4,0.63-2,0.63
			c-1.27,0-2.29-0.94-3.07-2.83c-0.78-1.89-1.17-4.67-1.17-8.35v-0.9C1211.08,1593.51,1211.09,1593.21,1211.11,1592.9z"/>
		<path class="st21" d="M1231.41,1590.42c4.3-0.74,8.15-3.52,11.56-8.33c1.6-2.23,3-3.81,4.2-4.75c1.21-0.93,2.49-1.4,3.85-1.4
			c0.54,0,1.09,0.24,1.63,0.73c0.54,0.49,0.82,1.07,0.82,1.74c0,0.89-0.84,1.59-2.53,2.09c-0.89,0.27-1.72,0.73-2.5,1.39
			s-2.26,2.21-4.43,4.68c-1.71,1.92-3.24,3.27-4.6,4.05c-0.13,0.07-0.19,0.14-0.19,0.19c0,0.07,0.08,0.15,0.24,0.22
			c1.32,0.71,2.72,2.08,4.19,4.11c2.14,2.96,3.75,4.82,4.82,5.59c1.07,0.77,2.29,1.16,3.67,1.16l0.9-0.03
			c0.63-0.04,0.95,0.25,0.95,0.84c0,0.69-0.39,1.41-1.17,2.15c-0.78,0.74-2.07,1.12-3.86,1.12c-1.38,0-2.72-0.59-4.01-1.78
			c-1.3-1.19-2.78-3.11-4.45-5.78c-0.96-1.58-1.86-2.77-2.69-3.59c-0.83-0.82-1.76-1.22-2.78-1.22c-0.22,0-0.89,0.18-2.01,0.54
			c-1.13,0.36-1.75,0.71-1.89,1.05c-0.14,0.34-0.24,1.54-0.3,3.62c-0.06,2.08-0.1,3.75-0.1,5.02c0,0.67-0.32,1.27-0.95,1.8
			c-0.63,0.53-1.32,0.79-2.07,0.79c-0.76,0-1.36-0.22-1.8-0.67s-0.65-0.9-0.65-1.37c0-0.65,0.24-2.19,0.73-4.63
			c0.87-4.43,1.74-11.73,2.61-21.9c0.07-0.98,0.44-1.86,1.12-2.65c0.67-0.79,1.43-1.18,2.29-1.18c0.47,0,0.87,0.25,1.18,0.76
			c0.32,0.51,0.48,1.16,0.48,1.96c0,0.64-0.11,1.36-0.33,2.18C1232.3,1582.67,1231.66,1586.51,1231.41,1590.42z"/>
		<path class="st21" d="M1276.19,1594.83c-2.54,3.41-5.05,5.97-7.54,7.67c-2.49,1.71-4.76,2.56-6.83,2.56c-1.4,0-2.6-0.59-3.62-1.77
			c-1.02-1.18-1.52-2.69-1.52-4.54c0-4.77,2.13-9.91,6.39-15.41c4.26-5.5,8.5-8.26,12.71-8.26c1.52,0,2.66,0.87,3.4,2.61
			c0.24,0.58,0.61,0.87,1.12,0.87c1.45,0,2.18,0.56,2.18,1.69c0,0.56-0.09,1.33-0.27,2.31c-0.98,5.35-1.47,9.12-1.47,11.32
			c0,4.39,0.83,7.02,2.5,7.89c0.8,0.44,1.2,0.97,1.2,1.6c0,0.56-0.39,1.13-1.17,1.7c-0.78,0.57-1.53,0.86-2.26,0.86
			c-1.4,0-2.55-0.96-3.46-2.88C1276.64,1601.12,1276.19,1598.39,1276.19,1594.83z M1274.53,1579.51c-2.39,0-5.18,2.24-8.35,6.73
			c-3.17,4.49-4.76,8.21-4.76,11.17c0,2.09,0.69,3.13,2.07,3.13c2,0,4.76-2.01,8.3-6.04c3.54-4.03,5.3-7.73,5.3-11.1
			C1277.09,1580.81,1276.23,1579.51,1274.53,1579.51z"/>
		<path class="st21" d="M1292.79,1618.56c-0.6,0-1.16-0.2-1.67-0.58c-0.52-0.39-0.78-0.79-0.78-1.21c0-0.36,0.15-0.82,0.45-1.36
			c0.3-0.54,1.32-1.91,3.06-4.11c1.23-1.49,2.6-4.16,4.09-8.03c1.5-3.86,2.25-6.25,2.25-7.16c0-5.8-0.82-10.97-2.45-15.51
			c-1.63-4.53-3.07-7.81-4.33-9.84c-1.25-2.02-3.08-4.12-5.47-6.3c-0.22-0.22-0.33-0.59-0.33-1.12c0-0.27,0.26-0.63,0.79-1.09
			c0.53-0.45,1.06-0.68,1.61-0.68c0.8,0,1.66,0.51,2.6,1.54c0.93,1.02,2.35,2.99,4.26,5.9s3.09,5.17,3.56,6.79
			c0.47,1.54,0.96,3.05,1.47,4.52c1.47,4.28,2.2,8.85,2.2,13.71c0,6.6-2.24,12.79-6.72,18.56c-0.76,1.02-1.31,1.83-1.63,2.45
			c-0.56,1.09-1.06,1.95-1.5,2.57C1293.82,1618.24,1293.33,1618.56,1292.79,1618.56z"/>
	</g>
	<g>
		<g>
			<path class="st21" d="M647.39,1227.12L647.39,1227.12c0,0-32,64,143.38,116.85c14.8,4.46,30.03,7.55,45.4,9.25
				c72.52,8.01,78.01,12.56,113.11,35.96c15.89,9.53,50.84,6.36,44.49-38.13c-6.36-44.49-63.55-158.88-63.55-158.88l-181.13-15.89
				l-54.02,19.07L647.39,1227.12z"/>
			<path class="st21" d="M646.81,710.31c0,0-15.31-191.81,305.64-86.95c123.93,41.31,143,47.67,260.57,54.02
				c117.57,6.36,241.5,104.86,162.06,244.68L646.81,710.31z"/>
			
				<ellipse transform="matrix(0.9758 -0.2185 0.2185 0.9758 -119.097 172.8595)" class="st84" cx="722.07" cy="624.95" rx="93.74" ry="36.54"/>
			<path class="st85" d="M661.42,634.98c0,0,57.67-41.68,97.6-21.81c16.08,11.32-9.55,22.81-27.94,29.09
				c-10.51,3.59-21.57,5.32-32.67,4.93c-13.02-0.83-26.22-11.95,6.25-16.52"/>
			
				<ellipse transform="matrix(0.27 -0.9629 0.9629 0.27 25.6606 1257.447)" class="st86" cx="842.09" cy="611.8" rx="25" ry="64.12"/>
			<path class="st87" d="M802.31,598.19c0,0,48.25-6.42,65.86,18.5c6.02,12.03-13.15,10.64-26.26,8.47
				c-7.5-1.24-14.72-3.78-21.28-7.62c-7.57-4.72-11.92-15.69,9.12-7.93"/>
			
				<ellipse transform="matrix(0.1817 -0.9834 0.9834 0.1817 122.9314 1445.0492)" class="st88" cx="929.72" cy="648.66" rx="32" ry="82.1"/>
			<path class="st89" d="M877.42,635.91c0,0,60.77-13.78,86.12,15.95c9.07,14.64-15.53,15.1-32.5,13.84
				c-9.7-0.72-19.2-3.12-28.01-7.25c-10.21-5.14-17.02-18.63,10.71-11.16"/>
			
				<ellipse transform="matrix(0.092 -0.9958 0.9958 0.092 200.0224 1601.3307)" class="st90" cx="978.04" cy="690.99" rx="24.8" ry="63.61"/>
			<path class="st91" d="M936.78,684.82c0,0,45.93-14.89,67.58,6.27c8.03,10.66-10.92,12.74-24.11,12.96
				c-7.54,0.13-15.04-1.06-22.12-3.63c-8.24-3.25-14.44-13.18,7.48-9.37"/>
			
				<ellipse transform="matrix(0.2593 -0.9658 0.9658 0.2593 149.5736 1538.4608)" class="st92" cx="1077.78" cy="671.72" rx="30.4" ry="77.97"/>
			<path class="st93" d="M1029.22,655.7c0,0,58.58-8.45,80.33,21.61c7.48,14.55-15.84,13.12-31.81,10.65
				c-9.13-1.41-17.95-4.4-25.97-8.98c-9.27-5.64-14.71-18.92,10.98-9.76"/>
			
				<ellipse transform="matrix(0.9984 -0.0573 0.0573 0.9984 -38.1838 69.1058)" class="st84" cx="1185.82" cy="700.32" rx="77.97" ry="30.4"/>
			<path class="st93" d="M1134.69,700.37c0,0,52.95-26.43,83.05-4.73c11.67,11.46-10.92,17.43-26.85,20.11
				c-9.11,1.53-18.42,1.46-27.48-0.36c-10.58-2.44-19.91-13.34,7.36-12.72"/>
			
				<ellipse transform="matrix(0.3078 -0.9514 0.9514 0.3078 207.2776 1736.3932)" class="st94" cx="1297.04" cy="725.74" rx="30.4" ry="77.97"/>
			<path class="st93" d="M1249.35,707.28c0,0,58.93-5.48,79.13,25.64c6.74,14.91-16.48,12.3-32.31,9.03
				c-9.05-1.87-17.7-5.3-25.49-10.28c-8.98-6.1-13.73-19.64,11.46-9.19"/>
			
				<ellipse transform="matrix(0.3078 -0.9514 0.9514 0.3078 187.2395 1829.4581)" class="st95" cx="1350.98" cy="786.04" rx="25.2" ry="64.64"/>
			<path class="st96" d="M1311.45,770.74c0,0,48.85-4.54,65.6,21.26c5.58,12.36-13.67,10.2-26.79,7.48
				c-7.5-1.55-14.67-4.4-21.13-8.52c-7.44-5.06-11.38-16.28,9.5-7.62"/>
			
				<ellipse transform="matrix(0.0341 -0.9994 0.9994 0.0341 312.0365 1766.4243)" class="st97" cx="1069.89" cy="721.78" rx="24.84" ry="63.72"/>
			<path class="st98" d="M1028.27,718c0,0,45.07-17.56,67.94,2.35c8.64,10.2-10.19,13.37-23.36,14.36
				c-7.53,0.56-15.1-0.19-22.33-2.34c-8.42-2.77-15.21-12.34,6.93-9.8"/>
			<g>
				<path class="st79" d="M990.27,1327.97c-3.68-7.57-8.69-16.4-15.26-25.27c-22.94-30.97-54.08-47.34-90.05-47.34
					c-11.29,0-23.24,1.6-35.52,4.76c-17.3,4.45-32.87,6.71-46.26,6.71c-57.3,0-58.32-41.15-58.33-42.9c0-0.11-0.01-0.24-0.01-0.35
					c-0.59-8.23-8.06-23.79-32.14-23.79c-11.12,0-24.8,3.3-40.85,9.84l173.26-177.95c1.06-1.09,1.6-2.57,1.49-4.08l-0.08-1.04
					c-0.06-0.86-0.33-1.7-0.79-2.43L657.62,722.97c-11.77-18.84-7.57-43.5,9.77-57.37c25.91-20.72,67.18-45.43,116.67-45.43
					c36.65,0,72.79,13.61,107.43,40.45c78.79,61.05,156.61,73.87,208.02,73.86c29.15,0,52.16-3.98,66.33-7.32
					c9.24-2.18,18.82-3.28,28.45-3.28c1.59,0,3.2,0.03,4.79,0.09c43.22,1.62,146.21,10.68,168.99,59.7c0.12,0.25,0.26,0.5,0.41,0.73
					c0.42,0.62,41.57,62.56,25.98,108.43c-6.55,19.28-22.54,33.29-47.5,41.65c-78.25,26.19-223.89,86.28-303.73,119.77
					c-19.96,8.37-33.43,26.99-35.14,48.58L990.27,1327.97z"/>
				<path class="st21" d="M784.06,625.48c35.44,0,70.5,13.24,104.18,39.34c79.97,61.97,159.03,74.97,211.27,74.97
					c29.66,0,53.1-4.06,67.55-7.46c8.85-2.08,18.01-3.14,27.23-3.14c1.52,0,3.07,0.03,4.6,0.09c24.03,0.9,59.6,3.78,92.63,12.38
					c18.15,4.73,33.35,10.66,45.17,17.63c12.99,7.67,21.94,16.62,26.59,26.62c0.24,0.51,0.51,1,0.82,1.46
					c0.1,0.15,10.25,15.31,18.46,36.14c7.31,18.56,14.45,45.35,6.9,67.59c-6.07,17.89-20.52,30.43-44.17,38.34
					c-78.42,26.24-224.19,86.39-304.1,119.91c-21.8,9.15-36.51,29.48-38.38,53.06l-16.44,207.56c-2.14-3.43-4.5-6.93-7.1-10.44
					c-23.98-32.38-56.59-49.49-94.31-49.49c-11.74,0-24.13,1.66-36.84,4.92c-16.87,4.34-31.99,6.54-44.94,6.54
					c-22.15,0-37.74-6.26-46.33-18.6c-6.23-8.95-6.67-18.32-6.7-19.03c0-0.28-0.01-0.41-0.03-0.7c-0.09-1.31-0.82-8.17-5.95-15.03
					c-4.67-6.24-13.92-13.69-31.49-13.69c-6.48,0-13.73,1.04-21.72,3.1l157.94-162.21c2.11-2.17,3.2-5.14,2.98-8.16l-0.07-1.04
					c-0.12-1.72-0.67-3.39-1.58-4.86L662.12,720.16c-10.34-16.55-6.65-38.23,8.58-50.41C695.95,649.55,736.11,625.48,784.06,625.48
					 M784.06,614.87c-50.8,0-93.03,25.03-119.98,46.59c-19.45,15.55-24.15,43.2-10.96,64.32l188.11,301.14l0.07,1.04l-193.91,199.16
					c31.04-16.63,51.64-22.04,65.3-22.04c25.51,0,26.85,18.86,26.85,18.86s0.01,48.18,63.64,48.18c13.02,0,28.69-2.01,47.58-6.87
					c12.35-3.18,23.74-4.59,34.2-4.59c83.7,0,108.8,90.39,108.8,90.39l19.63-247.79c1.55-19.52,13.85-36.54,31.9-44.11
					c71.89-30.15,223.7-92.97,303.36-119.63c106.73-35.72,24.24-158.07,24.24-158.07c-23.93-51.48-128.07-61.06-173.61-62.76
					c-1.67-0.06-3.33-0.09-4.99-0.09c-9.99,0-19.93,1.13-29.67,3.42c-13.35,3.14-36.13,7.18-65.12,7.18
					c-53.7,0-128.72-13.83-204.77-72.75C855.38,625.94,817.82,614.87,784.06,614.87L784.06,614.87z"/>
			</g>
			<path class="st99" d="M1162.18,728.22c0,0-153.93,98.07-210.43,281.01"/>
			<path class="st99" d="M777.68,1262.08c0,0,76.26-66.73,130.29-254.22c50.53-175.36-66.73-374.97-66.73-374.97"/>
			<path class="st99" d="M846.19,1027.87c0,0,87.19-54.97,211.12,18.12"/>
			<path class="st81" d="M701.41,705.98l129.88,241.21c3.22,5.97,7.67,11.25,13.23,15.13c10.12,7.06,22.13,8.47,3.06-46.61
				c-24.71-71.37-103.96-187.8-125.07-218.18c-4.54-6.53-10.92-11.67-18.47-14.19C695.7,680.56,688.7,682.37,701.41,705.98z"/>
			<path class="st81" d="M1152.97,780.46l-145.18,192.63c-3.6,4.77-8.7,9.08-15.18,12.41c-11.8,6.05-26.07,7.9-5.57-35.41
				c26.57-56.12,116.42-150.16,140.38-174.73c5.16-5.28,12.56-9.62,21.47-12.03C1158.74,760.67,1167.18,761.61,1152.97,780.46z"/>
			<path class="st81" d="M957.11,1073.67l-36.46,153.72c-0.9,3.81-2.83,7.74-5.85,11.43c-5.49,6.73-13.57,11.59-12.65-19.78
				c1.19-40.65,30.37-120.69,38.29-141.72c1.7-4.52,5.01-9.07,9.72-12.86C955.37,1060.28,960.67,1058.63,957.11,1073.67z"/>
			<path class="st81" d="M840.4,1078l-80.02,102.2c-1.98,2.53-4.77,4.8-8.29,6.53c-6.41,3.14-14.11,3.99-2.64-19.11
				c14.85-29.93,64.13-79.64,77.27-92.62c2.83-2.79,6.85-5.05,11.67-6.26C843.7,1067.41,848.23,1067.99,840.4,1078z"/>
			<g>
				<defs>
					<path id="SVGID_10_" d="M1372.89,781.44c-23.93-51.48-128.07-61.06-173.6-62.76c-11.66-0.44-23.3,0.65-34.66,3.33
						c-38.08,8.97-152.79,25.16-269.89-65.57c-98.58-76.38-185.8-30.86-230.66,5.03c-19.45,15.55-24.15,43.2-10.96,64.32
						l188.11,301.14l0.07,1.04l-193.91,199.16c88.98-47.67,92.15-3.18,92.15-3.18s0,69.91,111.22,41.31s143,85.8,143,85.8
						l19.63-247.79c1.55-19.52,13.85-36.54,31.9-44.11c71.89-30.15,223.7-92.97,303.36-119.63
						C1455.39,903.79,1372.89,781.44,1372.89,781.44z"/>
				</defs>
				<clipPath id="SVGID_1_">
					<use xlink:href="#SVGID_10_"  style="overflow:visible;"/>
				</clipPath>
				
					<path style="clip-path:url(#SVGID_1_);fill:none;stroke:#FF8B2B;stroke-width:42.4372;stroke-linecap:round;stroke-miterlimit:10;" d="
					M841.23,1030.1c0,0,114.4-57.2,171.6,44.49"/>
			</g>
			<g>
				<path class="st21" d="M784.06,625.48c35.44,0,70.5,13.24,104.18,39.34c79.97,61.97,159.03,74.97,211.27,74.97
					c29.66,0,53.1-4.06,67.55-7.46c8.85-2.08,18.01-3.14,27.23-3.14c1.52,0,3.07,0.03,4.6,0.09c24.03,0.9,59.6,3.78,92.63,12.38
					c18.15,4.73,33.35,10.66,45.17,17.63c12.99,7.67,21.94,16.62,26.59,26.62c0.24,0.51,0.51,1,0.82,1.46
					c0.1,0.15,10.25,15.31,18.46,36.14c7.31,18.56,14.45,45.35,6.9,67.59c-6.07,17.89-20.52,30.43-44.17,38.34
					c-78.42,26.24-224.19,86.39-304.1,119.91c-21.8,9.15-36.51,29.48-38.38,53.06l-16.44,207.56c-2.14-3.43-4.5-6.93-7.1-10.44
					c-23.98-32.38-56.59-49.49-94.31-49.49c-11.74,0-24.13,1.66-36.84,4.92c-16.87,4.34-31.99,6.54-44.94,6.54
					c-22.15,0-37.74-6.26-46.33-18.6c-6.23-8.95-6.67-18.32-6.7-19.03c0-0.28-0.01-0.41-0.03-0.7c-0.09-1.31-0.82-8.17-5.95-15.03
					c-4.67-6.24-13.92-13.69-31.49-13.69c-6.48,0-13.73,1.04-21.72,3.1l157.94-162.21c2.11-2.17,3.2-5.14,2.98-8.16l-0.07-1.04
					c-0.12-1.72-0.67-3.39-1.58-4.86L662.12,720.16c-10.34-16.55-6.65-38.23,8.58-50.41C695.95,649.55,736.11,625.48,784.06,625.48
					 M784.06,614.87c-50.8,0-93.03,25.03-119.98,46.59c-19.45,15.55-24.15,43.2-10.96,64.32l188.11,301.14l0.07,1.04l-193.91,199.16
					c31.04-16.63,51.64-22.04,65.3-22.04c25.51,0,26.85,18.86,26.85,18.86s0.01,48.18,63.64,48.18c13.02,0,28.69-2.01,47.58-6.87
					c12.35-3.18,23.74-4.59,34.2-4.59c83.7,0,108.8,90.39,108.8,90.39l19.63-247.79c1.55-19.52,13.85-36.54,31.9-44.11
					c71.89-30.15,223.7-92.97,303.36-119.63c106.73-35.72,24.24-158.07,24.24-158.07c-23.93-51.48-128.07-61.06-173.61-62.76
					c-1.67-0.06-3.33-0.09-4.99-0.09c-9.99,0-19.93,1.13-29.67,3.42c-13.35,3.14-36.13,7.18-65.12,7.18
					c-53.7,0-128.72-13.83-204.77-72.75C855.38,625.94,817.82,614.87,784.06,614.87L784.06,614.87z"/>
			</g>
		</g>
		<line class="st101" x1="263.4" y1="882.55" x2="675.5" y2="882.55"/>
		<line class="st101" x1="147.86" y1="948.03" x2="621.58" y2="948.03"/>
		<line class="st101" x1="382.8" y1="1055.87" x2="752.52" y2="1055.87"/>
		<line class="st101" x1="144.01" y1="1125.19" x2="513.74" y2="1125.19"/>
		<line class="st101" x1="455.97" y1="824.78" x2="617.73" y2="824.78"/>
		<line class="st101" x1="1723.06" y1="1102.08" x2="1310.97" y2="1102.08"/>
		<line class="st101" x1="1838.6" y1="1036.61" x2="1249.35" y2="1036.61"/>
		<line class="st101" x1="1603.67" y1="928.77" x2="1422.66" y2="928.77"/>
		<line class="st101" x1="1842.45" y1="859.45" x2="1472.72" y2="859.45"/>
		<line class="st101" x1="1530.49" y1="1159.85" x2="1106.85" y2="1159.85"/>
	</g>
</g>
<g id="Слой_2">
	<g id="Favorite">
	</g>
</g>
<g id="Слой_4">
</g>
</svg>
