<svg xmlns="http://www.w3.org/2000/svg" viewBox="0 0 141.73 141.73"><defs><style>.cls-1{fill:#add2ff;}.cls-2{fill:#2ec897;}.cls-3{fill:#fff;}.cls-4{fill:#0b5bcb;}</style></defs><title>avatar</title><g id="контакты"><ellipse class="cls-1" cx="70.87" cy="70.87" rx="52.29" ry="55.28"/><path class="cls-2" d="M70.44,74.91c-21.09,0-38.19,14.83-38.26,33.15a50.37,50.37,0,0,0,76.5,1c0-.29,0-.57,0-.86C108.7,89.8,91.57,74.91,70.44,74.91Z"/><ellipse class="cls-3" cx="70.02" cy="56.93" rx="19.13" ry="24.27"/><path class="cls-4" d="M93.42,47.74A24.44,24.44,0,0,0,71.65,30h0a9.91,9.91,0,0,0-2.77.2,24,24,0,0,0-5.23,1.57,2.59,2.59,0,0,0-1.2-.13,8.08,8.08,0,0,0-2.77.7,22.76,22.76,0,0,0-12,12c-1.46,3.43.73,7.35,4.27,7.62l7.59.57c.43-3.58,1.65-8,4.92-10a32.63,32.63,0,0,1,3.9,10.63l19.79,1.49C91.74,54.94,94.42,51.36,93.42,47.74Z"/></g></svg>