<svg xmlns="http://www.w3.org/2000/svg" xmlns:xlink="http://www.w3.org/1999/xlink" viewBox="0 0 1920.45 1487.34"><defs><style>.cls-1,.cls-102,.cls-103,.cls-105,.cls-106,.cls-11,.cls-110,.cls-115,.cls-121,.cls-128,.cls-13,.cls-131,.cls-15,.cls-17,.cls-19,.cls-21,.cls-27,.cls-35,.cls-37,.cls-38,.cls-40,.cls-43,.cls-44,.cls-46,.cls-47,.cls-5,.cls-51,.cls-7,.cls-71,.cls-75,.cls-79,.cls-9,.cls-90,.cls-92{fill:none;}.cls-2{opacity:0.2;}.cls-122,.cls-28,.cls-3,.cls-59,.cls-67{fill:#0b59c7;}.cls-107,.cls-108,.cls-109,.cls-123,.cls-4,.cls-48,.cls-49,.cls-50,.cls-60,.cls-61,.cls-68,.cls-69,.cls-88{fill:#4890f1;}.cls-10,.cls-106,.cls-107,.cls-108,.cls-109,.cls-11,.cls-110,.cls-12,.cls-13,.cls-14,.cls-15,.cls-16,.cls-17,.cls-26,.cls-27,.cls-28,.cls-4,.cls-40,.cls-47,.cls-48,.cls-49,.cls-5,.cls-51,.cls-6,.cls-7,.cls-70,.cls-71,.cls-8,.cls-84,.cls-85,.cls-86,.cls-87,.cls-88,.cls-89,.cls-9,.cls-97,.cls-98{stroke:#1a328c;}.cls-10,.cls-101,.cls-102,.cls-107,.cls-108,.cls-11,.cls-110,.cls-114,.cls-115,.cls-119,.cls-12,.cls-122,.cls-123,.cls-126,.cls-127,.cls-128,.cls-13,.cls-14,.cls-15,.cls-16,.cls-17,.cls-19,.cls-21,.cls-26,.cls-27,.cls-28,.cls-36,.cls-37,.cls-4,.cls-42,.cls-43,.cls-48,.cls-5,.cls-51,.cls-55,.cls-58,.cls-59,.cls-6,.cls-60,.cls-61,.cls-64,.cls-66,.cls-67,.cls-68,.cls-69,.cls-7,.cls-70,.cls-71,.cls-75,.cls-8,.cls-80,.cls-81,.cls-84,.cls-85,.cls-86,.cls-87,.cls-88,.cls-89,.cls-9,.cls-90,.cls-92,.cls-97,.cls-98{stroke-miterlimit:10;}.cls-14,.cls-4{stroke-width:2.27px;}.cls-102,.cls-103,.cls-105,.cls-106,.cls-108,.cls-109,.cls-11,.cls-111,.cls-116,.cls-121,.cls-128,.cls-13,.cls-130,.cls-131,.cls-15,.cls-17,.cls-19,.cls-21,.cls-32,.cls-35,.cls-37,.cls-38,.cls-40,.cls-43,.cls-44,.cls-46,.cls-47,.cls-48,.cls-49,.cls-5,.cls-53,.cls-61,.cls-62,.cls-69,.cls-7,.cls-71,.cls-76,.cls-79,.cls-9,.cls-90,.cls-92{stroke-linecap:round;}.cls-5{stroke-width:1.93px;}.cls-6,.cls-85{fill:#6af0b9;}.cls-6{stroke-width:1.56px;}.cls-7{stroke-width:1.32px;}.cls-16,.cls-53,.cls-56,.cls-62,.cls-65,.cls-78,.cls-8,.cls-80{fill:#ffb87d;}.cls-8{stroke-width:1.99px;}.cls-9{stroke-width:1.69px;}.cls-10,.cls-87{fill:#0b5dd1;}.cls-10{stroke-width:1.54px;}.cls-11{stroke-width:1.31px;}.cls-12{fill:#a6ffe1;stroke-width:1.89px;}.cls-13{stroke-width:1.6px;}.cls-101,.cls-111,.cls-116,.cls-119,.cls-14,.cls-26,.cls-42,.cls-95{fill:#8aa1f7;}.cls-15{stroke-width:1.33px;}.cls-16{stroke-width:1.55px;}.cls-17{stroke-width:1.31px;}.cls-18{fill:#abd0ff;}.cls-101,.cls-102,.cls-103,.cls-119,.cls-122,.cls-123,.cls-124,.cls-126,.cls-127,.cls-128,.cls-129,.cls-131,.cls-19,.cls-23,.cls-25,.cls-35,.cls-36,.cls-79,.cls-90,.cls-93,.cls-95{stroke:#0b59c7;}.cls-19{stroke-width:3.03px;}.cls-20{clip-path:url(#clip-path);}.cls-105,.cls-21,.cls-92{stroke:#ff8b2b;}.cls-21{stroke-width:9.1px;}.cls-22{fill:#e3efff;}.cls-23,.cls-25{fill:#a6ffde;}.cls-103,.cls-105,.cls-106,.cls-109,.cls-111,.cls-112,.cls-113,.cls-116,.cls-121,.cls-124,.cls-129,.cls-130,.cls-131,.cls-23,.cls-25,.cls-32,.cls-35,.cls-38,.cls-40,.cls-44,.cls-46,.cls-47,.cls-49,.cls-53,.cls-54,.cls-56,.cls-57,.cls-62,.cls-63,.cls-65,.cls-76,.cls-79,.cls-83,.cls-93,.cls-95{stroke-linejoin:round;}.cls-111,.cls-112,.cls-113,.cls-114,.cls-116,.cls-119,.cls-122,.cls-123,.cls-23,.cls-26,.cls-27,.cls-28,.cls-32,.cls-35,.cls-36,.cls-37,.cls-38,.cls-40,.cls-53,.cls-54,.cls-55,.cls-56,.cls-57,.cls-58,.cls-59,.cls-60,.cls-61,.cls-70,.cls-71,.cls-80,.cls-81,.cls-83,.cls-84,.cls-85,.cls-86,.cls-87,.cls-88,.cls-89,.cls-90,.cls-93,.cls-95,.cls-97,.cls-98{stroke-width:5px;}.cls-24{fill:#d6fff4;}.cls-25{stroke-width:4.2px;}.cls-29,.cls-58,.cls-66{fill:#1a328c;}.cls-30,.cls-31{fill:#d4dcf7;}.cls-100,.cls-31,.cls-41,.cls-52,.cls-72{opacity:0.8;}.cls-32{fill:#558ddb;}.cls-116,.cls-130,.cls-32,.cls-76{stroke:#0653bf;}.cls-33{fill:#7eb6f2;}.cls-34{fill:#609ce0;}.cls-130,.cls-36,.cls-55,.cls-64,.cls-76,.cls-83,.cls-84,.cls-93{fill:#ff8b2b;}.cls-121,.cls-37,.cls-38,.cls-42,.cls-43,.cls-44,.cls-46,.cls-80,.cls-81,.cls-83{stroke:#33dea7;}.cls-39{clip-path:url(#clip-path-2);}.cls-41{fill:#dbe2ff;}.cls-42,.cls-43,.cls-44{stroke-width:0.8px;}.cls-45{clip-path:url(#clip-path-3);}.cls-46{stroke-width:6.66px;}.cls-101,.cls-102,.cls-103,.cls-47{stroke-width:1.6px;}.cls-48,.cls-49,.cls-51{stroke-width:1.76px;}.cls-52{fill:#c4d0ff;}.cls-111,.cls-112,.cls-113,.cls-114,.cls-53,.cls-54,.cls-55,.cls-56,.cls-57,.cls-58,.cls-59,.cls-60,.cls-61,.cls-62,.cls-63,.cls-64,.cls-65,.cls-66,.cls-67,.cls-68,.cls-69{stroke:#1b3bb3;}.cls-54{fill:#ffd6b3;}.cls-57{fill:#96ffd4;}.cls-62,.cls-63,.cls-64,.cls-65,.cls-68,.cls-69{stroke-width:1.63px;}.cls-63{fill:#ffd8b8;}.cls-66,.cls-67{stroke-width:0.54px;}.cls-70{fill:#92fcca;}.cls-72{fill:#d6fff9;}.cls-73{fill:#7dffd5;}.cls-74{fill:#b3ffe4;}.cls-115,.cls-75{stroke:#274cd4;}.cls-75{stroke-width:0.31px;}.cls-76,.cls-79{stroke-width:2.18px;}.cls-77{fill:#ffd2ad;}.cls-127,.cls-81{fill:#9effe0;}.cls-82,.cls-98{fill:#33dea7;}.cls-86{fill:#b5cbe8;}.cls-89{fill:#6bffca;}.cls-91{clip-path:url(#clip-path-4);}.cls-92{stroke-width:19px;}.cls-94{fill:#ffc99c;}.cls-96{fill:#adbeff;}.cls-97{fill:#75ffce;}.cls-100,.cls-99{fill:#a8ffe6;}.cls-104{clip-path:url(#clip-path-5);}.cls-105{stroke-width:13.32px;}.cls-106{stroke-width:3.2px;}.cls-107,.cls-108,.cls-109,.cls-110{stroke-width:1.08px;}.cls-112{fill:#d1ffef;}.cls-113{fill:#afbff7;}.cls-114{fill:#66ffc8;}.cls-115{stroke-width:0.97px;}.cls-117{fill:#bac8ff;}.cls-118{fill:#9eb2ff;}.cls-120{clip-path:url(#clip-path-6);}.cls-121{stroke-width:25px;}.cls-124{fill:#ff9b47;stroke-width:1.61px;}.cls-125{fill:#ffc696;}.cls-126{fill:#6ccfaf;}.cls-126,.cls-127,.cls-128,.cls-129{stroke-width:1.57px;}.cls-129{fill:#00bd80;}.cls-130,.cls-131{stroke-width:1.55px;}</style><clipPath id="clip-path"><path class="cls-1" d="M312.08,663.72C300.13,666,292.73,687.19,290,696.57A27.94,27.94,0,0,0,288.9,704c-.11,8.38-2.7,33.08-27.64,52.72-21,16.53-16.07,37-10.93,48.23a10.52,10.52,0,0,0,12.8,5.62L335.52,787l.22,0,31.35,50.66c-5.29-21,4.13-19.33,4.13-19.33s14.53,3.63,14.36-21,25.27-25.28,25.27-25.28l-50.52-16.95a11.2,11.2,0,0,1-7.51-8.92c-2.54-16.52-7.72-51.35-9.13-69.3C341.8,652.92,312.08,663.72,312.08,663.72Z"/></clipPath><clipPath id="clip-path-2"><path class="cls-1" d="M284.05,1353.75c-3.18-7.21,5.25-9.92,9.76-10.83a6.78,6.78,0,0,0,5.07-4.36c2.26-6.48-3.79-12.41-7.86-15.51a7,7,0,0,0-6.49-1c-14.95,5.1-39.58.88-47.26-.64a34.65,34.65,0,0,0-.22-5.77,35.62,35.62,0,0,0-22.4-29l-100.1-38.84a35.68,35.68,0,0,0-41.77,12.47c-16.52-3.61-32.74-27.6-39.42-38.63a7.25,7.25,0,0,0-11.78-.88c-3.59,4.54-5.18,11-3.6,12.88,1.29,1.53.44,3.28-.72,4.62a6.93,6.93,0,0,1-4.72,2.3c-11.82,1-4.06,10.73.87,19.61,3.89,7-4.51,10.28-9,11.49a6.71,6.71,0,0,0-4.81,4.72c-1.75,6.64,5,12.15,9.4,15a7.33,7.33,0,0,0,6.73.55c13.43-5.54,35.63-4,45.69-2.91a35.65,35.65,0,0,0,22.26,38.49l100.09,38.85a35.66,35.66,0,0,0,44.1-16.22c15.15,5.68,28.22,29.48,33.6,40.55a7,7,0,0,0,11.37,1.65c3.87-4.27,6-10.6,4.58-12.56-1.13-1.6-.14-3.28,1.09-4.54a6.81,6.81,0,0,1,4.78-2C294.79,1373.1,288.08,1362.91,284.05,1353.75Z"/></clipPath><clipPath id="clip-path-3"><path class="cls-1" d="M110.41,283.14c-2-.13-1.6-2.32-1.29-3.42a1.72,1.72,0,0,0-.39-1.64c-1.18-1.25-3.17-.6-4.32-.06a1.75,1.75,0,0,0-1,1.33c-.56,3.91-4.27,8.89-5.47,10.42a9.1,9.1,0,0,0-1.3-.62,8.72,8.72,0,0,0-8.92,1.61L67.89,308.47a9,9,0,0,0-2,10.73c-2.66,3.25-9.79,4.06-13,4.26A1.8,1.8,0,0,0,51.43,326c.59,1.32,1.85,2.43,2.44,2.29s.77.29.93.7a1.77,1.77,0,0,1,0,1.32c-1.12,2.74,1.91,2.15,4.43,2.08,2,0,1.76,2.2,1.52,3.35a1.7,1.7,0,0,0,.5,1.62c1.27,1.16,3.24.31,4.37-.34a1.85,1.85,0,0,0,.88-1.44c.29-3.62,3.13-8.37,4.51-10.48a8.77,8.77,0,0,0,11-.47l19.87-17.71a9,9,0,0,0,1.39-11.68c3-2.71,9.7-2.84,12.76-2.75a1.72,1.72,0,0,0,1.64-2.33c-.5-1.36-1.67-2.56-2.25-2.48s-.75-.35-.89-.77a1.7,1.7,0,0,1,.11-1.29C115.9,283,112.89,283.31,110.41,283.14Z"/></clipPath><clipPath id="clip-path-4"><path class="cls-1" d="M1737.2,1194.29c-.17-24.11-38.71-46.17-56-54.86a55.18,55.18,0,0,0-14-4.82c-16.29-3.25-63.46-17.22-92.7-72.91-24.61-46.89-66.33-44.68-90-38.73a20.84,20.84,0,0,0-15.57,22.92l19.57,149.49-.15.42-110,42.74c42.77-2.72,36.16,15,36.16,15s-12.33,27,35.68,35.57,40.11,58.35,40.11,58.35l51.27-92.26a22.22,22.22,0,0,1,20.1-11.42c33.09,1,102.81,3.53,138.28,7.28C1747.5,1256.09,1737.2,1194.29,1737.2,1194.29Z"/></clipPath><clipPath id="clip-path-5"><path class="cls-1" d="M1627.87,819.92c1-3.78,5.16-2.26,7.21-1.24a3.46,3.46,0,0,0,3.36-.15c2.91-1.84,2.38-6,1.75-8.45a3.45,3.45,0,0,0-2.25-2.37c-7.48-2.58-15.86-11.75-18.4-14.69a18.13,18.13,0,0,0,1.71-2.31,17.46,17.46,0,0,0,.21-18.14l-27.28-45.72a18,18,0,0,0-20.34-7.9c-5.37-6.45-4.27-20.76-3.46-27.11a3.61,3.61,0,0,0-4.37-3.94c-2.83.68-5.47,2.72-5.43,3.93,0,1-.85,1.41-1.73,1.58a3.51,3.51,0,0,1-2.57-.55c-5-3.22-4.94,2.94-5.77,7.92-.66,3.91-5,2.62-7.15,1.71a3.44,3.44,0,0,0-3.37.37c-2.76,2.06-1.83,6.26-1,8.71a3.64,3.64,0,0,0,2.48,2.27c7,1.95,15.27,9.33,18.89,12.82a17.54,17.54,0,0,0-3.24,21.82l27.28,45.72a18,18,0,0,0,22.42,7.15c4.19,6.84,1.91,20.12.58,26.08a3.43,3.43,0,0,0,4,4.11c2.86-.48,5.66-2.31,5.73-3.49.05-1,1-1.33,1.84-1.44a3.41,3.41,0,0,1,2.5.69C1626.06,830.75,1626.6,824.73,1627.87,819.92Z"/></clipPath><clipPath id="clip-path-6"><path class="cls-1" d="M1663.79,1393.56c-7.59-3.7-2.63-11.87.39-15.8a7.48,7.48,0,0,0,1.08-7.18c-2.68-6.93-11.7-7.53-17.16-7.22a7.42,7.42,0,0,0-5.95,3.77c-8.58,14.74-31.5,28.65-38.79,32.81a38.12,38.12,0,0,0-4.18-4.6,37.63,37.63,0,0,0-38.29-8L1452.69,1426c-16.64,5.94-26.68,22.65-25.21,39.74-15.92,8.69-45.75.37-58.83-4a7.77,7.77,0,0,0-10.17,7.59c.24,6.27,3.46,12.72,6,13.14,2.11.35,2.63,2.39,2.63,4.31a7.6,7.6,0,0,1-2.23,5.23c-8.91,9.15,4.16,11.69,14.33,15.52,8,3,3.48,11.65.65,15.86a7.4,7.4,0,0,0-.63,7.27c3.2,6.7,12.48,6.5,18,5.7a7.87,7.87,0,0,0,5.84-4.31c7-14,26.12-28.42,35-34.62a37.82,37.82,0,0,0,44.81,16l108.2-38.64c18.17-6.49,28.46-25.81,24.5-44.46,16.23-6,43.38,4.36,55.44,9.68a7.43,7.43,0,0,0,10.37-6.66c.17-6.25-2.54-12.94-5-13.58-2-.52-2.4-2.6-2.28-4.5a7.46,7.46,0,0,1,2.5-5C1686,1401.91,1673.43,1398.25,1663.79,1393.56Z"/></clipPath></defs><title>фон страницы</title><g id="Слой_2" data-name="Слой 2"><g class="cls-2"><path class="cls-3" d="M367.09,837.73h0s11.65,10,31.75-23.75a55.39,55.39,0,0,0,4.28-9c5.43-14.66,6.66-15.57,13.35-21.65,2.8-2.81,4-10.24-5.62-11.23s-36.34,5-36.34,5L361.8,814,363,826.17Z"/><path class="cls-3" d="M259.59,811s-40.68-6.77-2.22-68.07c15-23.63,17.34-27.26,24.77-51.38s34.34-44.78,59.29-21Z"/><ellipse class="cls-4" cx="245.74" cy="790.94" rx="20.09" ry="7.83" transform="translate(-550.95 1017.34) rotate(-88.6)"/><path class="cls-5" d="M244.68,804.08s-5.67-14.16.53-21.43c3.19-2.76,4.25,3.17,4.6,7.32a19.52,19.52,0,0,1-.67,7c-.85,2.66-3.84,4.83-3.11-2.16"/><ellipse class="cls-6" cx="249.24" cy="765.3" rx="13.74" ry="5.36" transform="translate(-539.07 602.9) rotate(-60.32)"/><path class="cls-7" d="M244.34,772.87s1.17-10.37,7.27-12.74c2.82-.63,1.53,3.29.4,5.9a13.24,13.24,0,0,1-2.69,4c-1.37,1.33-3.88,1.67-1.17-2.31"/><ellipse class="cls-8" cx="261.46" cy="748.99" rx="17.6" ry="6.86" transform="matrix(0.41, -0.91, 0.91, 0.41, -528.54, 676.51)"/><path class="cls-9" d="M256.09,759.21s.29-13.36,7.79-17.09c3.51-1.12,2.33,4,1.19,7.48a17.2,17.2,0,0,1-3,5.45c-1.6,1.86-4.76,2.57-1.77-2.8"/><ellipse class="cls-10" cx="272.77" cy="741.14" rx="13.64" ry="5.32" transform="translate(-516.87 753.71) rotate(-70.71)"/><path class="cls-11" d="M269.34,749.4s-.71-10.32,4.81-13.73c2.64-1.11,2.09,2.94,1.45,5.69a13.41,13.41,0,0,1-1.9,4.41c-1.11,1.55-3.5,2.32-1.56-2"/><ellipse class="cls-12" cx="273.94" cy="719.4" rx="16.71" ry="6.51" transform="translate(-487.99 609.62) rotate(-60.96)"/><path class="cls-13" d="M268.09,728.67s1.28-12.62,8.66-15.59c3.41-.8,1.9,4,.56,7.17a16.49,16.49,0,0,1-3.21,4.94c-1.66,1.63-4.7,2.07-1.46-2.79"/><ellipse class="cls-4" cx="285.49" cy="698.42" rx="16.71" ry="6.51" transform="translate(-453.87 848.86) rotate(-79.27)"/><path class="cls-13" d="M282.85,709.05s-2.75-12.38,3.33-17.51c3-1.84,3.06,3.17,2.78,6.62a16.1,16.1,0,0,1-1.5,5.7c-1,2.07-3.8,3.45-2.26-2.19"/><ellipse class="cls-14" cx="296.55" cy="676.61" rx="16.71" ry="6.51" transform="translate(-434.49 570.25) rotate(-58.05)"/><path class="cls-13" d="M290.24,685.57s1.92-12.54,9.44-15.13c3.45-.63,1.7,4.07.2,7.19a16.25,16.25,0,0,1-3.46,4.76c-1.73,1.55-4.8,1.84-1.32-2.86"/><ellipse class="cls-8" cx="311.89" cy="668.52" rx="13.85" ry="5.4" transform="matrix(0.53, -0.85, 0.85, 0.53, -420.41, 579.46)"/><path class="cls-15" d="M306.66,676s1.59-10.4,7.83-12.54c2.86-.52,1.41,3.37.16,6a13.31,13.31,0,0,1-2.87,4c-1.43,1.28-4,1.52-1.09-2.37"/><ellipse class="cls-16" cx="283.94" cy="723.64" rx="13.66" ry="5.32" transform="translate(-489.9 797.5) rotate(-74.03)"/><path class="cls-17" d="M281,732.1s-1.31-10.29,4-14c2.57-1.27,2.25,2.81,1.77,5.6a13.33,13.33,0,0,1-1.64,4.53c-1,1.6-3.36,2.52-1.68-2"/><path class="cls-18" d="M336.71,786.47a1.1,1.1,0,0,0-.77-.52l-.22,0-.2,0a1.12,1.12,0,0,0-.35.06l-72.39,23.48a9.2,9.2,0,0,1-2.89.46,9.4,9.4,0,0,1-8.53-5.47c-4.85-10.56-9.92-30.71,10.6-46.86,25-19.65,28-44,28.08-53.6a26.86,26.86,0,0,1,1.06-7.08c2.58-8.9,9.82-29.85,21.19-32l.17-.05A45.45,45.45,0,0,1,326,662.44c10.26,0,15.84,4.92,16.61,14.62,1.38,17.64,6.32,51,9.13,69.38a12.31,12.31,0,0,0,8.28,9.83l46,15.42c-7.67,1.64-21.62,7.19-21.49,25.74.06,8.25-1.53,14.07-4.73,17.3a9.13,9.13,0,0,1-6.58,2.73,7.55,7.55,0,0,1-1.64-.16,4.43,4.43,0,0,0-.73-.06,5.56,5.56,0,0,0-4.46,2.23c-1.88,2.41-2.4,6.52-1.58,12.27Z"/><path class="cls-3" d="M326,663.58c9.69,0,14.76,4.44,15.47,13.57,1.39,17.67,6.33,51.11,9.15,69.46a13.43,13.43,0,0,0,9,10.74L402,771.57c-8.08,2.62-18.81,9.23-18.69,25.87.05,7.82-1.47,13.53-4.41,16.49a8,8,0,0,1-5.77,2.39,6.91,6.91,0,0,1-1.36-.12h0l-.16,0a4.85,4.85,0,0,0-.85-.07,6.77,6.77,0,0,0-5.36,2.67c-1.5,1.93-2.23,4.69-2.21,8.34l-25.51-41.24a2.28,2.28,0,0,0-1.55-1l-.22,0a2.47,2.47,0,0,0-.39,0,2.13,2.13,0,0,0-.7.11l-72.39,23.48a8.14,8.14,0,0,1-2.54.41A8.25,8.25,0,0,1,252.4,804c-2.29-5-4.87-12.67-4.14-21,.82-9.39,5.66-17.64,14.4-24.52,25.35-20,28.39-44.75,28.52-54.48a25.43,25.43,0,0,1,1-6.78c2-6.79,9.25-29.11,20.31-31.24l.34-.1a44.16,44.16,0,0,1,13.1-2.28m0-2.27a46.08,46.08,0,0,0-13.87,2.41C300.13,666,292.73,687.19,290,696.57A27.94,27.94,0,0,0,288.9,704c-.11,8.38-2.7,33.08-27.64,52.72-21,16.53-16.07,37-10.93,48.23a10.51,10.51,0,0,0,9.56,6.13,10.69,10.69,0,0,0,3.24-.51L335.52,787l.22,0,31.35,50.66c-4.57-18.12,1.84-19.36,3.67-19.36a3.09,3.09,0,0,1,.46,0,8.55,8.55,0,0,0,1.91.19c3.94,0,12.58-2.16,12.45-21.17-.17-24.61,25.27-25.28,25.27-25.28l-50.52-16.95a11.2,11.2,0,0,1-7.51-8.92c-2.54-16.52-7.72-51.35-9.13-69.3-1-12.67-9.71-15.66-17.74-15.66Z"/><path class="cls-19" d="M290.07,704.78s12.4,37.1,47.51,58.35"/><path class="cls-19" d="M381.13,812.45s-9.92-19.32-46.11-40.29c-33.84-19.61-81.44-5.59-81.44-5.59"/><g class="cls-20"><path class="cls-21" d="M336.19,787.2s-6-26.76,18.15-33.38"/></g><path class="cls-3" d="M326,663.58c9.69,0,14.76,4.44,15.47,13.57,1.39,17.67,6.33,51.11,9.15,69.46a13.43,13.43,0,0,0,9,10.74L402,771.57c-8.08,2.62-18.81,9.23-18.69,25.87.05,7.82-1.47,13.53-4.41,16.49a8,8,0,0,1-5.77,2.39,6.91,6.91,0,0,1-1.36-.12h0l-.16,0a4.85,4.85,0,0,0-.85-.07,6.77,6.77,0,0,0-5.36,2.67c-1.5,1.93-2.23,4.69-2.21,8.34l-25.51-41.24a2.28,2.28,0,0,0-1.55-1l-.22,0a2.47,2.47,0,0,0-.39,0,2.13,2.13,0,0,0-.7.11l-72.39,23.48a8.14,8.14,0,0,1-2.54.41A8.25,8.25,0,0,1,252.4,804c-2.29-5-4.87-12.67-4.14-21,.82-9.39,5.66-17.64,14.4-24.52,25.35-20,28.39-44.75,28.52-54.48a25.43,25.43,0,0,1,1-6.78c2-6.79,9.25-29.11,20.31-31.24l.34-.1a44.16,44.16,0,0,1,13.1-2.28m0-2.27a46.08,46.08,0,0,0-13.87,2.41C300.13,666,292.73,687.19,290,696.57A27.94,27.94,0,0,0,288.9,704c-.11,8.38-2.7,33.08-27.64,52.72-21,16.53-16.07,37-10.93,48.23a10.51,10.51,0,0,0,9.56,6.13,10.69,10.69,0,0,0,3.24-.51L335.52,787l.22,0,31.35,50.66c-4.57-18.12,1.84-19.36,3.67-19.36a3.09,3.09,0,0,1,.46,0,8.55,8.55,0,0,0,1.91.19c3.94,0,12.58-2.16,12.45-21.17-.17-24.61,25.27-25.28,25.27-25.28l-50.52-16.95a11.2,11.2,0,0,1-7.51-8.92c-2.54-16.52-7.72-51.35-9.13-69.3-1-12.67-9.71-15.66-17.74-15.66Z"/><path class="cls-19" d="M336,786.05s-6.91-21,14.73-43"/><path class="cls-22" d="M261.52,799.45,318.43,785a9.28,9.28,0,0,0,3.83-2c2-1.74,2.91-4.16-9.53-3-16.13,1.43-44.46,11.86-51.87,14.68a7.93,7.93,0,0,0-3.91,3.1C255.94,799.31,256,800.86,261.52,799.45Z"/><path class="cls-22" d="M300.45,709.41,333,749.6a9.4,9.4,0,0,1,1.8,3.8c.64,2.77.28,5.83-7.66-.68-10.29-8.44-25.18-32-29-38.27a10.1,10.1,0,0,1-1.39-5.08C296.64,707.18,297.27,705.47,300.45,709.41Z"/><path class="cls-22" d="M351.26,765.36l30.08,15.56a6.22,6.22,0,0,1,2.07,1.81c1.11,1.49,1.71,3.43-4.77,1.61-8.39-2.36-23.52-12.58-27.48-15.32a6.59,6.59,0,0,1-2.17-2.69C348.39,765,348.32,763.84,351.26,765.36Z"/><path class="cls-22" d="M346.1,789.85l17.1,21.95a5.21,5.21,0,0,1,.93,2.06c.32,1.5.09,3.15-4.11-.44-5.46-4.64-13.24-17.47-15.25-20.87a5.4,5.4,0,0,1-.7-2.76C344.07,788.62,344.43,787.71,346.1,789.85Z"/><polygon class="cls-23" points="443.87 1248.79 389.65 1187.62 308.53 1197.61 349.95 1127.14 315.39 1053.08 395.2 1070.69 454.96 1014.93 462.87 1096.29 534.37 1135.89 459.44 1168.55 443.87 1248.79"/><ellipse class="cls-24" cx="361.62" cy="1077.62" rx="6.37" ry="25.53" transform="translate(-769.1 1193.75) rotate(-77.31)"/><ellipse class="cls-24" cx="427.34" cy="1061.84" rx="25.53" ry="6.37" transform="translate(-642.92 656.05) rotate(-47.31)"/><polygon class="cls-25" points="346.41 424.42 325.88 401.25 295.15 405.03 310.84 378.34 297.74 350.28 327.98 356.95 350.62 335.83 353.61 366.65 380.7 381.65 352.31 394.02 346.41 424.42"/><ellipse class="cls-24" cx="315.26" cy="359.58" rx="2.41" ry="9.67" transform="translate(-104.78 588.17) rotate(-77.31)"/><ellipse class="cls-24" cx="340.15" cy="353.6" rx="9.67" ry="2.41" transform="translate(-150.39 363.9) rotate(-47.31)"/><polygon class="cls-23" points="41.05 1175.12 -7.35 1120.51 -79.78 1129.42 -42.8 1066.51 -73.66 1000.38 -2.4 1016.11 50.95 966.33 58.01 1038.96 121.85 1074.32 54.95 1103.48 41.05 1175.12"/><ellipse class="cls-24" cx="26.29" cy="1008.21" rx="22.79" ry="5.69" transform="translate(-732.64 343.98) rotate(-47.31)"/><ellipse class="cls-26" cx="143.33" cy="1365.81" rx="36.85" ry="99.28" transform="translate(-1206.28 1111.78) rotate(-73.35)"/><ellipse class="cls-27" cx="143.48" cy="1362.94" rx="26.31" ry="70.89" transform="translate(-1203.42 1109.87) rotate(-73.35)"/><path class="cls-28" d="M183,1253.2s-22.31,55.16-2.91,111.9a10.74,10.74,0,0,1-9.54,14.24,88.45,88.45,0,0,1-59.83-18.42,10.73,10.73,0,0,1-.82-16.3c14-13.07,41.28-43.63,58.94-95.66"/><path class="cls-26" d="M360.09,1149.42c-14.15-15.18-38.5-7.71-48.13-3.88q4.38-11.13,8-23,2.63-8.8,4.65-17.53c-25.82,4.11-62.65.67-101.63-11s-71.65-29-91-46.61q-3.1,8.4-5.74,17.2-3.47,11.57-5.85,23c-6.39-8.87-22.24-27.12-41.78-22.35-23.39,5.71-3.45,86.34,36.47,95.2,3.91,49.82,25.25,85.83,59.29,96s71-9.33,101.64-48.85C314.19,1223,376.6,1167.15,360.09,1149.42Zm-254.78-27.81c-3.73,1.75-10.59-5-15.33-15s-5.58-19.63-1.86-21.39,10.59,5,15.33,15S109,1119.85,105.31,1121.61Zm222.58,56.12c-9.49,5.8-18.92,7.66-21.07,4.15s3.81-11.06,13.3-16.86,18.92-7.66,21.06-4.15S337.38,1171.93,327.89,1177.73Z"/><ellipse class="cls-28" cx="228.28" cy="1076.15" rx="29.81" ry="100.62" transform="translate(-868.16 986.5) rotate(-73.35)"/><path class="cls-29" d="M172.67,1183.27a25.56,25.56,0,0,1,2.56,1.15,9.68,9.68,0,0,0,1.48.66q3.42,1.13,5.72-4.1,1.27-3,6-17.29a4.31,4.31,0,0,0,.1-3.31,4.91,4.91,0,0,0-2.94-1.9,15.07,15.07,0,0,0-1.65-.41c-.56-.12-1-.25-1.44-.38a3.41,3.41,0,0,1-2-1.47,2.63,2.63,0,0,1-.2-2.23,3.82,3.82,0,0,1,2.13-2.14,12.09,12.09,0,0,1,4.31-1.06,64.8,64.8,0,0,1,25.82,3.13,12.35,12.35,0,0,1,4.82,2.49,2.91,2.91,0,0,1,.72,3.16,2.44,2.44,0,0,1-1.05,1.46,6.62,6.62,0,0,1-2.51.58c-1.91.18-3.15.75-3.73,1.72s-2.11,5-4.58,12.05q-3.23,10.89-3.43,11.67a16.09,16.09,0,0,0-.38,2.24,4.57,4.57,0,0,0,.85,3.54,11.08,11.08,0,0,0,4.35,2.49c2.48.94,3.41,2.39,2.76,4.35s-2.89,2.79-6.67,2.26a90.73,90.73,0,0,1-15.73-3.69,77.7,77.7,0,0,1-9.54-3.8,47.09,47.09,0,0,1-8.29-4.91c-1.82-1.43-2.49-2.89-2-4.39a2.84,2.84,0,0,1,1.69-1.77A4,4,0,0,1,172.67,1183.27Z"/><path class="cls-27" d="M118.74,1086.17s72.44,88.08,192.68,58.63"/><path class="cls-27" d="M115.07,1160.44s58.15,68.93,160.8,47.61"/><path class="cls-30" d="M86.47,1074.51a4.85,4.85,0,0,1-1.45,3.75c-2,2-6.08,7-3.19,13.22,1.48,2.76-7.57,12.39-7.94-7C73.38,1074.68,86,1068.2,86.47,1074.51Z"/><path class="cls-30" d="M334.83,1151.55a15.1,15.1,0,0,1-6.42,3.35c-4.6,1.07-15.18,4.37-20.9,12.92-2.36,3.93-23.83,9.5,2.13-12.33C322.46,1144.27,343,1144.27,334.83,1151.55Z"/><path class="cls-31" d="M135.73,1143.91c4.56,19.63,16.63,63.8,34.66,73.49,15.1,11.13-5.72,33-26.21,4-15.33-21.73-13.6-59.55-11.75-77.25A1.68,1.68,0,0,1,135.73,1143.91Z"/><polygon class="cls-32" points="114.56 1198.28 37.53 1162.33 -3.7 1183.67 16.12 1308.67 124.67 1243.6 114.56 1198.28"/><polyline class="cls-32" points="63.54 1173.6 32.35 1205.07 16.07 1306.91 83.69 1229.04 89.22 1185.58"/><polygon class="cls-33" points="-1.27 1186.2 26.31 1203.01 12.95 1181.03 -1.27 1186.2"/><polygon class="cls-33" points="35.74 1207.63 80.98 1228.75 43.5 1199.44 35.74 1207.63"/><polygon class="cls-33" points="87.44 1231.77 121.27 1243.62 88.74 1220.56 87.44 1231.77"/><polygon class="cls-34" points="26.47 1219.05 16.98 1281.53 8.59 1206.76 26.47 1219.05"/><polygon class="cls-34" points="74.94 1241.68 33.14 1289.07 95.84 1247.5 74.94 1241.68"/><polygon class="cls-35" points="114.56 1198.28 37.53 1162.33 -3.7 1183.67 16.12 1308.67 124.67 1243.6 114.56 1198.28"/><path class="cls-36" d="M284.05,1353.75c-3.18-7.21,5.25-9.92,9.76-10.83a6.78,6.78,0,0,0,5.07-4.36c2.26-6.48-3.79-12.41-7.86-15.51a7,7,0,0,0-6.49-1c-14.95,5.1-39.58.88-47.26-.64a34.65,34.65,0,0,0-.22-5.77,35.62,35.62,0,0,0-22.4-29l-100.1-38.84a35.68,35.68,0,0,0-41.77,12.47c-16.52-3.61-32.74-27.6-39.42-38.63a7.25,7.25,0,0,0-11.78-.88c-3.59,4.54-5.18,11-3.6,12.88,1.29,1.53.44,3.28-.72,4.62a6.93,6.93,0,0,1-4.72,2.3c-11.82,1-4.06,10.73.87,19.61,3.89,7-4.51,10.28-9,11.49a6.71,6.71,0,0,0-4.81,4.72c-1.75,6.64,5,12.15,9.4,15a7.33,7.33,0,0,0,6.73.55c13.43-5.54,35.63-4,45.69-2.91a35.65,35.65,0,0,0,22.26,38.49l100.09,38.85a35.66,35.66,0,0,0,44.1-16.22c15.15,5.68,28.22,29.48,33.6,40.55a7,7,0,0,0,11.37,1.65c3.87-4.27,6-10.6,4.58-12.56-1.13-1.6-.14-3.28,1.09-4.54a6.81,6.81,0,0,1,4.78-2C294.79,1373.1,288.08,1362.91,284.05,1353.75Z"/><path class="cls-37" d="M18.27,1236.79l.48.25s31.87,12.37,47.6,36.81"/><path class="cls-37" d="M13.48,1266.57s18.25-11.31,54.17,8.36"/><path class="cls-37" d="M65.92,1257.72S68,1280,60.49,1289c11-12.15,12.57-28,12.57-28"/><path class="cls-37" d="M227.2,1351.27c4.91-6.6,10.09-30.6,10.09-30.6s2.68,21.13-2.56,31.7"/><path class="cls-38" d="M282.91,1349.3s-25.45-20.46-45.25-9.1c31.49,5.78,39.27,37.62,39.27,37.62"/><g class="cls-39"><path class="cls-38" d="M69.09,1203.28s84.92,76.51,2.12,263.29"/><path class="cls-40" d="M107.16,1216.45s82.44,79.17-6.27,263.22"/><path class="cls-38" d="M160,1234.55s81.58,80.06-9.11,263.13"/><path class="cls-40" d="M197.51,1249.32s79,82.62-17.48,262.72"/></g><path class="cls-41" d="M127.87,1261.7s-38-13.83-47,7.45c-4.84,11.39-2.06,15.84,1.55,17.52a8.38,8.38,0,0,0,9.43-1.94c5.18-5.29,17.41-15.79,27.76-9.49C133.17,1283.48,140.18,1266.69,127.87,1261.7Z"/><path class="cls-42" d="M110.41,283.14c-2-.13-1.6-2.32-1.29-3.42a1.72,1.72,0,0,0-.39-1.64c-1.18-1.25-3.17-.6-4.32-.06a1.75,1.75,0,0,0-1,1.33c-.56,3.91-4.27,8.89-5.47,10.42a9.1,9.1,0,0,0-1.3-.62,8.72,8.72,0,0,0-8.92,1.61L67.89,308.47a9,9,0,0,0-2,10.73c-2.66,3.25-9.79,4.06-13,4.26A1.8,1.8,0,0,0,51.43,326c.59,1.32,1.85,2.43,2.44,2.29s.77.29.93.7a1.77,1.77,0,0,1,0,1.32c-1.12,2.74,1.91,2.15,4.43,2.08,2,0,1.76,2.2,1.52,3.35a1.7,1.7,0,0,0,.5,1.62c1.27,1.16,3.24.31,4.37-.34a1.85,1.85,0,0,0,.88-1.44c.29-3.62,3.13-8.37,4.51-10.48a8.77,8.77,0,0,0,11-.47l19.87-17.71a9,9,0,0,0,1.39-11.68c3-2.71,9.7-2.84,12.76-2.75a1.72,1.72,0,0,0,1.64-2.33c-.5-1.36-1.67-2.56-2.25-2.48s-.75-.35-.89-.77a1.7,1.7,0,0,1,.11-1.29C115.9,283,112.89,283.31,110.41,283.14Z"/><path class="cls-43" d="M54.58,328.57l.11-.08s6.33-5.64,13.5-6.29"/><path class="cls-43" d="M60.62,333.1s-.44-5.37,8-11.06"/><path class="cls-43" d="M64.58,320.42s5.16,2.14,6.29,4.84a13.75,13.75,0,0,0-4.76-6.05"/><path class="cls-43" d="M103.45,295.48c-.91-1.86-5.62-5.8-5.62-5.8s5,1.86,6.71,4.26"/><path class="cls-44" d="M109.3,282.88s-7.39,3.27-7.12,9c4.83-6.32,12.74-4.34,12.74-4.34"/><g class="cls-45"><path class="cls-46" d="M52.91,313.38s26.49-10,58.41,30.16"/><path class="cls-47" d="M60.12,306.46s26.79-9.1,57.44,32"/><path class="cls-46" d="M70.08,296.82S97,288,127.19,329.46"/><path class="cls-47" d="M77.57,290.22s27.17-7.94,56.07,34.45"/></g><path class="cls-41" d="M72.45,307.12s-7.34,6.83-3.66,11.31c2,2.39,3.27,2.3,4,1.69a2.11,2.11,0,0,0,.64-2.32c-.59-1.77-1.53-5.71,1-7.27C77.86,308.48,74.94,305,72.45,307.12Z"/><path class="cls-48" d="M23.14,896.3l.2-.14s11.7-10.92,27.3-10.34"/><path class="cls-48" d="M38.33,908.25S35.17,896,51.43,885.56"/><path class="cls-48" d="M41.93,880.76s12.27,6.3,15.87,12.72a48,48,0,0,0-13-15"/><path class="cls-48" d="M117.71,835.57c-2.75-4.46-14.79-14.7-14.79-14.7s11.75,5.62,16.58,11.53"/><path class="cls-49" d="M125.52,808.79s-15,5.28-12.08,18.27c8.11-12.89,26.41-6.17,26.41-6.17"/><path class="cls-50" d="M128.08,809.71c-4.37-.86-4.47-5.7-4.24-8.11a5.05,5.05,0,0,0-1.54-3.8c-3.11-3.17-7.25-2.26-9.56-1.36a2.62,2.62,0,0,0-1.56,2.72c.36,8.68-5.82,18.86-7.86,22a29.68,29.68,0,0,0-3.13-1.77c-7-3.39-14.44-3.24-19.07,1.08L44.38,854.74c-5.65,5.28-5.38,15.14,0,23.66-4.56,6.57-20,6.37-27,5.91-2.69-.18-3.92,2.56-2.34,5.24,1.86,3.16,5.08,6,6.33,5.88,1-.11,1.82.87,2.36,1.85a4.25,4.25,0,0,1,.48,3c-1.35,5.87,5.1,5.4,10.64,6,4.37.46,4.79,5.47,4.72,8A5.22,5.22,0,0,0,41.4,918c3.28,3,7.3,1.62,9.52.46a2.85,2.85,0,0,0,1.36-3c-.82-8.1,3.53-18,5.71-22.38,8.23,6.38,18.39,7.49,24.17,2.09l36.74-34.3c6.17-5.77,5.28-17-1.68-26,5.45-5.26,20.29-3.64,27.07-2.56,2.7.43,4.12-2.07,2.7-4.79-1.68-3.21-4.74-6.25-6-6.24-1,0-1.79-1-2.26-2a3.93,3.93,0,0,1-.3-2.89C140.16,811,133.63,810.8,128.08,809.71Z"/><path class="cls-51" d="M128.08,809.71c-4.37-.86-4.47-5.7-4.24-8.11a5.05,5.05,0,0,0-1.54-3.8c-3.11-3.17-7.25-2.26-9.56-1.36a2.62,2.62,0,0,0-1.56,2.72c.36,8.68-5.82,18.86-7.86,22a29.68,29.68,0,0,0-3.13-1.77c-7-3.39-14.44-3.24-19.07,1.08L44.38,854.74c-5.65,5.28-5.38,15.14,0,23.66-4.56,6.57-20,6.37-27,5.91-2.69-.18-3.92,2.56-2.34,5.24,1.86,3.16,5.08,6,6.33,5.88,1-.11,1.82.87,2.36,1.85a4.25,4.25,0,0,1,.48,3c-1.35,5.87,5.1,5.4,10.64,6,4.37.46,4.79,5.47,4.72,8A5.22,5.22,0,0,0,41.4,918c3.28,3,7.3,1.62,9.52.46a2.85,2.85,0,0,0,1.36-3c-.82-8.1,3.53-18,5.71-22.38,8.23,6.38,18.39,7.49,24.17,2.09l36.74-34.3c6.17-5.77,5.28-17-1.68-26,5.45-5.26,20.29-3.64,27.07-2.56,2.7.43,4.12-2.07,2.7-4.79-1.68-3.21-4.74-6.25-6-6.24-1,0-1.79-1-2.26-2a3.93,3.93,0,0,1-.3-2.89C140.16,811,133.63,810.8,128.08,809.71Z"/><path class="cls-48" d="M23.14,896.3l.2-.14s11.7-10.92,27.3-10.34"/><path class="cls-48" d="M38.33,908.25S35.17,896,51.43,885.56"/><path class="cls-48" d="M41.93,880.76s12.27,6.3,15.87,12.72a48,48,0,0,0-13-15"/><path class="cls-48" d="M117.71,835.57c-2.75-4.46-14.79-14.7-14.79-14.7s11.75,5.62,16.58,11.53"/><path class="cls-49" d="M125.52,808.79s-15,5.28-12.08,18.27c8.11-12.89,26.41-6.17,26.41-6.17"/><path class="cls-52" d="M59.9,845.39S39.42,860,47.18,872.16c4.15,6.5,7.41,6.64,9.55,5.37A5.2,5.2,0,0,0,59.05,872c-.89-4.53-2-14.51,4.91-17.61C73,850.34,66.8,840.83,59.9,845.39Z"/><path class="cls-53" d="M173.23,1346.78l65.12,175.72a36.35,36.35,0,0,0,28.81,24.35c27.48,4.34,77.44,4.28,135.31-32.95a41.53,41.53,0,0,0,18.87-38L407.83,1291.8S336.23,1381.46,173.23,1346.78Z"/><path class="cls-54" d="M169.34,1343.14s150.54,52.78,234.6-55l29.82-28.25s-133.63,64.72-221.22,47.29Z"/><path class="cls-55" d="M431.45,1266.35l15.72,178.1a51.46,51.46,0,0,1-15.72,41.75c-12.12,11.56-26.87,25.13-32.14,27.94-9.54,5.09,4.2-221.33,4.2-221.33Z"/><path class="cls-56" d="M169.34,1343.14l-1.8,24.71s124.63,58.86,246.79-54.8l-10.39-24.89S297.79,1385.91,169.34,1343.14Z"/><polygon class="cls-57" points="403.94 1288.16 433.76 1259.91 440.78 1270.41 414.33 1313.05 403.94 1288.16"/><path class="cls-58" d="M324.68,1299s6.11,22.06-12.37,42.8c0,0,36.79,135.79,31.82,194.42,0,0-21.19,6.24-38.53,8,0,0,17.58-87.5-23.45-195.24,0,0,29.25-34.62,32.31-47.48Z"/><path class="cls-59" d="M312.31,1341.8c18.48-20.74,12.37-42.8,12.37-42.8l-10.22,2.54c-3.06,12.86-32.31,47.48-32.31,47.48S307.49,1344.74,312.31,1341.8Z"/><path class="cls-59" d="M198.57,1318.82s80.7,26,216.64-40.89l-4.11,3.45s-110.29,76.22-226.29,48.89Z"/><path class="cls-58" d="M411.56,1281.82S442,1421.28,415.3,1497l21.22-20.51s24.43-25.82-21.73-198.57l-3.34,3.17Z"/><path class="cls-60" d="M353.63,1270.94c-15-1.16-28.11,15.88-35.18,27.41h0c-16.66-3.84-22.46,5.37-22.46,5.37h0c-11.3-10.17-31.88-26.13-46.55-22.72-21.22,4.93-11.73,25.3-12.66,37.3s.65,29.44,16.31,23.79,41.56-6.16,48.06-17.45c11.94,6,22.2-2.18,22.2-2.18h0c11.82,7.91,35.1,5.26,51.48,8.29,17.49,3.23,12-13.92,6.2-25.43S376.22,1272.68,353.63,1270.94Z"/><path class="cls-61" d="M296.85,1304.14s-8.82,14.22,4.72,20.15"/><path class="cls-61" d="M318.77,1299.08s14.89,10.05,6.05,22.88"/><line class="cls-61" x1="294.3" y1="1310.89" x2="251.74" y2="1299.53"/><path class="cls-61" d="M294.13,1318.45s-15.41-1-25.91,6.07"/><path class="cls-61" d="M325.21,1302.05s2.29-9.64,14.14-10.9"/><path class="cls-61" d="M329.46,1311.36s37.81-12.75,45.84-.38"/><path class="cls-62" d="M122.06,508.4l20.17,54.42a11.28,11.28,0,0,0,8.93,7.55c8.51,1.34,24,1.32,41.9-10.21a12.86,12.86,0,0,0,5.85-11.76l-4.19-57S172.55,519.14,122.06,508.4Z"/><path class="cls-63" d="M120.86,507.27s46.62,16.35,72.66-17l9.23-8.74s-41.38,20-68.51,14.64Z"/><path class="cls-64" d="M202,483.49l4.87,55.16A16,16,0,0,1,202,551.58c-3.76,3.58-8.32,7.78-10,8.66-3,1.57,1.31-68.55,1.31-68.55Z"/><path class="cls-65" d="M120.86,507.27l-.56,7.66s38.6,18.22,76.44-17l-3.22-7.71S160.64,520.52,120.86,507.27Z"/><polygon class="cls-65" points="193.52 490.24 202.75 481.5 204.93 484.75 196.74 497.95 193.52 490.24"/><path class="cls-66" d="M169,493.6a15,15,0,0,1-3.83,13.26s11.39,42.06,9.86,60.21a79.33,79.33,0,0,1-11.94,2.49s5.45-27.1-7.26-60.46c0,0,9.06-10.73,10-14.71Z"/><path class="cls-67" d="M165.14,506.86A15,15,0,0,0,169,493.6l-3.17.79c-.94,4-10,14.71-10,14.71S163.65,507.77,165.14,506.86Z"/><path class="cls-67" d="M129.91,499.74s25,8.06,67.1-12.67l-1.27,1.07s-34.16,23.61-70.09,15.14Z"/><path class="cls-66" d="M195.88,488.28s9.42,43.19,1.16,66.63l6.57-6.35s7.57-8-6.73-61.5l-1,1Z"/><path class="cls-68" d="M177.94,484.91c-4.66-.36-8.71,4.92-10.9,8.49h0c-5.16-1.19-6.95,1.66-6.95,1.66h0c-3.5-3.15-9.88-8.09-14.42-7-6.58,1.52-3.64,7.83-3.93,11.55s.21,9.12,5.06,7.37,12.87-1.91,14.88-5.41a6.71,6.71,0,0,0,6.88-.67h0c3.66,2.45,10.87,1.63,15.94,2.57,5.42,1,3.71-4.32,1.92-7.88S184.93,485.45,177.94,484.91Z"/><path class="cls-69" d="M160.35,495.19s-2.73,4.41,1.46,6.25"/><path class="cls-69" d="M167.14,493.63s4.61,3.11,1.87,7.08"/><line class="cls-69" x1="159.56" y1="497.28" x2="146.38" y2="493.77"/><path class="cls-69" d="M159.51,499.62s-4.77-.29-8,1.89"/><path class="cls-69" d="M169.13,494.55a4.83,4.83,0,0,1,4.39-3.38"/><path class="cls-69" d="M170.45,497.43s11.71-3.95,14.2-.12"/><path class="cls-70" d="M522.21,1270.44c-4.8-6.62,3.17-11.21,7.54-13.12a7,7,0,0,0,4.19-5.54c.88-7.07-6.55-11.75-11.35-14a7.25,7.25,0,0,0-6.81.41c-14,8.44-40,9.53-48.09,9.67a36.93,36.93,0,0,0-30.53-30.28l-110-17.56a37,37,0,0,0-39.65,21.78c-17.55-.06-39.25-20.86-48.43-30.59a7.53,7.53,0,0,0-12.15,1.68c-2.65,5.39-2.85,12.31-.84,13.86,1.65,1.26,1.16,3.22.28,4.84A7.23,7.23,0,0,1,222,1215c-11.78,3.58-1.78,11.76,5.17,19.7,5.47,6.25-2.34,11.41-6.68,13.64a7,7,0,0,0-3.85,5.83c-.33,7.12,7.69,11.24,12.81,13.14a7.58,7.58,0,0,0,7-.92c12.42-8.54,35.27-11.83,45.72-12.92a37,37,0,0,0,31,34.19l110,17.56a37,37,0,0,0,41.2-26.09c16.61,2.46,35.07,23.76,42.95,33.81a7.21,7.21,0,0,0,11.89-.81c3-5.17,3.73-12.06,1.91-13.74-1.49-1.38-.87-3.3.11-4.85a7.07,7.07,0,0,1,4.42-3C537.34,1287.72,528.31,1278.85,522.21,1270.44Z"/><path class="cls-71" d="M227,1209.81l.53.14s35,5.59,56.34,27"/><path class="cls-71" d="M228.65,1241.07s16-15.47,56.79-3.35"/><path class="cls-71" d="M279.92,1220.64s6.95,22.17,1.31,32.87c8.53-14.73,6.65-31.12,6.65-31.12"/><path class="cls-71" d="M464,1280.33c3.54-7.76,3.56-33.25,3.56-33.25s7.34,20.86,4.32,32.73"/><path class="cls-40" d="M520.09,1266.17s-30.29-15.2-47.91.65c33.22-1,48.06,29.59,48.06,29.59"/><path class="cls-71" d="M227,1209.81l.53.14s35,5.59,56.34,27"/><path class="cls-71" d="M228.65,1241.07s16-15.47,56.79-3.35"/><path class="cls-71" d="M279.92,1220.64s6.95,22.17,1.31,32.87c8.53-14.73,6.65-31.12,6.65-31.12"/><path class="cls-71" d="M464,1280.33c3.54-7.76,3.56-33.25,3.56-33.25s7.34,20.86,4.32,32.73"/><path class="cls-40" d="M520.09,1266.17s-30.29-15.2-47.91.65c33.22-1,48.06,29.59,48.06,29.59"/><path class="cls-27" d="M522.21,1270.44c-4.8-6.62,3.17-11.21,7.54-13.12a7,7,0,0,0,4.19-5.54c.88-7.07-6.55-11.75-11.35-14a7.25,7.25,0,0,0-6.81.41c-14,8.44-40,9.53-48.09,9.67a36.93,36.93,0,0,0-30.53-30.28l-110-17.56a37,37,0,0,0-39.65,21.78c-17.55-.06-39.25-20.86-48.43-30.59a7.53,7.53,0,0,0-12.15,1.68c-2.65,5.39-2.85,12.31-.84,13.86,1.65,1.26,1.16,3.22.28,4.84A7.23,7.23,0,0,1,222,1215c-11.78,3.58-1.78,11.76,5.17,19.7,5.47,6.25-2.34,11.41-6.68,13.64a7,7,0,0,0-3.85,5.83c-.33,7.12,7.69,11.24,12.81,13.14a7.58,7.58,0,0,0,7-.92c12.42-8.54,35.27-11.83,45.72-12.92a37,37,0,0,0,31,34.19l110,17.56a37,37,0,0,0,41.2-26.09c16.61,2.46,35.07,23.76,42.95,33.81a7.21,7.21,0,0,0,11.89-.81c3-5.17,3.73-12.06,1.91-13.74-1.49-1.38-.87-3.3.11-4.85a7.07,7.07,0,0,1,4.42-3C537.34,1287.72,528.31,1278.85,522.21,1270.44Z"/><path class="cls-72" d="M335.14,1205.09s-40.56,1.69-40.8,24.9c-.13,12.43,4.15,15.51,8.15,15.68a8.42,8.42,0,0,0,8-5.41c2.79-6.9,10.14-21.33,22.17-19.44C348.4,1223.29,348.48,1205,335.14,1205.09Z"/><path class="cls-73" d="M-131.6,1380.27c.65,6.82,3.79,16.78,8.8,21.44,10.74,10,36.49,31.36,50.71,56.83,18.34,32.85,151.06,126.6,247,94.06L208,1537.73s18.28-7.56,29.76-2.8,32.74-10,24.34-30.28c0,0-3.36-8.12-15.54-3.08,0,0-3.5-20-20.13-28.54,0,0,1.71-25.53-20.07-37.93,0,0-.05-33.49-18.09-43.77,0,0-6.79-30.7-31.57-38.19,0,0-18.09-43.76-44.62-26.88,0,0-24.83-41-45.79-10.63,0,0-21.39-37-47.76-5.87,0,0-10.32-15.44-35.86-.94-7.29,5.39-12.66,17.06-12.66,17.06s-26.52-2.21-31.15,21.11c0,0-4.55-5.25-18.63,12.46,0,0-3.47.25-13.38,7.91,0,0-10.67,8.77-18.62-5.69C-118.15,1353.41-132.37,1364.28-131.6,1380.27Z"/><path class="cls-35" d="M246.38,1504s-3.1-27.58-24.37-32.21a26,26,0,0,0-12.11.68c-3,.78-11.54,2.07-20.83-10.76"/><path class="cls-35" d="M224.06,1473.11s5.35-23.24-12.42-37.34c-10.32-7.65-13.54-3.94-21.93-4s-17.51-10.63-17.51-10.63"/><path class="cls-35" d="M205.05,1431.35s4.66-51.9-34.48-42.91a23.9,23.9,0,0,1-16.78-.23"/><path class="cls-35" d="M185.9,1388.07s-11.51-53.56-55.42-33.09c-12.21,5-15.44,8.74-15.44,8.74"/><path class="cls-35" d="M154,1351.26s-11-46.63-49.17-23.76c0,0-21.89,16.16-27,12.33"/><path class="cls-35" d="M110.88,1325s-18.9-39.81-46.14-10.73c0,0-14.1,17.71-21.89,16.16"/><path class="cls-35" d="M64.74,1314.25s-7.84-21.76-29.28-18.88C23.85,1299,8,1321,8,1321s-4.76,11.49-19.15,5.52"/><path class="cls-35" d="M17.65,1309.86s-11.91-20.09-39,.62c0,0-11.11,10.53-8.68,25,0,0-.45,13.27-3.68,17"/><path class="cls-35" d="M-81,1364.81s1.86-2.14-3.23-1.22a17,17,0,0,0-9.5,5.47,7.87,7.87,0,0,1-9.42,2.22,11.77,11.77,0,0,1-6.21-6.4c-2-4.79-7.43-12.39-17.81,3.49-13.85,21.18,9.07,39.1,9.07,39.1a90.87,90.87,0,0,1,30.62,27.84C-75,1454-47,1504.28,50.6,1541.41s148.26.1,148.26.1,28.41-11.77,35-7.35c12.92,5.36,25.7-1.11,30.49-20.16-1.87-28.53-28.28-5-28.28-5s-10.7,11.54-31.49-15.59"/><path class="cls-74" d="M50.18,1311.92a7.18,7.18,0,0,0-7.46-9.16c-6.12.42-16,4.3-29.29,19.58C2.17,1336.08,44.88,1329.92,50.18,1311.92Z"/><path class="cls-74" d="M93.68,1317.56a7.17,7.17,0,0,0-7.45-9.16c-6.12.42-16,4.29-29.29,19.58C45.68,1341.72,88.39,1335.56,93.68,1317.56Z"/><path class="cls-74" d="M135.11,1337.92a7.18,7.18,0,0,0-5.73-10.33c-6.1-.66-16.47,1.42-32.27,14.13C83.61,1353.27,126.74,1354.71,135.11,1337.92Z"/><path class="cls-74" d="M3.07,1312.06a5.1,5.1,0,0,0-5.3-6.5c-4.35.3-11.34,3-20.81,13.9C-31,1329.23-.69,1324.85,3.07,1312.06Z"/><path class="cls-73" d="M238,168.16a4.49,4.49,0,0,0,2.26,1.46c1.68.24,5.55.57,8.59,2,3.92,1.92,22.76,2.06,29.74-7.38l2.17-3.61s1.24-1.93,2.64-2.23a2.54,2.54,0,0,0,.32-4.5s-.86-.55-1.69.74a5,5,0,0,0-3.8-1.39,5,5,0,0,0-4.42-2.28s-2.22-3.19-4.62-3c0,0-2.68-2.48-5.53-1.55,0,0-4.62-3-6,.39,0,0-5.07-2.26-5.06,2,0,0-4.49-2.11-4.94,2.6,0,0-2-.79-3.47,2.28a6.07,6.07,0,0,0-.08,2.47s-2.67,1.54-1.57,4.07c0,0-.78-.2-1,2.42a3.94,3.94,0,0,0-.75,1.63s-.44,1.54-2.15.69C237.49,164.71,236.85,166.68,238,168.16Z"/><path class="cls-75" d="M282.16,154.93s-2.12-2.42-4.45-1.45a3,3,0,0,0-1.11.86c-.23.27-1,1-2.69.36"/><path class="cls-75" d="M278,153.47a4.55,4.55,0,0,0-3.65-2.74c-1.49,0-1.55.52-2.36,1.07a3.66,3.66,0,0,1-2.37.14"/><path class="cls-75" d="M273.42,150.75s-3-5.25-6.13-1.81a2.75,2.75,0,0,1-1.61,1.09"/><path class="cls-75" d="M268.73,147.89s-4.64-4.34-7.47.52a5.21,5.21,0,0,0-.89,1.85"/><path class="cls-75" d="M263.25,146.5s-4.13-3.71-6.25,1c0,0-1,3-1.76,3"/><path class="cls-75" d="M257.41,146.85s-4.43-2.54-5.1,2c0,0-.17,2.62-1,3"/><path class="cls-75" d="M252.31,148.88s-2.19-1.55-4,.14c-.86,1.11-.92,4.26-.92,4.26s.31,1.41-1.46,1.79"/><path class="cls-75" d="M247.54,151.58s-2.47-1.13-3.68,2.64a3.54,3.54,0,0,0,.83,3,4.82,4.82,0,0,1,.77,1.86"/><path class="cls-75" d="M244.06,156a3.3,3.3,0,0,0-1.41,4.55s1.7,1.84,1.71,2.76a5.73,5.73,0,0,1-.09,1.31"/><path class="cls-75" d="M242.65,160.57s-1.53-.22-.91,2.59c0,0,1.58,3.9-.14,4.46"/><path class="cls-75" d="M241.77,163.34s0-.33-.38.1a2,2,0,0,0-.55,1.15.91.91,0,0,1-.75.83,1.34,1.34,0,0,1-1-.2c-.51-.32-1.53-.69-1.47,1.51.09,2.94,3.45,3.13,3.45,3.13a10.47,10.47,0,0,1,4.76.62c2.43,1,8.42,3.89,20.17,1s14.13-9.8,14.13-9.8,1.92-3,2.84-3c1.59-.35,2.38-1.81,1.57-3.94-2.06-2.59-3,1.4-3,1.4s-.26,1.8-4,.6"/><path class="cls-74" d="M250.77,149.62a.84.84,0,0,0-1.32-.38c-.55.45-1.23,1.47-1.49,3.8C247.8,155.1,251.46,151.69,250.77,149.62Z"/><path class="cls-74" d="M255.28,147.28a.83.83,0,0,0-1.31-.38c-.56.45-1.24,1.47-1.49,3.8C252.31,152.76,256,149.34,255.28,147.28Z"/><path class="cls-74" d="M260.58,146.48a.84.84,0,0,0-1.23-.61c-.63.34-1.48,1.23-2.14,3.48C256.69,151.35,260.89,148.63,260.58,146.48Z"/><path class="cls-74" d="M246.29,152.75a.59.59,0,0,0-.93-.27,3.83,3.83,0,0,0-1.06,2.7C244.18,156.64,246.78,154.22,246.29,152.75Z"/><path class="cls-74" d="M243.87,157.76a.41.41,0,0,0-.67,0,2.65,2.65,0,0,0-.26,2C243.1,160.69,244.43,158.65,243.87,157.76Z"/><polygon class="cls-76" points="141.77 675.37 88.23 663.94 65.44 683.29 95.95 758.88 154.67 702.35 141.77 675.37"/><polyline class="cls-76" points="106.18 667.25 91.16 691.52 95.66 757.79 126.85 699.14 124.03 671.07"/><polygon class="cls-77" points="67.33 684.53 87.07 691.1 75.51 679.23 67.33 684.53"/><polygon class="cls-77" points="93.65 692.63 125.1 699.35 97.34 686.37 93.65 692.63"/><polygon class="cls-77" points="129.59 700.31 152.54 702.86 128.79 693.09 129.59 700.31"/><polygon class="cls-78" points="89.49 701.14 92.57 741.72 76.49 696.01 89.49 701.14"/><polygon class="cls-78" points="123.18 708.33 103.8 744.12 137.14 708.97 123.18 708.33"/><polygon class="cls-79" points="141.77 675.37 88.23 663.94 65.44 683.29 95.95 758.88 154.67 702.35 141.77 675.37"/><path class="cls-80" d="M431.08,934.2s15.62-64.79-137.17-43.44c0,0-107.37,14.75-126.74,42.17l-32.15-17S253.33,852,389.09,869.33C389.09,869.33,467.65,883.2,431.08,934.2Z"/><path class="cls-81" d="M78.14,939.31a55.74,55.74,0,1,0,100.73,12.08L185,941.28a11.53,11.53,0,0,0-3.87-15.83L140.94,901a11.52,11.52,0,0,0-15.83,3.87l-4.81,7.92A55.58,55.58,0,0,0,78.14,939.31Zm56.93-23.19c2.29-3.76,12.06-2,21.83,3.94s15.85,13.79,13.57,17.55-12.06,2-21.83-3.94S132.79,919.88,135.07,916.12Z"/><path class="cls-37" d="M87.1,945.83a46,46,0,1,0,84.05,19.6"/><path class="cls-82" d="M101.55,972.43q.47.35,2.07,1.89a11.19,11.19,0,0,0,1.19,1.09q2.89,2.13,6.69-2.11,2.15-2.41,11.06-14.53a4.31,4.31,0,0,0,1.13-3.1,4.9,4.9,0,0,0-2.2-2.72,13.87,13.87,0,0,0-1.44-.9c-.48-.29-.9-.56-1.24-.81a3.42,3.42,0,0,1-1.41-2,2.58,2.58,0,0,1,.5-2.17,3.79,3.79,0,0,1,2.68-1.36A11.81,11.81,0,0,1,125,946a64.7,64.7,0,0,1,23.5,11,12.27,12.27,0,0,1,3.79,3.87,2.9,2.9,0,0,1-.29,3.22,2.47,2.47,0,0,1-1.46,1,6.65,6.65,0,0,1-2.56-.23c-1.86-.42-3.21-.26-4.07.47s-3.55,4.07-8.09,10c-4.29,6.21-6.58,9.55-6.88,10a17.24,17.24,0,0,0-1,2,4.59,4.59,0,0,0-.3,3.61,11.13,11.13,0,0,0,3.35,3.72q3.1,2.49,1.27,5t-7,.07a90.61,90.61,0,0,1-13.76-8.39,78,78,0,0,1-7.86-6.57,47.17,47.17,0,0,1-6.34-7.23c-1.28-1.92-1.45-3.51-.51-4.79a2.83,2.83,0,0,1,2.15-1.14A4.05,4.05,0,0,1,101.55,972.43Z"/><path class="cls-83" d="M135,915.91s235.31,138.29,295.83,18.6A110.69,110.69,0,0,0,437,919.73a26.86,26.86,0,0,0,1.11-4.41c4.76-31.05-49-46-49-46s75.43,8.18,75.78,69c.2,35-22.7,66.2-56,77-81.61,26.53-217.08-40.4-240.8-76.13Z"/></g><g class="cls-2"><path class="cls-3" d="M1378.37,1238.54h0s-23.65,19.08,34.78,70.42a108.06,108.06,0,0,0,15.91,11.57c26.6,15.89,27.92,18.61,37.35,33.84,4.46,6.48,18.52,11.42,23.91-6.89s3.46-72.58,3.46-72.58l-67.17-38.07-24.23-2.16Z"/><path class="cls-3" d="M1469.26,1038.8s27.9-76.8,133.4,20.29c40.59,37.81,46.83,43.63,91.13,66.81s74.8,83.09,19.47,123.09Z"/><ellipse class="cls-84" cx="1513.38" cy="1019.09" rx="15.52" ry="39.81" transform="translate(203.87 2289.54) rotate(-78.09)"/><path class="cls-71" d="M1488.18,1012.27s29.63-5.93,41.55,8.79c4.22,7.2-7.71,7.12-15.92,6.31a39,39,0,0,1-13.49-3.85c-4.88-2.62-8-9.24,5.33-5.29"/><ellipse class="cls-85" cx="1562.06" cy="1035.17" rx="10.61" ry="27.23" transform="translate(-236.79 1560.28) rotate(-49.81)"/><path class="cls-71" d="M1549.09,1022.9s19.77,6,22.19,18.76c.2,5.71-7,1.79-11.64-1.36a26.53,26.53,0,0,1-6.88-6.69c-2.09-3.16-1.84-8.17,4.92-1.46"/><ellipse class="cls-86" cx="1589.42" cy="1064.86" rx="13.59" ry="34.86" transform="translate(-194.52 1756.05) rotate(-55)"/><path class="cls-71" d="M1571.46,1050.72s25.9,5.39,30.45,21.34c.93,7.26-8.66,3.1-15-.38a33.83,33.83,0,0,1-9.54-7.74c-3-3.78-3.29-10.2,6.1-2.42"/><ellipse class="cls-87" cx="1600.62" cy="1089.73" rx="10.53" ry="27.01" transform="translate(-140.61 1936.86) rotate(-60.19)"/><path class="cls-71" d="M1585.77,1080.07s20.37,2.35,25,14.34c1.22,5.54-6.47,3-11.6.76a26.28,26.28,0,0,1-7.91-5.3c-2.61-2.71-3.25-7.64,4.54-2.3"/><ellipse class="cls-84" cx="1642.54" cy="1099.87" rx="12.91" ry="33.11" transform="translate(-251.52 1665.72) rotate(-50.44)"/><path class="cls-71" d="M1626.61,1085.12s24.12,7.06,27.22,22.51c.33,6.94-8.43,2.28-14.16-1.49a32.21,32.21,0,0,1-8.45-8.05c-2.59-3.81-2.35-9.9,6-1.84"/><ellipse class="cls-88" cx="1679.24" cy="1129.97" rx="12.91" ry="33.11" transform="translate(17.55 2285.59) rotate(-68.75)"/><path class="cls-71" d="M1659.48,1121s25.11-.87,32.91,12.82c2.49,6.48-7.29,4.81-13.92,3a32.36,32.36,0,0,1-10.55-5c-3.65-2.81-5.33-8.67,5.09-3.62"/><ellipse class="cls-84" cx="1717.72" cy="1159.39" rx="12.91" ry="33.11" transform="translate(-297.21 1643.97) rotate(-47.54)"/><path class="cls-71" d="M1702.55,1143.86s23.73,8.27,26,23.86c0,6.94-8.54,1.84-14.07-2.21a32,32,0,0,1-8-8.47c-2.4-3.94-1.85-10,6-1.53"/><ellipse class="cls-86" cx="1727.93" cy="1192.2" rx="10.7" ry="27.45" transform="translate(-318.1 1662.16) rotate(-47.54)"/><path class="cls-71" d="M1715.35,1179.32s19.68,6.86,21.6,19.78c0,5.76-7.08,1.53-11.67-1.83a26.8,26.8,0,0,1-6.66-7c-2-3.26-1.53-8.3,5-1.27"/><ellipse class="cls-89" cx="1630.67" cy="1117.82" rx="10.55" ry="27.06" transform="translate(-97.07 2078.81) rotate(-63.51)"/><path class="cls-71" d="M1615.26,1109s20.51,1.17,25.83,12.89c1.54,5.46-6.29,3.37-11.55,1.43a26.53,26.53,0,0,1-8.22-4.84c-2.76-2.56-3.69-7.45,4.41-2.57"/><path class="cls-18" d="M1493.19,1337.16c-.63-15.79-6.87-44.13-42.54-50.49-17.26-3.08-28.69-9.09-33-17.37a17.94,17.94,0,0,1-.82-14.7,1.11,1.11,0,0,0,.07-.16,11.24,11.24,0,0,0-1.52-9.82c-3.57-5.15-11.39-8.08-23.27-8.73l97.21-37.76a2.5,2.5,0,0,0,1.44-1.46l.16-.42a2.54,2.54,0,0,0,.13-1.19l-19.57-149.5a18.33,18.33,0,0,1,13.7-20.16,96.77,96.77,0,0,1,23.58-3.06c28.08,0,49.47,13.64,63.59,40.52,29.3,55.82,75.79,70.49,94.42,74.2a52.9,52.9,0,0,1,13.34,4.61c16.37,8.22,54.46,29.82,54.62,52.63a1.75,1.75,0,0,0,0,.4c0,.3,4.79,30-8.12,45.25-5,5.92-12.2,8.92-21.34,8.92h0a49.24,49.24,0,0,1-5-.28c-34.85-3.68-101.71-6.14-138.46-7.28l-.77,0a24.71,24.71,0,0,0-21.6,12.72Z"/><path class="cls-3" d="M1508.73,1024.85c27.08,0,47.73,13.18,61.37,39.17,29.81,56.78,77.17,71.71,96.15,75.49a50.55,50.55,0,0,1,12.71,4.39c12.45,6.26,53.09,28.39,53.24,50.42a5,5,0,0,0,.07.78c0,.29,4.59,28.91-7.57,43.24-4.58,5.4-10.94,8-19.43,8a44,44,0,0,1-4.77-.27c-34.94-3.69-101.87-6.15-138.65-7.29l-.85,0a27.24,27.24,0,0,0-23.78,14l-42.23,76a64,64,0,0,0-1.93-8.69c-4.08-13.68-14.67-31-42-35.88-16.37-2.92-27.15-8.43-31.18-15.93a15.41,15.41,0,0,1-.83-12.64c.06-.14.08-.19.13-.33a13.61,13.61,0,0,0-1.81-12.12c-2.86-4.12-8-7-15.23-8.53l88-34.2a5,5,0,0,0,2.87-2.92l.16-.41a5,5,0,0,0,.27-2.4l-19.57-149.49a15.83,15.83,0,0,1,11.83-17.42,94.19,94.19,0,0,1,23-3m0-5a99.57,99.57,0,0,0-24.19,3.12,20.84,20.84,0,0,0-15.57,22.92l19.57,149.49-.15.42-110,42.74c3.05-.19,5.85-.28,8.42-.28,33.45,0,27.74,15.3,27.74,15.3s-12.33,27,35.68,35.57,40.11,58.35,40.11,58.35l51.27-92.26a22.2,22.2,0,0,1,19.41-11.43h.69c33.09,1,102.81,3.53,138.28,7.28a52.05,52.05,0,0,0,5.3.29c41.44,0,31.93-57.08,31.93-57.08-.17-24.11-38.71-46.17-56-54.86a55.18,55.18,0,0,0-14-4.82c-16.29-3.25-63.46-17.22-92.7-72.91-17.5-33.34-43.64-41.85-65.8-41.85Z"/><path class="cls-90" d="M1665.19,1136.58s-76.76,10.74-130.83,71.45"/><path class="cls-90" d="M1422.53,1275s41.23-12.33,95.15-75.23c50.44-58.83,40.33-156.61,40.33-156.61"/><g class="cls-91"><path class="cls-92" d="M1488,1196.61s54.28-1.93,58.45,47.44"/></g><path class="cls-3" d="M1508.73,1024.85c27.08,0,47.73,13.18,61.37,39.17,29.81,56.78,77.17,71.71,96.15,75.49a50.55,50.55,0,0,1,12.71,4.39c12.45,6.26,53.09,28.39,53.24,50.42a5,5,0,0,0,.07.78c0,.29,4.59,28.91-7.57,43.24-4.58,5.4-10.94,8-19.43,8a44,44,0,0,1-4.77-.27c-34.94-3.69-101.87-6.15-138.65-7.29l-.85,0a27.24,27.24,0,0,0-23.78,14l-42.23,76a64,64,0,0,0-1.93-8.69c-4.08-13.68-14.67-31-42-35.88-16.37-2.92-27.15-8.43-31.18-15.93a15.41,15.41,0,0,1-.83-12.64c.06-.14.08-.19.13-.33a13.61,13.61,0,0,0-1.81-12.12c-2.86-4.12-8-7-15.23-8.53l88-34.2a5,5,0,0,0,2.87-2.92l.16-.41a5,5,0,0,0,.27-2.4l-19.57-149.49a15.83,15.83,0,0,1,11.83-17.42,94.19,94.19,0,0,1,23-3m0-5a99.57,99.57,0,0,0-24.19,3.12,20.84,20.84,0,0,0-15.57,22.92l19.57,149.49-.15.42-110,42.74c3.05-.19,5.85-.28,8.42-.28,33.45,0,27.74,15.3,27.74,15.3s-12.33,27,35.68,35.57,40.11,58.35,40.11,58.35l51.27-92.26a22.2,22.2,0,0,1,19.41-11.43h.69c33.09,1,102.81,3.53,138.28,7.28a52.05,52.05,0,0,0,5.3.29c41.44,0,31.93-57.08,31.93-57.08-.17-24.11-38.71-46.17-56-54.86a55.18,55.18,0,0,0-14-4.82c-16.29-3.25-63.46-17.22-92.7-72.91-17.5-33.34-43.64-41.85-65.8-41.85Z"/><path class="cls-90" d="M1490.29,1196.62s43.37-5.86,78.36,44.22"/><path class="cls-22" d="M1491.11,1046.75l7.65,116.08a18.37,18.37,0,0,0,2.45,8.17c2.66,4.52,7,7.18,9.4-17.46,3-31.93-7-90.88-9.85-106.33a15.69,15.69,0,0,0-4.64-8.74C1493.39,1035.92,1490.37,1035.39,1491.11,1046.75Z"/><path class="cls-22" d="M1652.42,1155.13l-90,48.82a18.75,18.75,0,0,1-8.05,2.12c-5.63.25-11.47-1.55,4.09-14.67,20.15-17,71.44-37.48,85-42.74a20.06,20.06,0,0,1,10.42-.86C1658.14,1148.51,1661.23,1150.36,1652.42,1155.13Z"/><path class="cls-22" d="M1525.06,1233.87l-41.18,53a12.16,12.16,0,0,1-4.28,3.39c-3.3,1.63-7.28,2.09-1.4-9.87,7.63-15.49,33-41.27,39.78-48a13.12,13.12,0,0,1,6-3.25C1526.75,1228.39,1529.09,1228.69,1525.06,1233.87Z"/><path class="cls-22" d="M1479.22,1215l-48.93,25.37a9.94,9.94,0,0,1-4.36,1.06c-3,.08-6.15-.94,2.35-7.84,11-9,38.81-19.46,46.18-22.16a10.8,10.8,0,0,1,5.61-.36C1482.36,1211.45,1484,1212.48,1479.22,1215Z"/><polygon class="cls-93" points="1708.85 1422.09 1645.39 1376.18 1571.6 1402.43 1595.65 1327.89 1547.89 1265.83 1626.21 1265.67 1670.48 1201.06 1694.83 1275.5 1769.96 1297.64 1706.69 1343.8 1708.85 1422.09"/><ellipse class="cls-94" cx="1654.43" cy="1246.88" rx="29.09" ry="5.82" transform="translate(-220.53 2127.99) rotate(-62.17)"/><ellipse class="cls-94" cx="1595.12" cy="1279.49" rx="5.82" ry="29.09" transform="translate(204.03 2778.29) rotate(-85.87)"/><polygon class="cls-95" points="2017.18 1089.05 1939.29 1080.84 1888.37 1140.34 1872.11 1063.73 1799.78 1033.69 1867.62 994.55 1873.84 916.48 1932.03 968.9 2008.2 950.69 1976.32 1022.23 2017.18 1089.05"/><ellipse class="cls-96" cx="1882.74" cy="964.2" rx="5.82" ry="29.09" transform="matrix(1, -0.04, 0.04, 1, -33.13, 67.63)"/><ellipse class="cls-96" cx="1847.55" cy="1022.02" rx="29.09" ry="5.82" transform="translate(-260.51 903.57) rotate(-25.73)"/><ellipse class="cls-97" cx="1960.88" cy="1435.02" rx="88.69" ry="32.92" transform="translate(-443.49 1083.82) rotate(-27.89)"/><ellipse class="cls-27" cx="1958.71" cy="1432.57" rx="70.1" ry="26.01" transform="translate(-442.6 1082.51) rotate(-27.89)"/><path class="cls-98" d="M1903.07,1311.84s26,62.65,87.09,93.23a12.25,12.25,0,0,1,3.63,19.2c-11.17,12.29-31.91,29.26-63.32,32.86a12.23,12.23,0,0,1-13.7-12.58c.9-21.78-1.34-68.44-28.59-124.82"/><path class="cls-97" d="M1964,1086c-23.63-1-37.44,24.51-42.2,35.32q-5.34-12.55-11.93-25.06-4.9-9.26-10.24-18c-17.69,24-50.36,50.62-91.34,72.31s-81.4,33.71-111.17,34.86q4.2,9.3,9.09,18.56,6.43,12.16,13.63,23.36c-12.28-2.1-39.75-4.25-51.8,15.24-14.44,23.34,66.21,72.9,105.72,48.19,43,37.34,89.13,49.54,124.92,30.6s50.22-64.35,43.52-120.94C1985.55,1182.45,1991.58,1087.16,1964,1086ZM1734.78,1267c-1.62,4.41-12.58,4.42-24.47,0s-20.23-11.5-18.61-15.9,12.58-4.42,24.47,0S1736.4,1262.63,1734.78,1267Zm225.68-132.33c-3.07,12.29-9.25,21.34-13.8,20.21s-5.74-12-2.67-24.33,9.24-21.34,13.79-20.21S1963.53,1122.4,1960.46,1134.7Z"/><ellipse class="cls-98" cx="1798.34" cy="1131.8" rx="114.68" ry="33.98" transform="translate(-320.54 972.58) rotate(-27.89)"/><path class="cls-82" d="M1838.79,1263.27c.41-.2,1.41-.57,3-1.11a12.42,12.42,0,0,0,1.73-.64q3.67-1.82,1.36-7.9-1.32-3.43-9-18.84c-.77-1.55-1.62-2.48-2.56-2.77s-2.24,0-3.91.81a17.48,17.48,0,0,0-1.66,1c-.55.34-1,.62-1.47.83a3.83,3.83,0,0,1-2.78.38,3,3,0,0,1-2-1.65,4.36,4.36,0,0,1,0-3.43,13.72,13.72,0,0,1,2.66-4.31,73.67,73.67,0,0,1,23.47-18.1,14.18,14.18,0,0,1,5.92-1.83,3.32,3.32,0,0,1,3.11,2,2.82,2.82,0,0,1,.3,2,7.49,7.49,0,0,1-1.57,2.48q-2.1,2.5-1.66,4.38t5.92,13.45q6.09,11.42,6.54,12.22a18.68,18.68,0,0,0,1.48,2.12,5.25,5.25,0,0,0,3.52,2.2,12.92,12.92,0,0,0,5.53-1.45c2.77-1.23,4.67-.79,5.72,1.31s-.12,4.59-3.61,7.18a104.31,104.31,0,0,1-15.74,9.58,89.45,89.45,0,0,1-10.79,4.54,54.75,54.75,0,0,1-10.65,2.64q-3.93.44-5.13-2a3.25,3.25,0,0,1,0-2.78A4.62,4.62,0,0,1,1838.79,1263.27Z"/><path class="cls-27" d="M1717.36,1227.51s129.26,13.65,203.41-106.4"/><path class="cls-27" d="M1773.75,1290.78s102.34,9.51,168.68-89.87"/><path class="cls-99" d="M1681.83,1243.83a5.49,5.49,0,0,1,1.81,4.2c-.05,3.25.69,10.58,8,13.3,3.42,1.05,3.77,16.11-12,.66C1671.33,1254.43,1676.43,1239.05,1681.83,1243.83Z"/><path class="cls-100" d="M1777.32,1260.83c19.4,12.3,64.51,38.54,86.91,32,21.15-3,21.77,31.42-18.12,24.18-29.83-5.41-58.65-37.51-71.3-53.37A1.91,1.91,0,0,1,1777.32,1260.83Z"/><path class="cls-101" d="M1627.87,819.92c1-3.78,5.16-2.26,7.21-1.24a3.46,3.46,0,0,0,3.36-.15c2.91-1.84,2.38-6,1.75-8.45a3.45,3.45,0,0,0-2.25-2.37c-7.48-2.58-15.86-11.75-18.4-14.69a18.13,18.13,0,0,0,1.71-2.31,17.46,17.46,0,0,0,.21-18.14l-27.28-45.72a18,18,0,0,0-20.34-7.9c-5.37-6.45-4.27-20.76-3.46-27.11a3.61,3.61,0,0,0-4.37-3.94c-2.83.68-5.47,2.72-5.43,3.93,0,1-.85,1.41-1.73,1.58a3.51,3.51,0,0,1-2.57-.55c-5-3.22-4.94,2.94-5.77,7.92-.66,3.91-5,2.62-7.15,1.71a3.44,3.44,0,0,0-3.37.37c-2.76,2.06-1.83,6.26-1,8.71a3.64,3.64,0,0,0,2.48,2.27c7,1.95,15.27,9.33,18.89,12.82a17.54,17.54,0,0,0-3.24,21.82l27.28,45.72a18,18,0,0,0,22.42,7.15c4.19,6.84,1.91,20.12.58,26.08a3.43,3.43,0,0,0,4,4.11c2.86-.48,5.66-2.31,5.73-3.49.05-1,1-1.33,1.84-1.44a3.41,3.41,0,0,1,2.5.69C1626.06,830.75,1626.6,824.73,1627.87,819.92Z"/><path class="cls-102" d="M1559.73,693.12l.11.24s8.69,14.56,7.26,28.9"/><path class="cls-102" d="M1548.56,703.27s10.71,1.16,18.71,19.81"/><path class="cls-102" d="M1572,715.84s-6.15,9.32-11.88,10.52a27.45,27.45,0,0,0,13.67-7.07"/><path class="cls-102" d="M1606.26,801.59c4-1.07,13.52-8.85,13.52-8.85s-5.54,9.06-10.9,11.58"/><path class="cls-103" d="M1628.81,817.84s-3.64-15.76-15-17.38c10.59,11.88,3.72,26.67,3.72,26.67"/><g class="cls-104"><path class="cls-105" d="M1590.19,695.58s9.56,55.78-81.29,103.32"/><path class="cls-106" d="M1601.06,712.34s7.76,56.06-84.57,100.74"/><path class="cls-105" d="M1616.23,735.55s7.14,56.14-85.66,99.84"/><path class="cls-106" d="M1626.37,752.76s5.33,56.35-88.83,97.12"/></g><path class="cls-41" d="M1595.1,736.31s-10.63-17-20.82-11.45c-5.45,3-5.75,5.56-4.85,7.31a4.22,4.22,0,0,0,4.32,2.13c3.69-.48,11.78-.84,13.89,4.78C1590.4,746.43,1598.39,742,1595.1,736.31Z"/><path class="cls-107" d="M1864.06,392.57c.4-2.7,3.36-2.9,4.84-2.83a3,3,0,0,0,2.28-1c1.85-2,1.18-4.5.57-5.89a1.62,1.62,0,0,0-1.71-.88c-5.3.47-11.7-3-13.66-4.19a16.46,16.46,0,0,0,1-2c1.88-4.38,1.57-8.92-1.2-11.63l-22-21.5c-3.39-3.31-9.42-2.87-14.47.69-4.15-2.61-4.46-12-4.38-16.33,0-1.65-1.67-2.32-3.27-1.28-1.88,1.22-3.54,3.27-3.42,4s-.47,1.14-1.06,1.5a2.62,2.62,0,0,1-1.8.38c-3.62-.66-3.15,3.27-3.35,6.68-.15,2.68-3.21,3.08-4.75,3.11a3.15,3.15,0,0,0-2.27,1.18c-1.73,2.09-.79,4.51,0,5.84a1.76,1.76,0,0,0,1.86.75c4.93-.74,11.12,1.64,13.85,2.86-3.67,5.21-4.06,11.45-.6,14.84l22,21.5c3.7,3.61,10.55,2.75,15.84-1.76,3.37,3.18,2.8,12.3,2.33,16.48-.19,1.66,1.38,2.46,3,1.51,1.91-1.11,3.68-3.07,3.64-3.84s.56-1.12,1.16-1.44a2.38,2.38,0,0,1,1.75-.27C1863.63,400,1863.56,396,1864.06,392.57Z"/><path class="cls-108" d="M1808.14,330.83l.09.12s7,6.85,7.1,16.4"/><path class="cls-108" d="M1801.26,340.46s7.4-2.28,14.25,7.37"/><path class="cls-108" d="M1818.17,341.88s-3.5,7.69-7.33,10.07a29.33,29.33,0,0,0,8.81-8.37"/><path class="cls-108" d="M1848,387c2.65-1.8,8.58-9.46,8.58-9.46s-3.11,7.35-6.59,10.47"/><path class="cls-109" d="M1864.55,391s-3.65-9-11.51-6.87c8.11,4.6,4.52,16,4.52,16"/><path class="cls-50" d="M1864.06,392.57c.4-2.7,3.36-2.9,4.84-2.83a3,3,0,0,0,2.28-1c1.85-2,1.18-4.5.57-5.89a1.62,1.62,0,0,0-1.71-.88c-5.3.47-11.7-3-13.66-4.19a16.46,16.46,0,0,0,1-2c1.88-4.38,1.57-8.92-1.2-11.63l-22-21.5c-3.39-3.31-9.42-2.87-14.47.69-4.15-2.61-4.46-12-4.38-16.33,0-1.65-1.67-2.32-3.27-1.28-1.88,1.22-3.54,3.27-3.42,4s-.47,1.14-1.06,1.5a2.62,2.62,0,0,1-1.8.38c-3.62-.66-3.15,3.27-3.35,6.68-.15,2.68-3.21,3.08-4.75,3.11a3.15,3.15,0,0,0-2.27,1.18c-1.73,2.09-.79,4.51,0,5.84a1.76,1.76,0,0,0,1.86.75c4.93-.74,11.12,1.64,13.85,2.86-3.67,5.21-4.06,11.45-.6,14.84l22,21.5c3.7,3.61,10.55,2.75,15.84-1.76,3.37,3.18,2.8,12.3,2.33,16.48-.19,1.66,1.38,2.46,3,1.51,1.91-1.11,3.68-3.07,3.64-3.84s.56-1.12,1.16-1.44a2.38,2.38,0,0,1,1.75-.27C1863.63,400,1863.56,396,1864.06,392.57Z"/><path class="cls-110" d="M1864.06,392.57c.4-2.7,3.36-2.9,4.84-2.83a3,3,0,0,0,2.28-1c1.85-2,1.18-4.5.57-5.89a1.62,1.62,0,0,0-1.71-.88c-5.3.47-11.7-3-13.66-4.19a16.46,16.46,0,0,0,1-2c1.88-4.38,1.57-8.92-1.2-11.63l-22-21.5c-3.39-3.31-9.42-2.87-14.47.69-4.15-2.61-4.46-12-4.38-16.33,0-1.65-1.67-2.32-3.27-1.28-1.88,1.22-3.54,3.27-3.42,4s-.47,1.14-1.06,1.5a2.62,2.62,0,0,1-1.8.38c-3.62-.66-3.15,3.27-3.35,6.68-.15,2.68-3.21,3.08-4.75,3.11a3.15,3.15,0,0,0-2.27,1.18c-1.73,2.09-.79,4.51,0,5.84a1.76,1.76,0,0,0,1.86.75c4.93-.74,11.12,1.64,13.85,2.86-3.67,5.21-4.06,11.45-.6,14.84l22,21.5c3.7,3.61,10.55,2.75,15.84-1.76,3.37,3.18,2.8,12.3,2.33,16.48-.19,1.66,1.38,2.46,3,1.51,1.91-1.11,3.68-3.07,3.64-3.84s.56-1.12,1.16-1.44a2.38,2.38,0,0,1,1.75-.27C1863.63,400,1863.56,396,1864.06,392.57Z"/><path class="cls-108" d="M1808.14,330.83l.09.12s7,6.85,7.1,16.4"/><path class="cls-108" d="M1801.26,340.46s7.4-2.28,14.25,7.37"/><path class="cls-108" d="M1818.17,341.88s-3.5,7.69-7.33,10.07a29.33,29.33,0,0,0,8.81-8.37"/><path class="cls-108" d="M1848,387c2.65-1.8,8.58-9.46,8.58-9.46s-3.11,7.35-6.59,10.47"/><path class="cls-109" d="M1864.55,391s-3.65-9-11.51-6.87c8.11,4.6,4.52,16,4.52,16"/><path class="cls-52" d="M1840.31,351.87s-9.53-12.11-16.73-7c-3.85,2.72-3.85,4.72-3,6a3.19,3.19,0,0,0,3.44,1.27c2.75-.68,8.82-1.62,10.91,2.5C1837.66,360,1843.3,356,1840.31,351.87Z"/><path class="cls-111" d="M1730,1307.7l-24.71,170.16a33.33,33.33,0,0,0,12.52,32.27c20.22,15.57,60.5,37.46,123.48,32.88a38.11,38.11,0,0,0,31.87-22.3l70-154.27S1846.07,1407.22,1730,1307.7Z"/><path class="cls-112" d="M1728.45,1303.06s98.1,108.63,213.15,58.73l36.42-9.66s-136.07-6.54-199-59.05Z"/><path class="cls-59" d="M1973.34,1356.3l-65.56,150.39a47.19,47.19,0,0,1-31,26.73c-14.84,4-32.68,8.45-38.16,8.4-9.92-.1,100.59-176.47,100.59-176.47Z"/><path class="cls-113" d="M1728.45,1303.06l-12.3,19.12s74.56,102.15,222.88,64.23l2.57-24.62S1813.15,1393.93,1728.45,1303.06Z"/><path class="cls-55" d="M1873,1335.71s-4.76,20.47-28.76,29.06c0,0-30,125.55-59.75,170.61,0,0-19.81-4.29-34.57-10.46,0,0,52.59-62.76,66.85-167.58,0,0,38.77-15,46.88-24.07Z"/><path class="cls-114" d="M1844.22,1364.77c24-8.59,28.76-29.06,28.76-29.06l-9.35-2.44c-8.11,9-46.88,24.07-46.88,24.07S1839.05,1365,1844.22,1364.77Z"/><path class="cls-55" d="M1762.68,1296.31s53.59,56.39,192.49,62.19l-4.83,1s-122.32,13-203.77-60Z"/><path class="cls-58" d="M1950.52,1360s-36.74,125.71-91.47,175l26.1-7.21s31-10.07,69.71-169.51l-4.09,1.08Z"/><path class="cls-60" d="M1908.63,1325.82c-11.61-7.53-29.63.46-40.38,6.64h0c-11.73-10.41-20.45-5.54-20.45-5.54h0c-4.64-13.16-14.21-35.05-27.53-38.75-19.26-5.34-20.56,15.23-26.58,24.49s-12.4,24,2.7,26.34,36.18,13.29,46.37,7c7,10.08,18.84,8,18.84,8h0c6.05,11.55,26,19.65,37.84,29.28,12.67,10.28,15.76-6,16.16-17.76S1926.06,1337.15,1908.63,1325.82Z"/><path class="cls-61" d="M1848.3,1327.64s-13.34,7.58-5,18.31"/><path class="cls-61" d="M1868.19,1333.19s7.58,14.64-5.18,21.09"/><line class="cls-61" x1="1843.29" y1="1331.96" x2="1813.98" y2="1304.12"/><path class="cls-61" d="M1839.83,1338s-12-7.53-23.54-6.49"/><path class="cls-61" d="M1872.07,1338.41s6.08-6.76,16.18-2.57"/><path class="cls-61" d="M1871.4,1347.78s36.06,6.32,37.1,19.82"/><path class="cls-73" d="M1742.53,864.58c1.61,1.9,4.62,4.23,7.08,4.58,5.29.75,17.42,1.79,27,6.45,12.3,6,71.41,6.46,93.31-23.18l6.8-11.31s3.89-6,8.31-7,7.71-9.78,1-14.1c0,0-2.69-1.73-5.29,2.3,0,0-5.19-5.23-11.93-4.34,0,0-4.79-8-13.87-7.17,0,0-7-10-14.49-9.32,0,0-8.4-7.76-17.36-4.85,0,0-14.49-9.32-18.91,1.23,0,0-15.92-7.09-15.89,6.33,0,0-14.06-6.61-15.48,8.16,0,0-6.29-2.47-10.91,7.16-1.06,3.13-.24,7.73-.24,7.73s-8.38,4.84-4.93,12.77c0,0-2.45-.62-3,7.59,0,0-1,.79-2.36,5.14,0,0-1.37,4.83-6.74,2.16C1741,853.76,1739,860,1742.53,864.58Z"/><path class="cls-115" d="M1881.14,823.08s-6.65-7.59-14-4.56a9.37,9.37,0,0,0-3.47,2.72c-.72.84-3,3-8.46,1.11"/><path class="cls-115" d="M1868.05,818.48s-3.22-8.05-11.46-8.58c-4.67-.14-4.86,1.64-7.39,3.35s-7.44.46-7.44.46"/><path class="cls-115" d="M1853.71,810s-9.38-16.47-19.21-5.66a8.74,8.74,0,0,1-5.06,3.42"/><path class="cls-115" d="M1839,801s-14.56-13.61-23.42,1.62c-2.61,4-2.8,5.82-2.8,5.82"/><path class="cls-115" d="M1821.82,796.64s-13-11.65-19.63,3.1c0,0-3.18,9.37-5.51,9.3"/><path class="cls-115" d="M1803.49,797.73s-13.91-8-16,6.37c0,0-.53,8.21-3.18,9.37"/><path class="cls-115" d="M1787.48,804.1s-6.86-4.87-12.66.44c-2.72,3.48-2.9,13.35-2.9,13.35s1,4.42-4.57,5.63"/><path class="cls-115" d="M1772.5,812.56s-7.72-3.53-11.53,8.29c0,0-1.14,5.46,2.59,9.27,0,0,2.62,4.06,2.43,5.84"/><path class="cls-115" d="M1761.61,826.5s-8.93,4.25-4.43,14.27c0,0,5.31,5.78,5.36,8.67a17.3,17.3,0,0,1-.27,4.11"/><path class="cls-115" d="M1757.18,840.77s-4.79-.7-2.87,8.14c0,0,5,12.23-.44,14"/><path class="cls-115" d="M1754.43,849.47s.11-1-1.22.3a6.19,6.19,0,0,0-1.7,3.61,2.89,2.89,0,0,1-2.36,2.62,4.27,4.27,0,0,1-3.18-.63c-1.6-1-4.79-2.16-4.6,4.74.26,9.2,10.83,9.8,10.83,9.8a33.14,33.14,0,0,1,14.93,2c7.6,3,26.42,12.19,63.28,3s44.31-30.74,44.31-30.74,6-9.42,8.94-9.47c5-1.08,7.45-5.66,4.92-12.35-6.48-8.13-9.49,4.38-9.49,4.38s-.79,5.67-12.64,1.88"/><path class="cls-74" d="M1782.65,806.43a2.61,2.61,0,0,0-4.13-1.19c-1.74,1.39-3.88,4.59-4.68,11.93C1773.32,823.61,1784.8,812.9,1782.65,806.43Z"/><path class="cls-74" d="M1796.82,799.08a2.61,2.61,0,0,0-4.13-1.19c-1.74,1.4-3.88,4.6-4.69,11.93C1787.49,816.26,1799,805.55,1796.82,799.08Z"/><path class="cls-74" d="M1813.42,796.56a2.62,2.62,0,0,0-3.86-1.9c-2,1.07-4.62,3.85-6.71,10.92C1801.22,811.84,1814.4,803.31,1813.42,796.56Z"/><path class="cls-74" d="M1768.6,816.25a1.85,1.85,0,0,0-2.93-.85c-1.23,1-2.75,3.27-3.33,8.48C1762,828.45,1770.14,820.85,1768.6,816.25Z"/><path class="cls-74" d="M1761,831.94a1.27,1.27,0,0,0-2.09-.08c-.66.87-1.3,2.63-.83,6.19C1758.59,841.15,1762.77,834.75,1761,831.94Z"/><polygon class="cls-116" points="1524.9 1272.61 1428.28 1302.72 1409.11 1354.56 1526.77 1448.69 1570.13 1304.38 1524.9 1272.61"/><polyline class="cls-116" points="1460.21 1291.79 1457.99 1344.5 1525.32 1447.18 1522.4 1324.43 1492.42 1281.75"/><polygon class="cls-117" points="1413.27 1354.84 1451.02 1347.52 1421.64 1338.89 1413.27 1354.84"/><polygon class="cls-117" points="1463.03 1344.03 1519.78 1326.35 1463.29 1330.61 1463.03 1344.03"/><polygon class="cls-117" points="1527.88 1323.82 1567.16 1307.13 1520.04 1312.92 1527.88 1323.82"/><polygon class="cls-118" points="1464.03 1361.51 1505.77 1424.1 1438.44 1365.03 1464.03 1361.51"/><polygon class="cls-118" points="1524.83 1342.56 1526.04 1417.79 1547.89 1330.93 1524.83 1342.56"/><polygon class="cls-35" points="1524.9 1272.61 1428.28 1302.72 1409.11 1354.56 1526.77 1448.69 1570.13 1304.38 1524.9 1272.61"/><path class="cls-119" d="M1663.79,1393.56c-7.59-3.7-2.63-11.87.39-15.8a7.48,7.48,0,0,0,1.08-7.18c-2.68-6.93-11.7-7.53-17.16-7.22a7.42,7.42,0,0,0-5.95,3.77c-8.58,14.74-31.5,28.65-38.79,32.81a38.12,38.12,0,0,0-4.18-4.6,37.63,37.63,0,0,0-38.29-8L1452.69,1426c-16.64,5.94-26.68,22.65-25.21,39.74-15.92,8.69-45.75.37-58.83-4a7.77,7.77,0,0,0-10.17,7.59c.24,6.27,3.46,12.72,6,13.14,2.11.35,2.63,2.39,2.63,4.31a7.6,7.6,0,0,1-2.23,5.23c-8.91,9.15,4.16,11.69,14.33,15.52,8,3,3.48,11.65.65,15.86a7.4,7.4,0,0,0-.63,7.27c3.2,6.7,12.48,6.5,18,5.7a7.87,7.87,0,0,0,5.84-4.31c7-14,26.12-28.42,35-34.62a37.82,37.82,0,0,0,44.81,16l108.2-38.64c18.17-6.49,28.46-25.81,24.5-44.46,16.23-6,43.38,4.36,55.44,9.68a7.43,7.43,0,0,0,10.37-6.66c.17-6.25-2.54-12.94-5-13.58-2-.52-2.4-2.6-2.28-4.5a7.46,7.46,0,0,1,2.5-5C1686,1401.91,1673.43,1398.25,1663.79,1393.56Z"/><path class="cls-37" d="M1366.9,1484.77l.55-.13s34.45-12.31,64.2-3.28"/><path class="cls-37" d="M1383.71,1512.66s6.94-22.18,49.75-31.33"/><path class="cls-37" d="M1420.09,1468.38s17.16,16.91,17.31,29.55c.49-17.78-9.25-31.9-9.25-31.9"/><path class="cls-37" d="M1615.94,1431.62c-.59-8.9-13.08-32.31-13.08-32.31s16.87,15.5,20,27.91"/><path class="cls-38" d="M1659.77,1390.69s-34.87,1.11-43,24.44c29.57-17.46,58,3.27,58,3.27"/><g class="cls-120"><path class="cls-121" d="M1384.83,1421.32s122.07,3.08,184.73,215.28"/><path class="cls-40" d="M1424.86,1405.31s121.91,7,177.88,221.14"/><path class="cls-121" d="M1480.33,1382.9s121.83,8.36,175.52,223.07"/><path class="cls-40" d="M1521,1368.64s121.5,12.29,168.43,228.63"/></g><path class="cls-41" d="M1473.11,1428s-40.41,15.41-32.94,39.28c4,12.79,9.35,14.5,13.45,13.33a9.07,9.07,0,0,0,6.3-8.25c.52-8,3.15-25.28,15.92-27.4C1492.55,1442.14,1486.56,1423.38,1473.11,1428Z"/><path class="cls-122" d="M1535,923.61s14-47,103.27,23.14c0,0,62.81,49.1,65,73.71l26.74,1.07s-51.58-84.38-144.29-123.62C1585.68,897.91,1530.61,877.66,1535,923.61Z"/><path class="cls-36" d="M1740.47,1025l-.13-6.81a8.48,8.48,0,0,0-8.63-8.32l-34.59.65a8.46,8.46,0,0,0-8.31,8.63l.16,8.7a41,41,0,1,0,51.5-2.85Zm-25.73,2.76c-8.41.16-15.27-2.34-15.33-5.57s6.71-6,15.11-6.14,15.28,2.34,15.34,5.57S1723.15,1027.63,1714.74,1027.78Z"/><path class="cls-90" d="M1749.37,1058.28a33.81,33.81,0,1,1-60.69-18.63"/><path class="cls-3" d="M1702.17,1070.35a17,17,0,0,1,2,.27,7.38,7.38,0,0,0,1.18.15q2.64.07,3.16-4.08.27-2.36.57-13.42a3.19,3.19,0,0,0-.62-2.35,3.72,3.72,0,0,0-2.47-.72c-.29,0-.71,0-1.25.07a10.6,10.6,0,0,1-1.09,0,2.51,2.51,0,0,1-1.69-.62,1.92,1.92,0,0,1-.61-1.53,2.76,2.76,0,0,1,1-1.94,8.54,8.54,0,0,1,2.82-1.65,47.48,47.48,0,0,1,18.8-3.24,9.2,9.2,0,0,1,3.92.74,2.16,2.16,0,0,1,1.17,2.07,1.83,1.83,0,0,1-.44,1.25,5,5,0,0,1-1.64.94c-1.3.52-2,1.19-2.26,2a85.31,85.31,0,0,0-.69,9.43q0,8.34.05,8.93a11,11,0,0,0,.2,1.65,3.36,3.36,0,0,0,1.34,2.31,8.3,8.3,0,0,0,3.58.84c2,.13,2.9,1,2.86,2.47s-1.45,2.57-4.21,3a67.17,67.17,0,0,1-11.84.71,56.67,56.67,0,0,1-7.51-.67,35.22,35.22,0,0,1-6.86-1.7c-1.58-.62-2.35-1.51-2.32-2.67a2.09,2.09,0,0,1,.82-1.6A3,3,0,0,1,1702.17,1070.35Z"/><path class="cls-123" d="M1730,1021.53s-200.77.85-195-97.64a80.45,80.45,0,0,1,1.58-11.66,21,21,0,0,1,.92-3.21c8.47-21.5,48.16-11.11,48.16-11.11s-51-22.71-73.71,15.85a59.54,59.54,0,0,0,7.07,69.67c42.07,47.06,153,54.63,181.26,40.7Z"/><polygon class="cls-124" points="1772.78 682.5 1755.33 662.81 1729.22 666.02 1742.55 643.34 1731.42 619.5 1757.11 625.17 1776.35 607.22 1778.9 633.41 1801.91 646.16 1777.79 656.67 1772.78 682.5"/><ellipse class="cls-125" cx="1746.31" cy="627.4" rx="2.05" ry="8.22" transform="translate(750.7 2193.29) rotate(-77.31)"/><ellipse class="cls-125" cx="1767.46" cy="622.32" rx="8.22" ry="2.05" transform="translate(111.69 1499.61) rotate(-47.31)"/><path class="cls-126" d="M1641.54,436.67s-10.66-18-40.36,20.25c0,0-20.93,26.82-19.28,37.23l-11,3.2s12.63-40.26,47-66.09C1617.9,431.26,1638.61,417.19,1641.54,436.67Z"/><path class="cls-127" d="M1563.26,515.07a17.49,17.49,0,1,0,25.31-19.33l-.83-3.62a3.61,3.61,0,0,0-4.34-2.71l-14.38,3.3a3.62,3.62,0,0,0-2.72,4.34l.65,2.83A17.45,17.45,0,0,0,1563.26,515.07Zm7.74-17.68c-.31-1.35,2.27-3.09,5.77-3.89s6.58-.37,6.89,1-2.27,3.08-5.77,3.89S1571.3,498.73,1571,497.39Z"/><path class="cls-128" d="M1566.7,514.57a14.43,14.43,0,1,0,23.2-14"/><path class="cls-3" d="M1575.78,517.4a7.39,7.39,0,0,1,.88,0,3.48,3.48,0,0,0,.5,0c.75-.1,1.1-.75,1-1.94q0-1-.69-5.69a1.36,1.36,0,0,0-.43-.94,1.53,1.53,0,0,0-1.09-.13,3.26,3.26,0,0,0-.52.11l-.46.09a1.09,1.09,0,0,1-.75-.14.84.84,0,0,1-.37-.6,1.28,1.28,0,0,1,.31-.9,3.8,3.8,0,0,1,1.07-.89,20.37,20.37,0,0,1,7.69-2.67,4,4,0,0,1,1.7,0,.93.93,0,0,1,.64.79.78.78,0,0,1-.1.56,2.15,2.15,0,0,1-.63.5c-.51.32-.78.65-.81,1a36.84,36.84,0,0,0,.37,4c.39,2.34.61,3.59.64,3.76a5.37,5.37,0,0,0,.2.68,1.41,1.41,0,0,0,.72.87,3.54,3.54,0,0,0,1.57.11q1.24-.12,1.38.84c.09.67-.43,1.18-1.57,1.56a29.22,29.22,0,0,1-4.93,1.12,22.72,22.72,0,0,1-3.21.24,14.56,14.56,0,0,1-3-.24q-1.07-.22-1.17-1a.89.89,0,0,1,.24-.73A1.24,1.24,0,0,1,1575.78,517.4Z"/><path class="cls-129" d="M1570.94,497.35s83.2-20.39,70.62-60.56a34.1,34.1,0,0,0-1.86-4.67,10.05,10.05,0,0,0-.71-1.23c-5.73-8-21.09.37-21.09.37s18.76-14.67,32.16-1.05a25.41,25.41,0,0,1,4.27,29.57c-12.56,23.83-57.68,38.43-70.84,35.58Z"/><polygon class="cls-130" points="1671.61 155.9 1650.01 171.06 1649.38 185.46 1686.08 199.47 1685.37 160.19 1671.61 155.9"/><polyline class="cls-130" points="1657.07 165.81 1660.71 179.07 1685.6 199.22 1675.11 168.97 1664.27 160.75"/><polygon class="cls-78" points="1650.43 185.2 1659.22 180.38 1651.24 180.57 1650.43 185.2"/><polygon class="cls-78" points="1661.93 178.56 1674.61 169.65 1660.92 175.2 1661.93 178.56"/><polygon class="cls-78" points="1676.43 168.38 1684.85 161.11 1673.61 166.3 1676.43 168.38"/><polygon class="cls-78" points="1663.57 182.82 1678.91 195.04 1657.49 185.73 1663.57 182.82"/><polygon class="cls-78" points="1677.16 173.28 1683.44 191.86 1681.96 168.55 1677.16 173.28"/><polygon class="cls-131" points="1671.61 155.9 1650.01 171.06 1649.38 185.46 1686.08 199.47 1685.37 160.19 1671.61 155.9"/></g></g></svg>