<svg xmlns="http://www.w3.org/2000/svg" xmlns:xlink="http://www.w3.org/1999/xlink" viewBox="0 0 1920.45 2194.37"><defs><style>.cls-1,.cls-104,.cls-105,.cls-107,.cls-108,.cls-11,.cls-112,.cls-117,.cls-123,.cls-13,.cls-130,.cls-133,.cls-15,.cls-17,.cls-19,.cls-21,.cls-23,.cls-29,.cls-37,.cls-39,.cls-40,.cls-42,.cls-45,.cls-46,.cls-48,.cls-49,.cls-53,.cls-7,.cls-73,.cls-77,.cls-81,.cls-9,.cls-92,.cls-94{fill:none;}.cls-2{fill:#cfe2ff;}.cls-3{clip-path:url(#clip-path);}.cls-4{opacity:0.2;}.cls-124,.cls-30,.cls-5,.cls-61,.cls-69{fill:#0b59c7;}.cls-109,.cls-110,.cls-111,.cls-125,.cls-50,.cls-51,.cls-52,.cls-6,.cls-62,.cls-63,.cls-70,.cls-71,.cls-90{fill:#4890f1;}.cls-10,.cls-100,.cls-108,.cls-109,.cls-11,.cls-110,.cls-111,.cls-112,.cls-12,.cls-13,.cls-14,.cls-15,.cls-16,.cls-17,.cls-18,.cls-19,.cls-28,.cls-29,.cls-30,.cls-42,.cls-49,.cls-50,.cls-51,.cls-53,.cls-6,.cls-7,.cls-72,.cls-73,.cls-8,.cls-86,.cls-87,.cls-88,.cls-89,.cls-9,.cls-90,.cls-91,.cls-99{stroke:#1a328c;}.cls-10,.cls-100,.cls-103,.cls-104,.cls-109,.cls-11,.cls-110,.cls-112,.cls-116,.cls-117,.cls-12,.cls-121,.cls-124,.cls-125,.cls-128,.cls-129,.cls-13,.cls-130,.cls-14,.cls-15,.cls-16,.cls-17,.cls-18,.cls-19,.cls-21,.cls-23,.cls-28,.cls-29,.cls-30,.cls-38,.cls-39,.cls-44,.cls-45,.cls-50,.cls-53,.cls-57,.cls-6,.cls-60,.cls-61,.cls-62,.cls-63,.cls-66,.cls-68,.cls-69,.cls-7,.cls-70,.cls-71,.cls-72,.cls-73,.cls-77,.cls-8,.cls-82,.cls-83,.cls-86,.cls-87,.cls-88,.cls-89,.cls-9,.cls-90,.cls-91,.cls-92,.cls-94,.cls-99{stroke-miterlimit:10;}.cls-16,.cls-6{stroke-width:2.27px;}.cls-104,.cls-105,.cls-107,.cls-108,.cls-11,.cls-110,.cls-111,.cls-113,.cls-118,.cls-123,.cls-13,.cls-130,.cls-132,.cls-133,.cls-15,.cls-17,.cls-19,.cls-21,.cls-23,.cls-34,.cls-37,.cls-39,.cls-40,.cls-42,.cls-45,.cls-46,.cls-48,.cls-49,.cls-50,.cls-51,.cls-55,.cls-63,.cls-64,.cls-7,.cls-71,.cls-73,.cls-78,.cls-81,.cls-9,.cls-92,.cls-94{stroke-linecap:round;}.cls-7{stroke-width:1.93px;}.cls-8,.cls-87{fill:#6af0b9;}.cls-8{stroke-width:1.56px;}.cls-9{stroke-width:1.32px;}.cls-10,.cls-18,.cls-55,.cls-58,.cls-64,.cls-67,.cls-80,.cls-82{fill:#ffb87d;}.cls-10{stroke-width:1.99px;}.cls-11{stroke-width:1.69px;}.cls-12,.cls-89{fill:#0b5dd1;}.cls-12{stroke-width:1.54px;}.cls-13{stroke-width:1.31px;}.cls-14{fill:#a6ffe1;stroke-width:1.89px;}.cls-15{stroke-width:1.6px;}.cls-103,.cls-113,.cls-118,.cls-121,.cls-16,.cls-28,.cls-44,.cls-97{fill:#8aa1f7;}.cls-17{stroke-width:1.33px;}.cls-18{stroke-width:1.55px;}.cls-19{stroke-width:1.31px;}.cls-20{fill:#abd0ff;}.cls-103,.cls-104,.cls-105,.cls-121,.cls-124,.cls-125,.cls-126,.cls-128,.cls-129,.cls-130,.cls-131,.cls-133,.cls-21,.cls-25,.cls-27,.cls-37,.cls-38,.cls-81,.cls-92,.cls-95,.cls-97{stroke:#0b59c7;}.cls-21{stroke-width:3.03px;}.cls-22{clip-path:url(#clip-path-2);}.cls-107,.cls-23,.cls-94{stroke:#ff8b2b;}.cls-23{stroke-width:9.1px;}.cls-24{fill:#e3efff;}.cls-25,.cls-27{fill:#a6ffde;}.cls-105,.cls-107,.cls-108,.cls-111,.cls-113,.cls-114,.cls-115,.cls-118,.cls-123,.cls-126,.cls-131,.cls-132,.cls-133,.cls-25,.cls-27,.cls-34,.cls-37,.cls-40,.cls-42,.cls-46,.cls-48,.cls-49,.cls-51,.cls-55,.cls-56,.cls-58,.cls-59,.cls-64,.cls-65,.cls-67,.cls-78,.cls-81,.cls-85,.cls-95,.cls-97{stroke-linejoin:round;}.cls-100,.cls-113,.cls-114,.cls-115,.cls-116,.cls-118,.cls-121,.cls-124,.cls-125,.cls-25,.cls-28,.cls-29,.cls-30,.cls-34,.cls-37,.cls-38,.cls-39,.cls-40,.cls-42,.cls-55,.cls-56,.cls-57,.cls-58,.cls-59,.cls-60,.cls-61,.cls-62,.cls-63,.cls-72,.cls-73,.cls-82,.cls-83,.cls-85,.cls-86,.cls-87,.cls-88,.cls-89,.cls-90,.cls-91,.cls-92,.cls-95,.cls-97,.cls-99{stroke-width:5px;}.cls-26{fill:#d6fff4;}.cls-27{stroke-width:4.2px;}.cls-31,.cls-60,.cls-68{fill:#1a328c;}.cls-32,.cls-33{fill:#d4dcf7;}.cls-102,.cls-33,.cls-43,.cls-54,.cls-74{opacity:0.8;}.cls-34{fill:#558ddb;}.cls-118,.cls-132,.cls-34,.cls-78{stroke:#0653bf;}.cls-35{fill:#7eb6f2;}.cls-36{fill:#609ce0;}.cls-132,.cls-38,.cls-57,.cls-66,.cls-78,.cls-85,.cls-86,.cls-95{fill:#ff8b2b;}.cls-123,.cls-39,.cls-40,.cls-44,.cls-45,.cls-46,.cls-48,.cls-82,.cls-83,.cls-85{stroke:#33dea7;}.cls-41{clip-path:url(#clip-path-3);}.cls-43{fill:#dbe2ff;}.cls-44,.cls-45,.cls-46{stroke-width:0.8px;}.cls-47{clip-path:url(#clip-path-4);}.cls-48{stroke-width:6.66px;}.cls-103,.cls-104,.cls-105,.cls-49{stroke-width:1.6px;}.cls-50,.cls-51,.cls-53{stroke-width:1.76px;}.cls-54{fill:#c4d0ff;}.cls-113,.cls-114,.cls-115,.cls-116,.cls-55,.cls-56,.cls-57,.cls-58,.cls-59,.cls-60,.cls-61,.cls-62,.cls-63,.cls-64,.cls-65,.cls-66,.cls-67,.cls-68,.cls-69,.cls-70,.cls-71{stroke:#1b3bb3;}.cls-56{fill:#ffd6b3;}.cls-59{fill:#96ffd4;}.cls-64,.cls-65,.cls-66,.cls-67,.cls-70,.cls-71{stroke-width:1.63px;}.cls-65{fill:#ffd8b8;}.cls-68,.cls-69{stroke-width:0.54px;}.cls-72{fill:#92fcca;}.cls-74{fill:#d6fff9;}.cls-75{fill:#7dffd5;}.cls-76{fill:#b3ffe4;}.cls-117,.cls-77{stroke:#274cd4;}.cls-77{stroke-width:0.31px;}.cls-78,.cls-81{stroke-width:2.18px;}.cls-79{fill:#ffd2ad;}.cls-129,.cls-83{fill:#9effe0;}.cls-100,.cls-84{fill:#33dea7;}.cls-88{fill:#b5cbe8;}.cls-91{fill:#6bffca;}.cls-93{clip-path:url(#clip-path-5);}.cls-94{stroke-width:19px;}.cls-96{fill:#ffc99c;}.cls-98{fill:#adbeff;}.cls-99{fill:#75ffce;}.cls-101,.cls-102{fill:#a8ffe6;}.cls-106{clip-path:url(#clip-path-6);}.cls-107{stroke-width:13.32px;}.cls-108{stroke-width:3.2px;}.cls-109,.cls-110,.cls-111,.cls-112{stroke-width:1.08px;}.cls-114{fill:#d1ffef;}.cls-115{fill:#afbff7;}.cls-116{fill:#66ffc8;}.cls-117{stroke-width:0.97px;}.cls-119{fill:#bac8ff;}.cls-120{fill:#9eb2ff;}.cls-122{clip-path:url(#clip-path-7);}.cls-123{stroke-width:25px;}.cls-126{fill:#ff9b47;stroke-width:1.61px;}.cls-127{fill:#ffc696;}.cls-128{fill:#6ccfaf;}.cls-128,.cls-129,.cls-130,.cls-131{stroke-width:1.57px;}.cls-131{fill:#00bd80;}.cls-132,.cls-133{stroke-width:1.55px;}</style><clipPath id="clip-path"><rect class="cls-1" x="-0.08" width="1920" height="2194.37"/></clipPath><clipPath id="clip-path-2"><path class="cls-1" d="M311.55,1370.91c-11.95,2.31-19.35,23.47-22.07,32.85a27.93,27.93,0,0,0-1.1,7.38c-.12,8.38-2.7,33.08-27.65,52.72-21,16.53-16.06,37-10.93,48.23a10.51,10.51,0,0,0,12.81,5.61L335,1494.22l.22,0,31.34,50.66c-5.29-21,4.13-19.33,4.13-19.33s14.54,3.63,14.36-21,25.27-25.28,25.27-25.28l-50.51-16.95a11.2,11.2,0,0,1-7.52-8.92c-2.54-16.52-7.72-51.35-9.13-69.3C341.27,1360.11,311.55,1370.91,311.55,1370.91Z"/></clipPath><clipPath id="clip-path-3"><path class="cls-1" d="M283.52,2060.94c-3.18-7.21,5.25-9.92,9.76-10.83a6.78,6.78,0,0,0,5.07-4.36c2.26-6.49-3.79-12.41-7.86-15.51a7,7,0,0,0-6.49-1c-14.95,5.1-39.58.88-47.26-.64a35.54,35.54,0,0,0-22.62-34.72L114,1955.05a35.68,35.68,0,0,0-41.77,12.47c-16.52-3.61-32.74-27.6-39.41-38.63a7.26,7.26,0,0,0-11.79-.88c-3.59,4.54-5.18,11-3.6,12.88,1.3,1.53.44,3.27-.72,4.62a6.93,6.93,0,0,1-4.72,2.3c-11.82,1-4.06,10.72.87,19.61,3.89,7-4.51,10.27-9,11.49A6.71,6.71,0,0,0-1,1983.63c-1.75,6.64,5,12.15,9.4,15a7.3,7.3,0,0,0,6.73.54c13.43-5.53,35.63-4,45.69-2.9a35.65,35.65,0,0,0,22.26,38.49l100.09,38.85a35.66,35.66,0,0,0,44.1-16.22c15.15,5.68,28.22,29.48,33.6,40.55a7,7,0,0,0,11.37,1.65c3.87-4.27,6-10.6,4.58-12.56-1.12-1.6-.14-3.28,1.09-4.54a6.81,6.81,0,0,1,4.78-2C294.27,2080.29,287.56,2070.09,283.52,2060.94Z"/></clipPath><clipPath id="clip-path-4"><path class="cls-1" d="M109.88,990.33c-1.95-.13-1.6-2.32-1.29-3.42a1.72,1.72,0,0,0-.39-1.64c-1.18-1.25-3.17-.6-4.31-.06a1.7,1.7,0,0,0-1,1.33c-.56,3.91-4.28,8.89-5.48,10.42a9.1,9.1,0,0,0-1.3-.62A8.7,8.7,0,0,0,87.24,998l-19.88,17.71a9,9,0,0,0-2,10.73c-2.66,3.25-9.79,4.06-13,4.26a1.8,1.8,0,0,0-1.52,2.52c.6,1.32,1.85,2.43,2.44,2.29s.77.29.94.7a1.77,1.77,0,0,1,0,1.32c-1.11,2.74,1.91,2.15,4.43,2.08,2,0,1.76,2.2,1.52,3.35a1.7,1.7,0,0,0,.5,1.62c1.27,1.16,3.24.31,4.37-.35a1.81,1.81,0,0,0,.88-1.43c.29-3.63,3.14-8.38,4.51-10.48a8.77,8.77,0,0,0,11-.47l19.87-17.71a9,9,0,0,0,1.4-11.68c3-2.71,9.69-2.84,12.75-2.75a1.71,1.71,0,0,0,1.64-2.33c-.5-1.36-1.67-2.56-2.25-2.48s-.75-.35-.88-.77a1.65,1.65,0,0,1,.1-1.29C115.37,990.2,112.36,990.5,109.88,990.33Z"/></clipPath><clipPath id="clip-path-5"><path class="cls-1" d="M1736.67,1901.48c-.16-24.11-38.71-46.17-56-54.86a55.39,55.39,0,0,0-14-4.82c-16.29-3.25-63.46-17.22-92.7-72.91-24.61-46.89-66.33-44.68-90-38.73a20.84,20.84,0,0,0-15.57,22.92L1488,1902.57l-.15.42-110,42.74c42.77-2.73,36.16,15,36.16,15s-12.33,27,35.68,35.57,40.11,58.35,40.11,58.35l51.27-92.26a22.22,22.22,0,0,1,20.1-11.42c33.09,1,102.81,3.53,138.28,7.27C1747,1963.28,1736.67,1901.48,1736.67,1901.48Z"/></clipPath><clipPath id="clip-path-6"><path class="cls-1" d="M1627.34,1527.11c1-3.78,5.16-2.26,7.22-1.24a3.44,3.44,0,0,0,3.35-.15c2.92-1.84,2.38-6,1.75-8.45a3.45,3.45,0,0,0-2.25-2.37c-7.47-2.58-15.85-11.75-18.4-14.69a16.7,16.7,0,0,0,1.71-2.32,17.42,17.42,0,0,0,.21-18.13L1593.65,1434a18,18,0,0,0-20.34-7.89c-5.37-6.46-4.27-20.77-3.46-27.11a3.61,3.61,0,0,0-4.37-3.94c-2.83.67-5.47,2.72-5.43,3.92,0,1-.85,1.41-1.72,1.59a3.54,3.54,0,0,1-2.58-.55c-5-3.23-4.94,2.94-5.77,7.91-.65,3.92-5,2.63-7.15,1.72a3.44,3.44,0,0,0-3.37.37c-2.76,2.06-1.83,6.25-1,8.71A3.66,3.66,0,0,0,1541,1421c7,2,15.27,9.33,18.9,12.82a17.53,17.53,0,0,0-3.25,21.82l27.28,45.72a18,18,0,0,0,22.42,7.15c4.19,6.84,1.91,20.12.58,26.08a3.44,3.44,0,0,0,4,4.11c2.85-.48,5.65-2.31,5.72-3.49.06-1,1-1.33,1.84-1.44a3.44,3.44,0,0,1,2.5.68C1625.53,1537.94,1626.07,1531.91,1627.34,1527.11Z"/></clipPath><clipPath id="clip-path-7"><path class="cls-1" d="M1663.26,2100.75c-7.59-3.7-2.63-11.88.39-15.8a7.46,7.46,0,0,0,1.08-7.18c-2.68-6.93-11.7-7.53-17.15-7.22a7.42,7.42,0,0,0-6,3.77c-8.58,14.74-31.5,28.64-38.78,32.81a37.84,37.84,0,0,0-42.48-12.62l-108.2,38.63c-16.64,5.94-26.68,22.65-25.21,39.74-15.92,8.68-45.75.37-58.83-4a7.77,7.77,0,0,0-10.17,7.59c.24,6.27,3.46,12.72,6,13.14,2.11.35,2.63,2.39,2.63,4.31a7.57,7.57,0,0,1-2.23,5.23c-8.91,9.15,4.16,11.69,14.34,15.52,8,3,3.48,11.65.64,15.85a7.43,7.43,0,0,0-.63,7.28c3.2,6.7,12.48,6.5,18,5.7a7.87,7.87,0,0,0,5.84-4.31c7.05-14,26.12-28.42,35-34.62a37.82,37.82,0,0,0,44.81,16l108.2-38.64c18.17-6.49,28.46-25.81,24.5-44.47,16.23-6,43.38,4.37,55.44,9.69a7.43,7.43,0,0,0,10.37-6.66c.17-6.25-2.54-12.94-5-13.58-2-.52-2.4-2.6-2.28-4.5a7.46,7.46,0,0,1,2.5-5C1685.42,2109.09,1672.9,2105.44,1663.26,2100.75Z"/></clipPath></defs><title>фон для постов-03</title><g id="Слой_2" data-name="Слой 2"><rect class="cls-2" x="-0.08" width="1920" height="2194.37"/><g class="cls-3"><g class="cls-4"><path class="cls-5" d="M366.56,1544.92h0s11.65,10,31.75-23.75a54.56,54.56,0,0,0,4.28-9c5.43-14.66,6.66-15.57,13.35-21.65,2.8-2.81,4-10.25-5.62-11.23s-36.34,5-36.34,5l-12.71,36.84,1.16,12.22Z"/><path class="cls-5" d="M259.06,1518.21s-40.68-6.77-2.21-68.07c15-23.63,17.33-27.26,24.76-51.38s34.34-44.78,59.29-21Z"/><ellipse class="cls-6" cx="245.22" cy="1498.13" rx="20.09" ry="7.83" transform="translate(-1258.45 1706.76) rotate(-88.6)"/><path class="cls-7" d="M244.15,1511.26s-5.67-14.15.54-21.42c3.18-2.76,4.24,3.17,4.6,7.32a19.52,19.52,0,0,1-.68,7c-.84,2.66-3.84,4.83-3.11-2.16"/><ellipse class="cls-8" cx="248.71" cy="1472.49" rx="13.74" ry="5.36" transform="translate(-1153.74 959.46) rotate(-60.32)"/><path class="cls-9" d="M243.82,1480.06s1.17-10.37,7.26-12.74c2.82-.63,1.53,3.29.4,5.9a13.48,13.48,0,0,1-2.69,4c-1.37,1.33-3.88,1.66-1.17-2.31"/><ellipse class="cls-10" cx="260.93" cy="1456.18" rx="17.6" ry="6.86" transform="translate(-1172.44 1090.11) rotate(-65.51)"/><path class="cls-11" d="M255.56,1466.4s.29-13.36,7.79-17.09c3.52-1.12,2.33,4,1.19,7.48a17,17,0,0,1-3,5.45c-1.6,1.86-4.76,2.57-1.77-2.81"/><ellipse class="cls-12" cx="272.24" cy="1448.33" rx="13.64" ry="5.32" transform="translate(-1184.7 1226.73) rotate(-70.71)"/><path class="cls-13" d="M268.81,1456.59s-.71-10.33,4.82-13.73c2.63-1.11,2.08,2.94,1.44,5.69a13.21,13.21,0,0,1-1.9,4.41c-1.11,1.54-3.49,2.32-1.56-2"/><ellipse class="cls-14" cx="273.41" cy="1426.59" rx="16.71" ry="6.51" transform="translate(-1106.51 973.01) rotate(-60.96)"/><path class="cls-15" d="M267.56,1435.85s1.28-12.62,8.66-15.58c3.41-.8,1.91,4,.56,7.17a16.07,16.07,0,0,1-3.21,4.93c-1.66,1.64-4.7,2.08-1.46-2.79"/><ellipse class="cls-6" cx="284.96" cy="1405.61" rx="16.71" ry="6.51" transform="translate(-1149.12 1423.85) rotate(-79.27)"/><path class="cls-15" d="M282.32,1416.24s-2.75-12.38,3.33-17.52c3-1.83,3.06,3.18,2.79,6.63a16.33,16.33,0,0,1-1.51,5.7c-1.05,2.07-3.8,3.45-2.26-2.19"/><ellipse class="cls-16" cx="296.02" cy="1383.8" rx="16.71" ry="6.51" transform="translate(-1034.83 902.81) rotate(-58.05)"/><path class="cls-15" d="M289.71,1392.75s1.92-12.53,9.44-15.12c3.45-.63,1.7,4.07.2,7.19a16.25,16.25,0,0,1-3.46,4.76c-1.73,1.55-4.8,1.84-1.31-2.86"/><ellipse class="cls-10" cx="311.37" cy="1375.71" rx="13.85" ry="5.4" transform="translate(-1020.75 912.02) rotate(-58.05)"/><path class="cls-17" d="M306.13,1383.14s1.59-10.4,7.83-12.54c2.86-.52,1.41,3.37.16,6a13.59,13.59,0,0,1-2.86,4c-1.44,1.28-4,1.52-1.1-2.37"/><ellipse class="cls-18" cx="283.41" cy="1430.83" rx="13.66" ry="5.32" transform="translate(-1170.17 1309.59) rotate(-74.03)"/><path class="cls-19" d="M280.46,1439.29s-1.31-10.29,4-14c2.57-1.27,2.25,2.81,1.77,5.6a13.2,13.2,0,0,1-1.64,4.52c-1,1.61-3.36,2.53-1.68-2"/><path class="cls-20" d="M336.18,1493.66a1.1,1.1,0,0,0-.77-.52l-.22,0-.19,0a1.13,1.13,0,0,0-.36.06l-72.38,23.48a9.3,9.3,0,0,1-2.9.46,9.4,9.4,0,0,1-8.53-5.47c-4.84-10.57-9.91-30.71,10.6-46.86,25-19.65,28-44,28.08-53.6a26.86,26.86,0,0,1,1.06-7.08c2.59-8.9,9.82-29.85,21.19-32l.18,0a45.26,45.26,0,0,1,13.48-2.35c10.26,0,15.85,4.92,16.61,14.62,1.38,17.64,6.32,51,9.14,69.38a12.29,12.29,0,0,0,8.27,9.83l46,15.42c-7.66,1.64-21.62,7.18-21.48,25.74.05,8.25-1.54,14.07-4.74,17.3a9.1,9.1,0,0,1-6.58,2.72,8.15,8.15,0,0,1-1.64-.15,3.39,3.39,0,0,0-.73-.06,5.56,5.56,0,0,0-4.46,2.23c-1.88,2.41-2.4,6.52-1.58,12.27Z"/><path class="cls-5" d="M325.42,1370.77c9.69,0,14.76,4.44,15.47,13.57,1.39,17.67,6.33,51.1,9.15,69.46a13.46,13.46,0,0,0,9,10.74l42.39,14.22c-8.08,2.62-18.81,9.23-18.69,25.87.05,7.82-1.47,13.53-4.41,16.49a8,8,0,0,1-5.77,2.39,6.91,6.91,0,0,1-1.36-.12h0l-.16,0a5.26,5.26,0,0,0-.85-.06,6.79,6.79,0,0,0-5.36,2.67c-1.5,1.92-2.23,4.69-2.2,8.34l-25.52-41.24a2.26,2.26,0,0,0-1.54-1l-.22,0-.39,0a2.15,2.15,0,0,0-.71.11l-72.39,23.48a8.14,8.14,0,0,1-2.54.41,8.27,8.27,0,0,1-7.49-4.81c-2.29-5-4.86-12.67-4.14-21,.82-9.39,5.66-17.64,14.4-24.52,25.35-20,28.39-44.75,28.52-54.48a25.43,25.43,0,0,1,1-6.78c2-6.79,9.25-29.11,20.31-31.24l.34-.1a44.25,44.25,0,0,1,13.1-2.28m0-2.28a45.91,45.91,0,0,0-13.87,2.42c-11.95,2.31-19.35,23.47-22.07,32.85a27.93,27.93,0,0,0-1.1,7.38c-.12,8.38-2.7,33.08-27.65,52.72-21,16.53-16.06,37-10.93,48.23a10.5,10.5,0,0,0,12.81,5.61L335,1494.22l.22,0,31.34,50.66c-4.57-18.12,1.84-19.36,3.67-19.36a3.09,3.09,0,0,1,.46,0,8.55,8.55,0,0,0,1.91.19c3.95,0,12.59-2.16,12.45-21.17-.17-24.61,25.27-25.28,25.27-25.28l-50.51-16.95a11.2,11.2,0,0,1-7.52-8.92c-2.54-16.52-7.72-51.35-9.13-69.3-1-12.67-9.71-15.67-17.74-15.67Z"/><path class="cls-21" d="M289.54,1412s12.4,37.1,47.51,58.35"/><path class="cls-21" d="M380.6,1519.64s-9.92-19.32-46.11-40.29c-33.84-19.61-81.44-5.59-81.44-5.59"/><g class="cls-22"><path class="cls-23" d="M335.66,1494.38s-6-26.75,18.16-33.37"/></g><path class="cls-5" d="M325.42,1370.77c9.69,0,14.76,4.44,15.47,13.57,1.39,17.67,6.33,51.1,9.15,69.46a13.46,13.46,0,0,0,9,10.74l42.39,14.22c-8.08,2.62-18.81,9.23-18.69,25.87.05,7.82-1.47,13.53-4.41,16.49a8,8,0,0,1-5.77,2.39,6.91,6.91,0,0,1-1.36-.12h0l-.16,0a5.26,5.26,0,0,0-.85-.06,6.79,6.79,0,0,0-5.36,2.67c-1.5,1.92-2.23,4.69-2.2,8.34l-25.52-41.24a2.26,2.26,0,0,0-1.54-1l-.22,0-.39,0a2.15,2.15,0,0,0-.71.11l-72.39,23.48a8.14,8.14,0,0,1-2.54.41,8.27,8.27,0,0,1-7.49-4.81c-2.29-5-4.86-12.67-4.14-21,.82-9.39,5.66-17.64,14.4-24.52,25.35-20,28.39-44.75,28.52-54.48a25.43,25.43,0,0,1,1-6.78c2-6.79,9.25-29.11,20.31-31.24l.34-.1a44.25,44.25,0,0,1,13.1-2.28m0-2.28a45.91,45.91,0,0,0-13.87,2.42c-11.95,2.31-19.35,23.47-22.07,32.85a27.93,27.93,0,0,0-1.1,7.38c-.12,8.38-2.7,33.08-27.65,52.72-21,16.53-16.06,37-10.93,48.23a10.5,10.5,0,0,0,12.81,5.61L335,1494.22l.22,0,31.34,50.66c-4.57-18.12,1.84-19.36,3.67-19.36a3.09,3.09,0,0,1,.46,0,8.55,8.55,0,0,0,1.91.19c3.95,0,12.59-2.16,12.45-21.17-.17-24.61,25.27-25.28,25.27-25.28l-50.51-16.95a11.2,11.2,0,0,1-7.52-8.92c-2.54-16.52-7.72-51.35-9.13-69.3-1-12.67-9.71-15.67-17.74-15.67Z"/><path class="cls-21" d="M335.45,1493.24s-6.9-21,14.73-43"/><path class="cls-24" d="M261,1506.63l56.91-14.48a9.28,9.28,0,0,0,3.83-2c2-1.74,2.91-4.16-9.53-3.06-16.13,1.44-44.45,11.87-51.87,14.69a7.93,7.93,0,0,0-3.91,3.1C255.41,1506.5,255.43,1508.05,261,1506.63Z"/><path class="cls-24" d="M299.92,1416.6l32.53,40.19a9.52,9.52,0,0,1,1.79,3.8c.64,2.76.29,5.83-7.66-.68-10.29-8.44-25.18-32-29-38.27a10.11,10.11,0,0,1-1.39-5.09C296.11,1414.37,296.74,1412.66,299.92,1416.6Z"/><path class="cls-24" d="M350.73,1472.55l30.08,15.56a6.22,6.22,0,0,1,2.07,1.81c1.12,1.49,1.71,3.42-4.77,1.61-8.39-2.36-23.52-12.59-27.48-15.33a6.49,6.49,0,0,1-2.17-2.68C347.86,1472.22,347.79,1471,350.73,1472.55Z"/><path class="cls-24" d="M345.57,1497l17.1,22a5.15,5.15,0,0,1,.93,2.06c.32,1.5.09,3.14-4.11-.44-5.46-4.64-13.24-17.47-15.25-20.87a5.4,5.4,0,0,1-.7-2.76C343.54,1495.81,343.9,1494.9,345.57,1497Z"/><polygon class="cls-25" points="443.34 1955.98 389.13 1894.81 308 1904.8 349.42 1834.33 314.86 1760.26 394.67 1777.88 454.43 1722.12 462.34 1803.47 533.84 1843.08 458.92 1875.74 443.34 1955.98"/><ellipse class="cls-26" cx="361.09" cy="1784.81" rx="6.37" ry="25.53" transform="translate(-1459.44 1745.11) rotate(-77.31)"/><ellipse class="cls-26" cx="426.81" cy="1769.03" rx="25.53" ry="6.37" transform="translate(-1162.93 883.39) rotate(-47.31)"/><polygon class="cls-27" points="345.89 1131.61 325.35 1108.44 294.62 1112.22 310.31 1085.53 297.21 1057.47 327.45 1064.14 350.09 1043.02 353.08 1073.84 380.17 1088.84 351.79 1101.21 345.89 1131.61"/><ellipse class="cls-26" cx="314.73" cy="1066.77" rx="2.41" ry="9.67" transform="translate(-795.11 1139.53) rotate(-77.31)"/><ellipse class="cls-26" cx="339.62" cy="1060.79" rx="9.67" ry="2.41" transform="translate(-670.4 591.24) rotate(-47.31)"/><polygon class="cls-25" points="40.52 1882.31 -7.88 1827.69 -80.31 1836.61 -43.33 1773.7 -74.19 1707.57 -2.93 1723.3 50.42 1673.52 57.48 1746.15 121.32 1781.51 54.42 1810.67 40.52 1882.31"/><ellipse class="cls-26" cx="25.76" cy="1715.4" rx="22.79" ry="5.69" transform="translate(-1252.65 571.32) rotate(-47.31)"/><ellipse class="cls-28" cx="142.81" cy="2073" rx="36.85" ry="99.28" transform="translate(-1884.19 1615.82) rotate(-73.35)"/><ellipse class="cls-29" cx="142.95" cy="2070.13" rx="26.31" ry="70.89" transform="translate(-1881.33 1613.91) rotate(-73.35)"/><path class="cls-30" d="M182.45,1960.39s-22.31,55.16-2.91,111.9a10.73,10.73,0,0,1-9.54,14.24,88.45,88.45,0,0,1-59.83-18.42,10.75,10.75,0,0,1-.82-16.3c14-13.07,41.28-43.63,58.94-95.66"/><path class="cls-28" d="M359.56,1856.61c-14.15-15.19-38.5-7.71-48.13-3.88q4.38-11.13,8-23,2.64-8.81,4.65-17.53c-25.82,4.1-62.65.67-101.63-11s-71.64-29-91-46.61c-2.06,5.6-4,11.33-5.74,17.2-2.31,7.71-4.25,15.39-5.85,23-6.39-8.86-22.24-27.11-41.77-22.34-23.4,5.71-3.46,86.34,36.46,95.2,3.91,49.82,25.25,85.83,59.29,96s71-9.34,101.64-48.85C313.66,1930.22,376.07,1874.34,359.56,1856.61ZM104.78,1828.8c-3.72,1.75-10.59-5-15.33-15s-5.58-19.63-1.85-21.39,10.58,5,15.32,15S108.5,1827,104.78,1828.8Zm222.58,56.12c-9.49,5.8-18.92,7.66-21.07,4.15s3.81-11.06,13.3-16.87,18.92-7.65,21.06-4.14S336.85,1879.11,327.36,1884.92Z"/><ellipse class="cls-30" cx="227.75" cy="1783.34" rx="29.81" ry="100.62" transform="translate(-1546.07 1490.54) rotate(-73.35)"/><path class="cls-31" d="M172.14,1890.45c.38.13,1.23.51,2.57,1.16a9.64,9.64,0,0,0,1.47.66q3.42,1.13,5.72-4.1,1.28-3,6-17.29a4.31,4.31,0,0,0,.1-3.31,4.88,4.88,0,0,0-2.94-1.9,15.07,15.07,0,0,0-1.65-.41c-.55-.13-1-.25-1.44-.38a3.36,3.36,0,0,1-2-1.48,2.59,2.59,0,0,1-.21-2.23,3.84,3.84,0,0,1,2.13-2.13,12.09,12.09,0,0,1,4.31-1.06,64.8,64.8,0,0,1,25.82,3.13,12.35,12.35,0,0,1,4.82,2.49,2.93,2.93,0,0,1,.73,3.16,2.5,2.5,0,0,1-1.06,1.46,6.62,6.62,0,0,1-2.51.58c-1.9.18-3.15.75-3.73,1.72s-2.11,5-4.58,12q-3.22,10.89-3.43,11.67a16.09,16.09,0,0,0-.38,2.24,4.57,4.57,0,0,0,.85,3.53,11.23,11.23,0,0,0,4.35,2.5c2.49.94,3.41,2.38,2.76,4.34s-2.89,2.8-6.67,2.27a90.73,90.73,0,0,1-15.73-3.69,79.32,79.32,0,0,1-9.54-3.8,47.09,47.09,0,0,1-8.29-4.91c-1.82-1.43-2.48-2.89-2-4.4a2.85,2.85,0,0,1,1.69-1.76A4.06,4.06,0,0,1,172.14,1890.45Z"/><path class="cls-29" d="M118.21,1793.35s72.44,88.09,192.69,58.64"/><path class="cls-29" d="M114.54,1867.63s58.15,68.93,160.8,47.6"/><path class="cls-32" d="M85.94,1781.7a4.78,4.78,0,0,1-1.45,3.74c-2,2-6.08,7-3.19,13.23,1.49,2.76-7.57,12.39-7.94-7C72.85,1781.87,85.51,1775.39,85.94,1781.7Z"/><path class="cls-32" d="M334.3,1858.74a15.21,15.21,0,0,1-6.42,3.35c-4.6,1.07-15.18,4.37-20.9,12.92-2.36,3.92-23.83,9.5,2.13-12.33C321.93,1851.46,342.47,1851.46,334.3,1858.74Z"/><path class="cls-33" d="M135.2,1851.1c4.56,19.63,16.63,63.8,34.66,73.49,15.1,11.12-5.72,33.05-26.21,4-15.33-21.73-13.6-59.55-11.75-77.25A1.68,1.68,0,0,1,135.2,1851.1Z"/><polygon class="cls-34" points="114.03 1905.47 37.01 1869.51 -4.22 1890.86 15.59 2015.86 124.14 1950.78 114.03 1905.47"/><polyline class="cls-34" points="63.01 1880.79 31.82 1912.26 15.54 2014.1 83.17 1936.23 88.69 1892.77"/><polygon class="cls-35" points="-1.8 1893.39 25.78 1910.2 12.42 1888.22 -1.8 1893.39"/><polygon class="cls-35" points="35.21 1914.82 80.45 1935.94 42.97 1906.63 35.21 1914.82"/><polygon class="cls-35" points="86.91 1938.96 120.74 1950.81 88.21 1927.75 86.91 1938.96"/><polygon class="cls-36" points="25.94 1926.23 16.45 1988.71 8.06 1913.95 25.94 1926.23"/><polygon class="cls-36" points="74.42 1948.87 32.61 1996.26 95.31 1954.68 74.42 1948.87"/><polygon class="cls-37" points="114.03 1905.47 37.01 1869.51 -4.22 1890.86 15.59 2015.86 124.14 1950.78 114.03 1905.47"/><path class="cls-38" d="M283.52,2060.94c-3.18-7.21,5.25-9.92,9.76-10.83a6.78,6.78,0,0,0,5.07-4.36c2.26-6.49-3.79-12.41-7.86-15.51a7,7,0,0,0-6.49-1c-14.95,5.1-39.58.88-47.26-.64a35.54,35.54,0,0,0-22.62-34.72L114,1955.05a35.68,35.68,0,0,0-41.77,12.47c-16.52-3.61-32.74-27.6-39.41-38.63a7.26,7.26,0,0,0-11.79-.88c-3.59,4.54-5.18,11-3.6,12.88,1.3,1.53.44,3.27-.72,4.62a6.93,6.93,0,0,1-4.72,2.3c-11.82,1-4.06,10.72.87,19.61,3.89,7-4.51,10.27-9,11.49A6.71,6.71,0,0,0-1,1983.63c-1.75,6.64,5,12.15,9.4,15a7.3,7.3,0,0,0,6.73.54c13.43-5.53,35.63-4,45.69-2.9a35.65,35.65,0,0,0,22.26,38.49l100.09,38.85a35.66,35.66,0,0,0,44.1-16.22c15.15,5.68,28.22,29.48,33.6,40.55a7,7,0,0,0,11.37,1.65c3.87-4.27,6-10.6,4.58-12.56-1.12-1.6-.14-3.28,1.09-4.54a6.81,6.81,0,0,1,4.78-2C294.27,2080.29,287.56,2070.09,283.52,2060.94Z"/><path class="cls-39" d="M17.75,1944l.47.24s31.87,12.38,47.6,36.82"/><path class="cls-39" d="M13,1973.76s18.25-11.32,54.17,8.36"/><path class="cls-39" d="M65.39,1964.91s2,22.29-5.43,31.23c11-12.15,12.57-28,12.57-28"/><path class="cls-39" d="M226.67,2058.45c4.91-6.59,10.09-30.59,10.09-30.59s2.69,21.13-2.56,31.7"/><path class="cls-40" d="M282.38,2056.49s-25.45-20.46-45.25-9.1c31.49,5.78,39.27,37.62,39.27,37.62"/><g class="cls-41"><path class="cls-40" d="M68.57,1910.47s84.92,76.51,2.12,263.28"/><path class="cls-42" d="M106.63,1923.64s82.44,79.17-6.27,263.22"/><path class="cls-40" d="M159.51,1941.74s81.58,80-9.11,263.13"/><path class="cls-42" d="M197,1956.51s79,82.62-17.48,262.71"/></g><path class="cls-43" d="M127.34,1968.89s-38-13.83-47,7.44c-4.83,11.4-2.06,15.85,1.55,17.53a8.41,8.41,0,0,0,9.43-1.94c5.18-5.29,17.41-15.79,27.77-9.49C132.65,1990.66,139.65,1973.88,127.34,1968.89Z"/><path class="cls-44" d="M109.88,990.33c-1.95-.13-1.6-2.32-1.29-3.42a1.72,1.72,0,0,0-.39-1.64c-1.18-1.25-3.17-.6-4.31-.06a1.7,1.7,0,0,0-1,1.33c-.56,3.91-4.28,8.89-5.48,10.42a9.1,9.1,0,0,0-1.3-.62A8.7,8.7,0,0,0,87.24,998l-19.88,17.71a9,9,0,0,0-2,10.73c-2.66,3.25-9.79,4.06-13,4.26a1.8,1.8,0,0,0-1.52,2.52c.6,1.32,1.85,2.43,2.44,2.29s.77.29.94.7a1.77,1.77,0,0,1,0,1.32c-1.11,2.74,1.91,2.15,4.43,2.08,2,0,1.76,2.2,1.52,3.35a1.7,1.7,0,0,0,.5,1.62c1.27,1.16,3.24.31,4.37-.35a1.81,1.81,0,0,0,.88-1.43c.29-3.63,3.14-8.38,4.51-10.48a8.77,8.77,0,0,0,11-.47l19.87-17.71a9,9,0,0,0,1.4-11.68c3-2.71,9.69-2.84,12.75-2.75a1.71,1.71,0,0,0,1.64-2.33c-.5-1.36-1.67-2.56-2.25-2.48s-.75-.35-.88-.77a1.65,1.65,0,0,1,.1-1.29C115.37,990.2,112.36,990.5,109.88,990.33Z"/><path class="cls-45" d="M54.05,1035.76l.11-.08s6.33-5.64,13.5-6.29"/><path class="cls-45" d="M60.09,1040.29s-.44-5.37,8-11.06"/><path class="cls-45" d="M64.05,1027.61s5.16,2.14,6.29,4.84a13.75,13.75,0,0,0-4.76-6"/><path class="cls-45" d="M102.92,1002.67c-.9-1.86-5.62-5.8-5.62-5.8s5,1.86,6.71,4.26"/><path class="cls-46" d="M108.77,990.07s-7.39,3.27-7.12,9c4.83-6.32,12.75-4.34,12.75-4.34"/><g class="cls-47"><path class="cls-48" d="M52.38,1020.57s26.49-10,58.41,30.16"/><path class="cls-49" d="M59.59,1013.65s26.79-9.1,57.44,32"/><path class="cls-48" d="M69.55,1004s26.9-8.81,57.11,32.64"/><path class="cls-49" d="M77.05,997.41s27.16-7.94,56.07,34.44"/></g><path class="cls-43" d="M71.92,1014.31s-7.34,6.83-3.65,11.3c2,2.4,3.26,2.31,4,1.7A2.11,2.11,0,0,0,73,1025c-.59-1.77-1.53-5.71,1-7.27C77.33,1015.67,74.41,1012.16,71.92,1014.31Z"/><path class="cls-50" d="M22.61,1603.49l.21-.14s11.69-10.93,27.29-10.35"/><path class="cls-50" d="M37.8,1615.43s-3.16-12.24,13.1-22.69"/><path class="cls-50" d="M41.4,1588s12.27,6.3,15.87,12.72a47.9,47.9,0,0,0-13-15"/><path class="cls-50" d="M117.18,1542.76c-2.75-4.46-14.79-14.7-14.79-14.7s11.75,5.62,16.58,11.53"/><path class="cls-51" d="M125,1516s-15,5.28-12.08,18.27c8.11-12.89,26.41-6.18,26.41-6.18"/><path class="cls-52" d="M127.56,1516.9c-4.37-.86-4.48-5.7-4.25-8.11a5,5,0,0,0-1.54-3.8c-3.11-3.17-7.24-2.26-9.55-1.36a2.61,2.61,0,0,0-1.57,2.72c.36,8.68-5.82,18.86-7.86,22a28,28,0,0,0-3.13-1.77c-7-3.39-14.44-3.24-19.07,1.08l-36.74,34.31c-5.65,5.28-5.38,15.14,0,23.66-4.57,6.57-20,6.37-27,5.91-2.68-.18-3.92,2.56-2.34,5.24,1.86,3.16,5.08,6,6.33,5.88,1-.11,1.82.86,2.36,1.84a4.28,4.28,0,0,1,.48,3c-1.35,5.87,5.1,5.39,10.64,6,4.37.46,4.79,5.47,4.72,8a5.22,5.22,0,0,0,1.76,3.8c3.28,3,7.3,1.62,9.52.46a2.87,2.87,0,0,0,1.37-3c-.83-8.1,3.52-18,5.7-22.38,8.23,6.38,18.39,7.49,24.17,2.09l36.74-34.3c6.17-5.77,5.28-17-1.68-26,5.46-5.26,20.29-3.64,27.08-2.56,2.69.43,4.11-2.07,2.69-4.8-1.67-3.2-4.74-6.24-6-6.24-1,0-1.78-1-2.26-2a3.9,3.9,0,0,1-.3-2.88C139.63,1518.16,133.1,1518,127.56,1516.9Z"/><path class="cls-53" d="M127.56,1516.9c-4.37-.86-4.48-5.7-4.25-8.11a5,5,0,0,0-1.54-3.8c-3.11-3.17-7.24-2.26-9.55-1.36a2.61,2.61,0,0,0-1.57,2.72c.36,8.68-5.82,18.86-7.86,22a28,28,0,0,0-3.13-1.77c-7-3.39-14.44-3.24-19.07,1.08l-36.74,34.31c-5.65,5.28-5.38,15.14,0,23.66-4.57,6.57-20,6.37-27,5.91-2.68-.18-3.92,2.56-2.34,5.24,1.86,3.16,5.08,6,6.33,5.88,1-.11,1.82.86,2.36,1.84a4.28,4.28,0,0,1,.48,3c-1.35,5.87,5.1,5.39,10.64,6,4.37.46,4.79,5.47,4.72,8a5.22,5.22,0,0,0,1.76,3.8c3.28,3,7.3,1.62,9.52.46a2.87,2.87,0,0,0,1.37-3c-.83-8.1,3.52-18,5.7-22.38,8.23,6.38,18.39,7.49,24.17,2.09l36.74-34.3c6.17-5.77,5.28-17-1.68-26,5.46-5.26,20.29-3.64,27.08-2.56,2.69.43,4.11-2.07,2.69-4.8-1.67-3.2-4.74-6.24-6-6.24-1,0-1.78-1-2.26-2a3.9,3.9,0,0,1-.3-2.88C139.63,1518.16,133.1,1518,127.56,1516.9Z"/><path class="cls-50" d="M22.61,1603.49l.21-.14s11.69-10.93,27.29-10.35"/><path class="cls-50" d="M37.8,1615.43s-3.16-12.24,13.1-22.69"/><path class="cls-50" d="M41.4,1588s12.27,6.3,15.87,12.72a47.9,47.9,0,0,0-13-15"/><path class="cls-50" d="M117.18,1542.76c-2.75-4.46-14.79-14.7-14.79-14.7s11.75,5.62,16.58,11.53"/><path class="cls-51" d="M125,1516s-15,5.28-12.08,18.27c8.11-12.89,26.41-6.18,26.41-6.18"/><path class="cls-54" d="M59.37,1552.58s-20.48,14.64-12.72,26.77c4.15,6.5,7.41,6.64,9.55,5.37a5.2,5.2,0,0,0,2.32-5.52c-.89-4.53-2-14.51,4.91-17.62C72.43,1557.53,66.27,1548,59.37,1552.58Z"/><path class="cls-55" d="M172.7,2054l65.12,175.72A36.36,36.36,0,0,0,266.63,2254c27.48,4.34,77.44,4.28,135.31-32.95a41.53,41.53,0,0,0,18.87-38L407.3,1999S335.7,2088.65,172.7,2054Z"/><path class="cls-56" d="M168.81,2050.33s150.54,52.78,234.6-55l29.82-28.25S299.6,2031.82,212,2014.39Z"/><path class="cls-57" d="M430.93,1973.54l15.71,178.1a51.46,51.46,0,0,1-15.72,41.75c-12.12,11.56-26.87,25.13-32.14,27.94C389.24,2226.41,403,2000,403,2000Z"/><path class="cls-58" d="M168.81,2050.33,167,2075s124.63,58.86,246.79-54.8l-10.39-24.89S297.26,2093.1,168.81,2050.33Z"/><polygon class="cls-59" points="403.41 1995.35 433.23 1967.1 440.25 1977.6 413.8 2020.24 403.41 1995.35"/><path class="cls-60" d="M324.15,2006.18s6.11,22.07-12.37,42.81c0,0,36.79,135.79,31.83,194.42,0,0-21.2,6.24-38.54,8,0,0,17.58-87.5-23.45-195.24,0,0,29.25-34.62,32.31-47.48Z"/><path class="cls-61" d="M311.78,2049c18.48-20.74,12.37-42.81,12.37-42.81l-10.22,2.55c-3.06,12.86-32.31,47.48-32.31,47.48S307,2051.93,311.78,2049Z"/><path class="cls-61" d="M198,2026s80.7,26,216.64-40.9l-4.11,3.46s-110.29,76.22-226.28,48.88Z"/><path class="cls-60" d="M411,1989s30.42,139.47,3.74,215.15L436,2183.64s24.43-25.82-21.72-198.58l-3.35,3.17Z"/><path class="cls-62" d="M353.1,1978.13c-15-1.16-28.11,15.88-35.17,27.41h0c-16.65-3.84-22.46,5.36-22.46,5.36h0c-11.3-10.17-31.87-26.13-46.55-22.71-21.22,4.93-11.73,25.3-12.66,37.3s.66,29.44,16.32,23.79,41.55-6.16,48.05-17.45c11.94,6,22.2-2.18,22.2-2.18h0c11.82,7.91,35.1,5.26,51.48,8.29,17.49,3.23,12-13.92,6.2-25.43S375.69,1979.87,353.1,1978.13Z"/><path class="cls-63" d="M296.32,2011.33s-8.81,14.22,4.72,20.15"/><path class="cls-63" d="M318.24,2006.27s14.89,10,6.05,22.88"/><line class="cls-63" x1="293.78" y1="2018.08" x2="251.21" y2="2006.72"/><path class="cls-63" d="M293.6,2025.64s-15.4-1-25.91,6.07"/><path class="cls-63" d="M324.68,2009.24s2.29-9.64,14.14-10.9"/><path class="cls-63" d="M328.93,2018.55s37.81-12.76,45.85-.38"/><path class="cls-64" d="M121.53,1215.59,141.7,1270a11.25,11.25,0,0,0,8.93,7.54c8.51,1.35,24,1.33,41.91-10.2a12.89,12.89,0,0,0,5.84-11.76l-4.18-57S172,1226.33,121.53,1215.59Z"/><path class="cls-65" d="M120.33,1214.46s46.62,16.35,72.66-17l9.24-8.75s-41.39,20-68.52,14.65Z"/><path class="cls-66" d="M201.51,1190.68l4.87,55.16a15.93,15.93,0,0,1-4.87,12.93c-3.75,3.58-8.32,7.78-10,8.65-3,1.58,1.31-68.55,1.31-68.55Z"/><path class="cls-67" d="M120.33,1214.46l-.56,7.66s38.6,18.22,76.44-17l-3.22-7.71S160.11,1227.71,120.33,1214.46Z"/><polygon class="cls-67" points="192.99 1197.43 202.23 1188.68 204.4 1191.94 196.21 1205.14 192.99 1197.43"/><path class="cls-68" d="M168.44,1200.79a15,15,0,0,1-3.83,13.26s11.4,42,9.86,60.21a79.33,79.33,0,0,1-11.94,2.49s5.45-27.1-7.26-60.47c0,0,9.06-10.72,10-14.7Z"/><path class="cls-69" d="M164.61,1214.05a15,15,0,0,0,3.83-13.26l-3.16.79c-.95,4-10,14.7-10,14.7S163.12,1215,164.61,1214.05Z"/><path class="cls-69" d="M129.38,1206.93s25,8,67.1-12.67l-1.27,1.07s-34.16,23.61-70.09,15.14Z"/><path class="cls-68" d="M195.35,1195.47s9.42,43.19,1.16,66.63l6.57-6.35s7.57-8-6.73-61.5l-1,1Z"/><path class="cls-70" d="M177.41,1192.1c-4.66-.36-8.71,4.92-10.9,8.49h0c-5.16-1.19-6.95,1.66-6.95,1.66h0c-3.5-3.15-9.88-8.09-14.42-7-6.57,1.52-3.63,7.83-3.92,11.55s.2,9.12,5.05,7.37,12.87-1.91,14.88-5.41a6.71,6.71,0,0,0,6.88-.67h0c3.66,2.45,10.87,1.63,15.94,2.56,5.42,1,3.71-4.31,1.92-7.87S184.4,1192.64,177.41,1192.1Z"/><path class="cls-71" d="M159.82,1202.38s-2.73,4.41,1.46,6.24"/><path class="cls-71" d="M166.61,1200.82s4.61,3.11,1.87,7.08"/><line class="cls-71" x1="159.03" y1="1204.47" x2="145.85" y2="1200.96"/><path class="cls-71" d="M159,1206.81s-4.77-.29-8,1.88"/><path class="cls-71" d="M168.61,1201.74a4.83,4.83,0,0,1,4.38-3.38"/><path class="cls-71" d="M169.92,1204.62s11.71-3.95,14.2-.12"/><path class="cls-72" d="M521.68,1977.63c-4.8-6.63,3.17-11.21,7.54-13.12a7.07,7.07,0,0,0,4.2-5.54c.87-7.07-6.56-11.75-11.36-14a7.25,7.25,0,0,0-6.81.42c-14.05,8.44-40,9.53-48.09,9.67a36.95,36.95,0,0,0-30.53-30.29l-110-17.55A37,37,0,0,0,286.93,1929c-17.55-.06-39.25-20.86-48.43-30.59a7.54,7.54,0,0,0-12.15,1.68c-2.65,5.39-2.85,12.31-.84,13.86,1.65,1.26,1.16,3.22.28,4.84a7.23,7.23,0,0,1-4.29,3.37c-11.78,3.58-1.77,11.76,5.17,19.7,5.47,6.25-2.34,11.41-6.68,13.64a7,7,0,0,0-3.85,5.83c-.32,7.12,7.69,11.24,12.81,13.14a7.58,7.58,0,0,0,7-.92c12.42-8.54,35.27-11.83,45.72-12.93a37,37,0,0,0,31,34.2l110,17.56a37,37,0,0,0,41.2-26.09c16.61,2.46,35.07,23.75,42.95,33.81a7.21,7.21,0,0,0,11.89-.81c3-5.18,3.73-12.06,1.91-13.74-1.49-1.38-.86-3.3.11-4.85a7.07,7.07,0,0,1,4.42-3C536.81,1994.91,527.78,1986,521.68,1977.63Z"/><path class="cls-73" d="M226.49,1917l.53.14s35,5.59,56.33,27"/><path class="cls-73" d="M228.13,1948.25s16-15.46,56.78-3.34"/><path class="cls-73" d="M279.4,1927.82s6.94,22.18,1.31,32.88c8.52-14.73,6.65-31.13,6.65-31.13"/><path class="cls-73" d="M463.46,1987.52c3.55-7.76,3.56-33.25,3.56-33.25s7.34,20.86,4.32,32.73"/><path class="cls-42" d="M519.56,1973.36s-30.29-15.21-47.91.65c33.22-1,48.06,29.59,48.06,29.59"/><path class="cls-73" d="M226.49,1917l.53.14s35,5.59,56.33,27"/><path class="cls-73" d="M228.13,1948.25s16-15.46,56.78-3.34"/><path class="cls-73" d="M279.4,1927.82s6.94,22.18,1.31,32.88c8.52-14.73,6.65-31.13,6.65-31.13"/><path class="cls-73" d="M463.46,1987.52c3.55-7.76,3.56-33.25,3.56-33.25s7.34,20.86,4.32,32.73"/><path class="cls-42" d="M519.56,1973.36s-30.29-15.21-47.91.65c33.22-1,48.06,29.59,48.06,29.59"/><path class="cls-29" d="M521.68,1977.63c-4.8-6.63,3.17-11.21,7.54-13.12a7.07,7.07,0,0,0,4.2-5.54c.87-7.07-6.56-11.75-11.36-14a7.25,7.25,0,0,0-6.81.42c-14.05,8.44-40,9.53-48.09,9.67a36.95,36.95,0,0,0-30.53-30.29l-110-17.55A37,37,0,0,0,286.93,1929c-17.55-.06-39.25-20.86-48.43-30.59a7.54,7.54,0,0,0-12.15,1.68c-2.65,5.39-2.85,12.31-.84,13.86,1.65,1.26,1.16,3.22.28,4.84a7.23,7.23,0,0,1-4.29,3.37c-11.78,3.58-1.77,11.76,5.17,19.7,5.47,6.25-2.34,11.41-6.68,13.64a7,7,0,0,0-3.85,5.83c-.32,7.12,7.69,11.24,12.81,13.14a7.58,7.58,0,0,0,7-.92c12.42-8.54,35.27-11.83,45.72-12.93a37,37,0,0,0,31,34.2l110,17.56a37,37,0,0,0,41.2-26.09c16.61,2.46,35.07,23.75,42.95,33.81a7.21,7.21,0,0,0,11.89-.81c3-5.18,3.73-12.06,1.91-13.74-1.49-1.38-.86-3.3.11-4.85a7.07,7.07,0,0,1,4.42-3C536.81,1994.91,527.78,1986,521.68,1977.63Z"/><path class="cls-74" d="M334.61,1912.28s-40.56,1.69-40.8,24.9c-.13,12.43,4.15,15.5,8.15,15.68a8.44,8.44,0,0,0,8-5.41c2.79-6.9,10.13-21.33,22.16-19.44C347.87,1930.48,348,1912.21,334.61,1912.28Z"/><path class="cls-75" d="M-132.13,2087.46c.65,6.81,3.79,16.78,8.8,21.44,10.74,10,36.49,31.36,50.71,56.83,18.34,32.84,151.06,126.6,247,94.06l33.09-14.87s18.28-7.56,29.76-2.8,32.74-10,24.34-30.28c0,0-3.36-8.12-15.54-3.08,0,0-3.5-20-20.13-28.54,0,0,1.71-25.54-20.06-37.93,0,0-.05-33.49-18.1-43.77,0,0-6.78-30.7-31.56-38.19,0,0-18.1-43.76-44.63-26.88,0,0-24.83-41-45.78-10.63,0,0-21.39-37-47.77-5.87,0,0-10.32-15.44-35.86-.94-7.28,5.39-12.66,17.06-12.66,17.06s-26.52-2.21-31.15,21.11c0,0-4.55-5.25-18.63,12.46,0,0-3.47.24-13.38,7.91,0,0-10.67,8.76-18.61-5.69C-118.68,2060.6-132.9,2071.47-132.13,2087.46Z"/><path class="cls-37" d="M245.85,2211.21s-3.1-27.58-24.37-32.21a26,26,0,0,0-12.11.68c-3,.78-11.54,2.07-20.83-10.76"/><path class="cls-37" d="M223.53,2180.3s5.35-23.24-12.41-37.34c-10.32-7.65-13.55-3.94-21.93-4.05s-17.52-10.64-17.52-10.64"/><path class="cls-37" d="M204.52,2138.54s4.67-51.91-34.48-42.91a23.88,23.88,0,0,1-16.77-.23"/><path class="cls-37" d="M185.37,2095.26s-11.51-53.57-55.42-33.09c-12.21,5-15.43,8.74-15.43,8.74"/><path class="cls-37" d="M153.42,2058.45s-11-46.63-49.17-23.76c0,0-21.88,16.15-27,12.33"/><path class="cls-37" d="M110.35,2032.17s-18.9-39.81-46.14-10.73c0,0-14.09,17.71-21.88,16.16"/><path class="cls-37" d="M64.21,2021.44s-7.84-21.76-29.28-18.88c-11.61,3.6-27.49,25.61-27.49,25.61s-4.76,11.49-19.15,5.52"/><path class="cls-37" d="M17.12,2017.05s-11.91-20.09-39,.62c0,0-11.11,10.53-8.68,25,0,0-.45,13.27-3.68,17"/><path class="cls-37" d="M-81.57,2072s1.86-2.14-3.23-1.23a17.07,17.07,0,0,0-9.5,5.48,7.9,7.9,0,0,1-9.42,2.22,11.77,11.77,0,0,1-6.21-6.4c-2-4.8-7.43-12.39-17.81,3.49-13.85,21.17,9.07,39.1,9.07,39.1A90.87,90.87,0,0,1-88,2142.5c12.5,18.65,40.53,69,138.12,106.1s148.26.1,148.26.1,28.42-11.77,35-7.35c12.91,5.36,25.69-1.11,30.48-20.16-1.87-28.54-28.28-5-28.28-5s-10.7,11.54-31.48-15.59"/><path class="cls-76" d="M49.65,2019.11A7.18,7.18,0,0,0,42.2,2010c-6.13.42-16,4.29-29.3,19.58C1.64,2043.27,44.36,2037.11,49.65,2019.11Z"/><path class="cls-76" d="M93.15,2024.75a7.17,7.17,0,0,0-7.45-9.16c-6.12.42-16,4.29-29.29,19.58C45.15,2048.91,87.86,2042.75,93.15,2024.75Z"/><path class="cls-76" d="M134.58,2045.1a7.17,7.17,0,0,0-5.73-10.32c-6.1-.66-16.47,1.42-32.27,14.13C83.08,2060.46,126.21,2061.89,134.58,2045.1Z"/><path class="cls-76" d="M2.54,2019.25a5.09,5.09,0,0,0-5.3-6.5c-4.35.29-11.34,3-20.81,13.9C-31.57,2036.42-1.22,2032,2.54,2019.25Z"/><path class="cls-75" d="M237.45,875.35a4.54,4.54,0,0,0,2.26,1.46c1.68.24,5.55.57,8.59,2.05,3.92,1.91,22.76,2.06,29.74-7.39l2.17-3.6s1.24-1.93,2.65-2.24,2.45-3.11.31-4.49c0,0-.86-.55-1.68.74a5,5,0,0,0-3.81-1.39,4.92,4.92,0,0,0-4.42-2.28s-2.22-3.19-4.62-3c0,0-2.67-2.48-5.53-1.55,0,0-4.62-3-6,.39,0,0-5.07-2.26-5.06,2,0,0-4.48-2.11-4.94,2.6,0,0-2-.79-3.47,2.28a6,6,0,0,0-.08,2.46s-2.67,1.55-1.57,4.07c0,0-.78-.19-1,2.42a4.08,4.08,0,0,0-.75,1.64s-.43,1.54-2.15.69C237,871.9,236.32,873.87,237.45,875.35Z"/><path class="cls-77" d="M281.63,862.12s-2.12-2.42-4.45-1.45a3,3,0,0,0-1.11.86c-.23.27-1,1-2.69.36"/><path class="cls-77" d="M277.46,860.65a4.54,4.54,0,0,0-3.65-2.73c-1.49,0-1.55.52-2.36,1.06a3.62,3.62,0,0,1-2.37.15"/><path class="cls-77" d="M272.89,857.94s-3-5.26-6.12-1.81a2.8,2.8,0,0,1-1.62,1.09"/><path class="cls-77" d="M268.2,855.08s-4.64-4.34-7.46.52a5.33,5.33,0,0,0-.9,1.85"/><path class="cls-77" d="M262.72,853.69s-4.13-3.71-6.25,1c0,0-1,3-1.76,3"/><path class="cls-77" d="M256.88,854s-4.43-2.54-5.1,2c0,0-.17,2.62-1,3"/><path class="cls-77" d="M251.78,856.07s-2.19-1.55-4,.14c-.86,1.11-.92,4.26-.92,4.26s.31,1.4-1.46,1.79"/><path class="cls-77" d="M247,858.77s-2.47-1.13-3.68,2.64a3.52,3.52,0,0,0,.83,3,4.89,4.89,0,0,1,.77,1.86"/><path class="cls-77" d="M243.54,863.21a3.29,3.29,0,0,0-1.42,4.55s1.7,1.84,1.71,2.76a5.5,5.5,0,0,1-.08,1.31"/><path class="cls-77" d="M242.12,867.76s-1.53-.22-.91,2.59c0,0,1.58,3.9-.14,4.46"/><path class="cls-77" d="M241.25,870.53s0-.33-.39.1a2,2,0,0,0-.55,1.15.91.91,0,0,1-.75.83,1.35,1.35,0,0,1-1-.2c-.51-.32-1.53-.69-1.47,1.51.09,2.93,3.46,3.12,3.46,3.12a10.52,10.52,0,0,1,4.75.63c2.43,1,8.43,3.89,20.17,1s14.13-9.8,14.13-9.8,1.92-3,2.85-3c1.58-.35,2.37-1.81,1.56-3.94-2.06-2.59-3,1.4-3,1.4s-.25,1.8-4,.59"/><path class="cls-76" d="M250.24,856.81a.84.84,0,0,0-1.32-.38c-.55.45-1.23,1.47-1.49,3.8C247.27,862.29,250.93,858.87,250.24,856.81Z"/><path class="cls-76" d="M254.76,854.47a.84.84,0,0,0-1.32-.38c-.56.45-1.24,1.47-1.49,3.8C251.78,860,255.44,856.53,254.76,854.47Z"/><path class="cls-76" d="M260.05,853.67a.84.84,0,0,0-1.23-.61c-.63.34-1.48,1.23-2.14,3.48C256.16,858.54,260.36,855.82,260.05,853.67Z"/><path class="cls-76" d="M245.76,859.94a.59.59,0,0,0-.93-.27,3.87,3.87,0,0,0-1.06,2.7C243.65,863.83,246.25,861.41,245.76,859.94Z"/><path class="cls-76" d="M243.34,864.94a.41.41,0,0,0-.67,0,2.65,2.65,0,0,0-.26,2C242.57,867.88,243.9,865.84,243.34,864.94Z"/><polygon class="cls-78" points="141.24 1382.56 87.7 1371.13 64.91 1390.48 95.42 1466.07 154.14 1409.54 141.24 1382.56"/><polyline class="cls-78" points="105.66 1374.44 90.63 1398.7 95.13 1464.98 126.32 1406.33 123.5 1378.25"/><polygon class="cls-79" points="66.8 1391.72 86.54 1398.28 74.98 1386.42 66.8 1391.72"/><polygon class="cls-79" points="93.13 1399.82 124.57 1406.54 96.81 1393.56 93.13 1399.82"/><polygon class="cls-79" points="129.06 1407.5 152.01 1410.05 128.26 1400.28 129.06 1407.5"/><polygon class="cls-80" points="88.96 1408.33 92.04 1448.91 75.96 1403.2 88.96 1408.33"/><polygon class="cls-80" points="122.65 1415.52 103.27 1451.31 136.61 1416.15 122.65 1415.52"/><polygon class="cls-81" points="141.24 1382.56 87.7 1371.13 64.91 1390.48 95.42 1466.07 154.14 1409.54 141.24 1382.56"/><path class="cls-82" d="M430.55,1641.39s15.62-64.79-137.17-43.44c0,0-107.37,14.75-126.74,42.17l-32.15-17s118.31-63.86,254.07-46.57C388.56,1576.52,467.12,1590.39,430.55,1641.39Z"/><path class="cls-83" d="M77.61,1646.5a55.74,55.74,0,1,0,100.73,12.08l6.14-10.11a11.53,11.53,0,0,0-3.87-15.83l-40.2-24.41a11.52,11.52,0,0,0-15.83,3.87l-4.81,7.92A55.56,55.56,0,0,0,77.61,1646.5Zm56.94-23.19c2.28-3.76,12-2,21.83,3.93s15.84,13.8,13.56,17.56-12.06,2-21.83-3.94S132.26,1627.07,134.55,1623.31Z"/><path class="cls-39" d="M86.57,1653a46,46,0,1,0,84.05,19.61"/><path class="cls-84" d="M101,1679.62a26.13,26.13,0,0,1,2.07,1.89,11.19,11.19,0,0,0,1.19,1.09q2.89,2.13,6.69-2.11,2.15-2.41,11.06-14.53a4.32,4.32,0,0,0,1.13-3.11,4.89,4.89,0,0,0-2.2-2.71,13.87,13.87,0,0,0-1.44-.9c-.48-.29-.9-.56-1.24-.81a3.42,3.42,0,0,1-1.41-2,2.64,2.64,0,0,1,.5-2.18,3.87,3.87,0,0,1,2.68-1.36,12,12,0,0,1,4.42.34,64.54,64.54,0,0,1,23.5,11,12.16,12.16,0,0,1,3.79,3.87,2.9,2.9,0,0,1-.29,3.22,2.47,2.47,0,0,1-1.46,1,6.65,6.65,0,0,1-2.56-.23c-1.86-.42-3.21-.27-4.07.47s-3.55,4.07-8.09,10c-4.29,6.21-6.58,9.55-6.88,10a17.24,17.24,0,0,0-1,2,4.59,4.59,0,0,0-.3,3.61,11.33,11.33,0,0,0,3.35,3.72q3.1,2.49,1.27,5t-7,.07a91.42,91.42,0,0,1-13.76-8.39A78,78,0,0,1,103,1692a46.47,46.47,0,0,1-6.33-7.23c-1.28-1.92-1.46-3.52-.52-4.79a2.83,2.83,0,0,1,2.15-1.14A4,4,0,0,1,101,1679.62Z"/><path class="cls-85" d="M134.49,1623.09s235.31,138.3,295.83,18.61a109.39,109.39,0,0,0,6.12-14.78,26.86,26.86,0,0,0,1.11-4.41c4.76-31-49-46-49-46s75.43,8.18,75.78,69c.2,35-22.7,66.2-56,77-81.61,26.53-217.08-40.4-240.8-76.13Z"/></g><g class="cls-4"><path class="cls-5" d="M1377.84,1945.73h0s-23.65,19.08,34.78,70.42a108.06,108.06,0,0,0,15.91,11.57c26.6,15.88,27.92,18.61,37.35,33.84,4.46,6.48,18.52,11.42,23.91-6.89s3.46-72.58,3.46-72.58L1426.08,1944l-24.23-2.16Z"/><path class="cls-5" d="M1468.73,1746s27.9-76.8,133.4,20.29c40.59,37.81,46.83,43.63,91.13,66.81s74.81,83.09,19.47,123.09Z"/><ellipse class="cls-86" cx="1512.85" cy="1726.28" rx="15.52" ry="39.81" transform="translate(-488.51 2850.25) rotate(-78.09)"/><path class="cls-73" d="M1487.65,1719.46s29.63-5.93,41.55,8.79c4.22,7.2-7.71,7.12-15.92,6.31a38.79,38.79,0,0,1-13.49-3.86c-4.88-2.61-8-9.23,5.33-5.28"/><ellipse class="cls-87" cx="1561.53" cy="1742.36" rx="10.61" ry="27.23" transform="translate(-777.17 1810.65) rotate(-49.81)"/><path class="cls-73" d="M1548.57,1730.09s19.77,6,22.18,18.76c.2,5.7-7,1.79-11.64-1.36a26.41,26.41,0,0,1-6.88-6.7c-2.09-3.15-1.83-8.16,4.92-1.45"/><ellipse class="cls-88" cx="1588.89" cy="1772.05" rx="13.59" ry="34.86" transform="translate(-774.04 2057.18) rotate(-55)"/><path class="cls-73" d="M1570.93,1757.9s25.9,5.4,30.46,21.35c.92,7.26-8.66,3.09-15-.38a33.83,33.83,0,0,1-9.54-7.74c-3-3.78-3.29-10.2,6.1-2.43"/><ellipse class="cls-89" cx="1600.09" cy="1796.92" rx="10.53" ry="27.01" transform="translate(-754.49 2292.04) rotate(-60.19)"/><path class="cls-73" d="M1585.24,1787.26s20.37,2.35,25,14.34c1.22,5.53-6.47,3-11.6.76a26.25,26.25,0,0,1-7.91-5.31c-2.61-2.7-3.25-7.63,4.54-2.3"/><ellipse class="cls-86" cx="1642.02" cy="1807.06" rx="12.91" ry="33.11" transform="translate(-796.93 1922.11) rotate(-50.44)"/><path class="cls-73" d="M1626.08,1792.31s24.12,7.06,27.22,22.51c.33,6.94-8.43,2.27-14.16-1.49a32.21,32.21,0,0,1-8.45-8c-2.59-3.81-2.35-9.9,6-1.84"/><ellipse class="cls-90" cx="1678.71" cy="1837.15" rx="12.91" ry="33.11" transform="translate(-641.9 2736.02) rotate(-68.75)"/><path class="cls-73" d="M1659,1828.16s25.11-.88,32.91,12.82c2.49,6.48-7.29,4.8-13.91,3a32.33,32.33,0,0,1-10.56-5c-3.65-2.8-5.33-8.66,5.09-3.61"/><ellipse class="cls-86" cx="1717.19" cy="1866.58" rx="12.91" ry="33.11" transform="translate(-819.11 1873.36) rotate(-47.54)"/><path class="cls-73" d="M1702,1851.05s23.73,8.27,26,23.85c0,6.95-8.53,1.85-14.07-2.2a32,32,0,0,1-8-8.47c-2.4-3.94-1.85-10,6-1.53"/><ellipse class="cls-88" cx="1727.4" cy="1899.39" rx="10.7" ry="27.45" transform="translate(-840 1891.55) rotate(-47.54)"/><path class="cls-73" d="M1714.82,1886.51s19.68,6.86,21.6,19.78c0,5.76-7.08,1.53-11.67-1.83a27,27,0,0,1-6.66-7c-2-3.27-1.52-8.3,5-1.27"/><ellipse class="cls-91" cx="1630.14" cy="1825.01" rx="10.55" ry="27.06" transform="translate(-730.33 2470.13) rotate(-63.51)"/><path class="cls-73" d="M1614.73,1816.21s20.51,1.16,25.83,12.89c1.55,5.46-6.29,3.37-11.55,1.43a26.37,26.37,0,0,1-8.22-4.85c-2.76-2.55-3.69-7.45,4.41-2.56"/><path class="cls-20" d="M1492.66,2044.35c-.63-15.79-6.87-44.13-42.54-50.49-17.26-3.08-28.68-9.09-33-17.37a17.94,17.94,0,0,1-.82-14.7,1.22,1.22,0,0,0,.07-.17,11.18,11.18,0,0,0-1.52-9.81c-3.57-5.15-11.39-8.08-23.26-8.73l97.2-37.76a2.5,2.5,0,0,0,1.44-1.46l.16-.42a2.41,2.41,0,0,0,.13-1.19l-19.57-149.5a18.33,18.33,0,0,1,13.7-20.16,96.77,96.77,0,0,1,23.58-3.06c28.08,0,49.48,13.63,63.59,40.52,29.31,55.82,75.79,70.49,94.42,74.2a52.9,52.9,0,0,1,13.34,4.61c16.37,8.22,54.46,29.82,54.62,52.63a2.71,2.71,0,0,0,0,.4c0,.29,4.79,30-8.12,45.25-5,5.91-12.2,8.91-21.34,8.91h0a49.2,49.2,0,0,1-5-.27c-34.85-3.68-101.71-6.14-138.46-7.29h-.77a24.74,24.74,0,0,0-21.6,12.71Z"/><path class="cls-5" d="M1508.2,1732c27.08,0,47.73,13.19,61.38,39.18,29.8,56.78,77.16,71.71,96.14,75.49a50.16,50.16,0,0,1,12.71,4.39c12.45,6.26,53.09,28.39,53.24,50.42a5,5,0,0,0,.07.78c0,.29,4.59,28.91-7.56,43.24-4.59,5.4-10.94,8-19.44,8a43.93,43.93,0,0,1-4.77-.26c-34.94-3.69-101.87-6.15-138.65-7.29l-.85,0a27.24,27.24,0,0,0-23.78,14l-42.23,76a64,64,0,0,0-1.93-8.69c-4.08-13.69-14.67-31-42-35.89-16.37-2.91-27.15-8.42-31.18-15.92a15.41,15.41,0,0,1-.83-12.64c.06-.14.08-.19.13-.33a13.59,13.59,0,0,0-1.8-12.12c-2.87-4.12-8-7-15.24-8.53l88-34.2a5,5,0,0,0,2.88-2.92l.15-.42a5,5,0,0,0,.27-2.39l-19.57-149.49a15.84,15.84,0,0,1,11.83-17.42,94.7,94.7,0,0,1,23-3m0-5a100,100,0,0,0-24.19,3.13,20.84,20.84,0,0,0-15.57,22.92L1488,1902.57l-.15.42-110,42.74c3.05-.19,5.85-.28,8.42-.28,33.45,0,27.74,15.3,27.74,15.3s-12.33,27,35.68,35.57,40.11,58.35,40.11,58.35l51.27-92.26a22.2,22.2,0,0,1,19.41-11.43h.69c33.09,1,102.81,3.53,138.28,7.27a49.32,49.32,0,0,0,5.3.29c41.44,0,31.93-57.07,31.93-57.07-.16-24.11-38.71-46.17-56-54.86a55.39,55.39,0,0,0-14-4.82c-16.29-3.25-63.46-17.22-92.7-72.91-17.5-33.34-43.64-41.86-65.8-41.86Z"/><path class="cls-92" d="M1664.66,1843.77s-76.75,10.74-130.83,71.45"/><path class="cls-92" d="M1422,1982.2s41.22-12.33,95.14-75.23c50.44-58.83,40.33-156.61,40.33-156.61"/><g class="cls-93"><path class="cls-94" d="M1487.45,1903.8s54.28-1.93,58.45,47.44"/></g><path class="cls-5" d="M1508.2,1732c27.08,0,47.73,13.19,61.38,39.18,29.8,56.78,77.16,71.71,96.14,75.49a50.16,50.16,0,0,1,12.71,4.39c12.45,6.26,53.09,28.39,53.24,50.42a5,5,0,0,0,.07.78c0,.29,4.59,28.91-7.56,43.24-4.59,5.4-10.94,8-19.44,8a43.93,43.93,0,0,1-4.77-.26c-34.94-3.69-101.87-6.15-138.65-7.29l-.85,0a27.24,27.24,0,0,0-23.78,14l-42.23,76a64,64,0,0,0-1.93-8.69c-4.08-13.69-14.67-31-42-35.89-16.37-2.91-27.15-8.42-31.18-15.92a15.41,15.41,0,0,1-.83-12.64c.06-.14.08-.19.13-.33a13.59,13.59,0,0,0-1.8-12.12c-2.87-4.12-8-7-15.24-8.53l88-34.2a5,5,0,0,0,2.88-2.92l.15-.42a5,5,0,0,0,.27-2.39l-19.57-149.49a15.84,15.84,0,0,1,11.83-17.42,94.7,94.7,0,0,1,23-3m0-5a100,100,0,0,0-24.19,3.13,20.84,20.84,0,0,0-15.57,22.92L1488,1902.57l-.15.42-110,42.74c3.05-.19,5.85-.28,8.42-.28,33.45,0,27.74,15.3,27.74,15.3s-12.33,27,35.68,35.57,40.11,58.35,40.11,58.35l51.27-92.26a22.2,22.2,0,0,1,19.41-11.43h.69c33.09,1,102.81,3.53,138.28,7.27a49.32,49.32,0,0,0,5.3.29c41.44,0,31.93-57.07,31.93-57.07-.16-24.11-38.71-46.17-56-54.86a55.39,55.39,0,0,0-14-4.82c-16.29-3.25-63.46-17.22-92.7-72.91-17.5-33.34-43.64-41.86-65.8-41.86Z"/><path class="cls-92" d="M1489.76,1903.81s43.38-5.86,78.36,44.22"/><path class="cls-24" d="M1490.59,1753.94l7.64,116.08a18.37,18.37,0,0,0,2.45,8.17c2.66,4.51,7,7.18,9.4-17.46,3-31.93-7-90.88-9.85-106.34a15.7,15.7,0,0,0-4.64-8.73C1492.86,1743.11,1489.84,1742.58,1490.59,1753.94Z"/><path class="cls-24" d="M1651.89,1862.32l-90,48.82a18.61,18.61,0,0,1-8,2.11c-5.63.26-11.47-1.54,4.09-14.66,20.16-17,71.44-37.48,85-42.74a20.07,20.07,0,0,1,10.42-.86C1657.61,1855.69,1660.7,1857.54,1651.89,1862.32Z"/><path class="cls-24" d="M1524.53,1941.06l-41.18,53a12.27,12.27,0,0,1-4.28,3.39c-3.3,1.63-7.28,2.08-1.4-9.87,7.63-15.5,33-41.27,39.78-48a13.12,13.12,0,0,1,6-3.25C1526.22,1935.58,1528.57,1935.88,1524.53,1941.06Z"/><path class="cls-24" d="M1478.69,1922.15l-48.93,25.37a9.93,9.93,0,0,1-4.35,1.06c-3,.08-6.16-.94,2.34-7.85,11-8.94,38.81-19.45,46.18-22.15a10.8,10.8,0,0,1,5.61-.36C1481.83,1918.64,1483.48,1919.67,1478.69,1922.15Z"/><polygon class="cls-95" points="1708.32 2129.28 1644.86 2083.37 1571.07 2109.62 1595.12 2035.08 1547.36 1973.01 1625.68 1972.86 1669.95 1908.25 1694.3 1982.69 1769.43 2004.83 1706.16 2050.99 1708.32 2129.28"/><ellipse class="cls-96" cx="1653.9" cy="1954.06" rx="29.09" ry="5.82" transform="translate(-846.23 2504.61) rotate(-62.17)"/><ellipse class="cls-96" cx="1594.59" cy="1986.68" rx="5.82" ry="29.09" transform="translate(-501.81 3434) rotate(-85.87)"/><polygon class="cls-97" points="2016.65 1796.24 1938.76 1788.03 1887.84 1847.53 1871.58 1770.92 1799.25 1740.88 1867.09 1701.74 1873.31 1623.67 1931.5 1676.09 2007.67 1657.88 1975.79 1729.42 2016.65 1796.24"/><ellipse class="cls-98" cx="1882.21" cy="1671.39" rx="5.82" ry="29.09" transform="matrix(1, -0.04, 0.04, 1, -58.31, 68.06)"/><ellipse class="cls-98" cx="1847.02" cy="1729.21" rx="29.09" ry="5.82" transform="translate(-567.63 973.48) rotate(-25.73)"/><ellipse class="cls-99" cx="1960.36" cy="2142.21" rx="88.69" ry="32.92" transform="translate(-774.32 1165.69) rotate(-27.89)"/><ellipse class="cls-29" cx="1958.18" cy="2139.76" rx="70.1" ry="26.01" transform="translate(-773.43 1164.39) rotate(-27.89)"/><path class="cls-100" d="M1902.55,2019s26,62.65,87.08,93.23a12.24,12.24,0,0,1,3.63,19.2c-11.17,12.29-31.91,29.26-63.32,32.86a12.23,12.23,0,0,1-13.7-12.58c.9-21.78-1.34-68.44-28.59-124.83"/><path class="cls-99" d="M1963.47,1793.15c-23.64-1-37.44,24.51-42.21,35.32q-5.34-12.56-11.93-25.06-4.9-9.26-10.24-18c-17.69,24-50.36,50.62-91.34,72.31s-81.39,33.71-111.17,34.86q4.2,9.3,9.09,18.56,6.43,12.16,13.63,23.36c-12.27-2.1-39.75-4.25-51.8,15.24-14.44,23.34,66.21,72.9,105.72,48.19,43,37.34,89.13,49.54,124.92,30.6s50.22-64.35,43.52-120.94C1985,1889.64,1991.05,1794.35,1963.47,1793.15Zm-229.22,181.07c-1.62,4.4-12.58,4.42-24.47,0s-20.23-11.49-18.61-15.89,12.58-4.42,24.48,0S1735.87,1969.82,1734.25,1974.22Zm225.68-132.33c-3.07,12.29-9.24,21.34-13.79,20.21s-5.75-12-2.68-24.33,9.24-21.34,13.79-20.21S1963,1829.59,1959.93,1841.89Z"/><ellipse class="cls-100" cx="1797.81" cy="1838.99" rx="114.68" ry="33.98" transform="translate(-651.38 1054.46) rotate(-27.89)"/><path class="cls-84" d="M1838.26,1970.46c.41-.2,1.41-.57,3-1.11a12.42,12.42,0,0,0,1.73-.64q3.68-1.83,1.37-7.9-1.33-3.43-9-18.84c-.78-1.55-1.63-2.48-2.56-2.77s-2.24,0-3.92.81c-.4.2-1,.53-1.66,1a15.33,15.33,0,0,1-1.47.84,3.88,3.88,0,0,1-2.78.38,3,3,0,0,1-2-1.65,4.33,4.33,0,0,1,0-3.43,13.36,13.36,0,0,1,2.66-4.31,73.56,73.56,0,0,1,23.47-18.1,14.11,14.11,0,0,1,5.91-1.83,3.32,3.32,0,0,1,3.11,2,2.88,2.88,0,0,1,.31,2,7.73,7.73,0,0,1-1.58,2.48c-1.4,1.67-2,3.12-1.65,4.38s2.26,5.73,5.91,13.45q6.09,11.41,6.54,12.22a18.68,18.68,0,0,0,1.48,2.12,5.25,5.25,0,0,0,3.52,2.2,12.92,12.92,0,0,0,5.53-1.45c2.77-1.23,4.67-.79,5.72,1.31s-.12,4.59-3.61,7.18a104.7,104.7,0,0,1-15.73,9.58,90.82,90.82,0,0,1-10.79,4.54,55.74,55.74,0,0,1-10.66,2.64q-3.93.43-5.13-2a3.22,3.22,0,0,1,0-2.78A4.56,4.56,0,0,1,1838.26,1970.46Z"/><path class="cls-29" d="M1716.83,1934.69s129.26,13.66,203.41-106.39"/><path class="cls-29" d="M1773.22,1998s102.34,9.51,168.69-89.87"/><path class="cls-101" d="M1681.3,1951a5.46,5.46,0,0,1,1.81,4.2c0,3.25.69,10.57,8,13.3,3.42,1,3.77,16.11-12,.65C1670.8,1961.62,1675.91,1946.24,1681.3,1951Z"/><path class="cls-102" d="M1776.8,1968c19.39,12.3,64.5,38.54,86.9,32,21.16-3,21.77,31.42-18.12,24.18-29.83-5.41-58.65-37.51-71.3-53.37A1.91,1.91,0,0,1,1776.8,1968Z"/><path class="cls-103" d="M1627.34,1527.11c1-3.78,5.16-2.26,7.22-1.24a3.44,3.44,0,0,0,3.35-.15c2.92-1.84,2.38-6,1.75-8.45a3.45,3.45,0,0,0-2.25-2.37c-7.47-2.58-15.85-11.75-18.4-14.69a16.7,16.7,0,0,0,1.71-2.32,17.42,17.42,0,0,0,.21-18.13L1593.65,1434a18,18,0,0,0-20.34-7.89c-5.37-6.46-4.27-20.77-3.46-27.11a3.61,3.61,0,0,0-4.37-3.94c-2.83.67-5.47,2.72-5.43,3.92,0,1-.85,1.41-1.72,1.59a3.54,3.54,0,0,1-2.58-.55c-5-3.23-4.94,2.94-5.77,7.91-.65,3.92-5,2.63-7.15,1.72a3.44,3.44,0,0,0-3.37.37c-2.76,2.06-1.83,6.25-1,8.71A3.66,3.66,0,0,0,1541,1421c7,2,15.27,9.33,18.9,12.82a17.53,17.53,0,0,0-3.25,21.82l27.28,45.72a18,18,0,0,0,22.42,7.15c4.19,6.84,1.91,20.12.58,26.08a3.44,3.44,0,0,0,4,4.11c2.85-.48,5.65-2.31,5.72-3.49.06-1,1-1.33,1.84-1.44a3.44,3.44,0,0,1,2.5.68C1625.53,1537.94,1626.07,1531.91,1627.34,1527.11Z"/><path class="cls-104" d="M1559.2,1400.31l.11.24s8.69,14.56,7.26,28.9"/><path class="cls-104" d="M1548,1410.46s10.71,1.16,18.71,19.8"/><path class="cls-104" d="M1571.43,1423s-6.15,9.32-11.88,10.52a27.48,27.48,0,0,0,13.67-7.07"/><path class="cls-104" d="M1605.73,1508.77c4-1.07,13.52-8.84,13.52-8.84s-5.54,9.06-10.9,11.58"/><path class="cls-105" d="M1628.28,1525s-3.64-15.76-15-17.38c10.59,11.88,3.73,26.67,3.73,26.67"/><g class="cls-106"><path class="cls-107" d="M1589.66,1402.76s9.56,55.78-81.29,103.33"/><path class="cls-108" d="M1600.54,1419.53s7.75,56.06-84.58,100.74"/><path class="cls-107" d="M1615.71,1442.74s7.14,56.14-85.67,99.84"/><path class="cls-108" d="M1625.84,1460s5.33,56.35-88.83,97.11"/></g><path class="cls-43" d="M1594.57,1443.5s-10.63-17-20.81-11.45c-5.46,3-5.76,5.55-4.86,7.31a4.22,4.22,0,0,0,4.32,2.13c3.69-.48,11.78-.84,13.89,4.78C1589.87,1453.62,1597.86,1449.21,1594.57,1443.5Z"/><path class="cls-109" d="M1863.54,1099.76c.4-2.7,3.35-2.9,4.83-2.83a3,3,0,0,0,2.28-1c1.85-2,1.18-4.5.57-5.89a1.62,1.62,0,0,0-1.71-.88c-5.3.46-11.7-3-13.66-4.19a16.46,16.46,0,0,0,1-2c1.88-4.38,1.58-8.92-1.2-11.63l-22-21.5c-3.39-3.31-9.41-2.87-14.47.69-4.15-2.61-4.46-12-4.38-16.33,0-1.65-1.67-2.33-3.27-1.28-1.88,1.22-3.53,3.27-3.42,4s-.47,1.14-1.06,1.5a2.62,2.62,0,0,1-1.8.38c-3.62-.67-3.15,3.27-3.35,6.67-.15,2.69-3.21,3.09-4.75,3.12a3.15,3.15,0,0,0-2.27,1.18c-1.73,2.09-.79,4.51,0,5.84a1.75,1.75,0,0,0,1.86.74c4.94-.73,11.12,1.65,13.85,2.86-3.67,5.22-4.06,11.46-.6,14.84l22,21.5c3.7,3.62,10.55,2.76,15.84-1.75,3.37,3.18,2.8,12.3,2.33,16.48-.19,1.66,1.38,2.46,3,1.51,1.91-1.11,3.68-3.07,3.64-3.84s.57-1.12,1.16-1.44a2.39,2.39,0,0,1,1.75-.27C1863.11,1107.18,1863,1103.18,1863.54,1099.76Z"/><path class="cls-110" d="M1807.61,1038l.09.12s7,6.85,7.1,16.4"/><path class="cls-110" d="M1800.74,1047.65s7.39-2.28,14.24,7.36"/><path class="cls-110" d="M1817.64,1049.07s-3.5,7.69-7.33,10.07a29.33,29.33,0,0,0,8.81-8.37"/><path class="cls-110" d="M1847.43,1094.14c2.64-1.81,8.57-9.46,8.57-9.46s-3.11,7.35-6.58,10.47"/><path class="cls-111" d="M1864,1098.16s-3.65-9-11.51-6.87c8.11,4.6,4.52,16,4.52,16"/><path class="cls-52" d="M1863.54,1099.76c.4-2.7,3.35-2.9,4.83-2.83a3,3,0,0,0,2.28-1c1.85-2,1.18-4.5.57-5.89a1.62,1.62,0,0,0-1.71-.88c-5.3.46-11.7-3-13.66-4.19a16.46,16.46,0,0,0,1-2c1.88-4.38,1.58-8.92-1.2-11.63l-22-21.5c-3.39-3.31-9.41-2.87-14.47.69-4.15-2.61-4.46-12-4.38-16.33,0-1.65-1.67-2.33-3.27-1.28-1.88,1.22-3.53,3.27-3.42,4s-.47,1.14-1.06,1.5a2.62,2.62,0,0,1-1.8.38c-3.62-.67-3.15,3.27-3.35,6.67-.15,2.69-3.21,3.09-4.75,3.12a3.15,3.15,0,0,0-2.27,1.18c-1.73,2.09-.79,4.51,0,5.84a1.75,1.75,0,0,0,1.86.74c4.94-.73,11.12,1.65,13.85,2.86-3.67,5.22-4.06,11.46-.6,14.84l22,21.5c3.7,3.62,10.55,2.76,15.84-1.75,3.37,3.18,2.8,12.3,2.33,16.48-.19,1.66,1.38,2.46,3,1.51,1.91-1.11,3.68-3.07,3.64-3.84s.57-1.12,1.16-1.44a2.39,2.39,0,0,1,1.75-.27C1863.11,1107.18,1863,1103.18,1863.54,1099.76Z"/><path class="cls-112" d="M1863.54,1099.76c.4-2.7,3.35-2.9,4.83-2.83a3,3,0,0,0,2.28-1c1.85-2,1.18-4.5.57-5.89a1.62,1.62,0,0,0-1.71-.88c-5.3.46-11.7-3-13.66-4.19a16.46,16.46,0,0,0,1-2c1.88-4.38,1.58-8.92-1.2-11.63l-22-21.5c-3.39-3.31-9.41-2.87-14.47.69-4.15-2.61-4.46-12-4.38-16.33,0-1.65-1.67-2.33-3.27-1.28-1.88,1.22-3.53,3.27-3.42,4s-.47,1.14-1.06,1.5a2.62,2.62,0,0,1-1.8.38c-3.62-.67-3.15,3.27-3.35,6.67-.15,2.69-3.21,3.09-4.75,3.12a3.15,3.15,0,0,0-2.27,1.18c-1.73,2.09-.79,4.51,0,5.84a1.75,1.75,0,0,0,1.86.74c4.94-.73,11.12,1.65,13.85,2.86-3.67,5.22-4.06,11.46-.6,14.84l22,21.5c3.7,3.62,10.55,2.76,15.84-1.75,3.37,3.18,2.8,12.3,2.33,16.48-.19,1.66,1.38,2.46,3,1.51,1.91-1.11,3.68-3.07,3.64-3.84s.57-1.12,1.16-1.44a2.39,2.39,0,0,1,1.75-.27C1863.11,1107.18,1863,1103.18,1863.54,1099.76Z"/><path class="cls-110" d="M1807.61,1038l.09.12s7,6.85,7.1,16.4"/><path class="cls-110" d="M1800.74,1047.65s7.39-2.28,14.24,7.36"/><path class="cls-110" d="M1817.64,1049.07s-3.5,7.69-7.33,10.07a29.33,29.33,0,0,0,8.81-8.37"/><path class="cls-110" d="M1847.43,1094.14c2.64-1.81,8.57-9.46,8.57-9.46s-3.11,7.35-6.58,10.47"/><path class="cls-111" d="M1864,1098.16s-3.65-9-11.51-6.87c8.11,4.6,4.52,16,4.52,16"/><path class="cls-54" d="M1839.78,1059.06s-9.53-12.11-16.73-7c-3.85,2.72-3.85,4.72-3,6a3.19,3.19,0,0,0,3.44,1.27c2.75-.68,8.82-1.62,10.91,2.5C1837.13,1067.19,1842.77,1063.15,1839.78,1059.06Z"/><path class="cls-113" d="M1729.46,2014.89l-24.71,170.16a33.35,33.35,0,0,0,12.52,32.27c20.23,15.57,60.5,37.46,123.48,32.88a38.11,38.11,0,0,0,31.87-22.3l70-154.28S1845.54,2114.41,1729.46,2014.89Z"/><path class="cls-114" d="M1727.92,2010.25s98.1,108.63,213.15,58.73l36.43-9.66s-136.08-6.54-199-59.05Z"/><path class="cls-61" d="M1972.81,2063.49l-65.56,150.39a47.17,47.17,0,0,1-31,26.73c-14.84,4-32.67,8.45-38.16,8.39-9.92-.09,100.59-176.46,100.59-176.46Z"/><path class="cls-115" d="M1727.92,2010.25l-12.3,19.12s74.56,102.14,222.89,64.23l2.56-24.62S1812.62,2101.12,1727.92,2010.25Z"/><path class="cls-57" d="M1872.45,2042.9s-4.76,20.46-28.76,29.06c0,0-30,125.55-59.74,170.6,0,0-19.82-4.28-34.58-10.45,0,0,52.59-62.76,66.85-167.58,0,0,38.77-15.05,46.88-24.07Z"/><path class="cls-116" d="M1843.69,2072c24-8.6,28.76-29.06,28.76-29.06l-9.35-2.44c-8.11,9-46.88,24.07-46.88,24.07S1838.52,2072.21,1843.69,2072Z"/><path class="cls-57" d="M1762.15,2003.49s53.59,56.4,192.49,62.2l-4.83,1s-122.32,13-203.77-60Z"/><path class="cls-60" d="M1950,2067.22s-36.74,125.71-91.47,175l26.1-7.2s31-10.07,69.71-169.52l-4.09,1.09Z"/><path class="cls-62" d="M1908.1,2033c-11.61-7.53-29.62.46-40.38,6.64h0c-11.73-10.41-20.45-5.54-20.45-5.54h0c-4.64-13.16-14.21-35-27.53-38.75-19.26-5.34-20.55,15.23-26.58,24.49s-12.4,24,2.7,26.33,36.18,13.3,46.37,7c7,10.08,18.85,8,18.85,8h0c6.05,11.55,26,19.65,37.83,29.28,12.67,10.28,15.76-6,16.16-17.77S1925.53,2044.34,1908.1,2033Z"/><path class="cls-63" d="M1847.77,2034.83s-13.34,7.58-5,18.31"/><path class="cls-63" d="M1867.66,2040.38s7.58,14.64-5.18,21.08"/><line class="cls-63" x1="1842.76" y1="2039.14" x2="1813.45" y2="2011.3"/><path class="cls-63" d="M1839.3,2045.16s-12-7.53-23.54-6.49"/><path class="cls-63" d="M1871.54,2045.6s6.08-6.77,16.18-2.57"/><path class="cls-63" d="M1870.87,2055s36.07,6.32,37.11,19.82"/><path class="cls-75" d="M1742,1571.77c1.6,1.9,4.61,4.22,7.08,4.58,5.28.75,17.41,1.79,26.94,6.44,12.3,6,71.41,6.47,93.31-23.17l6.8-11.31s3.89-6,8.31-7,7.71-9.78,1-14.1c0,0-2.69-1.73-5.29,2.3,0,0-5.18-5.23-11.93-4.34,0,0-4.79-8-13.87-7.17,0,0-7-10-14.49-9.32,0,0-8.4-7.76-17.36-4.86,0,0-14.49-9.31-18.91,1.24,0,0-15.92-7.09-15.88,6.33,0,0-14.07-6.61-15.49,8.16,0,0-6.29-2.47-10.91,7.16-1.06,3.12-.24,7.73-.24,7.73s-8.38,4.84-4.92,12.77c0,0-2.45-.63-3,7.59,0,0-1,.79-2.36,5.14,0,0-1.37,4.83-6.74,2.16C1740.45,1561,1738.46,1567.15,1742,1571.77Z"/><path class="cls-117" d="M1880.61,1530.27s-6.65-7.59-14-4.56a9.37,9.37,0,0,0-3.47,2.72c-.72.84-3,3-8.46,1.11"/><path class="cls-117" d="M1867.53,1525.67s-3.23-8.05-11.46-8.58c-4.67-.14-4.87,1.64-7.4,3.35s-7.44.46-7.44.46"/><path class="cls-117" d="M1853.18,1517.14s-9.38-16.47-19.21-5.66a8.74,8.74,0,0,1-5.06,3.42"/><path class="cls-117" d="M1838.47,1508.19s-14.55-13.61-23.42,1.62c-2.6,4-2.8,5.81-2.8,5.81"/><path class="cls-117" d="M1821.29,1503.83s-13-11.65-19.63,3.1c0,0-3.18,9.37-5.51,9.3"/><path class="cls-117" d="M1803,1504.91s-13.91-8-16,6.38c0,0-.53,8.21-3.18,9.37"/><path class="cls-117" d="M1787,1511.29s-6.86-4.88-12.66.44c-2.72,3.48-2.9,13.35-2.9,13.35s1,4.42-4.57,5.63"/><path class="cls-117" d="M1772,1519.75s-7.72-3.53-11.53,8.29c0,0-1.14,5.46,2.59,9.27,0,0,2.63,4.06,2.43,5.84"/><path class="cls-117" d="M1761.09,1533.69s-8.94,4.25-4.44,14.27c0,0,5.32,5.78,5.36,8.67a17.15,17.15,0,0,1-.27,4.1"/><path class="cls-117" d="M1756.65,1548s-4.79-.7-2.87,8.14c0,0,5,12.23-.44,14"/><path class="cls-117" d="M1753.9,1556.65s.11-1-1.22.31a6.19,6.19,0,0,0-1.7,3.6,2.88,2.88,0,0,1-2.35,2.63,4.29,4.29,0,0,1-3.19-.63c-1.6-1-4.79-2.16-4.59,4.74.25,9.2,10.82,9.8,10.82,9.8a33,33,0,0,1,14.93,2c7.6,3,26.42,12.19,63.29,3s44.31-30.74,44.31-30.74,6-9.42,8.93-9.47c5-1.08,7.45-5.66,4.92-12.35-6.48-8.13-9.48,4.38-9.48,4.38s-.8,5.67-12.64,1.88"/><path class="cls-76" d="M1782.12,1513.61a2.61,2.61,0,0,0-4.13-1.18c-1.74,1.39-3.88,4.59-4.68,11.92C1772.79,1530.8,1784.28,1520.09,1782.12,1513.61Z"/><path class="cls-76" d="M1796.29,1506.27a2.61,2.61,0,0,0-4.13-1.19c-1.74,1.39-3.88,4.6-4.69,11.93C1787,1523.45,1798.44,1512.74,1796.29,1506.27Z"/><path class="cls-76" d="M1812.89,1503.75a2.62,2.62,0,0,0-3.86-1.9c-2,1.07-4.62,3.85-6.7,10.92C1800.69,1519,1813.87,1510.5,1812.89,1503.75Z"/><path class="cls-76" d="M1768.08,1523.44a1.86,1.86,0,0,0-2.94-.85c-1.23,1-2.75,3.27-3.33,8.48C1761.45,1535.64,1769.61,1528,1768.08,1523.44Z"/><path class="cls-76" d="M1760.47,1539.13a1.27,1.27,0,0,0-2.09-.08c-.66.86-1.3,2.63-.83,6.19C1758.06,1548.34,1762.24,1541.94,1760.47,1539.13Z"/><polygon class="cls-118" points="1524.37 1979.8 1427.76 2009.91 1408.58 2061.75 1526.24 2155.88 1569.6 2011.57 1524.37 1979.8"/><polyline class="cls-118" points="1459.68 1998.98 1457.46 2051.69 1524.79 2154.37 1521.87 2031.62 1491.89 1988.94"/><polygon class="cls-119" points="1412.74 2062.03 1450.49 2054.71 1421.12 2046.08 1412.74 2062.03"/><polygon class="cls-119" points="1462.5 2051.22 1519.25 2033.54 1462.76 2037.8 1462.5 2051.22"/><polygon class="cls-119" points="1527.36 2031.01 1566.63 2014.32 1519.51 2020.11 1527.36 2031.01"/><polygon class="cls-120" points="1463.5 2068.7 1505.24 2131.29 1437.91 2072.22 1463.5 2068.7"/><polygon class="cls-120" points="1524.3 2049.75 1525.51 2124.98 1547.36 2038.12 1524.3 2049.75"/><polygon class="cls-37" points="1524.37 1979.8 1427.76 2009.91 1408.58 2061.75 1526.24 2155.88 1569.6 2011.57 1524.37 1979.8"/><path class="cls-121" d="M1663.26,2100.75c-7.59-3.7-2.63-11.88.39-15.8a7.46,7.46,0,0,0,1.08-7.18c-2.68-6.93-11.7-7.53-17.15-7.22a7.42,7.42,0,0,0-6,3.77c-8.58,14.74-31.5,28.64-38.78,32.81a37.84,37.84,0,0,0-42.48-12.62l-108.2,38.63c-16.64,5.94-26.68,22.65-25.21,39.74-15.92,8.68-45.75.37-58.83-4a7.77,7.77,0,0,0-10.17,7.59c.24,6.27,3.46,12.72,6,13.14,2.11.35,2.63,2.39,2.63,4.31a7.57,7.57,0,0,1-2.23,5.23c-8.91,9.15,4.16,11.69,14.34,15.52,8,3,3.48,11.65.64,15.85a7.43,7.43,0,0,0-.63,7.28c3.2,6.7,12.48,6.5,18,5.7a7.87,7.87,0,0,0,5.84-4.31c7.05-14,26.12-28.42,35-34.62a37.82,37.82,0,0,0,44.81,16l108.2-38.64c18.17-6.49,28.46-25.81,24.5-44.47,16.23-6,43.38,4.37,55.44,9.69a7.43,7.43,0,0,0,10.37-6.66c.17-6.25-2.54-12.94-5-13.58-2-.52-2.4-2.6-2.28-4.5a7.46,7.46,0,0,1,2.5-5C1685.42,2109.09,1672.9,2105.44,1663.26,2100.75Z"/><path class="cls-39" d="M1366.37,2192l.55-.13s34.46-12.31,64.2-3.28"/><path class="cls-39" d="M1383.18,2219.85s6.94-22.19,49.75-31.33"/><path class="cls-39" d="M1419.56,2175.57s17.16,16.91,17.31,29.55c.49-17.78-9.24-31.9-9.24-31.9"/><path class="cls-39" d="M1615.41,2138.81c-.59-8.9-13.08-32.31-13.08-32.31s16.87,15.5,20,27.91"/><path class="cls-40" d="M1659.24,2097.88s-34.87,1.11-43,24.44c29.57-17.46,58,3.27,58,3.27"/><g class="cls-122"><path class="cls-123" d="M1384.3,2128.51s122.07,3.08,184.73,215.28"/><path class="cls-42" d="M1424.33,2112.5s121.91,7,177.88,221.13"/><path class="cls-123" d="M1479.8,2090.09s121.83,8.36,175.52,223.07"/><path class="cls-42" d="M1520.47,2075.83s121.5,12.29,168.43,228.62"/></g><path class="cls-43" d="M1472.58,2135.14s-40.41,15.41-32.93,39.28c4,12.79,9.34,14.5,13.44,13.33a9.07,9.07,0,0,0,6.3-8.25c.52-8,3.15-25.28,15.92-27.4C1492,2149.33,1486,2130.57,1472.58,2135.14Z"/><path class="cls-124" d="M1534.46,1630.8s14-47,103.28,23.14c0,0,62.8,49.1,65,73.7l26.74,1.08s-51.58-84.38-144.29-123.62C1585.15,1605.1,1530.08,1584.85,1534.46,1630.8Z"/><path class="cls-38" d="M1739.94,1732.21l-.13-6.81a8.47,8.47,0,0,0-8.63-8.32l-34.59.64a8.47,8.47,0,0,0-8.31,8.63l.16,8.7a41,41,0,1,0,51.5-2.84Zm-25.73,2.76c-8.41.16-15.27-2.34-15.33-5.57s6.71-6,15.12-6.14,15.27,2.34,15.33,5.57S1722.62,1734.82,1714.21,1735Z"/><path class="cls-92" d="M1748.84,1765.47a33.8,33.8,0,1,1-60.69-18.63"/><path class="cls-5" d="M1701.64,1777.54a17,17,0,0,1,2,.27,7.38,7.38,0,0,0,1.18.15q2.64.07,3.16-4.08.27-2.36.57-13.42a3.19,3.19,0,0,0-.62-2.35,3.72,3.72,0,0,0-2.47-.72c-.29,0-.71,0-1.25.06a10.69,10.69,0,0,1-1.08,0,2.54,2.54,0,0,1-1.7-.62,1.94,1.94,0,0,1-.61-1.53,2.78,2.78,0,0,1,1.05-1.94,8.66,8.66,0,0,1,2.81-1.66,47.51,47.51,0,0,1,18.8-3.23,9.17,9.17,0,0,1,3.92.74,2.15,2.15,0,0,1,1.17,2.07,1.79,1.79,0,0,1-.44,1.25,5,5,0,0,1-1.64.94c-1.3.52-2,1.18-2.26,2a85.31,85.31,0,0,0-.69,9.43c0,5.56,0,8.53.05,8.93a12.75,12.75,0,0,0,.2,1.65,3.36,3.36,0,0,0,1.34,2.31,8.31,8.31,0,0,0,3.59.84c1.94.13,2.89,1,2.85,2.47s-1.44,2.57-4.21,3a67.11,67.11,0,0,1-11.84.71,56.67,56.67,0,0,1-7.51-.67,35.09,35.09,0,0,1-6.85-1.7c-1.58-.62-2.36-1.52-2.33-2.68a2.09,2.09,0,0,1,.82-1.59A3,3,0,0,1,1701.64,1777.54Z"/><path class="cls-125" d="M1729.44,1728.72s-200.76.85-195-97.64a80.45,80.45,0,0,1,1.58-11.66,20,20,0,0,1,.93-3.21c8.46-21.5,48.15-11.11,48.15-11.11s-51-22.72-73.71,15.85a59.54,59.54,0,0,0,7.07,69.67c42.07,47.06,153,54.63,181.26,40.7Z"/><polygon class="cls-126" points="1772.25 1389.69 1754.8 1370 1728.69 1373.21 1742.02 1350.53 1730.89 1326.69 1756.59 1332.36 1775.82 1314.41 1778.37 1340.6 1801.38 1353.35 1777.27 1363.86 1772.25 1389.69"/><ellipse class="cls-127" cx="1745.78" cy="1334.59" rx="2.05" ry="8.22" transform="translate(60.37 2744.65) rotate(-77.31)"/><ellipse class="cls-127" cx="1766.93" cy="1329.51" rx="8.22" ry="2.05" transform="translate(-408.32 1726.94) rotate(-47.31)"/><path class="cls-128" d="M1641,1143.86s-10.67-18-40.37,20.25c0,0-20.93,26.82-19.28,37.22l-11,3.21s12.64-40.26,47-66.09C1617.37,1138.45,1638.08,1124.38,1641,1143.86Z"/><path class="cls-129" d="M1562.73,1222.26a17.5,17.5,0,1,0,25.31-19.33l-.83-3.62a3.61,3.61,0,0,0-4.34-2.71l-14.38,3.3a3.62,3.62,0,0,0-2.72,4.34l.65,2.83A17.45,17.45,0,0,0,1562.73,1222.26Zm7.74-17.68c-.31-1.35,2.27-3.09,5.77-3.89s6.58-.37,6.89,1-2.27,3.08-5.77,3.89S1570.78,1205.92,1570.47,1204.58Z"/><path class="cls-130" d="M1566.18,1221.76a14.42,14.42,0,1,0,23.2-14"/><path class="cls-5" d="M1575.25,1224.58c.12,0,.42,0,.88,0a3.71,3.71,0,0,0,.51,0c.74-.1,1.09-.75,1-1.94q0-1-.69-5.69a1.34,1.34,0,0,0-.43-.94,1.53,1.53,0,0,0-1.09-.13,3.51,3.51,0,0,0-.52.11l-.45.09a1.12,1.12,0,0,1-.76-.14.8.8,0,0,1-.36-.6,1.22,1.22,0,0,1,.3-.9,3.8,3.8,0,0,1,1.07-.89,20.37,20.37,0,0,1,7.69-2.67,4,4,0,0,1,1.7,0,.93.93,0,0,1,.64.79.78.78,0,0,1-.1.56,2,2,0,0,1-.63.5c-.51.32-.78.65-.81,1a36.84,36.84,0,0,0,.37,4c.4,2.34.61,3.59.64,3.75a5,5,0,0,0,.2.69,1.39,1.39,0,0,0,.73.87,3.47,3.47,0,0,0,1.56.11q1.24-.12,1.38.84c.09.66-.43,1.18-1.57,1.55a28.29,28.29,0,0,1-4.93,1.13,24.31,24.31,0,0,1-3.21.24,14.62,14.62,0,0,1-3-.24q-1.07-.23-1.17-1a.89.89,0,0,1,.24-.73A1.3,1.3,0,0,1,1575.25,1224.58Z"/><path class="cls-131" d="M1570.41,1204.54s83.21-20.39,70.62-60.56a34.1,34.1,0,0,0-1.86-4.67,8.35,8.35,0,0,0-.71-1.23c-5.73-8-21.09.37-21.09.37s18.76-14.67,32.16-1a25.41,25.41,0,0,1,4.27,29.57c-12.55,23.83-57.68,38.43-70.84,35.58Z"/><polygon class="cls-132" points="1671.08 863.09 1649.48 878.25 1648.85 892.65 1685.56 906.66 1684.84 867.38 1671.08 863.09"/><polyline class="cls-132" points="1656.54 873 1660.18 886.26 1685.07 906.4 1674.58 876.15 1663.74 867.94"/><polygon class="cls-80" points="1649.9 892.39 1658.7 887.57 1650.71 887.76 1649.9 892.39"/><polygon class="cls-80" points="1661.4 885.75 1674.09 876.84 1660.4 882.39 1661.4 885.75"/><polygon class="cls-80" points="1675.9 875.57 1684.32 868.3 1673.08 873.49 1675.9 875.57"/><polygon class="cls-80" points="1663.04 890.01 1678.38 902.23 1656.96 892.92 1663.04 890.01"/><polygon class="cls-80" points="1676.63 880.46 1682.91 899.05 1681.43 875.74 1676.63 880.46"/><polygon class="cls-133" points="1671.08 863.09 1649.48 878.25 1648.85 892.65 1685.56 906.66 1684.84 867.38 1671.08 863.09"/></g></g></g></svg>