<?xml version="1.0" encoding="utf-8"?>
<!-- Generator: Adobe Illustrator 23.1.0, SVG Export Plug-In . SVG Version: 6.00 Build 0)  -->
<svg version="1.1" xmlns="http://www.w3.org/2000/svg" xmlns:xlink="http://www.w3.org/1999/xlink" x="0px" y="0px"
	 viewBox="0 0 1920.45 458.14" style="enable-background:new 0 0 1920.45 458.14;" xml:space="preserve">
<style type="text/css">
	.st0{opacity:0.87;fill:url(#SVGID_1_);}
	.st1{fill:#33DEA7;}
	.st2{fill:#4890F1;}
	.st3{fill:#0B59C7;}
	.st4{fill:#1A328C;}
	.st5{fill:#367FE1;}
	.st6{fill:#FFFFFF;}
	.st7{fill:none;stroke:#FF1800;stroke-miterlimit:10;}
	.st8{fill:none;stroke:#4890F1;stroke-width:2.4807;stroke-miterlimit:10;}
	.st9{fill:none;stroke:#0B59C7;stroke-width:1.6033;stroke-miterlimit:10;}
	.st10{display:none;}
	.st11{display:inline;fill:none;stroke:#000000;stroke-miterlimit:10;}
	.st12{fill:#CFE2FF;}
	.st13{fill:none;stroke:#34E2AA;stroke-miterlimit:10;}
	.st14{fill:none;stroke:#34E2AA;stroke-width:0.9838;stroke-miterlimit:10;}
	.st15{fill:#34E2AA;fill-opacity:0.12;stroke:#34E2AA;stroke-miterlimit:10;}
	.st16{fill:#1B3390;}
	.st17{fill:#34E2AA;stroke:#1B3390;stroke-miterlimit:10;}
	.st18{fill:#FF8B2B;}
	.st19{opacity:0.5;fill:#4992F5;}
	.st20{fill:#4992F5;}
	.st21{fill:#0B5BCB;}
	.st22{fill:#ADD2FF;}
	.st23{fill:#2EC897;}
	.st24{fill:none;stroke:#4992F5;stroke-width:0.6143;stroke-miterlimit:10;}
	.st25{fill:none;stroke:#4992F5;stroke-width:0.4924;stroke-miterlimit:10;}
	.st26{fill:none;stroke:#4992F5;stroke-width:5;stroke-miterlimit:10;}
	.st27{fill:none;stroke:#0B5BCB;stroke-width:2.2717;stroke-miterlimit:10;}
	.st28{fill:#6078D5;}
	.st29{fill:#FFB87D;}
	.st30{fill:none;stroke:#284DD8;stroke-width:2.678;stroke-miterlimit:10;}
	.st31{fill:none;stroke:#34E2AA;stroke-width:6.3211;stroke-miterlimit:10;}
	.st32{fill:none;stroke:#4992F5;stroke-width:6.3211;stroke-miterlimit:10;}
	.st33{fill:none;stroke:#0B5BCB;stroke-width:2;stroke-miterlimit:10;}
	.st34{fill:#FFEBC9;}
	.st35{fill:#8CA4FB;stroke:#1B3390;stroke-width:1.8878;stroke-miterlimit:10;}
	.st36{fill:none;stroke:#1B3390;stroke-width:2;stroke-miterlimit:10;}
	.st37{fill:none;stroke:#34E2AA;stroke-width:1.8878;stroke-linecap:round;stroke-miterlimit:10;}
	.st38{fill:none;stroke:#34E2AA;stroke-width:1.8878;stroke-linecap:round;stroke-linejoin:round;stroke-miterlimit:10;}
	.st39{clip-path:url(#SVGID_5_);}
	.st40{fill:none;stroke:#F98600;stroke-width:15.7313;stroke-linecap:round;stroke-linejoin:round;stroke-miterlimit:10;}
	.st41{fill:none;stroke:#1B3390;stroke-width:3.7755;stroke-linecap:round;stroke-linejoin:round;stroke-miterlimit:10;}
	.st42{fill:#0B5BCB;stroke:#1B3390;stroke-width:1.7785;stroke-miterlimit:10;}
	.st43{fill:none;stroke:#1B3390;stroke-width:1.7785;stroke-linecap:round;stroke-miterlimit:10;}
	.st44{fill:none;stroke:#1B3390;stroke-width:1.7785;stroke-linecap:round;stroke-linejoin:round;stroke-miterlimit:10;}
	.st45{clip-path:url(#SVGID_7_);fill:none;stroke:#5FECBF;stroke-width:29.6424;stroke-linecap:round;stroke-miterlimit:10;}
	.st46{fill:none;stroke:#1B3390;stroke-width:1.7785;stroke-miterlimit:10;}
	.st47{fill:#34E2AA;stroke:#1B3390;stroke-width:1.1636;stroke-miterlimit:10;}
	.st48{fill:#94FFCC;stroke:#1B3390;stroke-width:1.1636;stroke-linecap:round;stroke-miterlimit:10;}
	.st49{fill:#94FFCC;stroke:#1B3390;stroke-width:1.1636;stroke-linecap:round;stroke-linejoin:round;stroke-miterlimit:10;}
	.st50{fill:#FFB87D;stroke:#1B3390;stroke-width:1.1636;stroke-miterlimit:10;}
	.st51{fill:#4992F5;stroke:#1B3390;stroke-width:1.1636;stroke-linecap:round;stroke-miterlimit:10;}
	.st52{fill:#4992F5;stroke:#1B3390;stroke-width:1.1636;stroke-linecap:round;stroke-linejoin:round;stroke-miterlimit:10;}
	.st53{fill:#FFB87D;stroke:#1B3390;stroke-width:1.1636;stroke-linecap:round;stroke-miterlimit:10;}
	.st54{fill:#FFB87D;stroke:#1B3390;stroke-width:1.1636;stroke-linecap:round;stroke-linejoin:round;stroke-miterlimit:10;}
	.st55{opacity:0.8;fill:#DBE2FF;}
	.st56{opacity:0.8;fill:#B3C2FF;}
	.st57{opacity:0.8;fill:#FFF3E8;}
	.st58{opacity:0.8;fill:#D6FFF9;}
	.st59{fill:#0C65DF;stroke:#1B3390;stroke-width:0.764;stroke-linecap:round;stroke-linejoin:round;stroke-miterlimit:10;}
	.st60{fill:#0C65DF;stroke:#1B3390;stroke-width:0.764;stroke-miterlimit:10;}
	.st61{fill:#0C65DF;stroke:#1B3390;stroke-width:0.764;stroke-linecap:round;stroke-miterlimit:10;}
	.st62{opacity:0.8;fill:#A1C9FF;}
	.st63{fill:none;stroke:#0B5BCB;stroke-width:1.87;stroke-miterlimit:10;}
	.st64{fill:#4992F5;stroke:#1B3390;stroke-width:2.4753;stroke-miterlimit:10;}
	.st65{fill:none;stroke:#1B3390;stroke-width:2.0994;stroke-linecap:round;stroke-miterlimit:10;}
	.st66{fill:#6CF4BC;stroke:#1B3390;stroke-width:1.6932;stroke-miterlimit:10;}
	.st67{fill:none;stroke:#1B3390;stroke-width:1.436;stroke-linecap:round;stroke-miterlimit:10;}
	.st68{fill:#FFB87D;stroke:#1B3390;stroke-width:2.1678;stroke-miterlimit:10;}
	.st69{fill:none;stroke:#1B3390;stroke-width:1.8386;stroke-linecap:round;stroke-miterlimit:10;}
	.st70{fill:#0B5FD5;stroke:#1B3390;stroke-width:1.6798;stroke-miterlimit:10;}
	.st71{fill:none;stroke:#1B3390;stroke-width:1.4247;stroke-linecap:round;stroke-miterlimit:10;}
	.st72{fill:#A6FFE1;stroke:#1B3390;stroke-width:2.0588;stroke-miterlimit:10;}
	.st73{fill:none;stroke:#1B3390;stroke-width:1.7462;stroke-linecap:round;stroke-miterlimit:10;}
	.st74{fill:#FF8B2B;stroke:#1B3390;stroke-width:2.4753;stroke-miterlimit:10;}
	.st75{fill:#34E2AA;stroke:#1B3390;stroke-width:2.1678;stroke-miterlimit:10;}
	.st76{fill:none;stroke:#1B3390;stroke-width:1.4475;stroke-linecap:round;stroke-miterlimit:10;}
	.st77{fill:#FFB87D;stroke:#1B3390;stroke-width:1.6825;stroke-miterlimit:10;}
	.st78{fill:none;stroke:#1B3390;stroke-width:1.427;stroke-linecap:round;stroke-miterlimit:10;}
	.st79{fill:#ABD0FF;}
	.st80{fill:none;stroke:#0B5BCB;stroke-width:3.3004;stroke-linecap:round;stroke-miterlimit:10;}
	.st81{fill:#E3EFFF;}
	.st82{clip-path:url(#SVGID_9_);fill:none;stroke:#FF8B2B;stroke-width:9.9011;stroke-linecap:round;stroke-miterlimit:10;}
	.st83{fill:#FFB87D;stroke:#1C3CB7;stroke-width:3;stroke-linecap:round;stroke-linejoin:round;stroke-miterlimit:10;}
	.st84{fill:#FFEED1;stroke:#1C3CB7;stroke-width:3;stroke-linejoin:round;stroke-miterlimit:10;}
	.st85{fill:#FF8B2B;stroke:#1C3CB7;stroke-width:3;stroke-miterlimit:10;}
	.st86{fill:#FFE2C9;stroke:#1C3CB7;stroke-width:3;stroke-linejoin:round;stroke-miterlimit:10;}
	.st87{fill:#1B3390;stroke:#1C3CB7;stroke-miterlimit:10;}
	.st88{fill:#0B5BCB;stroke:#1C3CB7;stroke-miterlimit:10;}
	.st89{fill:#4992F5;stroke:#1C3CB7;stroke-width:3;stroke-miterlimit:10;}
	.st90{fill:#4992F5;stroke:#1C3CB7;stroke-width:3;stroke-linecap:round;stroke-miterlimit:10;}
	.st91{fill:#8CA4FB;stroke:#1C3CB7;stroke-width:3;stroke-linecap:round;stroke-linejoin:round;stroke-miterlimit:10;}
	.st92{fill:#D1FFEF;stroke:#1C3CB7;stroke-width:3;stroke-linejoin:round;stroke-miterlimit:10;}
	.st93{fill:#0B5BCB;stroke:#1C3CB7;stroke-width:3;stroke-miterlimit:10;}
	.st94{fill:#B2C2FB;stroke:#1C3CB7;stroke-width:3;stroke-linejoin:round;stroke-miterlimit:10;}
	.st95{fill:#34E2AA;stroke:#1C3CB7;stroke-miterlimit:10;}
	.st96{fill:#66FFC8;stroke:#1C3CB7;stroke-miterlimit:10;}
	.st97{fill:#73FFCD;stroke:#1C3CB7;stroke-miterlimit:10;}
	.st98{fill:#00D38E;stroke:#1C3CB7;stroke-miterlimit:10;}
	.st99{fill:#34E2AA;stroke:#1C3CB7;stroke-width:3;stroke-miterlimit:10;}
	.st100{fill:#FF8B2B;stroke:#1C3CB7;stroke-miterlimit:10;}
	.st101{fill:#FFB87D;stroke:#1C3CB7;stroke-miterlimit:10;}
	.st102{fill:#FFB87D;stroke:#1C3CB7;stroke-width:3;stroke-miterlimit:10;}
	.st103{fill:none;stroke:#1C3CB7;stroke-width:2;stroke-miterlimit:10;}
	.st104{fill:#75FFCE;stroke:#1B3390;stroke-width:3;stroke-miterlimit:10;}
	.st105{fill:none;stroke:#1B3390;stroke-width:3;stroke-miterlimit:10;}
	.st106{fill:#00C39F;stroke:#1B3390;stroke-width:3;stroke-miterlimit:10;}
	.st107{fill:#A8FFE6;}
	.st108{opacity:0.8;fill:#A8FFE6;}
	.st109{fill:#8CA4FB;stroke:#1B3390;stroke-width:3;stroke-miterlimit:10;}
	.st110{fill:#0B5BCB;stroke:#1B3390;stroke-width:3;stroke-miterlimit:10;}
	.st111{fill:#D8E0FB;}
	.st112{opacity:0.8;fill:#D8E0FB;}
	.st113{fill:#FFB87D;stroke:#0655C3;stroke-width:3;stroke-linecap:round;stroke-linejoin:round;stroke-miterlimit:10;}
	.st114{fill:#FFE3CC;}
	.st115{fill:none;stroke:#0B5BCB;stroke-width:3;stroke-linecap:round;stroke-linejoin:round;stroke-miterlimit:10;}
	.st116{fill:#34E2AA;stroke:#1B3390;stroke-width:3;stroke-miterlimit:10;}
	.st117{fill:#BAFFE9;}
	.st118{fill:#ABFFE4;}
	.st119{fill:#5790DF;stroke:#0655C3;stroke-width:3;stroke-linecap:round;stroke-linejoin:round;stroke-miterlimit:10;}
	.st120{fill:#80B9F6;}
	.st121{fill:#629FE4;}
	.st122{fill:#0B5BCB;stroke:#0B5BCB;stroke-width:4;stroke-miterlimit:10;}
	.st123{fill:#34E2AA;stroke:#0B5BCB;stroke-width:3;stroke-linejoin:round;stroke-miterlimit:10;}
	.st124{fill:none;stroke:#0B5BCB;stroke-width:3;stroke-linecap:round;stroke-miterlimit:10;}
	.st125{fill:#4992F5;stroke:#0B5BCB;stroke-width:4;stroke-miterlimit:10;}
	.st126{fill:#C7FFED;stroke:#34E2AA;stroke-width:3;stroke-miterlimit:10;}
	.st127{fill:#FFD1AB;stroke:#0B5BCB;stroke-width:3;stroke-miterlimit:10;}
	.st128{fill:#34E2AA;stroke:#34E2AA;stroke-width:3;stroke-linejoin:round;stroke-miterlimit:10;}
	.st129{fill:#8CA4FB;stroke:#0B5BCB;stroke-width:3;stroke-linejoin:round;stroke-miterlimit:10;}
	.st130{fill:#69FFC7;stroke:#0B5BCB;stroke-width:3;stroke-linejoin:round;stroke-miterlimit:10;}
	.st131{fill:#FFB87D;stroke:#0B5BCB;stroke-width:3;stroke-linejoin:round;stroke-miterlimit:10;}
	.st132{fill:#ADBEFF;}
	.st133{fill:#FFEAD9;}
	.st134{fill:#D6FFF4;}
	.st135{fill:#CCD6FF;}
	.st136{fill:none;stroke:#33DEA7;stroke-width:5.4384;stroke-miterlimit:10;}
	.st137{fill:#4AE2B1;}
	.st138{fill:#8CA4FB;}
	.st139{opacity:0.25;fill:#FF8B2B;}
	.st140{fill:none;stroke:#FF8B2B;stroke-miterlimit:10;}
	.st141{fill:none;stroke:#FF8B2B;stroke-width:0.9367;stroke-miterlimit:10;}
	.st142{fill:#FF9843;}
	.st143{opacity:0.3;fill:#34E2AA;}
	.st144{fill:#E6F0FF;stroke:#DBE3FF;stroke-width:3.6654;stroke-miterlimit:10;}
	.st145{fill:#E6F0FF;}
	.st146{fill:#DBE3FF;}
	.st147{fill:#FFE1C9;stroke:#E0E6FF;stroke-width:5.2027;stroke-miterlimit:10;}
	.st148{fill:#E0FFF7;}
	.st149{fill:#E0E6FF;}
	.st150{fill:#DBE9FF;stroke:#CCD7FF;stroke-width:3.6654;stroke-miterlimit:10;}
	.st151{fill:#DBE9FF;}
	.st152{fill:#CCD7FF;}
	.st153{fill:#9EC2F7;stroke:#9CB1FF;stroke-width:3.6654;stroke-miterlimit:10;}
	.st154{fill:#9EC2F7;}
	.st155{fill:#9CB1FF;}
	.st156{fill:#99C3FF;stroke:#91A9FF;stroke-width:4.0452;stroke-miterlimit:10;}
	.st157{fill:#99C3FF;}
	.st158{fill:#91A9FF;}
	.st159{fill:#FFD7B5;stroke:#A1B5FF;stroke-width:5.2027;stroke-miterlimit:10;}
	.st160{fill:#A1B5FF;}
	.st161{fill:#B8FFEC;stroke:#A1B5FF;stroke-width:5.2027;stroke-miterlimit:10;}
	.st162{fill:#B8FFEC;}
	.st163{fill:#E0FFF7;stroke:#E0E6FF;stroke-width:5.2027;stroke-miterlimit:10;}
	.st164{fill:#FFEAD9;stroke:#DBE3FF;stroke-width:3.6654;stroke-miterlimit:10;}
	.st165{opacity:0.2;}
	.st166{fill:#4890F1;stroke:#1A328C;stroke-width:2.274;stroke-miterlimit:10;}
	.st167{fill:none;stroke:#1A328C;stroke-width:1.9286;stroke-linecap:round;stroke-miterlimit:10;}
	.st168{fill:#6AF0B9;stroke:#1A328C;stroke-width:1.5555;stroke-miterlimit:10;}
	.st169{fill:none;stroke:#1A328C;stroke-width:1.3193;stroke-linecap:round;stroke-miterlimit:10;}
	.st170{fill:#FFB87D;stroke:#1A328C;stroke-width:1.9915;stroke-miterlimit:10;}
	.st171{fill:none;stroke:#1A328C;stroke-width:1.6891;stroke-linecap:round;stroke-miterlimit:10;}
	.st172{fill:#0B5DD1;stroke:#1A328C;stroke-width:1.5432;stroke-miterlimit:10;}
	.st173{fill:none;stroke:#1A328C;stroke-width:1.3088;stroke-linecap:round;stroke-miterlimit:10;}
	.st174{fill:#A6FFE1;stroke:#1A328C;stroke-width:1.8914;stroke-miterlimit:10;}
	.st175{fill:none;stroke:#1A328C;stroke-width:1.6042;stroke-linecap:round;stroke-miterlimit:10;}
	.st176{fill:#8AA1F7;stroke:#1A328C;stroke-width:2.274;stroke-miterlimit:10;}
	.st177{fill:none;stroke:#1A328C;stroke-width:1.3298;stroke-linecap:round;stroke-miterlimit:10;}
	.st178{fill:#FFB87D;stroke:#1A328C;stroke-width:1.5457;stroke-miterlimit:10;}
	.st179{fill:none;stroke:#1A328C;stroke-width:1.311;stroke-linecap:round;stroke-miterlimit:10;}
	.st180{fill:none;stroke:#0B59C7;stroke-width:3.032;stroke-linecap:round;stroke-miterlimit:10;}
	.st181{clip-path:url(#SVGID_11_);fill:none;stroke:#FF8B2B;stroke-width:9.0959;stroke-linecap:round;stroke-miterlimit:10;}
	.st182{fill:#A6FFDE;stroke:#0B59C7;stroke-width:5;stroke-linejoin:round;stroke-miterlimit:10;}
	.st183{fill:#A6FFDE;stroke:#0B59C7;stroke-width:4.2028;stroke-linejoin:round;stroke-miterlimit:10;}
	.st184{fill:#8AA1F7;stroke:#1A328C;stroke-width:5;stroke-miterlimit:10;}
	.st185{fill:none;stroke:#1A328C;stroke-width:5;stroke-miterlimit:10;}
	.st186{fill:#0B59C7;stroke:#1A328C;stroke-width:5;stroke-miterlimit:10;}
	.st187{fill:#75FFCE;stroke:#1A328C;stroke-width:5;stroke-miterlimit:10;}
	.st188{fill:#D4DCF7;}
	.st189{opacity:0.8;fill:#D4DCF7;}
	.st190{fill:#558DDB;stroke:#0653BF;stroke-width:5;stroke-linecap:round;stroke-linejoin:round;stroke-miterlimit:10;}
	.st191{fill:#7EB6F2;}
	.st192{fill:#609CE0;}
	.st193{fill:none;stroke:#0B59C7;stroke-width:5;stroke-linecap:round;stroke-linejoin:round;stroke-miterlimit:10;}
	.st194{fill:#FF8B2B;stroke:#0B59C7;stroke-width:5;stroke-miterlimit:10;}
	.st195{fill:none;stroke:#33DEA7;stroke-width:5;stroke-linecap:round;stroke-miterlimit:10;}
	.st196{fill:none;stroke:#33DEA7;stroke-width:5;stroke-linecap:round;stroke-linejoin:round;stroke-miterlimit:10;}
	.st197{clip-path:url(#SVGID_13_);}
	.st198{fill:none;stroke:#1A328C;stroke-width:5;stroke-linecap:round;stroke-linejoin:round;stroke-miterlimit:10;}
	.st199{fill:#8AA1F7;stroke:#33DEA7;stroke-width:0.7994;stroke-miterlimit:10;}
	.st200{fill:none;stroke:#33DEA7;stroke-width:0.7994;stroke-linecap:round;stroke-miterlimit:10;}
	.st201{fill:none;stroke:#33DEA7;stroke-width:0.7994;stroke-linecap:round;stroke-linejoin:round;stroke-miterlimit:10;}
	.st202{clip-path:url(#SVGID_15_);}
	.st203{fill:none;stroke:#33DEA7;stroke-width:6.662;stroke-linecap:round;stroke-linejoin:round;stroke-miterlimit:10;}
	.st204{fill:none;stroke:#1A328C;stroke-width:1.5989;stroke-linecap:round;stroke-linejoin:round;stroke-miterlimit:10;}
	.st205{fill:#4890F1;stroke:#1A328C;stroke-width:1.7649;stroke-linecap:round;stroke-miterlimit:10;}
	.st206{fill:#4890F1;stroke:#1A328C;stroke-width:1.7649;stroke-linecap:round;stroke-linejoin:round;stroke-miterlimit:10;}
	.st207{opacity:0.8;fill:#C4D0FF;}
	.st208{fill:#FFB87D;stroke:#1B3BB3;stroke-width:5;stroke-linecap:round;stroke-linejoin:round;stroke-miterlimit:10;}
	.st209{fill:#FFD6B3;stroke:#1B3BB3;stroke-width:5;stroke-linejoin:round;stroke-miterlimit:10;}
	.st210{fill:#FF8B2B;stroke:#1B3BB3;stroke-width:5;stroke-miterlimit:10;}
	.st211{fill:#FFB87D;stroke:#1B3BB3;stroke-width:5;stroke-linejoin:round;stroke-miterlimit:10;}
	.st212{fill:#96FFD4;stroke:#1B3BB3;stroke-width:5;stroke-linejoin:round;stroke-miterlimit:10;}
	.st213{fill:#1A328C;stroke:#1B3BB3;stroke-width:5;stroke-miterlimit:10;}
	.st214{fill:#0B59C7;stroke:#1B3BB3;stroke-width:5;stroke-miterlimit:10;}
	.st215{fill:#4890F1;stroke:#1B3BB3;stroke-width:5;stroke-miterlimit:10;}
	.st216{fill:#4890F1;stroke:#1B3BB3;stroke-width:5;stroke-linecap:round;stroke-miterlimit:10;}
	.st217{fill:#FFB87D;stroke:#1B3BB3;stroke-width:1.6332;stroke-linecap:round;stroke-linejoin:round;stroke-miterlimit:10;}
	.st218{fill:#FFD8B8;stroke:#1B3BB3;stroke-width:1.6332;stroke-linejoin:round;stroke-miterlimit:10;}
	.st219{fill:#FF8B2B;stroke:#1B3BB3;stroke-width:1.6332;stroke-miterlimit:10;}
	.st220{fill:#FFB87D;stroke:#1B3BB3;stroke-width:1.6332;stroke-linejoin:round;stroke-miterlimit:10;}
	.st221{fill:#1A328C;stroke:#1B3BB3;stroke-width:0.5444;stroke-miterlimit:10;}
	.st222{fill:#0B59C7;stroke:#1B3BB3;stroke-width:0.5444;stroke-miterlimit:10;}
	.st223{fill:#4890F1;stroke:#1B3BB3;stroke-width:1.6332;stroke-miterlimit:10;}
	.st224{fill:#4890F1;stroke:#1B3BB3;stroke-width:1.6332;stroke-linecap:round;stroke-miterlimit:10;}
	.st225{fill:#92FCCA;stroke:#1A328C;stroke-width:5;stroke-miterlimit:10;}
	.st226{fill:none;stroke:#1A328C;stroke-width:5;stroke-linecap:round;stroke-miterlimit:10;}
	.st227{clip-path:url(#SVGID_19_);fill:none;stroke:#8AA1F7;stroke-width:5;stroke-linecap:round;stroke-miterlimit:10;}
	.st228{fill:#7DFFD5;}
	.st229{fill:#B3FFE4;}
	.st230{fill:none;stroke:#274CD4;stroke-width:0.3105;stroke-miterlimit:10;}
	.st231{fill:#FF8B2B;stroke:#0653BF;stroke-width:2.1766;stroke-linecap:round;stroke-linejoin:round;stroke-miterlimit:10;}
	.st232{fill:#FFD2AD;}
	.st233{fill:none;stroke:#0B59C7;stroke-width:2.1766;stroke-linecap:round;stroke-linejoin:round;stroke-miterlimit:10;}
	.st234{fill:#FFB87D;stroke:#33DEA7;stroke-width:5;stroke-miterlimit:10;}
	.st235{fill:#9EFFE0;stroke:#33DEA7;stroke-width:5;stroke-miterlimit:10;}
	.st236{fill:#FF8B2B;stroke:#33DEA7;stroke-width:5;stroke-linejoin:round;stroke-miterlimit:10;}
	.st237{fill:#FF8B2B;stroke:#1A328C;stroke-width:5;stroke-miterlimit:10;}
	.st238{fill:#6AF0B9;stroke:#1A328C;stroke-width:5;stroke-miterlimit:10;}
	.st239{fill:#B5CBE8;stroke:#1A328C;stroke-width:5;stroke-miterlimit:10;}
	.st240{fill:#0B5DD1;stroke:#1A328C;stroke-width:5;stroke-miterlimit:10;}
	.st241{fill:#4890F1;stroke:#1A328C;stroke-width:5;stroke-miterlimit:10;}
	.st242{fill:#6BFFCA;stroke:#1A328C;stroke-width:5;stroke-miterlimit:10;}
	.st243{fill:none;stroke:#0B59C7;stroke-width:5;stroke-linecap:round;stroke-miterlimit:10;}
	.st244{clip-path:url(#SVGID_21_);fill:none;stroke:#FF8B2B;stroke-width:19;stroke-linecap:round;stroke-miterlimit:10;}
	.st245{fill:#FF8B2B;stroke:#0B59C7;stroke-width:5;stroke-linejoin:round;stroke-miterlimit:10;}
	.st246{fill:#FFC99C;}
	.st247{fill:#8AA1F7;stroke:#0B59C7;stroke-width:5;stroke-linejoin:round;stroke-miterlimit:10;}
	.st248{fill:#33DEA7;stroke:#1A328C;stroke-width:5;stroke-miterlimit:10;}
	.st249{fill:#8AA1F7;stroke:#0B59C7;stroke-width:1.5989;stroke-miterlimit:10;}
	.st250{fill:none;stroke:#0B59C7;stroke-width:1.5989;stroke-linecap:round;stroke-miterlimit:10;}
	.st251{fill:none;stroke:#0B59C7;stroke-width:1.5989;stroke-linecap:round;stroke-linejoin:round;stroke-miterlimit:10;}
	.st252{clip-path:url(#SVGID_23_);}
	.st253{fill:none;stroke:#FF8B2B;stroke-width:13.324;stroke-linecap:round;stroke-linejoin:round;stroke-miterlimit:10;}
	.st254{fill:none;stroke:#1A328C;stroke-width:3.1978;stroke-linecap:round;stroke-linejoin:round;stroke-miterlimit:10;}
	.st255{fill:#4890F1;stroke:#1A328C;stroke-width:1.0806;stroke-miterlimit:10;}
	.st256{fill:#4890F1;stroke:#1A328C;stroke-width:1.0806;stroke-linecap:round;stroke-miterlimit:10;}
	.st257{fill:#4890F1;stroke:#1A328C;stroke-width:1.0806;stroke-linecap:round;stroke-linejoin:round;stroke-miterlimit:10;}
	.st258{fill:#8AA1F7;stroke:#1B3BB3;stroke-width:5;stroke-linecap:round;stroke-linejoin:round;stroke-miterlimit:10;}
	.st259{fill:#D1FFEF;stroke:#1B3BB3;stroke-width:5;stroke-linejoin:round;stroke-miterlimit:10;}
	.st260{fill:#AFBFF7;stroke:#1B3BB3;stroke-width:5;stroke-linejoin:round;stroke-miterlimit:10;}
	.st261{fill:#66FFC8;stroke:#1B3BB3;stroke-width:5;stroke-miterlimit:10;}
	.st262{fill:none;stroke:#274CD4;stroke-width:0.9742;stroke-miterlimit:10;}
	.st263{fill:#8AA1F7;stroke:#0653BF;stroke-width:5;stroke-linecap:round;stroke-linejoin:round;stroke-miterlimit:10;}
	.st264{fill:#BAC8FF;}
	.st265{fill:#9EB2FF;}
	.st266{fill:#8AA1F7;stroke:#0B59C7;stroke-width:5;stroke-miterlimit:10;}
	.st267{clip-path:url(#SVGID_27_);}
	.st268{fill:none;stroke:#33DEA7;stroke-width:25;stroke-linecap:round;stroke-linejoin:round;stroke-miterlimit:10;}
	.st269{fill:#0B59C7;stroke:#0B59C7;stroke-width:5;stroke-miterlimit:10;}
	.st270{fill:#4890F1;stroke:#0B59C7;stroke-width:5;stroke-miterlimit:10;}
	.st271{fill:#FF9B47;stroke:#0B59C7;stroke-width:1.6094;stroke-linejoin:round;stroke-miterlimit:10;}
	.st272{fill:#FFC696;}
	.st273{fill:#6CCFAF;stroke:#0B59C7;stroke-width:1.5694;stroke-miterlimit:10;}
	.st274{fill:#9EFFE0;stroke:#0B59C7;stroke-width:1.5694;stroke-miterlimit:10;}
	.st275{fill:none;stroke:#0B59C7;stroke-width:1.5694;stroke-linecap:round;stroke-miterlimit:10;}
	.st276{fill:#00BD80;stroke:#0B59C7;stroke-width:1.5694;stroke-linejoin:round;stroke-miterlimit:10;}
	.st277{fill:#FF8B2B;stroke:#0653BF;stroke-width:1.5522;stroke-linecap:round;stroke-linejoin:round;stroke-miterlimit:10;}
	.st278{fill:none;stroke:#0B59C7;stroke-width:1.5522;stroke-linecap:round;stroke-linejoin:round;stroke-miterlimit:10;}
	.st279{fill:#1D4BB8;}
	.st280{fill:#33DEA7;stroke:#1A328C;stroke-miterlimit:10;}
	.st281{fill:#2DC494;}
	.st282{display:inline;}
	.st283{fill:#0B87C7;}
	.st284{fill:#E3FFFB;stroke:#1A328C;stroke-miterlimit:10;}
	.st285{fill:#D9E5FF;stroke:#1A328C;stroke-miterlimit:10;}
	.st286{fill:#C9FFEB;}
	.st287{fill:#FFD0A8;}
	.st288{fill:#41F2B3;}
	.st289{fill:#31FFC0;}
	.st290{fill:#5CFFCD;}
	.st291{fill:#87FFDA;}
	.st292{fill:#9CFFE0;}
	.st293{fill:#ADFFE6;}
	.st294{fill:#BAFFEA;}
	.st295{fill:#92FCCA;stroke:#1A328C;stroke-width:1.1636;stroke-miterlimit:10;}
	.st296{fill:#92FCCA;stroke:#1A328C;stroke-width:1.1636;stroke-linecap:round;stroke-miterlimit:10;}
	.st297{fill:#92FCCA;stroke:#1A328C;stroke-width:1.1636;stroke-linecap:round;stroke-linejoin:round;stroke-miterlimit:10;}
	.st298{fill:#0C63DB;stroke:#1A328C;stroke-width:0.764;stroke-linecap:round;stroke-linejoin:round;stroke-miterlimit:10;}
	.st299{fill:#0C63DB;stroke:#1A328C;stroke-width:0.764;stroke-miterlimit:10;}
	.st300{fill:#0C63DB;stroke:#1A328C;stroke-width:0.764;stroke-linecap:round;stroke-miterlimit:10;}
	.st301{fill:#8AA1F7;stroke:#1B3BB3;stroke-width:3;stroke-linecap:round;stroke-linejoin:round;stroke-miterlimit:10;}
	.st302{fill:#D1FFEF;stroke:#1B3BB3;stroke-width:3;stroke-linejoin:round;stroke-miterlimit:10;}
	.st303{fill:#0B59C7;stroke:#1B3BB3;stroke-width:3;stroke-miterlimit:10;}
	.st304{fill:#AFBFF7;stroke:#1B3BB3;stroke-width:3;stroke-linejoin:round;stroke-miterlimit:10;}
	.st305{fill:#1A328C;stroke:#1B3BB3;stroke-miterlimit:10;}
	.st306{fill:#66FFC8;stroke:#1B3BB3;stroke-miterlimit:10;}
	.st307{fill:#0B59C7;stroke:#1B3BB3;stroke-miterlimit:10;}
	.st308{fill:#4890F1;stroke:#1B3BB3;stroke-width:3;stroke-miterlimit:10;}
	.st309{fill:#4890F1;stroke:#1B3BB3;stroke-width:3;stroke-linecap:round;stroke-miterlimit:10;}
	.st310{fill:#8AA1F7;stroke:#0B59C7;stroke-width:5.0442;stroke-linejoin:round;stroke-miterlimit:10;}
	.st311{fill:#C1CCF7;}
	.st312{fill:none;stroke:#4890F1;stroke-width:10.418;stroke-miterlimit:10;}
	.st313{fill:none;stroke:#4890F1;stroke-width:8.3506;stroke-miterlimit:10;}
	.st314{opacity:0.2;clip-path:url(#SVGID_31_);}
	.st315{fill:#B5CBE8;stroke:#1A328C;stroke-width:1.9915;stroke-miterlimit:10;}
	.st316{fill:#6BFFCA;stroke:#1A328C;stroke-width:1.5457;stroke-miterlimit:10;}
	.st317{clip-path:url(#SVGID_33_);fill:none;stroke:#33DEA7;stroke-width:9.0959;stroke-linecap:round;stroke-miterlimit:10;}
	.st318{fill:#8AA1F7;stroke:#33DEA7;stroke-width:5;stroke-miterlimit:10;}
	.st319{clip-path:url(#SVGID_35_);}
	.st320{clip-path:url(#SVGID_37_);}
	.st321{fill:#4890F1;stroke:#1A328C;stroke-width:1.7649;stroke-miterlimit:10;}
	.st322{fill:#66FFC8;stroke:#1B3BB3;stroke-width:5;stroke-linecap:round;stroke-linejoin:round;stroke-miterlimit:10;}
	.st323{fill:#3DEBAD;stroke:#1B3BB3;stroke-width:5;stroke-miterlimit:10;}
	.st324{fill:#66FFC8;stroke:#1B3BB3;stroke-width:1.6332;stroke-linecap:round;stroke-linejoin:round;stroke-miterlimit:10;}
	.st325{fill:#D1FFEF;stroke:#1B3BB3;stroke-width:1.6332;stroke-linejoin:round;stroke-miterlimit:10;}
	.st326{fill:#3DEBAD;stroke:#1B3BB3;stroke-width:1.6332;stroke-miterlimit:10;}
	.st327{fill:#96FFD4;stroke:#1B3BB3;stroke-width:1.6332;stroke-linejoin:round;stroke-miterlimit:10;}
	.st328{clip-path:url(#SVGID_41_);fill:none;stroke:#8AA1F7;stroke-width:5;stroke-linecap:round;stroke-miterlimit:10;}
	.st329{fill:#8AA1F7;stroke:#0653BF;stroke-width:2.1766;stroke-linecap:round;stroke-linejoin:round;stroke-miterlimit:10;}
	.st330{fill:#C7FFED;stroke:#33DEA7;stroke-width:5;stroke-miterlimit:10;}
	.st331{fill:#33DEA7;stroke:#33DEA7;stroke-width:5;stroke-linejoin:round;stroke-miterlimit:10;}
	.st332{fill:#A6FFE1;stroke:#1A328C;stroke-width:5;stroke-miterlimit:10;}
	.st333{clip-path:url(#SVGID_43_);fill:none;stroke:#33DEA7;stroke-width:5;stroke-linecap:round;stroke-miterlimit:10;}
	.st334{fill:#8AA1F7;stroke:#33DEA7;stroke-width:1.5989;stroke-miterlimit:10;}
	.st335{fill:none;stroke:#33DEA7;stroke-width:1.5989;stroke-linecap:round;stroke-miterlimit:10;}
	.st336{fill:none;stroke:#33DEA7;stroke-width:1.5989;stroke-linecap:round;stroke-linejoin:round;stroke-miterlimit:10;}
	.st337{clip-path:url(#SVGID_45_);}
	.st338{fill:none;stroke:#33DEA7;stroke-width:13.324;stroke-linecap:round;stroke-linejoin:round;stroke-miterlimit:10;}
	.st339{fill:#33DEA7;stroke:#1B3BB3;stroke-width:5;stroke-miterlimit:10;}
	.st340{fill:#73FFCD;stroke:#1B3BB3;stroke-width:5;stroke-miterlimit:10;}
	.st341{clip-path:url(#SVGID_49_);}
	.st342{fill:#7583BA;}
	.st343{fill:#A6FFDE;stroke:#0B59C7;stroke-width:1.6094;stroke-linejoin:round;stroke-miterlimit:10;}
	.st344{fill:#C7FFED;stroke:#33DEA7;stroke-width:1.5694;stroke-miterlimit:10;}
	.st345{fill:#9EFFE0;stroke:#33DEA7;stroke-width:1.5694;stroke-miterlimit:10;}
	.st346{fill:none;stroke:#33DEA7;stroke-width:1.5694;stroke-linecap:round;stroke-miterlimit:10;}
	.st347{fill:#33DEA7;stroke:#33DEA7;stroke-width:1.5694;stroke-linejoin:round;stroke-miterlimit:10;}
	.st348{fill:#558DDB;stroke:#0653BF;stroke-width:1.5522;stroke-linecap:round;stroke-linejoin:round;stroke-miterlimit:10;}
	.st349{fill:#C4DEFF;}
	.st350{fill:#FFFFFF;stroke:#33DEA7;stroke-width:2.0266;stroke-miterlimit:10;}
	.st351{fill:#FFFFFF;stroke:#FF8B2B;stroke-width:2.0266;stroke-miterlimit:10;}
	.st352{fill:#00BD81;}
	.st353{fill:#FFFFFF;stroke:#4890F1;stroke-width:2.0266;stroke-miterlimit:10;}
	.st354{fill:none;stroke:#1A328C;stroke-width:1.9243;stroke-miterlimit:10;}
	.st355{clip-path:url(#SVGID_63_);}
</style>
<g id="Слой_1">
</g>
<g id="Слой_2">
	<g id="Favorite">
	</g>
	<g>
		<defs>
			<rect id="SVGID_62_" y="0.64" width="1920.45" height="457.5"/>
		</defs>
		<clipPath id="SVGID_1_">
			<use xlink:href="#SVGID_62_"  style="overflow:visible;"/>
		</clipPath>
		<g style="clip-path:url(#SVGID_1_);">
			<g>
				<path class="st144" d="M552.83,21.51c0,0,12.65,6.61,25.9,14.84c0.01,0,0.02,0.01,0.02,0.01c7.91,4.06,13.87,2.47,14.22,2.37
					c0.01,0,0.02-0.01,0.04-0.01c0.82-0.11,27.4-3.77,31.03-4.44c3.69-0.69,23.34-5.81,23.34-5.81s12.31-3.34,18.99-14.75
					c0-0.01,0.01-0.01,0.01-0.02c0.23-0.31,6.08-8.02,8.83-2.86c2.81,5.26-0.82,17.52-6.26,21.98c-4.98,4.08-21.39,10.8-24.14,11.91
					c-0.18,0.07-0.22,0.3-0.06,0.42l8.68,6.89c3.01,2.38,5.64,5.13,7.72,8.21c2.58,3.82,4.64,8.61,1.86,11.79
					c-4.13,4.73-8.34,3.38-9.99,2.56c-0.23-0.11-0.49,0.08-0.4,0.3c0.8,1.95,2.47,7.39-2.12,10.66c-0.01,0.01-0.02,0.01-0.03,0.02
					c-3.75,2.31-7.69,0.95-9.06,0.34c-0.21-0.09-0.43,0.06-0.4,0.26c0.29,1.57,0.83,6.38-2.97,8.34c-3.61,1.86-6.42,1.4-7.44,1.12
					c-0.19-0.05-0.38,0.08-0.36,0.26c0.12,1.1,0.04,4.25-4.27,5.87c-0.05,0.02-0.11,0.04-0.16,0.06c-3.77,1.39-8.13,0.73-11.3-1.66
					c-1.53-1.16-3.29-2.51-4.65-3.62c-0.06-0.05-0.15-0.08-0.23-0.06c-1.07,0.16-8.69,0.89-24.11-7.12c-0.01,0-0.01-0.01-0.02-0.01
					c-0.53-0.33-23.48-14.61-28.98-22.31c-0.03-0.04-0.06-0.06-0.1-0.08c-1.14-0.54-17.53-8.37-33.18-15.29
					c-15.77-6.97-137.17-64.31-144.03-67.55c-0.16-0.07-0.2-0.26-0.09-0.38l34.43-38.87c0.09-0.1,0.24-0.12,0.37-0.05L552.83,21.51z
					"/>
				<g>
					<line class="st145" x1="652.52" y1="73.96" x2="633.96" y2="57.54"/>
					<path class="st146" d="M652.52,73.96c-2.05-0.8-3.86-1.87-5.59-3.03c-1.72-1.17-3.35-2.44-4.9-3.81
						c-1.55-1.37-3.01-2.83-4.38-4.4c-1.36-1.58-2.64-3.24-3.68-5.18c2.05,0.8,3.86,1.87,5.59,3.03c1.72,1.17,3.35,2.44,4.9,3.81
						c1.55,1.37,3.01,2.83,4.38,4.4C650.19,70.36,651.47,72.02,652.52,73.96z"/>
				</g>
				<g>
					<line class="st145" x1="641.43" y1="85.58" x2="623.89" y2="71.08"/>
					<path class="st146" d="M641.43,85.58c-1.94-0.62-3.66-1.53-5.3-2.52c-1.63-1-3.17-2.11-4.64-3.32
						c-1.46-1.21-2.85-2.51-4.14-3.93c-1.28-1.43-2.49-2.94-3.47-4.74c1.95,0.62,3.66,1.52,5.3,2.51c1.63,1,3.17,2.11,4.63,3.32
						c1.46,1.21,2.84,2.51,4.13,3.93C639.25,82.27,640.46,83.79,641.43,85.58z"/>
				</g>
				<g>
					<line class="st145" x1="630.86" y1="95.74" x2="614.7" y2="83.3"/>
					<path class="st146" d="M630.86,95.74c-1.81-0.44-3.4-1.16-4.92-1.97c-1.51-0.82-2.93-1.76-4.28-2.8
						c-1.35-1.03-2.62-2.17-3.8-3.42c-1.17-1.26-2.28-2.61-3.16-4.25c1.81,0.43,3.4,1.16,4.92,1.97c1.51,0.82,2.93,1.76,4.28,2.8
						c1.35,1.04,2.62,2.17,3.8,3.42C628.87,92.75,629.98,94.1,630.86,95.74z"/>
				</g>
			</g>
			<g>
				<path class="st147" d="M311.91,44.75c0,0,25.4,8.47,52.49,19.96c0.02,0.01,0.03,0.01,0.05,0.02
					c15.84,5.14,25.97-0.36,26.57-0.69c0.02-0.01,0.04-0.02,0.06-0.03c1.43-0.54,47.93-18.14,54.21-20.91
					c6.38-2.8,39.81-20.7,39.81-20.7s20.89-11.47,28.46-37.07c0-0.02,0.01-0.03,0.02-0.05c0.3-0.72,7.83-18.51,14.81-9.17
					c7.12,9.54,5.38,35.65-2.69,46.74C518.3,33,491.35,52.87,486.83,56.16c-0.3,0.22-0.28,0.68,0.05,0.87l18.35,10.55
					c6.35,3.65,12.18,8.19,17.13,13.59c6.15,6.72,11.74,15.57,7.97,23.06c-5.6,11.13-13.72,10.03-17.01,9.01
					c-0.46-0.14-0.85,0.35-0.6,0.76c2.2,3.62,7.35,13.95,0.35,22.33c-0.01,0.01-0.03,0.03-0.04,0.04
					c-5.86,6.1-13.48,4.87-16.19,4.17c-0.41-0.1-0.76,0.29-0.61,0.68c1.14,3.06,3.99,12.55-2.09,17.96
					c-5.78,5.14-11.02,5.29-12.97,5.13c-0.37-0.03-0.64,0.31-0.54,0.66c0.65,2.18,1.74,8.55-5.39,13.48
					c-0.09,0.06-0.17,0.12-0.26,0.18c-6.26,4.25-14.38,4.61-21.02,0.99c-3.22-1.75-6.92-3.8-9.79-5.52c-0.14-0.08-0.3-0.1-0.45-0.04
					c-1.86,0.73-15.33,5.14-46.25-5.08c-0.01,0-0.03-0.01-0.04-0.02c-1.09-0.46-48.04-20.44-60.98-33.86
					c-0.06-0.06-0.13-0.11-0.22-0.13c-2.26-0.66-34.87-10.14-65.8-18.07C239.27,108.94-2.03,39.97-15.66,36.08
					c-0.31-0.09-0.46-0.44-0.31-0.73l46.86-91.66c0.12-0.23,0.39-0.34,0.64-0.25L311.91,44.75z"/>
				<g>
					<line class="st148" x1="512.14" y1="112.18" x2="472.26" y2="86.19"/>
					<path class="st149" d="M512.14,112.18c-3.72-1.56-7.24-3.42-10.71-5.37c-3.47-1.93-6.85-4.01-10.18-6.17
						c-3.32-2.17-6.59-4.42-9.76-6.82c-3.18-2.38-6.3-4.86-9.23-7.63c3.72,1.56,7.25,3.41,10.71,5.36
						c3.47,1.94,6.85,4.01,10.18,6.18c3.32,2.17,6.59,4.42,9.76,6.82C506.09,106.93,509.21,109.41,512.14,112.18z"/>
				</g>
				<g>
					<line class="st148" x1="496.71" y1="139.88" x2="459.42" y2="117.39"/>
					<path class="st149" d="M496.71,139.88c-3.49-1.24-6.79-2.8-10.04-4.43c-3.24-1.65-6.41-3.42-9.52-5.29
						c-3.11-1.87-6.15-3.85-9.13-5.95c-2.96-2.12-5.88-4.31-8.6-6.82c3.49,1.24,6.79,2.79,10.05,4.43c3.24,1.65,6.41,3.42,9.52,5.3
						c3.11,1.88,6.15,3.85,9.13,5.95C491.07,135.18,493.99,137.37,496.71,139.88z"/>
				</g>
				<g>
					<line class="st148" x1="481.63" y1="164.45" x2="447.62" y2="145.57"/>
					<path class="st149" d="M481.63,164.45c-3.15-1-6.15-2.27-9.1-3.64c-2.96-1.35-5.84-2.84-8.67-4.41
						c-2.83-1.57-5.62-3.23-8.33-5.02c-2.72-1.78-5.39-3.65-7.9-5.8c3.15,0.99,6.16,2.27,9.1,3.64c2.96,1.35,5.84,2.84,8.67,4.41
						c2.83,1.58,5.62,3.23,8.33,5.03C476.44,160.42,479.11,162.3,481.63,164.45z"/>
				</g>
			</g>
			<g>
				<path class="st150" d="M288.66,286.31c0,0,26.68-2.3,56.11-2.51c0.02,0,0.03,0,0.05,0c16.58-1.57,23.69-10.63,24.11-11.18
					c0.02-0.02,0.03-0.03,0.05-0.05c1.1-1.06,36.79-35.67,41.46-40.7c4.74-5.1,28.33-34.8,28.33-34.8s14.62-18.82,11.42-45.32
					c0-0.02,0-0.03,0-0.05c-0.01-0.78-0.16-20.1,9.95-14.29c10.32,5.93,19.09,30.59,16.08,43.97
					c-2.76,12.24-19.61,41.18-22.45,45.99c-0.19,0.32,0.02,0.73,0.39,0.78l21.03,2.4c7.28,0.83,14.43,2.68,21.12,5.68
					c8.32,3.73,16.95,9.64,16.47,18.01c-0.72,12.44-8.61,14.65-12.03,15.02c-0.47,0.05-0.64,0.66-0.25,0.93
					c3.46,2.45,12.28,9.89,9.18,20.35c-0.01,0.02-0.01,0.04-0.02,0.05c-2.96,7.93-10.45,9.82-13.21,10.25
					c-0.41,0.07-0.58,0.57-0.29,0.87c2.26,2.36,8.64,9.94,5.21,17.32c-3.26,7.01-8.01,9.23-9.87,9.85
					c-0.35,0.12-0.47,0.54-0.23,0.82c1.46,1.75,4.99,7.16,0.4,14.51c-0.06,0.09-0.11,0.18-0.17,0.27
					c-4.06,6.39-11.37,9.93-18.9,9.25c-3.65-0.33-7.86-0.75-11.18-1.18c-0.16-0.02-0.31,0.03-0.43,0.14
					c-1.42,1.41-12.03,10.8-44.47,13.69c-0.01,0-0.03,0-0.04,0c-1.18,0.01-52.2,0.3-69.41-6.88c-0.08-0.03-0.16-0.05-0.25-0.04
					c-2.34,0.29-36.03,4.53-67.57,9.53c-31.77,5.04-280.62,37.48-294.67,39.31c-0.32,0.04-0.6-0.22-0.58-0.55l6.65-102.73
					c0.02-0.26,0.22-0.47,0.49-0.48L288.66,286.31z"/>
				<g>
					<line class="st151" x1="499.22" y1="268.75" x2="452.3" y2="260.72"/>
					<path class="st152" d="M499.22,268.75c-4.04,0.08-8.01-0.21-11.97-0.59c-3.96-0.4-7.89-0.95-11.8-1.62
						c-3.91-0.67-7.8-1.46-11.66-2.39c-3.86-0.96-7.71-2-11.49-3.43c4.04-0.09,8.01,0.2,11.97,0.59c3.96,0.4,7.89,0.95,11.8,1.62
						c3.91,0.67,7.8,1.46,11.66,2.4C491.59,266.28,495.44,267.33,499.22,268.75z"/>
				</g>
				<g>
					<line class="st151" x1="496.05" y1="300.3" x2="452.89" y2="294.45"/>
					<path class="st152" d="M496.05,300.3c-3.7,0.27-7.35,0.16-10.98-0.04c-3.63-0.22-7.25-0.58-10.84-1.07
						c-3.6-0.48-7.18-1.1-10.74-1.85c-3.56-0.78-7.1-1.64-10.6-2.89c3.7-0.27,7.35-0.17,10.98,0.03c3.63,0.22,7.25,0.58,10.84,1.07
						c3.6,0.49,7.18,1.1,10.74,1.85C489.01,298.19,492.56,299.06,496.05,300.3z"/>
				</g>
				<g>
					<line class="st151" x1="491.95" y1="328.84" x2="453.24" y2="325"/>
					<path class="st152" d="M491.95,328.84c-3.3,0.44-6.56,0.5-9.82,0.47c-3.25-0.05-6.49-0.25-9.72-0.56
						c-3.23-0.32-6.44-0.76-9.64-1.35c-3.2-0.61-6.38-1.31-9.53-2.39c3.3-0.44,6.56-0.51,9.82-0.48c3.25,0.05,6.49,0.25,9.71,0.57
						c3.23,0.32,6.44,0.77,9.64,1.35C485.61,327.06,488.8,327.76,491.95,328.84z"/>
				</g>
			</g>
			<g>
				<path class="st153" d="M145.45,91.79c0,0,18.79,1.66,39.24,5.11c0.01,0,0.02,0,0.03,0c11.7,0.94,17.74-4.48,18.09-4.81
					c0.01-0.01,0.02-0.02,0.04-0.03c0.89-0.6,29.88-20.26,33.74-23.18c3.91-2.96,23.91-20.68,23.91-20.68s12.44-11.27,13.45-30.05
					c0-0.01,0-0.02,0-0.03c0.09-0.54,2.35-13.97,8.65-8.7c6.43,5.37,9.51,23.56,5.79,32.47c-3.41,8.16-18.64,26.18-21.19,29.17
					c-0.17,0.2-0.08,0.51,0.17,0.59l14.3,4.23c4.95,1.47,9.68,3.62,13.96,6.52c5.31,3.6,10.59,8.76,9.23,14.5
					c-2.02,8.54-7.76,9.12-10.18,8.95c-0.34-0.02-0.52,0.38-0.29,0.62c2.1,2.12,7.31,8.36,3.89,15.24
					c-0.01,0.01-0.01,0.02-0.02,0.04c-3.02,5.14-8.45,5.54-10.42,5.5c-0.3-0.01-0.47,0.32-0.31,0.57c1.28,1.91,4.78,7.95,1.5,12.65
					c-3.12,4.47-6.69,5.43-8.05,5.63c-0.26,0.04-0.39,0.32-0.26,0.54c0.8,1.39,2.59,5.58-1.5,10.12c-0.05,0.06-0.1,0.11-0.15,0.17
					c-3.59,3.94-9.1,5.5-14.25,4.11c-2.49-0.67-5.36-1.48-7.61-2.19c-0.11-0.03-0.22-0.02-0.31,0.05c-1.16,0.8-9.66,6.03-32.53,4.07
					c-0.01,0-0.02,0-0.03,0c-0.82-0.14-36.26-6.16-47.32-13.25c-0.05-0.03-0.11-0.05-0.17-0.06c-1.66-0.08-25.55-1.26-48.05-1.64
					c-22.66-0.38-199.28-8.25-209.26-8.7c-0.23-0.01-0.39-0.23-0.33-0.45l17.15-70.47c0.04-0.18,0.21-0.3,0.4-0.28L145.45,91.79z"/>
				<g>
					<line class="st154" x1="293.69" y1="105.31" x2="262.12" y2="94.01"/>
					<path class="st155" d="M293.69,105.31c-2.8-0.47-5.52-1.16-8.21-1.93c-2.69-0.77-5.35-1.63-7.99-2.57
						c-2.63-0.94-5.23-1.97-7.8-3.08c-2.57-1.11-5.11-2.3-7.57-3.72c2.8,0.46,5.52,1.15,8.21,1.93c2.69,0.77,5.35,1.62,7.98,2.57
						c2.63,0.94,5.23,1.97,7.8,3.08C288.69,102.7,291.23,103.89,293.69,105.31z"/>
				</g>
				<g>
					<line class="st154" x1="287.64" y1="126.82" x2="258.41" y2="117.49"/>
					<path class="st155" d="M287.64,126.82c-2.59-0.28-5.11-0.8-7.6-1.4c-2.49-0.6-4.96-1.29-7.39-2.07
						c-2.44-0.77-4.84-1.64-7.22-2.59c-2.38-0.95-4.73-1.99-7.01-3.26c2.59,0.28,5.11,0.8,7.6,1.4c2.49,0.6,4.96,1.29,7.39,2.07
						c2.44,0.78,4.84,1.65,7.22,2.6C283.01,124.51,285.36,125.55,287.64,126.82z"/>
				</g>
				<g>
					<line class="st154" x1="281.31" y1="146.11" x2="254.92" y2="138.73"/>
					<path class="st155" d="M281.31,146.11c-2.32-0.17-4.59-0.55-6.83-1.01c-2.25-0.44-4.46-1.01-6.66-1.61
						c-2.19-0.63-4.38-1.3-6.53-2.08c-2.15-0.77-4.29-1.62-6.36-2.69c2.32,0.17,4.59,0.55,6.83,1.01c2.25,0.44,4.46,1.01,6.66,1.61
						c2.19,0.64,4.38,1.3,6.53,2.09C277.1,144.2,279.24,145.05,281.31,146.11z"/>
				</g>
			</g>
			<g>
				<path class="st156" d="M143.46,261.25c0,0,20.74-1.79,43.62-1.95c0.01,0,0.03,0,0.04,0c12.89-1.22,18.42-8.27,18.75-8.69
					c0.01-0.02,0.02-0.03,0.04-0.04c0.85-0.83,28.61-27.74,32.24-31.64c3.69-3.97,22.03-27.05,22.03-27.05s11.37-14.63,8.88-35.24
					c0-0.01,0-0.02,0-0.04c-0.01-0.61-0.12-15.63,7.74-11.11c8.02,4.61,14.84,23.79,12.5,34.19c-2.14,9.52-15.25,32.02-17.46,35.76
					c-0.15,0.25,0.01,0.57,0.3,0.6l16.35,1.87c5.66,0.65,11.22,2.09,16.42,4.42c6.47,2.9,13.18,7.49,12.8,14
					c-0.56,9.67-6.69,11.39-9.36,11.68c-0.37,0.04-0.5,0.51-0.19,0.73c2.69,1.9,9.55,7.69,7.14,15.83c0,0.01-0.01,0.03-0.01,0.04
					c-2.3,6.16-8.12,7.64-10.27,7.97c-0.32,0.05-0.45,0.44-0.23,0.67c1.76,1.83,6.72,7.72,4.05,13.46
					c-2.54,5.45-6.23,7.18-7.67,7.66c-0.27,0.09-0.36,0.42-0.18,0.64c1.13,1.36,3.88,5.57,0.31,11.28
					c-0.04,0.07-0.09,0.14-0.13,0.21c-3.15,4.97-8.84,7.72-14.7,7.2c-2.84-0.26-6.11-0.58-8.69-0.92c-0.12-0.02-0.24,0.02-0.33,0.11
					c-1.11,1.09-9.35,8.4-34.58,10.64c-0.01,0-0.02,0-0.03,0c-0.92,0.01-40.59,0.23-53.97-5.35c-0.06-0.03-0.13-0.04-0.2-0.03
					c-1.82,0.23-28.01,3.52-52.54,7.41c-24.7,3.92-218.19,29.14-229.11,30.57c-0.25,0.03-0.47-0.17-0.45-0.43l5.17-79.88
					c0.01-0.2,0.17-0.36,0.38-0.38L143.46,261.25z"/>
				<g>
					<line class="st157" x1="307.18" y1="247.6" x2="270.7" y2="241.36"/>
					<path class="st158" d="M307.18,247.6c-3.13,0.03-6.22-0.2-9.3-0.53c-3.07-0.33-6.13-0.74-9.17-1.26
						c-3.04-0.51-6.06-1.14-9.07-1.85c-3.01-0.71-6-1.52-8.94-2.6c3.13-0.03,6.22,0.2,9.3,0.52c3.07,0.33,6.13,0.74,9.17,1.27
						c3.04,0.52,6.06,1.14,9.07,1.86C301.24,245.73,304.23,246.53,307.18,247.6z"/>
				</g>
				<g>
					<line class="st157" x1="304.71" y1="272.14" x2="271.16" y2="267.59"/>
					<path class="st158" d="M304.71,272.14c-2.87,0.19-5.71,0.1-8.53-0.07c-2.83-0.16-5.63-0.46-8.43-0.83
						c-2.8-0.38-5.58-0.84-8.35-1.44c-2.77-0.58-5.53-1.26-8.24-2.21c2.87-0.19,5.71-0.11,8.53,0.07c2.83,0.16,5.63,0.46,8.43,0.84
						c2.8,0.38,5.58,0.84,8.35,1.44C299.24,270.52,301.99,271.19,304.71,272.14z"/>
				</g>
				<g>
					<line class="st157" x1="301.52" y1="294.32" x2="271.43" y2="291.34"/>
					<path class="st158" d="M301.52,294.32c-2.56,0.26-5.09,0.28-7.62,0.21c-2.53-0.07-5.04-0.22-7.55-0.47
						c-2.51-0.24-5.01-0.59-7.5-1.01c-2.49-0.43-4.97-0.94-7.43-1.7c2.56-0.26,5.09-0.28,7.62-0.21c2.53,0.07,5.04,0.22,7.55,0.48
						c2.51,0.25,5.01,0.59,7.5,1.02C296.58,293.05,299.06,293.56,301.52,294.32z"/>
				</g>
			</g>
			<g>
				<path class="st159" d="M78.82,384.84c0,0,18.44-1.77,38.79-2.12c0.01,0,0.02,0,0.03,0c11.46-1.2,16.31-7.52,16.6-7.9
					c0.01-0.01,0.02-0.02,0.03-0.04c0.75-0.74,25.2-24.93,28.4-28.43c3.24-3.56,19.36-24.26,19.36-24.26s9.98-13.12,7.58-31.42
					c0-0.01,0-0.02,0-0.03c-0.01-0.54-0.25-13.9,6.79-9.95c7.18,4.03,13.41,21.03,11.42,30.3c-1.82,8.49-13.28,28.61-15.21,31.97
					c-0.13,0.22,0.02,0.51,0.27,0.53l14.56,1.52c5.04,0.52,10,1.76,14.64,3.78c5.78,2.52,11.79,6.55,11.51,12.34
					c-0.42,8.61-5.85,10.19-8.22,10.47c-0.33,0.04-0.44,0.46-0.16,0.65c2.41,1.67,8.56,6.75,6.49,14.01c0,0.01-0.01,0.03-0.01,0.04
					c-1.99,5.5-7.16,6.86-9.06,7.18c-0.29,0.05-0.4,0.39-0.2,0.6c1.58,1.61,6.05,6.81,3.72,11.94c-2.21,4.87-5.48,6.44-6.76,6.88
					c-0.24,0.08-0.32,0.38-0.16,0.57c1.02,1.2,3.5,4.92,0.37,10.03c-0.04,0.06-0.08,0.12-0.11,0.19c-2.76,4.45-7.79,6.95-13.01,6.53
					c-2.53-0.2-5.44-0.46-7.74-0.74c-0.11-0.01-0.22,0.02-0.29,0.1c-0.97,0.98-8.25,7.55-30.66,9.77c-0.01,0-0.02,0-0.03,0
					c-0.82,0.01-36.1,0.57-48.05-4.28c-0.06-0.02-0.11-0.03-0.17-0.02c-1.62,0.22-24.89,3.38-46.67,7.05
					c-21.94,3.7-193.83,27.85-203.54,29.22c-0.22,0.03-0.42-0.15-0.4-0.37l3.89-71.1c0.01-0.18,0.15-0.32,0.33-0.34L78.82,384.84z"
					/>
				<g>
					<line class="st107" x1="224.33" y1="371.25" x2="191.83" y2="366.02"/>
					<path class="st160" d="M224.33,371.25c-2.88,0.63-5.68,0.74-8.45,0.71c-2.77-0.06-5.51-0.32-8.22-0.75
						c-2.71-0.43-5.39-1.04-8.04-1.86c-2.65-0.83-5.26-1.82-7.8-3.33c2.88-0.63,5.68-0.75,8.45-0.71c2.77,0.06,5.51,0.32,8.21,0.76
						c2.71,0.44,5.39,1.05,8.04,1.86C219.17,368.76,221.79,369.75,224.33,371.25z"/>
				</g>
				<g>
					<line class="st107" x1="222.36" y1="393.09" x2="192.47" y2="389.34"/>
					<path class="st160" d="M222.36,393.09c-2.62,0.76-5.19,1-7.73,1.09c-2.54,0.07-5.05-0.07-7.54-0.38
						c-2.49-0.31-4.96-0.8-7.4-1.49c-2.44-0.71-4.86-1.58-7.22-2.97c2.63-0.76,5.19-1.01,7.73-1.09c2.54-0.07,5.05,0.07,7.54,0.39
						c2.49,0.32,4.96,0.8,7.4,1.5C217.58,390.84,220,391.71,222.36,393.09z"/>
				</g>
				<g>
					<line class="st107" x1="219.71" y1="412.86" x2="192.92" y2="410.47"/>
					<path class="st160" d="M219.71,412.86c-2.33,0.87-4.61,1.23-6.88,1.43c-2.27,0.18-4.52,0.16-6.75-0.04
						c-2.23-0.19-4.45-0.57-6.65-1.15c-2.2-0.6-4.38-1.36-6.52-2.63c2.33-0.88,4.61-1.24,6.88-1.44c2.27-0.18,4.52-0.16,6.75,0.04
						c2.23,0.2,4.45,0.58,6.65,1.16C215.39,410.83,217.58,411.58,219.71,412.86z"/>
				</g>
			</g>
			<g>
				<path class="st161" d="M51.56,176.92c0,0,15.17,1.34,31.67,4.12c0.01,0,0.02,0,0.03,0c9.44,0.75,14.32-3.62,14.61-3.89
					c0.01-0.01,0.02-0.02,0.03-0.02c0.72-0.49,24.12-16.35,27.23-18.71c3.16-2.39,19.3-16.7,19.3-16.7s10.04-9.1,10.86-24.26
					c0-0.01,0-0.02,0-0.03c0.07-0.44,1.89-11.27,6.98-7.02c5.19,4.34,7.68,19.02,4.67,26.21c-2.75,6.59-15.04,21.13-17.11,23.55
					c-0.14,0.16-0.06,0.41,0.14,0.47l11.54,3.42c4,1.18,7.82,2.92,11.27,5.26c4.29,2.91,8.55,7.07,7.45,11.71
					c-1.63,6.9-6.27,7.36-8.22,7.23c-0.27-0.02-0.42,0.31-0.23,0.5c1.7,1.71,5.9,6.75,3.14,12.3c0,0.01-0.01,0.02-0.02,0.03
					c-2.44,4.15-6.82,4.47-8.41,4.44c-0.24,0-0.38,0.26-0.25,0.46c1.03,1.54,3.86,6.42,1.21,10.21c-2.52,3.61-5.4,4.38-6.5,4.55
					c-0.21,0.03-0.32,0.26-0.21,0.44c0.64,1.12,2.09,4.5-1.21,8.17c-0.04,0.04-0.08,0.09-0.12,0.13c-2.9,3.18-7.35,4.44-11.5,3.32
					c-2.01-0.54-4.33-1.19-6.15-1.77c-0.09-0.03-0.18-0.01-0.25,0.04c-0.93,0.65-7.8,4.86-26.26,3.29c-0.01,0-0.02,0-0.02,0
					c-0.66-0.11-29.27-4.98-38.2-10.69c-0.04-0.03-0.09-0.04-0.14-0.04c-1.34-0.07-20.63-1.02-38.78-1.32
					c-18.29-0.31-160.87-6.66-168.92-7.02c-0.19-0.01-0.31-0.18-0.27-0.36l13.85-56.88c0.04-0.14,0.17-0.24,0.32-0.22L51.56,176.92z
					"/>
				<g>
					<line class="st162" x1="171.22" y1="187.83" x2="145.73" y2="178.71"/>
					<path class="st160" d="M171.22,187.83c-2.49,0.25-4.8,0.02-7.06-0.36c-2.25-0.4-4.44-0.99-6.56-1.75
						c-2.13-0.76-4.19-1.68-6.18-2.8c-1.99-1.14-3.92-2.43-5.68-4.21c2.49-0.26,4.8-0.03,7.06,0.35c2.25,0.4,4.44,0.99,6.56,1.76
						c2.12,0.76,4.19,1.69,6.18,2.81C167.52,184.77,169.46,186.06,171.22,187.83z"/>
				</g>
				<g>
					<line class="st162" x1="166.33" y1="205.19" x2="142.74" y2="197.66"/>
					<path class="st160" d="M166.33,205.19c-2.29,0.4-4.43,0.3-6.52,0.06c-2.08-0.26-4.1-0.72-6.07-1.35
						c-1.97-0.62-3.88-1.42-5.73-2.41c-1.84-1.01-3.64-2.17-5.28-3.83c2.3-0.41,4.43-0.31,6.52-0.07c2.08,0.26,4.1,0.72,6.07,1.35
						c1.97,0.63,3.88,1.43,5.73,2.42C162.9,202.38,164.69,203.54,166.33,205.19z"/>
				</g>
				<g>
					<line class="st162" x1="161.22" y1="220.77" x2="139.92" y2="214.81"/>
					<path class="st160" d="M161.22,220.77c-2.07,0.54-3.99,0.58-5.87,0.47c-1.88-0.13-3.7-0.46-5.48-0.95
						c-1.78-0.49-3.5-1.16-5.18-2.02c-1.67-0.88-3.29-1.92-4.77-3.46c2.07-0.55,3.99-0.59,5.88-0.48c1.88,0.13,3.7,0.45,5.47,0.96
						c1.77,0.5,3.5,1.17,5.17,2.03C158.11,218.2,159.74,219.24,161.22,220.77z"/>
				</g>
			</g>
			<g>
				<path class="st163" d="M295.81,419.1c0,0,18.01-4.32,38.12-7.48c0.01,0,0.02,0,0.03-0.01c11.18-2.78,15.11-9.71,15.34-10.12
					c0.01-0.02,0.02-0.03,0.03-0.04c0.64-0.84,21.5-28.18,24.18-32.1c2.72-3.98,15.8-26.71,15.8-26.71s8.06-14.37,3.15-32.17
					c0-0.01-0.01-0.02-0.01-0.03c-0.09-0.53-2.17-13.73,5.34-10.8c7.67,3,16.2,18.96,15.52,28.42c-0.63,8.66-9.18,30.18-10.63,33.77
					c-0.1,0.24,0.09,0.5,0.35,0.49l14.63-0.52c5.07-0.18,10.14,0.35,15.03,1.72c6.07,1.7,12.59,4.85,13.11,10.62
					c0.78,8.58-4.38,10.91-6.69,11.51c-0.32,0.08-0.37,0.52-0.07,0.66c2.62,1.32,9.42,5.5,8.37,12.98c0,0.01,0,0.03-0.01,0.04
					c-1.21,5.73-6.14,7.79-7.98,8.37c-0.28,0.09-0.34,0.45-0.11,0.62c1.79,1.38,6.93,5.91,5.34,11.31
					c-1.51,5.13-4.53,7.14-5.74,7.75c-0.23,0.12-0.27,0.42-0.08,0.59c1.18,1.04,4.15,4.38,1.76,9.88c-0.03,0.07-0.06,0.13-0.09,0.2
					c-2.12,4.79-6.75,7.96-11.98,8.27c-2.53,0.15-5.45,0.3-7.77,0.34c-0.11,0-0.21,0.05-0.28,0.14c-0.83,1.11-7.12,8.62-29.01,13.93
					c-0.01,0-0.02,0-0.03,0.01c-0.81,0.13-35.68,5.57-48.18,2.43c-0.06-0.01-0.12-0.01-0.18,0c-1.57,0.44-24.18,6.8-45.24,13.46
					c-21.21,6.71-188.09,54.48-197.51,57.17c-0.22,0.06-0.43-0.09-0.45-0.32l-6.01-70.95c-0.02-0.18,0.11-0.34,0.28-0.38
					L295.81,419.1z"/>
				<g>
					<line class="st148" x1="438.03" y1="385.45" x2="405.11" y2="384.78"/>
					<path class="st149" d="M438.03,385.45c-2.76,1.02-5.52,1.52-8.27,1.87c-2.75,0.33-5.5,0.45-8.24,0.39
						c-2.74-0.05-5.48-0.29-8.22-0.72c-2.73-0.46-5.47-1.07-8.19-2.21c2.77-1.03,5.52-1.53,8.27-1.88c2.75-0.33,5.5-0.45,8.24-0.39
						c2.74,0.06,5.48,0.29,8.22,0.73C432.58,383.7,435.31,384.32,438.03,385.45z"/>
				</g>
				<g>
					<line class="st148" x1="439.1" y1="407.36" x2="408.98" y2="407.79"/>
					<path class="st149" d="M439.1,407.36c-2.49,1.11-5,1.71-7.5,2.15c-2.5,0.42-5.01,0.63-7.52,0.67c-2.51,0.04-5.02-0.1-7.54-0.45
						c-2.52-0.36-5.03-0.89-7.56-1.94c2.49-1.12,5-1.72,7.5-2.15c2.5-0.42,5.01-0.63,7.52-0.66c2.51-0.03,5.02,0.11,7.54,0.45
						C434.06,405.79,436.58,406.32,439.1,407.36z"/>
				</g>
				<g>
					<line class="st148" x1="439.23" y1="427.3" x2="412.36" y2="428.65"/>
					<path class="st149" d="M439.23,427.3c-2.18,1.19-4.4,1.86-6.61,2.37c-2.22,0.49-4.45,0.78-6.69,0.9
						c-2.24,0.12-4.49,0.05-6.75-0.22c-2.26-0.29-4.53-0.73-6.82-1.7c2.18-1.2,4.4-1.87,6.61-2.38c2.22-0.49,4.45-0.78,6.69-0.89
						c2.24-0.11,4.49-0.05,6.75,0.22C434.67,425.89,436.94,426.33,439.23,427.3z"/>
				</g>
			</g>
			<g>
				<path class="st164" d="M491.44,438.17c0,0,13.89-5.18,29.55-9.66c0.01,0,0.02-0.01,0.03-0.01c8.61-3.3,11.06-9.18,11.2-9.54
					c0.01-0.01,0.01-0.02,0.02-0.03c0.43-0.73,14.33-24.48,16.08-27.86c1.77-3.43,9.95-22.76,9.95-22.76s5.01-12.21-0.63-25.87
					c0-0.01-0.01-0.02-0.01-0.03c-0.12-0.42-3.06-10.7,3.19-9.1c6.38,1.63,14.72,13.49,15.1,21.07c0.35,6.94-4.35,24.87-5.15,27.86
					c-0.05,0.2,0.12,0.39,0.32,0.36l11.57-1.84c4.01-0.64,8.09-0.71,12.11-0.1c4.99,0.76,10.47,2.63,11.45,7.16
					c1.46,6.74-2.42,9.09-4.19,9.8c-0.25,0.1-0.24,0.45,0.01,0.54c2.21,0.79,8.02,3.45,7.92,9.49c0,0.01,0,0.02,0,0.03
					c-0.4,4.67-4.11,6.79-5.52,7.43c-0.21,0.1-0.23,0.39-0.03,0.51c1.56,0.92,6.08,4.02,5.35,8.46c-0.7,4.22-2.9,6.11-3.8,6.72
					c-0.17,0.11-0.17,0.36,0,0.47c1.04,0.71,3.72,3.08,2.36,7.68c-0.02,0.06-0.03,0.11-0.05,0.17c-1.22,4.01-4.59,6.98-8.71,7.74
					c-2,0.37-4.3,0.77-6.14,1.03c-0.09,0.01-0.16,0.06-0.21,0.14c-0.55,0.96-4.81,7.55-21.69,13.9c-0.01,0-0.01,0.01-0.02,0.01
					c-0.63,0.18-27.8,7.9-38.04,6.62c-0.05-0.01-0.09,0-0.14,0.02c-1.2,0.5-18.55,7.76-34.63,15.1
					c-16.2,7.4-144.12,61.61-151.35,64.67c-0.17,0.07-0.35-0.03-0.39-0.21l-11.69-55.78c-0.03-0.14,0.05-0.28,0.19-0.33
					L491.44,438.17z"/>
				<g>
					<line class="st145" x1="601.15" y1="397.58" x2="574.93" y2="400.25"/>
					<path class="st146" d="M601.15,397.58c-2.11,0.98-4.25,1.59-6.41,2.1c-2.16,0.49-4.33,0.84-6.51,1.06
						c-2.18,0.23-4.38,0.32-6.59,0.28c-2.21-0.06-4.44-0.23-6.7-0.76c2.11-0.98,4.25-1.6,6.41-2.1c2.16-0.49,4.33-0.84,6.51-1.06
						c2.18-0.22,4.38-0.32,6.59-0.28C596.66,396.88,598.88,397.04,601.15,397.58z"/>
				</g>
				<g>
					<line class="st145" x1="604.13" y1="414.88" x2="580.25" y2="418.16"/>
					<path class="st146" d="M604.13,414.88c-1.89,1.02-3.82,1.69-5.78,2.24c-1.95,0.54-3.93,0.94-5.92,1.21
						c-1.99,0.28-4,0.43-6.03,0.43c-2.03-0.01-4.07-0.12-6.17-0.61c1.89-1.03,3.82-1.69,5.78-2.25c1.95-0.54,3.93-0.94,5.92-1.21
						c1.99-0.27,4-0.42,6.03-0.43C600,414.28,602.04,414.4,604.13,414.88z"/>
				</g>
				<g>
					<line class="st145" x1="606.18" y1="430.7" x2="584.96" y2="434.4"/>
					<path class="st146" d="M606.18,430.7c-1.64,1.06-3.34,1.75-5.06,2.34c-1.72,0.57-3.47,1-5.24,1.31
						c-1.77,0.31-3.56,0.5-5.37,0.54c-1.82,0.03-3.65-0.05-5.55-0.5c1.64-1.06,3.34-1.76,5.06-2.34c1.72-0.57,3.47-1,5.24-1.31
						c1.77-0.31,3.56-0.49,5.37-0.53C602.44,430.19,604.28,430.27,606.18,430.7z"/>
				</g>
			</g>
		</g>
		<g style="clip-path:url(#SVGID_1_);">
			<g>
				<path class="st144" d="M1367.74,24.95c0,0-12.65,6.61-25.9,14.84c-0.01,0-0.02,0.01-0.02,0.01c-7.91,4.06-13.87,2.47-14.22,2.37
					c-0.01,0-0.02-0.01-0.04-0.01c-0.82-0.11-27.4-3.77-31.03-4.44c-3.69-0.69-23.34-5.81-23.34-5.81s-12.31-3.34-18.99-14.75
					c0-0.01-0.01-0.01-0.01-0.02c-0.23-0.31-6.08-8.02-8.83-2.86c-2.8,5.26,0.82,17.52,6.26,21.98c4.98,4.08,21.39,10.8,24.14,11.91
					c0.18,0.07,0.22,0.3,0.06,0.42l-8.68,6.89c-3.01,2.38-5.64,5.13-7.72,8.21c-2.58,3.82-4.64,8.61-1.86,11.79
					c4.13,4.73,8.34,3.38,9.99,2.56c0.23-0.11,0.49,0.08,0.4,0.3c-0.8,1.95-2.47,7.39,2.12,10.66c0.01,0.01,0.02,0.01,0.03,0.02
					c3.75,2.31,7.69,0.95,9.06,0.34c0.21-0.09,0.43,0.06,0.4,0.26c-0.29,1.57-0.83,6.38,2.97,8.34c3.61,1.86,6.42,1.4,7.44,1.12
					c0.19-0.05,0.38,0.08,0.36,0.26c-0.12,1.1-0.04,4.25,4.27,5.87c0.05,0.02,0.11,0.04,0.16,0.06c3.77,1.39,8.13,0.73,11.3-1.66
					c1.53-1.16,3.29-2.51,4.65-3.62c0.06-0.05,0.15-0.08,0.23-0.06c1.07,0.16,8.69,0.89,24.11-7.12c0.01,0,0.01-0.01,0.02-0.01
					c0.53-0.33,23.48-14.61,28.98-22.31c0.03-0.04,0.06-0.06,0.1-0.08c1.14-0.54,17.53-8.37,33.18-15.29
					c15.77-6.97,137.17-64.31,144.03-67.55c0.16-0.07,0.2-0.26,0.09-0.38l-34.43-38.87c-0.09-0.1-0.24-0.12-0.37-0.05L1367.74,24.95
					z"/>
				<g>
					<line class="st145" x1="1268.05" y1="77.39" x2="1286.6" y2="60.97"/>
					<path class="st146" d="M1268.05,77.39c1.04-1.94,2.33-3.6,3.69-5.18c1.37-1.57,2.83-3.03,4.38-4.4
						c1.54-1.37,3.17-2.65,4.9-3.81c1.73-1.16,3.54-2.23,5.59-3.03c-1.04,1.94-2.33,3.6-3.68,5.18c-1.37,1.57-2.83,3.03-4.38,4.4
						c-1.55,1.37-3.18,2.64-4.9,3.81C1271.9,75.52,1270.1,76.59,1268.05,77.39z"/>
				</g>
				<g>
					<line class="st145" x1="1279.13" y1="89.02" x2="1296.67" y2="74.52"/>
					<path class="st146" d="M1279.13,89.02c0.98-1.79,2.19-3.3,3.47-4.73c1.29-1.42,2.67-2.72,4.13-3.93c1.46-1.21,3-2.32,4.63-3.32
						c1.64-0.99,3.36-1.89,5.3-2.51c-0.98,1.8-2.19,3.31-3.47,4.74c-1.29,1.42-2.67,2.72-4.14,3.93c-1.46,1.21-3,2.32-4.64,3.32
						C1282.78,87.49,1281.07,88.39,1279.13,89.02z"/>
				</g>
				<g>
					<line class="st145" x1="1289.7" y1="99.18" x2="1305.86" y2="86.73"/>
					<path class="st146" d="M1289.7,99.18c0.88-1.64,1.99-2.99,3.16-4.25c1.18-1.25,2.45-2.39,3.8-3.42
						c1.35-1.04,2.77-1.98,4.28-2.8c1.52-0.81,3.11-1.54,4.92-1.97c-0.88,1.64-1.99,2.99-3.16,4.25c-1.18,1.25-2.45,2.39-3.8,3.42
						c-1.35,1.04-2.77,1.97-4.28,2.8C1293.1,98.01,1291.51,98.74,1289.7,99.18z"/>
				</g>
			</g>
			<g>
				<path class="st147" d="M1608.66,48.18c0,0-25.4,8.47-52.49,19.96c-0.02,0.01-0.03,0.01-0.05,0.02
					c-15.84,5.14-25.97-0.36-26.57-0.69c-0.02-0.01-0.04-0.02-0.06-0.03c-1.43-0.54-47.93-18.14-54.21-20.91
					c-6.38-2.8-39.81-20.7-39.81-20.7s-20.89-11.47-28.46-37.07c0-0.02-0.01-0.03-0.02-0.05c-0.3-0.72-7.83-18.51-14.81-9.17
					c-7.12,9.54-5.38,35.65,2.69,46.74c7.39,10.14,34.34,30.02,38.86,33.31c0.3,0.22,0.28,0.68-0.05,0.87l-18.35,10.55
					c-6.35,3.65-12.18,8.19-17.13,13.59c-6.15,6.72-11.74,15.57-7.97,23.06c5.6,11.13,13.72,10.03,17.01,9.01
					c0.46-0.14,0.85,0.35,0.6,0.76c-2.2,3.62-7.35,13.95-0.35,22.33c0.01,0.01,0.03,0.03,0.04,0.04c5.86,6.1,13.48,4.87,16.19,4.17
					c0.41-0.1,0.76,0.29,0.61,0.68c-1.14,3.06-3.99,12.55,2.09,17.96c5.78,5.14,11.02,5.29,12.97,5.13
					c0.36-0.03,0.64,0.31,0.54,0.66c-0.65,2.18-1.74,8.55,5.39,13.48c0.09,0.06,0.17,0.12,0.26,0.18
					c6.26,4.25,14.38,4.61,21.02,0.99c3.22-1.75,6.92-3.8,9.79-5.52c0.14-0.08,0.3-0.1,0.45-0.04c1.86,0.73,15.33,5.14,46.25-5.08
					c0.01,0,0.03-0.01,0.04-0.02c1.09-0.46,48.04-20.44,60.98-33.86c0.06-0.06,0.13-0.11,0.22-0.13
					c2.26-0.66,34.87-10.14,65.8-18.07c31.16-7.98,272.45-76.94,286.08-80.84c0.31-0.09,0.46-0.44,0.31-0.73l-46.86-91.66
					c-0.12-0.23-0.39-0.34-0.64-0.25L1608.66,48.18z"/>
				<g>
					<line class="st148" x1="1408.42" y1="115.62" x2="1448.3" y2="89.63"/>
					<path class="st149" d="M1408.42,115.62c2.93-2.77,6.05-5.25,9.23-7.63c3.17-2.4,6.44-4.65,9.76-6.82
						c3.32-2.16,6.7-4.24,10.18-6.18c3.46-1.95,6.99-3.8,10.71-5.36c-2.93,2.77-6.05,5.25-9.23,7.63c-3.17,2.4-6.44,4.65-9.76,6.81
						c-3.33,2.16-6.71,4.24-10.18,6.17C1415.66,112.2,1412.13,114.05,1408.42,115.62z"/>
				</g>
				<g>
					<line class="st148" x1="1423.85" y1="143.32" x2="1461.14" y2="120.83"/>
					<path class="st149" d="M1423.85,143.32c2.73-2.51,5.64-4.7,8.6-6.82c2.97-2.1,6.02-4.08,9.13-5.95
						c3.11-1.88,6.28-3.65,9.52-5.3c3.25-1.63,6.55-3.19,10.05-4.43c-2.72,2.51-5.64,4.7-8.6,6.82c-2.97,2.1-6.02,4.08-9.13,5.95
						c-3.11,1.87-6.28,3.64-9.52,5.29C1430.64,140.52,1427.34,142.08,1423.85,143.32z"/>
				</g>
				<g>
					<line class="st148" x1="1438.94" y1="167.88" x2="1472.94" y2="149.01"/>
					<path class="st149" d="M1438.94,167.88c2.51-2.15,5.18-4.02,7.9-5.8c2.71-1.79,5.5-3.45,8.33-5.03
						c2.83-1.57,5.71-3.06,8.67-4.41c2.95-1.37,5.95-2.64,9.1-3.64c-2.51,2.15-5.18,4.03-7.9,5.8c-2.71,1.79-5.5,3.45-8.33,5.02
						c-2.84,1.57-5.72,3.06-8.67,4.41C1445.09,165.61,1442.09,166.88,1438.94,167.88z"/>
				</g>
			</g>
			<g>
				<path class="st150" d="M1631.9,289.74c0,0-26.68-2.3-56.1-2.51c-0.02,0-0.03,0-0.05,0c-16.58-1.57-23.69-10.63-24.11-11.18
					c-0.02-0.02-0.03-0.03-0.05-0.05c-1.1-1.06-36.79-35.67-41.46-40.7c-4.74-5.1-28.33-34.8-28.33-34.8s-14.62-18.82-11.42-45.32
					c0-0.02,0-0.03,0-0.05c0.01-0.78,0.16-20.1-9.95-14.29c-10.32,5.93-19.09,30.59-16.08,43.97c2.76,12.24,19.61,41.18,22.45,45.99
					c0.19,0.32-0.02,0.73-0.39,0.78l-21.03,2.4c-7.28,0.83-14.43,2.68-21.12,5.68c-8.32,3.73-16.95,9.64-16.47,18.01
					c0.72,12.44,8.61,14.65,12.03,15.02c0.47,0.05,0.64,0.66,0.25,0.93c-3.46,2.45-12.28,9.89-9.18,20.35
					c0.01,0.02,0.01,0.04,0.02,0.05c2.96,7.93,10.45,9.82,13.21,10.25c0.41,0.07,0.58,0.57,0.29,0.87
					c-2.26,2.36-8.64,9.94-5.21,17.32c3.26,7.01,8.01,9.23,9.87,9.85c0.35,0.12,0.47,0.54,0.23,0.82c-1.46,1.75-4.99,7.16-0.4,14.51
					c0.06,0.09,0.11,0.18,0.17,0.27c4.06,6.39,11.37,9.93,18.9,9.25c3.65-0.33,7.86-0.75,11.18-1.18c0.16-0.02,0.31,0.03,0.43,0.14
					c1.42,1.41,12.03,10.8,44.47,13.69c0.01,0,0.03,0,0.04,0c1.18,0.01,52.2,0.3,69.41-6.88c0.08-0.03,0.16-0.05,0.25-0.04
					c2.34,0.29,36.03,4.53,67.57,9.53c31.77,5.04,280.62,37.48,294.67,39.31c0.32,0.04,0.6-0.22,0.58-0.55l-6.65-102.73
					c-0.02-0.26-0.22-0.47-0.48-0.48L1631.9,289.74z"/>
				<g>
					<line class="st151" x1="1421.34" y1="272.19" x2="1468.26" y2="264.16"/>
					<path class="st152" d="M1421.34,272.19c3.78-1.42,7.63-2.47,11.49-3.42c3.86-0.93,7.75-1.73,11.66-2.4
						c3.91-0.67,7.84-1.22,11.8-1.62c3.96-0.38,7.93-0.67,11.97-0.59c-3.78,1.43-7.63,2.47-11.49,3.43
						c-3.86,0.93-7.75,1.73-11.66,2.39c-3.91,0.67-7.84,1.21-11.8,1.62C1429.36,271.98,1425.38,272.27,1421.34,272.19z"/>
				</g>
				<g>
					<line class="st151" x1="1424.51" y1="303.74" x2="1467.67" y2="297.89"/>
					<path class="st152" d="M1424.51,303.74c3.49-1.24,7.04-2.11,10.6-2.89c3.56-0.75,7.14-1.37,10.74-1.85
						c3.6-0.49,7.21-0.85,10.84-1.07c3.64-0.2,7.28-0.31,10.98-0.03c-3.49,1.25-7.04,2.12-10.6,2.89
						c-3.56,0.75-7.14,1.37-10.74,1.85c-3.6,0.49-7.21,0.85-10.84,1.07C1431.86,303.9,1428.21,304.01,1424.51,303.74z"/>
				</g>
				<g>
					<line class="st151" x1="1428.62" y1="332.27" x2="1467.32" y2="328.44"/>
					<path class="st152" d="M1428.62,332.27c3.15-1.08,6.34-1.78,9.53-2.39c3.2-0.59,6.41-1.03,9.64-1.35
						c3.23-0.32,6.46-0.52,9.71-0.57c3.25-0.03,6.52,0.03,9.82,0.48c-3.15,1.08-6.34,1.78-9.53,2.39c-3.2,0.59-6.41,1.03-9.64,1.35
						c-3.23,0.32-6.46,0.51-9.72,0.56C1435.18,332.77,1431.92,332.71,1428.62,332.27z"/>
				</g>
			</g>
			<g>
				<path class="st153" d="M1775.11,95.23c0,0-18.79,1.66-39.24,5.11c-0.01,0-0.02,0-0.03,0c-11.7,0.94-17.74-4.48-18.09-4.81
					c-0.01-0.01-0.02-0.02-0.04-0.03c-0.89-0.6-29.88-20.26-33.74-23.18c-3.91-2.96-23.91-20.68-23.91-20.68
					s-12.44-11.27-13.45-30.05c0-0.01,0-0.02,0-0.03c-0.09-0.54-2.35-13.97-8.65-8.7c-6.43,5.37-9.51,23.56-5.79,32.47
					c3.41,8.16,18.64,26.18,21.19,29.17c0.17,0.2,0.08,0.51-0.17,0.59l-14.3,4.23c-4.95,1.47-9.68,3.62-13.96,6.52
					c-5.31,3.6-10.59,8.76-9.23,14.5c2.02,8.54,7.76,9.12,10.18,8.95c0.34-0.02,0.52,0.38,0.29,0.62c-2.1,2.12-7.31,8.36-3.89,15.24
					c0.01,0.01,0.01,0.02,0.02,0.04c3.02,5.14,8.45,5.54,10.42,5.5c0.3-0.01,0.47,0.32,0.31,0.57c-1.28,1.91-4.78,7.95-1.5,12.65
					c3.12,4.47,6.69,5.43,8.05,5.63c0.26,0.04,0.39,0.32,0.26,0.54c-0.8,1.39-2.59,5.58,1.5,10.12c0.05,0.06,0.1,0.11,0.15,0.17
					c3.59,3.94,9.1,5.5,14.25,4.11c2.49-0.67,5.36-1.48,7.61-2.19c0.11-0.03,0.22-0.02,0.31,0.05c1.16,0.8,9.66,6.03,32.53,4.07
					c0.01,0,0.02,0,0.03,0c0.82-0.14,36.26-6.16,47.32-13.25c0.05-0.03,0.11-0.05,0.17-0.06c1.66-0.08,25.55-1.26,48.05-1.64
					c22.66-0.38,199.28-8.25,209.26-8.7c0.23-0.01,0.39-0.23,0.33-0.45l-17.15-70.47c-0.04-0.18-0.21-0.3-0.4-0.28L1775.11,95.23z"
					/>
				<g>
					<line class="st154" x1="1626.87" y1="108.75" x2="1658.44" y2="97.45"/>
					<path class="st155" d="M1626.87,108.75c2.46-1.42,5-2.61,7.57-3.72c2.57-1.11,5.17-2.14,7.8-3.08c2.63-0.95,5.29-1.8,7.98-2.57
						c2.69-0.77,5.41-1.46,8.21-1.93c-2.46,1.42-5,2.61-7.57,3.72c-2.57,1.11-5.17,2.14-7.8,3.08c-2.63,0.94-5.29,1.8-7.98,2.57
						C1632.39,107.59,1629.67,108.28,1626.87,108.75z"/>
				</g>
				<g>
					<line class="st154" x1="1632.92" y1="130.25" x2="1662.15" y2="120.93"/>
					<path class="st155" d="M1632.92,130.25c2.28-1.27,4.63-2.31,7.01-3.26c2.38-0.95,4.79-1.82,7.22-2.6
						c2.43-0.78,4.9-1.47,7.39-2.07c2.49-0.6,5.01-1.12,7.6-1.4c-2.28,1.27-4.63,2.31-7.01,3.26c-2.38,0.95-4.79,1.82-7.22,2.59
						c-2.44,0.78-4.9,1.46-7.39,2.07C1638.03,129.45,1635.51,129.97,1632.92,130.25z"/>
				</g>
				<g>
					<line class="st154" x1="1639.25" y1="149.55" x2="1665.64" y2="142.17"/>
					<path class="st155" d="M1639.25,149.55c2.07-1.06,4.21-1.91,6.36-2.68c2.15-0.79,4.34-1.45,6.53-2.09
						c2.2-0.6,4.42-1.17,6.66-1.61c2.24-0.46,4.51-0.84,6.83-1.01c-2.07,1.06-4.21,1.91-6.36,2.69c-2.15,0.79-4.34,1.45-6.53,2.08
						c-2.2,0.59-4.42,1.16-6.66,1.61C1643.84,149,1641.57,149.38,1639.25,149.55z"/>
				</g>
			</g>
			<g>
				<path class="st156" d="M1777.1,264.69c0,0-20.74-1.79-43.62-1.95c-0.01,0-0.03,0-0.04,0c-12.89-1.22-18.42-8.27-18.75-8.69
					c-0.01-0.02-0.02-0.03-0.04-0.04c-0.85-0.83-28.61-27.74-32.24-31.64c-3.69-3.97-22.03-27.05-22.03-27.05
					s-11.37-14.63-8.88-35.24c0-0.01,0-0.02,0-0.04c0.01-0.61,0.12-15.63-7.74-11.11c-8.02,4.61-14.84,23.79-12.5,34.19
					c2.14,9.52,15.25,32.02,17.46,35.76c0.15,0.25-0.01,0.57-0.3,0.6l-16.35,1.87c-5.66,0.65-11.22,2.09-16.42,4.42
					c-6.47,2.9-13.18,7.49-12.8,14c0.56,9.67,6.69,11.39,9.36,11.68c0.37,0.04,0.5,0.51,0.19,0.73c-2.69,1.9-9.55,7.69-7.14,15.83
					c0,0.01,0.01,0.03,0.01,0.04c2.3,6.16,8.12,7.64,10.27,7.97c0.32,0.05,0.45,0.44,0.23,0.67c-1.76,1.83-6.72,7.72-4.05,13.46
					c2.54,5.45,6.23,7.18,7.67,7.66c0.27,0.09,0.36,0.42,0.18,0.64c-1.13,1.36-3.88,5.57-0.31,11.28c0.04,0.07,0.09,0.14,0.13,0.21
					c3.15,4.97,8.84,7.72,14.7,7.2c2.84-0.26,6.11-0.58,8.69-0.92c0.12-0.02,0.24,0.02,0.33,0.11c1.1,1.09,9.35,8.4,34.58,10.64
					c0.01,0,0.02,0,0.03,0c0.92,0.01,40.59,0.23,53.97-5.35c0.06-0.03,0.13-0.04,0.2-0.03c1.82,0.23,28.01,3.52,52.54,7.41
					c24.7,3.92,218.19,29.14,229.11,30.57c0.25,0.03,0.47-0.17,0.45-0.43l-5.17-79.88c-0.01-0.2-0.17-0.36-0.38-0.38L1777.1,264.69z
					"/>
				<g>
					<line class="st157" x1="1613.39" y1="251.04" x2="1649.86" y2="244.8"/>
					<path class="st158" d="M1613.39,251.04c2.95-1.07,5.94-1.88,8.94-2.59c3.01-0.71,6.03-1.34,9.07-1.86
						c3.04-0.53,6.1-0.94,9.17-1.27c3.07-0.33,6.16-0.56,9.3-0.52c-2.95,1.07-5.94,1.88-8.94,2.6c-3.01,0.71-6.03,1.34-9.07,1.85
						c-3.04,0.52-6.1,0.94-9.17,1.26C1619.61,250.84,1616.52,251.07,1613.39,251.04z"/>
				</g>
				<g>
					<line class="st157" x1="1615.85" y1="275.57" x2="1649.41" y2="271.02"/>
					<path class="st158" d="M1615.85,275.57c2.72-0.95,5.48-1.62,8.24-2.2c2.77-0.6,5.55-1.06,8.35-1.44
						c2.8-0.38,5.6-0.67,8.43-0.84c2.82-0.18,5.66-0.26,8.53-0.07c-2.72,0.95-5.48,1.63-8.24,2.21c-2.77,0.6-5.55,1.06-8.35,1.44
						c-2.8,0.37-5.6,0.67-8.43,0.83C1621.56,275.68,1618.72,275.76,1615.85,275.57z"/>
				</g>
				<g>
					<line class="st157" x1="1619.04" y1="297.76" x2="1649.13" y2="294.78"/>
					<path class="st158" d="M1619.04,297.76c2.46-0.76,4.94-1.27,7.43-1.7c2.49-0.43,4.99-0.77,7.5-1.02
						c2.51-0.25,5.02-0.41,7.55-0.48c2.53-0.07,5.06-0.05,7.62,0.21c-2.46,0.76-4.94,1.28-7.43,1.7c-2.49,0.43-4.99,0.77-7.5,1.01
						c-2.51,0.25-5.03,0.4-7.55,0.47C1624.13,298.04,1621.6,298.02,1619.04,297.76z"/>
				</g>
			</g>
			<g>
				<path class="st159" d="M1841.74,388.27c0,0-18.44-1.77-38.79-2.12c-0.01,0-0.02,0-0.03,0c-11.46-1.2-16.31-7.52-16.6-7.9
					c-0.01-0.01-0.02-0.02-0.03-0.04c-0.75-0.74-25.2-24.93-28.4-28.43c-3.24-3.56-19.36-24.26-19.36-24.26s-9.98-13.12-7.58-31.42
					c0-0.01,0-0.02,0-0.03c0.01-0.54,0.25-13.9-6.79-9.95c-7.18,4.03-13.41,21.03-11.42,30.3c1.82,8.49,13.28,28.61,15.21,31.97
					c0.13,0.22-0.02,0.51-0.27,0.53l-14.56,1.52c-5.04,0.52-10,1.76-14.64,3.78c-5.78,2.52-11.79,6.55-11.51,12.34
					c0.42,8.61,5.85,10.19,8.22,10.47c0.33,0.04,0.44,0.46,0.16,0.65c-2.41,1.67-8.56,6.75-6.49,14.01c0,0.01,0.01,0.03,0.01,0.04
					c1.99,5.5,7.16,6.86,9.06,7.18c0.29,0.05,0.4,0.39,0.2,0.6c-1.58,1.61-6.05,6.81-3.72,11.94c2.21,4.87,5.48,6.44,6.76,6.88
					c0.24,0.08,0.32,0.38,0.16,0.57c-1.02,1.2-3.5,4.92-0.37,10.03c0.04,0.06,0.08,0.12,0.11,0.19c2.76,4.45,7.79,6.95,13.01,6.53
					c2.53-0.2,5.44-0.46,7.74-0.74c0.11-0.01,0.22,0.02,0.29,0.1c0.97,0.98,8.25,7.55,30.66,9.77c0.01,0,0.02,0,0.03,0
					c0.82,0.01,36.1,0.57,48.05-4.28c0.06-0.02,0.11-0.03,0.17-0.02c1.62,0.22,24.89,3.38,46.67,7.05
					c21.94,3.7,193.83,27.85,203.54,29.22c0.22,0.03,0.42-0.15,0.4-0.37l-3.89-71.1c-0.01-0.18-0.15-0.32-0.33-0.34L1841.74,388.27z
					"/>
				<g>
					<line class="st107" x1="1696.23" y1="374.68" x2="1728.74" y2="369.45"/>
					<path class="st160" d="M1696.23,374.68c2.54-1.5,5.16-2.49,7.8-3.32c2.65-0.81,5.33-1.42,8.04-1.86
						c2.71-0.44,5.45-0.7,8.21-0.76c2.77-0.04,5.57,0.08,8.45,0.71c-2.54,1.51-5.16,2.5-7.8,3.33c-2.65,0.81-5.33,1.42-8.04,1.86
						c-2.71,0.43-5.45,0.69-8.22,0.75C1701.91,375.43,1699.11,375.31,1696.23,374.68z"/>
				</g>
				<g>
					<line class="st107" x1="1698.21" y1="396.53" x2="1728.1" y2="392.78"/>
					<path class="st160" d="M1698.21,396.53c2.36-1.38,4.78-2.25,7.22-2.96c2.44-0.69,4.91-1.18,7.4-1.5c2.49-0.32,5-0.45,7.54-0.39
						c2.54,0.09,5.1,0.33,7.73,1.09c-2.36,1.39-4.78,2.26-7.22,2.97c-2.44,0.69-4.91,1.18-7.4,1.49c-2.49,0.31-5,0.45-7.54,0.38
						C1703.39,397.53,1700.83,397.29,1698.21,396.53z"/>
				</g>
				<g>
					<line class="st107" x1="1700.85" y1="416.29" x2="1727.64" y2="413.91"/>
					<path class="st160" d="M1700.85,416.29c2.14-1.27,4.32-2.03,6.52-2.63c2.2-0.58,4.42-0.95,6.65-1.16
						c2.23-0.2,4.48-0.22,6.75-0.04c2.27,0.2,4.55,0.56,6.88,1.44c-2.14,1.28-4.32,2.04-6.52,2.63c-2.2,0.58-4.42,0.95-6.65,1.15
						c-2.23,0.2-4.48,0.22-6.75,0.04C1705.46,417.52,1703.18,417.17,1700.85,416.29z"/>
				</g>
			</g>
			<g>
				<path class="st161" d="M1869.01,180.35c0,0-15.17,1.34-31.67,4.12c-0.01,0-0.02,0-0.03,0c-9.44,0.75-14.32-3.62-14.61-3.89
					c-0.01-0.01-0.02-0.02-0.03-0.02c-0.72-0.49-24.12-16.35-27.23-18.71c-3.16-2.39-19.3-16.7-19.3-16.7s-10.04-9.1-10.86-24.26
					c0-0.01,0-0.02,0-0.03c-0.07-0.44-1.89-11.27-6.98-7.02c-5.19,4.34-7.68,19.02-4.67,26.21c2.75,6.59,15.04,21.13,17.11,23.55
					c0.14,0.16,0.06,0.41-0.14,0.47l-11.54,3.42c-4,1.18-7.82,2.92-11.27,5.26c-4.29,2.91-8.55,7.07-7.45,11.71
					c1.63,6.9,6.27,7.36,8.22,7.23c0.27-0.02,0.42,0.31,0.23,0.5c-1.7,1.71-5.9,6.75-3.14,12.3c0,0.01,0.01,0.02,0.02,0.03
					c2.44,4.15,6.82,4.47,8.41,4.44c0.24,0,0.38,0.26,0.25,0.46c-1.03,1.54-3.86,6.42-1.21,10.21c2.52,3.61,5.4,4.38,6.5,4.55
					c0.21,0.03,0.32,0.26,0.21,0.44c-0.64,1.12-2.09,4.5,1.21,8.17c0.04,0.04,0.08,0.09,0.12,0.13c2.9,3.18,7.35,4.44,11.5,3.32
					c2.01-0.54,4.33-1.19,6.15-1.77c0.09-0.03,0.18-0.01,0.25,0.04c0.93,0.65,7.8,4.86,26.26,3.29c0.01,0,0.02,0,0.02,0
					c0.66-0.11,29.27-4.98,38.2-10.69c0.04-0.03,0.09-0.04,0.14-0.04c1.34-0.07,20.63-1.02,38.78-1.32
					c18.29-0.31,160.87-6.66,168.92-7.02c0.19-0.01,0.31-0.18,0.27-0.36l-13.85-56.88c-0.04-0.14-0.17-0.24-0.32-0.22
					L1869.01,180.35z"/>
				<g>
					<line class="st162" x1="1749.35" y1="191.27" x2="1774.83" y2="182.15"/>
					<path class="st160" d="M1749.34,191.27c1.76-1.77,3.7-3.06,5.69-4.2c2-1.12,4.06-2.05,6.18-2.81c2.12-0.76,4.31-1.36,6.56-1.76
						c2.26-0.38,4.57-0.61,7.06-0.35c-1.76,1.78-3.69,3.07-5.68,4.21c-2,1.12-4.06,2.05-6.18,2.8c-2.12,0.76-4.31,1.35-6.56,1.75
						C1754.14,191.29,1751.83,191.52,1749.34,191.27z"/>
				</g>
				<g>
					<line class="st162" x1="1754.23" y1="208.63" x2="1777.83" y2="201.1"/>
					<path class="st160" d="M1754.23,208.63c1.64-1.65,3.44-2.81,5.28-3.82c1.85-0.99,3.76-1.79,5.73-2.42
						c1.97-0.63,3.99-1.09,6.07-1.35c2.09-0.25,4.22-0.34,6.52,0.07c-1.64,1.66-3.43,2.82-5.28,3.83c-1.85,0.99-3.76,1.79-5.73,2.41
						c-1.97,0.62-3.99,1.08-6.07,1.35C1758.66,208.93,1756.52,209.03,1754.23,208.63z"/>
				</g>
				<g>
					<line class="st162" x1="1759.34" y1="224.21" x2="1780.64" y2="218.25"/>
					<path class="st160" d="M1759.34,224.21c1.48-1.53,3.11-2.57,4.78-3.45c1.67-0.86,3.4-1.53,5.17-2.03
						c1.77-0.5,3.6-0.83,5.47-0.96c1.88-0.11,3.81-0.07,5.88,0.48c-1.48,1.54-3.11,2.58-4.77,3.46c-1.67,0.86-3.4,1.53-5.18,2.02
						c-1.78,0.49-3.6,0.82-5.48,0.95C1763.33,224.79,1761.41,224.75,1759.34,224.21z"/>
				</g>
			</g>
			<g>
				<path class="st163" d="M1624.75,422.53c0,0-18.01-4.32-38.12-7.48c-0.01,0-0.02,0-0.03-0.01c-11.18-2.78-15.11-9.71-15.34-10.12
					c-0.01-0.02-0.02-0.03-0.03-0.04c-0.64-0.84-21.5-28.18-24.18-32.1c-2.72-3.98-15.8-26.71-15.8-26.71s-8.06-14.37-3.15-32.17
					c0-0.01,0.01-0.02,0.01-0.03c0.09-0.53,2.17-13.73-5.34-10.8c-7.67,3-16.2,18.96-15.52,28.42c0.63,8.66,9.18,30.18,10.63,33.77
					c0.1,0.24-0.09,0.5-0.35,0.49l-14.63-0.52c-5.07-0.18-10.14,0.35-15.03,1.72c-6.07,1.7-12.59,4.85-13.11,10.62
					c-0.78,8.58,4.38,10.91,6.69,11.51c0.32,0.08,0.37,0.52,0.07,0.66c-2.62,1.32-9.42,5.5-8.37,12.98c0,0.01,0,0.03,0.01,0.04
					c1.21,5.73,6.14,7.79,7.98,8.37c0.28,0.09,0.34,0.45,0.11,0.62c-1.79,1.38-6.93,5.91-5.34,11.31c1.51,5.13,4.53,7.14,5.74,7.75
					c0.23,0.12,0.27,0.42,0.08,0.59c-1.18,1.04-4.15,4.38-1.76,9.88c0.03,0.07,0.06,0.13,0.09,0.2c2.12,4.79,6.75,7.96,11.98,8.27
					c2.53,0.15,5.45,0.3,7.77,0.34c0.11,0,0.21,0.05,0.28,0.14c0.83,1.11,7.12,8.62,29.01,13.93c0.01,0,0.02,0,0.03,0.01
					c0.81,0.13,35.68,5.57,48.18,2.43c0.06-0.01,0.12-0.01,0.18,0c1.57,0.44,24.18,6.8,45.24,13.46
					c21.21,6.71,188.09,54.48,197.51,57.17c0.22,0.06,0.43-0.09,0.45-0.32l6.01-70.95c0.02-0.18-0.11-0.34-0.28-0.38L1624.75,422.53
					z"/>
				<g>
					<line class="st148" x1="1482.53" y1="388.89" x2="1515.45" y2="388.22"/>
					<path class="st149" d="M1482.53,388.89c2.72-1.13,5.45-1.75,8.19-2.21c2.74-0.44,5.47-0.67,8.22-0.73
						c2.74-0.06,5.49,0.06,8.24,0.39c2.75,0.34,5.51,0.85,8.27,1.88c-2.72,1.14-5.45,1.76-8.19,2.21c-2.74,0.44-5.47,0.67-8.22,0.72
						c-2.74,0.05-5.49-0.07-8.24-0.39C1488.05,390.41,1485.3,389.91,1482.53,388.89z"/>
				</g>
				<g>
					<line class="st148" x1="1481.46" y1="410.79" x2="1511.58" y2="411.23"/>
					<path class="st149" d="M1481.46,410.79c2.53-1.04,5.04-1.56,7.56-1.93c2.52-0.35,5.03-0.49,7.54-0.45
						c2.51,0.03,5.02,0.25,7.52,0.66c2.5,0.44,5.01,1.03,7.5,2.15c-2.53,1.05-5.04,1.57-7.56,1.94c-2.52,0.34-5.03,0.49-7.54,0.45
						c-2.51-0.04-5.02-0.25-7.52-0.67C1486.46,412.5,1483.95,411.91,1481.46,410.79z"/>
				</g>
				<g>
					<line class="st148" x1="1481.33" y1="430.73" x2="1508.2" y2="432.09"/>
					<path class="st149" d="M1481.33,430.73c2.29-0.96,4.56-1.41,6.82-1.7c2.26-0.27,4.51-0.33,6.75-0.22
						c2.24,0.11,4.47,0.4,6.69,0.89c2.22,0.51,4.43,1.19,6.61,2.38c-2.29,0.97-4.56,1.42-6.82,1.7c-2.26,0.27-4.51,0.33-6.75,0.22
						c-2.24-0.12-4.47-0.41-6.69-0.9C1485.73,432.59,1483.52,431.92,1481.33,430.73z"/>
				</g>
			</g>
			<g>
				<path class="st164" d="M1429.12,441.61c0,0-13.89-5.18-29.55-9.66c-0.01,0-0.02-0.01-0.03-0.01c-8.61-3.3-11.06-9.18-11.2-9.54
					c-0.01-0.01-0.01-0.02-0.02-0.03c-0.43-0.73-14.33-24.48-16.08-27.86c-1.77-3.43-9.95-22.76-9.95-22.76s-5.01-12.21,0.63-25.87
					c0-0.01,0.01-0.02,0.01-0.03c0.12-0.42,3.06-10.7-3.19-9.1c-6.38,1.63-14.72,13.49-15.1,21.07c-0.35,6.94,4.35,24.87,5.15,27.86
					c0.05,0.2-0.12,0.39-0.32,0.36l-11.57-1.84c-4.01-0.64-8.09-0.71-12.11-0.1c-4.99,0.76-10.47,2.63-11.45,7.16
					c-1.46,6.74,2.42,9.09,4.19,9.8c0.25,0.1,0.24,0.45-0.01,0.54c-2.21,0.79-8.02,3.45-7.92,9.49c0,0.01,0,0.02,0,0.03
					c0.4,4.67,4.11,6.79,5.52,7.43c0.21,0.1,0.23,0.39,0.03,0.51c-1.56,0.92-6.08,4.02-5.35,8.46c0.7,4.22,2.9,6.11,3.8,6.72
					c0.17,0.11,0.17,0.36,0,0.47c-1.04,0.71-3.72,3.08-2.36,7.68c0.02,0.06,0.03,0.11,0.05,0.17c1.22,4.01,4.59,6.98,8.71,7.74
					c2,0.37,4.3,0.77,6.14,1.03c0.09,0.01,0.16,0.06,0.21,0.14c0.55,0.96,4.81,7.55,21.69,13.9c0.01,0,0.01,0.01,0.02,0.01
					c0.63,0.18,27.8,7.9,38.04,6.62c0.05-0.01,0.09,0,0.14,0.02c1.2,0.5,18.55,7.76,34.63,15.1c16.2,7.4,144.12,61.61,151.35,64.67
					c0.17,0.07,0.35-0.03,0.39-0.21l11.69-55.78c0.03-0.14-0.05-0.28-0.19-0.33L1429.12,441.61z"/>
				<g>
					<line class="st145" x1="1319.42" y1="401.01" x2="1345.63" y2="403.69"/>
					<path class="st146" d="M1319.42,401.01c2.26-0.53,4.49-0.7,6.7-0.76c2.21-0.04,4.41,0.05,6.59,0.28
						c2.19,0.22,4.36,0.57,6.51,1.06c2.16,0.5,4.3,1.12,6.41,2.1c-2.26,0.54-4.49,0.71-6.7,0.76c-2.21,0.04-4.41-0.05-6.59-0.28
						c-2.18-0.23-4.36-0.57-6.51-1.06C1323.67,402.61,1321.52,401.99,1319.42,401.01z"/>
				</g>
				<g>
					<line class="st145" x1="1316.43" y1="418.31" x2="1340.32" y2="421.59"/>
					<path class="st146" d="M1316.43,418.31c2.09-0.48,4.14-0.59,6.17-0.6c2.03,0.01,4.03,0.16,6.03,0.43
						c1.99,0.27,3.96,0.67,5.92,1.21c1.95,0.55,3.89,1.22,5.78,2.25c-2.09,0.48-4.14,0.6-6.17,0.61c-2.03-0.01-4.03-0.16-6.03-0.43
						c-1.99-0.28-3.96-0.67-5.92-1.21C1320.25,420,1318.32,419.34,1316.43,418.31z"/>
				</g>
				<g>
					<line class="st145" x1="1314.38" y1="434.14" x2="1335.6" y2="437.84"/>
					<path class="st146" d="M1314.38,434.14c1.9-0.44,3.73-0.52,5.55-0.49c1.81,0.04,3.6,0.23,5.37,0.53
						c1.77,0.31,3.51,0.74,5.24,1.31c1.72,0.59,3.42,1.28,5.06,2.34c-1.9,0.44-3.73,0.53-5.55,0.5c-1.81-0.04-3.6-0.23-5.37-0.54
						c-1.77-0.31-3.51-0.74-5.24-1.31C1317.72,435.89,1316.02,435.2,1314.38,434.14z"/>
				</g>
			</g>
		</g>
		<g style="clip-path:url(#SVGID_1_);">
			<g>
				<path class="st279" d="M902.4,235.38c1.32-1.02,1.98-2.43,1.98-4.23c-0.12-1.68-0.75-3-1.89-3.96c-1.02-0.78-3.42-1.98-7.2-3.6
					l-2.34-0.99c-4.62-2.1-8.01-4.5-10.17-7.2c-2.46-3.12-3.69-7.02-3.69-11.7c0-5.64,1.77-10.23,5.31-13.77
					c3.6-3.6,8.16-5.4,13.68-5.4c6.18,0,11.79,1.95,16.83,5.85c0.66,0.48,1.08,1.14,1.26,1.98c0.24,0.84,0.18,1.62-0.18,2.34
					l-2.61,5.31c-0.66,1.32-1.68,1.98-3.06,1.98c-0.72,0-1.41-0.18-2.07-0.54l-0.09-0.09c-2.1-1.38-4.14-2.4-6.12-3.06
					c-0.78-0.24-1.53-0.42-2.25-0.54c-0.6-0.06-1.14-0.09-1.62-0.09c-4.02,0-6.03,1.83-6.03,5.49c0,1.56,0.51,2.88,1.53,3.96
					c1.26,1.26,3.57,2.64,6.93,4.14c0.24,0.06,2.07,0.81,5.49,2.25c7.56,3.3,11.34,8.97,11.34,17.01c0,5.82-1.98,10.56-5.94,14.22
					c-3.84,3.6-8.64,5.4-14.4,5.4c-6.12,0-11.82-1.95-17.1-5.85c-0.66-0.42-1.08-1.05-1.26-1.89c-0.24-0.9-0.18-1.71,0.18-2.43
					l2.79-5.31c0.66-1.32,1.65-1.98,2.97-1.98c0.78,0,1.47,0.21,2.07,0.63h0.09c3.72,2.46,7.11,3.69,10.17,3.69
					C899.28,237,901.08,236.46,902.4,235.38z"/>
				<path class="st279" d="M974.22,224.58c0,6.96-2.04,12.87-6.12,17.73c-4.32,5.22-9.87,7.83-16.65,7.83
					c-6.84,0-12.42-2.61-16.74-7.83c-4.08-4.86-6.12-10.77-6.12-17.73v-35.46c0-1.02,0.33-1.86,0.99-2.52
					c0.6-0.66,1.38-0.99,2.34-0.99h6.39c0.96,0,1.77,0.33,2.43,0.99c0.66,0.72,0.99,1.56,0.99,2.52v35.91
					c0,3.54,0.87,6.33,2.61,8.37c1.8,2.1,4.17,3.15,7.11,3.15c3.12,0,5.55-1.17,7.29-3.51c1.56-2.1,2.34-4.77,2.34-8.01v-35.91
					c0-0.96,0.33-1.8,0.99-2.52c0.66-0.66,1.47-0.99,2.43-0.99h6.39c0.96,0,1.74,0.33,2.34,0.99c0.66,0.66,0.99,1.5,0.99,2.52
					V224.58z"/>
				<path class="st279" d="M1020.75,221.34c-3.96,4.26-8.76,6.39-14.4,6.39h-6.21v17.64c0,2.4-1.11,3.6-3.33,3.6h-6.39
					c-2.22,0-3.33-1.2-3.33-3.6v-54.45c0-1.44,0.48-2.7,1.44-3.78c1.02-1.08,2.25-1.62,3.69-1.62h14.13c5.58,0,10.38,2.13,14.4,6.39
					c3.9,4.14,5.85,9.03,5.85,14.67C1026.6,212.28,1024.65,217.2,1020.75,221.34z M1011.21,201.09c-1.38-1.56-3.15-2.34-5.31-2.34
					h-5.76v15.75h5.76c2.04,0,3.81-0.78,5.31-2.34c1.5-1.56,2.25-3.42,2.25-5.58S1012.71,202.59,1011.21,201.09z"/>
				<path class="st279" d="M1070.25,221.34c-3.96,4.26-8.76,6.39-14.4,6.39h-6.21v17.64c0,2.4-1.11,3.6-3.33,3.6h-6.39
					c-2.22,0-3.33-1.2-3.33-3.6v-54.45c0-1.44,0.48-2.7,1.44-3.78c1.02-1.08,2.25-1.62,3.69-1.62h14.13c5.58,0,10.38,2.13,14.4,6.39
					c3.9,4.14,5.85,9.03,5.85,14.67C1076.1,212.28,1074.15,217.2,1070.25,221.34z M1060.71,201.09c-1.38-1.56-3.15-2.34-5.31-2.34
					h-5.76v15.75h5.76c2.04,0,3.81-0.78,5.31-2.34c1.5-1.56,2.25-3.42,2.25-5.58S1062.21,202.59,1060.71,201.09z"/>
				<path class="st279" d="M1099.77,198.93v10.62h13.77c0.96,0,1.77,0.33,2.43,0.99c0.66,0.72,0.99,1.56,0.99,2.52v6.03
					c0,0.96-0.33,1.8-0.99,2.52c-0.66,0.66-1.47,0.99-2.43,0.99h-13.77v12.96h19.08c0.96,0,1.77,0.36,2.43,1.08
					c0.66,0.66,0.99,1.5,0.99,2.52v6.21c0,1.02-0.33,1.89-0.99,2.61c-0.66,0.66-1.47,0.99-2.43,0.99h-27.09
					c-1.44,0-2.67-0.54-3.69-1.62c-0.96-1.08-1.44-2.34-1.44-3.78v-52.65c0-1.5,0.51-2.76,1.53-3.78c0.9-1.08,2.1-1.62,3.6-1.62
					h27.09c0.96,0,1.77,0.33,2.43,0.99c0.66,0.72,0.99,1.59,0.99,2.61v6.21c0,1.02-0.33,1.86-0.99,2.52
					c-0.66,0.72-1.47,1.08-2.43,1.08H1099.77z"/>
				<path class="st279" d="M1175.73,226.2c0,6.48-2.16,12.06-6.48,16.74c-4.44,4.8-9.87,7.2-16.29,7.2c-6.42,0-11.85-2.4-16.29-7.2
					c-4.32-4.68-6.48-10.26-6.48-16.74v-17.82c0-6.42,2.19-11.97,6.57-16.65c4.44-4.8,9.84-7.2,16.2-7.2c6.36,0,11.79,2.4,16.29,7.2
					c4.32,4.68,6.48,10.23,6.48,16.65V226.2z M1162.59,208.38c0-2.76-0.9-5.16-2.7-7.2c-1.92-2.16-4.23-3.24-6.93-3.24
					s-4.98,1.08-6.84,3.24c-1.86,2.1-2.79,4.5-2.79,7.2v17.82c0,2.7,0.93,5.1,2.79,7.2c1.92,2.22,4.2,3.33,6.84,3.33
					c2.7,0,5.01-1.08,6.93-3.24c1.8-2.1,2.7-4.53,2.7-7.29V208.38z"/>
				<path class="st279" d="M1220.64,221.34c-3.96,4.26-8.76,6.39-14.4,6.39h-6.21v17.64c0,2.4-1.11,3.6-3.33,3.6h-6.39
					c-2.22,0-3.33-1.2-3.33-3.6v-54.45c0-1.44,0.48-2.7,1.44-3.78c1.02-1.08,2.25-1.62,3.69-1.62h14.13c5.58,0,10.38,2.13,14.4,6.39
					c3.9,4.14,5.85,9.03,5.85,14.67C1226.49,212.28,1224.54,217.2,1220.64,221.34z M1211.1,201.09c-1.38-1.56-3.15-2.34-5.31-2.34
					h-5.76v15.75h5.76c2.04,0,3.81-0.78,5.31-2.34c1.5-1.56,2.25-3.42,2.25-5.58S1212.6,202.59,1211.1,201.09z"/>
				<path class="st279" d="M1246.2,185.52c0.96,0,1.77,0.33,2.43,0.99c0.66,0.72,0.99,1.59,0.99,2.61v46.44h16.74
					c0.96,0,1.74,0.36,2.34,1.08c0.66,0.66,0.99,1.5,0.99,2.52v6.21c0,2.4-1.11,3.6-3.33,3.6h-24.75c-1.44,0-2.67-0.54-3.69-1.62
					c-0.96-1.08-1.44-2.34-1.44-3.78v-54.45c0-1.02,0.33-1.89,0.99-2.61c0.66-0.66,1.47-0.99,2.43-0.99H1246.2z"/>
				<path class="st279" d="M1291.28,198.93v10.62h13.77c0.96,0,1.77,0.33,2.43,0.99c0.66,0.72,0.99,1.56,0.99,2.52v6.03
					c0,0.96-0.33,1.8-0.99,2.52c-0.66,0.66-1.47,0.99-2.43,0.99h-13.77v12.96h19.08c0.96,0,1.77,0.36,2.43,1.08
					c0.66,0.66,0.99,1.5,0.99,2.52v6.21c0,1.02-0.33,1.89-0.99,2.61c-0.66,0.66-1.47,0.99-2.43,0.99h-27.09
					c-1.44,0-2.67-0.54-3.69-1.62c-0.96-1.08-1.44-2.34-1.44-3.78v-52.65c0-1.5,0.51-2.76,1.53-3.78c0.9-1.08,2.1-1.62,3.6-1.62
					h27.09c0.96,0,1.77,0.33,2.43,0.99c0.66,0.72,0.99,1.59,0.99,2.61v6.21c0,1.02-0.33,1.86-0.99,2.52
					c-0.66,0.72-1.47,1.08-2.43,1.08H1291.28z"/>
				<path class="st5" d="M893.51,276.44c2.75,0,5.1,0.56,7.07,1.67c1.97,1.11,3.46,2.7,4.47,4.75s1.52,4.47,1.52,7.24
					c0,2.05-0.28,3.91-0.83,5.58c-0.55,1.67-1.39,3.13-2.49,4.35c-1.11,1.23-2.47,2.17-4.08,2.82c-1.61,0.65-3.46,0.98-5.55,0.98
					c-2.07,0-3.93-0.33-5.56-1c-1.64-0.67-3-1.61-4.1-2.83c-1.1-1.22-1.92-2.68-2.48-4.39c-0.56-1.71-0.84-3.56-0.84-5.55
					c0-2.04,0.29-3.9,0.88-5.6s1.43-3.14,2.54-4.34s2.46-2.1,4.05-2.74C889.68,276.75,891.49,276.44,893.51,276.44z M901.13,290.06
					c0-1.94-0.31-3.62-0.94-5.04s-1.52-2.5-2.68-3.22c-1.16-0.73-2.5-1.09-4-1.09c-1.07,0-2.06,0.2-2.97,0.61s-1.69,0.99-2.35,1.76
					s-1.17,1.75-1.55,2.95c-0.38,1.2-0.57,2.54-0.57,4.04c0,1.51,0.19,2.87,0.57,4.08c0.38,1.22,0.92,2.23,1.61,3.03
					c0.69,0.8,1.49,1.4,2.38,1.8c0.9,0.4,1.88,0.6,2.95,0.6c1.37,0,2.63-0.34,3.79-1.03s2.07-1.75,2.75-3.18
					S901.13,292.15,901.13,290.06z"/>
				<path class="st5" d="M917.33,292.04h-1.88v8.51c0,1.12-0.25,1.95-0.74,2.47c-0.49,0.53-1.14,0.79-1.93,0.79
					c-0.86,0-1.52-0.28-1.99-0.83s-0.7-1.37-0.7-2.44v-20.38c0-1.16,0.26-1.99,0.78-2.51c0.52-0.52,1.36-0.78,2.51-0.78h8.73
					c1.2,0,2.23,0.05,3.09,0.15c0.85,0.1,1.63,0.31,2.31,0.62c0.83,0.35,1.57,0.85,2.2,1.5c0.64,0.65,1.12,1.41,1.45,2.27
					c0.33,0.86,0.5,1.77,0.5,2.74c0,1.98-0.56,3.55-1.67,4.73c-1.11,1.18-2.8,2.02-5.07,2.51c0.95,0.51,1.86,1.25,2.73,2.24
					s1.64,2.04,2.32,3.15s1.21,2.12,1.59,3.02c0.38,0.9,0.57,1.51,0.57,1.85c0,0.35-0.11,0.7-0.33,1.04
					c-0.22,0.34-0.53,0.61-0.91,0.81c-0.39,0.2-0.83,0.3-1.34,0.3c-0.6,0-1.11-0.14-1.52-0.42c-0.41-0.28-0.76-0.64-1.06-1.08
					s-0.7-1.07-1.2-1.92l-2.15-3.58c-0.77-1.31-1.46-2.31-2.07-3s-1.23-1.16-1.85-1.41C919.07,292.17,918.28,292.04,917.33,292.04z
					 M920.4,280.92h-4.95v7.28h4.81c1.29,0,2.37-0.11,3.25-0.33c0.88-0.22,1.55-0.6,2.01-1.14s0.7-1.27,0.7-2.21
					c0-0.73-0.19-1.38-0.56-1.94c-0.37-0.56-0.89-0.98-1.55-1.26C923.48,281.05,922.25,280.92,920.4,280.92z"/>
				<path class="st5" d="M959.4,292.61v5.08c0,0.67-0.07,1.21-0.2,1.62c-0.13,0.4-0.38,0.77-0.73,1.09
					c-0.36,0.33-0.81,0.64-1.36,0.94c-1.6,0.87-3.14,1.5-4.63,1.9s-3.1,0.6-4.84,0.6c-2.04,0-3.89-0.31-5.56-0.94
					c-1.67-0.63-3.1-1.54-4.28-2.73s-2.09-2.64-2.72-4.34c-0.63-1.7-0.95-3.6-0.95-5.69c0-2.06,0.31-3.94,0.92-5.65
					s1.52-3.16,2.71-4.35s2.64-2.1,4.35-2.74c1.71-0.63,3.65-0.95,5.82-0.95c1.78,0,3.36,0.24,4.73,0.71s2.49,1.08,3.34,1.8
					s1.5,1.49,1.93,2.29c0.43,0.81,0.65,1.52,0.65,2.15c0,0.67-0.25,1.25-0.75,1.73c-0.5,0.48-1.1,0.71-1.8,0.71
					c-0.39,0-0.76-0.09-1.11-0.27c-0.36-0.18-0.65-0.43-0.89-0.76c-0.66-1.04-1.22-1.82-1.68-2.35s-1.07-0.98-1.85-1.34
					c-0.78-0.36-1.77-0.54-2.97-0.54c-1.24,0-2.35,0.21-3.32,0.64c-0.98,0.43-1.81,1.05-2.5,1.86c-0.69,0.81-1.22,1.81-1.59,2.99
					c-0.37,1.18-0.55,2.49-0.55,3.92c0,3.11,0.71,5.5,2.14,7.17c1.43,1.67,3.42,2.51,5.97,2.51c1.24,0,2.41-0.16,3.5-0.49
					c1.09-0.33,2.19-0.79,3.31-1.39v-4.3h-4.16c-1,0-1.75-0.15-2.27-0.45c-0.51-0.3-0.77-0.81-0.77-1.54c0-0.59,0.21-1.08,0.64-1.46
					s1.01-0.58,1.74-0.58h6.09c0.75,0,1.38,0.07,1.9,0.2c0.52,0.13,0.94,0.43,1.26,0.89S959.4,291.69,959.4,292.61z"/>
				<path class="st5" d="M979.02,300.37l-1.26-3.32h-10.77l-1.26,3.4c-0.49,1.33-0.92,2.22-1.26,2.68c-0.35,0.46-0.92,0.7-1.72,0.7
					c-0.67,0-1.27-0.25-1.79-0.74c-0.52-0.49-0.78-1.05-0.78-1.68c0-0.36,0.06-0.73,0.18-1.12c0.12-0.38,0.32-0.92,0.6-1.61
					l6.77-17.2c0.19-0.49,0.42-1.09,0.7-1.78c0.27-0.69,0.56-1.27,0.87-1.73c0.31-0.46,0.71-0.83,1.21-1.11s1.12-0.42,1.85-0.42
					c0.75,0,1.37,0.14,1.87,0.42s0.9,0.65,1.21,1.09c0.31,0.45,0.57,0.92,0.78,1.44s0.48,1.2,0.8,2.05l6.92,17.09
					c0.54,1.3,0.81,2.25,0.81,2.84c0,0.61-0.26,1.18-0.77,1.69s-1.13,0.77-1.85,0.77c-0.42,0-0.78-0.08-1.08-0.23
					c-0.3-0.15-0.55-0.36-0.76-0.61c-0.21-0.26-0.42-0.66-0.66-1.19C979.39,301.26,979.19,300.78,979.02,300.37z M968.39,293.02
					h7.91l-3.99-10.93L968.39,293.02z"/>
				<path class="st5" d="M994.64,279.65l10.32,15.61v-15.75c0-1.02,0.22-1.79,0.66-2.3c0.44-0.51,1.03-0.77,1.78-0.77
					c0.77,0,1.38,0.26,1.83,0.77c0.45,0.51,0.67,1.28,0.67,2.3v20.83c0,2.32-0.96,3.49-2.89,3.49c-0.48,0-0.92-0.07-1.3-0.21
					c-0.38-0.14-0.75-0.36-1.08-0.66c-0.34-0.3-0.65-0.65-0.94-1.06s-0.58-0.82-0.87-1.24l-10.06-15.43v15.52
					c0,1.01-0.24,1.78-0.71,2.29c-0.47,0.52-1.07,0.78-1.81,0.78c-0.76,0-1.37-0.26-1.82-0.79c-0.46-0.52-0.69-1.29-0.69-2.29
					v-20.43c0-0.87,0.1-1.55,0.29-2.04c0.23-0.54,0.61-0.98,1.14-1.33c0.53-0.34,1.1-0.52,1.72-0.52c0.48,0,0.89,0.08,1.24,0.24
					c0.34,0.16,0.64,0.37,0.9,0.63c0.26,0.27,0.52,0.61,0.79,1.03S994.35,279.19,994.64,279.65z"/>
				<path class="st5" d="M1014.94,300.55v-20.87c0-1.08,0.25-1.9,0.74-2.44c0.49-0.54,1.13-0.81,1.92-0.81
					c0.81,0,1.46,0.27,1.96,0.8c0.5,0.54,0.75,1.35,0.75,2.45v20.87c0,1.1-0.25,1.92-0.75,2.46c-0.5,0.54-1.15,0.81-1.96,0.81
					c-0.77,0-1.41-0.27-1.91-0.82C1015.19,302.45,1014.94,301.64,1014.94,300.55z"/>
				<path class="st5" d="M1024.56,297.19l13.6-16.28h-11.69c-0.82,0-1.44-0.18-1.85-0.54c-0.42-0.36-0.62-0.84-0.62-1.43
					c0-0.61,0.21-1.11,0.62-1.49c0.42-0.38,1.03-0.57,1.85-0.57h15.07c1.95,0,2.93,0.91,2.93,2.73c0,0.87-0.16,1.56-0.49,2.08
					s-0.98,1.35-1.97,2.51l-12.72,15.14h14.02c0.83,0,1.45,0.17,1.86,0.52c0.41,0.34,0.61,0.82,0.61,1.44
					c0,0.64-0.21,1.14-0.61,1.52c-0.41,0.37-1.03,0.56-1.86,0.56h-17.2c-1.17,0-2.05-0.26-2.64-0.79c-0.59-0.52-0.88-1.23-0.88-2.1
					c0-0.3,0.05-0.58,0.14-0.83s0.23-0.49,0.39-0.71c0.16-0.22,0.39-0.51,0.68-0.85C1024.09,297.74,1024.35,297.45,1024.56,297.19z"
					/>
				<path class="st5" d="M1065.08,300.37l-1.26-3.32h-10.77l-1.26,3.4c-0.49,1.33-0.92,2.22-1.26,2.68s-0.92,0.7-1.72,0.7
					c-0.67,0-1.27-0.25-1.79-0.74c-0.52-0.49-0.78-1.05-0.78-1.68c0-0.36,0.06-0.73,0.18-1.12c0.12-0.38,0.32-0.92,0.6-1.61
					l6.77-17.2c0.19-0.49,0.42-1.09,0.7-1.78c0.27-0.69,0.56-1.27,0.87-1.73c0.31-0.46,0.71-0.83,1.21-1.11s1.12-0.42,1.85-0.42
					c0.75,0,1.37,0.14,1.87,0.42s0.9,0.65,1.21,1.09c0.31,0.45,0.57,0.92,0.78,1.44s0.48,1.2,0.8,2.05l6.92,17.09
					c0.54,1.3,0.81,2.25,0.81,2.84c0,0.61-0.26,1.18-0.77,1.69s-1.13,0.77-1.85,0.77c-0.42,0-0.78-0.08-1.08-0.23
					s-0.55-0.36-0.76-0.61s-0.42-0.66-0.66-1.19C1065.45,301.26,1065.25,300.78,1065.08,300.37z M1054.46,293.02h7.91l-3.99-10.93
					L1054.46,293.02z"/>
				<path class="st5" d="M1087.66,281.31h-5.85v19.24c0,1.11-0.25,1.93-0.74,2.47c-0.49,0.54-1.13,0.8-1.92,0.8
					c-0.79,0-1.44-0.27-1.94-0.81c-0.5-0.54-0.75-1.36-0.75-2.46v-19.24h-5.85c-0.92,0-1.6-0.2-2.04-0.6
					c-0.45-0.4-0.67-0.94-0.67-1.6c0-0.69,0.23-1.23,0.7-1.63s1.14-0.6,2.01-0.6h17.05c0.93,0,1.62,0.21,2.07,0.61
					c0.45,0.41,0.68,0.95,0.68,1.61c0,0.66-0.23,1.2-0.69,1.6C1089.26,281.11,1088.57,281.31,1087.66,281.31z"/>
				<path class="st5" d="M1092.76,300.55v-20.87c0-1.08,0.25-1.9,0.74-2.44c0.49-0.54,1.13-0.81,1.92-0.81
					c0.81,0,1.46,0.27,1.96,0.8c0.5,0.54,0.75,1.35,0.75,2.45v20.87c0,1.1-0.25,1.92-0.75,2.46c-0.5,0.54-1.15,0.81-1.96,0.81
					c-0.77,0-1.41-0.27-1.91-0.82C1093.01,302.45,1092.76,301.64,1092.76,300.55z"/>
				<path class="st5" d="M1114.74,276.44c2.75,0,5.1,0.56,7.07,1.67c1.97,1.11,3.46,2.7,4.47,4.75s1.52,4.47,1.52,7.24
					c0,2.05-0.28,3.91-0.83,5.58s-1.38,3.13-2.49,4.35s-2.47,2.17-4.08,2.82s-3.46,0.98-5.55,0.98c-2.07,0-3.93-0.33-5.56-1
					c-1.64-0.67-3.01-1.61-4.1-2.83c-1.1-1.22-1.92-2.68-2.48-4.39c-0.56-1.71-0.84-3.56-0.84-5.55c0-2.04,0.29-3.9,0.88-5.6
					s1.43-3.14,2.54-4.34c1.11-1.19,2.46-2.1,4.05-2.74C1110.91,276.75,1112.72,276.44,1114.74,276.44z M1122.37,290.06
					c0-1.94-0.31-3.62-0.94-5.04c-0.63-1.42-1.52-2.5-2.68-3.22c-1.16-0.73-2.5-1.09-4-1.09c-1.07,0-2.06,0.2-2.97,0.61
					s-1.69,0.99-2.35,1.76s-1.17,1.75-1.55,2.95c-0.38,1.2-0.57,2.54-0.57,4.04c0,1.51,0.19,2.87,0.57,4.08
					c0.38,1.22,0.92,2.23,1.61,3.03c0.69,0.8,1.49,1.4,2.38,1.8c0.9,0.4,1.88,0.6,2.95,0.6c1.37,0,2.63-0.34,3.79-1.03
					s2.07-1.75,2.75-3.18S1122.37,292.15,1122.37,290.06z"/>
				<path class="st5" d="M1138.35,279.65l10.32,15.61v-15.75c0-1.02,0.22-1.79,0.66-2.3c0.44-0.51,1.03-0.77,1.78-0.77
					c0.77,0,1.38,0.26,1.83,0.77c0.45,0.51,0.67,1.28,0.67,2.3v20.83c0,2.32-0.96,3.49-2.89,3.49c-0.48,0-0.92-0.07-1.3-0.21
					c-0.39-0.14-0.75-0.36-1.08-0.66c-0.34-0.3-0.65-0.65-0.94-1.06s-0.58-0.82-0.87-1.24l-10.06-15.43v15.52
					c0,1.01-0.24,1.78-0.7,2.29c-0.47,0.52-1.07,0.78-1.81,0.78c-0.76,0-1.37-0.26-1.83-0.79c-0.46-0.52-0.69-1.29-0.69-2.29v-20.43
					c0-0.87,0.1-1.55,0.29-2.04c0.23-0.54,0.61-0.98,1.14-1.33c0.53-0.34,1.1-0.52,1.72-0.52c0.48,0,0.89,0.08,1.24,0.24
					c0.34,0.16,0.64,0.37,0.9,0.63c0.26,0.27,0.52,0.61,0.79,1.03C1137.78,278.75,1138.06,279.19,1138.35,279.65z"/>
			</g>
			<g>
				<g>
					<path class="st5" d="M828.52,344.3c-4.64,0-9.75-1.51-12.47-12.68l-1.16-4.76l-1.26,4.74c-2.53,9.49-6.69,11.43-12.15,11.43
						c-5.48,0-9.66-1.97-12.19-11.58l-1.21-4.58l-1.21,4.58c-2.54,9.61-6.71,11.58-12.19,11.58c-4.64,0-9.03-0.77-11.77-10.06
						l-1.2-4.07l-1.2,4.07c-2.74,9.29-7.13,10.06-11.77,10.06c-7.85,0-14.49-16.28-14.49-35.56c0-0.86,0.02-2.04,0.03-3.13
						c0.02-1.48,0.03-2.28,0-2.76l0.01,0.02c0.5-19.67,9.18-38.14,23.2-49.41l0.47-0.38v-52.14h61.33v52.67l0.45,0.38
						c11.89,9.86,19.91,25.06,22,41.7c0.84,4.58,1.26,9.38,1.26,14.32C843.01,328.02,836.37,344.3,828.52,344.3z"/>
					<path class="st6" d="M818.04,200.93v50.83v1.17l0.9,0.75c11.65,9.66,19.51,24.57,21.56,40.9l0.01,0.07l0.01,0.07
						c0.81,4.44,1.22,9.16,1.22,14.03c0,20.22-6.98,34.31-13.24,34.31c-4.36,0-8.75-1.42-11.25-11.72l-2.32-9.52l-2.53,9.47
						c-2.58,9.69-6.82,10.5-10.94,10.5c-4.14,0-8.39-0.82-10.98-10.65l-2.42-9.16l-2.42,9.16c-2.59,9.83-6.85,10.65-10.98,10.65
						c-4.31,0-8.07-0.69-10.57-9.16l-2.4-8.14l-2.4,8.14c-2.5,8.47-6.26,9.16-10.57,9.16c-6.26,0-13.24-14.09-13.24-34.31
						c0-0.85,0.02-2.03,0.03-3.1c0.02-1.29,0.03-2.14,0.01-2.74h0c0.49-19.3,8.99-37.42,22.74-48.47l0.93-0.75v-1.2v-50.29H818.04
						 M820.54,198.43h-63.83v52.79c-13.9,11.17-23.14,29.5-23.67,50.35c0,0,0,0,0,0c0.05,0-0.04,3.87-0.04,5.9
						c0,20.33,7.05,36.81,15.74,36.81c5.38,0,10.13-1.32,12.97-10.96c2.84,9.64,7.59,10.96,12.97,10.96c5.67,0,10.63-2,13.4-12.51
						c2.77,10.51,7.74,12.51,13.4,12.51c5.64,0,10.58-1.94,13.36-12.36c2.71,11.12,7.82,13.63,13.68,13.63
						c8.69,0,15.74-16.48,15.74-36.81c0-5.14-0.45-10.03-1.27-14.48c-2.2-17.47-10.55-32.64-22.45-42.51V198.43L820.54,198.43z"/>
				</g>
				<g>
					<path class="st279" d="M815.33,238.65c-1.94,0-3.92-0.07-5.89-0.21l-2.1-0.15l0.11,0.23c-18.91-1.02-36.51-9.58-47.4-23.13
						l-0.38-0.47h-52.14V153.6h52.67l0.37-0.45c9.86-11.89,25.06-19.91,41.7-22c4.58-0.84,9.38-1.26,14.32-1.26
						c19.27,0,35.56,6.63,35.56,14.49c0,4.64-1.51,9.75-12.68,12.47l-4.76,1.16l4.74,1.26c9.48,2.53,11.43,6.69,11.43,12.15
						c0,5.49-1.97,9.66-11.58,12.19l-4.58,1.21l4.58,1.21c9.61,2.54,11.58,6.71,11.58,12.19c0,4.64-0.77,9.03-10.06,11.77l-4.07,1.2
						l4.07,1.2c9.29,2.74,10.06,7.13,10.06,11.77C850.89,232.01,834.61,238.65,815.33,238.65z"/>
					<path class="st6" d="M816.61,131.14c20.22,0,34.31,6.98,34.31,13.24c0,4.36-1.42,8.75-11.72,11.25l-9.52,2.32l9.47,2.53
						c9.69,2.58,10.5,6.82,10.5,10.94c0,4.14-0.82,8.39-10.65,10.98l-9.16,2.42l9.16,2.42c9.83,2.59,10.65,6.85,10.65,10.98
						c0,4.31-0.69,8.07-9.16,10.57l-8.14,2.4l8.14,2.4c8.47,2.5,9.16,6.26,9.16,10.57c0,6.26-14.09,13.24-34.31,13.24
						c-1.92,0-3.87-0.07-5.8-0.2l-4.2-0.26l0.09,0.2c-17.76-1.5-34.13-9.74-44.4-22.51l-0.75-0.93h-1.2h-50.29v-58.83h50.83h1.17
						l0.75-0.9c9.66-11.65,24.57-19.51,40.9-21.56l0.07-0.01l0.07-0.01C807.02,131.55,811.74,131.14,816.61,131.14 M816.61,128.64
						c-5.14,0-10.03,0.45-14.48,1.27c-17.47,2.2-32.64,10.55-42.51,22.45h-53.33v63.83h52.79c11.17,13.9,29.5,23.14,50.35,23.67
						c-0.03-0.06-0.05-0.11-0.07-0.17c1.94,0.14,3.94,0.21,5.97,0.21c20.33,0,36.81-7.05,36.81-15.74c0-5.38-1.32-10.13-10.96-12.97
						c9.64-2.84,10.96-7.59,10.96-12.97c0-5.67-2-10.63-12.51-13.4c10.51-2.77,12.51-7.74,12.51-13.4c0-5.64-1.94-10.58-12.36-13.36
						c11.12-2.71,13.63-7.82,13.63-13.68C853.42,135.69,836.94,128.64,816.61,128.64L816.61,128.64z"/>
				</g>
				<g>
					<path class="st5" d="M649.66,264.86v-52.67l-0.45-0.38c-11.89-9.86-19.91-25.06-22-41.7c-0.84-4.58-1.26-9.38-1.26-14.32
						c0-19.27,6.63-35.56,14.49-35.56c4.64,0,9.75,1.51,12.47,12.68l1.16,4.76l1.26-4.74c2.53-9.48,6.69-11.43,12.15-11.43
						c5.48,0,9.66,1.97,12.19,11.58l1.21,4.58l1.21-4.58c2.54-9.61,6.71-11.58,12.19-11.58c4.64,0,9.03,0.77,11.77,10.06l1.2,4.07
						l1.2-4.07c2.74-9.29,7.13-10.06,11.77-10.06c7.85,0,14.49,16.28,14.49,35.56c0,1.95-0.07,3.93-0.21,5.89l-0.15,2.1l0.23-0.11
						c-1.02,18.91-9.58,36.5-23.12,47.39l-0.47,0.38v52.14H649.66z"/>
					<path class="st6" d="M640.43,121.48c4.36,0,8.75,1.42,11.25,11.72l2.32,9.52l2.53-9.47c2.58-9.69,6.82-10.5,10.94-10.5
						c4.14,0,8.39,0.82,10.98,10.65l2.42,9.16l2.42-9.16c2.59-9.83,6.85-10.65,10.98-10.65c4.31,0,8.07,0.69,10.57,9.16l2.4,8.14
						l2.4-8.14c2.5-8.47,6.26-9.16,10.57-9.16c6.26,0,13.24,14.09,13.24,34.31c0,1.91-0.07,3.87-0.2,5.8l-0.26,4.2l0.2-0.09
						c-1.5,17.76-9.74,34.13-22.51,44.4l-0.93,0.75v1.2v50.29h-58.83v-50.83v-1.17l-0.9-0.75c-11.65-9.66-19.51-24.57-21.56-40.9
						l-0.01-0.07l-0.01-0.07c-0.81-4.44-1.22-9.16-1.22-14.03C627.19,135.57,634.17,121.48,640.43,121.48 M640.43,118.98
						c-8.69,0-15.74,16.48-15.74,36.81c0,5.14,0.45,10.03,1.27,14.48c2.2,17.47,10.55,32.64,22.45,42.51v53.33h63.83v-52.79
						c13.9-11.17,23.14-29.5,23.67-50.35c-0.06,0.03-0.11,0.05-0.17,0.07c0.14-1.94,0.21-3.94,0.21-5.97
						c0-20.33-7.05-36.81-15.74-36.81c-5.38,0-10.13,1.32-12.97,10.96c-2.84-9.64-7.59-10.96-12.97-10.96
						c-5.67,0-10.63,2-13.4,12.51c-2.77-10.51-7.74-12.51-13.4-12.51c-5.64,0-10.58,1.94-13.36,12.36
						C651.41,121.49,646.3,118.98,640.43,118.98L640.43,118.98z"/>
				</g>
				<g>
					<path class="st279" d="M651.24,338.88c-19.27,0-35.56-6.63-35.56-14.49c0-4.64,1.51-9.75,12.68-12.47l4.76-1.16l-4.74-1.26
						c-9.49-2.53-11.43-6.69-11.43-12.15c0-5.49,1.97-9.66,11.58-12.19l4.58-1.21l-4.58-1.21c-9.61-2.54-11.58-6.71-11.58-12.19
						c0-4.64,0.77-9.03,10.06-11.77l4.07-1.2l-4.07-1.2c-9.29-2.74-10.06-7.13-10.06-11.77c0-7.85,16.28-14.49,35.56-14.49
						c0.85,0,2.04,0.02,3.11,0.03c0.92,0.01,1.77,0.03,2.28,0.03c0.19,0,0.37,0,0.54-0.02c19.64,0.52,38.08,9.19,49.34,23.2
						l0.38,0.47h46.05c-12.34,11.93-19.63,29.12-20.1,47.7l-0.03,1.29h0.04c-0.01,0.47-0.01,1.01-0.02,1.5
						c-0.02,1.09-0.03,2.29-0.03,3.15c0,2.58,0.11,5.17,0.34,7.7h-26.78l-0.38,0.45c-9.86,11.89-25.06,19.91-41.7,22
						C660.97,338.46,656.18,338.88,651.24,338.88z"/>
					<path class="st6" d="M652.51,231.37c0.85,0,2.03,0.02,3.11,0.03c0.93,0.01,1.78,0.03,2.29,0.03c0.16,0,0.35,0,0.55-0.01
						c19.26,0.52,37.33,9.02,48.35,22.73l0.75,0.93h1.2h42.46c-11.29,12.02-17.91,28.6-18.36,46.42l-0.07,2.56h0.06
						c0,0.07,0,0.15,0,0.22c-0.02,1.1-0.03,2.31-0.03,3.18c0,2.16,0.08,4.32,0.24,6.45h-24.83h-1.17l-0.75,0.9
						c-9.66,11.65-24.57,19.51-40.9,21.56l-0.07,0.01l-0.07,0.01c-4.44,0.81-9.16,1.22-14.03,1.22c-20.22,0-34.31-6.98-34.31-13.24
						c0-4.36,1.42-8.75,11.72-11.25l9.52-2.32l-9.47-2.53c-9.69-2.58-10.5-6.82-10.5-10.94c0-4.14,0.82-8.39,10.65-10.98l9.16-2.42
						l-9.16-2.42c-9.83-2.59-10.65-6.85-10.65-10.98c0-4.31,0.69-8.07,9.16-10.57l8.14-2.4l-8.14-2.4
						c-8.47-2.5-9.16-6.26-9.16-10.57C618.2,238.35,632.29,231.37,652.51,231.37 M652.51,228.87c-20.33,0-36.81,7.05-36.81,15.74
						c0,5.38,1.32,10.13,10.96,12.97c-9.64,2.84-10.96,7.59-10.96,12.97c0,5.67,2,10.63,12.51,13.4
						c-10.51,2.77-12.51,7.74-12.51,13.4c0,5.64,1.94,10.58,12.36,13.36c-11.12,2.71-13.63,7.82-13.63,13.68
						c0,8.69,16.48,15.74,36.81,15.74c5.14,0,10.03-0.45,14.48-1.27c17.47-2.2,32.64-10.55,42.51-22.45h27.57
						c-0.31-2.86-0.47-5.86-0.47-8.95c0-2.03,0.1-5.9,0.04-5.9c0,0,0,0,0,0c0.51-20.04,9.07-37.72,22.07-48.98h-48.66
						c-11.17-13.9-29.5-23.14-50.35-23.67c0.01,0.01-0.18,0.02-0.5,0.02C656.81,228.93,654.1,228.87,652.51,228.87L652.51,228.87z"
						/>
				</g>
			</g>
		</g>
	</g>
</g>
</svg>
