<?xml version="1.0" encoding="utf-8"?>
<!-- Generator: Adobe Illustrator 23.1.0, SVG Export Plug-In . SVG Version: 6.00 Build 0)  -->
<svg version="1.1" xmlns="http://www.w3.org/2000/svg" xmlns:xlink="http://www.w3.org/1999/xlink" x="0px" y="0px"
	 viewBox="0 0 1920 675" style="enable-background:new 0 0 1920 675;" xml:space="preserve">
<style type="text/css">
	.st0{fill:#33DEA7;}
	.st1{fill:#4890F1;}
	.st2{fill:#0B59C7;}
	.st3{fill:#1A328C;}
	.st4{fill:#367FE1;}
	.st5{fill:#FFFFFF;}
	.st6{display:none;}
	.st7{display:inline;fill:none;stroke:#000000;stroke-miterlimit:10;}
	.st8{fill:none;stroke:#33DEA7;stroke-width:5.4384;stroke-miterlimit:10;}
	.st9{fill:#4AE2B1;}
	.st10{opacity:0.87;fill:url(#SVGID_1_);}
	.st11{fill:#CFE2FF;}
	.st12{fill:none;stroke:#34E2AA;stroke-miterlimit:10;}
	.st13{fill:none;stroke:#34E2AA;stroke-width:0.9838;stroke-miterlimit:10;}
	.st14{fill:#34E2AA;fill-opacity:0.12;stroke:#34E2AA;stroke-miterlimit:10;}
	.st15{fill:#1B3390;}
	.st16{fill:#34E2AA;stroke:#1B3390;stroke-miterlimit:10;}
	.st17{fill:#FF8B2B;}
	.st18{opacity:0.5;fill:#4992F5;}
	.st19{fill:#4992F5;}
	.st20{fill:#0B5BCB;}
	.st21{fill:#ADD2FF;}
	.st22{fill:#2EC897;}
	.st23{fill:none;stroke:#4992F5;stroke-width:0.6143;stroke-miterlimit:10;}
	.st24{fill:none;stroke:#4992F5;stroke-width:0.4924;stroke-miterlimit:10;}
	.st25{fill:none;stroke:#4992F5;stroke-width:5;stroke-miterlimit:10;}
	.st26{fill:none;stroke:#0B5BCB;stroke-width:2.2717;stroke-miterlimit:10;}
	.st27{fill:#6078D5;}
	.st28{fill:#FFB87D;}
	.st29{fill:none;stroke:#284DD8;stroke-width:2.678;stroke-miterlimit:10;}
	.st30{fill:none;stroke:#0B5BCB;stroke-width:2;stroke-miterlimit:10;}
	.st31{fill:#FFEBC9;}
	.st32{fill:#8CA4FB;stroke:#1B3390;stroke-width:1.8878;stroke-miterlimit:10;}
	.st33{fill:none;stroke:#1B3390;stroke-width:2;stroke-miterlimit:10;}
	.st34{fill:none;stroke:#34E2AA;stroke-width:1.8878;stroke-linecap:round;stroke-miterlimit:10;}
	.st35{fill:none;stroke:#34E2AA;stroke-width:1.8878;stroke-linecap:round;stroke-linejoin:round;stroke-miterlimit:10;}
	.st36{clip-path:url(#SVGID_5_);}
	.st37{fill:none;stroke:#F98600;stroke-width:15.7313;stroke-linecap:round;stroke-linejoin:round;stroke-miterlimit:10;}
	.st38{fill:none;stroke:#1B3390;stroke-width:3.7755;stroke-linecap:round;stroke-linejoin:round;stroke-miterlimit:10;}
	.st39{fill:#0B5BCB;stroke:#1B3390;stroke-width:1.7785;stroke-miterlimit:10;}
	.st40{fill:none;stroke:#1B3390;stroke-width:1.7785;stroke-linecap:round;stroke-miterlimit:10;}
	.st41{fill:none;stroke:#1B3390;stroke-width:1.7785;stroke-linecap:round;stroke-linejoin:round;stroke-miterlimit:10;}
	.st42{clip-path:url(#SVGID_7_);fill:none;stroke:#5FECBF;stroke-width:29.6424;stroke-linecap:round;stroke-miterlimit:10;}
	.st43{fill:none;stroke:#1B3390;stroke-width:1.7785;stroke-miterlimit:10;}
	.st44{fill:#34E2AA;stroke:#1B3390;stroke-width:1.1636;stroke-miterlimit:10;}
	.st45{fill:#94FFCC;stroke:#1B3390;stroke-width:1.1636;stroke-linecap:round;stroke-miterlimit:10;}
	.st46{fill:#94FFCC;stroke:#1B3390;stroke-width:1.1636;stroke-linecap:round;stroke-linejoin:round;stroke-miterlimit:10;}
	.st47{fill:#FFB87D;stroke:#1B3390;stroke-width:1.1636;stroke-miterlimit:10;}
	.st48{fill:#4992F5;stroke:#1B3390;stroke-width:1.1636;stroke-linecap:round;stroke-miterlimit:10;}
	.st49{fill:#4992F5;stroke:#1B3390;stroke-width:1.1636;stroke-linecap:round;stroke-linejoin:round;stroke-miterlimit:10;}
	.st50{fill:#FFB87D;stroke:#1B3390;stroke-width:1.1636;stroke-linecap:round;stroke-miterlimit:10;}
	.st51{fill:#FFB87D;stroke:#1B3390;stroke-width:1.1636;stroke-linecap:round;stroke-linejoin:round;stroke-miterlimit:10;}
	.st52{opacity:0.8;fill:#DBE2FF;}
	.st53{opacity:0.8;fill:#B3C2FF;}
	.st54{opacity:0.8;fill:#FFF3E8;}
	.st55{opacity:0.8;fill:#D6FFF9;}
	.st56{fill:#0C65DF;stroke:#1B3390;stroke-width:0.764;stroke-linecap:round;stroke-linejoin:round;stroke-miterlimit:10;}
	.st57{fill:#0C65DF;stroke:#1B3390;stroke-width:0.764;stroke-miterlimit:10;}
	.st58{fill:#0C65DF;stroke:#1B3390;stroke-width:0.764;stroke-linecap:round;stroke-miterlimit:10;}
	.st59{opacity:0.8;fill:#A1C9FF;}
	.st60{fill:none;stroke:#0B5BCB;stroke-width:1.87;stroke-miterlimit:10;}
	.st61{fill:#4992F5;stroke:#1B3390;stroke-width:2.4753;stroke-miterlimit:10;}
	.st62{fill:none;stroke:#1B3390;stroke-width:2.0994;stroke-linecap:round;stroke-miterlimit:10;}
	.st63{fill:#6CF4BC;stroke:#1B3390;stroke-width:1.6932;stroke-miterlimit:10;}
	.st64{fill:none;stroke:#1B3390;stroke-width:1.436;stroke-linecap:round;stroke-miterlimit:10;}
	.st65{fill:#FFB87D;stroke:#1B3390;stroke-width:2.1678;stroke-miterlimit:10;}
	.st66{fill:none;stroke:#1B3390;stroke-width:1.8386;stroke-linecap:round;stroke-miterlimit:10;}
	.st67{fill:#0B5FD5;stroke:#1B3390;stroke-width:1.6798;stroke-miterlimit:10;}
	.st68{fill:none;stroke:#1B3390;stroke-width:1.4247;stroke-linecap:round;stroke-miterlimit:10;}
	.st69{fill:#A6FFE1;stroke:#1B3390;stroke-width:2.0588;stroke-miterlimit:10;}
	.st70{fill:none;stroke:#1B3390;stroke-width:1.7462;stroke-linecap:round;stroke-miterlimit:10;}
	.st71{fill:#FF8B2B;stroke:#1B3390;stroke-width:2.4753;stroke-miterlimit:10;}
	.st72{fill:#34E2AA;stroke:#1B3390;stroke-width:2.1678;stroke-miterlimit:10;}
	.st73{fill:none;stroke:#1B3390;stroke-width:1.4475;stroke-linecap:round;stroke-miterlimit:10;}
	.st74{fill:#FFB87D;stroke:#1B3390;stroke-width:1.6825;stroke-miterlimit:10;}
	.st75{fill:none;stroke:#1B3390;stroke-width:1.427;stroke-linecap:round;stroke-miterlimit:10;}
	.st76{fill:#ABD0FF;}
	.st77{fill:none;stroke:#0B5BCB;stroke-width:3.3004;stroke-linecap:round;stroke-miterlimit:10;}
	.st78{fill:#E3EFFF;}
	.st79{clip-path:url(#SVGID_9_);fill:none;stroke:#FF8B2B;stroke-width:9.9011;stroke-linecap:round;stroke-miterlimit:10;}
	.st80{fill:#FFB87D;stroke:#1C3CB7;stroke-width:3;stroke-linecap:round;stroke-linejoin:round;stroke-miterlimit:10;}
	.st81{fill:#FFEED1;stroke:#1C3CB7;stroke-width:3;stroke-linejoin:round;stroke-miterlimit:10;}
	.st82{fill:#FF8B2B;stroke:#1C3CB7;stroke-width:3;stroke-miterlimit:10;}
	.st83{fill:#FFE2C9;stroke:#1C3CB7;stroke-width:3;stroke-linejoin:round;stroke-miterlimit:10;}
	.st84{fill:#1B3390;stroke:#1C3CB7;stroke-miterlimit:10;}
	.st85{fill:#0B5BCB;stroke:#1C3CB7;stroke-miterlimit:10;}
	.st86{fill:#4992F5;stroke:#1C3CB7;stroke-width:3;stroke-miterlimit:10;}
	.st87{fill:#4992F5;stroke:#1C3CB7;stroke-width:3;stroke-linecap:round;stroke-miterlimit:10;}
	.st88{fill:#8CA4FB;stroke:#1C3CB7;stroke-width:3;stroke-linecap:round;stroke-linejoin:round;stroke-miterlimit:10;}
	.st89{fill:#D1FFEF;stroke:#1C3CB7;stroke-width:3;stroke-linejoin:round;stroke-miterlimit:10;}
	.st90{fill:#0B5BCB;stroke:#1C3CB7;stroke-width:3;stroke-miterlimit:10;}
	.st91{fill:#B2C2FB;stroke:#1C3CB7;stroke-width:3;stroke-linejoin:round;stroke-miterlimit:10;}
	.st92{fill:#34E2AA;stroke:#1C3CB7;stroke-miterlimit:10;}
	.st93{fill:#66FFC8;stroke:#1C3CB7;stroke-miterlimit:10;}
	.st94{fill:#73FFCD;stroke:#1C3CB7;stroke-miterlimit:10;}
	.st95{fill:#00D38E;stroke:#1C3CB7;stroke-miterlimit:10;}
	.st96{fill:#34E2AA;stroke:#1C3CB7;stroke-width:3;stroke-miterlimit:10;}
	.st97{fill:#FF8B2B;stroke:#1C3CB7;stroke-miterlimit:10;}
	.st98{fill:#FFB87D;stroke:#1C3CB7;stroke-miterlimit:10;}
	.st99{fill:#FFB87D;stroke:#1C3CB7;stroke-width:3;stroke-miterlimit:10;}
	.st100{fill:none;stroke:#1C3CB7;stroke-width:2;stroke-miterlimit:10;}
	.st101{fill:#75FFCE;stroke:#1B3390;stroke-width:3;stroke-miterlimit:10;}
	.st102{fill:none;stroke:#1B3390;stroke-width:3;stroke-miterlimit:10;}
	.st103{fill:#00C39F;stroke:#1B3390;stroke-width:3;stroke-miterlimit:10;}
	.st104{fill:#A8FFE6;}
	.st105{opacity:0.8;fill:#A8FFE6;}
	.st106{fill:#8CA4FB;stroke:#1B3390;stroke-width:3;stroke-miterlimit:10;}
	.st107{fill:#0B5BCB;stroke:#1B3390;stroke-width:3;stroke-miterlimit:10;}
	.st108{fill:#D8E0FB;}
	.st109{opacity:0.8;fill:#D8E0FB;}
	.st110{fill:#FFB87D;stroke:#0655C3;stroke-width:3;stroke-linecap:round;stroke-linejoin:round;stroke-miterlimit:10;}
	.st111{fill:#FFE3CC;}
	.st112{fill:none;stroke:#0B5BCB;stroke-width:3;stroke-linecap:round;stroke-linejoin:round;stroke-miterlimit:10;}
	.st113{fill:#34E2AA;stroke:#1B3390;stroke-width:3;stroke-miterlimit:10;}
	.st114{fill:#BAFFE9;}
	.st115{fill:#ABFFE4;}
	.st116{fill:#5790DF;stroke:#0655C3;stroke-width:3;stroke-linecap:round;stroke-linejoin:round;stroke-miterlimit:10;}
	.st117{fill:#80B9F6;}
	.st118{fill:#629FE4;}
	.st119{fill:#0B5BCB;stroke:#0B5BCB;stroke-width:4;stroke-miterlimit:10;}
	.st120{fill:#34E2AA;stroke:#0B5BCB;stroke-width:3;stroke-linejoin:round;stroke-miterlimit:10;}
	.st121{fill:none;stroke:#0B5BCB;stroke-width:3;stroke-linecap:round;stroke-miterlimit:10;}
	.st122{fill:#4992F5;stroke:#0B5BCB;stroke-width:4;stroke-miterlimit:10;}
	.st123{fill:#C7FFED;stroke:#34E2AA;stroke-width:3;stroke-miterlimit:10;}
	.st124{fill:#FFD1AB;stroke:#0B5BCB;stroke-width:3;stroke-miterlimit:10;}
	.st125{fill:#34E2AA;stroke:#34E2AA;stroke-width:3;stroke-linejoin:round;stroke-miterlimit:10;}
	.st126{fill:#8CA4FB;stroke:#0B5BCB;stroke-width:3;stroke-linejoin:round;stroke-miterlimit:10;}
	.st127{fill:#69FFC7;stroke:#0B5BCB;stroke-width:3;stroke-linejoin:round;stroke-miterlimit:10;}
	.st128{fill:#FFB87D;stroke:#0B5BCB;stroke-width:3;stroke-linejoin:round;stroke-miterlimit:10;}
	.st129{fill:#ADBEFF;}
	.st130{fill:#FFEAD9;}
	.st131{fill:#D6FFF4;}
	.st132{fill:#CCD6FF;}
	.st133{fill:#8CA4FB;}
	.st134{opacity:0.25;fill:#FF8B2B;}
	.st135{fill:none;stroke:#FF8B2B;stroke-miterlimit:10;}
	.st136{fill:none;stroke:#FF8B2B;stroke-width:0.9367;stroke-miterlimit:10;}
	.st137{fill:#FF9843;}
	.st138{opacity:0.3;fill:#34E2AA;}
	.st139{display:inline;}
	.st140{fill:#0B87C7;}
	.st141{fill:none;stroke:#4890F1;stroke-width:10.418;stroke-miterlimit:10;}
	.st142{fill:none;stroke:#4890F1;stroke-width:8.3506;stroke-miterlimit:10;}
	.st143{fill:#E6F0FF;stroke:#DBE3FF;stroke-width:3.6654;stroke-miterlimit:10;}
	.st144{fill:#E6F0FF;}
	.st145{fill:#DBE3FF;}
	.st146{fill:#FFE1C9;stroke:#E0E6FF;stroke-width:5.2027;stroke-miterlimit:10;}
	.st147{fill:#E0FFF7;}
	.st148{fill:#E0E6FF;}
	.st149{fill:#DBE9FF;stroke:#CCD7FF;stroke-width:3.6654;stroke-miterlimit:10;}
	.st150{fill:#DBE9FF;}
	.st151{fill:#CCD7FF;}
	.st152{fill:#9EC2F7;stroke:#9CB1FF;stroke-width:3.6654;stroke-miterlimit:10;}
	.st153{fill:#9EC2F7;}
	.st154{fill:#9CB1FF;}
	.st155{fill:#99C3FF;stroke:#91A9FF;stroke-width:4.0452;stroke-miterlimit:10;}
	.st156{fill:#99C3FF;}
	.st157{fill:#91A9FF;}
	.st158{fill:#FFD7B5;stroke:#A1B5FF;stroke-width:5.2027;stroke-miterlimit:10;}
	.st159{fill:#A1B5FF;}
	.st160{fill:#B8FFEC;stroke:#A1B5FF;stroke-width:5.2027;stroke-miterlimit:10;}
	.st161{fill:#B8FFEC;}
	.st162{fill:#E0FFF7;stroke:#E0E6FF;stroke-width:5.2027;stroke-miterlimit:10;}
	.st163{fill:#FFEAD9;stroke:#DBE3FF;stroke-width:3.6654;stroke-miterlimit:10;}
	.st164{opacity:0.2;}
	.st165{fill:#4890F1;stroke:#1A328C;stroke-width:2.274;stroke-miterlimit:10;}
	.st166{fill:none;stroke:#1A328C;stroke-width:1.9286;stroke-linecap:round;stroke-miterlimit:10;}
	.st167{fill:#6AF0B9;stroke:#1A328C;stroke-width:1.5555;stroke-miterlimit:10;}
	.st168{fill:none;stroke:#1A328C;stroke-width:1.3193;stroke-linecap:round;stroke-miterlimit:10;}
	.st169{fill:#FFB87D;stroke:#1A328C;stroke-width:1.9915;stroke-miterlimit:10;}
	.st170{fill:none;stroke:#1A328C;stroke-width:1.6891;stroke-linecap:round;stroke-miterlimit:10;}
	.st171{fill:#0B5DD1;stroke:#1A328C;stroke-width:1.5432;stroke-miterlimit:10;}
	.st172{fill:none;stroke:#1A328C;stroke-width:1.3088;stroke-linecap:round;stroke-miterlimit:10;}
	.st173{fill:#A6FFE1;stroke:#1A328C;stroke-width:1.8914;stroke-miterlimit:10;}
	.st174{fill:none;stroke:#1A328C;stroke-width:1.6042;stroke-linecap:round;stroke-miterlimit:10;}
	.st175{fill:#8AA1F7;stroke:#1A328C;stroke-width:2.274;stroke-miterlimit:10;}
	.st176{fill:none;stroke:#1A328C;stroke-width:1.3298;stroke-linecap:round;stroke-miterlimit:10;}
	.st177{fill:#FFB87D;stroke:#1A328C;stroke-width:1.5457;stroke-miterlimit:10;}
	.st178{fill:none;stroke:#1A328C;stroke-width:1.311;stroke-linecap:round;stroke-miterlimit:10;}
	.st179{fill:none;stroke:#0B59C7;stroke-width:3.032;stroke-linecap:round;stroke-miterlimit:10;}
	.st180{clip-path:url(#SVGID_11_);fill:none;stroke:#FF8B2B;stroke-width:9.0959;stroke-linecap:round;stroke-miterlimit:10;}
	.st181{fill:#A6FFDE;stroke:#0B59C7;stroke-width:5;stroke-linejoin:round;stroke-miterlimit:10;}
	.st182{fill:#A6FFDE;stroke:#0B59C7;stroke-width:4.2028;stroke-linejoin:round;stroke-miterlimit:10;}
	.st183{fill:#8AA1F7;stroke:#1A328C;stroke-width:5;stroke-miterlimit:10;}
	.st184{fill:none;stroke:#1A328C;stroke-width:5;stroke-miterlimit:10;}
	.st185{fill:#0B59C7;stroke:#1A328C;stroke-width:5;stroke-miterlimit:10;}
	.st186{fill:#75FFCE;stroke:#1A328C;stroke-width:5;stroke-miterlimit:10;}
	.st187{fill:#D4DCF7;}
	.st188{opacity:0.8;fill:#D4DCF7;}
	.st189{fill:#558DDB;stroke:#0653BF;stroke-width:5;stroke-linecap:round;stroke-linejoin:round;stroke-miterlimit:10;}
	.st190{fill:#7EB6F2;}
	.st191{fill:#609CE0;}
	.st192{fill:none;stroke:#0B59C7;stroke-width:5;stroke-linecap:round;stroke-linejoin:round;stroke-miterlimit:10;}
	.st193{fill:#FF8B2B;stroke:#0B59C7;stroke-width:5;stroke-miterlimit:10;}
	.st194{fill:none;stroke:#33DEA7;stroke-width:5;stroke-linecap:round;stroke-miterlimit:10;}
	.st195{fill:none;stroke:#33DEA7;stroke-width:5;stroke-linecap:round;stroke-linejoin:round;stroke-miterlimit:10;}
	.st196{clip-path:url(#SVGID_13_);}
	.st197{fill:none;stroke:#1A328C;stroke-width:5;stroke-linecap:round;stroke-linejoin:round;stroke-miterlimit:10;}
	.st198{fill:#8AA1F7;stroke:#33DEA7;stroke-width:0.7994;stroke-miterlimit:10;}
	.st199{fill:none;stroke:#33DEA7;stroke-width:0.7994;stroke-linecap:round;stroke-miterlimit:10;}
	.st200{fill:none;stroke:#33DEA7;stroke-width:0.7994;stroke-linecap:round;stroke-linejoin:round;stroke-miterlimit:10;}
	.st201{clip-path:url(#SVGID_15_);}
	.st202{fill:none;stroke:#33DEA7;stroke-width:6.662;stroke-linecap:round;stroke-linejoin:round;stroke-miterlimit:10;}
	.st203{fill:none;stroke:#1A328C;stroke-width:1.5989;stroke-linecap:round;stroke-linejoin:round;stroke-miterlimit:10;}
	.st204{fill:#4890F1;stroke:#1A328C;stroke-width:1.7649;stroke-linecap:round;stroke-miterlimit:10;}
	.st205{fill:#4890F1;stroke:#1A328C;stroke-width:1.7649;stroke-linecap:round;stroke-linejoin:round;stroke-miterlimit:10;}
	.st206{opacity:0.8;fill:#C4D0FF;}
	.st207{fill:#FFB87D;stroke:#1B3BB3;stroke-width:5;stroke-linecap:round;stroke-linejoin:round;stroke-miterlimit:10;}
	.st208{fill:#FFD6B3;stroke:#1B3BB3;stroke-width:5;stroke-linejoin:round;stroke-miterlimit:10;}
	.st209{fill:#FF8B2B;stroke:#1B3BB3;stroke-width:5;stroke-miterlimit:10;}
	.st210{fill:#FFB87D;stroke:#1B3BB3;stroke-width:5;stroke-linejoin:round;stroke-miterlimit:10;}
	.st211{fill:#96FFD4;stroke:#1B3BB3;stroke-width:5;stroke-linejoin:round;stroke-miterlimit:10;}
	.st212{fill:#1A328C;stroke:#1B3BB3;stroke-width:5;stroke-miterlimit:10;}
	.st213{fill:#0B59C7;stroke:#1B3BB3;stroke-width:5;stroke-miterlimit:10;}
	.st214{fill:#4890F1;stroke:#1B3BB3;stroke-width:5;stroke-miterlimit:10;}
	.st215{fill:#4890F1;stroke:#1B3BB3;stroke-width:5;stroke-linecap:round;stroke-miterlimit:10;}
	.st216{fill:#FFB87D;stroke:#1B3BB3;stroke-width:1.6332;stroke-linecap:round;stroke-linejoin:round;stroke-miterlimit:10;}
	.st217{fill:#FFD8B8;stroke:#1B3BB3;stroke-width:1.6332;stroke-linejoin:round;stroke-miterlimit:10;}
	.st218{fill:#FF8B2B;stroke:#1B3BB3;stroke-width:1.6332;stroke-miterlimit:10;}
	.st219{fill:#FFB87D;stroke:#1B3BB3;stroke-width:1.6332;stroke-linejoin:round;stroke-miterlimit:10;}
	.st220{fill:#1A328C;stroke:#1B3BB3;stroke-width:0.5444;stroke-miterlimit:10;}
	.st221{fill:#0B59C7;stroke:#1B3BB3;stroke-width:0.5444;stroke-miterlimit:10;}
	.st222{fill:#4890F1;stroke:#1B3BB3;stroke-width:1.6332;stroke-miterlimit:10;}
	.st223{fill:#4890F1;stroke:#1B3BB3;stroke-width:1.6332;stroke-linecap:round;stroke-miterlimit:10;}
	.st224{fill:#92FCCA;stroke:#1A328C;stroke-width:5;stroke-miterlimit:10;}
	.st225{fill:none;stroke:#1A328C;stroke-width:5;stroke-linecap:round;stroke-miterlimit:10;}
	.st226{clip-path:url(#SVGID_19_);fill:none;stroke:#8AA1F7;stroke-width:5;stroke-linecap:round;stroke-miterlimit:10;}
	.st227{fill:#7DFFD5;}
	.st228{fill:#B3FFE4;}
	.st229{fill:none;stroke:#274CD4;stroke-width:0.3105;stroke-miterlimit:10;}
	.st230{fill:#FF8B2B;stroke:#0653BF;stroke-width:2.1766;stroke-linecap:round;stroke-linejoin:round;stroke-miterlimit:10;}
	.st231{fill:#FFD2AD;}
	.st232{fill:none;stroke:#0B59C7;stroke-width:2.1766;stroke-linecap:round;stroke-linejoin:round;stroke-miterlimit:10;}
	.st233{fill:#FFB87D;stroke:#33DEA7;stroke-width:5;stroke-miterlimit:10;}
	.st234{fill:#9EFFE0;stroke:#33DEA7;stroke-width:5;stroke-miterlimit:10;}
	.st235{fill:#FF8B2B;stroke:#33DEA7;stroke-width:5;stroke-linejoin:round;stroke-miterlimit:10;}
	.st236{fill:#FF8B2B;stroke:#1A328C;stroke-width:5;stroke-miterlimit:10;}
	.st237{fill:#6AF0B9;stroke:#1A328C;stroke-width:5;stroke-miterlimit:10;}
	.st238{fill:#B5CBE8;stroke:#1A328C;stroke-width:5;stroke-miterlimit:10;}
	.st239{fill:#0B5DD1;stroke:#1A328C;stroke-width:5;stroke-miterlimit:10;}
	.st240{fill:#4890F1;stroke:#1A328C;stroke-width:5;stroke-miterlimit:10;}
	.st241{fill:#6BFFCA;stroke:#1A328C;stroke-width:5;stroke-miterlimit:10;}
	.st242{fill:none;stroke:#0B59C7;stroke-width:5;stroke-linecap:round;stroke-miterlimit:10;}
	.st243{clip-path:url(#SVGID_21_);fill:none;stroke:#FF8B2B;stroke-width:19;stroke-linecap:round;stroke-miterlimit:10;}
	.st244{fill:#FF8B2B;stroke:#0B59C7;stroke-width:5;stroke-linejoin:round;stroke-miterlimit:10;}
	.st245{fill:#FFC99C;}
	.st246{fill:#8AA1F7;stroke:#0B59C7;stroke-width:5;stroke-linejoin:round;stroke-miterlimit:10;}
	.st247{fill:#33DEA7;stroke:#1A328C;stroke-width:5;stroke-miterlimit:10;}
	.st248{fill:#8AA1F7;stroke:#0B59C7;stroke-width:1.5989;stroke-miterlimit:10;}
	.st249{fill:none;stroke:#0B59C7;stroke-width:1.5989;stroke-linecap:round;stroke-miterlimit:10;}
	.st250{fill:none;stroke:#0B59C7;stroke-width:1.5989;stroke-linecap:round;stroke-linejoin:round;stroke-miterlimit:10;}
	.st251{clip-path:url(#SVGID_23_);}
	.st252{fill:none;stroke:#FF8B2B;stroke-width:13.324;stroke-linecap:round;stroke-linejoin:round;stroke-miterlimit:10;}
	.st253{fill:none;stroke:#1A328C;stroke-width:3.1978;stroke-linecap:round;stroke-linejoin:round;stroke-miterlimit:10;}
	.st254{fill:#4890F1;stroke:#1A328C;stroke-width:1.0806;stroke-miterlimit:10;}
	.st255{fill:#4890F1;stroke:#1A328C;stroke-width:1.0806;stroke-linecap:round;stroke-miterlimit:10;}
	.st256{fill:#4890F1;stroke:#1A328C;stroke-width:1.0806;stroke-linecap:round;stroke-linejoin:round;stroke-miterlimit:10;}
	.st257{fill:#8AA1F7;stroke:#1B3BB3;stroke-width:5;stroke-linecap:round;stroke-linejoin:round;stroke-miterlimit:10;}
	.st258{fill:#D1FFEF;stroke:#1B3BB3;stroke-width:5;stroke-linejoin:round;stroke-miterlimit:10;}
	.st259{fill:#AFBFF7;stroke:#1B3BB3;stroke-width:5;stroke-linejoin:round;stroke-miterlimit:10;}
	.st260{fill:#66FFC8;stroke:#1B3BB3;stroke-width:5;stroke-miterlimit:10;}
	.st261{fill:none;stroke:#274CD4;stroke-width:0.9742;stroke-miterlimit:10;}
	.st262{fill:#8AA1F7;stroke:#0653BF;stroke-width:5;stroke-linecap:round;stroke-linejoin:round;stroke-miterlimit:10;}
	.st263{fill:#BAC8FF;}
	.st264{fill:#9EB2FF;}
	.st265{fill:#8AA1F7;stroke:#0B59C7;stroke-width:5;stroke-miterlimit:10;}
	.st266{clip-path:url(#SVGID_27_);}
	.st267{fill:none;stroke:#33DEA7;stroke-width:25;stroke-linecap:round;stroke-linejoin:round;stroke-miterlimit:10;}
	.st268{fill:#0B59C7;stroke:#0B59C7;stroke-width:5;stroke-miterlimit:10;}
	.st269{fill:#4890F1;stroke:#0B59C7;stroke-width:5;stroke-miterlimit:10;}
	.st270{fill:#FF9B47;stroke:#0B59C7;stroke-width:1.6094;stroke-linejoin:round;stroke-miterlimit:10;}
	.st271{fill:#FFC696;}
	.st272{fill:#6CCFAF;stroke:#0B59C7;stroke-width:1.5694;stroke-miterlimit:10;}
	.st273{fill:#9EFFE0;stroke:#0B59C7;stroke-width:1.5694;stroke-miterlimit:10;}
	.st274{fill:none;stroke:#0B59C7;stroke-width:1.5694;stroke-linecap:round;stroke-miterlimit:10;}
	.st275{fill:#00BD80;stroke:#0B59C7;stroke-width:1.5694;stroke-linejoin:round;stroke-miterlimit:10;}
	.st276{fill:#FF8B2B;stroke:#0653BF;stroke-width:1.5522;stroke-linecap:round;stroke-linejoin:round;stroke-miterlimit:10;}
	.st277{fill:none;stroke:#0B59C7;stroke-width:1.5522;stroke-linecap:round;stroke-linejoin:round;stroke-miterlimit:10;}
	.st278{fill:#1D4BB8;}
	.st279{fill:#33DEA7;stroke:#1A328C;stroke-miterlimit:10;}
	.st280{fill:#2DC494;}
	.st281{fill:#E3FFFB;stroke:#1A328C;stroke-miterlimit:10;}
	.st282{fill:#D9E5FF;stroke:#1A328C;stroke-miterlimit:10;}
	.st283{fill:#C9FFEB;}
	.st284{fill:#FFD0A8;}
	.st285{fill:#41F2B3;}
	.st286{fill:#31FFC0;}
	.st287{fill:#5CFFCD;}
	.st288{fill:#87FFDA;}
	.st289{fill:#9CFFE0;}
	.st290{fill:#ADFFE6;}
	.st291{fill:#BAFFEA;}
	.st292{fill:#C4DEFF;}
	.st293{fill:#FFFFFF;stroke:#33DEA7;stroke-width:2.0266;stroke-miterlimit:10;}
	.st294{fill:#FFFFFF;stroke:#FF8B2B;stroke-width:2.0266;stroke-miterlimit:10;}
	.st295{fill:#00BD81;}
	.st296{fill:#FFFFFF;stroke:#4890F1;stroke-width:2.0266;stroke-miterlimit:10;}
	.st297{fill:none;stroke:#1A328C;stroke-width:1.9243;stroke-miterlimit:10;}
	.st298{fill:#FFDCBF;stroke:#BFCCFF;stroke-width:5.4294;stroke-miterlimit:10;}
	.st299{fill:#BFCCFF;}
	.st300{fill:#BFD8FF;stroke:#ADBFFF;stroke-width:3.8251;stroke-miterlimit:10;}
	.st301{fill:#ADBFFF;}
	.st302{fill:#74A9F7;stroke:#6384FF;stroke-width:3.8251;stroke-miterlimit:10;}
	.st303{fill:#74A9F7;}
	.st304{fill:#6384FF;}
	.st305{fill:#94C0FF;stroke:#8FA7FF;stroke-width:4.2215;stroke-miterlimit:10;}
	.st306{fill:#94C0FF;}
	.st307{fill:#8FA7FF;}
	.st308{fill:#FFC899;stroke:#87A1FF;stroke-width:4;stroke-miterlimit:10;}
	.st309{fill:#87A1FF;}
	.st310{fill:#A1FFE6;stroke:#A1B5FF;stroke-width:3;stroke-miterlimit:10;}
	.st311{fill:#A1FFE6;}
	.st312{fill:#CCFFF2;stroke:#BDCAFF;stroke-width:5.4294;stroke-miterlimit:10;}
	.st313{fill:#BDCAFF;}
	.st314{fill:none;stroke:#4890F1;stroke-width:1.7372;stroke-miterlimit:10;}
	.st315{fill:none;stroke:#4890F1;stroke-width:2.5336;stroke-miterlimit:10;}
	.st316{fill:#FFEFE0;stroke:#4890F1;stroke-width:2.5336;stroke-miterlimit:10;}
	.st317{opacity:0.87;fill:url(#SVGID_40_);}
	.st318{opacity:0.54;}
	.st319{opacity:0.14;}
	.st320{opacity:0.26;}
	.st321{clip-path:url(#SVGID_44_);}
	.st322{clip-path:url(#SVGID_46_);fill:none;stroke:#FF8B2B;stroke-width:9.0959;stroke-linecap:round;stroke-miterlimit:10;}
	.st323{clip-path:url(#SVGID_48_);}
	.st324{clip-path:url(#SVGID_50_);}
	.st325{clip-path:url(#SVGID_54_);fill:none;stroke:#8AA1F7;stroke-width:5;stroke-linecap:round;stroke-miterlimit:10;}
	.st326{clip-path:url(#SVGID_56_);fill:none;stroke:#FF8B2B;stroke-width:19;stroke-linecap:round;stroke-miterlimit:10;}
	.st327{clip-path:url(#SVGID_58_);}
	.st328{clip-path:url(#SVGID_62_);}
	.st329{opacity:0.87;fill:url(#SVGID_63_);}
	.st330{fill:#D4FFF1;stroke:#1A328C;stroke-width:0.8632;stroke-miterlimit:10;}
	.st331{fill:#FFD5B3;stroke:#1A328C;stroke-width:0.8632;stroke-miterlimit:10;}
	.st332{fill:none;stroke:#1A328C;stroke-width:4;stroke-linecap:round;stroke-miterlimit:10;}
	.st333{opacity:0.29;fill:#4890F1;}
	.st334{fill:#33DEA7;stroke:#33DEA7;stroke-miterlimit:10;}
	.st335{fill:url(#SVGID_78_);}
	.st336{clip-path:url(#SVGID_80_);fill:none;stroke:#FF8B2B;stroke-width:9.0959;stroke-linecap:round;stroke-miterlimit:10;}
	.st337{clip-path:url(#SVGID_82_);}
	.st338{clip-path:url(#SVGID_84_);}
	.st339{clip-path:url(#SVGID_88_);fill:none;stroke:#8AA1F7;stroke-width:5;stroke-linecap:round;stroke-miterlimit:10;}
	.st340{clip-path:url(#SVGID_90_);fill:none;stroke:#FF8B2B;stroke-width:19;stroke-linecap:round;stroke-miterlimit:10;}
	.st341{clip-path:url(#SVGID_92_);}
	.st342{clip-path:url(#SVGID_96_);}
	.st343{opacity:0.87;fill:url(#SVGID_97_);}
	.st344{fill:url(#SVGID_112_);}
</style>
<g id="аккаунт">
</g>
<g id="посты">
	<g id="Favorite">
	</g>
</g>
<g id="регистрация">
</g>
<g id="контакты">
	<g id="SMS">
	</g>
	<g id="Email">
	</g>
	<rect class="st11" width="1920" height="675"/>
	<g>
		<defs>
			<rect id="SVGID_43_" y="2" width="1920" height="673"/>
		</defs>
		<clipPath id="SVGID_1_">
			<use xlink:href="#SVGID_43_"  style="overflow:visible;"/>
		</clipPath>
		<g style="clip-path:url(#SVGID_1_);">
			<g class="st318">
				<path class="st17" d="M46.47,441.43c3.47-0.76,6.26-2.62,6.57-9.41c3.17,6.49,6.65,7.34,10.27,6.55
					c5.35-1.17,7.48-12.27,4.74-24.79c-0.69-3.17-1.63-6.12-2.73-8.75c-3.71-10.47-10.9-18.69-19.55-23.16l-2.94-13.43
					c-0.94,0.26-1.9,0.5-2.89,0.71c-0.58,0.13-1.17,0.25-1.76,0.35l0,0l-1.91,0.42c-12.55,2.41-25.49-0.46-34.76-7.68l-1.18,0.26
					l6.04,27.62c-7.06,8.75-10.28,21.29-7.8,34.21c0.03-0.02,0.06-0.05,0.09-0.07c0.18,1.22,0.4,2.45,0.68,3.71
					c2.74,12.52,9.3,21.73,14.65,20.55c3.31-0.72,6.06-2.18,6.51-8.5c3.05,5.55,6.15,5.73,9.46,5c3.49-0.76,6.28-2.67,6.57-9.51
					C39.66,441.62,42.98,442.19,46.47,441.43z"/>
				<path class="st17" d="M-8.5,433.05l6.17-1.35c-0.29-1.04-0.56-2.1-0.8-3.19c-0.13-0.58-0.24-1.16-0.35-1.75l0,0l-0.42-1.92
					c-2.41-12.55,0.46-25.49,7.68-34.76l-0.19-0.87l-20.35,4.45c-8.75-7.06-21.29-10.28-34.21-7.8c0.02,0.03-2.39,0.49-3.64,0.77
					c-12.52,2.74-21.73,9.3-20.55,14.65c0.72,3.31,2.18,6.06,8.5,6.51c-5.55,3.05-5.73,6.15-5,9.46c0.76,3.49,2.67,6.28,9.51,6.57
					c-6.1,3.12-6.66,6.45-5.9,9.94c0.76,3.47,2.62,6.26,9.41,6.57c-6.49,3.17-7.34,6.65-6.55,10.27c1.17,5.35,12.27,7.47,24.79,4.74
					c3.17-0.69,6.12-1.63,8.75-2.73C-21.2,448.9-12.98,441.71-8.5,433.05z"/>
				<path class="st17" d="M-5.96,320.74l-8.74,1.91c0.22,0.82,0.42,1.66,0.61,2.52c0.12,0.53,0.27,1.27,0.41,1.95
					c0.07,0.33,0.14,0.69,0.2,0.99l0.03,0.01l0.14,0.72c2.41,12.55-0.46,25.49-7.68,34.76l0.34,1.55l22.96-5.02
					c8.75,7.06,21.29,10.28,34.21,7.8c-0.02-0.03-0.05-0.06-0.07-0.09c1.22-0.18,2.45-0.4,3.71-0.68
					c12.52-2.74,21.73-9.3,20.55-14.65c-0.72-3.31-2.18-6.06-8.5-6.51c5.55-3.05,5.73-6.15,5-9.46c-0.76-3.49-2.67-6.28-9.51-6.57
					c6.1-3.12,6.66-6.45,5.9-9.94c-0.76-3.47-2.62-6.26-9.41-6.57c6.49-3.17,7.34-6.65,6.55-10.27c-1.17-5.35-12.27-7.47-24.79-4.74
					c-3.17,0.69-6.12,1.63-8.75,2.73C6.73,304.9-1.49,312.09-5.96,320.74z"/>
			</g>
			<g class="st319">
				<path class="st17" d="M194.88,175.84c2.68-0.59,4.83-2.02,5.07-7.27c2.45,5.01,5.14,5.68,7.93,5.07
					c4.14-0.9,5.78-9.48,3.66-19.16c-0.54-2.45-1.26-4.73-2.11-6.76c-2.86-8.09-8.42-14.44-15.11-17.9l-2.27-10.38
					c-0.73,0.2-1.47,0.39-2.23,0.55c-0.45,0.1-0.9,0.19-1.36,0.27l0,0l-1.47,0.32c-9.7,1.86-19.7-0.35-26.86-5.93l-0.91,0.2
					l4.67,21.35c-5.45,6.76-7.94,16.45-6.03,26.43c0.02-0.02,0.05-0.04,0.07-0.05c0.14,0.94,0.31,1.9,0.52,2.87
					c2.12,9.68,7.19,16.79,11.32,15.88c2.56-0.56,4.68-1.68,5.03-6.56c2.35,4.29,4.75,4.43,7.31,3.87c2.7-0.59,4.85-2.06,5.08-7.35
					C189.61,175.99,192.18,176.43,194.88,175.84z"/>
				<path class="st17" d="M152.39,169.37l4.77-1.04c-0.23-0.8-0.43-1.62-0.62-2.47c-0.1-0.45-0.19-0.9-0.27-1.35l0,0l-0.32-1.49
					c-1.86-9.7,0.35-19.7,5.93-26.86l-0.15-0.67l-15.72,3.44c-6.76-5.45-16.45-7.94-26.43-6.03c0.02,0.02-1.84,0.38-2.81,0.59
					c-9.68,2.12-16.79,7.19-15.88,11.32c0.56,2.56,1.68,4.68,6.56,5.03c-4.29,2.35-4.43,4.75-3.87,7.31
					c0.59,2.7,2.06,4.85,7.35,5.08c-4.71,2.41-5.15,4.98-4.56,7.68c0.59,2.68,2.02,4.83,7.27,5.07c-5.01,2.45-5.68,5.14-5.07,7.93
					c0.9,4.14,9.48,5.78,19.16,3.66c2.45-0.54,4.73-1.26,6.76-2.11C142.59,181.62,148.94,176.06,152.39,169.37z"/>
				<path class="st17" d="M154.36,82.58l-6.76,1.48c0.17,0.64,0.33,1.28,0.47,1.94c0.09,0.41,0.21,0.98,0.31,1.51
					c0.05,0.25,0.11,0.53,0.16,0.77l0.02,0.01l0.11,0.55c1.86,9.7-0.35,19.7-5.93,26.86l0.26,1.2l17.74-3.88
					c6.76,5.45,16.45,7.94,26.43,6.03c-0.02-0.02-0.04-0.05-0.05-0.07c0.94-0.14,1.9-0.31,2.87-0.52
					c9.68-2.12,16.79-7.19,15.88-11.32c-0.56-2.56-1.68-4.68-6.56-5.03c4.29-2.35,4.43-4.75,3.87-7.31
					c-0.59-2.7-2.06-4.85-7.35-5.08c4.71-2.41,5.15-4.98,4.56-7.68c-0.59-2.68-2.02-4.83-7.27-5.07c5.01-2.45,5.68-5.14,5.07-7.93
					c-0.9-4.14-9.48-5.78-19.16-3.66c-2.45,0.54-4.73,1.26-6.76,2.11C164.17,70.34,157.82,75.9,154.36,82.58z"/>
				<path class="st17" d="M117.4,131.86c0.41-0.09,0.99-0.21,1.51-0.31c0.25-0.05,0.53-0.11,0.76-0.16l0.01-0.02l0.56-0.11
					c9.09-1.75,18.45,0.09,25.48,4.93l-4.51-20.62c5.45-6.76,7.94-16.45,6.03-26.43c-0.02,0.02-0.38-1.84-0.59-2.81
					c-2.12-9.68-7.19-16.79-11.32-15.88c-2.56,0.56-4.68,1.68-5.03,6.56c-2.35-4.29-4.75-4.43-7.31-3.87
					c-2.7,0.59-4.85,2.06-5.08,7.35c-2.41-4.71-4.98-5.15-7.68-4.56c-2.68,0.59-4.83,2.02-5.07,7.27c-2.45-5.01-5.14-5.68-7.93-5.07
					c-4.14,0.9-5.78,9.48-3.66,19.16c0.54,2.45,1.26,4.73,2.11,6.76c2.86,8.09,8.42,14.44,15.11,17.9l2.42,11.06
					C114.53,132.57,115.93,132.18,117.4,131.86z"/>
			</g>
			<g class="st320">
				<path class="st2" d="M122.12,511.4c2.09,0.98,4.25,1.12,7.09-2.25c-0.93,4.59,0.52,6.4,2.69,7.42
					c3.22,1.51,8.69-3.36,12.23-10.88c0.89-1.9,1.58-3.79,2.05-5.58c2.23-6.85,1.78-13.91-0.91-19.63l3.79-8.06
					c-0.59-0.24-1.17-0.49-1.77-0.77c-0.35-0.16-0.7-0.34-1.05-0.51l0,0l-1.15-0.54c-7.4-3.72-12.92-10.3-14.84-17.67l-0.71-0.33
					l-7.8,16.59c-7.08,1.71-13.69,6.89-17.52,14.51c0.02,0,0.05,0,0.07,0c-0.39,0.7-0.76,1.42-1.12,2.17
					c-3.54,7.52-3.8,14.84-0.58,16.35c1.99,0.94,3.98,1.27,6.7-1.8c-0.63,4.06,0.9,5.37,2.89,6.31c2.1,0.99,4.28,1.11,7.13-2.3
					C118.54,508.81,120.02,510.42,122.12,511.4z"/>
				<path class="st2" d="M97.16,485.39l3.71,1.74c0.26-0.65,0.54-1.3,0.85-1.96c0.16-0.35,0.33-0.69,0.51-1.04l0,0l0.54-1.15
					c3.72-7.4,10.3-12.92,17.67-14.84l0.25-0.52l-12.22-5.75c-1.71-7.08-6.89-13.69-14.51-17.52c0,0.02-1.42-0.69-2.17-1.04
					c-7.52-3.54-14.84-3.8-16.35-0.58c-0.94,1.99-1.27,3.98,1.8,6.7c-4.06-0.63-5.37,0.9-6.31,2.89c-0.99,2.1-1.11,4.28,2.3,7.13
					c-4.37-0.8-5.97,0.69-6.96,2.78c-0.98,2.09-1.12,4.25,2.25,7.09c-4.59-0.93-6.4,0.52-7.42,2.69
					c-1.51,3.22,3.36,8.69,10.88,12.23c1.9,0.89,3.79,1.58,5.58,2.05C84.38,488.52,91.44,488.07,97.16,485.39z"/>
				<path class="st2" d="M142.81,428.65l-5.25-2.47c-0.21,0.51-0.44,1.02-0.68,1.54c-0.15,0.32-0.37,0.76-0.56,1.16
					c-0.09,0.19-0.2,0.41-0.29,0.59l0.01,0.02l-0.21,0.42c-3.72,7.4-10.3,12.92-17.67,14.84l-0.44,0.93l13.79,6.48
					c1.71,7.08,6.89,13.69,14.51,17.52c0-0.02,0-0.05,0-0.08c0.7,0.39,1.42,0.76,2.17,1.12c7.52,3.54,14.84,3.8,16.35,0.58
					c0.94-1.99,1.27-3.98-1.8-6.7c4.06,0.63,5.37-0.9,6.31-2.89c0.99-2.1,1.11-4.28-2.3-7.13c4.37,0.8,5.97-0.69,6.96-2.78
					c0.98-2.09,1.12-4.25-2.25-7.09c4.59,0.93,6.4-0.52,7.42-2.69c1.51-3.22-3.36-8.69-10.88-12.23c-1.9-0.89-3.79-1.58-5.58-2.05
					C155.6,425.51,148.53,425.97,142.81,428.65z"/>
				<path class="st2" d="M93.05,442.55c0.32,0.15,0.76,0.37,1.17,0.57c0.19,0.09,0.41,0.2,0.58,0.28l0.02-0.01l0.43,0.21
					c6.94,3.48,12.23,9.49,14.44,16.3l7.54-16.03c7.08-1.71,13.69-6.89,17.52-14.51c-0.02,0,0.69-1.42,1.04-2.17
					c3.54-7.52,3.8-14.84,0.58-16.35c-1.99-0.94-3.98-1.27-6.7,1.8c0.63-4.06-0.9-5.37-2.89-6.31c-2.1-0.99-4.28-1.11-7.13,2.3
					c0.8-4.37-0.69-5.97-2.78-6.96c-2.09-0.98-4.25-1.12-7.09,2.25c0.93-4.59-0.52-6.4-2.69-7.42c-3.22-1.51-8.69,3.36-12.23,10.88
					c-0.89,1.9-1.58,3.79-2.05,5.58c-2.23,6.85-1.78,13.91,0.91,19.63l-4.04,8.6C90.77,441.55,91.9,442.01,93.05,442.55z"/>
			</g>
			<g class="st318">
				<path class="st2" d="M51.73,715.83c1.88,1.83,4.16,2.79,8.47,0.22c-2.71,4.59-1.82,7.09,0.14,8.99
					c2.9,2.82,10.6-0.38,17.21-7.16c1.67-1.71,3.11-3.49,4.28-5.24c4.94-6.54,7.08-14.32,6.32-21.47l7.08-7.27
					c-0.54-0.47-1.08-0.97-1.61-1.49c-0.31-0.31-0.63-0.62-0.94-0.94l0,0l-1.03-1.01c-6.59-6.75-10.08-15.9-9.41-24.55l-0.64-0.62
					l-14.57,14.96c-8.26-0.79-17.3,2.32-24.25,9.11c0.03,0.01,0.05,0.02,0.08,0.03c-0.68,0.6-1.35,1.25-2.01,1.92
					c-6.6,6.78-9.61,14.57-6.71,17.39c1.79,1.75,3.81,2.85,7.88,0.56c-2.18,4.14-1.03,6.12,0.77,7.87c1.89,1.84,4.2,2.78,8.53,0.18
					C48.84,711.71,49.84,713.99,51.73,715.83z"/>
				<path class="st2" d="M34.53,678.54l3.34,3.26c0.52-0.6,1.07-1.2,1.64-1.79c0.3-0.31,0.62-0.62,0.94-0.93l0,0l1.02-1.04
					c6.75-6.59,15.9-10.09,24.55-9.41l0.46-0.47l-11.02-10.73c0.79-8.26-2.32-17.3-9.11-24.25c-0.01,0.03-1.28-1.27-1.95-1.93
					c-6.78-6.6-14.57-9.61-17.39-6.71c-1.75,1.79-2.85,3.81-0.56,7.88c-4.14-2.18-6.12-1.03-7.87,0.77
					c-1.84,1.89-2.78,4.2-0.18,8.53c-4.4-2.49-6.69-1.48-8.53,0.41c-1.83,1.88-2.79,4.16-0.22,8.47c-4.59-2.71-7.09-1.82-8.99,0.14
					c-2.82,2.9,0.38,10.6,7.16,17.21c1.71,1.67,3.49,3.11,5.24,4.28C19.6,677.16,27.38,679.3,34.53,678.54z"/>
				<path class="st2" d="M104.79,634.43l-4.73-4.61c-0.42,0.47-0.85,0.94-1.3,1.4c-0.28,0.29-0.68,0.68-1.04,1.04
					c-0.17,0.17-0.37,0.37-0.53,0.53l0.01,0.02l-0.39,0.38c-6.75,6.59-15.9,10.08-24.55,9.41l-0.82,0.84l12.43,12.11
					c-0.79,8.26,2.32,17.3,9.11,24.25c0.01-0.03,0.02-0.05,0.03-0.08c0.6,0.68,1.25,1.35,1.92,2.01c6.78,6.6,14.57,9.61,17.39,6.71
					c1.75-1.79,2.85-3.81,0.56-7.88c4.14,2.18,6.12,1.03,7.87-0.77c1.84-1.89,2.78-4.2,0.18-8.53c4.4,2.49,6.69,1.48,8.53-0.41
					c1.83-1.88,2.79-4.16,0.22-8.47c4.59,2.71,7.09,1.82,8.99-0.14c2.82-2.9-0.38-10.6-7.16-17.21c-1.71-1.67-3.49-3.11-5.24-4.28
					C119.72,635.81,111.94,633.67,104.79,634.43z"/>
				<path class="st2" d="M46.03,630.89c0.29,0.28,0.69,0.68,1.05,1.04c0.17,0.17,0.36,0.36,0.52,0.52l0.02-0.01l0.38,0.39
					c6.18,6.33,9.64,14.76,9.48,22.92l14.08-14.45c8.26,0.79,17.3-2.32,24.25-9.11c-0.03-0.01,1.27-1.28,1.93-1.95
					c6.6-6.78,9.61-14.57,6.71-17.39c-1.79-1.75-3.81-2.85-7.88-0.56c2.18-4.14,1.03-6.12-0.77-7.87c-1.89-1.84-4.2-2.78-8.53-0.18
					c2.49-4.4,1.48-6.69-0.41-8.53c-1.88-1.83-4.16-2.79-8.47-0.22c2.71-4.59,1.82-7.09-0.14-8.99c-2.9-2.82-10.6,0.38-17.21,7.16
					c-1.67,1.71-3.11,3.49-4.28,5.24c-4.94,6.54-7.08,14.32-6.32,21.47l-7.55,7.75C43.95,628.97,45,629.89,46.03,630.89z"/>
			</g>
			<g class="st318">
				<path class="st2" d="M0.99,226.81c1.17,1.99,2.87,3.33,7.12,2.16c-3.36,3.25-3.19,5.58-1.98,7.64c1.8,3.07,9.07,2.14,16.23-2.06
					c1.81-1.06,3.44-2.23,4.84-3.44c5.71-4.39,9.33-10.47,10.35-16.7l7.69-4.51c-0.35-0.53-0.69-1.07-1.02-1.64
					c-0.2-0.33-0.39-0.67-0.57-1.02l0,0l-0.64-1.09c-4.01-7.25-4.84-15.8-2.25-22.97l-0.4-0.68l-15.81,9.27
					c-6.81-2.59-15.19-2.06-22.65,2.06c0.02,0.01,0.04,0.03,0.06,0.04c-0.71,0.35-1.43,0.74-2.15,1.16
					c-7.17,4.2-11.52,10.1-9.73,13.16c1.11,1.9,2.56,3.3,6.54,2.31c-2.81,2.99-2.29,4.94-1.18,6.84c1.17,2,2.9,3.33,7.18,2.14
					C-0.5,222.65-0.18,224.81,0.99,226.81z"/>
				<path class="st2" d="M-4.9,191.24l2.07,3.53c0.58-0.39,1.18-0.77,1.81-1.13c0.33-0.19,0.67-0.38,1.01-0.57l0,0l1.1-0.64
					c7.25-4.01,15.8-4.84,22.97-2.25l0.5-0.29l-6.83-11.65c2.59-6.81,2.06-15.19-2.06-22.65c-0.01,0.02-0.78-1.37-1.21-2.09
					c-4.2-7.17-10.1-11.52-13.16-9.73c-1.9,1.11-3.3,2.56-2.31,6.54c-2.99-2.81-4.94-2.29-6.84-1.18c-2,1.17-3.33,2.9-2.14,7.18
					c-3.15-3.13-5.31-2.81-7.31-1.64c-1.99,1.17-3.33,2.87-2.16,7.12c-3.25-3.36-5.58-3.19-7.64-1.98
					c-3.06,1.8-2.14,9.07,2.06,16.23c1.06,1.81,2.23,3.44,3.44,4.84C-17.21,186.6-11.13,190.22-4.9,191.24z"/>
				<path class="st2" d="M64.84,170.25l-2.93-5.01c-0.46,0.3-0.94,0.6-1.43,0.88c-0.31,0.18-0.73,0.42-1.12,0.64
					c-0.19,0.11-0.4,0.23-0.57,0.32l0,0.02l-0.41,0.23c-7.25,4.01-15.8,4.84-22.97,2.25l-0.89,0.52l7.71,13.14
					c-2.59,6.81-2.06,15.19,2.06,22.65c0.01-0.02,0.03-0.04,0.04-0.06c0.35,0.71,0.74,1.43,1.16,2.15
					c4.2,7.17,10.1,11.52,13.16,9.73c1.9-1.11,3.3-2.56,2.31-6.54c2.99,2.81,4.94,2.29,6.84,1.18c2-1.17,3.33-2.9,2.14-7.18
					c3.15,3.13,5.31,2.81,7.31,1.64c1.99-1.17,3.33-2.87,2.16-7.12c3.25,3.36,5.58,3.19,7.64,1.98c3.06-1.8,2.14-9.07-2.06-16.23
					c-1.06-1.81-2.23-3.44-3.44-4.84C77.15,174.89,71.07,171.27,64.84,170.25z"/>
				<path class="st2" d="M15.93,153.58c0.18,0.31,0.42,0.74,0.64,1.13c0.11,0.18,0.22,0.39,0.32,0.56l0.02,0l0.23,0.42
					c3.76,6.8,4.72,14.74,2.7,21.61l15.28-8.96c6.81,2.59,15.19,2.06,22.65-2.06c-0.02-0.01,1.37-0.78,2.09-1.2
					c7.17-4.2,11.52-10.1,9.73-13.16c-1.11-1.9-2.56-3.3-6.54-2.31c2.81-2.99,2.29-4.94,1.18-6.84c-1.17-2-2.9-3.33-7.18-2.14
					c3.13-3.15,2.81-5.31,1.64-7.31c-1.17-1.99-2.87-3.33-7.12-2.16c3.36-3.26,3.19-5.58,1.98-7.64c-1.8-3.06-9.07-2.14-16.23,2.06
					c-1.81,1.06-3.44,2.23-4.84,3.44c-5.71,4.39-9.33,10.47-10.35,16.7l-8.19,4.81C14.61,151.47,15.29,152.49,15.93,153.58z"/>
			</g>
			<g class="st319">
				<path class="st2" d="M221.43,276.7c1.09,2.28,2.83,3.91,7.58,3.02c-3.98,3.25-4.01,5.8-2.88,8.17
					c1.68,3.52,9.71,3.19,17.95-0.74c2.08-0.99,3.98-2.12,5.62-3.31c6.65-4.27,11.18-10.58,12.88-17.3l8.83-4.21
					c-0.33-0.61-0.65-1.24-0.96-1.88c-0.18-0.38-0.36-0.77-0.53-1.16l0,0l-0.6-1.25c-3.7-8.3-3.82-17.74-0.32-25.33l-0.37-0.78
					l-18.16,8.66c-7.21-3.47-16.42-3.67-24.96,0.14c0.02,0.02,0.04,0.04,0.06,0.05c-0.81,0.32-1.64,0.68-2.46,1.07
					c-8.23,3.93-13.54,9.96-11.87,13.48c1.04,2.18,2.49,3.85,6.94,3.13c-3.35,3.01-2.97,5.19-1.93,7.37
					c1.09,2.29,2.87,3.92,7.65,3.01C220.19,272,220.34,274.4,221.43,276.7z"/>
				<path class="st2" d="M218.32,237.25l1.94,4.06c0.67-0.37,1.36-0.73,2.08-1.07c0.38-0.18,0.77-0.36,1.16-0.53l0,0l1.26-0.6
					c8.3-3.7,17.74-3.82,25.33-0.32l0.57-0.27l-6.38-13.38c3.47-7.21,3.67-16.42-0.14-24.96c-0.02,0.02-0.73-1.57-1.12-2.4
					c-3.93-8.23-9.96-13.54-13.48-11.87c-2.18,1.04-3.85,2.49-3.13,6.94c-3.01-3.35-5.19-2.97-7.37-1.93
					c-2.29,1.09-3.92,2.87-3.01,7.65c-3.15-3.72-5.55-3.57-7.84-2.48c-2.28,1.09-3.91,2.83-3.02,7.58c-3.25-3.98-5.8-4.01-8.17-2.88
					c-3.52,1.68-3.19,9.71,0.74,17.95c0.99,2.08,2.12,3.98,3.31,5.62C205.28,231.02,211.6,235.55,218.32,237.25z"/>
				<path class="st2" d="M296.54,220.8l-2.74-5.75c-0.53,0.29-1.08,0.56-1.64,0.83c-0.35,0.17-0.84,0.39-1.29,0.6
					c-0.22,0.1-0.46,0.21-0.65,0.3l0,0.02l-0.47,0.21c-8.3,3.7-17.74,3.82-25.33,0.32l-1.02,0.49l7.2,15.09
					c-3.47,7.21-3.67,16.42,0.14,24.96c0.02-0.02,0.04-0.04,0.05-0.06c0.32,0.81,0.68,1.64,1.07,2.46
					c3.93,8.23,9.96,13.54,13.48,11.86c2.18-1.04,3.85-2.49,3.13-6.94c3.01,3.35,5.19,2.97,7.37,1.93c2.29-1.09,3.92-2.87,3.01-7.65
					c3.15,3.72,5.55,3.57,7.84,2.48c2.28-1.09,3.91-2.83,3.02-7.58c3.25,3.98,5.8,4.01,8.17,2.88c3.52-1.68,3.19-9.71-0.74-17.95
					c-0.99-2.08-2.12-3.98-3.31-5.62C309.58,227.03,303.27,222.5,296.54,220.8z"/>
				<path class="st2" d="M244.61,198.01c0.17,0.35,0.39,0.84,0.6,1.29c0.1,0.21,0.21,0.45,0.3,0.65l0.02,0l0.21,0.48
					c3.47,7.78,3.79,16.56,0.93,23.88l17.54-8.37c7.21,3.47,16.42,3.67,24.96-0.14c-0.02-0.02,1.57-0.73,2.4-1.12
					c8.23-3.93,13.54-9.96,11.86-13.48c-1.04-2.18-2.49-3.85-6.94-3.13c3.35-3.01,2.97-5.19,1.93-7.37
					c-1.09-2.29-2.87-3.92-7.65-3.01c3.72-3.15,3.57-5.55,2.48-7.84c-1.09-2.28-2.83-3.91-7.58-3.02c3.98-3.25,4.01-5.8,2.88-8.18
					c-1.68-3.52-9.71-3.19-17.95,0.74c-2.08,0.99-3.98,2.12-5.62,3.31c-6.65,4.27-11.18,10.58-12.88,17.3l-9.41,4.49
					C243.37,195.57,244.01,196.75,244.61,198.01z"/>
			</g>
			<g class="st320">
				<path class="st0" d="M175.38,214.57c-1.8-3.31-4.52-5.58-11.51-3.89c5.66-5.14,5.49-8.94,3.62-12.38
					c-2.78-5.1-14.69-3.96-26.61,2.53c-3.01,1.64-5.74,3.47-8.08,5.37c-9.54,6.87-15.77,16.61-17.75,26.74l-12.78,6.96
					c0.54,0.88,1.07,1.78,1.58,2.72c0.3,0.55,0.6,1.12,0.88,1.69l0,0l0.99,1.82c6.17,12.04,7.09,26.05,2.49,37.61l0.61,1.12
					l26.29-14.32c10.99,4.58,24.68,4.14,37.08-2.21c-0.03-0.02-0.06-0.05-0.1-0.07c1.18-0.54,2.38-1.14,3.57-1.79
					c11.92-6.49,19.33-15.89,16.55-20.98c-1.72-3.15-4.01-5.52-10.56-4.1c4.74-4.74,4-7.95,2.28-11.1
					c-1.81-3.32-4.57-5.59-11.61-3.86C177.6,221.44,177.19,217.89,175.38,214.57z"/>
				<path class="st0" d="M183.16,272.94l-3.2-5.88c-0.97,0.6-1.97,1.19-3.01,1.76c-0.55,0.3-1.11,0.59-1.67,0.88l0.01,0l-1.83,0.99
					c-12.04,6.17-26.05,7.09-37.61,2.49l-0.83,0.45l10.55,19.37c-4.58,10.99-4.14,24.68,2.21,37.08c0.02-0.03,1.21,2.28,1.86,3.47
					c6.49,11.92,15.89,19.33,20.98,16.55c3.15-1.72,5.52-4.01,4.1-10.57c4.74,4.74,7.95,4,11.1,2.28c3.32-1.81,5.59-4.57,3.86-11.61
					c4.98,5.27,8.53,4.86,11.85,3.05c3.31-1.8,5.58-4.52,3.89-11.51c5.14,5.66,8.94,5.49,12.38,3.62c5.1-2.78,3.96-14.69-2.53-26.61
					c-1.64-3.01-3.47-5.74-5.37-8.08C203.03,281.15,193.29,274.92,183.16,272.94z"/>
				<path class="st0" d="M68.25,303.63l4.53,8.32c0.77-0.47,1.56-0.92,2.38-1.37c0.51-0.28,1.22-0.65,1.86-0.99
					c0.31-0.16,0.66-0.35,0.95-0.5l0-0.03l0.69-0.35c12.04-6.17,26.05-7.09,37.61-2.49l1.48-0.81l-11.9-21.85
					c4.58-10.99,4.14-24.68-2.21-37.08c-0.02,0.03-0.05,0.06-0.07,0.1c-0.54-1.18-1.14-2.38-1.79-3.57
					c-6.49-11.92-15.89-19.33-20.98-16.55c-3.15,1.72-5.52,4.01-4.1,10.56c-4.74-4.74-7.95-4-11.1-2.28
					c-3.32,1.81-5.59,4.57-3.86,11.61c-4.98-5.27-8.53-4.86-11.85-3.05c-3.31,1.8-5.58,4.52-3.89,11.51
					c-5.14-5.66-8.94-5.49-12.38-3.62c-5.1,2.78-3.96,14.69,2.53,26.61c1.64,3.01,3.47,5.74,5.37,8.08
					C48.38,295.42,58.12,301.64,68.25,303.63z"/>
				<path class="st0" d="M147.24,333.35c-0.28-0.51-0.65-1.22-0.99-1.87c-0.16-0.31-0.34-0.65-0.49-0.94l-0.03,0l-0.36-0.69
					c-5.78-11.29-6.95-24.3-3.29-35.41l-25.4,13.84c-10.99-4.58-24.68-4.14-37.08,2.21c0.03,0.02-2.28,1.21-3.47,1.86
					c-11.92,6.49-19.33,15.89-16.55,20.98c1.72,3.15,4.01,5.52,10.56,4.1c-4.74,4.74-4,7.95-2.28,11.1
					c1.81,3.32,4.57,5.59,11.61,3.86c-5.27,4.98-4.86,8.53-3.05,11.85c1.8,3.31,4.52,5.58,11.51,3.89
					c-5.66,5.14-5.49,8.94-3.62,12.38c2.78,5.1,14.69,3.96,26.61-2.53c3.01-1.64,5.74-3.47,8.08-5.37
					c9.54-6.87,15.77-16.61,17.75-26.74l13.62-7.42C149.27,336.86,148.22,335.16,147.24,333.35z"/>
			</g>
			<g class="st320">
				<path class="st0" d="M69.23,14.11c-1.47-1.25-3.19-1.85-6.23,0.26c1.77-3.51,0.99-5.3-0.54-6.6c-2.27-1.93-7.77,0.8-12.29,6.11
					c-1.14,1.34-2.11,2.72-2.89,4.06c-3.31,5.05-4.5,10.87-3.59,16.09l-4.85,5.69c0.42,0.32,0.84,0.66,1.26,1.01
					c0.25,0.21,0.49,0.43,0.73,0.65l0,0l0.81,0.69c5.17,4.64,8.19,11.18,8.12,17.57l0.5,0.43l9.97-11.71
					c6.11,0.17,12.6-2.56,17.37-7.88c-0.02-0.01-0.04-0.01-0.06-0.02c0.47-0.48,0.93-0.98,1.38-1.51
					c4.52-5.31,6.34-11.17,4.07-13.11c-1.4-1.2-2.94-1.91-5.82-0.02c1.4-3.15,0.46-4.55-0.95-5.74c-1.48-1.26-3.22-1.84-6.28,0.29
					C71.56,16.99,70.71,15.37,69.23,14.11z"/>
				<path class="st0" d="M83.7,40.66l-2.62-2.23c-0.35,0.47-0.72,0.93-1.12,1.4c-0.21,0.24-0.42,0.49-0.64,0.73l0,0l-0.7,0.81
					c-4.64,5.17-11.18,8.19-17.57,8.12l-0.31,0.37l8.62,7.34c-0.17,6.11,2.56,12.6,7.88,17.37c0.01-0.02,1,0.87,1.53,1.32
					c5.31,4.52,11.17,6.34,13.11,4.07c1.2-1.4,1.91-2.94,0.02-5.82c3.15,1.4,4.55,0.46,5.74-0.95c1.26-1.48,1.84-3.22-0.29-6.28
					c3.36,1.61,4.99,0.76,6.24-0.72c1.25-1.47,1.85-3.19-0.26-6.23c3.51,1.77,5.3,0.99,6.6-0.54c1.93-2.27-0.8-7.77-6.11-12.29
					c-1.34-1.14-2.72-2.11-4.06-2.89C94.74,40.94,88.92,39.75,83.7,40.66z"/>
				<path class="st0" d="M34.26,76.52l3.71,3.16c0.28-0.37,0.58-0.73,0.89-1.09c0.19-0.23,0.46-0.54,0.71-0.82
					c0.12-0.14,0.25-0.29,0.36-0.41l-0.01-0.02l0.26-0.3c4.64-5.17,11.18-8.19,17.57-8.12l0.56-0.66l-9.73-8.28
					c0.17-6.11-2.56-12.6-7.88-17.37c-0.01,0.02-0.01,0.04-0.02,0.06c-0.48-0.47-0.98-0.93-1.51-1.38
					c-5.31-4.52-11.17-6.34-13.11-4.07c-1.2,1.4-1.91,2.94-0.02,5.82c-3.15-1.4-4.55-0.46-5.74,0.95c-1.26,1.48-1.84,3.22,0.29,6.28
					c-3.36-1.61-4.99-0.76-6.24,0.72c-1.25,1.47-1.85,3.19,0.26,6.23c-3.51-1.77-5.3-0.99-6.6,0.54c-1.93,2.27,0.8,7.77,6.11,12.29
					c1.34,1.14,2.72,2.11,4.06,2.89C23.22,76.24,29.04,77.43,34.26,76.52z"/>
				<path class="st0" d="M77.6,76.23c-0.23-0.19-0.54-0.47-0.82-0.71c-0.13-0.12-0.28-0.25-0.41-0.36l-0.02,0.01l-0.3-0.27
					c-4.85-4.35-7.81-10.37-8.09-16.37l-9.63,11.31c-6.11-0.17-12.6,2.56-17.37,7.88c0.02,0.01-0.87,1-1.32,1.53
					c-4.52,5.31-6.34,11.17-4.07,13.11c1.4,1.2,2.94,1.91,5.82,0.02c-1.4,3.15-0.46,4.55,0.95,5.74c1.48,1.26,3.22,1.84,6.28-0.29
					c-1.61,3.36-0.76,4.99,0.72,6.24c1.47,1.25,3.19,1.85,6.23-0.26c-1.77,3.51-0.99,5.3,0.54,6.6c2.27,1.93,7.77-0.8,12.29-6.11
					c1.14-1.34,2.11-2.72,2.89-4.06c3.31-5.05,4.5-10.87,3.59-16.09l5.17-6.07C79.22,77.54,78.4,76.92,77.6,76.23z"/>
			</g>
			<g class="st320">
				<path class="st17" d="M170.33,529.82c-0.95-1.75-2.39-2.96-6.1-2.06c3-2.72,2.91-4.74,1.92-6.56c-1.47-2.7-7.78-2.1-14.1,1.34
					c-1.6,0.87-3.04,1.84-4.28,2.84c-5.05,3.64-8.35,8.8-9.4,14.16l-6.77,3.69c0.29,0.47,0.57,0.95,0.84,1.44
					c0.16,0.29,0.32,0.59,0.47,0.89l0,0l0.53,0.96c3.27,6.38,3.75,13.8,1.32,19.92l0.32,0.59l13.93-7.59
					c5.82,2.43,13.08,2.19,19.64-1.17c-0.02-0.01-0.03-0.03-0.05-0.04c0.63-0.29,1.26-0.6,1.89-0.95
					c6.31-3.44,10.24-8.42,8.77-11.12c-0.91-1.67-2.12-2.92-5.6-2.17c2.51-2.51,2.12-4.21,1.21-5.88c-0.96-1.76-2.42-2.96-6.15-2.05
					C171.51,533.46,171.29,531.58,170.33,529.82z"/>
				<path class="st17" d="M174.45,560.74l-1.7-3.11c-0.51,0.32-1.04,0.63-1.59,0.93c-0.29,0.16-0.59,0.31-0.89,0.46l0,0l-0.97,0.53
					c-6.38,3.27-13.8,3.75-19.92,1.32l-0.44,0.24l5.59,10.26c-2.43,5.82-2.19,13.08,1.17,19.64c0.01-0.02,0.64,1.21,0.99,1.84
					c3.44,6.31,8.42,10.24,11.12,8.77c1.67-0.91,2.92-2.12,2.17-5.6c2.51,2.51,4.21,2.12,5.88,1.21c1.76-0.96,2.96-2.42,2.05-6.15
					c2.64,2.79,4.52,2.58,6.28,1.62c1.75-0.95,2.96-2.39,2.06-6.1c2.72,3,4.74,2.91,6.56,1.92c2.7-1.47,2.1-7.78-1.34-14.1
					c-0.87-1.6-1.84-3.04-2.84-4.28C184.98,565.09,179.82,561.79,174.45,560.74z"/>
				<path class="st17" d="M113.57,577l2.4,4.41c0.41-0.25,0.83-0.49,1.26-0.72c0.27-0.15,0.64-0.34,0.99-0.52
					c0.17-0.09,0.35-0.18,0.5-0.27l0-0.02l0.36-0.19c6.38-3.27,13.8-3.75,19.92-1.32l0.78-0.43l-6.31-11.57
					c2.43-5.82,2.19-13.08-1.17-19.64c-0.01,0.02-0.03,0.03-0.04,0.05c-0.29-0.63-0.6-1.26-0.95-1.89
					c-3.44-6.31-8.42-10.24-11.12-8.77c-1.67,0.91-2.92,2.12-2.17,5.6c-2.51-2.51-4.21-2.12-5.88-1.21
					c-1.76,0.96-2.96,2.42-2.05,6.15c-2.64-2.79-4.52-2.58-6.28-1.62c-1.75,0.95-2.96,2.39-2.06,6.1c-2.72-3-4.74-2.91-6.56-1.92
					c-2.7,1.47-2.1,7.78,1.34,14.1c0.87,1.6,1.84,3.04,2.84,4.28C103.05,572.65,108.21,575.95,113.57,577z"/>
				<path class="st17" d="M155.42,592.74c-0.15-0.27-0.35-0.65-0.53-0.99c-0.09-0.16-0.18-0.35-0.26-0.5l-0.02,0l-0.19-0.37
					c-3.06-5.98-3.68-12.87-1.74-18.76l-13.46,7.33c-5.82-2.43-13.08-2.19-19.64,1.17c0.02,0.01-1.21,0.64-1.84,0.99
					c-6.31,3.44-10.24,8.42-8.77,11.12c0.91,1.67,2.12,2.92,5.6,2.17c-2.51,2.51-2.12,4.21-1.21,5.88c0.96,1.76,2.42,2.96,6.15,2.05
					c-2.79,2.64-2.58,4.52-1.62,6.28c0.95,1.75,2.39,2.96,6.1,2.06c-3,2.72-2.91,4.74-1.92,6.56c1.47,2.7,7.78,2.1,14.1-1.34
					c1.6-0.87,3.04-1.84,4.28-2.84c5.05-3.64,8.35-8.8,9.4-14.16l7.22-3.93C156.5,594.61,155.94,593.7,155.42,592.74z"/>
			</g>
			<g class="st319">
				<path class="st17" d="M258.97,345.55c-1.22-2.24-3.07-3.79-7.81-2.64c3.84-3.49,3.73-6.07,2.46-8.4
					c-1.88-3.46-9.97-2.69-18.06,1.72c-2.05,1.11-3.9,2.36-5.49,3.64c-6.48,4.66-10.7,11.28-12.05,18.15l-8.68,4.73
					c0.37,0.6,0.73,1.21,1.07,1.85c0.2,0.38,0.4,0.76,0.6,1.15l0,0l0.67,1.23c4.19,8.17,4.81,17.68,1.69,25.53l0.42,0.76l17.85-9.72
					c7.46,3.11,16.76,2.81,25.17-1.5c-0.02-0.02-0.04-0.03-0.07-0.05c0.8-0.37,1.61-0.77,2.42-1.21
					c8.09-4.41,13.12-10.79,11.24-14.24c-1.17-2.14-2.72-3.74-7.17-2.78c3.22-3.22,2.72-5.39,1.55-7.54
					c-1.23-2.25-3.1-3.8-7.88-2.62C260.48,350.22,260.2,347.81,258.97,345.55z"/>
				<path class="st17" d="M264.25,385.17l-2.17-3.99c-0.66,0.41-1.34,0.81-2.04,1.19c-0.37,0.2-0.75,0.4-1.14,0.6l0,0l-1.24,0.67
					c-8.17,4.19-17.68,4.81-25.53,1.69l-0.56,0.31l7.16,13.15c-3.11,7.46-2.81,16.76,1.5,25.17c0.02-0.02,0.82,1.55,1.26,2.36
					c4.41,8.09,10.79,13.12,14.24,11.24c2.14-1.17,3.74-2.72,2.78-7.17c3.22,3.22,5.39,2.72,7.54,1.55c2.25-1.23,3.8-3.1,2.62-7.88
					c3.38,3.58,5.79,3.3,8.05,2.07c2.24-1.22,3.79-3.07,2.64-7.81c3.49,3.84,6.07,3.73,8.4,2.46c3.46-1.88,2.69-9.97-1.72-18.06
					c-1.11-2.05-2.36-3.9-3.64-5.49C277.74,390.74,271.12,386.52,264.25,385.17z"/>
				<path class="st17" d="M186.24,406.01l3.08,5.65c0.52-0.32,1.06-0.63,1.61-0.93c0.34-0.19,0.83-0.44,1.27-0.67
					c0.21-0.11,0.45-0.24,0.64-0.34l0-0.02l0.47-0.24c8.17-4.19,17.68-4.81,25.53-1.69l1-0.55l-8.08-14.83
					c3.11-7.46,2.81-16.76-1.5-25.17c-0.02,0.02-0.03,0.04-0.05,0.07c-0.37-0.8-0.77-1.61-1.21-2.42
					c-4.41-8.09-10.79-13.12-14.24-11.24c-2.14,1.17-3.74,2.72-2.78,7.17c-3.22-3.22-5.39-2.72-7.54-1.55
					c-2.25,1.23-3.8,3.1-2.62,7.88c-3.38-3.58-5.79-3.3-8.05-2.07c-2.24,1.22-3.79,3.06-2.64,7.81c-3.49-3.84-6.07-3.73-8.4-2.46
					c-3.46,1.88-2.69,9.97,1.72,18.06c1.11,2.05,2.36,3.9,3.64,5.49C172.76,400.43,179.37,404.66,186.24,406.01z"/>
				<path class="st17" d="M239.86,426.18c-0.19-0.35-0.44-0.83-0.67-1.27c-0.11-0.21-0.23-0.44-0.34-0.63l-0.02,0l-0.24-0.47
					c-3.93-7.66-4.72-16.5-2.23-24.04l-17.24,9.39c-7.46-3.11-16.76-2.81-25.17,1.5c0.02,0.02-1.55,0.82-2.36,1.26
					c-8.09,4.41-13.12,10.79-11.24,14.24c1.17,2.14,2.72,3.74,7.17,2.78c-3.22,3.22-2.72,5.39-1.55,7.54
					c1.23,2.25,3.1,3.8,7.88,2.62c-3.58,3.38-3.3,5.79-2.07,8.05c1.22,2.24,3.07,3.79,7.81,2.64c-3.84,3.49-3.73,6.07-2.46,8.4
					c1.88,3.46,9.97,2.69,18.06-1.72c2.05-1.11,3.9-2.36,5.49-3.64c6.48-4.66,10.7-11.28,12.05-18.15l9.25-5.04
					C241.25,428.56,240.53,427.41,239.86,426.18z"/>
			</g>
			<g class="st318">
				<path class="st0" d="M47.19,477.62c-1.44-2.64-3.6-4.46-9.19-3.1c4.52-4.1,4.39-7.13,2.89-9.88
					c-2.22-4.07-11.72-3.16-21.24,2.02c-2.41,1.31-4.58,2.77-6.45,4.28c-7.62,5.48-12.58,13.26-14.17,21.34l-10.2,5.56
					c0.43,0.7,0.85,1.42,1.26,2.17c0.24,0.44,0.48,0.89,0.7,1.35l0,0l0.79,1.45c4.92,9.61,5.66,20.79,1.99,30.02l0.49,0.9
					l20.98-11.43c8.77,3.66,19.7,3.31,29.6-1.76c-0.03-0.02-0.05-0.04-0.08-0.06c0.94-0.43,1.9-0.91,2.85-1.42
					c9.51-5.18,15.43-12.68,13.21-16.75c-1.37-2.52-3.2-4.4-8.43-3.27c3.79-3.78,3.19-6.34,1.82-8.86
					c-1.44-2.65-3.65-4.46-9.27-3.08C48.96,483.1,48.64,480.27,47.19,477.62z"/>
				<path class="st0" d="M53.4,524.21l-2.56-4.69c-0.77,0.48-1.57,0.95-2.4,1.4c-0.44,0.24-0.89,0.47-1.34,0.7l0,0l-1.46,0.79
					c-9.61,4.92-20.79,5.66-30.02,1.99l-0.66,0.36l8.42,15.46c-3.66,8.77-3.31,19.7,1.76,29.6c0.02-0.03,0.97,1.82,1.48,2.77
					c5.18,9.51,12.68,15.43,16.75,13.21c2.52-1.37,4.4-3.2,3.27-8.43c3.78,3.79,6.34,3.19,8.86,1.82c2.65-1.44,4.46-3.65,3.08-9.27
					c3.98,4.21,6.81,3.88,9.46,2.44c2.64-1.44,4.46-3.6,3.1-9.19c4.1,4.52,7.13,4.39,9.88,2.89c4.07-2.22,3.16-11.72-2.02-21.24
					c-1.31-2.41-2.77-4.58-4.28-6.45C69.26,530.76,61.48,525.79,53.4,524.21z"/>
				<path class="st0" d="M-38.33,548.71l3.62,6.64c0.61-0.37,1.25-0.74,1.9-1.09c0.41-0.22,0.97-0.52,1.49-0.79
					c0.25-0.13,0.53-0.28,0.76-0.4l0-0.03l0.55-0.28c9.61-4.92,20.79-5.66,30.02-1.99l1.18-0.64l-9.5-17.44
					c3.66-8.77,3.31-19.7-1.76-29.6c-0.02,0.03-0.04,0.05-0.06,0.08c-0.43-0.94-0.91-1.9-1.43-2.85
					c-5.18-9.51-12.68-15.43-16.75-13.21c-2.52,1.37-4.4,3.2-3.27,8.43c-3.78-3.79-6.34-3.19-8.86-1.82
					c-2.65,1.44-4.46,3.65-3.08,9.27c-3.98-4.21-6.81-3.88-9.46-2.44c-2.64,1.44-4.46,3.6-3.1,9.19c-4.1-4.52-7.13-4.39-9.88-2.89
					c-4.07,2.22-3.16,11.72,2.02,21.24c1.31,2.41,2.77,4.58,4.28,6.45C-54.19,542.15-46.41,547.12-38.33,548.71z"/>
				<path class="st0" d="M24.72,572.43c-0.22-0.41-0.52-0.98-0.79-1.49c-0.13-0.24-0.27-0.52-0.39-0.75l-0.03,0l-0.28-0.55
					c-4.62-9.01-5.55-19.4-2.63-28.27L0.33,552.41c-8.77-3.66-19.7-3.31-29.6,1.76c0.03,0.02-1.82,0.97-2.77,1.48
					c-9.51,5.18-15.43,12.68-13.21,16.75c1.37,2.52,3.2,4.4,8.43,3.27c-3.79,3.78-3.19,6.34-1.82,8.86
					c1.44,2.65,3.65,4.46,9.27,3.08c-4.21,3.98-3.88,6.81-2.44,9.46c1.44,2.64,3.6,4.46,9.19,3.1c-4.52,4.1-4.39,7.13-2.89,9.88
					c2.22,4.07,11.72,3.16,21.24-2.02c2.41-1.31,4.58-2.77,6.45-4.28c7.62-5.48,12.58-13.26,14.17-21.34l10.88-5.93
					C26.35,575.23,25.51,573.87,24.72,572.43z"/>
			</g>
			<g class="st319">
				<path class="st0" d="M236.65,475.77c-0.74-1.36-1.86-2.3-4.73-1.6c2.33-2.11,2.26-3.68,1.49-5.09
					c-1.14-2.1-6.04-1.63-10.94,1.04c-1.24,0.68-2.36,1.43-3.32,2.21c-3.92,2.82-6.48,6.83-7.3,11l-5.26,2.86
					c0.22,0.36,0.44,0.73,0.65,1.12c0.12,0.23,0.25,0.46,0.36,0.69l0,0l0.41,0.75c2.54,4.95,2.91,10.71,1.03,15.47l0.25,0.46
					l10.81-5.89c4.52,1.88,10.15,1.7,15.25-0.91c-0.01-0.01-0.03-0.02-0.04-0.03c0.49-0.22,0.98-0.47,1.47-0.73
					c4.9-2.67,7.95-6.53,6.81-8.63c-0.71-1.3-1.65-2.27-4.35-1.69c1.95-1.95,1.64-3.27,0.94-4.57c-0.74-1.37-1.88-2.3-4.78-1.59
					C237.56,478.6,237.39,477.14,236.65,475.77z"/>
				<path class="st0" d="M239.85,499.77l-1.32-2.42c-0.4,0.25-0.81,0.49-1.24,0.72c-0.23,0.12-0.46,0.24-0.69,0.36l0,0l-0.75,0.41
					c-4.95,2.54-10.71,2.91-15.47,1.03l-0.34,0.19l4.34,7.97c-1.88,4.52-1.7,10.15,0.91,15.25c0.01-0.01,0.5,0.94,0.76,1.43
					c2.67,4.9,6.53,7.95,8.63,6.81c1.3-0.71,2.27-1.65,1.69-4.35c1.95,1.95,3.27,1.64,4.57,0.94c1.37-0.74,2.3-1.88,1.59-4.78
					c2.05,2.17,3.51,2,4.87,1.26c1.36-0.74,2.3-1.86,1.6-4.73c2.11,2.33,3.68,2.26,5.09,1.49c2.1-1.14,1.63-6.04-1.04-10.94
					c-0.68-1.24-1.43-2.36-2.21-3.32C248.02,503.15,244.01,500.59,239.85,499.77z"/>
				<path class="st0" d="M192.59,512.4l1.86,3.42c0.32-0.19,0.64-0.38,0.98-0.56c0.21-0.11,0.5-0.27,0.77-0.41
					c0.13-0.07,0.27-0.14,0.39-0.21l0-0.01l0.28-0.15c4.95-2.54,10.71-2.91,15.47-1.03l0.61-0.33l-4.9-8.99
					c1.88-4.52,1.7-10.15-0.91-15.25c-0.01,0.01-0.02,0.03-0.03,0.04c-0.22-0.49-0.47-0.98-0.73-1.47c-2.67-4.9-6.53-7.95-8.63-6.81
					c-1.3,0.71-2.27,1.65-1.69,4.35c-1.95-1.95-3.27-1.64-4.57-0.94c-1.37,0.74-2.3,1.88-1.59,4.78c-2.05-2.17-3.51-2-4.87-1.26
					c-1.36,0.74-2.3,1.86-1.6,4.73c-2.11-2.33-3.68-2.26-5.09-1.49c-2.1,1.14-1.63,6.04,1.04,10.94c0.68,1.24,1.43,2.36,2.21,3.32
					C184.42,509.02,188.42,511.58,192.59,512.4z"/>
				<path class="st0" d="M225.07,524.62c-0.11-0.21-0.27-0.5-0.41-0.77c-0.07-0.13-0.14-0.27-0.2-0.38l-0.01,0l-0.15-0.28
					c-2.38-4.64-2.86-10-1.35-14.56l-10.45,5.69c-4.52-1.88-10.15-1.7-15.25,0.91c0.01,0.01-0.94,0.5-1.43,0.76
					c-4.9,2.67-7.95,6.53-6.81,8.63c0.71,1.3,1.65,2.27,4.35,1.69c-1.95,1.95-1.64,3.27-0.94,4.57c0.74,1.37,1.88,2.3,4.78,1.59
					c-2.17,2.05-2,3.51-1.26,4.87c0.74,1.36,1.86,2.3,4.73,1.6c-2.33,2.11-2.26,3.68-1.49,5.09c1.14,2.1,6.04,1.63,10.94-1.04
					c1.24-0.68,2.36-1.43,3.32-2.21c3.92-2.82,6.48-6.83,7.3-11l5.6-3.05C225.91,526.06,225.48,525.36,225.07,524.62z"/>
			</g>
			<g class="st319">
				<path class="st0" d="M248.68,568.1c-2.08-1.6-4.46-2.29-8.44,0.76c2.16-4.88,0.99-7.25-1.17-8.92
					c-3.21-2.47-10.49,1.61-16.27,9.11c-1.46,1.9-2.69,3.83-3.65,5.7c-4.16,7.07-5.39,15.05-3.8,22.07l-6.2,8.05
					c0.59,0.41,1.19,0.84,1.78,1.29c0.35,0.27,0.7,0.54,1.04,0.83l0,0l1.14,0.88c7.33,5.95,11.86,14.63,12.18,23.31l0.71,0.54
					l12.75-16.55c8.31-0.17,16.93-4.31,23.05-11.85c-0.03-0.01-0.06-0.01-0.08-0.02c0.6-0.68,1.2-1.39,1.78-2.14
					c5.78-7.5,7.87-15.59,4.66-18.06c-1.99-1.53-4.11-2.39-7.9,0.36c1.69-4.36,0.32-6.2-1.67-7.73c-2.09-1.61-4.49-2.28-8.5,0.81
					C252.04,571.86,250.78,569.71,248.68,568.1z"/>
				<path class="st0" d="M270.09,603.17l-3.7-2.85c-0.45,0.66-0.92,1.31-1.42,1.97c-0.27,0.35-0.54,0.69-0.82,1.03l0,0l-0.89,1.15
					c-5.95,7.33-14.63,11.86-23.31,12.18l-0.4,0.52l12.19,9.39c0.17,8.31,4.31,16.93,11.85,23.05c0.01-0.03,1.41,1.11,2.17,1.69
					c7.5,5.78,15.59,7.87,18.06,4.66c1.53-1.99,2.39-4.11-0.36-7.9c4.36,1.69,6.2,0.32,7.73-1.67c1.61-2.09,2.28-4.49-0.81-8.5
					c4.67,1.96,6.82,0.7,8.43-1.39c1.6-2.08,2.29-4.46-0.76-8.44c4.88,2.16,7.25,0.99,8.92-1.17c2.47-3.21-1.61-10.49-9.11-16.27
					c-1.9-1.46-3.83-2.69-5.7-3.65C285.09,602.82,277.11,601.59,270.09,603.17z"/>
				<path class="st0" d="M205.36,655.13l5.24,4.04c0.36-0.52,0.74-1.03,1.13-1.54c0.25-0.32,0.59-0.76,0.91-1.16
					c0.15-0.19,0.32-0.41,0.46-0.59l-0.01-0.02l0.34-0.42c5.95-7.33,14.63-11.86,23.31-12.18l0.72-0.93l-13.75-10.6
					c-0.17-8.31-4.31-16.93-11.85-23.05c-0.01,0.03-0.01,0.06-0.02,0.08c-0.68-0.6-1.39-1.2-2.15-1.78
					c-7.5-5.78-15.59-7.87-18.06-4.66c-1.53,1.99-2.39,4.11,0.36,7.9c-4.36-1.69-6.2-0.32-7.73,1.67c-1.61,2.09-2.28,4.49,0.81,8.5
					c-4.67-1.96-6.82-0.7-8.43,1.39c-1.6,2.08-2.29,4.46,0.76,8.44c-4.88-2.16-7.25-0.99-8.92,1.17
					c-2.47,3.21,1.61,10.49,9.11,16.27c1.9,1.46,3.83,2.69,5.7,3.65C190.37,655.49,198.34,656.72,205.36,655.13z"/>
				<path class="st0" d="M264.17,651.86c-0.32-0.25-0.76-0.6-1.16-0.92c-0.19-0.15-0.4-0.32-0.58-0.46l-0.02,0.01l-0.42-0.34
					c-6.87-5.58-11.28-13.56-12.07-21.68l-12.32,15.99c-8.31,0.17-16.93,4.31-23.05,11.85c0.03,0.01-1.11,1.41-1.69,2.17
					c-5.78,7.5-7.87,15.59-4.66,18.06c1.99,1.53,4.11,2.39,7.9-0.36c-1.69,4.36-0.32,6.2,1.67,7.73c2.09,1.61,4.49,2.28,8.5-0.81
					c-1.96,4.67-0.7,6.82,1.39,8.43c2.08,1.6,4.46,2.29,8.44-0.76c-2.16,4.88-0.99,7.25,1.17,8.92c3.21,2.47,10.49-1.61,16.27-9.11
					c1.46-1.9,2.69-3.83,3.65-5.7c4.16-7.07,5.39-15.05,3.8-22.07l6.61-8.58C266.46,653.53,265.31,652.74,264.17,651.86z"/>
			</g>
		</g>
		<g style="clip-path:url(#SVGID_1_);">
			<g class="st318">
				<path class="st17" d="M1869.32,441.43c-3.47-0.76-6.26-2.62-6.57-9.41c-3.17,6.49-6.65,7.34-10.27,6.55
					c-5.35-1.17-7.47-12.27-4.74-24.79c0.69-3.17,1.63-6.12,2.73-8.75c3.71-10.47,10.9-18.69,19.55-23.16l2.94-13.43
					c0.94,0.26,1.9,0.5,2.89,0.71c0.58,0.13,1.17,0.25,1.76,0.35l0,0l1.91,0.42c12.55,2.41,25.49-0.46,34.76-7.68l1.18,0.26
					l-6.04,27.62c7.06,8.75,10.28,21.29,7.8,34.21c-0.03-0.02-0.06-0.05-0.09-0.07c-0.18,1.22-0.4,2.45-0.68,3.71
					c-2.74,12.52-9.3,21.73-14.65,20.55c-3.31-0.72-6.06-2.18-6.51-8.5c-3.05,5.55-6.15,5.73-9.46,5c-3.49-0.76-6.28-2.67-6.57-9.51
					C1876.13,441.62,1872.81,442.19,1869.32,441.43z"/>
				<path class="st17" d="M1924.29,433.05l-6.17-1.35c0.29-1.04,0.56-2.1,0.8-3.19c0.13-0.58,0.24-1.16,0.35-1.75l0,0l0.42-1.92
					c2.41-12.55-0.46-25.49-7.68-34.76l0.19-0.87l20.35,4.45c8.75-7.06,21.29-10.28,34.21-7.8c-0.02,0.03,2.39,0.49,3.64,0.77
					c12.52,2.74,21.73,9.3,20.55,14.65c-0.72,3.31-2.18,6.06-8.5,6.51c5.55,3.05,5.73,6.15,5,9.46c-0.76,3.49-2.67,6.28-9.51,6.57
					c6.1,3.12,6.66,6.45,5.9,9.94c-0.76,3.47-2.62,6.26-9.41,6.57c6.49,3.17,7.34,6.65,6.55,10.27c-1.17,5.35-12.27,7.47-24.79,4.74
					c-3.17-0.69-6.12-1.63-8.75-2.73C1936.99,448.9,1928.77,441.71,1924.29,433.05z"/>
				<path class="st17" d="M1921.75,320.74l8.74,1.91c-0.22,0.82-0.42,1.66-0.61,2.52c-0.12,0.53-0.27,1.27-0.41,1.95
					c-0.07,0.33-0.14,0.69-0.2,0.99l-0.03,0.01l-0.14,0.72c-2.41,12.55,0.46,25.49,7.68,34.76l-0.34,1.55l-22.96-5.02
					c-8.75,7.06-21.29,10.28-34.21,7.8c0.02-0.03,0.05-0.06,0.07-0.09c-1.22-0.18-2.45-0.4-3.71-0.68
					c-12.52-2.74-21.73-9.3-20.55-14.65c0.72-3.31,2.18-6.06,8.5-6.51c-5.55-3.05-5.73-6.15-5-9.46c0.76-3.49,2.67-6.28,9.51-6.57
					c-6.1-3.12-6.66-6.45-5.9-9.94c0.76-3.47,2.62-6.26,9.41-6.57c-6.49-3.17-7.34-6.65-6.55-10.27c1.17-5.35,12.27-7.47,24.79-4.74
					c3.17,0.69,6.12,1.63,8.75,2.73C1909.06,304.9,1917.28,312.09,1921.75,320.74z"/>
			</g>
			<g class="st319">
				<path class="st17" d="M1720.91,175.84c-2.68-0.59-4.83-2.02-5.07-7.27c-2.45,5.01-5.14,5.68-7.93,5.07
					c-4.14-0.9-5.78-9.48-3.66-19.16c0.54-2.45,1.26-4.73,2.11-6.76c2.86-8.09,8.42-14.44,15.11-17.9l2.27-10.38
					c0.73,0.2,1.47,0.39,2.23,0.55c0.45,0.1,0.9,0.19,1.36,0.27l0,0l1.47,0.32c9.7,1.86,19.7-0.35,26.86-5.93l0.91,0.2l-4.67,21.35
					c5.45,6.76,7.94,16.45,6.03,26.43c-0.02-0.02-0.05-0.04-0.07-0.05c-0.14,0.94-0.31,1.9-0.52,2.87
					c-2.12,9.68-7.19,16.79-11.32,15.88c-2.56-0.56-4.68-1.68-5.03-6.56c-2.35,4.29-4.75,4.43-7.31,3.87
					c-2.7-0.59-4.85-2.06-5.08-7.35C1726.18,175.99,1723.61,176.43,1720.91,175.84z"/>
				<path class="st17" d="M1763.39,169.37l-4.77-1.04c0.22-0.8,0.43-1.62,0.62-2.47c0.1-0.45,0.19-0.9,0.27-1.35l0,0l0.32-1.49
					c1.86-9.7-0.35-19.7-5.93-26.86l0.15-0.67l15.72,3.44c6.76-5.45,16.45-7.94,26.43-6.03c-0.02,0.02,1.84,0.38,2.81,0.59
					c9.68,2.12,16.79,7.19,15.88,11.32c-0.56,2.56-1.68,4.68-6.56,5.03c4.29,2.35,4.43,4.75,3.87,7.31
					c-0.59,2.7-2.06,4.85-7.35,5.08c4.71,2.41,5.15,4.98,4.56,7.68c-0.59,2.68-2.02,4.83-7.27,5.07c5.01,2.45,5.68,5.14,5.07,7.93
					c-0.9,4.14-9.48,5.78-19.16,3.66c-2.45-0.54-4.73-1.26-6.76-2.11C1773.2,181.62,1766.85,176.06,1763.39,169.37z"/>
				<path class="st17" d="M1761.43,82.58l6.76,1.48c-0.17,0.64-0.33,1.28-0.47,1.94c-0.09,0.41-0.21,0.98-0.31,1.51
					c-0.05,0.25-0.11,0.53-0.16,0.77l-0.02,0.01l-0.11,0.55c-1.86,9.7,0.35,19.7,5.93,26.86l-0.26,1.2l-17.74-3.88
					c-6.76,5.45-16.45,7.94-26.43,6.03c0.02-0.02,0.04-0.05,0.05-0.07c-0.94-0.14-1.9-0.31-2.87-0.52
					c-9.68-2.12-16.79-7.19-15.88-11.32c0.56-2.56,1.68-4.68,6.56-5.03c-4.29-2.35-4.43-4.75-3.87-7.31
					c0.59-2.7,2.06-4.85,7.35-5.08c-4.71-2.41-5.15-4.98-4.56-7.68c0.59-2.68,2.02-4.83,7.27-5.07c-5.01-2.45-5.68-5.14-5.07-7.93
					c0.9-4.14,9.48-5.78,19.16-3.66c2.45,0.54,4.73,1.26,6.76,2.11C1751.62,70.34,1757.97,75.9,1761.43,82.58z"/>
				<path class="st17" d="M1798.38,131.86c-0.41-0.09-0.99-0.21-1.51-0.31c-0.25-0.05-0.53-0.11-0.76-0.16l-0.01-0.02l-0.56-0.11
					c-9.09-1.75-18.45,0.09-25.48,4.93l4.51-20.62c-5.45-6.76-7.94-16.45-6.03-26.43c0.02,0.02,0.38-1.84,0.59-2.81
					c2.12-9.68,7.19-16.79,11.32-15.88c2.56,0.56,4.68,1.68,5.03,6.56c2.35-4.29,4.75-4.43,7.31-3.87c2.7,0.59,4.85,2.06,5.08,7.35
					c2.41-4.71,4.98-5.15,7.68-4.56c2.68,0.59,4.83,2.02,5.07,7.27c2.45-5.01,5.14-5.68,7.93-5.07c4.14,0.9,5.78,9.48,3.66,19.16
					c-0.54,2.45-1.26,4.73-2.11,6.76c-2.86,8.09-8.42,14.44-15.11,17.9l-2.42,11.06C1801.26,132.57,1799.86,132.18,1798.38,131.86z"
					/>
			</g>
			<g class="st320">
				<path class="st2" d="M1793.67,511.4c-2.09,0.98-4.25,1.12-7.09-2.25c0.93,4.59-0.52,6.4-2.69,7.42
					c-3.22,1.51-8.69-3.36-12.23-10.88c-0.89-1.9-1.58-3.79-2.05-5.58c-2.23-6.85-1.78-13.91,0.91-19.63l-3.79-8.06
					c0.59-0.24,1.17-0.49,1.77-0.77c0.35-0.16,0.7-0.34,1.05-0.51l0,0l1.15-0.54c7.4-3.72,12.92-10.3,14.84-17.67l0.71-0.33
					l7.8,16.59c7.08,1.71,13.69,6.89,17.52,14.51c-0.02,0-0.05,0-0.08,0c0.39,0.7,0.76,1.42,1.12,2.17
					c3.54,7.52,3.8,14.84,0.58,16.35c-1.99,0.94-3.98,1.27-6.7-1.8c0.63,4.06-0.9,5.37-2.89,6.31c-2.1,0.99-4.28,1.11-7.13-2.3
					C1797.25,508.81,1795.77,510.42,1793.67,511.4z"/>
				<path class="st2" d="M1818.63,485.39l-3.71,1.74c-0.26-0.65-0.54-1.3-0.85-1.96c-0.16-0.35-0.33-0.69-0.51-1.04l0,0l-0.54-1.15
					c-3.72-7.4-10.3-12.92-17.67-14.84l-0.25-0.52l12.22-5.75c1.71-7.08,6.89-13.69,14.51-17.52c0,0.02,1.42-0.69,2.17-1.04
					c7.52-3.54,14.84-3.8,16.35-0.58c0.94,1.99,1.27,3.98-1.8,6.7c4.06-0.63,5.37,0.9,6.31,2.89c0.99,2.1,1.11,4.28-2.3,7.13
					c4.37-0.8,5.97,0.69,6.96,2.78c0.98,2.09,1.12,4.25-2.25,7.09c4.59-0.93,6.4,0.52,7.42,2.69c1.51,3.22-3.36,8.69-10.88,12.23
					c-1.9,0.89-3.79,1.58-5.58,2.05C1831.41,488.52,1824.35,488.07,1818.63,485.39z"/>
				<path class="st2" d="M1772.98,428.65l5.25-2.47c0.21,0.51,0.44,1.02,0.68,1.54c0.15,0.32,0.37,0.76,0.56,1.16
					c0.09,0.19,0.2,0.41,0.29,0.59l-0.01,0.02l0.21,0.42c3.72,7.4,10.3,12.92,17.67,14.84l0.44,0.93l-13.79,6.48
					c-1.71,7.08-6.89,13.69-14.51,17.52c0-0.02,0-0.05,0-0.08c-0.7,0.39-1.42,0.76-2.17,1.12c-7.52,3.54-14.84,3.8-16.35,0.58
					c-0.94-1.99-1.27-3.98,1.8-6.7c-4.06,0.63-5.37-0.9-6.31-2.89c-0.99-2.1-1.11-4.28,2.3-7.13c-4.37,0.8-5.97-0.69-6.96-2.78
					c-0.98-2.09-1.12-4.25,2.25-7.09c-4.59,0.93-6.4-0.52-7.42-2.69c-1.51-3.22,3.36-8.69,10.88-12.23c1.9-0.89,3.79-1.58,5.58-2.05
					C1760.19,425.51,1767.26,425.97,1772.98,428.65z"/>
				<path class="st2" d="M1822.74,442.55c-0.32,0.15-0.77,0.37-1.17,0.57c-0.19,0.09-0.41,0.2-0.58,0.28l-0.02-0.01l-0.43,0.21
					c-6.94,3.48-12.23,9.49-14.44,16.3l-7.54-16.03c-7.08-1.71-13.69-6.89-17.52-14.51c0.02,0-0.69-1.42-1.04-2.17
					c-3.54-7.52-3.8-14.84-0.58-16.35c1.99-0.94,3.98-1.27,6.7,1.8c-0.63-4.06,0.9-5.37,2.89-6.31c2.1-0.99,4.28-1.11,7.13,2.3
					c-0.8-4.37,0.69-5.97,2.78-6.96c2.09-0.98,4.25-1.12,7.09,2.25c-0.93-4.59,0.52-6.4,2.69-7.42c3.21-1.51,8.69,3.36,12.23,10.88
					c0.89,1.9,1.58,3.79,2.05,5.58c2.23,6.85,1.78,13.91-0.91,19.63l4.04,8.6C1825.02,441.55,1823.89,442.01,1822.74,442.55z"/>
			</g>
			<g class="st318">
				<path class="st2" d="M1864.06,715.83c-1.88,1.83-4.16,2.79-8.47,0.22c2.71,4.59,1.82,7.09-0.14,8.99
					c-2.9,2.82-10.6-0.38-17.21-7.16c-1.67-1.71-3.11-3.49-4.28-5.24c-4.94-6.54-7.08-14.32-6.32-21.47l-7.08-7.27
					c0.54-0.47,1.08-0.97,1.61-1.49c0.31-0.31,0.63-0.62,0.94-0.94l0,0l1.03-1.01c6.59-6.75,10.09-15.9,9.41-24.55l0.64-0.62
					l14.57,14.96c8.26-0.79,17.3,2.32,24.25,9.11c-0.03,0.01-0.05,0.02-0.08,0.03c0.68,0.6,1.35,1.25,2.01,1.92
					c6.6,6.78,9.61,14.57,6.71,17.39c-1.79,1.75-3.81,2.85-7.88,0.56c2.18,4.14,1.03,6.12-0.77,7.87c-1.89,1.84-4.2,2.78-8.53,0.18
					C1866.95,711.71,1865.95,713.99,1864.06,715.83z"/>
				<path class="st2" d="M1881.26,678.54l-3.34,3.26c-0.52-0.6-1.07-1.2-1.64-1.79c-0.3-0.31-0.62-0.62-0.94-0.93l0,0l-1.02-1.04
					c-6.75-6.59-15.9-10.09-24.55-9.41l-0.46-0.47l11.02-10.73c-0.79-8.26,2.32-17.3,9.11-24.25c0.01,0.03,1.28-1.27,1.95-1.93
					c6.78-6.6,14.57-9.61,17.39-6.71c1.75,1.79,2.85,3.81,0.56,7.88c4.14-2.18,6.12-1.03,7.87,0.77c1.84,1.89,2.78,4.2,0.18,8.53
					c4.4-2.49,6.69-1.48,8.53,0.41c1.83,1.88,2.79,4.16,0.22,8.47c4.59-2.71,7.09-1.82,8.99,0.14c2.82,2.9-0.38,10.6-7.17,17.21
					c-1.71,1.67-3.49,3.11-5.24,4.28C1896.19,677.16,1888.41,679.3,1881.26,678.54z"/>
				<path class="st2" d="M1811,634.43l4.73-4.61c0.42,0.47,0.85,0.94,1.3,1.4c0.28,0.29,0.68,0.68,1.04,1.04
					c0.17,0.17,0.37,0.37,0.53,0.53l-0.01,0.02l0.39,0.38c6.75,6.59,15.9,10.08,24.55,9.41l0.82,0.84l-12.43,12.11
					c0.79,8.26-2.32,17.3-9.11,24.25c-0.01-0.03-0.02-0.05-0.03-0.08c-0.6,0.68-1.25,1.35-1.92,2.01
					c-6.78,6.6-14.57,9.61-17.39,6.71c-1.75-1.79-2.85-3.81-0.56-7.88c-4.14,2.18-6.12,1.03-7.87-0.77
					c-1.84-1.89-2.78-4.2-0.18-8.53c-4.4,2.49-6.69,1.48-8.53-0.41c-1.83-1.88-2.79-4.16-0.22-8.47c-4.59,2.71-7.09,1.82-8.99-0.14
					c-2.82-2.9,0.38-10.6,7.16-17.21c1.71-1.67,3.49-3.11,5.24-4.28C1796.07,635.81,1803.85,633.67,1811,634.43z"/>
				<path class="st2" d="M1869.76,630.89c-0.29,0.28-0.69,0.68-1.05,1.04c-0.17,0.17-0.36,0.36-0.52,0.52l-0.02-0.01l-0.38,0.39
					c-6.18,6.33-9.64,14.76-9.48,22.92l-14.08-14.45c-8.26,0.79-17.3-2.32-24.25-9.11c0.03-0.01-1.27-1.28-1.93-1.95
					c-6.6-6.78-9.61-14.57-6.71-17.39c1.79-1.75,3.81-2.85,7.88-0.56c-2.18-4.14-1.03-6.12,0.77-7.87c1.89-1.84,4.2-2.78,8.53-0.18
					c-2.49-4.4-1.48-6.69,0.41-8.53c1.88-1.83,4.16-2.79,8.47-0.22c-2.71-4.59-1.82-7.09,0.14-8.99c2.9-2.82,10.6,0.38,17.21,7.16
					c1.67,1.71,3.11,3.49,4.28,5.24c4.94,6.54,7.08,14.32,6.32,21.47l7.55,7.75C1871.84,628.97,1870.79,629.89,1869.76,630.89z"/>
			</g>
			<g class="st318">
				<path class="st2" d="M1914.8,226.81c-1.17,1.99-2.87,3.33-7.12,2.16c3.36,3.25,3.19,5.58,1.98,7.64
					c-1.8,3.07-9.07,2.14-16.23-2.06c-1.81-1.06-3.44-2.23-4.84-3.44c-5.71-4.39-9.33-10.47-10.35-16.7l-7.69-4.51
					c0.35-0.53,0.69-1.07,1.02-1.64c0.19-0.33,0.39-0.67,0.57-1.02l0,0l0.64-1.09c4.01-7.25,4.84-15.8,2.25-22.97l0.4-0.68
					l15.81,9.27c6.81-2.59,15.19-2.06,22.65,2.06c-0.02,0.01-0.04,0.03-0.06,0.04c0.71,0.35,1.43,0.74,2.15,1.16
					c7.17,4.2,11.52,10.1,9.73,13.16c-1.11,1.9-2.56,3.3-6.54,2.31c2.81,2.99,2.29,4.94,1.18,6.84c-1.17,2-2.9,3.33-7.18,2.14
					C1916.29,222.65,1915.97,224.81,1914.8,226.81z"/>
				<path class="st2" d="M1920.69,191.24l-2.07,3.53c-0.58-0.39-1.18-0.77-1.81-1.13c-0.33-0.19-0.67-0.38-1.01-0.57l0,0l-1.1-0.64
					c-7.25-4.01-15.8-4.84-22.97-2.25l-0.5-0.29l6.83-11.65c-2.59-6.81-2.06-15.19,2.06-22.65c0.01,0.02,0.78-1.37,1.2-2.09
					c4.2-7.17,10.1-11.52,13.16-9.73c1.9,1.11,3.3,2.56,2.31,6.54c2.99-2.81,4.94-2.29,6.84-1.18c2,1.17,3.33,2.9,2.14,7.18
					c3.15-3.13,5.31-2.81,7.31-1.64c1.99,1.17,3.33,2.87,2.16,7.12c3.26-3.36,5.58-3.19,7.64-1.98c3.06,1.8,2.14,9.07-2.06,16.23
					c-1.06,1.81-2.23,3.44-3.44,4.84C1933,186.6,1926.92,190.22,1920.69,191.24z"/>
				<path class="st2" d="M1850.95,170.25l2.93-5.01c0.46,0.3,0.94,0.6,1.43,0.88c0.31,0.18,0.73,0.42,1.12,0.64
					c0.19,0.11,0.4,0.23,0.57,0.32l0,0.02l0.41,0.23c7.25,4.01,15.8,4.84,22.97,2.25l0.89,0.52l-7.71,13.14
					c2.59,6.81,2.06,15.19-2.06,22.65c-0.01-0.02-0.03-0.04-0.04-0.06c-0.35,0.71-0.74,1.43-1.16,2.15
					c-4.2,7.17-10.1,11.52-13.16,9.73c-1.9-1.11-3.3-2.56-2.31-6.54c-2.99,2.81-4.94,2.29-6.84,1.18c-2-1.17-3.33-2.9-2.14-7.18
					c-3.15,3.13-5.31,2.81-7.31,1.64c-1.99-1.17-3.33-2.87-2.16-7.12c-3.25,3.36-5.58,3.19-7.64,1.98
					c-3.06-1.8-2.14-9.07,2.06-16.23c1.06-1.81,2.23-3.44,3.44-4.84C1838.63,174.89,1844.72,171.27,1850.95,170.25z"/>
				<path class="st2" d="M1899.86,153.58c-0.18,0.31-0.42,0.74-0.64,1.13c-0.1,0.18-0.22,0.39-0.32,0.56l-0.02,0l-0.23,0.42
					c-3.76,6.8-4.72,14.74-2.7,21.61l-15.28-8.96c-6.81,2.59-15.19,2.06-22.65-2.06c0.02-0.01-1.37-0.78-2.09-1.2
					c-7.17-4.2-11.52-10.1-9.73-13.16c1.11-1.9,2.56-3.3,6.54-2.31c-2.81-2.99-2.29-4.94-1.18-6.84c1.17-2,2.9-3.33,7.18-2.14
					c-3.13-3.15-2.81-5.31-1.64-7.31c1.17-1.99,2.87-3.33,7.12-2.16c-3.36-3.26-3.19-5.58-1.98-7.64c1.8-3.06,9.07-2.14,16.23,2.06
					c1.81,1.06,3.44,2.23,4.84,3.44c5.71,4.39,9.33,10.47,10.35,16.7l8.19,4.81C1901.18,151.47,1900.5,152.49,1899.86,153.58z"/>
			</g>
			<g class="st319">
				<path class="st2" d="M1694.35,276.7c-1.09,2.28-2.83,3.91-7.58,3.02c3.98,3.25,4.01,5.8,2.88,8.17
					c-1.68,3.52-9.71,3.19-17.95-0.74c-2.08-0.99-3.98-2.12-5.62-3.31c-6.65-4.27-11.18-10.58-12.88-17.3l-8.83-4.21
					c0.33-0.61,0.65-1.24,0.96-1.88c0.18-0.38,0.36-0.77,0.53-1.16l0,0l0.6-1.25c3.7-8.3,3.82-17.74,0.32-25.33l0.37-0.78
					l18.16,8.66c7.21-3.47,16.42-3.67,24.96,0.14c-0.02,0.02-0.04,0.04-0.06,0.05c0.81,0.32,1.64,0.68,2.46,1.07
					c8.23,3.93,13.54,9.96,11.86,13.48c-1.04,2.18-2.49,3.85-6.94,3.13c3.35,3.01,2.97,5.19,1.93,7.37
					c-1.09,2.29-2.87,3.92-7.65,3.01C1695.6,272,1695.45,274.4,1694.35,276.7z"/>
				<path class="st2" d="M1697.47,237.25l-1.94,4.06c-0.67-0.37-1.36-0.73-2.08-1.07c-0.38-0.18-0.77-0.36-1.16-0.53l0,0l-1.26-0.6
					c-8.3-3.7-17.73-3.82-25.33-0.32l-0.57-0.27l6.38-13.38c-3.47-7.21-3.67-16.42,0.14-24.96c0.02,0.02,0.73-1.57,1.12-2.4
					c3.93-8.23,9.96-13.54,13.48-11.87c2.18,1.04,3.85,2.49,3.13,6.94c3.01-3.35,5.19-2.97,7.37-1.93c2.29,1.09,3.92,2.87,3.01,7.65
					c3.15-3.72,5.55-3.57,7.84-2.48c2.28,1.09,3.91,2.83,3.02,7.58c3.25-3.98,5.8-4.01,8.17-2.88c3.52,1.68,3.19,9.71-0.74,17.95
					c-0.99,2.08-2.12,3.98-3.31,5.62C1710.51,231.02,1704.19,235.55,1697.47,237.25z"/>
				<path class="st2" d="M1619.24,220.8l2.74-5.75c0.53,0.29,1.08,0.56,1.64,0.83c0.35,0.17,0.84,0.39,1.29,0.6
					c0.22,0.1,0.46,0.21,0.65,0.3l0,0.02l0.47,0.21c8.3,3.7,17.73,3.82,25.33,0.32l1.02,0.49l-7.2,15.09
					c3.47,7.21,3.67,16.42-0.14,24.96c-0.02-0.02-0.04-0.04-0.05-0.06c-0.32,0.81-0.68,1.64-1.07,2.46
					c-3.93,8.23-9.96,13.54-13.48,11.86c-2.18-1.04-3.85-2.49-3.13-6.94c-3.01,3.35-5.19,2.97-7.37,1.93
					c-2.29-1.09-3.92-2.87-3.01-7.65c-3.15,3.72-5.55,3.57-7.84,2.48c-2.28-1.09-3.91-2.83-3.02-7.58c-3.25,3.98-5.8,4.01-8.17,2.88
					c-3.52-1.68-3.19-9.71,0.74-17.95c0.99-2.08,2.12-3.98,3.31-5.62C1606.21,227.03,1612.52,222.5,1619.24,220.8z"/>
				<path class="st2" d="M1671.18,198.01c-0.17,0.35-0.39,0.84-0.6,1.29c-0.1,0.21-0.21,0.45-0.3,0.65l-0.02,0l-0.21,0.48
					c-3.47,7.78-3.79,16.56-0.93,23.88l-17.54-8.37c-7.21,3.47-16.42,3.67-24.96-0.14c0.02-0.02-1.57-0.73-2.4-1.12
					c-8.23-3.93-13.54-9.96-11.86-13.48c1.04-2.18,2.49-3.85,6.94-3.13c-3.35-3.01-2.97-5.19-1.93-7.37
					c1.09-2.29,2.87-3.92,7.65-3.01c-3.72-3.15-3.57-5.55-2.48-7.84c1.09-2.28,2.83-3.91,7.58-3.02c-3.98-3.25-4.01-5.8-2.88-8.18
					c1.68-3.52,9.71-3.19,17.95,0.74c2.08,0.99,3.98,2.12,5.62,3.31c6.65,4.27,11.18,10.58,12.88,17.3l9.41,4.49
					C1672.42,195.57,1671.78,196.75,1671.18,198.01z"/>
			</g>
			<g class="st320">
				<path class="st0" d="M1740.4,214.57c1.8-3.31,4.52-5.58,11.51-3.89c-5.66-5.14-5.49-8.94-3.62-12.38
					c2.78-5.1,14.69-3.96,26.61,2.53c3.01,1.64,5.74,3.47,8.08,5.37c9.54,6.87,15.77,16.61,17.75,26.74l12.78,6.96
					c-0.54,0.88-1.07,1.78-1.58,2.72c-0.3,0.55-0.6,1.12-0.88,1.69l0,0l-0.99,1.82c-6.17,12.04-7.09,26.05-2.49,37.61l-0.61,1.12
					l-26.29-14.32c-10.99,4.58-24.68,4.14-37.08-2.21c0.03-0.02,0.06-0.05,0.1-0.07c-1.18-0.54-2.38-1.14-3.57-1.79
					c-11.92-6.49-19.33-15.89-16.55-20.98c1.72-3.15,4.01-5.52,10.56-4.1c-4.74-4.74-4-7.95-2.28-11.1
					c1.81-3.32,4.57-5.59,11.61-3.86C1738.18,221.44,1738.59,217.89,1740.4,214.57z"/>
				<path class="st0" d="M1732.63,272.94l3.2-5.88c0.97,0.6,1.97,1.19,3.01,1.76c0.55,0.3,1.11,0.59,1.68,0.88l-0.01,0l1.83,0.99
					c12.04,6.17,26.05,7.09,37.61,2.49l0.83,0.45l-10.55,19.37c4.58,10.99,4.14,24.68-2.21,37.08c-0.02-0.03-1.21,2.28-1.86,3.47
					c-6.49,11.92-15.89,19.33-20.98,16.55c-3.15-1.72-5.52-4.01-4.1-10.57c-4.74,4.74-7.95,4-11.1,2.28
					c-3.32-1.81-5.59-4.57-3.86-11.61c-4.98,5.27-8.53,4.86-11.85,3.05c-3.31-1.8-5.58-4.52-3.89-11.51
					c-5.14,5.66-8.94,5.49-12.38,3.62c-5.1-2.78-3.96-14.69,2.53-26.61c1.64-3.01,3.47-5.74,5.37-8.08
					C1712.76,281.15,1722.5,274.92,1732.63,272.94z"/>
				<path class="st0" d="M1847.54,303.63l-4.53,8.32c-0.77-0.47-1.56-0.92-2.38-1.37c-0.51-0.28-1.22-0.65-1.86-0.99
					c-0.31-0.16-0.66-0.35-0.95-0.5l0-0.03l-0.69-0.35c-12.04-6.17-26.05-7.09-37.61-2.49l-1.48-0.81l11.9-21.85
					c-4.58-10.99-4.14-24.68,2.21-37.08c0.02,0.03,0.05,0.06,0.07,0.1c0.54-1.18,1.14-2.38,1.79-3.57
					c6.49-11.92,15.89-19.33,20.98-16.55c3.15,1.72,5.52,4.01,4.1,10.56c4.74-4.74,7.95-4,11.1-2.28c3.32,1.81,5.59,4.57,3.86,11.61
					c4.98-5.27,8.53-4.86,11.85-3.05c3.31,1.8,5.58,4.52,3.89,11.51c5.14-5.66,8.94-5.49,12.38-3.62c5.1,2.78,3.96,14.69-2.53,26.61
					c-1.64,3.01-3.47,5.74-5.37,8.08C1867.41,295.42,1857.67,301.64,1847.54,303.63z"/>
				<path class="st0" d="M1768.55,333.35c0.28-0.51,0.65-1.22,0.99-1.87c0.16-0.31,0.34-0.65,0.49-0.94l0.03,0l0.36-0.69
					c5.78-11.29,6.95-24.3,3.29-35.41l25.4,13.84c10.99-4.58,24.68-4.14,37.08,2.21c-0.03,0.02,2.28,1.21,3.47,1.86
					c11.92,6.49,19.33,15.89,16.55,20.98c-1.72,3.15-4.01,5.52-10.56,4.1c4.74,4.74,4,7.95,2.28,11.1
					c-1.81,3.32-4.57,5.59-11.61,3.86c5.27,4.98,4.86,8.53,3.05,11.85c-1.8,3.31-4.52,5.58-11.51,3.89
					c5.66,5.14,5.49,8.94,3.62,12.38c-2.78,5.1-14.69,3.96-26.61-2.53c-3.01-1.64-5.74-3.47-8.08-5.37
					c-9.54-6.87-15.77-16.61-17.75-26.74l-13.62-7.42C1766.51,336.86,1767.56,335.16,1768.55,333.35z"/>
			</g>
			<g class="st320">
				<path class="st0" d="M1846.55,14.11c1.47-1.25,3.19-1.85,6.23,0.26c-1.77-3.51-0.99-5.3,0.54-6.6c2.27-1.93,7.77,0.8,12.29,6.11
					c1.14,1.34,2.11,2.72,2.89,4.06c3.31,5.05,4.5,10.87,3.59,16.09l4.85,5.69c-0.42,0.32-0.84,0.66-1.26,1.01
					c-0.25,0.21-0.49,0.43-0.73,0.65l0,0l-0.81,0.69c-5.17,4.64-8.19,11.18-8.12,17.57l-0.5,0.43l-9.97-11.71
					c-6.11,0.17-12.6-2.56-17.37-7.88c0.02-0.01,0.04-0.01,0.06-0.02c-0.47-0.48-0.93-0.98-1.38-1.51
					c-4.52-5.31-6.34-11.17-4.07-13.11c1.4-1.2,2.94-1.91,5.82-0.02c-1.4-3.15-0.46-4.55,0.95-5.74c1.48-1.26,3.22-1.84,6.28,0.29
					C1844.23,16.99,1845.08,15.37,1846.55,14.11z"/>
				<path class="st0" d="M1832.08,40.66l2.62-2.23c0.35,0.47,0.72,0.93,1.12,1.4c0.21,0.24,0.42,0.49,0.64,0.73l0,0l0.7,0.81
					c4.64,5.17,11.18,8.19,17.57,8.12l0.31,0.37l-8.62,7.34c0.17,6.11-2.56,12.6-7.88,17.37c-0.01-0.02-1,0.87-1.53,1.32
					c-5.31,4.52-11.17,6.34-13.11,4.07c-1.2-1.4-1.91-2.94-0.02-5.82c-3.15,1.4-4.55,0.46-5.74-0.95c-1.26-1.48-1.84-3.22,0.29-6.28
					c-3.36,1.61-4.99,0.76-6.24-0.72c-1.25-1.47-1.85-3.19,0.26-6.23c-3.51,1.77-5.3,0.99-6.6-0.54c-1.93-2.27,0.8-7.77,6.11-12.29
					c1.34-1.14,2.72-2.11,4.06-2.89C1821.05,40.94,1826.87,39.75,1832.08,40.66z"/>
				<path class="st0" d="M1881.53,76.52l-3.71,3.16c-0.28-0.37-0.58-0.73-0.89-1.09c-0.19-0.23-0.46-0.54-0.71-0.82
					c-0.12-0.14-0.25-0.29-0.36-0.41l0.01-0.02l-0.26-0.3c-4.64-5.17-11.18-8.19-17.57-8.12l-0.56-0.66l9.73-8.28
					c-0.17-6.11,2.56-12.6,7.88-17.37c0.01,0.02,0.01,0.04,0.02,0.06c0.48-0.47,0.98-0.93,1.51-1.38
					c5.31-4.52,11.17-6.34,13.11-4.07c1.2,1.4,1.91,2.94,0.02,5.82c3.15-1.4,4.55-0.46,5.74,0.95c1.26,1.48,1.84,3.22-0.29,6.28
					c3.36-1.61,4.99-0.76,6.24,0.72c1.25,1.47,1.85,3.19-0.26,6.23c3.51-1.77,5.3-0.99,6.6,0.54c1.93,2.27-0.8,7.77-6.11,12.29
					c-1.34,1.14-2.72,2.11-4.06,2.89C1892.57,76.24,1886.75,77.43,1881.53,76.52z"/>
				<path class="st0" d="M1838.19,76.23c0.23-0.19,0.54-0.47,0.82-0.71c0.13-0.12,0.28-0.25,0.41-0.36l0.02,0.01l0.3-0.27
					c4.85-4.35,7.81-10.37,8.09-16.37l9.63,11.31c6.11-0.17,12.6,2.56,17.37,7.88c-0.02,0.01,0.87,1,1.32,1.53
					c4.52,5.31,6.34,11.17,4.07,13.11c-1.4,1.2-2.94,1.91-5.82,0.02c1.4,3.15,0.45,4.55-0.95,5.74c-1.48,1.26-3.22,1.84-6.28-0.29
					c1.61,3.36,0.76,4.99-0.72,6.24c-1.47,1.25-3.19,1.85-6.23-0.26c1.77,3.51,0.99,5.3-0.54,6.6c-2.27,1.93-7.77-0.8-12.29-6.11
					c-1.14-1.34-2.11-2.72-2.89-4.06c-3.31-5.05-4.5-10.87-3.59-16.09l-5.17-6.07C1836.57,77.54,1837.38,76.92,1838.19,76.23z"/>
			</g>
			<g class="st320">
				<path class="st17" d="M1745.46,529.82c0.95-1.75,2.39-2.96,6.1-2.06c-3-2.72-2.91-4.74-1.92-6.56c1.47-2.7,7.78-2.1,14.1,1.34
					c1.6,0.87,3.04,1.84,4.28,2.84c5.05,3.64,8.35,8.8,9.4,14.16l6.77,3.69c-0.29,0.47-0.57,0.95-0.84,1.44
					c-0.16,0.29-0.32,0.59-0.47,0.89l0,0l-0.53,0.96c-3.27,6.38-3.75,13.8-1.32,19.92l-0.32,0.59l-13.93-7.59
					c-5.82,2.43-13.08,2.19-19.64-1.17c0.02-0.01,0.03-0.03,0.05-0.04c-0.63-0.29-1.26-0.6-1.89-0.95
					c-6.31-3.44-10.24-8.42-8.77-11.12c0.91-1.67,2.12-2.92,5.6-2.17c-2.51-2.51-2.12-4.21-1.21-5.88c0.96-1.76,2.42-2.96,6.15-2.05
					C1744.28,533.46,1744.5,531.58,1745.46,529.82z"/>
				<path class="st17" d="M1741.34,560.74l1.7-3.11c0.51,0.32,1.04,0.63,1.59,0.93c0.29,0.16,0.59,0.31,0.89,0.46l0,0l0.97,0.53
					c6.38,3.27,13.8,3.75,19.92,1.32l0.44,0.24l-5.59,10.26c2.43,5.82,2.19,13.08-1.17,19.64c-0.01-0.02-0.64,1.21-0.99,1.84
					c-3.44,6.31-8.42,10.24-11.12,8.77c-1.67-0.91-2.92-2.12-2.17-5.6c-2.51,2.51-4.21,2.12-5.88,1.21
					c-1.76-0.96-2.96-2.42-2.05-6.15c-2.64,2.79-4.52,2.58-6.28,1.62c-1.75-0.95-2.96-2.39-2.06-6.1c-2.72,3-4.74,2.91-6.56,1.92
					c-2.7-1.47-2.1-7.78,1.34-14.1c0.87-1.6,1.84-3.04,2.84-4.28C1730.81,565.09,1735.97,561.79,1741.34,560.74z"/>
				<path class="st17" d="M1802.21,577l-2.4,4.41c-0.41-0.25-0.83-0.49-1.26-0.72c-0.27-0.15-0.64-0.34-0.99-0.52
					c-0.17-0.09-0.35-0.18-0.5-0.27l0-0.02l-0.36-0.19c-6.38-3.27-13.8-3.75-19.92-1.32l-0.78-0.43l6.31-11.57
					c-2.43-5.82-2.19-13.08,1.17-19.64c0.01,0.02,0.03,0.03,0.04,0.05c0.29-0.63,0.6-1.26,0.95-1.89
					c3.44-6.31,8.42-10.24,11.12-8.77c1.67,0.91,2.92,2.12,2.17,5.6c2.51-2.51,4.21-2.12,5.88-1.21c1.76,0.96,2.96,2.42,2.05,6.15
					c2.64-2.79,4.52-2.58,6.28-1.62c1.75,0.95,2.96,2.39,2.06,6.1c2.72-3,4.74-2.91,6.56-1.92c2.7,1.47,2.1,7.78-1.34,14.1
					c-0.87,1.6-1.84,3.04-2.84,4.28C1812.74,572.65,1807.58,575.95,1802.21,577z"/>
				<path class="st17" d="M1760.37,592.74c0.15-0.27,0.35-0.65,0.53-0.99c0.09-0.16,0.18-0.35,0.26-0.5l0.02,0l0.19-0.37
					c3.06-5.98,3.68-12.87,1.74-18.76l13.46,7.33c5.82-2.43,13.08-2.19,19.64,1.17c-0.02,0.01,1.21,0.64,1.84,0.99
					c6.31,3.44,10.24,8.42,8.77,11.12c-0.91,1.67-2.12,2.92-5.6,2.17c2.51,2.51,2.12,4.21,1.21,5.88c-0.96,1.76-2.42,2.96-6.15,2.05
					c2.79,2.64,2.58,4.52,1.62,6.28c-0.95,1.75-2.39,2.96-6.1,2.06c3,2.72,2.91,4.74,1.92,6.56c-1.47,2.7-7.78,2.1-14.1-1.34
					c-1.6-0.87-3.04-1.84-4.28-2.84c-5.05-3.64-8.35-8.8-9.4-14.16l-7.22-3.93C1759.29,594.61,1759.85,593.7,1760.37,592.74z"/>
			</g>
			<g class="st319">
				<path class="st17" d="M1656.82,345.55c1.22-2.24,3.07-3.79,7.81-2.64c-3.84-3.49-3.73-6.07-2.46-8.4
					c1.88-3.46,9.97-2.69,18.06,1.72c2.05,1.11,3.9,2.36,5.49,3.64c6.48,4.66,10.7,11.28,12.05,18.15l8.68,4.73
					c-0.37,0.6-0.73,1.21-1.07,1.85c-0.2,0.38-0.4,0.76-0.6,1.15l0,0l-0.67,1.23c-4.19,8.17-4.81,17.68-1.69,25.53l-0.42,0.76
					l-17.85-9.72c-7.46,3.11-16.76,2.81-25.17-1.5c0.02-0.02,0.04-0.03,0.07-0.05c-0.8-0.37-1.61-0.77-2.42-1.21
					c-8.09-4.41-13.12-10.79-11.24-14.24c1.17-2.14,2.72-3.74,7.17-2.78c-3.22-3.22-2.71-5.39-1.55-7.54
					c1.23-2.25,3.1-3.8,7.88-2.62C1655.31,350.22,1655.59,347.81,1656.82,345.55z"/>
				<path class="st17" d="M1651.54,385.17l2.17-3.99c0.66,0.41,1.34,0.81,2.04,1.19c0.37,0.2,0.75,0.4,1.14,0.6l0,0l1.24,0.67
					c8.17,4.19,17.68,4.81,25.53,1.69l0.56,0.31l-7.16,13.15c3.11,7.46,2.81,16.76-1.5,25.17c-0.02-0.02-0.82,1.55-1.26,2.36
					c-4.41,8.09-10.79,13.12-14.24,11.24c-2.14-1.17-3.74-2.72-2.78-7.17c-3.22,3.22-5.39,2.72-7.54,1.55
					c-2.25-1.23-3.8-3.1-2.62-7.88c-3.38,3.58-5.79,3.3-8.05,2.07c-2.24-1.22-3.79-3.07-2.64-7.81c-3.49,3.84-6.07,3.73-8.4,2.46
					c-3.46-1.88-2.69-9.97,1.72-18.06c1.11-2.05,2.36-3.9,3.64-5.49C1638.05,390.74,1644.66,386.52,1651.54,385.17z"/>
				<path class="st17" d="M1729.54,406.01l-3.08,5.65c-0.52-0.32-1.06-0.63-1.61-0.93c-0.34-0.19-0.83-0.44-1.27-0.67
					c-0.21-0.11-0.45-0.24-0.64-0.34l0-0.02l-0.47-0.24c-8.17-4.19-17.68-4.81-25.53-1.69l-1-0.55l8.08-14.83
					c-3.11-7.46-2.81-16.76,1.5-25.17c0.02,0.02,0.03,0.04,0.05,0.07c0.37-0.8,0.77-1.61,1.21-2.42
					c4.41-8.09,10.79-13.12,14.24-11.24c2.14,1.17,3.74,2.72,2.79,7.17c3.22-3.22,5.39-2.72,7.54-1.55c2.25,1.23,3.8,3.1,2.62,7.88
					c3.38-3.58,5.79-3.3,8.05-2.07c2.24,1.22,3.79,3.06,2.64,7.81c3.49-3.84,6.07-3.73,8.4-2.46c3.46,1.88,2.69,9.97-1.72,18.06
					c-1.11,2.05-2.36,3.9-3.64,5.49C1743.03,400.43,1736.42,404.66,1729.54,406.01z"/>
				<path class="st17" d="M1675.92,426.18c0.19-0.35,0.44-0.83,0.67-1.27c0.11-0.21,0.23-0.44,0.34-0.63l0.02,0l0.24-0.47
					c3.93-7.66,4.72-16.5,2.23-24.04l17.24,9.39c7.46-3.11,16.76-2.81,25.17,1.5c-0.02,0.02,1.55,0.82,2.36,1.26
					c8.09,4.41,13.12,10.79,11.24,14.24c-1.17,2.14-2.72,3.74-7.17,2.78c3.22,3.22,2.71,5.39,1.55,7.54
					c-1.23,2.25-3.1,3.8-7.88,2.62c3.58,3.38,3.3,5.79,2.07,8.05c-1.22,2.24-3.07,3.79-7.81,2.64c3.84,3.49,3.73,6.07,2.46,8.4
					c-1.88,3.46-9.97,2.69-18.06-1.72c-2.05-1.11-3.9-2.36-5.49-3.64c-6.48-4.66-10.7-11.28-12.05-18.15l-9.25-5.04
					C1674.54,428.56,1675.25,427.41,1675.92,426.18z"/>
			</g>
			<g class="st318">
				<path class="st0" d="M1868.6,477.62c1.44-2.64,3.6-4.46,9.19-3.1c-4.52-4.1-4.39-7.13-2.89-9.88
					c2.22-4.07,11.72-3.16,21.24,2.02c2.41,1.31,4.58,2.77,6.45,4.28c7.62,5.48,12.58,13.26,14.17,21.34l10.2,5.56
					c-0.43,0.7-0.85,1.42-1.26,2.17c-0.24,0.44-0.48,0.89-0.7,1.35l0,0l-0.79,1.45c-4.92,9.61-5.66,20.79-1.99,30.02l-0.49,0.9
					l-20.98-11.43c-8.77,3.66-19.7,3.31-29.6-1.76c0.03-0.02,0.05-0.04,0.08-0.06c-0.94-0.43-1.9-0.91-2.85-1.42
					c-9.51-5.18-15.43-12.68-13.21-16.75c1.37-2.52,3.2-4.4,8.43-3.27c-3.79-3.78-3.19-6.34-1.82-8.86
					c1.44-2.65,3.65-4.46,9.27-3.08C1866.82,483.1,1867.15,480.27,1868.6,477.62z"/>
				<path class="st0" d="M1862.39,524.21l2.56-4.69c0.77,0.48,1.57,0.95,2.4,1.4c0.44,0.24,0.89,0.47,1.34,0.7l0,0l1.46,0.79
					c9.61,4.92,20.79,5.66,30.02,1.99l0.66,0.36l-8.42,15.46c3.66,8.77,3.31,19.7-1.76,29.6c-0.02-0.03-0.97,1.82-1.48,2.77
					c-5.18,9.51-12.68,15.43-16.75,13.21c-2.52-1.37-4.4-3.2-3.27-8.43c-3.78,3.79-6.34,3.19-8.86,1.82
					c-2.65-1.44-4.46-3.65-3.08-9.27c-3.98,4.21-6.81,3.88-9.46,2.44c-2.64-1.44-4.46-3.6-3.1-9.19c-4.1,4.52-7.13,4.39-9.88,2.89
					c-4.07-2.22-3.16-11.72,2.02-21.24c1.31-2.41,2.77-4.58,4.28-6.45C1846.53,530.76,1854.31,525.79,1862.39,524.21z"/>
				<path class="st0" d="M1954.11,548.71l-3.62,6.64c-0.61-0.37-1.25-0.74-1.9-1.09c-0.41-0.22-0.97-0.52-1.49-0.79
					c-0.25-0.13-0.53-0.28-0.76-0.4l0-0.03l-0.55-0.28c-9.61-4.92-20.79-5.66-30.02-1.99l-1.18-0.64l9.5-17.44
					c-3.66-8.77-3.31-19.7,1.76-29.6c0.02,0.03,0.04,0.05,0.06,0.08c0.43-0.94,0.91-1.9,1.43-2.85
					c5.18-9.51,12.68-15.43,16.75-13.21c2.52,1.37,4.4,3.2,3.27,8.43c3.78-3.79,6.34-3.19,8.86-1.82c2.65,1.44,4.46,3.65,3.08,9.27
					c3.98-4.21,6.81-3.88,9.46-2.44c2.64,1.44,4.46,3.6,3.1,9.19c4.1-4.52,7.13-4.39,9.88-2.89c4.07,2.22,3.16,11.72-2.02,21.24
					c-1.31,2.41-2.77,4.58-4.28,6.45C1969.97,542.15,1962.2,547.12,1954.11,548.71z"/>
				<path class="st0" d="M1891.06,572.43c0.22-0.41,0.52-0.98,0.79-1.49c0.13-0.24,0.27-0.52,0.39-0.75l0.03,0l0.28-0.55
					c4.62-9.01,5.55-19.4,2.63-28.27l20.27,11.05c8.77-3.66,19.7-3.31,29.6,1.76c-0.03,0.02,1.82,0.97,2.77,1.48
					c9.51,5.18,15.43,12.68,13.21,16.75c-1.37,2.52-3.2,4.4-8.43,3.27c3.79,3.78,3.19,6.34,1.82,8.86
					c-1.44,2.65-3.65,4.46-9.27,3.08c4.21,3.98,3.88,6.81,2.44,9.46c-1.44,2.64-3.6,4.46-9.19,3.1c4.52,4.1,4.39,7.13,2.89,9.88
					c-2.22,4.07-11.72,3.16-21.24-2.02c-2.41-1.31-4.58-2.77-6.45-4.28c-7.62-5.48-12.58-13.26-14.17-21.34l-10.88-5.93
					C1889.44,575.23,1890.28,573.87,1891.06,572.43z"/>
			</g>
			<g class="st319">
				<path class="st0" d="M1679.14,475.77c0.74-1.36,1.86-2.3,4.73-1.6c-2.33-2.11-2.26-3.68-1.49-5.09
					c1.14-2.1,6.04-1.63,10.94,1.04c1.24,0.68,2.36,1.43,3.32,2.21c3.92,2.82,6.48,6.83,7.3,11l5.26,2.86
					c-0.22,0.36-0.44,0.73-0.65,1.12c-0.12,0.23-0.25,0.46-0.36,0.69l0,0l-0.41,0.75c-2.54,4.95-2.91,10.71-1.03,15.47l-0.25,0.46
					l-10.81-5.89c-4.52,1.88-10.15,1.7-15.25-0.91c0.01-0.01,0.03-0.02,0.04-0.03c-0.49-0.22-0.98-0.47-1.47-0.73
					c-4.9-2.67-7.95-6.53-6.81-8.63c0.71-1.3,1.65-2.27,4.35-1.69c-1.95-1.95-1.64-3.27-0.94-4.57c0.74-1.37,1.88-2.3,4.78-1.59
					C1678.23,478.6,1678.39,477.14,1679.14,475.77z"/>
				<path class="st0" d="M1675.94,499.77l1.32-2.42c0.4,0.25,0.81,0.49,1.24,0.72c0.23,0.12,0.46,0.24,0.69,0.36l0,0l0.75,0.41
					c4.95,2.54,10.71,2.91,15.47,1.03l0.34,0.19l-4.34,7.97c1.88,4.52,1.7,10.15-0.91,15.25c-0.01-0.01-0.5,0.94-0.76,1.43
					c-2.67,4.9-6.53,7.95-8.63,6.81c-1.3-0.71-2.27-1.65-1.69-4.35c-1.95,1.95-3.27,1.64-4.57,0.94c-1.37-0.74-2.3-1.88-1.59-4.78
					c-2.05,2.17-3.51,2-4.87,1.26c-1.36-0.74-2.3-1.86-1.6-4.73c-2.11,2.33-3.68,2.26-5.09,1.49c-2.1-1.14-1.63-6.04,1.04-10.94
					c0.68-1.24,1.43-2.36,2.21-3.32C1667.77,503.15,1671.78,500.59,1675.94,499.77z"/>
				<path class="st0" d="M1723.2,512.4l-1.86,3.42c-0.32-0.19-0.64-0.38-0.98-0.56c-0.21-0.11-0.5-0.27-0.77-0.41
					c-0.13-0.07-0.27-0.14-0.39-0.21l0-0.01l-0.28-0.15c-4.95-2.54-10.71-2.91-15.47-1.03l-0.61-0.33l4.9-8.99
					c-1.88-4.52-1.7-10.15,0.91-15.25c0.01,0.01,0.02,0.03,0.03,0.04c0.22-0.49,0.47-0.98,0.73-1.47c2.67-4.9,6.53-7.95,8.63-6.81
					c1.3,0.71,2.27,1.65,1.69,4.35c1.95-1.95,3.27-1.64,4.57-0.94c1.37,0.74,2.3,1.88,1.59,4.78c2.05-2.17,3.51-2,4.87-1.26
					c1.36,0.74,2.3,1.86,1.6,4.73c2.11-2.33,3.68-2.26,5.09-1.49c2.1,1.14,1.63,6.04-1.04,10.94c-0.68,1.24-1.43,2.36-2.21,3.32
					C1731.37,509.02,1727.37,511.58,1723.2,512.4z"/>
				<path class="st0" d="M1690.72,524.62c0.11-0.21,0.27-0.5,0.41-0.77c0.07-0.13,0.14-0.27,0.2-0.38l0.01,0l0.15-0.28
					c2.38-4.64,2.86-10,1.35-14.56l10.45,5.69c4.52-1.88,10.15-1.7,15.25,0.91c-0.01,0.01,0.94,0.5,1.43,0.76
					c4.9,2.67,7.95,6.53,6.81,8.63c-0.71,1.3-1.65,2.27-4.34,1.69c1.95,1.95,1.64,3.27,0.94,4.57c-0.74,1.37-1.88,2.3-4.78,1.59
					c2.17,2.05,2,3.51,1.26,4.87c-0.74,1.36-1.86,2.3-4.73,1.6c2.33,2.11,2.26,3.68,1.49,5.09c-1.14,2.1-6.04,1.63-10.94-1.04
					c-1.24-0.68-2.36-1.43-3.32-2.21c-3.92-2.82-6.48-6.83-7.3-11l-5.6-3.05C1689.88,526.06,1690.31,525.36,1690.72,524.62z"/>
			</g>
			<g class="st319">
				<path class="st0" d="M1667.1,568.1c2.08-1.6,4.46-2.29,8.44,0.76c-2.16-4.88-0.99-7.25,1.17-8.92
					c3.21-2.47,10.49,1.61,16.27,9.11c1.46,1.9,2.69,3.83,3.65,5.7c4.16,7.07,5.39,15.05,3.8,22.07l6.2,8.05
					c-0.59,0.41-1.19,0.84-1.78,1.29c-0.35,0.27-0.7,0.54-1.04,0.83l0,0l-1.14,0.88c-7.33,5.95-11.86,14.63-12.18,23.31l-0.71,0.54
					l-12.75-16.55c-8.31-0.17-16.93-4.31-23.05-11.85c0.03-0.01,0.06-0.01,0.08-0.02c-0.6-0.68-1.2-1.39-1.78-2.14
					c-5.78-7.5-7.87-15.59-4.66-18.06c1.99-1.53,4.11-2.39,7.9,0.36c-1.69-4.36-0.32-6.2,1.67-7.73c2.09-1.61,4.49-2.28,8.5,0.81
					C1663.75,571.86,1665.01,569.71,1667.1,568.1z"/>
				<path class="st0" d="M1645.7,603.17l3.7-2.85c0.45,0.66,0.92,1.31,1.42,1.97c0.27,0.35,0.54,0.69,0.82,1.03l0,0l0.89,1.15
					c5.95,7.33,14.63,11.86,23.31,12.18l0.4,0.52l-12.19,9.39c-0.17,8.31-4.31,16.93-11.85,23.05c-0.01-0.03-1.41,1.11-2.17,1.69
					c-7.5,5.78-15.59,7.87-18.06,4.66c-1.53-1.99-2.39-4.11,0.36-7.9c-4.36,1.69-6.2,0.32-7.73-1.67c-1.61-2.09-2.28-4.49,0.81-8.5
					c-4.67,1.96-6.82,0.7-8.43-1.39c-1.6-2.08-2.29-4.46,0.76-8.44c-4.88,2.16-7.25,0.99-8.92-1.17
					c-2.47-3.21,1.61-10.49,9.11-16.27c1.9-1.46,3.83-2.69,5.7-3.65C1630.7,602.82,1638.68,601.59,1645.7,603.17z"/>
				<path class="st0" d="M1710.43,655.13l-5.24,4.04c-0.36-0.52-0.74-1.03-1.13-1.54c-0.25-0.32-0.59-0.76-0.91-1.16
					c-0.15-0.19-0.32-0.41-0.46-0.59l0.01-0.02l-0.34-0.42c-5.95-7.33-14.63-11.86-23.31-12.18l-0.72-0.93l13.75-10.6
					c0.17-8.31,4.31-16.93,11.85-23.05c0.01,0.03,0.01,0.06,0.02,0.08c0.68-0.6,1.39-1.2,2.15-1.78c7.5-5.78,15.59-7.87,18.06-4.66
					c1.53,1.99,2.39,4.11-0.36,7.9c4.36-1.69,6.2-0.32,7.73,1.67c1.61,2.09,2.28,4.49-0.81,8.5c4.67-1.96,6.82-0.7,8.43,1.39
					c1.6,2.08,2.29,4.46-0.76,8.44c4.88-2.16,7.25-0.99,8.92,1.17c2.47,3.21-1.61,10.49-9.11,16.27c-1.9,1.46-3.83,2.69-5.7,3.65
					C1725.42,655.49,1717.45,656.72,1710.43,655.13z"/>
				<path class="st0" d="M1651.62,651.86c0.32-0.25,0.76-0.6,1.16-0.92c0.19-0.15,0.4-0.32,0.58-0.46l0.02,0.01l0.42-0.34
					c6.87-5.58,11.28-13.56,12.07-21.68l12.32,15.99c8.31,0.17,16.93,4.31,23.05,11.85c-0.03,0.01,1.11,1.41,1.69,2.17
					c5.78,7.5,7.87,15.59,4.66,18.06c-1.99,1.53-4.11,2.39-7.9-0.36c1.69,4.36,0.32,6.2-1.67,7.73c-2.09,1.61-4.49,2.28-8.5-0.81
					c1.96,4.67,0.7,6.82-1.39,8.43c-2.08,1.6-4.46,2.29-8.44-0.76c2.16,4.88,0.99,7.25-1.17,8.92c-3.21,2.47-10.49-1.61-16.27-9.11
					c-1.46-1.9-2.69-3.83-3.65-5.7c-4.16-7.07-5.39-15.05-3.8-22.07l-6.61-8.58C1649.33,653.53,1650.48,652.74,1651.62,651.86z"/>
			</g>
		</g>
	</g>
</g>
<g id="мои_посты">
</g>
<g id="Слой_9">
</g>
</svg>
