<svg xmlns="http://www.w3.org/2000/svg" viewBox="0 0 883.32 370.07"><defs><style>.cls-1{fill:#1d4bb8;}.cls-2{fill:#367fe1;}.cls-3{fill:#fff;}</style></defs><title>logo-blue</title><g id="посты"><path class="cls-1" d="M379.82,177.78a5,5,0,0,0,2-4.23,5.44,5.44,0,0,0-1.89-4,41.69,41.69,0,0,0-7.2-3.6l-2.34-1q-6.93-3.15-10.17-7.2a18.31,18.31,0,0,1-3.69-11.7q0-8.46,5.31-13.77a18.54,18.54,0,0,1,13.68-5.4,26.84,26.84,0,0,1,16.83,5.85,3.18,3.18,0,0,1,1.26,2,3.13,3.13,0,0,1-.18,2.34l-2.61,5.31a3.23,3.23,0,0,1-3.06,2,4.26,4.26,0,0,1-2.07-.54l-.09-.09a26.49,26.49,0,0,0-6.12-3.06,17.39,17.39,0,0,0-2.25-.54q-.9-.09-1.62-.09-6,0-6,5.49a5.55,5.55,0,0,0,1.53,4,24.32,24.32,0,0,0,6.93,4.14q.36.09,5.49,2.25,11.34,5,11.34,17a18.48,18.48,0,0,1-5.94,14.22,20.24,20.24,0,0,1-14.4,5.4,28.21,28.21,0,0,1-17.1-5.85,2.84,2.84,0,0,1-1.26-1.89,3.35,3.35,0,0,1,.18-2.43l2.79-5.31a3.17,3.17,0,0,1,3-2,3.52,3.52,0,0,1,2.07.63h.09q5.58,3.69,10.17,3.69A8.28,8.28,0,0,0,379.82,177.78Z"/><path class="cls-1" d="M451.64,167a26.65,26.65,0,0,1-6.12,17.73,21.71,21.71,0,0,1-33.39,0A26.65,26.65,0,0,1,406,167V131.52a3.41,3.41,0,0,1,1-2.52,3,3,0,0,1,2.34-1h6.39a3.3,3.3,0,0,1,2.43,1,3.61,3.61,0,0,1,1,2.52v35.91q0,5.31,2.61,8.37a8.91,8.91,0,0,0,7.11,3.15,8.57,8.57,0,0,0,7.29-3.51,13.07,13.07,0,0,0,2.34-8V131.52a3.61,3.61,0,0,1,1-2.52,3.3,3.3,0,0,1,2.43-1h6.39a3,3,0,0,1,2.34,1,3.41,3.41,0,0,1,1,2.52Z"/><path class="cls-1" d="M498.17,163.74a18.94,18.94,0,0,1-14.4,6.39h-6.21v17.64q0,3.6-3.33,3.6h-6.39q-3.33,0-3.33-3.6V133.32a5.51,5.51,0,0,1,1.44-3.78,4.89,4.89,0,0,1,3.69-1.62h14.13a19.12,19.12,0,0,1,14.4,6.39,21.43,21.43,0,0,1,0,29.43Zm-9.54-20.25a6.77,6.77,0,0,0-5.31-2.34h-5.76V156.9h5.76a7.13,7.13,0,0,0,5.31-2.34,7.77,7.77,0,0,0,2.25-5.58A7.47,7.47,0,0,0,488.63,143.49Z"/><path class="cls-1" d="M547.67,163.74a18.94,18.94,0,0,1-14.4,6.39h-6.21v17.64q0,3.6-3.33,3.6h-6.39q-3.33,0-3.33-3.6V133.32a5.51,5.51,0,0,1,1.44-3.78,4.89,4.89,0,0,1,3.69-1.62h14.13a19.12,19.12,0,0,1,14.4,6.39,21.43,21.43,0,0,1,0,29.43Zm-9.54-20.25a6.77,6.77,0,0,0-5.31-2.34h-5.76V156.9h5.76a7.13,7.13,0,0,0,5.31-2.34,7.77,7.77,0,0,0,2.25-5.58A7.47,7.47,0,0,0,538.13,143.49Z"/><path class="cls-1" d="M577.19,141.33V152H591a3.3,3.3,0,0,1,2.43,1,3.61,3.61,0,0,1,1,2.52v6a3.61,3.61,0,0,1-1,2.52,3.3,3.3,0,0,1-2.43,1H577.19v13h19.08A3.17,3.17,0,0,1,598.7,179a3.41,3.41,0,0,1,1,2.52v6.21a3.73,3.73,0,0,1-1,2.61,3.3,3.3,0,0,1-2.43,1H569.18a4.89,4.89,0,0,1-3.69-1.62,5.51,5.51,0,0,1-1.44-3.78V133.32a5.14,5.14,0,0,1,1.53-3.78,4.45,4.45,0,0,1,3.6-1.62h27.09a3.3,3.3,0,0,1,2.43,1,3.73,3.73,0,0,1,1,2.61v6.21a3.41,3.41,0,0,1-1,2.52,3.17,3.17,0,0,1-2.43,1.08Z"/><path class="cls-1" d="M653.15,168.6a23.83,23.83,0,0,1-6.48,16.74,22,22,0,0,1-32.58,0,23.83,23.83,0,0,1-6.48-16.74V150.78a23.54,23.54,0,0,1,6.57-16.65,21.25,21.25,0,0,1,16.2-7.2,21.52,21.52,0,0,1,16.29,7.2,23.72,23.72,0,0,1,6.48,16.65ZM640,150.78a10.53,10.53,0,0,0-2.7-7.2,9,9,0,0,0-6.93-3.24,8.69,8.69,0,0,0-6.84,3.24,10.55,10.55,0,0,0-2.79,7.2V168.6a10.55,10.55,0,0,0,2.79,7.2,8.77,8.77,0,0,0,6.84,3.33,9,9,0,0,0,6.93-3.24,10.87,10.87,0,0,0,2.7-7.29Z"/><path class="cls-1" d="M698.06,163.74a18.94,18.94,0,0,1-14.4,6.39h-6.21v17.64q0,3.6-3.33,3.6h-6.39q-3.33,0-3.33-3.6V133.32a5.51,5.51,0,0,1,1.44-3.78,4.89,4.89,0,0,1,3.69-1.62h14.13a19.12,19.12,0,0,1,14.4,6.39,21.43,21.43,0,0,1,0,29.43Zm-9.54-20.25a6.77,6.77,0,0,0-5.31-2.34h-5.76V156.9h5.76a7.13,7.13,0,0,0,5.31-2.34,7.77,7.77,0,0,0,2.25-5.58A7.47,7.47,0,0,0,688.52,143.49Z"/><path class="cls-1" d="M723.62,127.92a3.3,3.3,0,0,1,2.43,1,3.73,3.73,0,0,1,1,2.61V178h16.74a2.9,2.9,0,0,1,2.34,1.08,3.41,3.41,0,0,1,1,2.52v6.21q0,3.6-3.33,3.6H719a4.89,4.89,0,0,1-3.69-1.62A5.51,5.51,0,0,1,713.9,186V131.52a3.73,3.73,0,0,1,1-2.61,3.3,3.3,0,0,1,2.43-1Z"/><path class="cls-1" d="M768.71,141.33V152h13.77a3.3,3.3,0,0,1,2.43,1,3.61,3.61,0,0,1,1,2.52v6a3.61,3.61,0,0,1-1,2.52,3.3,3.3,0,0,1-2.43,1H768.71v13h19.08a3.17,3.17,0,0,1,2.43,1.08,3.41,3.41,0,0,1,1,2.52v6.21a3.73,3.73,0,0,1-1,2.61,3.3,3.3,0,0,1-2.43,1H760.7a4.89,4.89,0,0,1-3.69-1.62,5.51,5.51,0,0,1-1.44-3.78V133.32a5.14,5.14,0,0,1,1.53-3.78,4.45,4.45,0,0,1,3.6-1.62h27.09a3.3,3.3,0,0,1,2.43,1,3.73,3.73,0,0,1,1,2.61v6.21a3.41,3.41,0,0,1-1,2.52,3.17,3.17,0,0,1-2.43,1.08Z"/><path class="cls-2" d="M370.93,218.84a14.1,14.1,0,0,1,7.08,1.67,10.76,10.76,0,0,1,4.47,4.75,16.18,16.18,0,0,1,1.52,7.23,17.59,17.59,0,0,1-.84,5.59,12,12,0,0,1-2.49,4.35,10.91,10.91,0,0,1-4.08,2.82,14.81,14.81,0,0,1-5.55,1,14.54,14.54,0,0,1-5.56-1,11,11,0,0,1-4.1-2.83,12,12,0,0,1-2.49-4.39,17.67,17.67,0,0,1-.84-5.54,17,17,0,0,1,.88-5.6,11.91,11.91,0,0,1,2.54-4.34,11,11,0,0,1,4-2.74A14.63,14.63,0,0,1,370.93,218.84Zm7.63,13.62a12.52,12.52,0,0,0-.94-5,7,7,0,0,0-2.69-3.23,7.79,7.79,0,0,0-7-.49,6.67,6.67,0,0,0-2.35,1.77,8.49,8.49,0,0,0-1.55,2.95,13.32,13.32,0,0,0-.57,4,13.64,13.64,0,0,0,.57,4.08,8.25,8.25,0,0,0,1.61,3,6.74,6.74,0,0,0,2.38,1.8,7.34,7.34,0,0,0,3,.59,7.21,7.21,0,0,0,3.78-1,7.11,7.11,0,0,0,2.75-3.18A12.29,12.29,0,0,0,378.56,232.46Z"/><path class="cls-2" d="M394.76,234.45h-1.88V243a3.55,3.55,0,0,1-.74,2.48,2.53,2.53,0,0,1-1.94.79,2.44,2.44,0,0,1-2-.83,3.66,3.66,0,0,1-.71-2.44V222.58a2.81,2.81,0,0,1,3.29-3.29h8.73a27.26,27.26,0,0,1,3.09.15,7.84,7.84,0,0,1,2.31.62,6.73,6.73,0,0,1,3.66,3.77,7.6,7.6,0,0,1,.49,2.74,6.59,6.59,0,0,1-1.67,4.73,9.54,9.54,0,0,1-5.07,2.51,9.8,9.8,0,0,1,2.73,2.24,22.31,22.31,0,0,1,2.32,3.16,23.67,23.67,0,0,1,1.59,3,6,6,0,0,1,.57,1.86,1.9,1.9,0,0,1-.33,1,2.33,2.33,0,0,1-.91.82,2.87,2.87,0,0,1-1.34.29,2.64,2.64,0,0,1-1.52-.42,4.15,4.15,0,0,1-1.06-1.07q-.43-.66-1.2-1.92L401,239.23a19.83,19.83,0,0,0-2.07-3,5,5,0,0,0-1.85-1.4A6.17,6.17,0,0,0,394.76,234.45Zm3.07-11.13h-4.95v7.28h4.8a13.15,13.15,0,0,0,3.26-.34,3.78,3.78,0,0,0,2-1.14,3.27,3.27,0,0,0,.69-2.21,3.36,3.36,0,0,0-2.11-3.2A11.38,11.38,0,0,0,397.83,223.32Z"/><path class="cls-2" d="M436.83,235v5.07a5.39,5.39,0,0,1-.2,1.62,2.56,2.56,0,0,1-.73,1.09,6.67,6.67,0,0,1-1.37.94,21.41,21.41,0,0,1-4.62,1.9,18.55,18.55,0,0,1-4.84.59,15.69,15.69,0,0,1-5.57-.94,11.66,11.66,0,0,1-4.28-2.72,12,12,0,0,1-2.72-4.34,16.25,16.25,0,0,1-.95-5.69,16.7,16.7,0,0,1,.92-5.65,11.72,11.72,0,0,1,2.71-4.36,12.13,12.13,0,0,1,4.36-2.74,16.74,16.74,0,0,1,5.81-.94,14.36,14.36,0,0,1,4.74.71,10.43,10.43,0,0,1,3.34,1.8,7.78,7.78,0,0,1,1.93,2.29,4.61,4.61,0,0,1,.65,2.15,2.3,2.3,0,0,1-.75,1.73,2.53,2.53,0,0,1-1.79.71,2.39,2.39,0,0,1-1.11-.27,2.44,2.44,0,0,1-.9-.76,20.41,20.41,0,0,0-1.68-2.35,5.37,5.37,0,0,0-1.85-1.33,6.94,6.94,0,0,0-3-.55,8.21,8.21,0,0,0-3.33.65,6.72,6.72,0,0,0-2.5,1.86,8.37,8.37,0,0,0-1.59,3,13,13,0,0,0-.55,3.92q0,4.65,2.14,7.17a7.44,7.44,0,0,0,6,2.51,12,12,0,0,0,3.5-.49,17.46,17.46,0,0,0,3.31-1.39v-4.3h-4.15a4.57,4.57,0,0,1-2.27-.45,1.64,1.64,0,0,1-.77-1.54,1.91,1.91,0,0,1,.64-1.46,2.5,2.5,0,0,1,1.75-.58h6.09a7.88,7.88,0,0,1,1.89.2,2.13,2.13,0,0,1,1.26.89A3.58,3.58,0,0,1,436.83,235Z"/><path class="cls-2" d="M456.44,242.77l-1.26-3.32H444.41l-1.27,3.4a11.72,11.72,0,0,1-1.26,2.68,2,2,0,0,1-1.72.69,2.5,2.5,0,0,1-1.79-.74,2.28,2.28,0,0,1-.77-1.68,3.79,3.79,0,0,1,.18-1.12c.12-.38.32-.92.59-1.6l6.78-17.2.69-1.78a9.25,9.25,0,0,1,.87-1.73,3.49,3.49,0,0,1,1.21-1.11,4.33,4.33,0,0,1,3.72,0,3.54,3.54,0,0,1,1.21,1.09,7.7,7.7,0,0,1,.78,1.44c.21.51.48,1.2.81,2.05l6.91,17.09a8.46,8.46,0,0,1,.82,2.84,2.36,2.36,0,0,1-.77,1.69,2.52,2.52,0,0,1-1.85.76,2.44,2.44,0,0,1-1.09-.22,2.15,2.15,0,0,1-.75-.62,4.93,4.93,0,0,1-.66-1.19C456.81,243.66,456.61,243.18,456.44,242.77Zm-10.62-7.35h7.91l-4-10.93Z"/><path class="cls-2" d="M472.06,222.05l10.32,15.61V221.91a3.48,3.48,0,0,1,.66-2.31,2.22,2.22,0,0,1,1.78-.76,2.28,2.28,0,0,1,1.82.76,3.43,3.43,0,0,1,.67,2.31v20.83q0,3.48-2.89,3.48a3.78,3.78,0,0,1-1.3-.2,3.21,3.21,0,0,1-1.08-.66,6,6,0,0,1-.94-1.06c-.29-.4-.58-.81-.87-1.24l-10.06-15.43v15.52a3.33,3.33,0,0,1-.71,2.3,2.51,2.51,0,0,1-3.63,0,3.39,3.39,0,0,1-.69-2.29V222.72a5.81,5.81,0,0,1,.29-2,2.92,2.92,0,0,1,1.14-1.33,3.12,3.12,0,0,1,1.72-.51,2.87,2.87,0,0,1,1.23.23,3.08,3.08,0,0,1,.91.63,6.72,6.72,0,0,1,.79,1Z"/><path class="cls-2" d="M492.36,243V222.09a3.52,3.52,0,0,1,.74-2.44,2.5,2.5,0,0,1,1.92-.81,2.53,2.53,0,0,1,2,.8,3.49,3.49,0,0,1,.75,2.45V243a3.52,3.52,0,0,1-.75,2.46,2.54,2.54,0,0,1-2,.81,2.47,2.47,0,0,1-1.91-.82A3.52,3.52,0,0,1,492.36,243Z"/><path class="cls-2" d="M502,239.59l13.6-16.27H503.9a2.69,2.69,0,0,1-1.85-.55,1.77,1.77,0,0,1-.62-1.42,1.9,1.9,0,0,1,.62-1.49,2.64,2.64,0,0,1,1.85-.57H519c1.95,0,2.93.91,2.93,2.73a3.89,3.89,0,0,1-.49,2.07,24.91,24.91,0,0,1-2,2.51l-12.72,15.14h14a2.87,2.87,0,0,1,1.86.52,1.76,1.76,0,0,1,.61,1.44,1.94,1.94,0,0,1-.61,1.51,2.65,2.65,0,0,1-1.86.56h-17.2a3.89,3.89,0,0,1-2.64-.78,2.69,2.69,0,0,1-.88-2.11,2.23,2.23,0,0,1,.14-.83,3.28,3.28,0,0,1,.39-.71c.16-.22.39-.51.68-.85Z"/><path class="cls-2" d="M542.5,242.77l-1.26-3.32H530.47l-1.26,3.4a12.07,12.07,0,0,1-1.27,2.68,2,2,0,0,1-1.72.69,2.47,2.47,0,0,1-1.78-.74,2.25,2.25,0,0,1-.78-1.68,3.79,3.79,0,0,1,.18-1.12c.12-.38.32-.92.6-1.6l6.77-17.2c.19-.5.43-1.09.7-1.78a9.27,9.27,0,0,1,.86-1.73,3.49,3.49,0,0,1,1.21-1.11,3.76,3.76,0,0,1,1.86-.42,3.8,3.8,0,0,1,1.87.42,3.64,3.64,0,0,1,1.21,1.09,8.28,8.28,0,0,1,.77,1.44c.21.51.48,1.2.81,2.05l6.92,17.09a8.63,8.63,0,0,1,.81,2.84,2.36,2.36,0,0,1-.77,1.69,2.52,2.52,0,0,1-1.85.76,2.39,2.39,0,0,1-1.08-.22,2.19,2.19,0,0,1-.76-.62,4.93,4.93,0,0,1-.66-1.19C542.87,243.66,542.67,243.18,542.5,242.77Zm-10.62-7.35h7.91l-4-10.93Z"/><path class="cls-2" d="M565.08,223.71h-5.85V243a3.57,3.57,0,0,1-.74,2.47,2.72,2.72,0,0,1-3.86,0,3.52,3.52,0,0,1-.75-2.46V223.71H548a3,3,0,0,1-2-.6,2.09,2.09,0,0,1-.67-1.6,2.05,2.05,0,0,1,.7-1.63,3,3,0,0,1,2-.59h17.06a3,3,0,0,1,2.07.61,2.08,2.08,0,0,1,.68,1.61,2,2,0,0,1-.69,1.6A3.07,3.07,0,0,1,565.08,223.71Z"/><path class="cls-2" d="M570.19,243V222.09a3.48,3.48,0,0,1,.74-2.44,2.46,2.46,0,0,1,1.91-.81,2.53,2.53,0,0,1,2,.8,3.49,3.49,0,0,1,.75,2.45V243a3.52,3.52,0,0,1-.75,2.46,2.54,2.54,0,0,1-2,.81,2.43,2.43,0,0,1-1.9-.82A3.52,3.52,0,0,1,570.19,243Z"/><path class="cls-2" d="M592.16,218.84a14.1,14.1,0,0,1,7.08,1.67,10.76,10.76,0,0,1,4.47,4.75,16.18,16.18,0,0,1,1.52,7.23,17.88,17.88,0,0,1-.83,5.59,12.18,12.18,0,0,1-2.5,4.35,10.91,10.91,0,0,1-4.08,2.82,14.74,14.74,0,0,1-5.55,1,14.58,14.58,0,0,1-5.56-1,11,11,0,0,1-4.1-2.83,12,12,0,0,1-2.49-4.39,17.67,17.67,0,0,1-.84-5.54,17.22,17.22,0,0,1,.88-5.6,11.91,11.91,0,0,1,2.54-4.34,11.13,11.13,0,0,1,4-2.74A14.54,14.54,0,0,1,592.16,218.84Zm7.63,13.62a12.35,12.35,0,0,0-.94-5,7.07,7.07,0,0,0-2.68-3.23,7.4,7.4,0,0,0-4-1.09,7.3,7.3,0,0,0-3,.6,6.67,6.67,0,0,0-2.35,1.77,8.49,8.49,0,0,0-1.55,2.95,13.32,13.32,0,0,0-.57,4,13.64,13.64,0,0,0,.57,4.08,8.4,8.4,0,0,0,1.61,3,6.83,6.83,0,0,0,2.38,1.8,7.38,7.38,0,0,0,3,.59,7.21,7.21,0,0,0,3.78-1,7.11,7.11,0,0,0,2.75-3.18A12.29,12.29,0,0,0,599.79,232.46Z"/><path class="cls-2" d="M615.77,222.05l10.32,15.61V221.91a3.48,3.48,0,0,1,.66-2.31,2.22,2.22,0,0,1,1.78-.76,2.28,2.28,0,0,1,1.82.76,3.43,3.43,0,0,1,.67,2.31v20.83q0,3.48-2.89,3.48a3.78,3.78,0,0,1-1.3-.2,3.35,3.35,0,0,1-1.09-.66,7,7,0,0,1-.94-1.06c-.28-.4-.57-.81-.86-1.24l-10.07-15.43v15.52a3.33,3.33,0,0,1-.7,2.3,2.51,2.51,0,0,1-3.63,0,3.39,3.39,0,0,1-.69-2.29V222.72a5.81,5.81,0,0,1,.29-2,2.92,2.92,0,0,1,1.14-1.33,3.12,3.12,0,0,1,1.72-.51,2.87,2.87,0,0,1,1.23.23,3.08,3.08,0,0,1,.91.63,7.42,7.42,0,0,1,.79,1Z"/><path class="cls-2" d="M305.94,286.71c-4.64,0-9.75-1.51-12.47-12.68l-1.16-4.77L291.05,274c-2.53,9.49-6.69,11.43-12.15,11.43s-9.66-2-12.2-11.58l-1.2-4.58-1.21,4.58c-2.54,9.61-6.71,11.58-12.19,11.58-4.64,0-9-.77-11.77-10.06l-1.2-4.07-1.2,4.07c-2.74,9.29-7.13,10.06-11.77,10.06-7.85,0-14.49-16.29-14.49-35.56,0-.86,0-2,0-3.12,0-1.48,0-2.29,0-2.76h0c.51-19.66,9.18-38.13,23.21-49.41l.47-.37V142.08h61.33v52.67l.45.37c11.89,9.87,19.91,25.07,22,41.71a79.39,79.39,0,0,1,1.26,14.32C320.43,270.42,313.79,286.71,305.94,286.71Z"/><path class="cls-3" d="M295.47,143.33v52l.9.75c11.65,9.66,19.51,24.56,21.56,40.89v.14a77.52,77.52,0,0,1,1.23,14c0,20.22-7,34.31-13.24,34.31-4.36,0-8.75-1.42-11.25-11.73l-2.32-9.52-2.53,9.47c-2.58,9.69-6.82,10.5-10.94,10.5s-8.39-.82-11-10.65l-2.41-9.16-2.42,9.16c-2.59,9.83-6.85,10.65-11,10.65-4.31,0-8.08-.69-10.57-9.16l-2.4-8.14-2.4,8.14c-2.5,8.47-6.26,9.16-10.57,9.16-6.26,0-13.24-14.09-13.24-34.31,0-.85,0-2,0-3.1,0-1.29,0-2.14,0-2.73h0c.5-19.31,9-37.43,22.74-48.47l.94-.75V143.33h58.83m2.5-2.5H234.14v52.79c-13.9,11.17-23.14,29.5-23.68,50.35h0c.05,0-.05,3.87-.05,5.9,0,20.33,7.05,36.81,15.74,36.81,5.38,0,10.13-1.32,13-11,2.84,9.64,7.58,11,13,11,5.66,0,10.63-2,13.4-12.51,2.77,10.5,7.73,12.51,13.4,12.51s10.58-1.94,13.36-12.36C295,285.45,300.08,288,305.94,288c8.69,0,15.74-16.48,15.74-36.81a80.29,80.29,0,0,0-1.27-14.48C318.22,219.2,309.86,204,298,194.16V140.83Z"/><path class="cls-1" d="M292.75,181.05c-1.94,0-3.92-.07-5.88-.21l-2.1-.15.11.24c-18.91-1-36.52-9.58-47.41-23.13l-.37-.47H185V96h52.67l.38-.45c9.86-11.89,25.06-19.91,41.7-22A79.47,79.47,0,0,1,294,72.29c19.27,0,35.56,6.64,35.56,14.49,0,4.64-1.51,9.75-12.68,12.47l-4.76,1.16,4.73,1.26c9.49,2.53,11.43,6.69,11.43,12.15s-2,9.66-11.58,12.19l-4.58,1.21,4.58,1.21c9.61,2.54,11.58,6.71,11.58,12.19,0,4.64-.77,9-10.06,11.77l-4.07,1.2,4.07,1.2c9.29,2.74,10.06,7.13,10.06,11.77C328.31,174.41,312,181.05,292.75,181.05Z"/><path class="cls-3" d="M294,73.54c20.22,0,34.31,7,34.31,13.24,0,4.36-1.42,8.75-11.73,11.25l-9.52,2.32,9.47,2.53c9.69,2.58,10.5,6.82,10.5,10.94s-.82,8.39-10.65,11l-9.16,2.41,9.16,2.42c9.83,2.59,10.65,6.85,10.65,11,0,4.31-.69,8.08-9.16,10.57l-8.14,2.4,8.14,2.4c8.47,2.5,9.16,6.26,9.16,10.57,0,6.26-14.09,13.24-34.31,13.24-1.91,0-3.86-.07-5.8-.21l-4.19-.26.09.2c-17.76-1.49-34.13-9.74-44.4-22.51l-.75-.94H186.21V97.25h52l.75-.9c9.66-11.65,24.57-19.51,40.89-21.56H280a77.52,77.52,0,0,1,14-1.23m0-2.5a80.38,80.38,0,0,0-14.48,1.27C262.08,74.5,246.91,82.86,237,94.75H183.71v63.83H236.5c11.17,13.9,29.5,23.14,50.35,23.67a1.11,1.11,0,0,0-.07-.16c1.94.13,3.94.21,6,.21,20.33,0,36.81-7.05,36.81-15.74,0-5.38-1.32-10.13-10.95-13,9.63-2.84,10.95-7.58,10.95-13,0-5.66-2-10.63-12.51-13.4,10.51-2.77,12.51-7.73,12.51-13.4s-1.94-10.58-12.35-13.36c11.12-2.7,13.63-7.82,13.63-13.68C330.84,78.09,314.36,71,294,71Z"/><path class="cls-2" d="M127.08,207.26V154.59l-.45-.38c-11.9-9.86-19.92-25.06-22-41.7a79.4,79.4,0,0,1-1.25-14.32c0-19.27,6.63-35.56,14.48-35.56,4.64,0,9.75,1.51,12.47,12.68l1.16,4.76,1.26-4.73c2.53-9.49,6.69-11.43,12.16-11.43s9.65,2,12.19,11.58l1.21,4.58,1.21-4.58c2.53-9.61,6.7-11.58,12.19-11.58,4.64,0,9,.77,11.77,10.06l1.2,4.07,1.2-4.07c2.73-9.29,7.12-10.06,11.76-10.06,7.86,0,14.49,16.28,14.49,35.56,0,2-.07,3.93-.21,5.88l-.14,2.11.23-.11c-1,18.91-9.58,36.51-23.13,47.4l-.46.37v52.14Z"/><path class="cls-3" d="M117.85,63.88c4.37,0,8.75,1.42,11.26,11.73l2.32,9.52L134,75.66c2.59-9.69,6.83-10.5,11-10.5s8.39.82,11,10.65L158.3,85l2.41-9.16c2.6-9.83,6.85-10.65,11-10.65,4.3,0,8.07.69,10.57,9.16l2.4,8.14,2.39-8.14c2.5-8.47,6.27-9.16,10.57-9.16,6.26,0,13.24,14.09,13.24,34.31,0,1.91-.07,3.86-.2,5.8l-.26,4.2.2-.1c-1.5,17.76-9.74,34.13-22.52,44.4l-.93.75V206H128.33V154l-.91-.75c-11.65-9.66-19.51-24.57-21.56-40.89v-.14a78.44,78.44,0,0,1-1.22-14c0-20.22,7-34.31,13.23-34.31m0-2.5c-8.69,0-15.73,16.48-15.73,36.81a81.32,81.32,0,0,0,1.26,14.48c2.2,17.47,10.55,32.64,22.45,42.51v53.33h63.83V155.72c13.9-11.17,23.14-29.5,23.67-50.35l-.17.07c.14-1.94.21-3.94.21-6,0-20.33-7.05-36.81-15.74-36.81-5.38,0-10.13,1.32-13,11-2.84-9.63-7.59-11-13-11-5.67,0-10.63,2-13.4,12.51-2.77-10.51-7.74-12.51-13.4-12.51S134.32,64.6,131.54,75c-2.71-11.13-7.82-13.64-13.69-13.64Z"/><path class="cls-1" d="M128.66,281.28c-19.28,0-35.56-6.63-35.56-14.49,0-4.64,1.51-9.75,12.68-12.47l4.76-1.15-4.74-1.27c-9.48-2.53-11.42-6.69-11.42-12.15s2-9.66,11.57-12.19l4.59-1.21L106,225.14c-9.6-2.54-11.57-6.71-11.57-12.19,0-4.64.77-9,10.05-11.77l4.08-1.2-4.08-1.2C95.15,196,94.38,191.65,94.38,187c0-7.85,16.28-14.48,35.55-14.48l3.12,0,2.28,0h.54c19.64.52,38.08,9.19,49.34,23.2l.38.47h46c-12.34,11.93-19.62,29.12-20.1,47.7l0,1.28h.05c0,.47,0,1,0,1.5,0,1.09,0,2.29,0,3.15,0,2.59.12,5.17.34,7.7H185.06l-.38.45c-9.86,11.89-25.06,19.91-41.7,22A79.47,79.47,0,0,1,128.66,281.28Z"/><path class="cls-3" d="M129.93,173.78l3.12,0,2.29,0h.55c19.25.52,37.32,9,48.35,22.73l.75.94h43.66c-11.29,12-17.91,28.6-18.36,46.42l-.07,2.56h.06v.22c0,1.1,0,2.31,0,3.18,0,2.16.08,4.32.24,6.45h-26l-.75.9c-9.66,11.65-24.57,19.51-40.9,21.56h-.07l-.06,0a78.44,78.44,0,0,1-14,1.22c-20.22,0-34.31-7-34.31-13.24,0-4.36,1.42-8.74,11.72-11.25l9.53-2.32-9.47-2.53c-9.69-2.58-10.5-6.82-10.5-10.94s.82-8.39,10.64-11l9.17-2.42-9.17-2.42c-9.82-2.59-10.64-6.85-10.64-11,0-4.31.69-8.08,9.16-10.57l8.14-2.4-8.14-2.4c-8.47-2.49-9.16-6.26-9.16-10.57,0-6.26,14.09-13.23,34.3-13.23m0-2.5c-20.32,0-36.8,7-36.8,15.73,0,5.38,1.32,10.13,11,13-9.63,2.84-11,7.59-11,13,0,5.66,2,10.63,12.51,13.4-10.51,2.77-12.51,7.73-12.51,13.4s1.93,10.58,12.35,13.36c-11.12,2.71-13.63,7.82-13.63,13.68,0,8.69,16.48,15.74,36.81,15.74a80.38,80.38,0,0,0,14.48-1.27c17.47-2.19,32.64-10.55,42.5-22.44h27.57a86.09,86.09,0,0,1-.47-8.95c0-2,.1-5.9,0-5.9h0c.52-20,9.08-37.72,22.07-49H186.19c-11.17-13.9-29.5-23.14-50.36-23.67a3.69,3.69,0,0,1-.49,0c-1.11,0-3.82-.05-5.41-.05Z"/></g></svg>