<?xml version="1.0" encoding="utf-8"?>
<!-- Generator: Adobe Illustrator 23.1.0, SVG Export Plug-In . SVG Version: 6.00 Build 0)  -->
<svg version="1.1" fill="#35dea6" xmlns="http://www.w3.org/2000/svg" xmlns:xlink="http://www.w3.org/1999/xlink" x="0px" y="0px"
	 viewBox="0 0 1645.86 665.84" style="enable-background:new 0 0 1645.86 665.84;" xml:space="preserve">
<style type="text/css">
	<!-- .st0{fill:#DE3381;}
	.st1{fill:#48B9F1;}
	.st2{fill:#0B87C7;}
	.st3{fill:#1A4A8C;}
	.st4{fill:#36A9E1;}
	.st5{fill:#FFFFFF;}
	.st6{fill:none;stroke:#FF0000;stroke-miterlimit:10;}
	.st7{fill:none;stroke:#48B9F1;stroke-width:2.4807;stroke-miterlimit:10;}
	.st8{fill:none;stroke:#0B87C7;stroke-width:1.6033;stroke-miterlimit:10;}
	.st9{display:none;}
	.st10{display:inline;fill:none;stroke:#000000;stroke-miterlimit:10;}
	.st11{fill:#CFEEFF;}
	.st12{fill:none;stroke:#DE3381;stroke-miterlimit:10;}
	.st13{fill:none;stroke:#DE3381;stroke-width:0.9838;stroke-miterlimit:10;}
	.st14{fill:#DE3381;fill-opacity:0.12;stroke:#DE3381;stroke-miterlimit:10;}
	.st15{fill:#5ECAFF;stroke:#1A4A8C;stroke-miterlimit:10;}
	.st16{opacity:0.5;fill:#48B9F1;}
	.st17{fill:#ADE6FF;}
	.st18{fill:none;stroke:#48B9F1;stroke-width:0.6143;stroke-miterlimit:10;}
	.st19{fill:none;stroke:#48B9F1;stroke-width:0.4924;stroke-miterlimit:10;}
	.st20{fill:none;stroke:#48B9F1;stroke-width:5;stroke-miterlimit:10;}
	.st21{fill:none;stroke:#0B87C7;stroke-width:2.2717;stroke-miterlimit:10;}
	.st22{fill:#5E8ED1;}
	.st23{fill:#FF7DB8;}
	.st24{fill:none;stroke:#2771D4;stroke-width:2.678;stroke-miterlimit:10;}
	.st25{fill:none;stroke:#DE3381;stroke-width:6.3211;stroke-miterlimit:10;}
	.st26{fill:none;stroke:#48B9F1;stroke-width:6.3211;stroke-miterlimit:10;}
	.st27{fill:none;stroke:#0B87C7;stroke-width:2;stroke-miterlimit:10;}
	.st28{fill:#FFB3D5;}
	.st29{fill:#FF9CC8;}
	.st30{fill:#8AB8F7;stroke:#DE3381;stroke-width:1.8878;stroke-miterlimit:10;}
	.st31{fill:none;stroke:#DE3381;stroke-width:1.8878;stroke-linecap:round;stroke-miterlimit:10;}
	.st32{fill:none;stroke:#DE3381;stroke-width:1.8878;stroke-linecap:round;stroke-linejoin:round;stroke-miterlimit:10;}
	.st33{clip-path:url(#SVGID_4_);}
	.st34{fill:none;stroke:#DE3381;stroke-width:15.7313;stroke-linecap:round;stroke-linejoin:round;stroke-miterlimit:10;}
	.st35{fill:none;stroke:#1A4A8C;stroke-width:3.7755;stroke-linecap:round;stroke-linejoin:round;stroke-miterlimit:10;}
	.st36{fill:#0B87C7;stroke:#1A4A8C;stroke-width:1.7785;stroke-miterlimit:10;}
	.st37{fill:none;stroke:#1A4A8C;stroke-width:1.7785;stroke-linecap:round;stroke-miterlimit:10;}
	.st38{fill:none;stroke:#1A4A8C;stroke-width:1.7785;stroke-linecap:round;stroke-linejoin:round;stroke-miterlimit:10;}
	.st39{clip-path:url(#SVGID_6_);fill:none;stroke:#8AB8F7;stroke-width:29.6424;stroke-linecap:round;stroke-miterlimit:10;}
	.st40{fill:none;stroke:#1A4A8C;stroke-width:1.7785;stroke-miterlimit:10;}
	.st41{fill:#FC92C2;stroke:#1A4A8C;stroke-width:1.1636;stroke-miterlimit:10;}
	.st42{fill:#FC92C2;stroke:#1A4A8C;stroke-width:1.1636;stroke-linecap:round;stroke-miterlimit:10;}
	.st43{fill:#FC92C2;stroke:#1A4A8C;stroke-width:1.1636;stroke-linecap:round;stroke-linejoin:round;stroke-miterlimit:10;}
	.st44{fill:#48B9F1;stroke:#1A4A8C;stroke-width:1.1636;stroke-miterlimit:10;}
	.st45{fill:#48B9F1;stroke:#1A4A8C;stroke-width:1.1636;stroke-linecap:round;stroke-miterlimit:10;}
	.st46{fill:#48B9F1;stroke:#1A4A8C;stroke-width:1.1636;stroke-linecap:round;stroke-linejoin:round;stroke-miterlimit:10;}
	.st47{opacity:0.8;fill:#DBEAFF;}
	.st48{opacity:0.8;fill:#B3D2FF;}
	.st49{opacity:0.8;fill:#C4DCFF;}
	.st50{opacity:0.8;fill:#FFD6E8;}
	.st51{fill:#0C95DB;stroke:#1A4A8C;stroke-width:0.764;stroke-linecap:round;stroke-linejoin:round;stroke-miterlimit:10;}
	.st52{fill:#0C95DB;stroke:#1A4A8C;stroke-width:0.764;stroke-miterlimit:10;}
	.st53{fill:#0C95DB;stroke:#1A4A8C;stroke-width:0.764;stroke-linecap:round;stroke-miterlimit:10;}
	.st54{opacity:0.8;fill:#A1E0FF;}
	.st55{fill:none;stroke:#0B87C7;stroke-width:1.87;stroke-miterlimit:10;}
	.st56{fill:#48B9F1;stroke:#1A4A8C;stroke-width:2.4753;stroke-miterlimit:10;}
	.st57{fill:none;stroke:#1A4A8C;stroke-width:2.0994;stroke-linecap:round;stroke-miterlimit:10;}
	.st58{fill:#F06AA7;stroke:#1A4A8C;stroke-width:1.6932;stroke-miterlimit:10;}
	.st59{fill:none;stroke:#1A4A8C;stroke-width:1.436;stroke-linecap:round;stroke-miterlimit:10;}
	.st60{fill:#B5D7E8;stroke:#1A4A8C;stroke-width:2.1678;stroke-miterlimit:10;}
	.st61{fill:none;stroke:#1A4A8C;stroke-width:1.8386;stroke-linecap:round;stroke-miterlimit:10;}
	.st62{fill:#0B8DD1;stroke:#1A4A8C;stroke-width:1.6798;stroke-miterlimit:10;}
	.st63{fill:none;stroke:#1A4A8C;stroke-width:1.4247;stroke-linecap:round;stroke-miterlimit:10;}
	.st64{fill:#FFA6CD;stroke:#1A4A8C;stroke-width:2.0588;stroke-miterlimit:10;}
	.st65{fill:none;stroke:#1A4A8C;stroke-width:1.7462;stroke-linecap:round;stroke-miterlimit:10;}
	.st66{fill:#8AB8F7;stroke:#1A4A8C;stroke-width:2.4753;stroke-miterlimit:10;}
	.st67{fill:none;stroke:#1A4A8C;stroke-width:1.4475;stroke-linecap:round;stroke-miterlimit:10;}
	.st68{fill:#FF6BAD;stroke:#1A4A8C;stroke-width:1.6825;stroke-miterlimit:10;}
	.st69{fill:none;stroke:#1A4A8C;stroke-width:1.427;stroke-linecap:round;stroke-miterlimit:10;}
	.st70{fill:#ABE4FF;}
	.st71{fill:none;stroke:#0B87C7;stroke-width:3.3004;stroke-linecap:round;stroke-miterlimit:10;}
	.st72{clip-path:url(#SVGID_12_);fill:none;stroke:#DE3381;stroke-width:9.9011;stroke-linecap:round;stroke-miterlimit:10;}
	.st73{fill:#E3F6FF;}
	.st74{fill:#FF66AC;stroke:#215EB3;stroke-width:3;stroke-linecap:round;stroke-linejoin:round;stroke-miterlimit:10;}
	.st75{fill:#FFD1E6;stroke:#215EB3;stroke-width:3;stroke-linejoin:round;stroke-miterlimit:10;}
	.st76{fill:#EB3D8C;stroke:#215EB3;stroke-width:3;stroke-miterlimit:10;}
	.st77{fill:#FF96C6;stroke:#215EB3;stroke-width:3;stroke-linejoin:round;stroke-miterlimit:10;}
	.st78{fill:#1A4A8C;stroke:#215EB3;stroke-miterlimit:10;}
	.st79{fill:#0B87C7;stroke:#215EB3;stroke-miterlimit:10;}
	.st80{fill:#48B9F1;stroke:#215EB3;stroke-width:3;stroke-miterlimit:10;}
	.st81{fill:#48B9F1;stroke:#215EB3;stroke-width:3;stroke-linecap:round;stroke-miterlimit:10;}
	.st82{fill:#8AB8F7;stroke:#215EB3;stroke-width:3;stroke-linecap:round;stroke-linejoin:round;stroke-miterlimit:10;}
	.st83{fill:#0B87C7;stroke:#215EB3;stroke-width:3;stroke-miterlimit:10;}
	.st84{fill:#AFCEF7;stroke:#215EB3;stroke-width:3;stroke-linejoin:round;stroke-miterlimit:10;}
	.st85{fill:#DE3381;stroke:#215EB3;stroke-miterlimit:10;}
	.st86{fill:#FF66AC;stroke:#215EB3;stroke-miterlimit:10;}
	.st87{fill:#FF73B2;stroke:#215EB3;stroke-miterlimit:10;}
	.st88{fill:none;stroke:#215EB3;stroke-width:2;stroke-miterlimit:10;}
	.st89{fill:#FF75B4;stroke:#1A4A8C;stroke-width:3;stroke-miterlimit:10;}
	.st90{fill:none;stroke:#1A4A8C;stroke-width:3;stroke-miterlimit:10;}
	.st91{fill:#DE3381;stroke:#1A4A8C;stroke-width:3;stroke-miterlimit:10;}
	.st92{fill:#FFA8D0;}
	.st93{opacity:0.8;fill:#FFA8D0;}
	.st94{fill:#8AB8F7;stroke:#1A4A8C;stroke-width:3;stroke-miterlimit:10;}
	.st95{fill:#0B87C7;stroke:#1A4A8C;stroke-width:3;stroke-miterlimit:10;}
	.st96{fill:#D4E3F7;}
	.st97{opacity:0.8;fill:#D4E3F7;}
	.st98{fill:#8AB8F7;stroke:#0680BF;stroke-width:3;stroke-linecap:round;stroke-linejoin:round;stroke-miterlimit:10;}
	.st99{fill:#BAD7FF;}
	.st100{fill:#9EC7FF;}
	.st101{fill:none;stroke:#0B87C7;stroke-width:3;stroke-linecap:round;stroke-linejoin:round;stroke-miterlimit:10;}
	.st102{fill:#FF96C5;stroke:#0680BF;stroke-width:3;stroke-linecap:round;stroke-linejoin:round;stroke-miterlimit:10;}
	.st103{fill:#FFBADA;}
	.st104{fill:#FFABD2;}
	.st105{fill:#55AEDB;stroke:#0680BF;stroke-width:3;stroke-linecap:round;stroke-linejoin:round;stroke-miterlimit:10;}
	.st106{fill:#7ED2F2;}
	.st107{fill:#60BBE0;}
	.st108{fill:#0B87C7;stroke:#0B87C7;stroke-width:4;stroke-miterlimit:10;}
	.st109{fill:#8AB8F7;stroke:#0B87C7;stroke-width:3;stroke-miterlimit:10;}
	.st110{fill:none;stroke:#0B87C7;stroke-width:3;stroke-linecap:round;stroke-miterlimit:10;}
	.st111{fill:#2362BA;}
	.st112{fill:#48B9F1;stroke:#0B87C7;stroke-width:4;stroke-miterlimit:10;}
	.st113{fill:#FFC7E1;stroke:#DE3381;stroke-width:3;stroke-miterlimit:10;}
	.st114{fill:#FF9ECB;stroke:#DE3381;stroke-width:3;stroke-miterlimit:10;}
	.st115{fill:none;stroke:#DE3381;stroke-width:3;stroke-linecap:round;stroke-miterlimit:10;}
	.st116{fill:#DE3381;stroke:#DE3381;stroke-width:3;stroke-linejoin:round;stroke-miterlimit:10;}
	.st117{fill:#8AB8F7;stroke:#0B87C7;stroke-width:3;stroke-linejoin:round;stroke-miterlimit:10;}
	.st118{fill:#FFA6CF;stroke:#0B87C7;stroke-width:3;stroke-linejoin:round;stroke-miterlimit:10;}
	.st119{fill:#ADD0FF;}
	.st120{fill:#C1D7F7;}
	.st121{fill:#FFD6E9;}
	.st122{fill:#CCE1FF;}
	.st123{fill:#8AB8F7;}
	.st124{opacity:0.18;fill:#DE3381;}
	.st125{fill:none;stroke:#DE3381;stroke-width:0.9367;stroke-miterlimit:10;}
	.st126{fill:#E24A8F;}
	.st127{fill:#DE3381;fill-opacity:0.12;}
	.st128{fill:none;stroke:#DE3381;stroke-width:5.4384;stroke-miterlimit:10;}
	.st129{fill:#5ECAFF;}
	.st130{fill:#E6F6FF;stroke:#DBEBFF;stroke-width:3.6654;stroke-miterlimit:10;}
	.st131{fill:#E6F6FF;}
	.st132{fill:#DBEBFF;}
	.st133{fill:#FFE0EE;stroke:#E0EDFF;stroke-width:5.2027;stroke-miterlimit:10;}
	.st134{fill:#FFE0EE;}
	.st135{fill:#E0EDFF;}
	.st136{fill:#DBF2FF;stroke:#CCE2FF;stroke-width:3.6654;stroke-miterlimit:10;}
	.st137{fill:#DBF2FF;}
	.st138{fill:#CCE2FF;}
	.st139{fill:#9ED8F7;stroke:#9CC6FF;stroke-width:3.6654;stroke-miterlimit:10;}
	.st140{fill:#9ED8F7;}
	.st141{fill:#9CC6FF;}
	.st142{fill:#99DCFF;stroke:#91C0FF;stroke-width:4.0452;stroke-miterlimit:10;}
	.st143{fill:#99DCFF;}
	.st144{fill:#91C0FF;}
	.st145{fill:#FFA8D0;stroke:#A1C9FF;stroke-width:5.2027;stroke-miterlimit:10;}
	.st146{fill:#A1C9FF;}
	.st147{fill:#FFB8D8;stroke:#A1C9FF;stroke-width:5.2027;stroke-miterlimit:10;}
	.st148{fill:#FFB8D8;}
	.st149{opacity:0.2;}
	.st150{fill:#48B9F1;stroke:#1A4A8C;stroke-width:2.274;stroke-miterlimit:10;}
	.st151{fill:none;stroke:#1A4A8C;stroke-width:1.9286;stroke-linecap:round;stroke-miterlimit:10;}
	.st152{fill:#F06AA7;stroke:#1A4A8C;stroke-width:1.5555;stroke-miterlimit:10;}
	.st153{fill:none;stroke:#1A4A8C;stroke-width:1.3193;stroke-linecap:round;stroke-miterlimit:10;}
	.st154{fill:#B5D7E8;stroke:#1A4A8C;stroke-width:1.9915;stroke-miterlimit:10;}
	.st155{fill:none;stroke:#1A4A8C;stroke-width:1.6891;stroke-linecap:round;stroke-miterlimit:10;}
	.st156{fill:#0B8DD1;stroke:#1A4A8C;stroke-width:1.5432;stroke-miterlimit:10;}
	.st157{fill:none;stroke:#1A4A8C;stroke-width:1.3088;stroke-linecap:round;stroke-miterlimit:10;}
	.st158{fill:#FFA6CD;stroke:#1A4A8C;stroke-width:1.8914;stroke-miterlimit:10;}
	.st159{fill:none;stroke:#1A4A8C;stroke-width:1.6042;stroke-linecap:round;stroke-miterlimit:10;}
	.st160{fill:#8AB8F7;stroke:#1A4A8C;stroke-width:2.274;stroke-miterlimit:10;}
	.st161{fill:none;stroke:#1A4A8C;stroke-width:1.3298;stroke-linecap:round;stroke-miterlimit:10;}
	.st162{fill:#FF6BAD;stroke:#1A4A8C;stroke-width:1.5457;stroke-miterlimit:10;}
	.st163{fill:none;stroke:#1A4A8C;stroke-width:1.311;stroke-linecap:round;stroke-miterlimit:10;}
	.st164{fill:none;stroke:#0B87C7;stroke-width:3.032;stroke-linecap:round;stroke-miterlimit:10;}
	.st165{clip-path:url(#SVGID_14_);fill:none;stroke:#DE3381;stroke-width:9.0959;stroke-linecap:round;stroke-miterlimit:10;}
	.st166{fill:#FFA6CF;stroke:#0B87C7;stroke-width:5;stroke-linejoin:round;stroke-miterlimit:10;}
	.st167{fill:#FFA6CF;stroke:#0B87C7;stroke-width:4.2028;stroke-linejoin:round;stroke-miterlimit:10;}
	.st168{fill:#8AB8F7;stroke:#1A4A8C;stroke-width:5;stroke-miterlimit:10;}
	.st169{fill:none;stroke:#1A4A8C;stroke-width:5;stroke-miterlimit:10;}
	.st170{fill:#0B87C7;stroke:#1A4A8C;stroke-width:5;stroke-miterlimit:10;}
	.st171{fill:#FF75B4;stroke:#1A4A8C;stroke-width:5;stroke-miterlimit:10;}
	.st172{fill:#55AEDB;stroke:#0680BF;stroke-width:5;stroke-linecap:round;stroke-linejoin:round;stroke-miterlimit:10;}
	.st173{fill:none;stroke:#0B87C7;stroke-width:5;stroke-linecap:round;stroke-linejoin:round;stroke-miterlimit:10;}
	.st174{fill:#8AB8F7;stroke:#DE3381;stroke-width:5;stroke-miterlimit:10;}
	.st175{fill:none;stroke:#DE3381;stroke-width:5;stroke-linecap:round;stroke-miterlimit:10;}
	.st176{fill:none;stroke:#DE3381;stroke-width:5;stroke-linecap:round;stroke-linejoin:round;stroke-miterlimit:10;}
	.st177{clip-path:url(#SVGID_16_);}
	.st178{fill:none;stroke:#1A4A8C;stroke-width:5;stroke-linecap:round;stroke-linejoin:round;stroke-miterlimit:10;}
	.st179{fill:#8AB8F7;stroke:#DE3381;stroke-width:0.7994;stroke-miterlimit:10;}
	.st180{fill:none;stroke:#DE3381;stroke-width:0.7994;stroke-linecap:round;stroke-miterlimit:10;}
	.st181{fill:none;stroke:#DE3381;stroke-width:0.7994;stroke-linecap:round;stroke-linejoin:round;stroke-miterlimit:10;}
	.st182{clip-path:url(#SVGID_18_);}
	.st183{fill:none;stroke:#DE3381;stroke-width:6.662;stroke-linecap:round;stroke-linejoin:round;stroke-miterlimit:10;}
	.st184{fill:none;stroke:#1A4A8C;stroke-width:1.5989;stroke-linecap:round;stroke-linejoin:round;stroke-miterlimit:10;}
	.st185{fill:#48B9F1;stroke:#1A4A8C;stroke-width:1.7649;stroke-miterlimit:10;}
	.st186{fill:#48B9F1;stroke:#1A4A8C;stroke-width:1.7649;stroke-linecap:round;stroke-miterlimit:10;}
	.st187{fill:#48B9F1;stroke:#1A4A8C;stroke-width:1.7649;stroke-linecap:round;stroke-linejoin:round;stroke-miterlimit:10;}
	.st188{fill:#FF66AC;stroke:#215EB3;stroke-width:5;stroke-linecap:round;stroke-linejoin:round;stroke-miterlimit:10;}
	.st189{fill:#FFD1E6;stroke:#215EB3;stroke-width:5;stroke-linejoin:round;stroke-miterlimit:10;}
	.st190{fill:#EB3D8C;stroke:#215EB3;stroke-width:5;stroke-miterlimit:10;}
	.st191{fill:#FF96C6;stroke:#215EB3;stroke-width:5;stroke-linejoin:round;stroke-miterlimit:10;}
	.st192{fill:#1A4A8C;stroke:#215EB3;stroke-width:5;stroke-miterlimit:10;}
	.st193{fill:#0B87C7;stroke:#215EB3;stroke-width:5;stroke-miterlimit:10;}
	.st194{fill:#48B9F1;stroke:#215EB3;stroke-width:5;stroke-miterlimit:10;}
	.st195{fill:#48B9F1;stroke:#215EB3;stroke-width:5;stroke-linecap:round;stroke-miterlimit:10;}
	.st196{fill:#FF66AC;stroke:#215EB3;stroke-width:1.6332;stroke-linecap:round;stroke-linejoin:round;stroke-miterlimit:10;}
	.st197{fill:#FFD1E6;stroke:#215EB3;stroke-width:1.6332;stroke-linejoin:round;stroke-miterlimit:10;}
	.st198{fill:#EB3D8C;stroke:#215EB3;stroke-width:1.6332;stroke-miterlimit:10;}
	.st199{fill:#FF96C6;stroke:#215EB3;stroke-width:1.6332;stroke-linejoin:round;stroke-miterlimit:10;}
	.st200{fill:#1A4A8C;stroke:#215EB3;stroke-width:0.5444;stroke-miterlimit:10;}
	.st201{fill:#0B87C7;stroke:#215EB3;stroke-width:0.5444;stroke-miterlimit:10;}
	.st202{fill:#48B9F1;stroke:#215EB3;stroke-width:1.6332;stroke-miterlimit:10;}
	.st203{fill:#48B9F1;stroke:#215EB3;stroke-width:1.6332;stroke-linecap:round;stroke-miterlimit:10;}
	.st204{fill:#FC92C2;stroke:#1A4A8C;stroke-width:5;stroke-miterlimit:10;}
	.st205{fill:none;stroke:#1A4A8C;stroke-width:5;stroke-linecap:round;stroke-miterlimit:10;}
	.st206{clip-path:url(#SVGID_22_);fill:none;stroke:#8AB8F7;stroke-width:5;stroke-linecap:round;stroke-miterlimit:10;}
	.st207{fill:none;stroke:#2771D4;stroke-width:0.3105;stroke-miterlimit:10;}
	.st208{fill:#8AB8F7;stroke:#0680BF;stroke-width:2.1766;stroke-linecap:round;stroke-linejoin:round;stroke-miterlimit:10;}
	.st209{fill:none;stroke:#0B87C7;stroke-width:2.1766;stroke-linecap:round;stroke-linejoin:round;stroke-miterlimit:10;}
	.st210{fill:#FFC7E1;stroke:#DE3381;stroke-width:5;stroke-miterlimit:10;}
	.st211{fill:#FF9ECB;stroke:#DE3381;stroke-width:5;stroke-miterlimit:10;}
	.st212{fill:#DE3381;stroke:#DE3381;stroke-width:5;stroke-linejoin:round;stroke-miterlimit:10;}
	.st213{fill:#48B9F1;stroke:#1A4A8C;stroke-width:5;stroke-miterlimit:10;}
	.st214{fill:#F06AA7;stroke:#1A4A8C;stroke-width:5;stroke-miterlimit:10;}
	.st215{fill:#B5D7E8;stroke:#1A4A8C;stroke-width:5;stroke-miterlimit:10;}
	.st216{fill:#0B8DD1;stroke:#1A4A8C;stroke-width:5;stroke-miterlimit:10;}
	.st217{fill:#FFA6CD;stroke:#1A4A8C;stroke-width:5;stroke-miterlimit:10;}
	.st218{fill:#FF6BAD;stroke:#1A4A8C;stroke-width:5;stroke-miterlimit:10;}
	.st219{fill:none;stroke:#0B87C7;stroke-width:5;stroke-linecap:round;stroke-miterlimit:10;}
	.st220{clip-path:url(#SVGID_24_);fill:none;stroke:#DE3381;stroke-width:5;stroke-linecap:round;stroke-miterlimit:10;}
	.st221{fill:#8AB8F7;stroke:#0B87C7;stroke-width:5;stroke-linejoin:round;stroke-miterlimit:10;}
	.st222{fill:#DE3381;stroke:#1A4A8C;stroke-width:5;stroke-miterlimit:10;}
	.st223{fill:#8AB8F7;stroke:#DE3381;stroke-width:1.5989;stroke-miterlimit:10;}
	.st224{fill:none;stroke:#DE3381;stroke-width:1.5989;stroke-linecap:round;stroke-miterlimit:10;}
	.st225{fill:none;stroke:#DE3381;stroke-width:1.5989;stroke-linecap:round;stroke-linejoin:round;stroke-miterlimit:10;}
	.st226{clip-path:url(#SVGID_26_);}
	.st227{fill:none;stroke:#DE3381;stroke-width:13.324;stroke-linecap:round;stroke-linejoin:round;stroke-miterlimit:10;}
	.st228{fill:none;stroke:#1A4A8C;stroke-width:3.1978;stroke-linecap:round;stroke-linejoin:round;stroke-miterlimit:10;}
	.st229{fill:#48B9F1;stroke:#1A4A8C;stroke-width:1.0806;stroke-miterlimit:10;}
	.st230{fill:#48B9F1;stroke:#1A4A8C;stroke-width:1.0806;stroke-linecap:round;stroke-miterlimit:10;}
	.st231{fill:#48B9F1;stroke:#1A4A8C;stroke-width:1.0806;stroke-linecap:round;stroke-linejoin:round;stroke-miterlimit:10;}
	.st232{fill:#8AB8F7;stroke:#215EB3;stroke-width:5;stroke-linecap:round;stroke-linejoin:round;stroke-miterlimit:10;}
	.st233{fill:#AFCEF7;stroke:#215EB3;stroke-width:5;stroke-linejoin:round;stroke-miterlimit:10;}
	.st234{fill:#DE3381;stroke:#215EB3;stroke-width:5;stroke-miterlimit:10;}
	.st235{fill:#FF66AC;stroke:#215EB3;stroke-width:5;stroke-miterlimit:10;}
	.st236{fill:#FF73B2;stroke:#215EB3;stroke-width:5;stroke-miterlimit:10;}
	.st237{fill:none;stroke:#2771D4;stroke-width:0.9742;stroke-miterlimit:10;}
	.st238{fill:#8AB8F7;stroke:#0680BF;stroke-width:5;stroke-linecap:round;stroke-linejoin:round;stroke-miterlimit:10;}
	.st239{clip-path:url(#SVGID_30_);}
	.st240{fill:none;stroke:#DE3381;stroke-width:25;stroke-linecap:round;stroke-linejoin:round;stroke-miterlimit:10;}
	.st241{fill:#0B87C7;stroke:#0B87C7;stroke-width:5;stroke-miterlimit:10;}
	.st242{fill:#8AB8F7;stroke:#0B87C7;stroke-width:5;stroke-miterlimit:10;}
	.st243{fill:#48B9F1;stroke:#0B87C7;stroke-width:5;stroke-miterlimit:10;}
	.st244{fill:#FFA6CF;stroke:#0B87C7;stroke-width:1.6094;stroke-linejoin:round;stroke-miterlimit:10;}
	.st245{fill:#FFC7E1;stroke:#DE3381;stroke-width:1.5694;stroke-miterlimit:10;}
	.st246{fill:#FF9ECB;stroke:#DE3381;stroke-width:1.5694;stroke-miterlimit:10;}
	.st247{fill:none;stroke:#DE3381;stroke-width:1.5694;stroke-linecap:round;stroke-miterlimit:10;}
	.st248{fill:#DE3381;stroke:#DE3381;stroke-width:1.5694;stroke-linejoin:round;stroke-miterlimit:10;}
	.st249{fill:#55AEDB;stroke:#0680BF;stroke-width:1.5522;stroke-linecap:round;stroke-linejoin:round;stroke-miterlimit:10;}
	.st250{fill:none;stroke:#0B87C7;stroke-width:1.5522;stroke-linecap:round;stroke-linejoin:round;stroke-miterlimit:10;}
	.st251{fill:#1D71B8;}
	.st252{fill:#48B9F1;stroke:#1A4A8C;stroke-miterlimit:10;}
	.st253{display:inline;}
	.st254{fill:#FFE3F0;stroke:#1A4A8C;stroke-miterlimit:10;}
	.st255{fill:#D9EEFF;stroke:#1A4A8C;stroke-miterlimit:10;}
	.st256{fill:#FFC9E2;}
	.st257{fill:#C4ECFF;}
	.st258{fill:#F24191;}
	.st259{fill:#FF529F;}
	.st260{fill:#FF63A9;}
	.st261{fill:#FF6EAE;}
	.st262{fill:#FF7AB5;}
	.st263{fill:#FF8CBE;}
	.st264{fill:#FFA3CA;}
	.st265{fill:#8AB8F7;stroke:#0B87C7;stroke-width:5.0442;stroke-linejoin:round;stroke-miterlimit:10;}
	.st266{fill:none;stroke:#48B9F1;stroke-width:4.2199;stroke-miterlimit:10;}
	.st267{fill:none;stroke:#48B9F1;stroke-width:3.3825;stroke-miterlimit:10;}
	.st268{clip-path:url(#SVGID_36_);}
	.st269{opacity:0.2;clip-path:url(#SVGID_38_);}
	.st270{clip-path:url(#SVGID_40_);fill:none;stroke:#DE3381;stroke-width:9.0959;stroke-linecap:round;stroke-miterlimit:10;}
	.st271{clip-path:url(#SVGID_42_);}
	.st272{clip-path:url(#SVGID_44_);}
	.st273{clip-path:url(#SVGID_48_);fill:none;stroke:#8AB8F7;stroke-width:5;stroke-linecap:round;stroke-miterlimit:10;}
	.st274{clip-path:url(#SVGID_50_);fill:none;stroke:#DE3381;stroke-width:5;stroke-linecap:round;stroke-miterlimit:10;}
	.st275{clip-path:url(#SVGID_52_);}
	.st276{clip-path:url(#SVGID_56_);}
	.st277{fill:#FFFFFF;stroke:#DE3381;stroke-width:2.0266;stroke-miterlimit:10;}
	.st278{fill:none;stroke:#1A4A8C;stroke-width:1.9243;stroke-miterlimit:10;} -->
</style>
<g id="Слой_1">
	<g>
		<g>
			<path class="st129" d="M675.13,390.1c2.57-2,3.87-4.76,3.87-8.28c-0.24-3.28-1.47-5.87-3.7-7.74c-2-1.52-6.69-3.87-14.08-7.04
				l-4.58-1.94c-9.04-4.11-15.67-8.8-19.9-14.09c-4.81-6.1-7.21-13.73-7.21-22.89c0-11.03,3.46-20.01,10.39-26.93
				c7.04-7.04,15.96-10.56,26.76-10.56c12.08,0,23.06,3.82,32.92,11.44c1.29,0.94,2.11,2.23,2.46,3.87
				c0.47,1.64,0.36,3.17-0.35,4.58l-5.11,10.39c-1.29,2.58-3.28,3.87-5.98,3.87c-1.41,0-2.76-0.35-4.05-1.06l-0.18-0.18
				c-4.11-2.7-8.1-4.69-11.97-5.98c-1.52-0.47-3-0.82-4.4-1.06c-1.17-0.12-2.23-0.18-3.16-0.18c-7.87,0-11.8,3.58-11.8,10.74
				c0,3.05,1,5.63,2.99,7.75c2.46,2.47,6.98,5.17,13.55,8.1c0.47,0.12,4.05,1.58,10.74,4.4c14.79,6.46,22.18,17.55,22.18,33.27
				c0,11.39-3.88,20.66-11.62,27.82c-7.51,7.04-16.9,10.56-28.17,10.56c-11.97,0-23.13-3.81-33.45-11.44
				c-1.29-0.82-2.11-2.05-2.46-3.7c-0.46-1.76-0.36-3.34,0.36-4.75l5.46-10.39c1.29-2.58,3.23-3.87,5.81-3.87
				c1.52,0,2.87,0.41,4.05,1.23h0.17c7.28,4.81,13.91,7.22,19.89,7.22C669.02,393.26,672.55,392.21,675.13,390.1z"/>
			<path class="st129" d="M815.61,368.97c0,13.62-3.99,25.18-11.97,34.69c-8.45,10.21-19.31,15.31-32.58,15.31
				c-13.38,0-24.29-5.1-32.74-15.31c-7.99-9.51-11.98-21.07-11.98-34.69V299.6c0-1.99,0.65-3.63,1.94-4.93
				c1.18-1.29,2.69-1.94,4.58-1.94h12.5c1.87,0,3.46,0.65,4.75,1.94c1.29,1.41,1.94,3.05,1.94,4.93v70.25
				c0,6.93,1.7,12.38,5.1,16.37c3.52,4.11,8.16,6.16,13.91,6.16c6.1,0,10.86-2.29,14.26-6.87c3.05-4.11,4.57-9.33,4.57-15.67V299.6
				c0-1.87,0.64-3.52,1.94-4.93c1.29-1.29,2.87-1.94,4.76-1.94h12.5c1.87,0,3.4,0.65,4.57,1.94c1.29,1.29,1.94,2.93,1.94,4.93
				V368.97z"/>
			<path class="st129" d="M906.62,362.63c-7.74,8.34-17.14,12.5-28.17,12.5h-12.15v34.5c0,4.7-2.17,7.04-6.51,7.04h-12.5
				c-4.35,0-6.52-2.35-6.52-7.04V303.12c0-2.82,0.94-5.28,2.82-7.4c2-2.11,4.4-3.17,7.22-3.17h27.64c10.91,0,20.3,4.17,28.17,12.5
				c7.63,8.1,11.45,17.67,11.45,28.7C918.07,344.91,914.26,354.53,906.62,362.63z M887.96,323.02c-2.7-3.05-6.16-4.58-10.39-4.58
				h-11.27v30.81h11.27c3.99,0,7.45-1.52,10.39-4.58c2.93-3.05,4.4-6.69,4.4-10.91S890.9,325.95,887.96,323.02z"/>
			<path class="st129" d="M1003.46,362.63c-7.75,8.34-17.14,12.5-28.17,12.5h-12.15v34.5c0,4.7-2.17,7.04-6.52,7.04h-12.5
				c-4.34,0-6.51-2.35-6.51-7.04V303.12c0-2.82,0.94-5.28,2.82-7.4c2-2.11,4.4-3.17,7.22-3.17h27.64c10.91,0,20.3,4.17,28.17,12.5
				c7.62,8.1,11.44,17.67,11.44,28.7C1014.9,344.91,1011.08,354.53,1003.46,362.63z M984.8,323.02c-2.71-3.05-6.17-4.58-10.39-4.58
				h-11.26v30.81h11.26c3.99,0,7.45-1.52,10.39-4.58c2.93-3.05,4.4-6.69,4.4-10.91S987.72,325.95,984.8,323.02z"/>
			<path class="st129" d="M1061.2,318.79v20.77h26.93c1.87,0,3.46,0.65,4.76,1.94c1.29,1.41,1.93,3.05,1.93,4.93v11.8
				c0,1.88-0.64,3.52-1.93,4.93c-1.3,1.29-2.89,1.94-4.76,1.94h-26.93v25.35h37.33c1.87,0,3.46,0.7,4.75,2.11
				c1.29,1.3,1.94,2.94,1.94,4.93v12.15c0,2-0.65,3.7-1.94,5.11c-1.29,1.29-2.87,1.94-4.75,1.94h-52.99c-2.82,0-5.22-1.06-7.22-3.17
				c-1.87-2.11-2.82-4.58-2.82-7.4V303.12c0-2.93,1-5.4,3-7.4c1.76-2.11,4.1-3.17,7.04-3.17h52.99c1.87,0,3.46,0.65,4.75,1.94
				c1.29,1.41,1.94,3.11,1.94,5.1v12.15c0,2-0.65,3.64-1.94,4.93c-1.29,1.41-2.87,2.11-4.75,2.11H1061.2z"/>
			<path class="st129" d="M1209.79,372.14c0,12.68-4.23,23.59-12.68,32.75c-8.68,9.39-19.31,14.08-31.86,14.08
				c-12.56,0-23.18-4.69-31.86-14.08c-8.45-9.16-12.68-20.07-12.68-32.75v-34.86c0-12.56,4.28-23.42,12.86-32.57
				c8.68-9.39,19.24-14.09,31.69-14.09c12.44,0,23.06,4.7,31.86,14.09c8.45,9.15,12.68,20.01,12.68,32.57V372.14z M1184.08,337.28
				c0-5.4-1.76-10.09-5.28-14.09c-3.75-4.22-8.27-6.34-13.55-6.34c-5.28,0-9.74,2.11-13.38,6.34c-3.64,4.11-5.46,8.8-5.46,14.09
				v34.86c0,5.28,1.82,9.98,5.46,14.09c3.75,4.34,8.21,6.51,13.38,6.51c5.28,0,9.8-2.11,13.55-6.34c3.52-4.11,5.28-8.86,5.28-14.26
				V337.28z"/>
			<path class="st129" d="M1297.64,362.63c-7.75,8.34-17.14,12.5-28.17,12.5h-12.15v34.5c0,4.7-2.17,7.04-6.52,7.04h-12.5
				c-4.34,0-6.51-2.35-6.51-7.04V303.12c0-2.82,0.94-5.28,2.82-7.4c2-2.11,4.4-3.17,7.22-3.17h27.64c10.91,0,20.3,4.17,28.17,12.5
				c7.62,8.1,11.44,17.67,11.44,28.7C1309.08,344.91,1305.26,354.53,1297.64,362.63z M1278.98,323.02
				c-2.71-3.05-6.17-4.58-10.39-4.58h-11.26v30.81h11.26c3.99,0,7.45-1.52,10.39-4.58c2.93-3.05,4.4-6.69,4.4-10.91
				S1281.91,325.95,1278.98,323.02z"/>
			<path class="st129" d="M1347.63,292.56c1.87,0,3.46,0.65,4.75,1.94c1.29,1.41,1.94,3.11,1.94,5.1v90.85h32.75
				c1.88,0,3.4,0.7,4.57,2.11c1.29,1.3,1.94,2.94,1.94,4.93v12.15c0,4.7-2.17,7.04-6.52,7.04h-48.41c-2.82,0-5.22-1.06-7.22-3.17
				c-1.88-2.11-2.82-4.58-2.82-7.4V299.6c0-1.99,0.65-3.7,1.94-5.1c1.29-1.29,2.88-1.94,4.76-1.94H1347.63z"/>
			<path class="st129" d="M1435.83,318.79v20.77h26.94c1.87,0,3.46,0.65,4.75,1.94c1.29,1.41,1.94,3.05,1.94,4.93v11.8
				c0,1.88-0.64,3.52-1.94,4.93c-1.29,1.29-2.88,1.94-4.75,1.94h-26.94v25.35h37.33c1.88,0,3.46,0.7,4.75,2.11
				c1.29,1.3,1.94,2.94,1.94,4.93v12.15c0,2-0.66,3.7-1.94,5.11c-1.29,1.29-2.87,1.94-4.75,1.94h-52.99c-2.81,0-5.22-1.06-7.21-3.17
				c-1.88-2.11-2.82-4.58-2.82-7.4V303.12c0-2.93,1-5.4,2.99-7.4c1.76-2.11,4.1-3.17,7.04-3.17h52.99c1.88,0,3.46,0.65,4.75,1.94
				c1.29,1.41,1.94,3.11,1.94,5.1v12.15c0,2-0.66,3.64-1.94,4.93c-1.29,1.41-2.87,2.11-4.75,2.11H1435.83z"/>
		</g>
		<g>
			<g>
				<path class="st129" d="M400.22,303.74c18.91,23.53,48.63,39.06,81.15,42.84l12.23,0.54c3.64,0.26,7.38,0.39,11.19,0.39
					c3.54,0,6.91-0.14,10.2-0.34V273.4H390.14v27.73h7.98L400.22,303.74z"/>
				<path class="st129" d="M515,377.72V361.2c-3.34,0.19-6.72,0.32-10.2,0.32c-1.98,0-3.95-0.03-5.89-0.1l-5.83,0.01
					c-39.98-1.02-77.69-18.26-101.61-46.3h-1.34v61.53c-27.19,21.85-45.26,57.7-46.3,98.5c0.11-0.05-0.08,7.56-0.08,11.54
					c0,39.77,13.78,72,30.79,72c10.53,0,19.81-2.58,25.37-21.43c5.55,18.85,14.84,21.43,25.37,21.43c11.08,0,20.79-3.92,26.22-24.47
					c5.42,20.55,15.13,24.47,26.22,24.47c11.03,0,20.7-3.79,26.13-24.17c5.3,21.76,15.29,26.67,26.77,26.67
					c17,0,30.79-32.24,30.79-72c0-10.06-0.89-19.63-2.48-28.32C554.61,426.69,538.26,397.02,515,377.72z"/>
			</g>
			<g>
				<path class="st129" d="M291.5,308.13h4.63v-8.96l2.62-2.1c23.56-18.93,39.1-48.71,42.85-81.29l-0.01,0l0.53-12.09
					c0.25-3.65,0.39-7.39,0.39-11.2c0-3.18-0.11-6.23-0.28-9.22H291.5V308.13z"/>
				<path class="st129" d="M576.8,220.57c0-11.03-3.79-20.7-24.17-26.13c21.76-5.3,26.67-15.29,26.67-26.77
					c0-17-32.24-30.79-72-30.79c-10.06,0-19.63,0.88-28.32,2.48c-34.18,4.3-63.85,20.64-83.15,43.91h-39.56
					c0.15,3.02,0.25,6.09,0.25,9.22c0,2.02-0.03,4.03-0.1,6.01l0.02,5.7c-1.02,39.99-18.26,77.69-46.3,101.61v2.31h84.63
					c21.85,27.19,57.7,45.26,98.5,46.3c-0.05-0.11-0.1-0.22-0.15-0.33c3.8,0.27,7.7,0.41,11.68,0.41c39.77,0,72-13.78,72-30.79
					c0-10.53-2.58-19.81-21.43-25.37c18.85-5.55,21.43-14.84,21.43-25.37c0-11.08-3.92-20.79-24.47-26.21
					C572.88,241.36,576.8,231.65,576.8,220.57z"/>
			</g>
			<g>
				<path class="st129" d="M178.27,301.46V326c0.79-0.01,1.56-0.05,2.36-0.05c1.71,0,4.08,0.03,6.25,0.06
					c0.49,0.01,0.97,0.02,1.43,0.02l0.06-0.1l3.98,0.1c39.98,1.02,77.69,18.26,101.61,46.3h9.17v-69.81
					c27.19-21.85,45.26-57.7,46.3-98.5c-0.11,0.05-0.22,0.1-0.33,0.15c0.27-3.8,0.41-7.7,0.41-11.68c0-39.77-13.78-72-30.79-72
					c-10.53,0-19.81,2.58-25.37,21.43c-5.55-18.85-14.84-21.43-25.37-21.43c-11.08,0-20.79,3.92-26.22,24.47
					c-5.42-20.55-15.13-24.47-26.22-24.47c-11.03,0-20.7,3.79-26.13,24.17c-5.3-21.76-15.29-26.67-26.77-26.67
					c-17,0-30.78,32.24-30.78,72c0,10.06,0.88,19.63,2.48,28.32C138.66,252.49,155,282.16,178.27,301.46z"/>
			</g>
			<path class="st129" d="M336.75,486.7c0-1.71,0.03-4.09,0.07-6.25c0.01-0.47,0.01-0.93,0.02-1.36l-0.1-0.06l0.1-4.04
				c0.94-36.87,15.8-71.66,40.08-95.64h-86.24c-21.85-27.19-57.7-45.26-98.5-46.3c0.05,0.11-7.56-0.08-11.54-0.08
				c-39.77,0-72,13.78-72,30.79c0,10.53,2.58,19.81,21.43,25.37c-18.85,5.55-21.43,14.84-21.43,25.37
				c0,11.08,3.92,20.79,24.47,26.21c-20.55,5.42-24.47,15.13-24.47,26.21c0,11.03,3.79,20.7,24.17,26.13
				c-21.76,5.3-26.67,15.3-26.67,26.77c0,17,32.24,30.79,72,30.79c10.06,0,19.63-0.88,28.32-2.48c34.18-4.3,63.85-20.64,83.15-43.91
				h48.02C337.06,498.6,336.75,492.76,336.75,486.7z"/>
		</g>
	</g>
</g>
<g id="Слой_2">
	<g id="Favorite">
	</g>
</g>
</svg>
