<?xml version="1.0" encoding="utf-8"?>
<!-- Generator: Adobe Illustrator 23.1.0, SVG Export Plug-In . SVG Version: 6.00 Build 0)  -->
<svg version="1.1" xmlns="http://www.w3.org/2000/svg" xmlns:xlink="http://www.w3.org/1999/xlink" x="0px" y="0px"
	 viewBox="0 0 1356 1492" style="enable-background:new 0 0 1356 1492;" xml:space="preserve">
<style type="text/css">
	.st0{fill:#33DEA7;}
	.st1{fill:#4890F1;}
	.st2{fill:#0B59C7;}
	.st3{fill:#1A328C;}
	.st4{display:none;}
	.st5{display:inline;fill:none;stroke:#000000;stroke-miterlimit:10;}
	.st6{fill:#CFE2FF;}
	.st7{fill:none;stroke:#34E2AA;stroke-width:0.4683;stroke-miterlimit:10;}
	.st8{fill:#33DEA7;fill-opacity:0.12;stroke:#34E2AA;stroke-width:0.4683;stroke-miterlimit:10;}
	.st9{fill:#FFFFFF;}
	.st10{fill:none;stroke:#0B5BCB;stroke-width:1.1157;stroke-miterlimit:10;}
	.st11{fill:#FFB87D;stroke:#0655C3;stroke-width:1.4733;stroke-linecap:round;stroke-linejoin:round;stroke-miterlimit:10;}
	.st12{fill:#FFE3CC;}
	.st13{fill:none;stroke:#0B5BCB;stroke-width:1.4733;stroke-linecap:round;stroke-linejoin:round;stroke-miterlimit:10;}
	.st14{fill:#34E2AA;stroke:#1B3390;stroke-width:1.4733;stroke-miterlimit:10;}
	.st15{fill:#BAFFE9;}
	.st16{fill:#ABFFE4;}
	.st17{fill:#5790DF;stroke:#0655C3;stroke-width:1.4733;stroke-linecap:round;stroke-linejoin:round;stroke-miterlimit:10;}
	.st18{fill:#80B9F6;}
	.st19{fill:#629FE4;}
	.st20{fill:none;stroke:#0B5BCB;stroke-width:0.9184;stroke-miterlimit:10;}
	.st21{fill:none;stroke:#0B5BCB;stroke-width:1.13;stroke-miterlimit:10;}
	.st22{fill:#1B3390;}
	.st23{fill:#8CA4FB;stroke:#0B5BCB;stroke-width:1.4923;stroke-linejoin:round;stroke-miterlimit:10;}
	.st24{fill:#69FFC7;stroke:#0B5BCB;stroke-width:1.4923;stroke-linejoin:round;stroke-miterlimit:10;}
	.st25{fill:#FFB87D;stroke:#0B5BCB;stroke-width:1.4923;stroke-linejoin:round;stroke-miterlimit:10;}
	.st26{fill:none;stroke:#1C3CB7;stroke-width:0.9948;stroke-miterlimit:10;}
	.st27{fill:#ADBEFF;}
	.st28{fill:#FFEAD9;}
	.st29{fill:#D6FFF4;}
	.st30{fill:#CCD6FF;}
	.st31{opacity:0.5;fill:#4992F5;}
	.st32{fill:#4992F5;}
	.st33{fill:#0B5BCB;}
	.st34{fill:none;stroke:#4992F5;stroke-width:0.3642;stroke-miterlimit:10;}
	.st35{fill:none;stroke:#4992F5;stroke-width:0.2919;stroke-miterlimit:10;}
	.st36{fill:none;stroke:#4992F5;stroke-width:3.4843;stroke-miterlimit:10;}
	.st37{fill:#FF8B2B;}
	.st38{fill:none;stroke:#34E2AA;stroke-width:0.2693;stroke-miterlimit:10;}
	.st39{fill:#34E2AA;stroke:#1B3390;stroke-width:0.6401;stroke-miterlimit:10;}
	.st40{opacity:0.55;fill:none;stroke:#FF8B2B;stroke-width:2.508;stroke-miterlimit:10;}
	.st41{fill:#ADD2FF;}
	.st42{fill:#2EC897;}
	.st43{fill:none;stroke:#0B5BCB;stroke-width:1.0846;stroke-miterlimit:10;}
	.st44{fill:#FFB87D;}
	.st45{fill:none;stroke:#284DD8;stroke-width:1.2785;stroke-miterlimit:10;}
	.st46{fill:none;stroke:#0B5BCB;stroke-width:0.9548;stroke-miterlimit:10;}
	.st47{fill:#FFEBC9;}
	.st48{fill:none;stroke:#0B5BCB;stroke-width:1.1335;stroke-miterlimit:10;}
	.st49{fill:#6078D5;}
	.st50{fill:#8CA4FB;stroke:#1B3390;stroke-width:0.9419;stroke-miterlimit:10;}
	.st51{fill:none;stroke:#1B3390;stroke-width:0.9979;stroke-miterlimit:10;}
	.st52{fill:none;stroke:#34E2AA;stroke-width:0.9419;stroke-linecap:round;stroke-miterlimit:10;}
	.st53{fill:none;stroke:#34E2AA;stroke-width:0.9419;stroke-linecap:round;stroke-linejoin:round;stroke-miterlimit:10;}
	.st54{clip-path:url(#SVGID_4_);}
	.st55{fill:none;stroke:#F98600;stroke-width:7.8494;stroke-linecap:round;stroke-linejoin:round;stroke-miterlimit:10;}
	.st56{fill:none;stroke:#1B3390;stroke-width:1.8838;stroke-linecap:round;stroke-linejoin:round;stroke-miterlimit:10;}
	.st57{fill:#0B5BCB;stroke:#1B3390;stroke-width:0.8874;stroke-miterlimit:10;}
	.st58{fill:none;stroke:#1B3390;stroke-width:0.8874;stroke-linecap:round;stroke-miterlimit:10;}
	.st59{fill:none;stroke:#1B3390;stroke-width:0.8874;stroke-linecap:round;stroke-linejoin:round;stroke-miterlimit:10;}
	.st60{clip-path:url(#SVGID_6_);fill:none;stroke:#5FECBF;stroke-width:14.7905;stroke-linecap:round;stroke-miterlimit:10;}
	.st61{fill:none;stroke:#1B3390;stroke-width:0.8874;stroke-miterlimit:10;}
	.st62{fill:#34E2AA;stroke:#1B3390;stroke-width:0.5806;stroke-miterlimit:10;}
	.st63{fill:#94FFCC;stroke:#1B3390;stroke-width:0.5806;stroke-linecap:round;stroke-miterlimit:10;}
	.st64{fill:#94FFCC;stroke:#1B3390;stroke-width:0.5806;stroke-linecap:round;stroke-linejoin:round;stroke-miterlimit:10;}
	.st65{fill:#FFB87D;stroke:#1B3390;stroke-width:0.5806;stroke-miterlimit:10;}
	.st66{fill:#4992F5;stroke:#1B3390;stroke-width:0.5806;stroke-linecap:round;stroke-miterlimit:10;}
	.st67{fill:#4992F5;stroke:#1B3390;stroke-width:0.5806;stroke-linecap:round;stroke-linejoin:round;stroke-miterlimit:10;}
	.st68{fill:#FFB87D;stroke:#1B3390;stroke-width:0.5806;stroke-linecap:round;stroke-miterlimit:10;}
	.st69{fill:#FFB87D;stroke:#1B3390;stroke-width:0.5806;stroke-linecap:round;stroke-linejoin:round;stroke-miterlimit:10;}
	.st70{opacity:0.8;fill:#DBE2FF;}
	.st71{opacity:0.8;fill:#B3C2FF;}
	.st72{opacity:0.8;fill:#FFF3E8;}
	.st73{opacity:0.8;fill:#D6FFF9;}
	.st74{fill:#0C65DF;stroke:#1B3390;stroke-width:0.3812;stroke-linecap:round;stroke-linejoin:round;stroke-miterlimit:10;}
	.st75{fill:#0C65DF;stroke:#1B3390;stroke-width:0.3812;stroke-miterlimit:10;}
	.st76{fill:#0C65DF;stroke:#1B3390;stroke-width:0.3812;stroke-linecap:round;stroke-miterlimit:10;}
	.st77{opacity:0.8;fill:#A1C9FF;}
	.st78{fill:none;stroke:#0B5BCB;stroke-width:0.9331;stroke-miterlimit:10;}
	.st79{fill:none;stroke:#0B5BCB;stroke-width:1.1025;stroke-miterlimit:10;}
	.st80{fill:#4992F5;stroke:#1B3390;stroke-width:1.2013;stroke-miterlimit:10;}
	.st81{fill:none;stroke:#1B3390;stroke-width:1.0189;stroke-linecap:round;stroke-miterlimit:10;}
	.st82{fill:#6CF4BC;stroke:#1B3390;stroke-width:0.8217;stroke-miterlimit:10;}
	.st83{fill:none;stroke:#1B3390;stroke-width:0.697;stroke-linecap:round;stroke-miterlimit:10;}
	.st84{fill:#FFB87D;stroke:#1B3390;stroke-width:1.0521;stroke-miterlimit:10;}
	.st85{fill:none;stroke:#1B3390;stroke-width:0.8923;stroke-linecap:round;stroke-miterlimit:10;}
	.st86{fill:#0B5FD5;stroke:#1B3390;stroke-width:0.8152;stroke-miterlimit:10;}
	.st87{fill:none;stroke:#1B3390;stroke-width:0.6914;stroke-linecap:round;stroke-miterlimit:10;}
	.st88{fill:#A6FFE1;stroke:#1B3390;stroke-width:0.9992;stroke-miterlimit:10;}
	.st89{fill:none;stroke:#1B3390;stroke-width:0.8475;stroke-linecap:round;stroke-miterlimit:10;}
	.st90{fill:#FF8B2B;stroke:#1B3390;stroke-width:1.2013;stroke-miterlimit:10;}
	.st91{fill:#34E2AA;stroke:#1B3390;stroke-width:1.0521;stroke-miterlimit:10;}
	.st92{fill:none;stroke:#1B3390;stroke-width:0.7025;stroke-linecap:round;stroke-miterlimit:10;}
	.st93{fill:#FFB87D;stroke:#1B3390;stroke-width:0.8166;stroke-miterlimit:10;}
	.st94{fill:none;stroke:#1B3390;stroke-width:0.6926;stroke-linecap:round;stroke-miterlimit:10;}
	.st95{fill:#ABD0FF;}
	.st96{fill:none;stroke:#0B5BCB;stroke-width:1.6018;stroke-linecap:round;stroke-miterlimit:10;}
	.st97{fill:#E3EFFF;}
	.st98{clip-path:url(#SVGID_8_);fill:none;stroke:#FF8B2B;stroke-width:4.8053;stroke-linecap:round;stroke-miterlimit:10;}
	.st99{fill:none;stroke:#0B5BCB;stroke-width:0.9707;stroke-miterlimit:10;}
	.st100{fill:none;stroke:#0B5BCB;stroke-width:1.1455;stroke-miterlimit:10;}
	.st101{fill:#FFB87D;stroke:#1C3CB7;stroke-width:1.5128;stroke-linecap:round;stroke-linejoin:round;stroke-miterlimit:10;}
	.st102{fill:#FFEED1;stroke:#1C3CB7;stroke-width:1.5128;stroke-linejoin:round;stroke-miterlimit:10;}
	.st103{fill:#FF8B2B;stroke:#1C3CB7;stroke-width:1.5128;stroke-miterlimit:10;}
	.st104{fill:#FFE2C9;stroke:#1C3CB7;stroke-width:1.5128;stroke-linejoin:round;stroke-miterlimit:10;}
	.st105{fill:#1B3390;stroke:#1C3CB7;stroke-width:0.5043;stroke-miterlimit:10;}
	.st106{fill:#0B5BCB;stroke:#1C3CB7;stroke-width:0.5043;stroke-miterlimit:10;}
	.st107{fill:#4992F5;stroke:#1C3CB7;stroke-width:1.5128;stroke-miterlimit:10;}
	.st108{fill:#4992F5;stroke:#1C3CB7;stroke-width:1.5128;stroke-linecap:round;stroke-miterlimit:10;}
	.st109{fill:#8CA4FB;stroke:#1C3CB7;stroke-width:1.5128;stroke-linecap:round;stroke-linejoin:round;stroke-miterlimit:10;}
	.st110{fill:#D1FFEF;stroke:#1C3CB7;stroke-width:1.5128;stroke-linejoin:round;stroke-miterlimit:10;}
	.st111{fill:#0B5BCB;stroke:#1C3CB7;stroke-width:1.5128;stroke-miterlimit:10;}
	.st112{fill:#B2C2FB;stroke:#1C3CB7;stroke-width:1.5128;stroke-linejoin:round;stroke-miterlimit:10;}
	.st113{fill:#34E2AA;stroke:#1C3CB7;stroke-width:0.5043;stroke-miterlimit:10;}
	.st114{fill:#66FFC8;stroke:#1C3CB7;stroke-width:0.5043;stroke-miterlimit:10;}
	.st115{fill:#73FFCD;stroke:#1C3CB7;stroke-width:0.5043;stroke-miterlimit:10;}
	.st116{fill:#00D38E;stroke:#1C3CB7;stroke-width:0.5043;stroke-miterlimit:10;}
	.st117{fill:#34E2AA;stroke:#1C3CB7;stroke-width:1.5128;stroke-miterlimit:10;}
	.st118{fill:#FF8B2B;stroke:#1C3CB7;stroke-width:0.5043;stroke-miterlimit:10;}
	.st119{fill:#FFB87D;stroke:#1C3CB7;stroke-width:0.5043;stroke-miterlimit:10;}
	.st120{fill:#FFB87D;stroke:#1C3CB7;stroke-width:1.5128;stroke-miterlimit:10;}
	.st121{fill:none;stroke:#1C3CB7;stroke-width:1.0085;stroke-miterlimit:10;}
	.st122{fill:none;stroke:#0B5BCB;stroke-width:1.1084;stroke-miterlimit:10;}
	.st123{fill:#75FFCE;stroke:#1B3390;stroke-width:1.4638;stroke-miterlimit:10;}
	.st124{fill:none;stroke:#1B3390;stroke-width:1.4638;stroke-miterlimit:10;}
	.st125{fill:#00C39F;stroke:#1B3390;stroke-width:1.4638;stroke-miterlimit:10;}
	.st126{fill:#A8FFE6;}
	.st127{opacity:0.8;fill:#A8FFE6;}
	.st128{fill:#8CA4FB;stroke:#1B3390;stroke-width:1.4638;stroke-miterlimit:10;}
	.st129{fill:#0B5BCB;stroke:#1B3390;stroke-width:1.4638;stroke-miterlimit:10;}
	.st130{fill:#D8E0FB;}
	.st131{opacity:0.8;fill:#D8E0FB;}
	.st132{fill:none;stroke:#0B5BCB;stroke-width:0.8976;stroke-miterlimit:10;}
	.st133{fill:none;stroke:#0B5BCB;stroke-width:1.1477;stroke-miterlimit:10;}
	.st134{fill:#0B5BCB;stroke:#0B5BCB;stroke-width:2.0209;stroke-miterlimit:10;}
	.st135{fill:#34E2AA;stroke:#0B5BCB;stroke-width:1.5157;stroke-linejoin:round;stroke-miterlimit:10;}
	.st136{fill:none;stroke:#0B5BCB;stroke-width:1.5157;stroke-linecap:round;stroke-miterlimit:10;}
	.st137{fill:#4992F5;stroke:#0B5BCB;stroke-width:2.0209;stroke-miterlimit:10;}
	.st138{fill:#C7FFED;stroke:#34E2AA;stroke-width:1.5157;stroke-miterlimit:10;}
	.st139{fill:#FFD1AB;stroke:#0B5BCB;stroke-width:1.5157;stroke-miterlimit:10;}
	.st140{fill:#34E2AA;stroke:#34E2AA;stroke-width:1.5157;stroke-linejoin:round;stroke-miterlimit:10;}
	.st141{fill:none;stroke:#0B5BCB;stroke-width:0.9448;stroke-miterlimit:10;}
	.st142{clip-path:url(#SVGID_10_);}
	.st143{clip-path:url(#SVGID_12_);fill:none;stroke:#5FECBF;stroke-width:14.7905;stroke-linecap:round;stroke-miterlimit:10;}
	.st144{clip-path:url(#SVGID_14_);fill:none;stroke:#FF8B2B;stroke-width:4.8053;stroke-linecap:round;stroke-miterlimit:10;}
	.st145{fill:none;stroke:#4992F5;stroke-width:0.4107;stroke-miterlimit:10;}
	.st146{fill:none;stroke:#4992F5;stroke-width:0.3292;stroke-miterlimit:10;}
	.st147{fill:#8CA4FB;}
	.st148{opacity:0.25;fill:#FF8B2B;}
	.st149{fill:none;stroke:#FF8B2B;stroke-width:0.6671;stroke-miterlimit:10;}
	.st150{fill:none;stroke:#FF8B2B;stroke-width:0.6249;stroke-miterlimit:10;}
	.st151{fill:#FF9843;}
	.st152{opacity:0.3;fill:#34E2AA;}
	.st153{fill:none;stroke:#4992F5;stroke-width:0.3818;stroke-miterlimit:10;}
	.st154{fill:none;stroke:#4992F5;stroke-width:0.306;stroke-miterlimit:10;}
	.st155{clip-path:url(#SVGID_20_);}
	.st156{clip-path:url(#SVGID_22_);fill:none;stroke:#5FECBF;stroke-width:14.7905;stroke-linecap:round;stroke-miterlimit:10;}
	.st157{clip-path:url(#SVGID_24_);fill:none;stroke:#FF8B2B;stroke-width:4.8053;stroke-linecap:round;stroke-miterlimit:10;}
	.st158{opacity:0.29;}
	.st159{fill:#367FE1;}
	.st160{fill:#1D4BB8;}
	.st161{fill:none;stroke:#FF8B2B;stroke-width:1.8974;stroke-miterlimit:10;}
	.st162{opacity:0.43;fill:#34E2AA;}
	.st163{opacity:0.43;fill:none;stroke:#4890F1;stroke-width:0.9989;stroke-miterlimit:10;}
	.st164{opacity:0.43;fill:none;stroke:#4890F1;stroke-miterlimit:10;}
	.st165{opacity:0.44;fill:#FF8B2B;}
	.st166{fill:none;stroke:#0B59C7;stroke-width:3.0417;stroke-miterlimit:10;}
	.st167{fill:none;stroke:#FF8B2B;stroke-width:0.8561;stroke-miterlimit:10;}
	.st168{fill:none;stroke:#4890F1;stroke-width:0.8545;stroke-miterlimit:10;}
	.st169{fill:none;stroke:#4890F1;stroke-width:1.2463;stroke-miterlimit:10;}
	.st170{fill:#FFEFE0;stroke:#4890F1;stroke-width:1.2463;stroke-miterlimit:10;}
	.st171{fill:#FFDCBF;stroke:#BFCCFF;stroke-width:2.1613;stroke-miterlimit:10;}
	.st172{fill:#E0FFF7;}
	.st173{fill:#BFCCFF;}
	.st174{fill:#BFD8FF;stroke:#ADBFFF;stroke-width:1.5227;stroke-miterlimit:10;}
	.st175{fill:#DBE9FF;}
	.st176{fill:#ADBFFF;}
	.st177{fill:#74A9F7;stroke:#6384FF;stroke-width:1.5227;stroke-miterlimit:10;}
	.st178{fill:#74A9F7;}
	.st179{fill:#6384FF;}
	.st180{fill:#94C0FF;stroke:#8FA7FF;stroke-width:1.6805;stroke-miterlimit:10;}
	.st181{fill:#94C0FF;}
	.st182{fill:#8FA7FF;}
	.st183{fill:#FFC899;stroke:#87A1FF;stroke-width:1.5923;stroke-miterlimit:10;}
	.st184{fill:#87A1FF;}
	.st185{fill:#A1FFE6;stroke:#A1B5FF;stroke-width:1.1942;stroke-miterlimit:10;}
	.st186{fill:#A1FFE6;}
	.st187{fill:#A1B5FF;}
	.st188{fill:#CCFFF2;stroke:#BDCAFF;stroke-width:2.1613;stroke-miterlimit:10;}
	.st189{fill:#BDCAFF;}
	.st190{fill:none;stroke:#4992F5;stroke-width:0.3868;stroke-miterlimit:10;}
	.st191{fill:none;stroke:#4992F5;stroke-width:0.31;stroke-miterlimit:10;}
	.st192{opacity:0.54;}
	.st193{opacity:0.14;}
	.st194{opacity:0.26;}
	.st195{clip-path:url(#SVGID_28_);}
	.st196{fill:#0B5BCB;stroke:#0B5BCB;stroke-width:4;stroke-miterlimit:10;}
	.st197{fill:#34E2AA;stroke:#0B5BCB;stroke-width:3;stroke-linejoin:round;stroke-miterlimit:10;}
	.st198{fill:none;stroke:#0B5BCB;stroke-width:3;stroke-linecap:round;stroke-miterlimit:10;}
	.st199{fill:#4992F5;stroke:#0B5BCB;stroke-width:4;stroke-miterlimit:10;}
	.st200{fill:#C7FFED;stroke:#34E2AA;stroke-width:3;stroke-miterlimit:10;}
	.st201{fill:#FFD1AB;stroke:#0B5BCB;stroke-width:3;stroke-miterlimit:10;}
	.st202{fill:#34E2AA;stroke:#34E2AA;stroke-width:3;stroke-linejoin:round;stroke-miterlimit:10;}
	.st203{fill:none;stroke:#0B5BCB;stroke-width:1.87;stroke-miterlimit:10;}
	.st204{fill:#E6F0FF;stroke:#DBE3FF;stroke-width:3.6654;stroke-miterlimit:10;}
	.st205{fill:#E6F0FF;}
	.st206{fill:#DBE3FF;}
	.st207{fill:#FFE1C9;stroke:#E0E6FF;stroke-width:5.2027;stroke-miterlimit:10;}
	.st208{fill:#E0E6FF;}
	.st209{fill:#DBE9FF;stroke:#CCD7FF;stroke-width:3.6654;stroke-miterlimit:10;}
	.st210{fill:#CCD7FF;}
	.st211{fill:#9EC2F7;stroke:#9CB1FF;stroke-width:3.6654;stroke-miterlimit:10;}
	.st212{fill:#9EC2F7;}
	.st213{fill:#9CB1FF;}
	.st214{fill:#99C3FF;stroke:#91A9FF;stroke-width:4.0452;stroke-miterlimit:10;}
	.st215{fill:#99C3FF;}
	.st216{fill:#91A9FF;}
	.st217{fill:#FFD7B5;stroke:#A1B5FF;stroke-width:5.2027;stroke-miterlimit:10;}
	.st218{fill:#B8FFEC;stroke:#A1B5FF;stroke-width:5.2027;stroke-miterlimit:10;}
	.st219{fill:#B8FFEC;}
	.st220{fill:#E0FFF7;stroke:#E0E6FF;stroke-width:5.2027;stroke-miterlimit:10;}
	.st221{fill:#FFEAD9;stroke:#DBE3FF;stroke-width:3.6654;stroke-miterlimit:10;}
	.st222{opacity:0.2;}
	.st223{fill:#4890F1;stroke:#1A328C;stroke-width:2.274;stroke-miterlimit:10;}
	.st224{fill:none;stroke:#1A328C;stroke-width:1.9286;stroke-linecap:round;stroke-miterlimit:10;}
	.st225{fill:#6AF0B9;stroke:#1A328C;stroke-width:1.5555;stroke-miterlimit:10;}
	.st226{fill:none;stroke:#1A328C;stroke-width:1.3193;stroke-linecap:round;stroke-miterlimit:10;}
	.st227{fill:#FFB87D;stroke:#1A328C;stroke-width:1.9915;stroke-miterlimit:10;}
	.st228{fill:none;stroke:#1A328C;stroke-width:1.6891;stroke-linecap:round;stroke-miterlimit:10;}
	.st229{fill:#0B5DD1;stroke:#1A328C;stroke-width:1.5432;stroke-miterlimit:10;}
	.st230{fill:none;stroke:#1A328C;stroke-width:1.3088;stroke-linecap:round;stroke-miterlimit:10;}
	.st231{fill:#A6FFE1;stroke:#1A328C;stroke-width:1.8914;stroke-miterlimit:10;}
	.st232{fill:none;stroke:#1A328C;stroke-width:1.6042;stroke-linecap:round;stroke-miterlimit:10;}
	.st233{fill:#8AA1F7;stroke:#1A328C;stroke-width:2.274;stroke-miterlimit:10;}
	.st234{fill:none;stroke:#1A328C;stroke-width:1.3298;stroke-linecap:round;stroke-miterlimit:10;}
	.st235{fill:#FFB87D;stroke:#1A328C;stroke-width:1.5457;stroke-miterlimit:10;}
	.st236{fill:none;stroke:#1A328C;stroke-width:1.311;stroke-linecap:round;stroke-miterlimit:10;}
	.st237{fill:none;stroke:#0B59C7;stroke-width:3.032;stroke-linecap:round;stroke-miterlimit:10;}
	.st238{clip-path:url(#SVGID_30_);fill:none;stroke:#FF8B2B;stroke-width:9.0959;stroke-linecap:round;stroke-miterlimit:10;}
	.st239{fill:#A6FFDE;stroke:#0B59C7;stroke-width:5;stroke-linejoin:round;stroke-miterlimit:10;}
	.st240{fill:#A6FFDE;stroke:#0B59C7;stroke-width:4.2028;stroke-linejoin:round;stroke-miterlimit:10;}
	.st241{fill:#8AA1F7;stroke:#1A328C;stroke-width:5;stroke-miterlimit:10;}
	.st242{fill:none;stroke:#1A328C;stroke-width:5;stroke-miterlimit:10;}
	.st243{fill:#0B59C7;stroke:#1A328C;stroke-width:5;stroke-miterlimit:10;}
	.st244{fill:#75FFCE;stroke:#1A328C;stroke-width:5;stroke-miterlimit:10;}
	.st245{fill:#D4DCF7;}
	.st246{opacity:0.8;fill:#D4DCF7;}
	.st247{fill:#558DDB;stroke:#0653BF;stroke-width:5;stroke-linecap:round;stroke-linejoin:round;stroke-miterlimit:10;}
	.st248{fill:#7EB6F2;}
	.st249{fill:#609CE0;}
	.st250{fill:none;stroke:#0B59C7;stroke-width:5;stroke-linecap:round;stroke-linejoin:round;stroke-miterlimit:10;}
	.st251{fill:#FF8B2B;stroke:#0B59C7;stroke-width:5;stroke-miterlimit:10;}
	.st252{fill:none;stroke:#33DEA7;stroke-width:5;stroke-linecap:round;stroke-miterlimit:10;}
	.st253{fill:none;stroke:#33DEA7;stroke-width:5;stroke-linecap:round;stroke-linejoin:round;stroke-miterlimit:10;}
	.st254{clip-path:url(#SVGID_32_);}
	.st255{fill:none;stroke:#1A328C;stroke-width:5;stroke-linecap:round;stroke-linejoin:round;stroke-miterlimit:10;}
	.st256{fill:#8AA1F7;stroke:#33DEA7;stroke-width:0.7994;stroke-miterlimit:10;}
	.st257{fill:none;stroke:#33DEA7;stroke-width:0.7994;stroke-linecap:round;stroke-miterlimit:10;}
	.st258{fill:none;stroke:#33DEA7;stroke-width:0.7994;stroke-linecap:round;stroke-linejoin:round;stroke-miterlimit:10;}
	.st259{clip-path:url(#SVGID_34_);}
	.st260{fill:none;stroke:#33DEA7;stroke-width:6.662;stroke-linecap:round;stroke-linejoin:round;stroke-miterlimit:10;}
	.st261{fill:none;stroke:#1A328C;stroke-width:1.5989;stroke-linecap:round;stroke-linejoin:round;stroke-miterlimit:10;}
	.st262{fill:#4890F1;stroke:#1A328C;stroke-width:1.7649;stroke-linecap:round;stroke-miterlimit:10;}
	.st263{fill:#4890F1;stroke:#1A328C;stroke-width:1.7649;stroke-linecap:round;stroke-linejoin:round;stroke-miterlimit:10;}
	.st264{opacity:0.8;fill:#C4D0FF;}
	.st265{fill:#FFB87D;stroke:#1B3BB3;stroke-width:5;stroke-linecap:round;stroke-linejoin:round;stroke-miterlimit:10;}
	.st266{fill:#FFD6B3;stroke:#1B3BB3;stroke-width:5;stroke-linejoin:round;stroke-miterlimit:10;}
	.st267{fill:#FF8B2B;stroke:#1B3BB3;stroke-width:5;stroke-miterlimit:10;}
	.st268{fill:#FFB87D;stroke:#1B3BB3;stroke-width:5;stroke-linejoin:round;stroke-miterlimit:10;}
	.st269{fill:#96FFD4;stroke:#1B3BB3;stroke-width:5;stroke-linejoin:round;stroke-miterlimit:10;}
	.st270{fill:#1A328C;stroke:#1B3BB3;stroke-width:5;stroke-miterlimit:10;}
	.st271{fill:#0B59C7;stroke:#1B3BB3;stroke-width:5;stroke-miterlimit:10;}
	.st272{fill:#4890F1;stroke:#1B3BB3;stroke-width:5;stroke-miterlimit:10;}
	.st273{fill:#4890F1;stroke:#1B3BB3;stroke-width:5;stroke-linecap:round;stroke-miterlimit:10;}
	.st274{fill:#FFB87D;stroke:#1B3BB3;stroke-width:1.6332;stroke-linecap:round;stroke-linejoin:round;stroke-miterlimit:10;}
	.st275{fill:#FFD8B8;stroke:#1B3BB3;stroke-width:1.6332;stroke-linejoin:round;stroke-miterlimit:10;}
	.st276{fill:#FF8B2B;stroke:#1B3BB3;stroke-width:1.6332;stroke-miterlimit:10;}
	.st277{fill:#FFB87D;stroke:#1B3BB3;stroke-width:1.6332;stroke-linejoin:round;stroke-miterlimit:10;}
	.st278{fill:#1A328C;stroke:#1B3BB3;stroke-width:0.5444;stroke-miterlimit:10;}
	.st279{fill:#0B59C7;stroke:#1B3BB3;stroke-width:0.5444;stroke-miterlimit:10;}
	.st280{fill:#4890F1;stroke:#1B3BB3;stroke-width:1.6332;stroke-miterlimit:10;}
	.st281{fill:#4890F1;stroke:#1B3BB3;stroke-width:1.6332;stroke-linecap:round;stroke-miterlimit:10;}
	.st282{fill:#92FCCA;stroke:#1A328C;stroke-width:5;stroke-miterlimit:10;}
	.st283{fill:none;stroke:#1A328C;stroke-width:5;stroke-linecap:round;stroke-miterlimit:10;}
	.st284{clip-path:url(#SVGID_38_);fill:none;stroke:#8AA1F7;stroke-width:5;stroke-linecap:round;stroke-miterlimit:10;}
	.st285{fill:#7DFFD5;}
	.st286{fill:#B3FFE4;}
	.st287{fill:none;stroke:#274CD4;stroke-width:0.3105;stroke-miterlimit:10;}
	.st288{fill:#FF8B2B;stroke:#0653BF;stroke-width:2.1766;stroke-linecap:round;stroke-linejoin:round;stroke-miterlimit:10;}
	.st289{fill:#FFD2AD;}
	.st290{fill:none;stroke:#0B59C7;stroke-width:2.1766;stroke-linecap:round;stroke-linejoin:round;stroke-miterlimit:10;}
	.st291{fill:#FFB87D;stroke:#33DEA7;stroke-width:5;stroke-miterlimit:10;}
	.st292{fill:#9EFFE0;stroke:#33DEA7;stroke-width:5;stroke-miterlimit:10;}
	.st293{fill:#FF8B2B;stroke:#33DEA7;stroke-width:5;stroke-linejoin:round;stroke-miterlimit:10;}
	.st294{fill:#FF8B2B;stroke:#1A328C;stroke-width:5;stroke-miterlimit:10;}
	.st295{fill:#6AF0B9;stroke:#1A328C;stroke-width:5;stroke-miterlimit:10;}
	.st296{fill:#B5CBE8;stroke:#1A328C;stroke-width:5;stroke-miterlimit:10;}
	.st297{fill:#0B5DD1;stroke:#1A328C;stroke-width:5;stroke-miterlimit:10;}
	.st298{fill:#4890F1;stroke:#1A328C;stroke-width:5;stroke-miterlimit:10;}
	.st299{fill:#6BFFCA;stroke:#1A328C;stroke-width:5;stroke-miterlimit:10;}
	.st300{fill:none;stroke:#0B59C7;stroke-width:5;stroke-linecap:round;stroke-miterlimit:10;}
	.st301{clip-path:url(#SVGID_40_);fill:none;stroke:#FF8B2B;stroke-width:19;stroke-linecap:round;stroke-miterlimit:10;}
	.st302{fill:#FF8B2B;stroke:#0B59C7;stroke-width:5;stroke-linejoin:round;stroke-miterlimit:10;}
	.st303{fill:#FFC99C;}
	.st304{fill:#8AA1F7;stroke:#0B59C7;stroke-width:5;stroke-linejoin:round;stroke-miterlimit:10;}
	.st305{fill:#33DEA7;stroke:#1A328C;stroke-width:5;stroke-miterlimit:10;}
	.st306{fill:#8AA1F7;stroke:#0B59C7;stroke-width:1.5989;stroke-miterlimit:10;}
	.st307{fill:none;stroke:#0B59C7;stroke-width:1.5989;stroke-linecap:round;stroke-miterlimit:10;}
	.st308{fill:none;stroke:#0B59C7;stroke-width:1.5989;stroke-linecap:round;stroke-linejoin:round;stroke-miterlimit:10;}
	.st309{clip-path:url(#SVGID_42_);}
	.st310{fill:none;stroke:#FF8B2B;stroke-width:13.324;stroke-linecap:round;stroke-linejoin:round;stroke-miterlimit:10;}
	.st311{fill:none;stroke:#1A328C;stroke-width:3.1978;stroke-linecap:round;stroke-linejoin:round;stroke-miterlimit:10;}
	.st312{fill:#4890F1;stroke:#1A328C;stroke-width:1.0806;stroke-miterlimit:10;}
	.st313{fill:#4890F1;stroke:#1A328C;stroke-width:1.0806;stroke-linecap:round;stroke-miterlimit:10;}
	.st314{fill:#4890F1;stroke:#1A328C;stroke-width:1.0806;stroke-linecap:round;stroke-linejoin:round;stroke-miterlimit:10;}
	.st315{fill:#8AA1F7;stroke:#1B3BB3;stroke-width:5;stroke-linecap:round;stroke-linejoin:round;stroke-miterlimit:10;}
	.st316{fill:#D1FFEF;stroke:#1B3BB3;stroke-width:5;stroke-linejoin:round;stroke-miterlimit:10;}
	.st317{fill:#AFBFF7;stroke:#1B3BB3;stroke-width:5;stroke-linejoin:round;stroke-miterlimit:10;}
	.st318{fill:#66FFC8;stroke:#1B3BB3;stroke-width:5;stroke-miterlimit:10;}
	.st319{fill:none;stroke:#274CD4;stroke-width:0.9742;stroke-miterlimit:10;}
	.st320{fill:#8AA1F7;stroke:#0653BF;stroke-width:5;stroke-linecap:round;stroke-linejoin:round;stroke-miterlimit:10;}
	.st321{fill:#BAC8FF;}
	.st322{fill:#9EB2FF;}
	.st323{fill:#8AA1F7;stroke:#0B59C7;stroke-width:5;stroke-miterlimit:10;}
	.st324{clip-path:url(#SVGID_46_);}
	.st325{fill:none;stroke:#33DEA7;stroke-width:25;stroke-linecap:round;stroke-linejoin:round;stroke-miterlimit:10;}
	.st326{fill:#0B59C7;stroke:#0B59C7;stroke-width:5;stroke-miterlimit:10;}
	.st327{fill:#4890F1;stroke:#0B59C7;stroke-width:5;stroke-miterlimit:10;}
	.st328{fill:#FF9B47;stroke:#0B59C7;stroke-width:1.6094;stroke-linejoin:round;stroke-miterlimit:10;}
	.st329{fill:#FFC696;}
	.st330{fill:#6CCFAF;stroke:#0B59C7;stroke-width:1.5694;stroke-miterlimit:10;}
	.st331{fill:#9EFFE0;stroke:#0B59C7;stroke-width:1.5694;stroke-miterlimit:10;}
	.st332{fill:none;stroke:#0B59C7;stroke-width:1.5694;stroke-linecap:round;stroke-miterlimit:10;}
	.st333{fill:#00BD80;stroke:#0B59C7;stroke-width:1.5694;stroke-linejoin:round;stroke-miterlimit:10;}
	.st334{fill:#FF8B2B;stroke:#0653BF;stroke-width:1.5522;stroke-linecap:round;stroke-linejoin:round;stroke-miterlimit:10;}
	.st335{fill:none;stroke:#0B59C7;stroke-width:1.5522;stroke-linecap:round;stroke-linejoin:round;stroke-miterlimit:10;}
	.st336{fill:#E6F0FF;stroke:#DBE3FF;stroke-width:1.0544;stroke-miterlimit:10;}
	.st337{fill:#FFE1C9;stroke:#E0E6FF;stroke-width:1.4967;stroke-miterlimit:10;}
	.st338{fill:#DBE9FF;stroke:#CCD7FF;stroke-width:1.0544;stroke-miterlimit:10;}
	.st339{fill:#9EC2F7;stroke:#9CB1FF;stroke-width:1.0544;stroke-miterlimit:10;}
	.st340{fill:#99C3FF;stroke:#91A9FF;stroke-width:1.1637;stroke-miterlimit:10;}
	.st341{fill:#FFD7B5;stroke:#A1B5FF;stroke-width:1.4967;stroke-miterlimit:10;}
	.st342{fill:#B8FFEC;stroke:#A1B5FF;stroke-width:1.4967;stroke-miterlimit:10;}
	.st343{fill:#E0FFF7;stroke:#E0E6FF;stroke-width:1.4967;stroke-miterlimit:10;}
	.st344{fill:#FFEAD9;stroke:#DBE3FF;stroke-width:1.0544;stroke-miterlimit:10;}
	.st345{fill:#33DEA7;stroke:#1A328C;stroke-miterlimit:10;}
	.st346{fill:#2DC494;}
	.st347{fill:#E3FFFB;stroke:#1A328C;stroke-miterlimit:10;}
	.st348{fill:#D9E5FF;stroke:#1A328C;stroke-miterlimit:10;}
	.st349{fill:#C9FFEB;}
	.st350{fill:#FFD0A8;}
	.st351{fill:#41F2B3;}
	.st352{fill:#31FFC0;}
	.st353{fill:#5CFFCD;}
	.st354{fill:#87FFDA;}
	.st355{fill:#9CFFE0;}
	.st356{fill:#ADFFE6;}
	.st357{fill:#BAFFEA;}
	.st358{fill:#C4DEFF;}
	.st359{fill:#FFFFFF;stroke:#33DEA7;stroke-width:2.0266;stroke-miterlimit:10;}
	.st360{fill:#FFFFFF;stroke:#FF8B2B;stroke-width:2.0266;stroke-miterlimit:10;}
	.st361{fill:#00BD81;}
	.st362{fill:#FFFFFF;stroke:#4890F1;stroke-width:2.0266;stroke-miterlimit:10;}
	.st363{fill:none;stroke:#1A328C;stroke-width:1.9243;stroke-miterlimit:10;}
	.st364{fill:#4890F1;stroke:#1A328C;stroke-width:0.7327;stroke-miterlimit:10;}
	.st365{fill:none;stroke:#1A328C;stroke-width:0.6214;stroke-linecap:round;stroke-miterlimit:10;}
	.st366{fill:#6AF0B9;stroke:#1A328C;stroke-width:0.5012;stroke-miterlimit:10;}
	.st367{fill:none;stroke:#1A328C;stroke-width:0.4251;stroke-linecap:round;stroke-miterlimit:10;}
	.st368{fill:#FFB87D;stroke:#1A328C;stroke-width:0.6417;stroke-miterlimit:10;}
	.st369{fill:none;stroke:#1A328C;stroke-width:0.5442;stroke-linecap:round;stroke-miterlimit:10;}
	.st370{fill:#0B5DD1;stroke:#1A328C;stroke-width:0.4972;stroke-miterlimit:10;}
	.st371{fill:none;stroke:#1A328C;stroke-width:0.4217;stroke-linecap:round;stroke-miterlimit:10;}
	.st372{fill:#A6FFE1;stroke:#1A328C;stroke-width:0.6094;stroke-miterlimit:10;}
	.st373{fill:none;stroke:#1A328C;stroke-width:0.5169;stroke-linecap:round;stroke-miterlimit:10;}
	.st374{fill:#8AA1F7;stroke:#1A328C;stroke-width:0.7327;stroke-miterlimit:10;}
	.st375{fill:none;stroke:#1A328C;stroke-width:0.4285;stroke-linecap:round;stroke-miterlimit:10;}
	.st376{fill:#FFB87D;stroke:#1A328C;stroke-width:0.4981;stroke-miterlimit:10;}
	.st377{fill:none;stroke:#1A328C;stroke-width:0.4224;stroke-linecap:round;stroke-miterlimit:10;}
	.st378{fill:none;stroke:#0B59C7;stroke-width:0.9769;stroke-linecap:round;stroke-miterlimit:10;}
	.st379{clip-path:url(#SVGID_60_);fill:none;stroke:#FF8B2B;stroke-width:2.9308;stroke-linecap:round;stroke-miterlimit:10;}
	.st380{fill:#A6FFDE;stroke:#0B59C7;stroke-width:1.6111;stroke-linejoin:round;stroke-miterlimit:10;}
	.st381{fill:#A6FFDE;stroke:#0B59C7;stroke-width:1.3542;stroke-linejoin:round;stroke-miterlimit:10;}
	.st382{fill:#8AA1F7;stroke:#1A328C;stroke-width:1.6111;stroke-miterlimit:10;}
	.st383{fill:none;stroke:#1A328C;stroke-width:1.6111;stroke-miterlimit:10;}
	.st384{fill:#0B59C7;stroke:#1A328C;stroke-width:1.6111;stroke-miterlimit:10;}
	.st385{fill:#75FFCE;stroke:#1A328C;stroke-width:1.6111;stroke-miterlimit:10;}
	.st386{fill:#558DDB;stroke:#0653BF;stroke-width:1.6111;stroke-linecap:round;stroke-linejoin:round;stroke-miterlimit:10;}
	.st387{fill:none;stroke:#0B59C7;stroke-width:1.6111;stroke-linecap:round;stroke-linejoin:round;stroke-miterlimit:10;}
	.st388{fill:#FF8B2B;stroke:#0B59C7;stroke-width:1.6111;stroke-miterlimit:10;}
	.st389{fill:none;stroke:#33DEA7;stroke-width:1.6111;stroke-linecap:round;stroke-miterlimit:10;}
	.st390{fill:none;stroke:#33DEA7;stroke-width:1.6111;stroke-linecap:round;stroke-linejoin:round;stroke-miterlimit:10;}
	.st391{clip-path:url(#SVGID_62_);}
	.st392{fill:none;stroke:#1A328C;stroke-width:1.6111;stroke-linecap:round;stroke-linejoin:round;stroke-miterlimit:10;}
	.st393{fill:#8AA1F7;stroke:#33DEA7;stroke-width:0.2576;stroke-miterlimit:10;}
	.st394{fill:none;stroke:#33DEA7;stroke-width:0.2576;stroke-linecap:round;stroke-miterlimit:10;}
	.st395{fill:none;stroke:#33DEA7;stroke-width:0.2576;stroke-linecap:round;stroke-linejoin:round;stroke-miterlimit:10;}
	.st396{clip-path:url(#SVGID_64_);}
	.st397{fill:none;stroke:#33DEA7;stroke-width:2.1466;stroke-linecap:round;stroke-linejoin:round;stroke-miterlimit:10;}
	.st398{fill:none;stroke:#1A328C;stroke-width:0.5152;stroke-linecap:round;stroke-linejoin:round;stroke-miterlimit:10;}
	.st399{fill:#4890F1;stroke:#1A328C;stroke-width:0.5687;stroke-linecap:round;stroke-miterlimit:10;}
	.st400{fill:#4890F1;stroke:#1A328C;stroke-width:0.5687;stroke-linecap:round;stroke-linejoin:round;stroke-miterlimit:10;}
	.st401{fill:#FFB87D;stroke:#1B3BB3;stroke-width:1.6111;stroke-linecap:round;stroke-linejoin:round;stroke-miterlimit:10;}
	.st402{fill:#FFD6B3;stroke:#1B3BB3;stroke-width:1.6111;stroke-linejoin:round;stroke-miterlimit:10;}
	.st403{fill:#FF8B2B;stroke:#1B3BB3;stroke-width:1.6111;stroke-miterlimit:10;}
	.st404{fill:#FFB87D;stroke:#1B3BB3;stroke-width:1.6111;stroke-linejoin:round;stroke-miterlimit:10;}
	.st405{fill:#96FFD4;stroke:#1B3BB3;stroke-width:1.6111;stroke-linejoin:round;stroke-miterlimit:10;}
	.st406{fill:#1A328C;stroke:#1B3BB3;stroke-width:1.6111;stroke-miterlimit:10;}
	.st407{fill:#0B59C7;stroke:#1B3BB3;stroke-width:1.6111;stroke-miterlimit:10;}
	.st408{fill:#4890F1;stroke:#1B3BB3;stroke-width:1.6111;stroke-miterlimit:10;}
	.st409{fill:#4890F1;stroke:#1B3BB3;stroke-width:1.6111;stroke-linecap:round;stroke-miterlimit:10;}
	.st410{fill:#FFB87D;stroke:#1B3BB3;stroke-width:0.5262;stroke-linecap:round;stroke-linejoin:round;stroke-miterlimit:10;}
	.st411{fill:#FFD8B8;stroke:#1B3BB3;stroke-width:0.5262;stroke-linejoin:round;stroke-miterlimit:10;}
	.st412{fill:#FF8B2B;stroke:#1B3BB3;stroke-width:0.5262;stroke-miterlimit:10;}
	.st413{fill:#FFB87D;stroke:#1B3BB3;stroke-width:0.5262;stroke-linejoin:round;stroke-miterlimit:10;}
	.st414{fill:#1A328C;stroke:#1B3BB3;stroke-width:0.1754;stroke-miterlimit:10;}
	.st415{fill:#0B59C7;stroke:#1B3BB3;stroke-width:0.1754;stroke-miterlimit:10;}
	.st416{fill:#4890F1;stroke:#1B3BB3;stroke-width:0.5262;stroke-miterlimit:10;}
	.st417{fill:#4890F1;stroke:#1B3BB3;stroke-width:0.5262;stroke-linecap:round;stroke-miterlimit:10;}
	.st418{fill:#92FCCA;stroke:#1A328C;stroke-width:1.6111;stroke-miterlimit:10;}
	.st419{fill:none;stroke:#1A328C;stroke-width:1.6111;stroke-linecap:round;stroke-miterlimit:10;}
	.st420{clip-path:url(#SVGID_68_);fill:none;stroke:#8AA1F7;stroke-width:1.6111;stroke-linecap:round;stroke-miterlimit:10;}
	.st421{fill:none;stroke:#274CD4;stroke-width:0.1;stroke-miterlimit:10;}
	.st422{fill:#FF8B2B;stroke:#0653BF;stroke-width:0.7013;stroke-linecap:round;stroke-linejoin:round;stroke-miterlimit:10;}
	.st423{fill:none;stroke:#0B59C7;stroke-width:0.7013;stroke-linecap:round;stroke-linejoin:round;stroke-miterlimit:10;}
	.st424{fill:#FFB87D;stroke:#33DEA7;stroke-width:1.6111;stroke-miterlimit:10;}
	.st425{fill:#9EFFE0;stroke:#33DEA7;stroke-width:1.6111;stroke-miterlimit:10;}
	.st426{fill:#FF8B2B;stroke:#33DEA7;stroke-width:1.6111;stroke-linejoin:round;stroke-miterlimit:10;}
	.st427{fill:#FF8B2B;stroke:#1A328C;stroke-width:1.6111;stroke-miterlimit:10;}
	.st428{fill:#6AF0B9;stroke:#1A328C;stroke-width:1.6111;stroke-miterlimit:10;}
	.st429{fill:#B5CBE8;stroke:#1A328C;stroke-width:1.6111;stroke-miterlimit:10;}
	.st430{fill:#0B5DD1;stroke:#1A328C;stroke-width:1.6111;stroke-miterlimit:10;}
	.st431{fill:#4890F1;stroke:#1A328C;stroke-width:1.6111;stroke-miterlimit:10;}
	.st432{fill:#6BFFCA;stroke:#1A328C;stroke-width:1.6111;stroke-miterlimit:10;}
	.st433{fill:none;stroke:#0B59C7;stroke-width:1.6111;stroke-linecap:round;stroke-miterlimit:10;}
	.st434{clip-path:url(#SVGID_70_);fill:none;stroke:#FF8B2B;stroke-width:6.1221;stroke-linecap:round;stroke-miterlimit:10;}
	.st435{fill:#FF8B2B;stroke:#0B59C7;stroke-width:1.6111;stroke-linejoin:round;stroke-miterlimit:10;}
	.st436{fill:#8AA1F7;stroke:#0B59C7;stroke-width:1.6111;stroke-linejoin:round;stroke-miterlimit:10;}
	.st437{fill:#33DEA7;stroke:#1A328C;stroke-width:1.6111;stroke-miterlimit:10;}
	.st438{fill:#8AA1F7;stroke:#0B59C7;stroke-width:0.5152;stroke-miterlimit:10;}
	.st439{fill:none;stroke:#0B59C7;stroke-width:0.5152;stroke-linecap:round;stroke-miterlimit:10;}
	.st440{fill:none;stroke:#0B59C7;stroke-width:0.5152;stroke-linecap:round;stroke-linejoin:round;stroke-miterlimit:10;}
	.st441{clip-path:url(#SVGID_72_);}
	.st442{fill:none;stroke:#FF8B2B;stroke-width:4.2932;stroke-linecap:round;stroke-linejoin:round;stroke-miterlimit:10;}
	.st443{fill:none;stroke:#1A328C;stroke-width:1.0304;stroke-linecap:round;stroke-linejoin:round;stroke-miterlimit:10;}
	.st444{fill:#4890F1;stroke:#1A328C;stroke-width:0.3482;stroke-miterlimit:10;}
	.st445{fill:#4890F1;stroke:#1A328C;stroke-width:0.3482;stroke-linecap:round;stroke-miterlimit:10;}
	.st446{fill:#4890F1;stroke:#1A328C;stroke-width:0.3482;stroke-linecap:round;stroke-linejoin:round;stroke-miterlimit:10;}
	.st447{fill:#8AA1F7;stroke:#1B3BB3;stroke-width:1.6111;stroke-linecap:round;stroke-linejoin:round;stroke-miterlimit:10;}
	.st448{fill:#D1FFEF;stroke:#1B3BB3;stroke-width:1.6111;stroke-linejoin:round;stroke-miterlimit:10;}
	.st449{fill:#AFBFF7;stroke:#1B3BB3;stroke-width:1.6111;stroke-linejoin:round;stroke-miterlimit:10;}
	.st450{fill:#66FFC8;stroke:#1B3BB3;stroke-width:1.6111;stroke-miterlimit:10;}
	.st451{fill:none;stroke:#274CD4;stroke-width:0.3139;stroke-miterlimit:10;}
	.st452{fill:#8AA1F7;stroke:#0653BF;stroke-width:1.6111;stroke-linecap:round;stroke-linejoin:round;stroke-miterlimit:10;}
	.st453{fill:#8AA1F7;stroke:#0B59C7;stroke-width:1.6111;stroke-miterlimit:10;}
	.st454{clip-path:url(#SVGID_76_);}
	.st455{fill:none;stroke:#33DEA7;stroke-width:8.0554;stroke-linecap:round;stroke-linejoin:round;stroke-miterlimit:10;}
	.st456{fill:#0B59C7;stroke:#0B59C7;stroke-width:1.6111;stroke-miterlimit:10;}
	.st457{fill:#4890F1;stroke:#0B59C7;stroke-width:1.6111;stroke-miterlimit:10;}
	.st458{fill:#FF9B47;stroke:#0B59C7;stroke-width:0.5186;stroke-linejoin:round;stroke-miterlimit:10;}
	.st459{fill:#6CCFAF;stroke:#0B59C7;stroke-width:0.5057;stroke-miterlimit:10;}
	.st460{fill:#9EFFE0;stroke:#0B59C7;stroke-width:0.5057;stroke-miterlimit:10;}
	.st461{fill:none;stroke:#0B59C7;stroke-width:0.5057;stroke-linecap:round;stroke-miterlimit:10;}
	.st462{fill:#00BD80;stroke:#0B59C7;stroke-width:0.5057;stroke-linejoin:round;stroke-miterlimit:10;}
	.st463{fill:#FF8B2B;stroke:#0653BF;stroke-width:0.5002;stroke-linecap:round;stroke-linejoin:round;stroke-miterlimit:10;}
	.st464{fill:none;stroke:#0B59C7;stroke-width:0.5002;stroke-linecap:round;stroke-linejoin:round;stroke-miterlimit:10;}
	.st465{fill:#E3FFFB;stroke:#1A328C;stroke-width:0.285;stroke-miterlimit:10;}
	.st466{fill:#D9E5FF;stroke:#1A328C;stroke-width:0.285;stroke-miterlimit:10;}
	.st467{fill:#FFFFFF;stroke:#33DEA7;stroke-width:0.653;stroke-miterlimit:10;}
	.st468{fill:#FFFFFF;stroke:#33DEA7;stroke-width:0.8013;stroke-miterlimit:10;}
	.st469{fill:#FFFFFF;stroke:#4890F1;stroke-width:0.653;stroke-miterlimit:10;}
	.st470{fill:none;stroke:#1A328C;stroke-width:0.62;stroke-miterlimit:10;}
	.st471{fill:none;stroke:#1A328C;stroke-width:0.9855;stroke-miterlimit:10;}
	.st472{fill:none;stroke:#1A328C;stroke-width:0.9979;stroke-miterlimit:10;}
	.st473{fill:#E3FFFB;stroke:#1A328C;stroke-width:0.4607;stroke-miterlimit:10;}
	.st474{fill:#D9E5FF;stroke:#1A328C;stroke-width:0.4606;stroke-miterlimit:10;}
	.st475{clip-path:url(#SVGID_96_);fill:none;stroke:#FF8B2B;stroke-width:9.0959;stroke-linecap:round;stroke-miterlimit:10;}
	.st476{clip-path:url(#SVGID_98_);}
	.st477{clip-path:url(#SVGID_100_);}
	.st478{clip-path:url(#SVGID_104_);fill:none;stroke:#8AA1F7;stroke-width:5;stroke-linecap:round;stroke-miterlimit:10;}
	.st479{clip-path:url(#SVGID_106_);fill:none;stroke:#FF8B2B;stroke-width:19;stroke-linecap:round;stroke-miterlimit:10;}
	.st480{clip-path:url(#SVGID_108_);}
	.st481{clip-path:url(#SVGID_112_);}
	.st482{fill:url(#SVGID_143_);}
	.st483{fill:url(#SVGID_144_);}
</style>
<g id="мой_профиль">
	<g id="Слой_6">
	</g>
	<g id="Слой_5">
	</g>
</g>
<g id="регистрация">
</g>
<g id="контакты">
	<rect x="111.08" y="45.5" class="st6" width="1162.83" height="1398.5"/>
	<g>
		<defs>
			<rect id="SVGID_27_" x="111.08" y="45.5" width="1162.83" height="1398.5"/>
		</defs>
		<clipPath id="SVGID_2_">
			<use xlink:href="#SVGID_27_"  style="overflow:visible;"/>
		</clipPath>
		<g style="clip-path:url(#SVGID_2_);">
			<g class="st192">
				<path class="st37" d="M1368.79,943.26c-6.48-1.42-11.68-4.89-12.25-17.57c-5.91,12.11-12.42,13.71-19.16,12.23
					c-9.99-2.19-13.95-22.91-8.84-46.28c1.29-5.91,3.04-11.42,5.1-16.33c6.92-19.54,20.34-34.88,36.5-43.23l5.48-25.07
					c1.75,0.48,3.55,0.93,5.39,1.33c1.08,0.24,2.18,0.46,3.29,0.66l0,0l3.56,0.78c23.42,4.5,47.58-0.86,64.88-14.33l2.2,0.48
					l-11.27,51.56c13.17,16.34,19.19,39.73,14.56,63.85c-0.06-0.04-0.12-0.08-0.17-0.13c-0.33,2.27-0.75,4.58-1.26,6.92
					c-5.11,23.37-17.36,40.55-27.35,38.37c-6.19-1.35-11.31-4.06-12.16-15.86c-5.69,10.37-11.48,10.69-17.66,9.34
					c-6.51-1.42-11.72-4.98-12.26-17.75C1381.51,943.63,1375.3,944.68,1368.79,943.26z"/>
				<path class="st37" d="M1466.66,718l16.32,3.57c-0.41,1.53-0.79,3.1-1.14,4.7c-0.22,1-0.5,2.38-0.76,3.64
					c-0.12,0.61-0.26,1.29-0.38,1.85l-0.05,0.02l-0.26,1.34c-4.5,23.42,0.86,47.58,14.33,64.88l-0.63,2.9l-42.85-9.37
					c-16.34,13.17-39.73,19.19-63.85,14.56c0.04-0.06,0.08-0.12,0.13-0.17c-2.27-0.33-4.58-0.75-6.92-1.26
					c-23.37-5.11-40.55-17.36-38.37-27.35c1.35-6.19,4.06-11.31,15.86-12.16c-10.37-5.69-10.69-11.48-9.34-17.66
					c1.42-6.51,4.98-11.72,17.75-12.26c-11.38-5.83-12.44-12.04-11.01-18.55c1.42-6.48,4.89-11.68,17.57-12.25
					c-12.11-5.91-13.71-12.42-12.23-19.16c2.19-9.99,22.91-13.95,46.28-8.84c5.91,1.29,11.42,3.04,16.33,5.1
					C1442.96,688.42,1458.31,701.84,1466.66,718z"/>
			</g>
			<g class="st193">
				<path class="st37" d="M1091.78,447.53c-5.01-1.1-9.02-3.78-9.47-13.57c-4.57,9.36-9.6,10.59-14.81,9.45
					c-7.72-1.69-10.78-17.7-6.83-35.76c1-4.57,2.35-8.83,3.94-12.62c5.35-15.1,15.72-26.95,28.2-33.41l4.24-19.37
					c1.36,0.37,2.74,0.72,4.16,1.03c0.84,0.18,1.69,0.35,2.54,0.51l0,0l2.75,0.61c18.1,3.48,36.77-0.66,50.13-11.07l1.7,0.37
					l-8.71,39.84c10.18,12.62,14.83,30.7,11.25,49.34c-0.04-0.03-0.09-0.07-0.13-0.1c-0.26,1.75-0.58,3.54-0.97,5.35
					c-3.95,18.06-13.41,31.34-21.13,29.65c-4.78-1.05-8.74-3.14-9.39-12.25c-4.39,8.01-8.87,8.26-13.65,7.21
					c-5.03-1.1-9.05-3.85-9.48-13.72C1101.62,447.82,1096.82,448.63,1091.78,447.53z"/>
				<path class="st37" d="M1171.08,435.46l-8.9-1.95c0.42-1.49,0.81-3.03,1.15-4.6c0.18-0.83,0.35-1.68,0.51-2.53l0.01,0.01
					l0.6-2.77c3.48-18.1-0.66-36.77-11.07-50.13l0.28-1.26l29.35,6.42c12.62-10.18,30.7-14.83,49.34-11.25
					c-0.03,0.04,3.44,0.71,5.25,1.11c18.06,3.95,31.34,13.41,29.65,21.13c-1.05,4.78-3.14,8.74-12.25,9.39
					c8.01,4.39,8.26,8.87,7.21,13.65c-1.1,5.03-3.85,9.05-13.72,9.48c8.8,4.5,9.61,9.3,8.51,14.34c-1.1,5.01-3.78,9.02-13.57,9.47
					c9.36,4.57,10.59,9.6,9.45,14.81c-1.69,7.72-17.7,10.78-35.76,6.83c-4.57-1-8.83-2.35-12.62-3.94
					C1189.39,458.31,1177.53,447.94,1171.08,435.46z"/>
				<path class="st37" d="M1167.41,273.47l12.61,2.76c-0.32,1.19-0.61,2.4-0.88,3.63c-0.17,0.77-0.39,1.84-0.58,2.82
					c-0.1,0.47-0.2,1-0.29,1.43l-0.04,0.01l-0.2,1.03c-3.48,18.1,0.66,36.77,11.07,50.13l-0.49,2.24l-33.11-7.24
					c-12.62,10.18-30.7,14.83-49.34,11.25c0.03-0.04,0.07-0.09,0.1-0.13c-1.75-0.26-3.54-0.58-5.35-0.97
					c-18.06-3.95-31.34-13.41-29.65-21.13c1.05-4.78,3.14-8.74,12.25-9.39c-8.01-4.39-8.26-8.87-7.21-13.65
					c1.1-5.03,3.85-9.05,13.72-9.48c-8.8-4.5-9.61-9.3-8.51-14.34c1.1-5.01,3.78-9.02,13.57-9.47c-9.36-4.57-10.59-9.6-9.45-14.81
					c1.69-7.72,17.7-10.78,35.76-6.83c4.57,1,8.83,2.35,12.62,3.94C1149.1,250.61,1160.96,260.98,1167.41,273.47z"/>
				<path class="st37" d="M1236.39,365.44c-0.77-0.17-1.85-0.39-2.83-0.59c-0.46-0.09-0.98-0.2-1.41-0.29l-0.01-0.04l-1.04-0.2
					c-16.97-3.26-34.43,0.17-47.57,9.19l8.42-38.49c-10.18-12.62-14.83-30.7-11.25-49.34c0.04,0.03,0.71-3.44,1.11-5.25
					c3.95-18.06,13.41-31.34,21.13-29.65c4.78,1.05,8.74,3.14,9.39,12.25c4.39-8.01,8.87-8.26,13.65-7.21
					c5.03,1.1,9.05,3.85,9.48,13.72c4.5-8.8,9.3-9.61,14.34-8.51c5.01,1.1,9.02,3.78,9.47,13.57c4.57-9.36,9.6-10.59,14.81-9.45
					c7.72,1.69,10.78,17.7,6.83,35.76c-1,4.57-2.35,8.83-3.94,12.62c-5.35,15.1-15.72,26.95-28.2,33.41l-4.51,20.65
					C1241.76,366.77,1239.14,366.04,1236.39,365.44z"/>
			</g>
			<g class="st194">
				<path class="st2" d="M1227.59,1073.87c-3.89,1.83-7.93,2.1-13.24-4.19c1.74,8.56-0.97,11.95-5.02,13.86
					c-6,2.82-16.22-6.27-22.82-20.3c-1.67-3.55-2.95-7.07-3.83-10.41c-4.16-12.78-3.31-25.96,1.69-36.64l-7.08-15.05
					c1.09-0.44,2.19-0.92,3.3-1.44c0.65-0.31,1.3-0.63,1.95-0.96l0,0l2.14-1c13.82-6.94,24.12-19.23,27.7-32.99l1.32-0.62
					l14.56,30.96c13.22,3.2,25.56,12.85,32.7,27.08c-0.05,0-0.09,0-0.14,0c0.73,1.3,1.42,2.65,2.08,4.06
					c6.6,14.04,7.09,27.7,1.09,30.53c-3.72,1.75-7.42,2.38-12.51-3.35c1.17,7.57-1.68,10.03-5.4,11.78
					c-3.91,1.84-7.99,2.07-13.32-4.28C1234.28,1069.03,1231.5,1072.03,1227.59,1073.87z"/>
				<path class="st2" d="M1274.18,1025.32l-6.92,3.25c-0.48-1.21-1.01-2.43-1.58-3.65c-0.3-0.65-0.62-1.3-0.95-1.94l0.01,0
					l-1.02-2.15c-6.94-13.82-19.23-24.12-32.99-27.7l-0.46-0.98l22.81-10.73c3.2-13.22,12.85-25.56,27.08-32.7
					c0,0.05,2.65-1.28,4.06-1.94c14.04-6.6,27.7-7.09,30.53-1.09c1.75,3.72,2.38,7.42-3.35,12.51c7.57-1.17,10.03,1.68,11.78,5.4
					c1.84,3.91,2.07,7.99-4.28,13.32c8.15-1.5,11.15,1.28,12.99,5.19c1.83,3.89,2.1,7.93-4.19,13.24
					c8.56-1.74,11.95,0.97,13.86,5.02c2.82,6-6.27,16.22-20.3,22.82c-3.55,1.67-7.07,2.95-10.41,3.83
					C1298.04,1031.17,1284.85,1030.32,1274.18,1025.32z"/>
				<path class="st2" d="M1188.96,919.41l9.8-4.61c0.39,0.95,0.82,1.91,1.27,2.87c0.28,0.6,0.68,1.42,1.05,2.17
					c0.18,0.36,0.38,0.77,0.54,1.1l-0.02,0.03l0.4,0.79c6.94,13.82,19.23,24.12,32.99,27.7l0.82,1.74l-25.73,12.1
					c-3.2,13.22-12.85,25.56-27.08,32.7c0-0.05,0-0.09,0-0.14c-1.3,0.73-2.65,1.42-4.06,2.08c-14.04,6.6-27.7,7.09-30.52,1.09
					c-1.75-3.72-2.38-7.42,3.35-12.51c-7.57,1.17-10.03-1.68-11.78-5.4c-1.84-3.91-2.07-7.99,4.28-13.32
					c-8.15,1.5-11.15-1.28-12.99-5.19c-1.83-3.89-2.1-7.93,4.19-13.24c-8.56,1.74-11.95-0.97-13.86-5.02
					c-2.82-6,6.27-16.22,20.3-22.82c3.55-1.67,7.07-2.95,10.41-3.83C1165.1,913.56,1178.29,914.4,1188.96,919.41z"/>
				<path class="st2" d="M1281.86,945.36c-0.6,0.28-1.43,0.69-2.18,1.05c-0.36,0.17-0.76,0.37-1.09,0.53l-0.03-0.02l-0.8,0.4
					c-12.96,6.5-22.82,17.71-26.95,30.42l-14.07-29.91c-13.22-3.2-25.56-12.85-32.7-27.08c0.05,0-1.28-2.65-1.94-4.06
					c-6.6-14.04-7.09-27.7-1.09-30.53c3.72-1.75,7.42-2.38,12.51,3.35c-1.17-7.57,1.68-10.03,5.4-11.78
					c3.91-1.84,7.99-2.07,13.32,4.28c-1.5-8.15,1.28-11.15,5.19-12.99c3.89-1.83,7.93-2.1,13.24,4.19
					c-1.74-8.56,0.97-11.95,5.02-13.86c6-2.82,16.22,6.27,22.82,20.3c1.67,3.55,2.95,7.07,3.83,10.41
					c4.16,12.78,3.31,25.96-1.69,36.64l7.55,16.05C1286.11,943.5,1283.99,944.36,1281.86,945.36z"/>
			</g>
			<g class="st192">
				<path class="st2" d="M1358.97,1455.44c-3.51,3.42-7.76,5.21-15.81,0.41c5.06,8.57,3.4,13.23-0.25,16.79
					c-5.41,5.27-19.79-0.72-32.12-13.37c-3.12-3.2-5.8-6.52-7.99-9.78c-9.23-12.21-13.22-26.72-11.8-40.08l-13.22-13.57
					c1.01-0.88,2.02-1.81,3.01-2.78c0.59-0.57,1.17-1.16,1.75-1.76l0,0l1.93-1.88c12.3-12.61,18.82-29.67,17.56-45.82l1.19-1.16
					l27.19,27.92c15.43-1.47,32.29,4.33,45.27,17c-0.05,0.02-0.1,0.04-0.15,0.06c1.26,1.13,2.52,2.33,3.75,3.59
					c12.33,12.66,17.93,27.19,12.52,32.46c-3.35,3.26-7.11,5.32-14.72,1.04c4.08,7.72,1.92,11.42-1.43,14.68
					c-3.53,3.44-7.83,5.2-15.93,0.34C1364.37,1447.75,1362.5,1452.01,1358.97,1455.44z"/>
				<path class="st2" d="M1391.07,1385.84l-6.24,6.08c-0.97-1.12-1.99-2.24-3.06-3.34c-0.57-0.58-1.15-1.16-1.75-1.74l0.01,0
					l-1.9-1.94c-12.61-12.3-29.67-18.82-45.82-17.55l-0.86-0.88l20.57-20.03c-1.47-15.43,4.33-32.29,17-45.27
					c0.02,0.05,2.38-2.37,3.65-3.6c12.66-12.33,27.19-17.93,32.46-12.52c3.26,3.35,5.32,7.11,1.04,14.72
					c7.72-4.08,11.42-1.92,14.68,1.43c3.44,3.53,5.2,7.83,0.34,15.93c8.22-4.64,12.48-2.77,15.92,0.76
					c3.42,3.51,5.21,7.76,0.41,15.81c8.57-5.06,13.23-3.4,16.79,0.25c5.27,5.41-0.72,19.79-13.37,32.12
					c-3.2,3.12-6.52,5.8-9.78,7.99C1418.94,1383.27,1404.43,1387.27,1391.07,1385.84z"/>
				<path class="st2" d="M1259.94,1303.51l8.84-8.61c0.78,0.88,1.59,1.75,2.43,2.61c0.53,0.54,1.26,1.28,1.94,1.95
					c0.32,0.32,0.69,0.69,0.99,0.99l-0.01,0.04l0.72,0.7c12.61,12.3,29.67,18.82,45.82,17.56l1.53,1.57l-23.2,22.6
					c1.47,15.43-4.33,32.29-17,45.27c-0.02-0.05-0.04-0.1-0.06-0.15c-1.13,1.26-2.33,2.52-3.59,3.75
					c-12.66,12.33-27.19,17.93-32.46,12.52c-3.26-3.35-5.32-7.11-1.04-14.72c-7.72,4.08-11.42,1.92-14.68-1.43
					c-3.44-3.53-5.2-7.83-0.34-15.93c-8.22,4.64-12.48,2.77-15.91-0.76c-3.42-3.51-5.21-7.76-0.41-15.81
					c-8.57,5.06-13.23,3.4-16.79-0.25c-5.27-5.41,0.72-19.79,13.37-32.12c3.2-3.12,6.52-5.8,9.78-7.99
					C1232.08,1306.08,1246.59,1302.08,1259.94,1303.51z"/>
				<path class="st2" d="M1369.61,1296.9c-0.54,0.53-1.28,1.27-1.96,1.95c-0.32,0.32-0.68,0.68-0.97,0.97l-0.04-0.01l-0.71,0.73
					c-11.53,11.82-17.99,27.56-17.7,42.78l-26.27-26.97c-15.43,1.47-32.29-4.33-45.27-17c0.05-0.02-2.37-2.38-3.6-3.65
					c-12.33-12.66-17.93-27.19-12.52-32.46c3.35-3.26,7.11-5.32,14.72-1.04c-4.08-7.72-1.92-11.42,1.43-14.68
					c3.53-3.44,7.83-5.2,15.93-0.34c-4.64-8.22-2.77-12.48,0.76-15.92c3.51-3.42,7.76-5.21,15.81-0.41
					c-5.06-8.57-3.4-13.23,0.25-16.79c5.41-5.27,19.79,0.72,32.12,13.37c3.12,3.2,5.8,6.52,7.99,9.78
					c9.23,12.21,13.22,26.72,11.8,40.08l14.09,14.47C1373.49,1293.31,1371.53,1295.03,1369.61,1296.9z"/>
			</g>
			<g class="st192">
				<path class="st2" d="M1334.51,437.1l5.48-9.34c0.86,0.56,1.75,1.11,2.67,1.65c0.57,0.33,1.37,0.79,2.09,1.2
					c0.35,0.2,0.74,0.42,1.07,0.61l0,0.04l0.77,0.43c13.53,7.48,29.5,9.03,42.87,4.2l1.66,0.97l-14.38,24.53
					c4.84,12.72,3.85,28.35-3.85,42.28c-0.03-0.04-0.06-0.08-0.08-0.11c-0.66,1.33-1.38,2.67-2.17,4.01
					c-7.85,13.38-18.84,21.51-24.56,18.15c-3.54-2.08-6.16-4.78-4.31-12.22c-5.59,5.25-9.22,4.28-12.76,2.21
					c-3.73-2.19-6.22-5.42-3.99-13.41c-5.88,5.84-9.92,5.25-13.65,3.06c-3.71-2.18-6.22-5.36-4.02-13.29
					c-6.08,6.28-10.41,5.96-14.27,3.69c-5.72-3.35-4-16.92,3.85-30.3c1.98-3.38,4.17-6.43,6.42-9.04
					C1311.52,445.76,1322.87,439,1334.51,437.1z"/>
				<path class="st2" d="M1425.81,405.99c-0.34,0.57-0.79,1.37-1.2,2.1c-0.2,0.34-0.42,0.73-0.6,1.05l-0.04,0l-0.43,0.78
					c-7.01,12.69-8.81,27.51-5.03,40.33l-28.52-16.72c-12.72,4.84-28.35,3.85-42.28-3.85c0.04-0.03-2.56-1.46-3.9-2.25
					c-13.38-7.85-21.51-18.84-18.15-24.56c2.08-3.54,4.78-6.16,12.22-4.31c-5.25-5.59-4.28-9.22-2.21-12.76
					c2.19-3.73,5.42-6.22,13.41-3.99c-5.84-5.88-5.25-9.92-3.06-13.65c2.18-3.71,5.36-6.22,13.29-4.02
					c-6.28-6.08-5.96-10.41-3.69-14.27c3.35-5.72,16.92-4,30.3,3.85c3.38,1.98,6.43,4.17,9.04,6.42
					c10.65,8.19,17.41,19.54,19.31,31.18l15.3,8.97C1428.26,402.05,1427,403.95,1425.81,405.99z"/>
			</g>
			<g class="st193">
				<path class="st2" d="M1054.69,640.91c-1.68,3.53-4.37,6.04-11.72,4.67c6.15,5.01,6.19,8.96,4.44,12.63
					c-2.59,5.44-15,4.93-27.72-1.14c-3.22-1.53-6.14-3.28-8.68-5.11c-10.27-6.59-17.27-16.34-19.89-26.73l-13.64-6.51
					c0.51-0.94,1.01-1.91,1.49-2.91c0.28-0.59,0.56-1.19,0.82-1.8l0,0l0.93-1.94c5.72-12.83,5.89-27.39,0.49-39.12l0.57-1.2
					l28.05,13.38c11.13-5.36,25.36-5.67,38.56,0.22c-0.03,0.03-0.06,0.06-0.1,0.08c1.26,0.5,2.53,1.04,3.8,1.65
					c12.72,6.07,20.92,15.39,18.33,20.83c-1.61,3.37-3.85,5.94-10.72,4.84c5.18,4.65,4.59,8.01,2.98,11.38
					c-1.69,3.54-4.43,6.05-11.82,4.65C1056.61,633.66,1056.38,637.37,1054.69,640.91z"/>
				<path class="st2" d="M1059.5,579.98l-2.99,6.27c-1.04-0.57-2.11-1.13-3.21-1.65c-0.59-0.28-1.18-0.55-1.79-0.82l0.01,0
					l-1.95-0.93c-12.83-5.72-27.39-5.89-39.12-0.49l-0.89-0.42l9.86-20.66c-5.36-11.13-5.67-25.36,0.22-38.56
					c0.03,0.03,1.13-2.43,1.73-3.7c6.07-12.72,15.39-20.92,20.83-18.33c3.37,1.61,5.94,3.85,4.84,10.72
					c4.65-5.18,8.01-4.59,11.38-2.98c3.54,1.69,6.05,4.43,4.65,11.82c4.87-5.74,8.57-5.52,12.12-3.83
					c3.53,1.68,6.04,4.37,4.67,11.72c5.01-6.15,8.96-6.19,12.63-4.44c5.44,2.59,4.93,15-1.14,27.72c-1.53,3.22-3.28,6.14-5.11,8.68
					C1079.64,570.36,1069.89,577.36,1059.5,579.98z"/>
				<path class="st2" d="M938.68,554.57l4.24-8.88c0.82,0.44,1.67,0.87,2.54,1.28c0.54,0.26,1.3,0.61,1.99,0.92
					c0.33,0.15,0.71,0.32,1.01,0.47l0,0.03l0.73,0.33c12.83,5.72,27.39,5.89,39.12,0.49l1.58,0.75l-11.12,23.31
					c5.36,11.13,5.67,25.36-0.22,38.56c-0.03-0.03-0.06-0.06-0.08-0.1c-0.5,1.26-1.04,2.53-1.65,3.8
					c-6.07,12.72-15.39,20.92-20.83,18.33c-3.37-1.61-5.94-3.85-4.84-10.72c-4.65,5.18-8.01,4.59-11.38,2.98
					c-3.54-1.69-6.05-4.43-4.65-11.82c-4.87,5.74-8.57,5.52-12.12,3.83c-3.53-1.68-6.04-4.37-4.67-11.72
					c-5.01,6.15-8.96,6.19-12.63,4.44c-5.44-2.59-4.93-15,1.14-27.72c1.53-3.22,3.28-6.14,5.11-8.68
					C918.54,564.19,928.29,557.19,938.68,554.57z"/>
				<path class="st2" d="M1018.9,519.36c-0.26,0.54-0.61,1.3-0.93,2c-0.15,0.33-0.32,0.69-0.46,1l-0.03,0l-0.33,0.74
					c-5.36,12.02-5.85,25.58-1.44,36.89l-27.1-12.93c-11.13,5.36-25.36,5.67-38.56-0.22c0.03-0.03-2.43-1.13-3.7-1.73
					c-12.72-6.07-20.92-15.39-18.33-20.83c1.61-3.37,3.85-5.94,10.72-4.84c-5.18-4.65-4.59-8.01-2.98-11.38
					c1.69-3.54,4.43-6.05,11.82-4.65c-5.74-4.87-5.52-8.57-3.83-12.12c1.68-3.53,4.37-6.04,11.72-4.67
					c-6.15-5.01-6.19-8.96-4.44-12.63c2.59-5.44,15-4.93,27.72,1.14c3.22,1.53,6.14,3.28,8.68,5.11
					c10.27,6.59,17.27,16.34,19.89,26.73l14.54,6.94C1020.81,515.61,1019.82,517.43,1018.9,519.36z"/>
			</g>
			<g class="st194">
				<path class="st0" d="M1128.17,519.83c3.36-6.17,8.43-10.42,21.49-7.25c-10.56-9.6-10.26-16.68-6.76-23.1
					c5.18-9.51,27.42-7.4,49.66,4.72c5.63,3.07,10.71,6.48,15.09,10.02c17.81,12.82,29.43,31.01,33.13,49.91l23.86,13
					c-1.01,1.64-2,3.33-2.95,5.08c-0.56,1.03-1.11,2.08-1.65,3.15l0,0l-1.85,3.39c-11.51,22.48-13.23,48.62-4.66,70.2l-1.14,2.1
					l-49.07-26.74c-20.51,8.55-46.07,7.73-69.21-4.12c0.06-0.05,0.12-0.09,0.18-0.14c-2.21-1.01-4.43-2.12-6.66-3.33
					c-22.25-12.12-36.08-29.66-30.9-39.17c3.21-5.89,7.48-10.3,19.72-7.66c-8.85-8.85-7.47-14.83-4.26-20.72
					c3.38-6.2,8.53-10.44,21.68-7.21C1124.02,532.65,1124.79,526.03,1128.17,519.83z"/>
				<path class="st0" d="M1113.65,628.77l5.98-10.97c1.8,1.13,3.67,2.22,5.61,3.28c1.03,0.56,2.07,1.11,3.13,1.64l-0.01,0.01
					l3.42,1.86c22.48,11.51,48.62,13.23,70.2,4.65l1.55,0.84l-19.7,36.15c8.55,20.51,7.73,46.07-4.12,69.21
					c-0.05-0.06-2.26,4.25-3.47,6.48c-12.12,22.25-29.66,36.08-39.17,30.9c-5.89-3.21-10.3-7.48-7.66-19.72
					c-8.85,8.85-14.83,7.47-20.72,4.26c-6.2-3.38-10.44-8.53-7.21-21.68c-9.3,9.84-15.92,9.08-22.12,5.7
					c-6.17-3.36-10.42-8.43-7.25-21.49c-9.6,10.56-16.68,10.26-23.1,6.76c-9.51-5.18-7.4-27.42,4.72-49.66
					c3.07-5.63,6.48-10.71,10.02-15.09C1076.56,644.09,1094.75,632.47,1113.65,628.77z"/>
				<path class="st0" d="M1328.14,686.05l-8.46,15.53c-1.44-0.87-2.92-1.72-4.44-2.55c-0.95-0.52-2.27-1.21-3.48-1.85
					c-0.58-0.31-1.24-0.65-1.77-0.93l0-0.06l-1.28-0.66c-22.48-11.51-48.62-13.23-70.2-4.66l-2.76-1.5l22.22-40.78
					c-8.55-20.51-7.73-46.07,4.12-69.21c0.05,0.06,0.09,0.12,0.14,0.18c1.01-2.21,2.12-4.43,3.33-6.66
					c12.12-22.25,29.66-36.08,39.17-30.9c5.89,3.21,10.3,7.48,7.66,19.72c8.85-8.85,14.83-7.47,20.72-4.26
					c6.2,3.38,10.44,8.53,7.21,21.68c9.3-9.84,15.92-9.08,22.12-5.7c6.17,3.36,10.42,8.43,7.25,21.49
					c9.6-10.56,16.68-10.26,23.1-6.76c9.51,5.18,7.4,27.42-4.72,49.66c-3.07,5.63-6.48,10.71-10.02,15.09
					C1365.23,670.73,1347.04,682.35,1328.14,686.05z"/>
				<path class="st0" d="M1180.71,741.53c0.52-0.95,1.22-2.28,1.86-3.49c0.3-0.57,0.64-1.22,0.92-1.75l0.06,0l0.66-1.29
					c10.79-21.07,12.97-45.36,6.14-66.1l47.41,25.83c20.51-8.55,46.07-7.73,69.21,4.12c-0.06,0.05,4.25,2.26,6.48,3.47
					c22.25,12.12,36.08,29.66,30.9,39.17c-3.21,5.89-7.48,10.3-19.72,7.66c8.85,8.85,7.47,14.83,4.26,20.72
					c-3.38,6.2-8.53,10.44-21.68,7.21c9.84,9.3,9.08,15.92,5.7,22.12c-3.36,6.17-8.43,10.42-21.49,7.25
					c10.56,9.6,10.26,16.68,6.76,23.1c-5.18,9.51-27.42,7.4-49.66-4.72c-5.63-3.07-10.71-6.48-15.09-10.02
					c-17.81-12.82-29.43-31.01-33.13-49.91l-25.43-13.86C1176.9,748.08,1178.86,744.91,1180.71,741.53z"/>
			</g>
			<g class="st194">
				<path class="st0" d="M1145.5,88.16c1.25-3.39,3.5-5.93,10.37-5.29c-6.08-4.09-6.46-7.71-5.16-11.23
					c1.92-5.22,13.38-5.81,25.59-1.31c3.09,1.14,5.93,2.49,8.41,3.96c10.01,5.18,17.27,13.56,20.56,22.88l13.09,4.82
					c-0.39,0.91-0.77,1.84-1.12,2.8c-0.21,0.57-0.41,1.14-0.6,1.72l0,0l-0.69,1.86c-4.17,12.28-3.09,25.69,2.88,36.01l-0.42,1.15
					l-26.93-9.92c-9.78,5.88-22.83,7.37-35.47,3.08c0.03-0.03,0.05-0.06,0.08-0.08c-1.2-0.35-2.41-0.75-3.63-1.19
					c-12.21-4.5-20.55-12.37-18.63-17.59c1.19-3.23,3.03-5.79,9.45-5.37c-5.16-3.83-4.9-6.98-3.71-10.21
					c1.25-3.4,3.55-5.94,10.48-5.28C1144.35,94.99,1144.24,91.56,1145.5,88.16z"/>
				<path class="st0" d="M1146.27,144.6l2.22-6.02c1,0.44,2.03,0.86,3.1,1.25c0.56,0.21,1.14,0.41,1.71,0.6l0,0l1.88,0.69
					c12.28,4.17,25.69,3.09,36.01-2.88l0.85,0.31l-7.3,19.84c5.88,9.78,7.37,22.83,3.08,35.47c-0.03-0.03-0.83,2.33-1.28,3.55
					c-4.49,12.21-12.37,20.55-17.59,18.63c-3.23-1.19-5.79-3.03-5.36-9.45c-3.84,5.16-6.98,4.9-10.21,3.71
					c-3.4-1.25-5.94-3.55-5.28-10.48c-3.99,5.7-7.41,5.8-10.81,4.55c-3.39-1.25-5.93-3.5-5.29-10.37
					c-4.09,6.08-7.71,6.46-11.23,5.16c-5.22-1.92-5.81-13.38-1.31-25.59c1.14-3.09,2.49-5.93,3.96-8.41
					C1128.57,155.15,1136.94,147.89,1146.27,144.6z"/>
				<path class="st0" d="M1259.53,157.67l-3.14,8.52c-0.8-0.34-1.61-0.66-2.45-0.96c-0.52-0.19-1.24-0.45-1.91-0.68
					c-0.32-0.11-0.68-0.24-0.97-0.34l-0.01-0.03l-0.7-0.24c-12.28-4.17-25.69-3.09-36.01,2.88l-1.52-0.56l8.24-22.38
					c-5.88-9.78-7.37-22.83-3.08-35.47c0.03,0.03,0.06,0.05,0.08,0.08c0.35-1.2,0.75-2.41,1.2-3.63
					c4.49-12.21,12.37-20.55,17.59-18.63c3.23,1.19,5.79,3.03,5.36,9.45c3.83-5.16,6.98-4.9,10.21-3.71
					c3.4,1.25,5.94,3.55,5.28,10.48c3.99-5.7,7.41-5.8,10.81-4.55c3.39,1.25,5.93,3.5,5.29,10.37c4.09-6.08,7.71-6.46,11.23-5.16
					c5.22,1.92,5.81,13.38,1.31,25.59c-1.14,3.09-2.49,5.93-3.96,8.41C1277.22,147.11,1268.85,154.37,1259.53,157.67z"/>
				<path class="st0" d="M1188.77,196.87c0.19-0.52,0.45-1.25,0.68-1.91c0.11-0.31,0.23-0.67,0.34-0.96l0.03-0.01l0.24-0.71
					c3.91-11.51,3.2-24.02-1.82-34.04l26.02,9.58c9.78-5.88,22.83-7.37,35.47-3.08c-0.03,0.03,2.33,0.83,3.55,1.28
					c12.21,4.5,20.55,12.37,18.63,17.59c-1.19,3.23-3.03,5.79-9.45,5.36c5.16,3.83,4.9,6.98,3.71,10.21
					c-1.25,3.4-3.55,5.94-10.48,5.28c5.7,3.99,5.8,7.41,4.55,10.81c-1.25,3.39-3.5,5.93-10.37,5.29c6.08,4.09,6.46,7.71,5.16,11.23
					c-1.92,5.22-13.38,5.81-25.59,1.31c-3.09-1.14-5.93-2.49-8.41-3.96c-10.01-5.18-17.27-13.56-20.56-22.88l-13.96-5.14
					C1187.32,200.49,1188.08,198.73,1188.77,196.87z"/>
			</g>
			<g class="st194">
				<path class="st37" d="M1137.6,1108.25c1.78-3.27,4.46-5.52,11.38-3.84c-5.59-5.08-5.43-8.84-3.58-12.24
					c2.75-5.04,14.52-3.92,26.31,2.5c2.98,1.62,5.67,3.43,7.99,5.31c9.43,6.79,15.59,16.43,17.55,26.44l12.64,6.89
					c-0.54,0.87-1.06,1.76-1.56,2.69c-0.3,0.55-0.59,1.1-0.87,1.67l0,0l-0.98,1.8c-6.1,11.91-7.01,25.76-2.47,37.19l-0.61,1.11
					l-26-14.16c-10.87,4.53-24.41,4.1-36.67-2.18c0.03-0.02,0.06-0.05,0.1-0.07c-1.17-0.54-2.35-1.12-3.53-1.77
					c-11.78-6.42-19.11-15.71-16.37-20.75c1.7-3.12,3.96-5.45,10.45-4.06c-4.69-4.69-3.95-7.86-2.26-10.98
					c1.79-3.28,4.52-5.53,11.48-3.82C1135.4,1115.05,1135.81,1111.54,1137.6,1108.25z"/>
				<path class="st37" d="M1129.91,1165.96l3.17-5.81c0.96,0.6,1.94,1.18,2.97,1.74c0.54,0.3,1.1,0.59,1.66,0.87l-0.01,0l1.81,0.98
					c11.91,6.1,25.76,7.01,37.19,2.47l0.82,0.45l-10.43,19.15c4.53,10.87,4.1,24.41-2.18,36.67c-0.02-0.03-1.2,2.25-1.84,3.43
					c-6.42,11.78-15.71,19.11-20.75,16.37c-3.12-1.7-5.45-3.96-4.06-10.45c-4.69,4.69-7.86,3.96-10.98,2.26
					c-3.28-1.79-5.53-4.52-3.82-11.48c-4.92,5.21-8.44,4.81-11.72,3.02c-3.27-1.78-5.52-4.46-3.84-11.38
					c-5.08,5.59-8.84,5.43-12.24,3.58c-5.04-2.75-3.92-14.52,2.5-26.31c1.62-2.98,3.43-5.67,5.31-7.99
					C1110.26,1174.08,1119.9,1167.93,1129.91,1165.96z"/>
				<path class="st37" d="M1243.54,1196.31l-4.48,8.23c-0.76-0.46-1.55-0.91-2.35-1.35c-0.5-0.27-1.2-0.64-1.84-0.98
					c-0.31-0.16-0.65-0.34-0.94-0.49l0-0.03l-0.68-0.35c-11.91-6.1-25.76-7.01-37.19-2.47l-1.46-0.8l11.77-21.6
					c-4.53-10.87-4.1-24.41,2.18-36.67c0.02,0.03,0.05,0.06,0.07,0.1c0.54-1.17,1.12-2.35,1.77-3.53
					c6.42-11.78,15.71-19.11,20.75-16.37c3.12,1.7,5.45,3.96,4.06,10.45c4.69-4.69,7.86-3.95,10.98-2.26
					c3.28,1.79,5.53,4.52,3.82,11.48c4.92-5.21,8.44-4.81,11.72-3.02c3.27,1.78,5.52,4.46,3.84,11.38
					c5.08-5.59,8.84-5.43,12.24-3.58c5.04,2.75,3.92,14.52-2.5,26.31c-1.62,2.98-3.43,5.67-5.31,7.99
					C1263.19,1188.2,1253.55,1194.35,1243.54,1196.31z"/>
				<path class="st37" d="M1165.43,1225.7c0.27-0.5,0.65-1.21,0.98-1.85c0.16-0.3,0.34-0.64,0.49-0.92l0.03,0l0.35-0.69
					c5.72-11.16,6.87-24.03,3.25-35.01l25.12,13.68c10.87-4.53,24.41-4.1,36.67,2.18c-0.03,0.02,2.25,1.2,3.43,1.84
					c11.78,6.42,19.11,15.71,16.37,20.75c-1.7,3.12-3.96,5.45-10.45,4.06c4.69,4.69,3.95,7.86,2.26,10.98
					c-1.79,3.28-4.52,5.53-11.48,3.82c5.21,4.92,4.81,8.44,3.02,11.72c-1.78,3.27-4.46,5.52-11.38,3.84
					c5.59,5.08,5.43,8.84,3.58,12.24c-2.75,5.04-14.52,3.92-26.31-2.5c-2.98-1.62-5.67-3.43-7.99-5.31
					c-9.43-6.79-15.59-16.43-17.55-26.44l-13.47-7.34C1163.42,1229.17,1164.46,1227.49,1165.43,1225.7z"/>
			</g>
			<g class="st193">
				<path class="st37" d="M972.15,764.31c2.28-4.19,5.72-7.08,14.59-4.92c-7.17-6.51-6.96-11.33-4.59-15.68
					c3.52-6.46,18.61-5.02,33.71,3.21c3.82,2.08,7.27,4.4,10.24,6.8c12.09,8.7,19.98,21.05,22.49,33.88l16.2,8.82
					c-0.69,1.11-1.36,2.26-2,3.45c-0.38,0.7-0.76,1.41-1.12,2.14l0,0l-1.26,2.3c-7.82,15.26-8.98,33-3.16,47.65l-0.78,1.42
					l-33.31-18.15c-13.92,5.8-31.28,5.25-46.98-2.8c0.04-0.03,0.08-0.06,0.12-0.09c-1.5-0.69-3.01-1.44-4.52-2.26
					c-15.1-8.23-24.49-20.13-20.97-26.59c2.18-4,5.08-6.99,13.39-5.2c-6.01-6.01-5.07-10.07-2.89-14.07
					c2.29-4.21,5.79-7.08,14.72-4.89C969.34,773.01,969.86,768.51,972.15,764.31z"/>
				<path class="st37" d="M962.29,838.26l4.06-7.44c1.22,0.76,2.49,1.51,3.81,2.23c0.7,0.38,1.41,0.75,2.12,1.11l-0.01,0l2.32,1.26
					c15.26,7.82,33,8.98,47.65,3.16l1.05,0.57l-13.37,24.54c5.8,13.92,5.25,31.28-2.8,46.98c-0.03-0.04-1.53,2.89-2.36,4.4
					c-8.23,15.1-20.13,24.49-26.59,20.97c-4-2.18-6.99-5.08-5.2-13.39c-6.01,6.01-10.07,5.07-14.07,2.89
					c-4.21-2.29-7.08-5.79-4.89-14.72c-6.31,6.68-10.81,6.16-15.02,3.87c-4.19-2.28-7.07-5.72-4.92-14.59
					c-6.51,7.17-11.33,6.96-15.68,4.59c-6.46-3.52-5.02-18.61,3.21-33.71c2.08-3.82,4.4-7.27,6.8-10.24
					C937.12,848.66,949.47,840.77,962.29,838.26z"/>
				<path class="st37" d="M1107.9,877.15l-5.74,10.54c-0.98-0.59-1.98-1.17-3.01-1.73c-0.64-0.35-1.54-0.82-2.36-1.25
					c-0.39-0.21-0.84-0.44-1.2-0.63l0-0.04l-0.87-0.45c-15.26-7.82-33-8.98-47.65-3.16l-1.87-1.02l15.08-27.68
					c-5.8-13.92-5.25-31.28,2.8-46.98c0.03,0.04,0.06,0.08,0.09,0.12c0.69-1.5,1.44-3.01,2.26-4.52
					c8.23-15.1,20.13-24.49,26.59-20.97c4,2.18,6.99,5.08,5.2,13.39c6.01-6.01,10.07-5.07,14.07-2.89
					c4.21,2.29,7.08,5.79,4.89,14.72c6.31-6.68,10.81-6.16,15.02-3.87c4.19,2.28,7.07,5.72,4.92,14.59
					c6.51-7.17,11.33-6.96,15.68-4.59c6.46,3.52,5.02,18.61-3.21,33.71c-2.08,3.82-4.4,7.27-6.8,10.24
					C1133.07,866.74,1120.73,874.63,1107.9,877.15z"/>
				<path class="st37" d="M1007.81,914.8c0.35-0.65,0.83-1.55,1.26-2.37c0.21-0.39,0.43-0.83,0.63-1.18l0.04,0l0.45-0.88
					c7.33-14.3,8.81-30.79,4.17-44.87l32.18,17.54c13.92-5.8,31.28-5.25,46.98,2.8c-0.04,0.03,2.89,1.53,4.4,2.36
					c15.1,8.23,24.49,20.13,20.97,26.59c-2.18,4-5.08,6.99-13.39,5.2c6.01,6.01,5.07,10.07,2.89,14.07
					c-2.29,4.21-5.79,7.08-14.72,4.89c6.68,6.31,6.16,10.81,3.87,15.02c-2.28,4.19-5.72,7.07-14.59,4.92
					c7.17,6.51,6.96,11.33,4.59,15.68c-3.52,6.46-18.61,5.02-33.71-3.21c-3.82-2.08-7.27-4.4-10.24-6.8
					c-12.09-8.7-19.98-21.05-22.49-33.88l-17.26-9.41C1005.23,919.25,1006.56,917.1,1007.81,914.8z"/>
			</g>
			<g class="st192">
				<path class="st0" d="M1367.44,1010.81c2.68-4.92,6.73-8.32,17.15-5.79c-8.43-7.66-8.19-13.32-5.4-18.44
					c4.14-7.59,21.88-5.9,39.64,3.77c4.49,2.45,8.55,5.17,12.04,8c14.22,10.23,23.49,24.75,26.45,39.84l19.04,10.38
					c-0.81,1.31-1.59,2.66-2.36,4.06c-0.45,0.82-0.89,1.66-1.32,2.51l0,0l-1.48,2.7c-9.19,17.94-10.56,38.81-3.72,56.03l-0.91,1.67
					l-39.17-21.34c-16.37,6.82-36.78,6.17-55.25-3.29c0.05-0.04,0.1-0.07,0.14-0.11c-1.76-0.81-3.54-1.69-5.32-2.66
					c-17.76-9.67-28.8-23.67-24.66-31.26c2.56-4.7,5.97-8.22,15.74-6.11c-7.07-7.06-5.96-11.84-3.4-16.54
					c2.7-4.95,6.81-8.33,17.3-5.75C1364.14,1021.05,1364.75,1015.76,1367.44,1010.81z"/>
				<path class="st0" d="M1355.86,1097.77l4.77-8.75c1.44,0.9,2.93,1.77,4.48,2.62c0.82,0.45,1.65,0.88,2.5,1.31l-0.01,0.01
					l2.73,1.48c17.94,9.19,38.81,10.56,56.03,3.72l1.24,0.67l-15.72,28.85c6.82,16.37,6.17,36.78-3.29,55.25
					c-0.04-0.05-1.8,3.39-2.77,5.17c-9.67,17.76-23.67,28.8-31.26,24.66c-4.7-2.56-8.22-5.97-6.11-15.74
					c-7.06,7.07-11.84,5.96-16.54,3.4c-4.95-2.7-8.33-6.81-5.75-17.3c-7.42,7.86-12.71,7.24-17.66,4.55
					c-4.92-2.68-8.32-6.73-5.79-17.15c-7.66,8.43-13.32,8.19-18.44,5.4c-7.59-4.14-5.9-21.88,3.77-39.64
					c2.45-4.49,5.17-8.55,8-12.04C1326.25,1110,1340.77,1100.73,1355.86,1097.77z"/>
			</g>
			<g class="st193">
				<path class="st0" d="M1013.81,1007.36c1.38-2.54,3.47-4.29,8.84-2.98c-4.34-3.95-4.22-6.86-2.78-9.5
					c2.13-3.91,11.28-3.04,20.42,1.94c2.31,1.26,4.4,2.66,6.21,4.12c7.32,5.27,12.1,12.75,13.63,20.53l9.81,5.35
					c-0.42,0.67-0.82,1.37-1.21,2.09c-0.23,0.42-0.46,0.86-0.68,1.3l0,0l-0.76,1.39c-4.74,9.24-5.44,20-1.91,28.87l-0.47,0.86
					l-20.18-11c-8.43,3.52-18.95,3.18-28.47-1.69c0.03-0.02,0.05-0.04,0.07-0.06c-0.91-0.42-1.82-0.87-2.74-1.37
					c-9.15-4.98-14.84-12.2-12.71-16.11c1.32-2.42,3.08-4.23,8.11-3.15c-3.64-3.64-3.07-6.1-1.75-8.52
					c1.39-2.55,3.51-4.29,8.92-2.96C1012.11,1012.64,1012.42,1009.91,1013.81,1007.36z"/>
				<path class="st0" d="M1007.84,1052.17l2.46-4.51c0.74,0.46,1.51,0.91,2.31,1.35c0.42,0.23,0.85,0.46,1.29,0.67l0,0l1.41,0.76
					c9.24,4.74,20,5.44,28.87,1.91l0.64,0.35l-8.1,14.87c3.52,8.43,3.18,18.95-1.69,28.47c-0.02-0.03-0.93,1.75-1.43,2.66
					c-4.98,9.15-12.2,14.84-16.11,12.71c-2.42-1.32-4.23-3.08-3.15-8.11c-3.64,3.64-6.1,3.07-8.52,1.75
					c-2.55-1.39-4.29-3.51-2.96-8.92c-3.82,4.05-6.55,3.73-9.1,2.34c-2.54-1.38-4.29-3.47-2.98-8.84c-3.95,4.34-6.86,4.22-9.5,2.78
					c-3.91-2.13-3.04-11.28,1.94-20.42c1.26-2.31,2.66-4.4,4.12-6.21C992.59,1058.47,1000.07,1053.69,1007.84,1052.17z"/>
				<path class="st0" d="M1096.06,1075.73l-3.48,6.39c-0.59-0.36-1.2-0.71-1.82-1.05c-0.39-0.21-0.93-0.5-1.43-0.76
					c-0.24-0.13-0.51-0.27-0.73-0.38l0-0.02l-0.53-0.27c-9.24-4.74-20-5.44-28.87-1.91l-1.14-0.62l9.14-16.77
					c-3.52-8.43-3.18-18.95,1.69-28.47c0.02,0.03,0.04,0.05,0.06,0.07c0.42-0.91,0.87-1.82,1.37-2.74
					c4.98-9.15,12.2-14.84,16.11-12.71c2.42,1.32,4.23,3.08,3.15,8.11c3.64-3.64,6.1-3.07,8.52-1.75c2.55,1.39,4.29,3.51,2.96,8.92
					c3.82-4.05,6.55-3.73,9.1-2.34c2.54,1.38,4.29,3.47,2.98,8.84c3.95-4.34,6.86-4.22,9.5-2.78c3.91,2.13,3.04,11.28-1.94,20.42
					c-1.26,2.31-2.66,4.4-4.12,6.21C1111.31,1069.43,1103.83,1074.21,1096.06,1075.73z"/>
				<path class="st0" d="M1035.42,1098.54c0.21-0.39,0.5-0.94,0.76-1.44c0.12-0.24,0.26-0.5,0.38-0.72l0.02,0l0.27-0.53
					c4.44-8.67,5.34-18.66,2.53-27.18l19.5,10.62c8.44-3.52,18.95-3.18,28.47,1.69c-0.03,0.02,1.75,0.93,2.66,1.43
					c9.15,4.98,14.84,12.2,12.71,16.11c-1.32,2.42-3.08,4.23-8.11,3.15c3.64,3.64,3.07,6.1,1.75,8.52
					c-1.39,2.55-3.51,4.29-8.92,2.96c4.05,3.82,3.73,6.55,2.34,9.1c-1.38,2.54-3.47,4.29-8.84,2.98c4.34,3.95,4.22,6.86,2.78,9.5
					c-2.13,3.91-11.28,3.04-20.42-1.94c-2.31-1.26-4.4-2.66-6.21-4.12c-7.32-5.27-12.1-12.75-13.63-20.53l-10.46-5.7
					C1033.86,1101.24,1034.66,1099.93,1035.42,1098.54z"/>
			</g>
			<g class="st193">
				<path class="st0" d="M991.35,1179.7c3.88-2.99,8.32-4.28,15.76,1.42c-4.04-9.1-1.85-13.54,2.19-16.65
					c5.99-4.61,19.59,3,30.38,17c2.73,3.54,5.01,7.15,6.81,10.65c7.76,13.2,10.06,28.09,7.1,41.2l11.57,15.02
					c-1.11,0.76-2.21,1.56-3.32,2.41c-0.65,0.5-1.3,1.02-1.94,1.55l0,0l-2.14,1.64c-13.68,11.11-22.14,27.32-22.74,43.51l-1.32,1.02
					l-23.8-30.89c-15.5-0.32-31.6-8.04-43.03-22.12c0.05-0.01,0.1-0.03,0.16-0.04c-1.13-1.27-2.23-2.6-3.31-4
					c-10.79-14-14.68-29.1-8.69-33.71c3.71-2.86,7.68-4.47,14.75,0.66c-3.16-8.14-0.59-11.57,3.12-14.43
					c3.9-3.01,8.39-4.26,15.87,1.5C985.09,1186.72,987.45,1182.71,991.35,1179.7z"/>
				<path class="st0" d="M951.4,1245.17l6.9-5.32c0.83,1.23,1.72,2.45,2.66,3.67c0.5,0.65,1.01,1.29,1.53,1.93l-0.01,0l1.66,2.15
					c11.11,13.68,27.32,22.14,43.51,22.74l0.75,0.98l-22.76,17.53c-0.32,15.5-8.04,31.6-22.12,43.03c-0.01-0.05-2.64,2.08-4.04,3.16
					c-14,10.79-29.1,14.68-33.71,8.69c-2.86-3.71-4.47-7.68,0.67-14.75c-8.14,3.16-11.57,0.59-14.43-3.12
					c-3.01-3.9-4.26-8.39,1.51-15.87c-8.71,3.67-12.72,1.31-15.73-2.59c-2.99-3.88-4.28-8.32,1.42-15.76
					c-9.1,4.04-13.54,1.85-16.65-2.19c-4.61-5.99,3-19.59,17-30.38c3.54-2.73,7.15-5.01,10.65-6.81
					C923.41,1244.5,938.29,1242.21,951.4,1245.17z"/>
				<path class="st0" d="M1072.21,1342.15l-9.78,7.53c-0.67-0.96-1.38-1.92-2.11-2.88c-0.46-0.6-1.11-1.41-1.7-2.16
					c-0.29-0.36-0.61-0.76-0.87-1.1l0.02-0.04l-0.63-0.78c-11.11-13.68-27.32-22.14-43.51-22.74l-1.34-1.74l25.67-19.78
					c0.32-15.5,8.04-31.6,22.12-43.03c0.01,0.05,0.03,0.1,0.04,0.16c1.27-1.13,2.6-2.23,4-3.31c14-10.79,29.1-14.68,33.71-8.69
					c2.86,3.71,4.47,7.68-0.66,14.75c8.14-3.16,11.57-0.59,14.43,3.12c3.01,3.9,4.26,8.39-1.5,15.87
					c8.71-3.67,12.72-1.31,15.73,2.59c2.99,3.88,4.28,8.32-1.42,15.76c9.1-4.04,13.54-1.85,16.65,2.19c4.61,5.99-3,19.59-17,30.38
					c-3.54,2.73-7.15,5.01-10.65,6.81C1100.2,1342.82,1085.32,1345.11,1072.21,1342.15z"/>
				<path class="st0" d="M962.45,1336.04c0.6-0.46,1.42-1.11,2.17-1.71c0.35-0.28,0.75-0.6,1.08-0.85l0.04,0.02l0.79-0.64
					c12.83-10.41,21.06-25.31,22.54-40.47l22.99,29.85c15.5,0.32,31.6,8.04,43.03,22.12c-0.05,0.01,2.08,2.64,3.16,4.04
					c10.79,14,14.68,29.1,8.69,33.71c-3.71,2.86-7.68,4.47-14.75-0.66c3.16,8.14,0.59,11.57-3.12,14.43
					c-3.9,3.01-8.39,4.26-15.87-1.5c3.67,8.71,1.31,12.72-2.59,15.73c-3.88,2.99-8.32,4.28-15.76-1.42
					c4.04,9.1,1.85,13.54-2.19,16.65c-5.99,4.61-19.59-3-30.38-17c-2.73-3.54-5.01-7.15-6.81-10.65c-7.76-13.2-10.05-28.09-7.1-41.2
					l-12.33-16.01C958.18,1339.16,960.33,1337.68,962.45,1336.04z"/>
			</g>
		</g>
		<g style="clip-path:url(#SVGID_2_);">
			<g class="st192">
				<path class="st37" d="M19.46,943.26c6.48-1.42,11.68-4.89,12.25-17.57c5.91,12.11,12.42,13.71,19.16,12.23
					c9.99-2.19,13.95-22.91,8.84-46.28c-1.29-5.91-3.04-11.42-5.1-16.33c-6.92-19.54-20.34-34.88-36.5-43.23l-5.48-25.07
					c-1.75,0.48-3.55,0.93-5.39,1.33c-1.08,0.24-2.18,0.46-3.29,0.66l0,0L0.4,809.8c-23.42,4.5-47.58-0.86-64.88-14.33l-2.2,0.48
					l11.27,51.56c-13.17,16.34-19.19,39.73-14.56,63.85c0.06-0.04,0.12-0.08,0.17-0.13c0.33,2.27,0.75,4.58,1.26,6.92
					c5.11,23.37,17.36,40.55,27.35,38.37c6.19-1.35,11.31-4.06,12.16-15.86c5.69,10.37,11.48,10.69,17.66,9.34
					c6.51-1.42,11.72-4.98,12.26-17.75C6.73,943.63,12.95,944.68,19.46,943.26z"/>
				<path class="st37" d="M-78.41,718l-16.32,3.57c0.41,1.53,0.79,3.1,1.14,4.7c0.22,1,0.5,2.38,0.76,3.64
					c0.12,0.61,0.26,1.29,0.38,1.85l0.05,0.02l0.26,1.34c4.5,23.42-0.86,47.58-14.33,64.88l0.63,2.9l42.85-9.37
					c16.34,13.17,39.73,19.19,63.85,14.56c-0.04-0.06-0.08-0.12-0.13-0.17c2.27-0.33,4.58-0.75,6.92-1.26
					c23.37-5.11,40.55-17.36,38.37-27.35c-1.35-6.19-4.06-11.31-15.86-12.16c10.37-5.69,10.69-11.48,9.34-17.66
					c-1.42-6.51-4.98-11.72-17.75-12.26c11.38-5.83,12.44-12.04,11.01-18.55c-1.42-6.48-4.89-11.68-17.57-12.25
					c12.11-5.91,13.71-12.42,12.23-19.16c-2.19-9.99-22.91-13.95-46.28-8.84c-5.91,1.29-11.42,3.04-16.33,5.1
					C-54.72,688.42-70.06,701.84-78.41,718z"/>
			</g>
			<g class="st193">
				<path class="st37" d="M296.46,447.53c5.01-1.1,9.02-3.78,9.47-13.57c4.57,9.36,9.6,10.59,14.81,9.45
					c7.72-1.69,10.78-17.7,6.83-35.76c-1-4.57-2.35-8.83-3.94-12.62c-5.35-15.1-15.72-26.95-28.2-33.41l-4.24-19.37
					c-1.36,0.37-2.74,0.72-4.16,1.03c-0.84,0.18-1.69,0.35-2.54,0.51l0,0l-2.75,0.61c-18.1,3.48-36.77-0.66-50.13-11.07l-1.7,0.37
					l8.71,39.84c-10.18,12.62-14.83,30.7-11.25,49.34c0.04-0.03,0.09-0.07,0.13-0.1c0.26,1.75,0.58,3.54,0.97,5.35
					c3.95,18.06,13.41,31.34,21.13,29.65c4.78-1.05,8.74-3.14,9.39-12.25c4.39,8.01,8.87,8.26,13.65,7.21
					c5.03-1.1,9.06-3.85,9.48-13.72C286.63,447.82,291.43,448.63,296.46,447.53z"/>
				<path class="st37" d="M217.17,435.46l8.9-1.95c-0.42-1.49-0.81-3.03-1.15-4.6c-0.18-0.83-0.35-1.68-0.51-2.53l-0.01,0.01
					l-0.6-2.77c-3.48-18.1,0.66-36.77,11.07-50.13l-0.28-1.26l-29.35,6.42c-12.62-10.18-30.7-14.83-49.34-11.25
					c0.03,0.04-3.44,0.71-5.25,1.11c-18.06,3.95-31.34,13.41-29.65,21.13c1.05,4.78,3.14,8.74,12.25,9.39
					c-8.01,4.39-8.26,8.87-7.21,13.65c1.1,5.03,3.85,9.05,13.72,9.48c-8.8,4.5-9.61,9.3-8.51,14.34c1.1,5.01,3.78,9.02,13.57,9.47
					c-9.36,4.57-10.59,9.6-9.45,14.81c1.69,7.72,17.7,10.78,35.76,6.83c4.57-1,8.83-2.35,12.62-3.94
					C198.86,458.31,210.71,447.94,217.17,435.46z"/>
				<path class="st37" d="M220.83,273.47l-12.61,2.76c0.32,1.19,0.61,2.4,0.88,3.63c0.17,0.77,0.39,1.84,0.58,2.82
					c0.1,0.47,0.2,1,0.29,1.43l0.04,0.01l0.2,1.03c3.48,18.1-0.66,36.77-11.07,50.13l0.49,2.24l33.11-7.24
					c12.62,10.18,30.7,14.83,49.34,11.25c-0.03-0.04-0.07-0.09-0.1-0.13c1.75-0.26,3.54-0.58,5.35-0.97
					c18.06-3.95,31.33-13.41,29.65-21.13c-1.05-4.78-3.14-8.74-12.25-9.39c8.01-4.39,8.26-8.87,7.21-13.65
					c-1.1-5.03-3.85-9.05-13.72-9.48c8.8-4.5,9.61-9.3,8.51-14.34c-1.1-5.01-3.78-9.02-13.57-9.47c9.36-4.57,10.59-9.6,9.45-14.81
					c-1.69-7.72-17.7-10.78-35.76-6.83c-4.57,1-8.83,2.35-12.62,3.94C239.14,250.61,227.29,260.98,220.83,273.47z"/>
				<path class="st37" d="M151.86,365.44c0.77-0.17,1.85-0.39,2.83-0.59c0.46-0.09,0.98-0.2,1.41-0.29l0.01-0.04l1.04-0.2
					c16.97-3.26,34.43,0.17,47.57,9.19l-8.42-38.49c10.18-12.62,14.83-30.7,11.25-49.34c-0.04,0.03-0.71-3.44-1.11-5.25
					c-3.95-18.06-13.41-31.34-21.13-29.65c-4.78,1.05-8.74,3.14-9.39,12.25c-4.39-8.01-8.87-8.26-13.65-7.21
					c-5.03,1.1-9.05,3.85-9.48,13.72c-4.5-8.8-9.3-9.61-14.34-8.51c-5.01,1.1-9.02,3.78-9.47,13.57c-4.57-9.36-9.6-10.59-14.81-9.45
					c-7.72,1.69-10.78,17.7-6.83,35.76c1,4.57,2.35,8.83,3.94,12.62c5.35,15.1,15.72,26.95,28.2,33.41l4.51,20.65
					C146.48,366.77,149.11,366.04,151.86,365.44z"/>
			</g>
			<g class="st194">
				<path class="st2" d="M160.66,1073.87c3.89,1.83,7.93,2.1,13.24-4.19c-1.74,8.56,0.97,11.95,5.02,13.86
					c6,2.82,16.22-6.27,22.82-20.3c1.67-3.55,2.95-7.07,3.83-10.41c4.16-12.78,3.31-25.96-1.69-36.64l7.08-15.05
					c-1.09-0.44-2.19-0.92-3.3-1.44c-0.65-0.31-1.3-0.63-1.95-0.96l0,0l-2.14-1c-13.82-6.94-24.12-19.23-27.7-32.99l-1.32-0.62
					l-14.56,30.96c-13.22,3.2-25.56,12.85-32.7,27.08c0.05,0,0.09,0,0.14,0c-0.73,1.3-1.42,2.65-2.08,4.06
					c-6.6,14.04-7.09,27.7-1.09,30.53c3.72,1.75,7.42,2.38,12.51-3.35c-1.17,7.57,1.68,10.03,5.4,11.78
					c3.91,1.84,7.99,2.07,13.32-4.28C153.97,1069.03,156.74,1072.03,160.66,1073.87z"/>
				<path class="st2" d="M114.07,1025.32l6.92,3.25c0.48-1.21,1.01-2.43,1.58-3.65c0.3-0.65,0.62-1.3,0.95-1.94l-0.01,0l1.02-2.15
					c6.94-13.82,19.23-24.12,32.99-27.7l0.46-0.98l-22.81-10.73c-3.2-13.22-12.85-25.56-27.08-32.7c0,0.05-2.65-1.28-4.06-1.94
					c-14.04-6.6-27.7-7.09-30.52-1.09c-1.75,3.72-2.38,7.42,3.35,12.51c-7.57-1.17-10.03,1.68-11.78,5.4
					c-1.84,3.91-2.07,7.99,4.28,13.32c-8.15-1.5-11.15,1.28-12.99,5.19c-1.83,3.89-2.1,7.93,4.19,13.24
					c-8.56-1.74-11.95,0.97-13.86,5.02c-2.82,6,6.27,16.22,20.3,22.82c3.55,1.67,7.07,2.95,10.41,3.83
					C90.21,1031.17,103.39,1030.32,114.07,1025.32z"/>
				<path class="st2" d="M199.28,919.41l-9.8-4.61c-0.39,0.95-0.82,1.91-1.27,2.87c-0.28,0.6-0.68,1.42-1.05,2.17
					c-0.18,0.36-0.38,0.77-0.54,1.1l0.02,0.03l-0.4,0.79c-6.94,13.82-19.23,24.12-32.99,27.7l-0.82,1.74l25.73,12.1
					c3.2,13.22,12.85,25.56,27.08,32.7c0-0.05,0-0.09,0-0.14c1.3,0.73,2.65,1.42,4.06,2.08c14.04,6.6,27.7,7.09,30.52,1.09
					c1.75-3.72,2.38-7.42-3.35-12.51c7.57,1.17,10.03-1.68,11.78-5.4c1.84-3.91,2.07-7.99-4.28-13.32
					c8.15,1.5,11.15-1.28,12.99-5.19c1.83-3.89,2.1-7.93-4.19-13.24c8.56,1.74,11.95-0.97,13.86-5.02c2.82-6-6.27-16.22-20.3-22.82
					c-3.55-1.67-7.07-2.95-10.41-3.83C223.14,913.56,209.96,914.4,199.28,919.41z"/>
				<path class="st2" d="M106.39,945.36c0.6,0.28,1.43,0.69,2.18,1.05c0.36,0.17,0.76,0.37,1.09,0.53l0.03-0.02l0.8,0.4
					c12.96,6.5,22.82,17.71,26.95,30.42l14.07-29.91c13.22-3.2,25.56-12.85,32.7-27.08c-0.05,0,1.28-2.65,1.94-4.06
					c6.6-14.04,7.09-27.7,1.09-30.53c-3.72-1.75-7.42-2.38-12.51,3.35c1.17-7.57-1.68-10.03-5.4-11.78
					c-3.91-1.84-7.99-2.07-13.32,4.28c1.5-8.15-1.28-11.15-5.19-12.99c-3.89-1.83-7.93-2.1-13.24,4.19
					c1.74-8.56-0.97-11.95-5.02-13.86c-6-2.82-16.22,6.27-22.82,20.3c-1.67,3.55-2.95,7.07-3.83,10.41
					c-4.16,12.78-3.31,25.96,1.69,36.64l-7.55,16.05C102.14,943.5,104.25,944.36,106.39,945.36z"/>
			</g>
			<g class="st192">
				<path class="st2" d="M29.28,1455.44c3.51,3.42,7.76,5.21,15.81,0.41c-5.06,8.57-3.4,13.23,0.25,16.79
					c5.41,5.27,19.79-0.72,32.12-13.37c3.12-3.2,5.8-6.52,7.99-9.78c9.23-12.21,13.22-26.72,11.8-40.08l13.22-13.57
					c-1.01-0.88-2.02-1.81-3.01-2.78c-0.59-0.57-1.17-1.16-1.75-1.76l0,0l-1.93-1.88c-12.3-12.61-18.82-29.67-17.56-45.82
					l-1.19-1.16l-27.19,27.92c-15.43-1.47-32.29,4.33-45.27,17c0.05,0.02,0.1,0.04,0.15,0.06c-1.26,1.13-2.52,2.33-3.75,3.59
					c-12.33,12.66-17.93,27.19-12.52,32.46c3.35,3.26,7.11,5.32,14.72,1.04c-4.08,7.72-1.92,11.42,1.43,14.68
					c3.53,3.44,7.83,5.2,15.93,0.34C23.87,1447.75,25.75,1452.01,29.28,1455.44z"/>
				<path class="st2" d="M-2.83,1385.84l6.24,6.08c0.97-1.12,1.99-2.24,3.06-3.34c0.57-0.58,1.15-1.16,1.75-1.74l-0.01,0l1.9-1.94
					c12.61-12.3,29.67-18.82,45.82-17.55l0.86-0.88l-20.57-20.03c1.47-15.43-4.33-32.29-17-45.27c-0.02,0.05-2.38-2.37-3.65-3.6
					c-12.66-12.33-27.19-17.93-32.46-12.52c-3.26,3.35-5.32,7.11-1.04,14.72c-7.72-4.08-11.42-1.92-14.68,1.43
					c-3.44,3.53-5.2,7.83-0.34,15.93c-8.22-4.64-12.48-2.77-15.92,0.76c-3.42,3.51-5.21,7.76-0.41,15.81
					c-8.57-5.06-13.23-3.4-16.79,0.25c-5.27,5.41,0.72,19.79,13.37,32.12c3.2,3.12,6.52,5.8,9.78,7.99
					C-30.7,1383.27-16.18,1387.27-2.83,1385.84z"/>
				<path class="st2" d="M128.3,1303.51l-8.84-8.61c-0.78,0.88-1.59,1.75-2.43,2.61c-0.53,0.54-1.26,1.28-1.94,1.95
					c-0.32,0.32-0.69,0.69-0.99,0.99l0.01,0.04l-0.72,0.7c-12.61,12.3-29.67,18.82-45.82,17.56l-1.53,1.57l23.2,22.6
					c-1.47,15.43,4.33,32.29,17,45.27c0.02-0.05,0.04-0.1,0.06-0.15c1.13,1.26,2.33,2.52,3.59,3.75
					c12.66,12.33,27.19,17.93,32.46,12.52c3.26-3.35,5.32-7.11,1.04-14.72c7.72,4.08,11.42,1.92,14.68-1.43
					c3.44-3.53,5.2-7.83,0.34-15.93c8.22,4.64,12.48,2.77,15.91-0.76c3.42-3.51,5.21-7.76,0.41-15.81
					c8.57,5.06,13.23,3.4,16.79-0.25c5.27-5.41-0.72-19.79-13.37-32.12c-3.2-3.12-6.52-5.8-9.78-7.99
					C156.17,1306.08,141.66,1302.08,128.3,1303.51z"/>
				<path class="st2" d="M18.64,1296.9c0.54,0.53,1.28,1.27,1.96,1.95c0.32,0.32,0.68,0.68,0.97,0.97l0.04-0.01l0.71,0.73
					c11.53,11.82,17.99,27.56,17.7,42.78l26.27-26.97c15.43,1.47,32.29-4.33,45.27-17c-0.05-0.02,2.37-2.38,3.6-3.65
					c12.33-12.66,17.93-27.19,12.52-32.46c-3.35-3.26-7.11-5.32-14.72-1.04c4.08-7.72,1.92-11.42-1.43-14.68
					c-3.53-3.44-7.83-5.2-15.93-0.34c4.64-8.22,2.77-12.48-0.76-15.92c-3.51-3.42-7.76-5.21-15.81-0.41
					c5.06-8.57,3.4-13.23-0.25-16.79c-5.41-5.27-19.79,0.72-32.12,13.37c-3.12,3.2-5.8,6.52-7.99,9.78
					c-9.23,12.21-13.22,26.72-11.8,40.08l-14.09,14.47C14.75,1293.31,16.71,1295.03,18.64,1296.9z"/>
			</g>
			<g class="st192">
				<path class="st2" d="M-65.44,542.67c2.18,3.71,5.36,6.22,13.29,4.02c-6.28,6.08-5.96,10.41-3.69,14.27
					c3.35,5.72,16.92,4,30.3-3.85c3.38-1.98,6.43-4.17,9.04-6.42c10.65-8.19,17.41-19.54,19.31-31.18l14.35-8.41
					c-0.65-0.98-1.29-2-1.9-3.05c-0.36-0.62-0.72-1.25-1.07-1.9l0,0l-1.2-2.04c-7.48-13.53-9.03-29.5-4.2-42.87l-0.74-1.26
					l-29.51,17.31c-12.72-4.84-28.35-3.85-42.28,3.85c0.04,0.03,0.08,0.05,0.11,0.08c-1.33,0.66-2.67,1.38-4.01,2.17
					c-13.38,7.85-21.51,18.84-18.15,24.56c2.08,3.54,4.78,6.16,12.22,4.31c-5.25,5.59-4.28,9.22-2.21,12.76
					c2.19,3.73,5.42,6.22,13.41,3.99C-68.23,534.9-67.63,538.94-65.44,542.67z"/>
				<path class="st2" d="M53.74,437.1l-5.48-9.34c-0.86,0.56-1.75,1.11-2.67,1.65c-0.57,0.33-1.37,0.79-2.09,1.2
					c-0.35,0.2-0.74,0.42-1.07,0.61l0,0.04l-0.77,0.43c-13.53,7.48-29.5,9.03-42.87,4.2l-1.66,0.97l14.38,24.53
					c-4.84,12.72-3.85,28.35,3.85,42.28c0.03-0.04,0.06-0.08,0.08-0.11c0.66,1.33,1.38,2.67,2.17,4.01
					c7.85,13.38,18.84,21.51,24.56,18.15c3.54-2.08,6.16-4.78,4.31-12.22c5.59,5.25,9.22,4.28,12.76,2.21
					c3.73-2.19,6.22-5.42,3.99-13.41c5.88,5.84,9.92,5.25,13.65,3.06c3.71-2.18,6.22-5.36,4.02-13.29
					c6.08,6.28,10.41,5.96,14.27,3.69c5.72-3.35,4-16.92-3.85-30.3c-1.98-3.38-4.17-6.43-6.42-9.04
					C76.73,445.76,65.37,439,53.74,437.1z"/>
				<path class="st2" d="M-37.56,405.99c0.34,0.57,0.79,1.37,1.2,2.1c0.2,0.34,0.42,0.73,0.6,1.05l0.04,0l0.43,0.78
					c7.01,12.69,8.81,27.51,5.03,40.33l28.52-16.72c12.72,4.84,28.35,3.85,42.28-3.85c-0.04-0.03,2.56-1.46,3.9-2.25
					c13.38-7.85,21.51-18.84,18.15-24.56c-2.08-3.54-4.78-6.16-12.22-4.31c5.25-5.59,4.28-9.22,2.21-12.76
					c-2.19-3.73-5.42-6.22-13.41-3.99c5.84-5.88,5.25-9.92,3.06-13.65c-2.18-3.71-5.36-6.22-13.29-4.02
					c6.28-6.08,5.96-10.41,3.69-14.27c-3.35-5.72-16.92-4-30.3,3.85c-3.38,1.98-6.43,4.17-9.04,6.42
					c-10.65,8.19-17.41,19.54-19.31,31.18l-15.3,8.97C-40.01,402.05-38.75,403.95-37.56,405.99z"/>
			</g>
			<g class="st193">
				<path class="st2" d="M333.55,640.91c1.68,3.53,4.37,6.04,11.72,4.67c-6.15,5.01-6.19,8.96-4.44,12.63
					c2.59,5.44,15,4.93,27.72-1.14c3.22-1.53,6.14-3.28,8.68-5.11c10.27-6.59,17.27-16.34,19.89-26.73l13.64-6.51
					c-0.51-0.94-1.01-1.91-1.49-2.91c-0.28-0.59-0.56-1.19-0.82-1.8l0,0l-0.93-1.94c-5.72-12.83-5.89-27.39-0.49-39.12l-0.57-1.2
					l-28.05,13.38c-11.13-5.36-25.36-5.67-38.56,0.22c0.03,0.03,0.06,0.06,0.1,0.08c-1.26,0.5-2.53,1.04-3.8,1.65
					c-12.72,6.07-20.92,15.39-18.33,20.83c1.61,3.37,3.85,5.94,10.72,4.84c-5.18,4.65-4.59,8.01-2.98,11.38
					c1.69,3.54,4.43,6.05,11.82,4.65C331.63,633.66,331.86,637.37,333.55,640.91z"/>
				<path class="st2" d="M328.74,579.98l2.99,6.27c1.04-0.57,2.11-1.13,3.21-1.65c0.59-0.28,1.18-0.55,1.79-0.82l-0.01,0l1.95-0.93
					c12.83-5.72,27.39-5.89,39.12-0.49l0.89-0.42l-9.86-20.66c5.36-11.13,5.67-25.36-0.22-38.56c-0.03,0.03-1.13-2.43-1.73-3.7
					c-6.07-12.72-15.39-20.92-20.83-18.33c-3.37,1.61-5.94,3.85-4.84,10.72c-4.65-5.18-8.01-4.59-11.38-2.98
					c-3.54,1.69-6.05,4.43-4.65,11.82c-4.87-5.74-8.57-5.52-12.12-3.83c-3.53,1.68-6.04,4.37-4.67,11.72
					c-5.01-6.15-8.96-6.19-12.63-4.44c-5.44,2.59-4.93,15,1.14,27.72c1.53,3.22,3.28,6.14,5.11,8.68
					C308.6,570.36,318.36,577.36,328.74,579.98z"/>
				<path class="st2" d="M449.57,554.57l-4.24-8.88c-0.82,0.44-1.67,0.87-2.54,1.28c-0.54,0.26-1.3,0.61-1.99,0.92
					c-0.33,0.15-0.71,0.32-1.01,0.47l0,0.03l-0.73,0.33c-12.83,5.72-27.39,5.89-39.12,0.49l-1.58,0.75l11.12,23.31
					c-5.36,11.13-5.67,25.36,0.22,38.56c0.03-0.03,0.06-0.06,0.08-0.1c0.5,1.26,1.04,2.53,1.65,3.8
					c6.07,12.72,15.39,20.92,20.83,18.33c3.37-1.61,5.94-3.85,4.84-10.72c4.65,5.18,8.01,4.59,11.38,2.98
					c3.54-1.69,6.05-4.43,4.65-11.82c4.87,5.74,8.57,5.52,12.12,3.83c3.53-1.68,6.04-4.37,4.67-11.72
					c5.01,6.15,8.96,6.19,12.63,4.44c5.44-2.59,4.93-15-1.14-27.72c-1.53-3.22-3.28-6.14-5.11-8.68
					C469.71,564.19,459.95,557.19,449.57,554.57z"/>
				<path class="st2" d="M369.35,519.36c0.26,0.54,0.61,1.3,0.93,2c0.15,0.33,0.32,0.69,0.46,1l0.03,0l0.33,0.74
					c5.36,12.02,5.85,25.58,1.44,36.89l27.1-12.93c11.13,5.36,25.36,5.67,38.56-0.22c-0.03-0.03,2.43-1.13,3.7-1.73
					c12.72-6.07,20.92-15.39,18.33-20.83c-1.61-3.37-3.85-5.94-10.72-4.84c5.18-4.65,4.59-8.01,2.98-11.38
					c-1.69-3.54-4.43-6.05-11.82-4.65c5.74-4.87,5.52-8.57,3.83-12.12c-1.68-3.53-4.37-6.04-11.72-4.67
					c6.15-5.01,6.19-8.96,4.44-12.63c-2.59-5.44-15-4.93-27.72,1.14c-3.22,1.53-6.14,3.28-8.68,5.11
					c-10.27,6.59-17.27,16.34-19.89,26.73l-14.54,6.94C367.43,515.61,368.43,517.43,369.35,519.36z"/>
			</g>
			<g class="st194">
				<path class="st0" d="M260.08,519.83c-3.36-6.17-8.43-10.42-21.49-7.25c10.56-9.6,10.26-16.68,6.76-23.1
					c-5.18-9.51-27.42-7.4-49.66,4.72c-5.63,3.07-10.71,6.48-15.09,10.02c-17.81,12.82-29.43,31.01-33.13,49.91l-23.86,13
					c1.01,1.64,2,3.33,2.95,5.08c0.56,1.03,1.11,2.08,1.65,3.15l0,0l1.85,3.39c11.51,22.48,13.23,48.62,4.66,70.2l1.14,2.1
					l49.07-26.74c20.51,8.55,46.07,7.73,69.21-4.12c-0.06-0.05-0.12-0.09-0.18-0.14c2.21-1.01,4.43-2.12,6.66-3.33
					c22.25-12.12,36.08-29.66,30.9-39.17c-3.21-5.89-7.48-10.3-19.72-7.66c8.85-8.85,7.47-14.83,4.26-20.72
					c-3.38-6.2-8.53-10.44-21.68-7.21C264.22,532.65,263.46,526.03,260.08,519.83z"/>
				<path class="st0" d="M274.6,628.77l-5.98-10.97c-1.8,1.13-3.67,2.22-5.61,3.28c-1.03,0.56-2.07,1.11-3.13,1.64l0.01,0.01
					l-3.42,1.86c-22.48,11.51-48.62,13.23-70.2,4.65l-1.55,0.84l19.7,36.15c-8.55,20.51-7.73,46.07,4.12,69.21
					c0.05-0.06,2.26,4.25,3.47,6.48c12.12,22.25,29.66,36.08,39.17,30.9c5.89-3.21,10.3-7.48,7.66-19.72
					c8.85,8.85,14.83,7.47,20.72,4.26c6.2-3.38,10.44-8.53,7.21-21.68c9.3,9.84,15.92,9.08,22.12,5.7
					c6.17-3.36,10.42-8.43,7.25-21.49c9.6,10.56,16.68,10.26,23.1,6.76c9.51-5.18,7.4-27.42-4.72-49.66
					c-3.07-5.63-6.48-10.71-10.02-15.09C311.68,644.09,293.49,632.47,274.6,628.77z"/>
				<path class="st0" d="M60.1,686.05l8.46,15.53c1.44-0.87,2.92-1.72,4.44-2.55c0.95-0.52,2.27-1.21,3.48-1.85
					c0.58-0.31,1.24-0.65,1.77-0.93l0-0.06l1.28-0.66c22.48-11.51,48.62-13.23,70.2-4.66l2.76-1.5l-22.22-40.78
					c8.55-20.51,7.73-46.07-4.12-69.21c-0.05,0.06-0.09,0.12-0.14,0.18c-1.01-2.21-2.12-4.43-3.33-6.66
					c-12.12-22.25-29.66-36.08-39.17-30.9c-5.89,3.21-10.3,7.48-7.66,19.72c-8.85-8.85-14.83-7.47-20.72-4.26
					c-6.2,3.38-10.44,8.53-7.21,21.68c-9.3-9.84-15.92-9.08-22.12-5.7c-6.17,3.36-10.42,8.43-7.25,21.49
					c-9.6-10.56-16.68-10.26-23.1-6.76c-9.51,5.18-7.4,27.42,4.72,49.66c3.07,5.63,6.48,10.71,10.02,15.09
					C23.01,670.73,41.2,682.35,60.1,686.05z"/>
				<path class="st0" d="M207.54,741.53c-0.52-0.95-1.22-2.28-1.86-3.49c-0.3-0.57-0.64-1.22-0.92-1.75l-0.06,0l-0.66-1.29
					c-10.79-21.07-12.97-45.36-6.14-66.1l-47.41,25.83c-20.51-8.55-46.07-7.73-69.21,4.12c0.06,0.05-4.25,2.26-6.48,3.47
					c-22.25,12.12-36.08,29.66-30.9,39.17c3.21,5.89,7.48,10.3,19.72,7.66c-8.85,8.85-7.47,14.83-4.26,20.72
					c3.38,6.2,8.53,10.44,21.68,7.21c-9.84,9.3-9.08,15.92-5.7,22.12c3.36,6.17,8.43,10.42,21.49,7.25
					c-10.56,9.6-10.26,16.68-6.76,23.1c5.18,9.51,27.42,7.4,49.66-4.72c5.63-3.07,10.71-6.48,15.09-10.02
					c17.81-12.82,29.43-31.01,33.13-49.91l25.43-13.86C211.34,748.08,209.38,744.91,207.54,741.53z"/>
			</g>
			<g class="st194">
				<path class="st0" d="M242.75,88.16c-1.25-3.39-3.5-5.93-10.37-5.29c6.08-4.09,6.46-7.71,5.16-11.23
					c-1.92-5.22-13.38-5.81-25.59-1.31c-3.09,1.14-5.93,2.49-8.41,3.96c-10.01,5.18-17.27,13.56-20.56,22.88l-13.09,4.82
					c0.39,0.91,0.77,1.84,1.12,2.8c0.21,0.57,0.41,1.14,0.6,1.72l0,0l0.69,1.86c4.17,12.28,3.09,25.69-2.88,36.01l0.42,1.15
					l26.93-9.92c9.78,5.88,22.83,7.37,35.47,3.08c-0.03-0.03-0.05-0.06-0.08-0.08c1.2-0.35,2.41-0.75,3.63-1.19
					c12.21-4.5,20.55-12.37,18.63-17.59c-1.19-3.23-3.03-5.79-9.45-5.37c5.16-3.83,4.9-6.98,3.71-10.21
					c-1.25-3.4-3.55-5.94-10.48-5.28C243.9,94.99,244,91.56,242.75,88.16z"/>
				<path class="st0" d="M241.98,144.6l-2.22-6.02c-1,0.44-2.03,0.86-3.1,1.25c-0.56,0.21-1.14,0.41-1.71,0.6l0,0l-1.88,0.69
					c-12.28,4.17-25.69,3.09-36.01-2.88l-0.85,0.31l7.3,19.84c-5.88,9.78-7.37,22.83-3.08,35.47c0.03-0.03,0.83,2.33,1.28,3.55
					c4.5,12.21,12.37,20.55,17.59,18.63c3.23-1.19,5.79-3.03,5.36-9.45c3.84,5.16,6.98,4.9,10.21,3.71
					c3.4-1.25,5.94-3.55,5.28-10.48c3.99,5.7,7.41,5.8,10.81,4.55c3.39-1.25,5.93-3.5,5.29-10.37c4.09,6.08,7.71,6.46,11.23,5.16
					c5.22-1.92,5.81-13.38,1.31-25.59c-1.14-3.09-2.49-5.93-3.96-8.41C259.68,155.15,251.3,147.89,241.98,144.6z"/>
				<path class="st0" d="M128.72,157.67l3.14,8.52c0.8-0.34,1.61-0.66,2.45-0.96c0.52-0.19,1.24-0.45,1.91-0.68
					c0.32-0.11,0.68-0.24,0.97-0.34l0.01-0.03l0.7-0.24c12.28-4.17,25.69-3.09,36.01,2.88l1.52-0.56l-8.24-22.38
					c5.88-9.78,7.37-22.83,3.08-35.47c-0.03,0.03-0.06,0.05-0.08,0.08c-0.35-1.2-0.75-2.41-1.2-3.63
					c-4.5-12.21-12.37-20.55-17.59-18.63c-3.23,1.19-5.79,3.03-5.36,9.45c-3.84-5.16-6.98-4.9-10.21-3.71
					c-3.4,1.25-5.94,3.55-5.28,10.48c-3.99-5.7-7.41-5.8-10.81-4.55c-3.39,1.25-5.93,3.5-5.29,10.37
					c-4.09-6.08-7.71-6.46-11.23-5.16c-5.22,1.92-5.81,13.38-1.31,25.59c1.14,3.09,2.49,5.93,3.96,8.41
					C111.02,147.11,119.39,154.37,128.72,157.67z"/>
				<path class="st0" d="M199.48,196.87c-0.19-0.52-0.45-1.25-0.68-1.91c-0.11-0.31-0.23-0.67-0.34-0.96l-0.03-0.01l-0.24-0.71
					c-3.91-11.51-3.2-24.02,1.82-34.04l-26.02,9.58c-9.78-5.88-22.83-7.37-35.47-3.08c0.03,0.03-2.33,0.83-3.55,1.28
					c-12.21,4.5-20.55,12.37-18.63,17.59c1.19,3.23,3.03,5.79,9.45,5.36c-5.16,3.83-4.9,6.98-3.71,10.21
					c1.25,3.4,3.55,5.94,10.48,5.28c-5.7,3.99-5.8,7.41-4.55,10.81c1.25,3.39,3.5,5.93,10.37,5.29c-6.08,4.09-6.46,7.71-5.16,11.23
					c1.92,5.22,13.38,5.81,25.59,1.31c3.09-1.14,5.93-2.49,8.41-3.96c10.01-5.18,17.27-13.56,20.56-22.88l13.96-5.14
					C200.92,200.49,200.16,198.73,199.48,196.87z"/>
			</g>
			<g class="st194">
				<path class="st37" d="M250.65,1108.25c-1.78-3.27-4.46-5.52-11.38-3.84c5.59-5.08,5.43-8.84,3.58-12.24
					c-2.75-5.04-14.52-3.92-26.31,2.5c-2.98,1.62-5.67,3.43-7.99,5.31c-9.43,6.79-15.59,16.43-17.55,26.44l-12.64,6.89
					c0.54,0.87,1.06,1.76,1.56,2.69c0.3,0.55,0.59,1.1,0.87,1.67l0,0l0.98,1.8c6.1,11.91,7.01,25.76,2.47,37.19l0.6,1.11l26-14.16
					c10.87,4.53,24.41,4.1,36.67-2.18c-0.03-0.02-0.06-0.05-0.1-0.07c1.17-0.54,2.35-1.12,3.53-1.77
					c11.78-6.42,19.11-15.71,16.37-20.75c-1.7-3.12-3.96-5.45-10.45-4.06c4.69-4.69,3.95-7.86,2.26-10.98
					c-1.79-3.28-4.52-5.53-11.48-3.82C252.84,1115.05,252.43,1111.54,250.65,1108.25z"/>
				<path class="st37" d="M258.34,1165.96l-3.17-5.81c-0.96,0.6-1.94,1.18-2.97,1.74c-0.54,0.3-1.1,0.59-1.66,0.87l0.01,0
					l-1.81,0.98c-11.91,6.1-25.76,7.01-37.19,2.47l-0.82,0.45l10.43,19.15c-4.53,10.87-4.1,24.41,2.18,36.67
					c0.02-0.03,1.2,2.25,1.84,3.43c6.42,11.78,15.71,19.11,20.75,16.37c3.12-1.7,5.45-3.96,4.06-10.45
					c4.69,4.69,7.86,3.96,10.98,2.26c3.28-1.79,5.53-4.52,3.82-11.48c4.92,5.21,8.44,4.81,11.72,3.02
					c3.27-1.78,5.52-4.46,3.84-11.38c5.08,5.59,8.84,5.43,12.24,3.58c5.04-2.75,3.92-14.52-2.5-26.31
					c-1.62-2.98-3.43-5.67-5.31-7.99C277.98,1174.08,268.35,1167.93,258.34,1165.96z"/>
				<path class="st37" d="M144.71,1196.31l4.48,8.23c0.76-0.46,1.55-0.91,2.35-1.35c0.5-0.27,1.2-0.64,1.84-0.98
					c0.31-0.16,0.65-0.34,0.94-0.49l0-0.03l0.68-0.35c11.91-6.1,25.76-7.01,37.19-2.47l1.46-0.8l-11.77-21.6
					c4.53-10.87,4.1-24.41-2.18-36.67c-0.02,0.03-0.05,0.06-0.07,0.1c-0.54-1.17-1.12-2.35-1.77-3.53
					c-6.42-11.78-15.71-19.11-20.75-16.37c-3.12,1.7-5.45,3.96-4.06,10.45c-4.69-4.69-7.86-3.95-10.98-2.26
					c-3.28,1.79-5.53,4.52-3.82,11.48c-4.92-5.21-8.44-4.81-11.72-3.02c-3.27,1.78-5.52,4.46-3.84,11.38
					c-5.08-5.59-8.84-5.43-12.24-3.58c-5.04,2.75-3.92,14.52,2.5,26.31c1.62,2.98,3.43,5.67,5.31,7.99
					C125.06,1188.2,134.7,1194.35,144.71,1196.31z"/>
				<path class="st37" d="M222.81,1225.7c-0.27-0.5-0.65-1.21-0.98-1.85c-0.16-0.3-0.34-0.64-0.49-0.92l-0.03,0l-0.35-0.69
					c-5.72-11.16-6.87-24.03-3.25-35.01l-25.12,13.68c-10.87-4.53-24.41-4.1-36.67,2.18c0.03,0.02-2.25,1.2-3.43,1.84
					c-11.78,6.42-19.11,15.71-16.37,20.75c1.7,3.12,3.96,5.45,10.45,4.06c-4.69,4.69-3.95,7.86-2.26,10.98
					c1.79,3.28,4.52,5.53,11.48,3.82c-5.21,4.92-4.81,8.44-3.02,11.72c1.78,3.27,4.46,5.52,11.38,3.84
					c-5.59,5.08-5.43,8.84-3.58,12.24c2.75,5.04,14.52,3.92,26.31-2.5c2.98-1.62,5.67-3.43,7.99-5.31
					c9.43-6.79,15.59-16.43,17.55-26.44l13.47-7.34C224.83,1229.17,223.79,1227.49,222.81,1225.7z"/>
			</g>
			<g class="st193">
				<path class="st37" d="M416.1,764.31c-2.28-4.19-5.72-7.08-14.59-4.92c7.17-6.51,6.96-11.33,4.59-15.68
					c-3.52-6.46-18.61-5.02-33.71,3.21c-3.82,2.08-7.27,4.4-10.24,6.8c-12.09,8.7-19.98,21.05-22.49,33.88l-16.19,8.82
					c0.69,1.11,1.36,2.26,2,3.45c0.38,0.7,0.76,1.41,1.12,2.14l0,0l1.26,2.3c7.82,15.26,8.98,33,3.16,47.65l0.78,1.42l33.31-18.15
					c13.92,5.8,31.28,5.25,46.98-2.8c-0.04-0.03-0.08-0.06-0.12-0.09c1.5-0.69,3.01-1.44,4.52-2.26
					c15.1-8.23,24.49-20.13,20.97-26.59c-2.18-4-5.08-6.99-13.39-5.2c6.01-6.01,5.07-10.07,2.89-14.07
					c-2.29-4.21-5.79-7.08-14.72-4.89C418.91,773.01,418.39,768.51,416.1,764.31z"/>
				<path class="st37" d="M425.95,838.26l-4.06-7.44c-1.22,0.76-2.49,1.51-3.81,2.23c-0.7,0.38-1.41,0.75-2.12,1.11l0.01,0
					l-2.32,1.26c-15.26,7.82-33,8.98-47.65,3.16l-1.05,0.57l13.37,24.54c-5.8,13.92-5.25,31.28,2.8,46.98
					c0.03-0.04,1.53,2.89,2.36,4.4c8.23,15.1,20.13,24.49,26.59,20.97c4-2.18,6.99-5.08,5.2-13.39c6.01,6.01,10.07,5.07,14.07,2.89
					c4.21-2.29,7.08-5.79,4.89-14.72c6.31,6.68,10.81,6.16,15.02,3.87c4.19-2.28,7.07-5.72,4.92-14.59
					c6.51,7.17,11.33,6.96,15.68,4.59c6.46-3.52,5.02-18.61-3.21-33.71c-2.08-3.82-4.4-7.27-6.8-10.24
					C451.13,848.66,438.78,840.77,425.95,838.26z"/>
				<path class="st37" d="M280.35,877.15l5.74,10.54c0.98-0.59,1.98-1.17,3.01-1.73c0.64-0.35,1.54-0.82,2.36-1.25
					c0.39-0.21,0.84-0.44,1.2-0.63l0-0.04l0.87-0.45c15.26-7.82,33-8.98,47.65-3.16l1.87-1.02l-15.08-27.68
					c5.8-13.92,5.25-31.28-2.8-46.98c-0.03,0.04-0.06,0.08-0.09,0.12c-0.69-1.5-1.44-3.01-2.26-4.52
					c-8.23-15.1-20.13-24.49-26.59-20.97c-4,2.18-6.99,5.08-5.2,13.39c-6.01-6.01-10.07-5.07-14.07-2.89
					c-4.21,2.29-7.08,5.79-4.89,14.72c-6.31-6.68-10.81-6.16-15.02-3.87c-4.19,2.28-7.08,5.72-4.92,14.59
					c-6.51-7.17-11.33-6.96-15.68-4.59c-6.46,3.52-5.02,18.61,3.21,33.71c2.08,3.82,4.4,7.27,6.8,10.24
					C255.17,866.74,267.52,874.63,280.35,877.15z"/>
				<path class="st37" d="M380.43,914.8c-0.35-0.65-0.83-1.55-1.26-2.37c-0.21-0.39-0.43-0.83-0.63-1.18l-0.04,0l-0.45-0.88
					c-7.33-14.3-8.81-30.79-4.17-44.87l-32.18,17.54c-13.92-5.8-31.28-5.25-46.98,2.8c0.04,0.03-2.89,1.53-4.4,2.36
					c-15.1,8.23-24.49,20.13-20.97,26.59c2.18,4,5.08,6.99,13.39,5.2c-6.01,6.01-5.07,10.07-2.89,14.07
					c2.29,4.21,5.79,7.08,14.72,4.89c-6.68,6.31-6.16,10.81-3.87,15.02c2.28,4.19,5.72,7.07,14.59,4.92
					c-7.17,6.51-6.96,11.33-4.59,15.68c3.52,6.46,18.61,5.02,33.71-3.21c3.82-2.08,7.27-4.4,10.24-6.8
					c12.09-8.7,19.98-21.05,22.49-33.88l17.26-9.41C383.01,919.25,381.68,917.1,380.43,914.8z"/>
			</g>
			<g class="st192">
				<path class="st0" d="M20.8,1010.81c-2.68-4.92-6.73-8.32-17.15-5.79c8.43-7.66,8.19-13.32,5.4-18.44
					c-4.14-7.59-21.88-5.9-39.64,3.77c-4.49,2.45-8.55,5.17-12.04,8c-14.22,10.23-23.49,24.75-26.45,39.84l-19.04,10.38
					c0.81,1.31,1.59,2.66,2.36,4.06c0.45,0.82,0.89,1.66,1.32,2.51l0,0l1.48,2.7c9.19,17.94,10.56,38.81,3.72,56.03l0.91,1.67
					l39.17-21.34c16.37,6.82,36.78,6.17,55.25-3.29c-0.05-0.04-0.1-0.07-0.14-0.11c1.76-0.81,3.54-1.69,5.32-2.66
					c17.76-9.67,28.8-23.67,24.66-31.26c-2.56-4.7-5.97-8.22-15.74-6.11c7.07-7.06,5.96-11.84,3.4-16.54
					c-2.7-4.95-6.81-8.33-17.3-5.75C24.11,1021.05,23.5,1015.76,20.8,1010.81z"/>
				<path class="st0" d="M32.39,1097.77l-4.77-8.75c-1.44,0.9-2.93,1.77-4.48,2.62c-0.82,0.45-1.65,0.88-2.5,1.31l0.01,0.01
					l-2.73,1.48c-17.94,9.19-38.81,10.56-56.03,3.72l-1.24,0.67l15.72,28.85c-6.82,16.37-6.17,36.78,3.29,55.25
					c0.04-0.05,1.8,3.39,2.77,5.17c9.67,17.76,23.67,28.8,31.26,24.66c4.7-2.56,8.22-5.97,6.11-15.74
					c7.06,7.07,11.84,5.96,16.54,3.4c4.95-2.7,8.33-6.81,5.75-17.3c7.42,7.86,12.71,7.24,17.66,4.55c4.92-2.68,8.32-6.73,5.79-17.15
					c7.66,8.43,13.32,8.19,18.44,5.4c7.59-4.14,5.9-21.88-3.77-39.64c-2.45-4.49-5.17-8.55-8-12.04
					C61.99,1110,47.47,1100.73,32.39,1097.77z"/>
			</g>
			<g class="st193">
				<path class="st0" d="M374.43,1007.36c-1.38-2.54-3.47-4.29-8.84-2.98c4.34-3.95,4.22-6.86,2.78-9.5
					c-2.13-3.91-11.28-3.04-20.42,1.94c-2.31,1.26-4.4,2.66-6.21,4.12c-7.32,5.27-12.1,12.75-13.63,20.53l-9.81,5.35
					c0.42,0.67,0.82,1.37,1.21,2.09c0.23,0.42,0.46,0.86,0.68,1.3l0,0l0.76,1.39c4.74,9.24,5.44,20,1.91,28.87l0.47,0.86l20.18-11
					c8.43,3.52,18.95,3.18,28.47-1.69c-0.03-0.02-0.05-0.04-0.07-0.06c0.91-0.42,1.82-0.87,2.74-1.37
					c9.15-4.98,14.84-12.2,12.71-16.11c-1.32-2.42-3.08-4.23-8.11-3.15c3.64-3.64,3.07-6.1,1.75-8.52
					c-1.39-2.55-3.51-4.29-8.92-2.96C376.14,1012.64,375.82,1009.91,374.43,1007.36z"/>
				<path class="st0" d="M380.4,1052.17l-2.46-4.51c-0.74,0.46-1.51,0.91-2.31,1.35c-0.42,0.23-0.85,0.46-1.29,0.67l0,0l-1.41,0.76
					c-9.24,4.74-20,5.44-28.87,1.91l-0.64,0.35l8.1,14.87c-3.52,8.43-3.18,18.95,1.69,28.47c0.02-0.03,0.93,1.75,1.43,2.66
					c4.98,9.15,12.2,14.84,16.11,12.71c2.42-1.32,4.23-3.08,3.15-8.11c3.64,3.64,6.1,3.07,8.52,1.75c2.55-1.39,4.29-3.51,2.96-8.92
					c3.82,4.05,6.55,3.73,9.1,2.34c2.54-1.38,4.29-3.47,2.98-8.84c3.95,4.34,6.86,4.22,9.5,2.78c3.91-2.13,3.04-11.28-1.94-20.42
					c-1.26-2.31-2.66-4.4-4.12-6.21C395.66,1058.47,388.17,1053.69,380.4,1052.17z"/>
				<path class="st0" d="M292.19,1075.73l3.48,6.39c0.59-0.36,1.2-0.71,1.82-1.05c0.39-0.21,0.93-0.5,1.43-0.76
					c0.24-0.13,0.51-0.27,0.73-0.38l0-0.02l0.53-0.27c9.24-4.74,20-5.44,28.87-1.91l1.14-0.62l-9.14-16.77
					c3.52-8.43,3.18-18.95-1.69-28.47c-0.02,0.03-0.04,0.05-0.06,0.07c-0.42-0.91-0.87-1.82-1.37-2.74
					c-4.98-9.15-12.2-14.84-16.11-12.71c-2.42,1.32-4.23,3.08-3.15,8.11c-3.64-3.64-6.1-3.07-8.52-1.75
					c-2.55,1.39-4.29,3.51-2.96,8.92c-3.82-4.05-6.55-3.73-9.1-2.34c-2.54,1.38-4.29,3.47-2.98,8.84c-3.95-4.34-6.86-4.22-9.5-2.78
					c-3.91,2.13-3.04,11.28,1.94,20.42c1.26,2.31,2.66,4.4,4.12,6.21C276.93,1069.43,284.42,1074.21,292.19,1075.73z"/>
				<path class="st0" d="M352.82,1098.54c-0.21-0.39-0.5-0.94-0.76-1.44c-0.12-0.24-0.26-0.5-0.38-0.72l-0.02,0l-0.27-0.53
					c-4.44-8.67-5.34-18.66-2.53-27.18l-19.5,10.62c-8.44-3.52-18.95-3.18-28.47,1.69c0.03,0.02-1.75,0.93-2.66,1.43
					c-9.15,4.98-14.84,12.2-12.71,16.11c1.32,2.42,3.08,4.23,8.11,3.15c-3.64,3.64-3.07,6.1-1.75,8.52
					c1.39,2.55,3.51,4.29,8.92,2.96c-4.05,3.82-3.73,6.55-2.34,9.1c1.38,2.54,3.47,4.29,8.84,2.98c-4.34,3.95-4.22,6.86-2.78,9.5
					c2.13,3.91,11.28,3.04,20.42-1.94c2.31-1.26,4.4-2.66,6.21-4.12c7.32-5.27,12.1-12.75,13.63-20.53l10.46-5.7
					C354.39,1101.24,353.58,1099.93,352.82,1098.54z"/>
			</g>
			<g class="st193">
				<path class="st0" d="M396.89,1179.7c-3.88-2.99-8.32-4.28-15.76,1.42c4.04-9.1,1.85-13.54-2.19-16.65
					c-5.99-4.61-19.59,3-30.38,17c-2.73,3.54-5.01,7.15-6.81,10.65c-7.76,13.2-10.05,28.09-7.1,41.2l-11.57,15.02
					c1.11,0.76,2.21,1.56,3.32,2.41c0.65,0.5,1.3,1.02,1.94,1.55l0,0l2.14,1.64c13.68,11.11,22.14,27.32,22.74,43.51l1.32,1.02
					l23.8-30.89c15.5-0.32,31.6-8.04,43.03-22.12c-0.05-0.01-0.1-0.03-0.16-0.04c1.13-1.27,2.23-2.6,3.31-4
					c10.79-14,14.68-29.1,8.69-33.71c-3.71-2.86-7.68-4.47-14.75,0.66c3.16-8.14,0.59-11.57-3.12-14.43
					c-3.9-3.01-8.39-4.26-15.87,1.5C403.15,1186.72,400.8,1182.71,396.89,1179.7z"/>
				<path class="st0" d="M436.85,1245.17l-6.9-5.32c-0.83,1.23-1.72,2.45-2.66,3.67c-0.5,0.65-1.01,1.29-1.53,1.93l0.01,0
					l-1.66,2.15c-11.11,13.68-27.32,22.14-43.51,22.74l-0.75,0.98l22.76,17.53c0.32,15.5,8.04,31.6,22.12,43.03
					c0.01-0.05,2.64,2.08,4.04,3.16c14,10.79,29.1,14.68,33.71,8.69c2.86-3.71,4.47-7.68-0.67-14.75
					c8.14,3.16,11.57,0.59,14.43-3.12c3.01-3.9,4.26-8.39-1.5-15.87c8.71,3.67,12.72,1.31,15.73-2.59
					c2.99-3.88,4.28-8.32-1.42-15.76c9.1,4.04,13.54,1.85,16.65-2.19c4.61-5.99-3-19.59-17-30.38c-3.54-2.73-7.15-5.01-10.65-6.81
					C464.84,1244.5,449.96,1242.21,436.85,1245.17z"/>
				<path class="st0" d="M316.03,1342.15l9.78,7.53c0.67-0.96,1.38-1.92,2.11-2.88c0.46-0.6,1.11-1.41,1.7-2.16
					c0.29-0.36,0.61-0.76,0.87-1.1l-0.02-0.04l0.63-0.78c11.11-13.68,27.32-22.14,43.51-22.74l1.34-1.74l-25.67-19.78
					c-0.32-15.5-8.04-31.6-22.12-43.03c-0.01,0.05-0.03,0.1-0.04,0.16c-1.27-1.13-2.6-2.23-4-3.31c-14-10.79-29.1-14.68-33.71-8.69
					c-2.86,3.71-4.47,7.68,0.66,14.75c-8.14-3.16-11.57-0.59-14.43,3.12c-3.01,3.9-4.26,8.39,1.5,15.87
					c-8.71-3.67-12.72-1.31-15.73,2.59c-2.99,3.88-4.28,8.32,1.42,15.76c-9.1-4.04-13.54-1.85-16.65,2.19
					c-4.61,5.99,3,19.59,17,30.38c3.54,2.73,7.15,5.01,10.65,6.81C288.04,1342.82,302.93,1345.11,316.03,1342.15z"/>
				<path class="st0" d="M425.79,1336.04c-0.6-0.46-1.42-1.11-2.17-1.71c-0.35-0.28-0.75-0.6-1.08-0.85l-0.04,0.02l-0.79-0.64
					c-12.83-10.41-21.06-25.31-22.54-40.47l-22.99,29.85c-15.5,0.32-31.6,8.04-43.03,22.12c0.05,0.01-2.08,2.64-3.16,4.04
					c-10.79,14-14.68,29.1-8.69,33.71c3.71,2.86,7.68,4.47,14.75-0.66c-3.16,8.14-0.59,11.57,3.12,14.43
					c3.9,3.01,8.39,4.26,15.87-1.5c-3.67,8.71-1.31,12.72,2.59,15.73c3.88,2.99,8.32,4.28,15.76-1.42
					c-4.04,9.1-1.85,13.54,2.19,16.65c5.99,4.61,19.59-3,30.38-17c2.73-3.54,5.01-7.15,6.81-10.65c7.76-13.2,10.05-28.09,7.1-41.2
					l12.33-16.01C430.07,1339.16,427.92,1337.68,425.79,1336.04z"/>
			</g>
		</g>
	</g>
</g>
<g id="Слой_4">
</g>
</svg>
