<?xml version="1.0" encoding="utf-8"?>
<!-- Generator: Adobe Illustrator 23.1.0, SVG Export Plug-In . SVG Version: 6.00 Build 0)  -->
<svg version="1.1" xmlns="http://www.w3.org/2000/svg" xmlns:xlink="http://www.w3.org/1999/xlink" x="0px" y="0px"
	 viewBox="0 0 1985 1296" style="enable-background:new 0 0 1985 1296;" xml:space="preserve">
<style type="text/css">
	.st0{fill:#33DEA7;}
	.st1{fill:#4890F1;}
	.st2{fill:#0B59C7;}
	.st3{fill:#1A328C;}
	.st4{display:none;}
	.st5{display:inline;fill:none;stroke:#000000;stroke-miterlimit:10;}
	.st6{fill:#CFE2FF;}
	.st7{fill:none;stroke:#34E2AA;stroke-width:0.4683;stroke-miterlimit:10;}
	.st8{fill:#33DEA7;fill-opacity:0.12;stroke:#34E2AA;stroke-width:0.4683;stroke-miterlimit:10;}
	.st9{fill:#FFFFFF;}
	.st10{fill:none;stroke:#0B5BCB;stroke-width:1.1157;stroke-miterlimit:10;}
	.st11{fill:#FFB87D;stroke:#0655C3;stroke-width:1.4733;stroke-linecap:round;stroke-linejoin:round;stroke-miterlimit:10;}
	.st12{fill:#FFE3CC;}
	.st13{fill:none;stroke:#0B5BCB;stroke-width:1.4733;stroke-linecap:round;stroke-linejoin:round;stroke-miterlimit:10;}
	.st14{fill:#34E2AA;stroke:#1B3390;stroke-width:1.4733;stroke-miterlimit:10;}
	.st15{fill:#BAFFE9;}
	.st16{fill:#ABFFE4;}
	.st17{fill:#5790DF;stroke:#0655C3;stroke-width:1.4733;stroke-linecap:round;stroke-linejoin:round;stroke-miterlimit:10;}
	.st18{fill:#80B9F6;}
	.st19{fill:#629FE4;}
	.st20{fill:none;stroke:#0B5BCB;stroke-width:0.9184;stroke-miterlimit:10;}
	.st21{fill:none;stroke:#0B5BCB;stroke-width:1.13;stroke-miterlimit:10;}
	.st22{fill:#1B3390;}
	.st23{fill:#8CA4FB;stroke:#0B5BCB;stroke-width:1.4923;stroke-linejoin:round;stroke-miterlimit:10;}
	.st24{fill:#69FFC7;stroke:#0B5BCB;stroke-width:1.4923;stroke-linejoin:round;stroke-miterlimit:10;}
	.st25{fill:#FFB87D;stroke:#0B5BCB;stroke-width:1.4923;stroke-linejoin:round;stroke-miterlimit:10;}
	.st26{fill:none;stroke:#1C3CB7;stroke-width:0.9948;stroke-miterlimit:10;}
	.st27{fill:#ADBEFF;}
	.st28{fill:#FFEAD9;}
	.st29{fill:#D6FFF4;}
	.st30{fill:#CCD6FF;}
	.st31{opacity:0.5;fill:#4992F5;}
	.st32{fill:#4992F5;}
	.st33{fill:#0B5BCB;}
	.st34{fill:none;stroke:#4992F5;stroke-width:0.3642;stroke-miterlimit:10;}
	.st35{fill:none;stroke:#4992F5;stroke-width:0.2919;stroke-miterlimit:10;}
	.st36{fill:none;stroke:#4992F5;stroke-width:3.4843;stroke-miterlimit:10;}
	.st37{fill:#FF8B2B;}
	.st38{fill:none;stroke:#34E2AA;stroke-width:0.2693;stroke-miterlimit:10;}
	.st39{fill:#34E2AA;stroke:#1B3390;stroke-width:0.6401;stroke-miterlimit:10;}
	.st40{opacity:0.55;fill:none;stroke:#FF8B2B;stroke-width:2.508;stroke-miterlimit:10;}
	.st41{fill:#ADD2FF;}
	.st42{fill:#2EC897;}
	.st43{fill:none;stroke:#0B5BCB;stroke-width:1.0846;stroke-miterlimit:10;}
	.st44{fill:#FFB87D;}
	.st45{fill:none;stroke:#284DD8;stroke-width:1.2785;stroke-miterlimit:10;}
	.st46{fill:none;stroke:#0B5BCB;stroke-width:0.9548;stroke-miterlimit:10;}
	.st47{fill:#FFEBC9;}
	.st48{fill:none;stroke:#0B5BCB;stroke-width:1.1335;stroke-miterlimit:10;}
	.st49{fill:#6078D5;}
	.st50{fill:#8CA4FB;stroke:#1B3390;stroke-width:0.9419;stroke-miterlimit:10;}
	.st51{fill:none;stroke:#1B3390;stroke-width:0.9979;stroke-miterlimit:10;}
	.st52{fill:none;stroke:#34E2AA;stroke-width:0.9419;stroke-linecap:round;stroke-miterlimit:10;}
	.st53{fill:none;stroke:#34E2AA;stroke-width:0.9419;stroke-linecap:round;stroke-linejoin:round;stroke-miterlimit:10;}
	.st54{clip-path:url(#SVGID_4_);}
	.st55{fill:none;stroke:#F98600;stroke-width:7.8494;stroke-linecap:round;stroke-linejoin:round;stroke-miterlimit:10;}
	.st56{fill:none;stroke:#1B3390;stroke-width:1.8838;stroke-linecap:round;stroke-linejoin:round;stroke-miterlimit:10;}
	.st57{fill:#0B5BCB;stroke:#1B3390;stroke-width:0.8874;stroke-miterlimit:10;}
	.st58{fill:none;stroke:#1B3390;stroke-width:0.8874;stroke-linecap:round;stroke-miterlimit:10;}
	.st59{fill:none;stroke:#1B3390;stroke-width:0.8874;stroke-linecap:round;stroke-linejoin:round;stroke-miterlimit:10;}
	.st60{clip-path:url(#SVGID_6_);fill:none;stroke:#5FECBF;stroke-width:14.7905;stroke-linecap:round;stroke-miterlimit:10;}
	.st61{fill:none;stroke:#1B3390;stroke-width:0.8874;stroke-miterlimit:10;}
	.st62{fill:#34E2AA;stroke:#1B3390;stroke-width:0.5806;stroke-miterlimit:10;}
	.st63{fill:#94FFCC;stroke:#1B3390;stroke-width:0.5806;stroke-linecap:round;stroke-miterlimit:10;}
	.st64{fill:#94FFCC;stroke:#1B3390;stroke-width:0.5806;stroke-linecap:round;stroke-linejoin:round;stroke-miterlimit:10;}
	.st65{fill:#FFB87D;stroke:#1B3390;stroke-width:0.5806;stroke-miterlimit:10;}
	.st66{fill:#4992F5;stroke:#1B3390;stroke-width:0.5806;stroke-linecap:round;stroke-miterlimit:10;}
	.st67{fill:#4992F5;stroke:#1B3390;stroke-width:0.5806;stroke-linecap:round;stroke-linejoin:round;stroke-miterlimit:10;}
	.st68{fill:#FFB87D;stroke:#1B3390;stroke-width:0.5806;stroke-linecap:round;stroke-miterlimit:10;}
	.st69{fill:#FFB87D;stroke:#1B3390;stroke-width:0.5806;stroke-linecap:round;stroke-linejoin:round;stroke-miterlimit:10;}
	.st70{opacity:0.8;fill:#DBE2FF;}
	.st71{opacity:0.8;fill:#B3C2FF;}
	.st72{opacity:0.8;fill:#FFF3E8;}
	.st73{opacity:0.8;fill:#D6FFF9;}
	.st74{fill:#0C65DF;stroke:#1B3390;stroke-width:0.3812;stroke-linecap:round;stroke-linejoin:round;stroke-miterlimit:10;}
	.st75{fill:#0C65DF;stroke:#1B3390;stroke-width:0.3812;stroke-miterlimit:10;}
	.st76{fill:#0C65DF;stroke:#1B3390;stroke-width:0.3812;stroke-linecap:round;stroke-miterlimit:10;}
	.st77{opacity:0.8;fill:#A1C9FF;}
	.st78{fill:none;stroke:#0B5BCB;stroke-width:0.9331;stroke-miterlimit:10;}
	.st79{fill:none;stroke:#0B5BCB;stroke-width:1.1025;stroke-miterlimit:10;}
	.st80{fill:#4992F5;stroke:#1B3390;stroke-width:1.2013;stroke-miterlimit:10;}
	.st81{fill:none;stroke:#1B3390;stroke-width:1.0189;stroke-linecap:round;stroke-miterlimit:10;}
	.st82{fill:#6CF4BC;stroke:#1B3390;stroke-width:0.8217;stroke-miterlimit:10;}
	.st83{fill:none;stroke:#1B3390;stroke-width:0.697;stroke-linecap:round;stroke-miterlimit:10;}
	.st84{fill:#FFB87D;stroke:#1B3390;stroke-width:1.0521;stroke-miterlimit:10;}
	.st85{fill:none;stroke:#1B3390;stroke-width:0.8923;stroke-linecap:round;stroke-miterlimit:10;}
	.st86{fill:#0B5FD5;stroke:#1B3390;stroke-width:0.8152;stroke-miterlimit:10;}
	.st87{fill:none;stroke:#1B3390;stroke-width:0.6914;stroke-linecap:round;stroke-miterlimit:10;}
	.st88{fill:#A6FFE1;stroke:#1B3390;stroke-width:0.9992;stroke-miterlimit:10;}
	.st89{fill:none;stroke:#1B3390;stroke-width:0.8475;stroke-linecap:round;stroke-miterlimit:10;}
	.st90{fill:#FF8B2B;stroke:#1B3390;stroke-width:1.2013;stroke-miterlimit:10;}
	.st91{fill:#34E2AA;stroke:#1B3390;stroke-width:1.0521;stroke-miterlimit:10;}
	.st92{fill:none;stroke:#1B3390;stroke-width:0.7025;stroke-linecap:round;stroke-miterlimit:10;}
	.st93{fill:#FFB87D;stroke:#1B3390;stroke-width:0.8166;stroke-miterlimit:10;}
	.st94{fill:none;stroke:#1B3390;stroke-width:0.6926;stroke-linecap:round;stroke-miterlimit:10;}
	.st95{fill:#ABD0FF;}
	.st96{fill:none;stroke:#0B5BCB;stroke-width:1.6018;stroke-linecap:round;stroke-miterlimit:10;}
	.st97{fill:#E3EFFF;}
	.st98{clip-path:url(#SVGID_8_);fill:none;stroke:#FF8B2B;stroke-width:4.8053;stroke-linecap:round;stroke-miterlimit:10;}
	.st99{fill:none;stroke:#0B5BCB;stroke-width:0.9707;stroke-miterlimit:10;}
	.st100{fill:none;stroke:#0B5BCB;stroke-width:1.1455;stroke-miterlimit:10;}
	.st101{fill:#FFB87D;stroke:#1C3CB7;stroke-width:1.5128;stroke-linecap:round;stroke-linejoin:round;stroke-miterlimit:10;}
	.st102{fill:#FFEED1;stroke:#1C3CB7;stroke-width:1.5128;stroke-linejoin:round;stroke-miterlimit:10;}
	.st103{fill:#FF8B2B;stroke:#1C3CB7;stroke-width:1.5128;stroke-miterlimit:10;}
	.st104{fill:#FFE2C9;stroke:#1C3CB7;stroke-width:1.5128;stroke-linejoin:round;stroke-miterlimit:10;}
	.st105{fill:#1B3390;stroke:#1C3CB7;stroke-width:0.5043;stroke-miterlimit:10;}
	.st106{fill:#0B5BCB;stroke:#1C3CB7;stroke-width:0.5043;stroke-miterlimit:10;}
	.st107{fill:#4992F5;stroke:#1C3CB7;stroke-width:1.5128;stroke-miterlimit:10;}
	.st108{fill:#4992F5;stroke:#1C3CB7;stroke-width:1.5128;stroke-linecap:round;stroke-miterlimit:10;}
	.st109{fill:#8CA4FB;stroke:#1C3CB7;stroke-width:1.5128;stroke-linecap:round;stroke-linejoin:round;stroke-miterlimit:10;}
	.st110{fill:#D1FFEF;stroke:#1C3CB7;stroke-width:1.5128;stroke-linejoin:round;stroke-miterlimit:10;}
	.st111{fill:#0B5BCB;stroke:#1C3CB7;stroke-width:1.5128;stroke-miterlimit:10;}
	.st112{fill:#B2C2FB;stroke:#1C3CB7;stroke-width:1.5128;stroke-linejoin:round;stroke-miterlimit:10;}
	.st113{fill:#34E2AA;stroke:#1C3CB7;stroke-width:0.5043;stroke-miterlimit:10;}
	.st114{fill:#66FFC8;stroke:#1C3CB7;stroke-width:0.5043;stroke-miterlimit:10;}
	.st115{fill:#73FFCD;stroke:#1C3CB7;stroke-width:0.5043;stroke-miterlimit:10;}
	.st116{fill:#00D38E;stroke:#1C3CB7;stroke-width:0.5043;stroke-miterlimit:10;}
	.st117{fill:#34E2AA;stroke:#1C3CB7;stroke-width:1.5128;stroke-miterlimit:10;}
	.st118{fill:#FF8B2B;stroke:#1C3CB7;stroke-width:0.5043;stroke-miterlimit:10;}
	.st119{fill:#FFB87D;stroke:#1C3CB7;stroke-width:0.5043;stroke-miterlimit:10;}
	.st120{fill:#FFB87D;stroke:#1C3CB7;stroke-width:1.5128;stroke-miterlimit:10;}
	.st121{fill:none;stroke:#1C3CB7;stroke-width:1.0085;stroke-miterlimit:10;}
	.st122{fill:none;stroke:#0B5BCB;stroke-width:1.1084;stroke-miterlimit:10;}
	.st123{fill:#75FFCE;stroke:#1B3390;stroke-width:1.4638;stroke-miterlimit:10;}
	.st124{fill:none;stroke:#1B3390;stroke-width:1.4638;stroke-miterlimit:10;}
	.st125{fill:#00C39F;stroke:#1B3390;stroke-width:1.4638;stroke-miterlimit:10;}
	.st126{fill:#A8FFE6;}
	.st127{opacity:0.8;fill:#A8FFE6;}
	.st128{fill:#8CA4FB;stroke:#1B3390;stroke-width:1.4638;stroke-miterlimit:10;}
	.st129{fill:#0B5BCB;stroke:#1B3390;stroke-width:1.4638;stroke-miterlimit:10;}
	.st130{fill:#D8E0FB;}
	.st131{opacity:0.8;fill:#D8E0FB;}
	.st132{fill:none;stroke:#0B5BCB;stroke-width:0.8976;stroke-miterlimit:10;}
	.st133{fill:none;stroke:#0B5BCB;stroke-width:1.1477;stroke-miterlimit:10;}
	.st134{fill:#0B5BCB;stroke:#0B5BCB;stroke-width:2.0209;stroke-miterlimit:10;}
	.st135{fill:#34E2AA;stroke:#0B5BCB;stroke-width:1.5157;stroke-linejoin:round;stroke-miterlimit:10;}
	.st136{fill:none;stroke:#0B5BCB;stroke-width:1.5157;stroke-linecap:round;stroke-miterlimit:10;}
	.st137{fill:#4992F5;stroke:#0B5BCB;stroke-width:2.0209;stroke-miterlimit:10;}
	.st138{fill:#C7FFED;stroke:#34E2AA;stroke-width:1.5157;stroke-miterlimit:10;}
	.st139{fill:#FFD1AB;stroke:#0B5BCB;stroke-width:1.5157;stroke-miterlimit:10;}
	.st140{fill:#34E2AA;stroke:#34E2AA;stroke-width:1.5157;stroke-linejoin:round;stroke-miterlimit:10;}
	.st141{fill:none;stroke:#0B5BCB;stroke-width:0.9448;stroke-miterlimit:10;}
	.st142{clip-path:url(#SVGID_10_);}
	.st143{clip-path:url(#SVGID_12_);fill:none;stroke:#5FECBF;stroke-width:14.7905;stroke-linecap:round;stroke-miterlimit:10;}
	.st144{clip-path:url(#SVGID_14_);fill:none;stroke:#FF8B2B;stroke-width:4.8053;stroke-linecap:round;stroke-miterlimit:10;}
	.st145{fill:none;stroke:#4992F5;stroke-width:0.4107;stroke-miterlimit:10;}
	.st146{fill:none;stroke:#4992F5;stroke-width:0.3292;stroke-miterlimit:10;}
	.st147{fill:#8CA4FB;}
	.st148{opacity:0.25;fill:#FF8B2B;}
	.st149{fill:none;stroke:#FF8B2B;stroke-width:0.6671;stroke-miterlimit:10;}
	.st150{fill:none;stroke:#FF8B2B;stroke-width:0.6249;stroke-miterlimit:10;}
	.st151{fill:#FF9843;}
	.st152{opacity:0.3;fill:#34E2AA;}
	.st153{fill:none;stroke:#4992F5;stroke-width:0.3818;stroke-miterlimit:10;}
	.st154{fill:none;stroke:#4992F5;stroke-width:0.306;stroke-miterlimit:10;}
	.st155{clip-path:url(#SVGID_20_);}
	.st156{clip-path:url(#SVGID_22_);fill:none;stroke:#5FECBF;stroke-width:14.7905;stroke-linecap:round;stroke-miterlimit:10;}
	.st157{clip-path:url(#SVGID_24_);fill:none;stroke:#FF8B2B;stroke-width:4.8053;stroke-linecap:round;stroke-miterlimit:10;}
	.st158{opacity:0.29;}
	.st159{fill:#367FE1;}
	.st160{fill:#1D4BB8;}
	.st161{fill:none;stroke:#FF8B2B;stroke-width:1.8974;stroke-miterlimit:10;}
	.st162{opacity:0.43;fill:#34E2AA;}
	.st163{opacity:0.43;fill:none;stroke:#4890F1;stroke-width:0.9989;stroke-miterlimit:10;}
	.st164{opacity:0.43;fill:none;stroke:#4890F1;stroke-miterlimit:10;}
	.st165{opacity:0.44;fill:#FF8B2B;}
	.st166{fill:none;stroke:#0B59C7;stroke-width:3.0417;stroke-miterlimit:10;}
	.st167{fill:none;stroke:#FF8B2B;stroke-width:0.8561;stroke-miterlimit:10;}
	.st168{fill:none;stroke:#4890F1;stroke-width:0.8545;stroke-miterlimit:10;}
	.st169{fill:none;stroke:#4890F1;stroke-width:1.2463;stroke-miterlimit:10;}
	.st170{fill:#FFEFE0;stroke:#4890F1;stroke-width:1.2463;stroke-miterlimit:10;}
	.st171{fill:#FFDCBF;stroke:#BFCCFF;stroke-width:2.1613;stroke-miterlimit:10;}
	.st172{fill:#E0FFF7;}
	.st173{fill:#BFCCFF;}
	.st174{fill:#BFD8FF;stroke:#ADBFFF;stroke-width:1.5227;stroke-miterlimit:10;}
	.st175{fill:#DBE9FF;}
	.st176{fill:#ADBFFF;}
	.st177{fill:#74A9F7;stroke:#6384FF;stroke-width:1.5227;stroke-miterlimit:10;}
	.st178{fill:#74A9F7;}
	.st179{fill:#6384FF;}
	.st180{fill:#94C0FF;stroke:#8FA7FF;stroke-width:1.6805;stroke-miterlimit:10;}
	.st181{fill:#94C0FF;}
	.st182{fill:#8FA7FF;}
	.st183{fill:#FFC899;stroke:#87A1FF;stroke-width:1.5923;stroke-miterlimit:10;}
	.st184{fill:#87A1FF;}
	.st185{fill:#A1FFE6;stroke:#A1B5FF;stroke-width:1.1942;stroke-miterlimit:10;}
	.st186{fill:#A1FFE6;}
	.st187{fill:#A1B5FF;}
	.st188{fill:#CCFFF2;stroke:#BDCAFF;stroke-width:2.1613;stroke-miterlimit:10;}
	.st189{fill:#BDCAFF;}
	.st190{fill:none;stroke:#4992F5;stroke-width:0.3868;stroke-miterlimit:10;}
	.st191{fill:none;stroke:#4992F5;stroke-width:0.31;stroke-miterlimit:10;}
	.st192{opacity:0.54;}
	.st193{opacity:0.14;}
	.st194{opacity:0.26;}
	.st195{fill:#0B5BCB;stroke:#0B5BCB;stroke-width:4;stroke-miterlimit:10;}
	.st196{fill:#34E2AA;stroke:#0B5BCB;stroke-width:3;stroke-linejoin:round;stroke-miterlimit:10;}
	.st197{fill:none;stroke:#0B5BCB;stroke-width:3;stroke-linecap:round;stroke-miterlimit:10;}
	.st198{fill:#4992F5;stroke:#0B5BCB;stroke-width:4;stroke-miterlimit:10;}
	.st199{fill:#C7FFED;stroke:#34E2AA;stroke-width:3;stroke-miterlimit:10;}
	.st200{fill:#FFD1AB;stroke:#0B5BCB;stroke-width:3;stroke-miterlimit:10;}
	.st201{fill:#34E2AA;stroke:#34E2AA;stroke-width:3;stroke-linejoin:round;stroke-miterlimit:10;}
	.st202{fill:none;stroke:#0B5BCB;stroke-width:1.87;stroke-miterlimit:10;}
	.st203{fill:#E6F0FF;stroke:#DBE3FF;stroke-width:3.6654;stroke-miterlimit:10;}
	.st204{fill:#E6F0FF;}
	.st205{fill:#DBE3FF;}
	.st206{fill:#FFE1C9;stroke:#E0E6FF;stroke-width:5.2027;stroke-miterlimit:10;}
	.st207{fill:#E0E6FF;}
	.st208{fill:#DBE9FF;stroke:#CCD7FF;stroke-width:3.6654;stroke-miterlimit:10;}
	.st209{fill:#CCD7FF;}
	.st210{fill:#9EC2F7;stroke:#9CB1FF;stroke-width:3.6654;stroke-miterlimit:10;}
	.st211{fill:#9EC2F7;}
	.st212{fill:#9CB1FF;}
	.st213{fill:#99C3FF;stroke:#91A9FF;stroke-width:4.0452;stroke-miterlimit:10;}
	.st214{fill:#99C3FF;}
	.st215{fill:#91A9FF;}
	.st216{fill:#FFD7B5;stroke:#A1B5FF;stroke-width:5.2027;stroke-miterlimit:10;}
	.st217{fill:#B8FFEC;stroke:#A1B5FF;stroke-width:5.2027;stroke-miterlimit:10;}
	.st218{fill:#B8FFEC;}
	.st219{fill:#E0FFF7;stroke:#E0E6FF;stroke-width:5.2027;stroke-miterlimit:10;}
	.st220{fill:#FFEAD9;stroke:#DBE3FF;stroke-width:3.6654;stroke-miterlimit:10;}
	.st221{opacity:0.2;}
	.st222{fill:#4890F1;stroke:#1A328C;stroke-width:2.274;stroke-miterlimit:10;}
	.st223{fill:none;stroke:#1A328C;stroke-width:1.9286;stroke-linecap:round;stroke-miterlimit:10;}
	.st224{fill:#6AF0B9;stroke:#1A328C;stroke-width:1.5555;stroke-miterlimit:10;}
	.st225{fill:none;stroke:#1A328C;stroke-width:1.3193;stroke-linecap:round;stroke-miterlimit:10;}
	.st226{fill:#FFB87D;stroke:#1A328C;stroke-width:1.9915;stroke-miterlimit:10;}
	.st227{fill:none;stroke:#1A328C;stroke-width:1.6891;stroke-linecap:round;stroke-miterlimit:10;}
	.st228{fill:#0B5DD1;stroke:#1A328C;stroke-width:1.5432;stroke-miterlimit:10;}
	.st229{fill:none;stroke:#1A328C;stroke-width:1.3088;stroke-linecap:round;stroke-miterlimit:10;}
	.st230{fill:#A6FFE1;stroke:#1A328C;stroke-width:1.8914;stroke-miterlimit:10;}
	.st231{fill:none;stroke:#1A328C;stroke-width:1.6042;stroke-linecap:round;stroke-miterlimit:10;}
	.st232{fill:#8AA1F7;stroke:#1A328C;stroke-width:2.274;stroke-miterlimit:10;}
	.st233{fill:none;stroke:#1A328C;stroke-width:1.3298;stroke-linecap:round;stroke-miterlimit:10;}
	.st234{fill:#FFB87D;stroke:#1A328C;stroke-width:1.5457;stroke-miterlimit:10;}
	.st235{fill:none;stroke:#1A328C;stroke-width:1.311;stroke-linecap:round;stroke-miterlimit:10;}
	.st236{fill:none;stroke:#0B59C7;stroke-width:3.032;stroke-linecap:round;stroke-miterlimit:10;}
	.st237{clip-path:url(#SVGID_28_);fill:none;stroke:#FF8B2B;stroke-width:9.0959;stroke-linecap:round;stroke-miterlimit:10;}
	.st238{fill:#A6FFDE;stroke:#0B59C7;stroke-width:5;stroke-linejoin:round;stroke-miterlimit:10;}
	.st239{fill:#A6FFDE;stroke:#0B59C7;stroke-width:4.2028;stroke-linejoin:round;stroke-miterlimit:10;}
	.st240{fill:#8AA1F7;stroke:#1A328C;stroke-width:5;stroke-miterlimit:10;}
	.st241{fill:none;stroke:#1A328C;stroke-width:5;stroke-miterlimit:10;}
	.st242{fill:#0B59C7;stroke:#1A328C;stroke-width:5;stroke-miterlimit:10;}
	.st243{fill:#75FFCE;stroke:#1A328C;stroke-width:5;stroke-miterlimit:10;}
	.st244{fill:#D4DCF7;}
	.st245{opacity:0.8;fill:#D4DCF7;}
	.st246{fill:#558DDB;stroke:#0653BF;stroke-width:5;stroke-linecap:round;stroke-linejoin:round;stroke-miterlimit:10;}
	.st247{fill:#7EB6F2;}
	.st248{fill:#609CE0;}
	.st249{fill:none;stroke:#0B59C7;stroke-width:5;stroke-linecap:round;stroke-linejoin:round;stroke-miterlimit:10;}
	.st250{fill:#FF8B2B;stroke:#0B59C7;stroke-width:5;stroke-miterlimit:10;}
	.st251{fill:none;stroke:#33DEA7;stroke-width:5;stroke-linecap:round;stroke-miterlimit:10;}
	.st252{fill:none;stroke:#33DEA7;stroke-width:5;stroke-linecap:round;stroke-linejoin:round;stroke-miterlimit:10;}
	.st253{clip-path:url(#SVGID_30_);}
	.st254{fill:none;stroke:#1A328C;stroke-width:5;stroke-linecap:round;stroke-linejoin:round;stroke-miterlimit:10;}
	.st255{fill:#8AA1F7;stroke:#33DEA7;stroke-width:0.7994;stroke-miterlimit:10;}
	.st256{fill:none;stroke:#33DEA7;stroke-width:0.7994;stroke-linecap:round;stroke-miterlimit:10;}
	.st257{fill:none;stroke:#33DEA7;stroke-width:0.7994;stroke-linecap:round;stroke-linejoin:round;stroke-miterlimit:10;}
	.st258{clip-path:url(#SVGID_32_);}
	.st259{fill:none;stroke:#33DEA7;stroke-width:6.662;stroke-linecap:round;stroke-linejoin:round;stroke-miterlimit:10;}
	.st260{fill:none;stroke:#1A328C;stroke-width:1.5989;stroke-linecap:round;stroke-linejoin:round;stroke-miterlimit:10;}
	.st261{fill:#4890F1;stroke:#1A328C;stroke-width:1.7649;stroke-linecap:round;stroke-miterlimit:10;}
	.st262{fill:#4890F1;stroke:#1A328C;stroke-width:1.7649;stroke-linecap:round;stroke-linejoin:round;stroke-miterlimit:10;}
	.st263{opacity:0.8;fill:#C4D0FF;}
	.st264{fill:#FFB87D;stroke:#1B3BB3;stroke-width:5;stroke-linecap:round;stroke-linejoin:round;stroke-miterlimit:10;}
	.st265{fill:#FFD6B3;stroke:#1B3BB3;stroke-width:5;stroke-linejoin:round;stroke-miterlimit:10;}
	.st266{fill:#FF8B2B;stroke:#1B3BB3;stroke-width:5;stroke-miterlimit:10;}
	.st267{fill:#FFB87D;stroke:#1B3BB3;stroke-width:5;stroke-linejoin:round;stroke-miterlimit:10;}
	.st268{fill:#96FFD4;stroke:#1B3BB3;stroke-width:5;stroke-linejoin:round;stroke-miterlimit:10;}
	.st269{fill:#1A328C;stroke:#1B3BB3;stroke-width:5;stroke-miterlimit:10;}
	.st270{fill:#0B59C7;stroke:#1B3BB3;stroke-width:5;stroke-miterlimit:10;}
	.st271{fill:#4890F1;stroke:#1B3BB3;stroke-width:5;stroke-miterlimit:10;}
	.st272{fill:#4890F1;stroke:#1B3BB3;stroke-width:5;stroke-linecap:round;stroke-miterlimit:10;}
	.st273{fill:#FFB87D;stroke:#1B3BB3;stroke-width:1.6332;stroke-linecap:round;stroke-linejoin:round;stroke-miterlimit:10;}
	.st274{fill:#FFD8B8;stroke:#1B3BB3;stroke-width:1.6332;stroke-linejoin:round;stroke-miterlimit:10;}
	.st275{fill:#FF8B2B;stroke:#1B3BB3;stroke-width:1.6332;stroke-miterlimit:10;}
	.st276{fill:#FFB87D;stroke:#1B3BB3;stroke-width:1.6332;stroke-linejoin:round;stroke-miterlimit:10;}
	.st277{fill:#1A328C;stroke:#1B3BB3;stroke-width:0.5444;stroke-miterlimit:10;}
	.st278{fill:#0B59C7;stroke:#1B3BB3;stroke-width:0.5444;stroke-miterlimit:10;}
	.st279{fill:#4890F1;stroke:#1B3BB3;stroke-width:1.6332;stroke-miterlimit:10;}
	.st280{fill:#4890F1;stroke:#1B3BB3;stroke-width:1.6332;stroke-linecap:round;stroke-miterlimit:10;}
	.st281{fill:#92FCCA;stroke:#1A328C;stroke-width:5;stroke-miterlimit:10;}
	.st282{fill:none;stroke:#1A328C;stroke-width:5;stroke-linecap:round;stroke-miterlimit:10;}
	.st283{clip-path:url(#SVGID_36_);fill:none;stroke:#8AA1F7;stroke-width:5;stroke-linecap:round;stroke-miterlimit:10;}
	.st284{fill:#7DFFD5;}
	.st285{fill:#B3FFE4;}
	.st286{fill:none;stroke:#274CD4;stroke-width:0.3105;stroke-miterlimit:10;}
	.st287{fill:#FF8B2B;stroke:#0653BF;stroke-width:2.1766;stroke-linecap:round;stroke-linejoin:round;stroke-miterlimit:10;}
	.st288{fill:#FFD2AD;}
	.st289{fill:none;stroke:#0B59C7;stroke-width:2.1766;stroke-linecap:round;stroke-linejoin:round;stroke-miterlimit:10;}
	.st290{fill:#FFB87D;stroke:#33DEA7;stroke-width:5;stroke-miterlimit:10;}
	.st291{fill:#9EFFE0;stroke:#33DEA7;stroke-width:5;stroke-miterlimit:10;}
	.st292{fill:#FF8B2B;stroke:#33DEA7;stroke-width:5;stroke-linejoin:round;stroke-miterlimit:10;}
	.st293{fill:#FF8B2B;stroke:#1A328C;stroke-width:5;stroke-miterlimit:10;}
	.st294{fill:#6AF0B9;stroke:#1A328C;stroke-width:5;stroke-miterlimit:10;}
	.st295{fill:#B5CBE8;stroke:#1A328C;stroke-width:5;stroke-miterlimit:10;}
	.st296{fill:#0B5DD1;stroke:#1A328C;stroke-width:5;stroke-miterlimit:10;}
	.st297{fill:#4890F1;stroke:#1A328C;stroke-width:5;stroke-miterlimit:10;}
	.st298{fill:#6BFFCA;stroke:#1A328C;stroke-width:5;stroke-miterlimit:10;}
	.st299{fill:none;stroke:#0B59C7;stroke-width:5;stroke-linecap:round;stroke-miterlimit:10;}
	.st300{clip-path:url(#SVGID_38_);fill:none;stroke:#FF8B2B;stroke-width:19;stroke-linecap:round;stroke-miterlimit:10;}
	.st301{fill:#FF8B2B;stroke:#0B59C7;stroke-width:5;stroke-linejoin:round;stroke-miterlimit:10;}
	.st302{fill:#FFC99C;}
	.st303{fill:#8AA1F7;stroke:#0B59C7;stroke-width:5;stroke-linejoin:round;stroke-miterlimit:10;}
	.st304{fill:#33DEA7;stroke:#1A328C;stroke-width:5;stroke-miterlimit:10;}
	.st305{fill:#8AA1F7;stroke:#0B59C7;stroke-width:1.5989;stroke-miterlimit:10;}
	.st306{fill:none;stroke:#0B59C7;stroke-width:1.5989;stroke-linecap:round;stroke-miterlimit:10;}
	.st307{fill:none;stroke:#0B59C7;stroke-width:1.5989;stroke-linecap:round;stroke-linejoin:round;stroke-miterlimit:10;}
	.st308{clip-path:url(#SVGID_40_);}
	.st309{fill:none;stroke:#FF8B2B;stroke-width:13.324;stroke-linecap:round;stroke-linejoin:round;stroke-miterlimit:10;}
	.st310{fill:none;stroke:#1A328C;stroke-width:3.1978;stroke-linecap:round;stroke-linejoin:round;stroke-miterlimit:10;}
	.st311{fill:#4890F1;stroke:#1A328C;stroke-width:1.0806;stroke-miterlimit:10;}
	.st312{fill:#4890F1;stroke:#1A328C;stroke-width:1.0806;stroke-linecap:round;stroke-miterlimit:10;}
	.st313{fill:#4890F1;stroke:#1A328C;stroke-width:1.0806;stroke-linecap:round;stroke-linejoin:round;stroke-miterlimit:10;}
	.st314{fill:#8AA1F7;stroke:#1B3BB3;stroke-width:5;stroke-linecap:round;stroke-linejoin:round;stroke-miterlimit:10;}
	.st315{fill:#D1FFEF;stroke:#1B3BB3;stroke-width:5;stroke-linejoin:round;stroke-miterlimit:10;}
	.st316{fill:#AFBFF7;stroke:#1B3BB3;stroke-width:5;stroke-linejoin:round;stroke-miterlimit:10;}
	.st317{fill:#66FFC8;stroke:#1B3BB3;stroke-width:5;stroke-miterlimit:10;}
	.st318{fill:none;stroke:#274CD4;stroke-width:0.9742;stroke-miterlimit:10;}
	.st319{fill:#8AA1F7;stroke:#0653BF;stroke-width:5;stroke-linecap:round;stroke-linejoin:round;stroke-miterlimit:10;}
	.st320{fill:#BAC8FF;}
	.st321{fill:#9EB2FF;}
	.st322{fill:#8AA1F7;stroke:#0B59C7;stroke-width:5;stroke-miterlimit:10;}
	.st323{clip-path:url(#SVGID_44_);}
	.st324{fill:none;stroke:#33DEA7;stroke-width:25;stroke-linecap:round;stroke-linejoin:round;stroke-miterlimit:10;}
	.st325{fill:#0B59C7;stroke:#0B59C7;stroke-width:5;stroke-miterlimit:10;}
	.st326{fill:#4890F1;stroke:#0B59C7;stroke-width:5;stroke-miterlimit:10;}
	.st327{fill:#FF9B47;stroke:#0B59C7;stroke-width:1.6094;stroke-linejoin:round;stroke-miterlimit:10;}
	.st328{fill:#FFC696;}
	.st329{fill:#6CCFAF;stroke:#0B59C7;stroke-width:1.5694;stroke-miterlimit:10;}
	.st330{fill:#9EFFE0;stroke:#0B59C7;stroke-width:1.5694;stroke-miterlimit:10;}
	.st331{fill:none;stroke:#0B59C7;stroke-width:1.5694;stroke-linecap:round;stroke-miterlimit:10;}
	.st332{fill:#00BD80;stroke:#0B59C7;stroke-width:1.5694;stroke-linejoin:round;stroke-miterlimit:10;}
	.st333{fill:#FF8B2B;stroke:#0653BF;stroke-width:1.5522;stroke-linecap:round;stroke-linejoin:round;stroke-miterlimit:10;}
	.st334{fill:none;stroke:#0B59C7;stroke-width:1.5522;stroke-linecap:round;stroke-linejoin:round;stroke-miterlimit:10;}
	.st335{fill:#E6F0FF;stroke:#DBE3FF;stroke-width:1.0544;stroke-miterlimit:10;}
	.st336{fill:#FFE1C9;stroke:#E0E6FF;stroke-width:1.4967;stroke-miterlimit:10;}
	.st337{fill:#DBE9FF;stroke:#CCD7FF;stroke-width:1.0544;stroke-miterlimit:10;}
	.st338{fill:#9EC2F7;stroke:#9CB1FF;stroke-width:1.0544;stroke-miterlimit:10;}
	.st339{fill:#99C3FF;stroke:#91A9FF;stroke-width:1.1637;stroke-miterlimit:10;}
	.st340{fill:#FFD7B5;stroke:#A1B5FF;stroke-width:1.4967;stroke-miterlimit:10;}
	.st341{fill:#B8FFEC;stroke:#A1B5FF;stroke-width:1.4967;stroke-miterlimit:10;}
	.st342{fill:#E0FFF7;stroke:#E0E6FF;stroke-width:1.4967;stroke-miterlimit:10;}
	.st343{fill:#FFEAD9;stroke:#DBE3FF;stroke-width:1.0544;stroke-miterlimit:10;}
	.st344{fill:#33DEA7;stroke:#1A328C;stroke-miterlimit:10;}
	.st345{fill:#2DC494;}
	.st346{fill:#E3FFFB;stroke:#1A328C;stroke-miterlimit:10;}
	.st347{fill:#D9E5FF;stroke:#1A328C;stroke-miterlimit:10;}
	.st348{fill:#C9FFEB;}
	.st349{fill:#FFD0A8;}
	.st350{fill:#41F2B3;}
	.st351{fill:#31FFC0;}
	.st352{fill:#5CFFCD;}
	.st353{fill:#87FFDA;}
	.st354{fill:#9CFFE0;}
	.st355{fill:#ADFFE6;}
	.st356{fill:#BAFFEA;}
	.st357{fill:#C4DEFF;}
	.st358{fill:#FFFFFF;stroke:#33DEA7;stroke-width:2.0266;stroke-miterlimit:10;}
	.st359{fill:#FFFFFF;stroke:#FF8B2B;stroke-width:2.0266;stroke-miterlimit:10;}
	.st360{fill:#00BD81;}
	.st361{fill:#FFFFFF;stroke:#4890F1;stroke-width:2.0266;stroke-miterlimit:10;}
	.st362{fill:none;stroke:#1A328C;stroke-width:1.9243;stroke-miterlimit:10;}
	.st363{fill:#4890F1;stroke:#1A328C;stroke-width:0.7327;stroke-miterlimit:10;}
	.st364{fill:none;stroke:#1A328C;stroke-width:0.6214;stroke-linecap:round;stroke-miterlimit:10;}
	.st365{fill:#6AF0B9;stroke:#1A328C;stroke-width:0.5012;stroke-miterlimit:10;}
	.st366{fill:none;stroke:#1A328C;stroke-width:0.4251;stroke-linecap:round;stroke-miterlimit:10;}
	.st367{fill:#FFB87D;stroke:#1A328C;stroke-width:0.6417;stroke-miterlimit:10;}
	.st368{fill:none;stroke:#1A328C;stroke-width:0.5442;stroke-linecap:round;stroke-miterlimit:10;}
	.st369{fill:#0B5DD1;stroke:#1A328C;stroke-width:0.4972;stroke-miterlimit:10;}
	.st370{fill:none;stroke:#1A328C;stroke-width:0.4217;stroke-linecap:round;stroke-miterlimit:10;}
	.st371{fill:#A6FFE1;stroke:#1A328C;stroke-width:0.6094;stroke-miterlimit:10;}
	.st372{fill:none;stroke:#1A328C;stroke-width:0.5169;stroke-linecap:round;stroke-miterlimit:10;}
	.st373{fill:#8AA1F7;stroke:#1A328C;stroke-width:0.7327;stroke-miterlimit:10;}
	.st374{fill:none;stroke:#1A328C;stroke-width:0.4285;stroke-linecap:round;stroke-miterlimit:10;}
	.st375{fill:#FFB87D;stroke:#1A328C;stroke-width:0.4981;stroke-miterlimit:10;}
	.st376{fill:none;stroke:#1A328C;stroke-width:0.4224;stroke-linecap:round;stroke-miterlimit:10;}
	.st377{fill:none;stroke:#0B59C7;stroke-width:0.9769;stroke-linecap:round;stroke-miterlimit:10;}
	.st378{clip-path:url(#SVGID_58_);fill:none;stroke:#FF8B2B;stroke-width:2.9308;stroke-linecap:round;stroke-miterlimit:10;}
	.st379{fill:#A6FFDE;stroke:#0B59C7;stroke-width:1.6111;stroke-linejoin:round;stroke-miterlimit:10;}
	.st380{fill:#A6FFDE;stroke:#0B59C7;stroke-width:1.3542;stroke-linejoin:round;stroke-miterlimit:10;}
	.st381{fill:#8AA1F7;stroke:#1A328C;stroke-width:1.6111;stroke-miterlimit:10;}
	.st382{fill:none;stroke:#1A328C;stroke-width:1.6111;stroke-miterlimit:10;}
	.st383{fill:#0B59C7;stroke:#1A328C;stroke-width:1.6111;stroke-miterlimit:10;}
	.st384{fill:#75FFCE;stroke:#1A328C;stroke-width:1.6111;stroke-miterlimit:10;}
	.st385{fill:#558DDB;stroke:#0653BF;stroke-width:1.6111;stroke-linecap:round;stroke-linejoin:round;stroke-miterlimit:10;}
	.st386{fill:none;stroke:#0B59C7;stroke-width:1.6111;stroke-linecap:round;stroke-linejoin:round;stroke-miterlimit:10;}
	.st387{fill:#FF8B2B;stroke:#0B59C7;stroke-width:1.6111;stroke-miterlimit:10;}
	.st388{fill:none;stroke:#33DEA7;stroke-width:1.6111;stroke-linecap:round;stroke-miterlimit:10;}
	.st389{fill:none;stroke:#33DEA7;stroke-width:1.6111;stroke-linecap:round;stroke-linejoin:round;stroke-miterlimit:10;}
	.st390{clip-path:url(#SVGID_60_);}
	.st391{fill:none;stroke:#1A328C;stroke-width:1.6111;stroke-linecap:round;stroke-linejoin:round;stroke-miterlimit:10;}
	.st392{fill:#8AA1F7;stroke:#33DEA7;stroke-width:0.2576;stroke-miterlimit:10;}
	.st393{fill:none;stroke:#33DEA7;stroke-width:0.2576;stroke-linecap:round;stroke-miterlimit:10;}
	.st394{fill:none;stroke:#33DEA7;stroke-width:0.2576;stroke-linecap:round;stroke-linejoin:round;stroke-miterlimit:10;}
	.st395{clip-path:url(#SVGID_62_);}
	.st396{fill:none;stroke:#33DEA7;stroke-width:2.1466;stroke-linecap:round;stroke-linejoin:round;stroke-miterlimit:10;}
	.st397{fill:none;stroke:#1A328C;stroke-width:0.5152;stroke-linecap:round;stroke-linejoin:round;stroke-miterlimit:10;}
	.st398{fill:#4890F1;stroke:#1A328C;stroke-width:0.5687;stroke-linecap:round;stroke-miterlimit:10;}
	.st399{fill:#4890F1;stroke:#1A328C;stroke-width:0.5687;stroke-linecap:round;stroke-linejoin:round;stroke-miterlimit:10;}
	.st400{fill:#FFB87D;stroke:#1B3BB3;stroke-width:1.6111;stroke-linecap:round;stroke-linejoin:round;stroke-miterlimit:10;}
	.st401{fill:#FFD6B3;stroke:#1B3BB3;stroke-width:1.6111;stroke-linejoin:round;stroke-miterlimit:10;}
	.st402{fill:#FF8B2B;stroke:#1B3BB3;stroke-width:1.6111;stroke-miterlimit:10;}
	.st403{fill:#FFB87D;stroke:#1B3BB3;stroke-width:1.6111;stroke-linejoin:round;stroke-miterlimit:10;}
	.st404{fill:#96FFD4;stroke:#1B3BB3;stroke-width:1.6111;stroke-linejoin:round;stroke-miterlimit:10;}
	.st405{fill:#1A328C;stroke:#1B3BB3;stroke-width:1.6111;stroke-miterlimit:10;}
	.st406{fill:#0B59C7;stroke:#1B3BB3;stroke-width:1.6111;stroke-miterlimit:10;}
	.st407{fill:#4890F1;stroke:#1B3BB3;stroke-width:1.6111;stroke-miterlimit:10;}
	.st408{fill:#4890F1;stroke:#1B3BB3;stroke-width:1.6111;stroke-linecap:round;stroke-miterlimit:10;}
	.st409{fill:#FFB87D;stroke:#1B3BB3;stroke-width:0.5262;stroke-linecap:round;stroke-linejoin:round;stroke-miterlimit:10;}
	.st410{fill:#FFD8B8;stroke:#1B3BB3;stroke-width:0.5262;stroke-linejoin:round;stroke-miterlimit:10;}
	.st411{fill:#FF8B2B;stroke:#1B3BB3;stroke-width:0.5262;stroke-miterlimit:10;}
	.st412{fill:#FFB87D;stroke:#1B3BB3;stroke-width:0.5262;stroke-linejoin:round;stroke-miterlimit:10;}
	.st413{fill:#1A328C;stroke:#1B3BB3;stroke-width:0.1754;stroke-miterlimit:10;}
	.st414{fill:#0B59C7;stroke:#1B3BB3;stroke-width:0.1754;stroke-miterlimit:10;}
	.st415{fill:#4890F1;stroke:#1B3BB3;stroke-width:0.5262;stroke-miterlimit:10;}
	.st416{fill:#4890F1;stroke:#1B3BB3;stroke-width:0.5262;stroke-linecap:round;stroke-miterlimit:10;}
	.st417{fill:#92FCCA;stroke:#1A328C;stroke-width:1.6111;stroke-miterlimit:10;}
	.st418{fill:none;stroke:#1A328C;stroke-width:1.6111;stroke-linecap:round;stroke-miterlimit:10;}
	.st419{clip-path:url(#SVGID_66_);fill:none;stroke:#8AA1F7;stroke-width:1.6111;stroke-linecap:round;stroke-miterlimit:10;}
	.st420{fill:none;stroke:#274CD4;stroke-width:0.1;stroke-miterlimit:10;}
	.st421{fill:#FF8B2B;stroke:#0653BF;stroke-width:0.7013;stroke-linecap:round;stroke-linejoin:round;stroke-miterlimit:10;}
	.st422{fill:none;stroke:#0B59C7;stroke-width:0.7013;stroke-linecap:round;stroke-linejoin:round;stroke-miterlimit:10;}
	.st423{fill:#FFB87D;stroke:#33DEA7;stroke-width:1.6111;stroke-miterlimit:10;}
	.st424{fill:#9EFFE0;stroke:#33DEA7;stroke-width:1.6111;stroke-miterlimit:10;}
	.st425{fill:#FF8B2B;stroke:#33DEA7;stroke-width:1.6111;stroke-linejoin:round;stroke-miterlimit:10;}
	.st426{fill:#FF8B2B;stroke:#1A328C;stroke-width:1.6111;stroke-miterlimit:10;}
	.st427{fill:#6AF0B9;stroke:#1A328C;stroke-width:1.6111;stroke-miterlimit:10;}
	.st428{fill:#B5CBE8;stroke:#1A328C;stroke-width:1.6111;stroke-miterlimit:10;}
	.st429{fill:#0B5DD1;stroke:#1A328C;stroke-width:1.6111;stroke-miterlimit:10;}
	.st430{fill:#4890F1;stroke:#1A328C;stroke-width:1.6111;stroke-miterlimit:10;}
	.st431{fill:#6BFFCA;stroke:#1A328C;stroke-width:1.6111;stroke-miterlimit:10;}
	.st432{fill:none;stroke:#0B59C7;stroke-width:1.6111;stroke-linecap:round;stroke-miterlimit:10;}
	.st433{clip-path:url(#SVGID_68_);fill:none;stroke:#FF8B2B;stroke-width:6.1221;stroke-linecap:round;stroke-miterlimit:10;}
	.st434{fill:#FF8B2B;stroke:#0B59C7;stroke-width:1.6111;stroke-linejoin:round;stroke-miterlimit:10;}
	.st435{fill:#8AA1F7;stroke:#0B59C7;stroke-width:1.6111;stroke-linejoin:round;stroke-miterlimit:10;}
	.st436{fill:#33DEA7;stroke:#1A328C;stroke-width:1.6111;stroke-miterlimit:10;}
	.st437{fill:#8AA1F7;stroke:#0B59C7;stroke-width:0.5152;stroke-miterlimit:10;}
	.st438{fill:none;stroke:#0B59C7;stroke-width:0.5152;stroke-linecap:round;stroke-miterlimit:10;}
	.st439{fill:none;stroke:#0B59C7;stroke-width:0.5152;stroke-linecap:round;stroke-linejoin:round;stroke-miterlimit:10;}
	.st440{clip-path:url(#SVGID_70_);}
	.st441{fill:none;stroke:#FF8B2B;stroke-width:4.2932;stroke-linecap:round;stroke-linejoin:round;stroke-miterlimit:10;}
	.st442{fill:none;stroke:#1A328C;stroke-width:1.0304;stroke-linecap:round;stroke-linejoin:round;stroke-miterlimit:10;}
	.st443{fill:#4890F1;stroke:#1A328C;stroke-width:0.3482;stroke-miterlimit:10;}
	.st444{fill:#4890F1;stroke:#1A328C;stroke-width:0.3482;stroke-linecap:round;stroke-miterlimit:10;}
	.st445{fill:#4890F1;stroke:#1A328C;stroke-width:0.3482;stroke-linecap:round;stroke-linejoin:round;stroke-miterlimit:10;}
	.st446{fill:#8AA1F7;stroke:#1B3BB3;stroke-width:1.6111;stroke-linecap:round;stroke-linejoin:round;stroke-miterlimit:10;}
	.st447{fill:#D1FFEF;stroke:#1B3BB3;stroke-width:1.6111;stroke-linejoin:round;stroke-miterlimit:10;}
	.st448{fill:#AFBFF7;stroke:#1B3BB3;stroke-width:1.6111;stroke-linejoin:round;stroke-miterlimit:10;}
	.st449{fill:#66FFC8;stroke:#1B3BB3;stroke-width:1.6111;stroke-miterlimit:10;}
	.st450{fill:none;stroke:#274CD4;stroke-width:0.3139;stroke-miterlimit:10;}
	.st451{fill:#8AA1F7;stroke:#0653BF;stroke-width:1.6111;stroke-linecap:round;stroke-linejoin:round;stroke-miterlimit:10;}
	.st452{fill:#8AA1F7;stroke:#0B59C7;stroke-width:1.6111;stroke-miterlimit:10;}
	.st453{clip-path:url(#SVGID_74_);}
	.st454{fill:none;stroke:#33DEA7;stroke-width:8.0554;stroke-linecap:round;stroke-linejoin:round;stroke-miterlimit:10;}
	.st455{fill:#0B59C7;stroke:#0B59C7;stroke-width:1.6111;stroke-miterlimit:10;}
	.st456{fill:#4890F1;stroke:#0B59C7;stroke-width:1.6111;stroke-miterlimit:10;}
	.st457{fill:#FF9B47;stroke:#0B59C7;stroke-width:0.5186;stroke-linejoin:round;stroke-miterlimit:10;}
	.st458{fill:#6CCFAF;stroke:#0B59C7;stroke-width:0.5057;stroke-miterlimit:10;}
	.st459{fill:#9EFFE0;stroke:#0B59C7;stroke-width:0.5057;stroke-miterlimit:10;}
	.st460{fill:none;stroke:#0B59C7;stroke-width:0.5057;stroke-linecap:round;stroke-miterlimit:10;}
	.st461{fill:#00BD80;stroke:#0B59C7;stroke-width:0.5057;stroke-linejoin:round;stroke-miterlimit:10;}
	.st462{fill:#FF8B2B;stroke:#0653BF;stroke-width:0.5002;stroke-linecap:round;stroke-linejoin:round;stroke-miterlimit:10;}
	.st463{fill:none;stroke:#0B59C7;stroke-width:0.5002;stroke-linecap:round;stroke-linejoin:round;stroke-miterlimit:10;}
	.st464{fill:#E3FFFB;stroke:#1A328C;stroke-width:0.285;stroke-miterlimit:10;}
	.st465{fill:#D9E5FF;stroke:#1A328C;stroke-width:0.285;stroke-miterlimit:10;}
	.st466{fill:#FFFFFF;stroke:#33DEA7;stroke-width:0.653;stroke-miterlimit:10;}
	.st467{fill:#FFFFFF;stroke:#33DEA7;stroke-width:0.8013;stroke-miterlimit:10;}
	.st468{fill:#FFFFFF;stroke:#4890F1;stroke-width:0.653;stroke-miterlimit:10;}
	.st469{fill:none;stroke:#1A328C;stroke-width:0.62;stroke-miterlimit:10;}
	.st470{fill:none;stroke:#1A328C;stroke-width:0.9855;stroke-miterlimit:10;}
	.st471{fill:none;stroke:#1A328C;stroke-width:0.9979;stroke-miterlimit:10;}
	.st472{fill:#E3FFFB;stroke:#1A328C;stroke-width:0.4607;stroke-miterlimit:10;}
	.st473{fill:#D9E5FF;stroke:#1A328C;stroke-width:0.4606;stroke-miterlimit:10;}
	.st474{clip-path:url(#SVGID_94_);fill:none;stroke:#FF8B2B;stroke-width:9.0959;stroke-linecap:round;stroke-miterlimit:10;}
	.st475{clip-path:url(#SVGID_96_);}
	.st476{clip-path:url(#SVGID_98_);}
	.st477{clip-path:url(#SVGID_102_);fill:none;stroke:#8AA1F7;stroke-width:5;stroke-linecap:round;stroke-miterlimit:10;}
	.st478{clip-path:url(#SVGID_104_);fill:none;stroke:#FF8B2B;stroke-width:19;stroke-linecap:round;stroke-miterlimit:10;}
	.st479{clip-path:url(#SVGID_106_);}
	.st480{clip-path:url(#SVGID_110_);}
	.st481{fill:url(#SVGID_141_);}
	.st482{fill:url(#SVGID_142_);}
	.st483{clip-path:url(#SVGID_144_);}
	.st484{fill:#E6F0FF;stroke:#DBE3FF;stroke-width:4.4261;stroke-miterlimit:10;}
	.st485{fill:#FFE1C9;stroke:#E0E6FF;stroke-width:6.2825;stroke-miterlimit:10;}
	.st486{fill:#DBE9FF;stroke:#CCD7FF;stroke-width:4.4261;stroke-miterlimit:10;}
	.st487{fill:#9EC2F7;stroke:#9CB1FF;stroke-width:4.4261;stroke-miterlimit:10;}
	.st488{fill:#99C3FF;stroke:#91A9FF;stroke-width:4.8848;stroke-miterlimit:10;}
	.st489{fill:#FFD7B5;stroke:#A1B5FF;stroke-width:6.2825;stroke-miterlimit:10;}
	.st490{fill:#B8FFEC;stroke:#A1B5FF;stroke-width:6.2825;stroke-miterlimit:10;}
	.st491{fill:#E0FFF7;stroke:#E0E6FF;stroke-width:6.2825;stroke-miterlimit:10;}
	.st492{fill:#FFEAD9;stroke:#DBE3FF;stroke-width:4.4261;stroke-miterlimit:10;}
</style>
<g id="мой_профиль">
	<g id="Слой_6">
	</g>
	<g id="Слой_5">
	</g>
</g>
<g id="регистрация">
</g>
<g id="контакты">
</g>
<g id="Слой_4">
	<g>
		<defs>
			<rect id="SVGID_143_" x="53.29" y="352.92" width="1884.71" height="614.94"/>
		</defs>
		<clipPath id="SVGID_2_">
			<use xlink:href="#SVGID_143_"  style="overflow:visible;"/>
		</clipPath>
		<g style="clip-path:url(#SVGID_2_);">
			<g>
				<path class="st484" d="M493.13,393.53c0,0,15.28,7.99,31.27,17.91c0.01,0.01,0.02,0.01,0.03,0.02
					c9.55,4.9,16.75,2.98,17.17,2.86c0.02,0,0.03-0.01,0.04-0.01c0.99-0.14,33.09-4.55,37.47-5.37c4.45-0.83,28.19-7.01,28.19-7.01
					s14.86-4.03,22.93-17.82c0.01-0.01,0.01-0.02,0.02-0.02c0.28-0.38,7.35-9.68,10.67-3.45c3.39,6.36-0.98,21.16-7.56,26.54
					c-6.02,4.93-25.83,13.04-29.15,14.38c-0.22,0.09-0.26,0.36-0.08,0.5l10.49,8.31c3.63,2.88,6.81,6.2,9.32,9.92
					c3.12,4.62,5.61,10.39,2.25,14.23c-4.99,5.71-10.07,4.08-12.06,3.1c-0.28-0.14-0.59,0.1-0.48,0.36
					c0.97,2.35,2.99,8.92-2.56,12.88c-0.01,0.01-0.02,0.01-0.03,0.02c-4.53,2.79-9.28,1.14-10.93,0.41
					c-0.25-0.11-0.52,0.07-0.48,0.32c0.35,1.9,1,7.7-3.58,10.07c-4.36,2.25-7.75,1.69-8.98,1.36c-0.23-0.06-0.45,0.1-0.43,0.31
					c0.14,1.33,0.05,5.13-5.15,7.09c-0.06,0.02-0.13,0.05-0.19,0.07c-4.56,1.68-9.82,0.88-13.65-2.01c-1.85-1.4-3.97-3.03-5.61-4.38
					c-0.08-0.06-0.18-0.09-0.28-0.08c-1.29,0.19-10.5,1.07-29.11-8.59c-0.01,0-0.02-0.01-0.02-0.01c-0.64-0.4-28.35-17.64-35-26.94
					c-0.03-0.04-0.07-0.08-0.12-0.1c-1.37-0.66-21.16-10.11-40.07-18.46c-19.04-8.41-165.64-77.66-173.92-81.57
					c-0.19-0.09-0.24-0.31-0.11-0.46l41.58-46.94c0.11-0.12,0.29-0.15,0.44-0.07L493.13,393.53z"/>
				<g>
					<line class="st204" x1="613.51" y1="456.86" x2="591.1" y2="437.03"/>
					<path class="st205" d="M613.51,456.86c-2.47-0.97-4.66-2.26-6.75-3.66c-2.08-1.41-4.05-2.95-5.92-4.6
						c-1.87-1.65-3.64-3.42-5.29-5.31c-1.64-1.91-3.19-3.92-4.45-6.26c2.48,0.96,4.66,2.26,6.76,3.65c2.08,1.41,4.05,2.95,5.92,4.6
						c1.87,1.65,3.63,3.42,5.29,5.32C610.7,452.51,612.25,454.52,613.51,456.86z"/>
				</g>
				<g>
					<line class="st204" x1="600.13" y1="470.89" x2="578.95" y2="453.38"/>
					<path class="st205" d="M600.13,470.89c-2.35-0.75-4.42-1.84-6.4-3.04c-1.97-1.21-3.83-2.55-5.6-4.01
						c-1.77-1.46-3.44-3.03-4.99-4.74c-1.55-1.72-3.01-3.55-4.19-5.72c2.35,0.75,4.42,1.84,6.4,3.04c1.97,1.21,3.83,2.55,5.6,4.01
						c1.76,1.46,3.43,3.04,4.99,4.75C597.49,466.9,598.95,468.72,600.13,470.89z"/>
				</g>
				<g>
					<line class="st204" x1="587.36" y1="483.16" x2="567.84" y2="468.13"/>
					<path class="st205" d="M587.36,483.16c-2.19-0.53-4.1-1.4-5.94-2.38c-1.82-0.99-3.54-2.13-5.17-3.38
						c-1.63-1.25-3.16-2.62-4.59-4.13c-1.42-1.52-2.75-3.15-3.82-5.13c2.19,0.52,4.11,1.4,5.94,2.38c1.82,1,3.54,2.13,5.17,3.38
						c1.63,1.25,3.16,2.63,4.59,4.14C584.96,479.55,586.29,481.18,587.36,483.16z"/>
				</g>
			</g>
			<g>
				<path class="st485" d="M202.2,421.58c0,0,30.67,10.23,63.39,24.1c0.02,0.01,0.04,0.01,0.06,0.02
					c19.13,6.2,31.36-0.43,32.08-0.84c0.03-0.02,0.05-0.02,0.07-0.03c1.72-0.65,57.87-21.91,65.46-25.24
					c7.7-3.39,48.08-24.99,48.08-24.99s25.22-13.86,34.37-44.76c0.01-0.02,0.01-0.04,0.02-0.06c0.36-0.87,9.46-22.35,17.88-11.07
					c8.59,11.52,6.5,43.05-3.25,56.44c-8.92,12.25-41.47,36.24-46.92,40.22c-0.37,0.27-0.33,0.82,0.06,1.05l22.16,12.74
					c7.67,4.41,14.71,9.89,20.68,16.41c7.43,8.12,14.17,18.81,9.62,27.85c-6.76,13.44-16.56,12.11-20.54,10.89
					c-0.55-0.17-1.02,0.43-0.72,0.92c2.66,4.37,8.87,16.84,0.43,26.96c-0.01,0.02-0.03,0.04-0.05,0.05
					c-7.08,7.37-16.28,5.88-19.55,5.04c-0.49-0.13-0.92,0.35-0.74,0.82c1.38,3.7,4.82,15.15-2.52,21.69
					c-6.98,6.21-13.3,6.39-15.66,6.19c-0.44-0.04-0.78,0.37-0.65,0.8c0.78,2.63,2.1,10.33-6.51,16.27
					c-0.11,0.07-0.21,0.14-0.32,0.22c-7.56,5.14-17.36,5.56-25.39,1.2c-3.89-2.11-8.35-4.59-11.83-6.67
					c-0.17-0.1-0.36-0.12-0.54-0.04c-2.25,0.88-18.51,6.21-55.85-6.13c-0.02-0.01-0.03-0.01-0.05-0.02
					c-1.32-0.56-58.01-24.68-73.64-40.88c-0.07-0.08-0.16-0.13-0.26-0.16c-2.73-0.8-42.11-12.25-79.46-21.82
					c-37.62-9.64-329-92.91-345.46-97.62c-0.38-0.11-0.56-0.53-0.38-0.88l56.59-110.68c0.14-0.28,0.47-0.41,0.77-0.3L202.2,421.58z"
					/>
				<g>
					<line class="st172" x1="444" y1="503.01" x2="395.85" y2="471.63"/>
					<path class="st207" d="M444,503.01c-4.49-1.88-8.74-4.13-12.94-6.47c-4.18-2.36-8.27-4.85-12.29-7.47
						c-4.02-2.61-7.95-5.35-11.8-8.22c-3.83-2.89-7.61-5.87-11.14-9.22c4.49,1.88,8.74,4.13,12.94,6.46
						c4.18,2.36,8.27,4.85,12.28,7.47c4.01,2.62,7.95,5.35,11.79,8.22C436.69,496.69,440.47,499.66,444,503.01z"/>
				</g>
				<g>
					<line class="st172" x1="425.37" y1="536.47" x2="380.34" y2="509.3"/>
					<path class="st207" d="M425.37,536.47c-4.21-1.5-8.2-3.37-12.13-5.35c-3.92-1.99-7.74-4.13-11.5-6.39
						c-3.75-2.26-7.43-4.65-11.02-7.18c-3.58-2.55-7.1-5.21-10.39-8.24c4.21,1.5,8.21,3.37,12.13,5.35
						c3.92,1.99,7.74,4.13,11.49,6.4c3.75,2.27,7.43,4.65,11.02,7.19C418.56,530.78,422.08,533.44,425.37,536.47z"/>
				</g>
				<g>
					<line class="st172" x1="407.15" y1="566.13" x2="366.09" y2="543.33"/>
					<path class="st207" d="M407.15,566.13c-3.81-1.2-7.43-2.75-11-4.38c-3.56-1.65-7.04-3.44-10.47-5.34
						c-3.42-1.9-6.78-3.91-10.07-6.06c-3.27-2.17-6.5-4.42-9.53-7.02c3.81,1.2,7.43,2.75,11,4.38c3.56,1.65,7.04,3.44,10.46,5.34
						c3.42,1.9,6.78,3.92,10.07,6.06C400.89,561.28,404.12,563.53,407.15,566.13z"/>
				</g>
			</g>
			<g>
				<path class="st486" d="M174.14,713.28c0,0,32.22-2.78,67.75-3.03c0.02,0,0.04,0,0.06,0c20.02-1.9,28.61-12.84,29.12-13.5
					c0.02-0.02,0.03-0.04,0.05-0.06c1.32-1.28,44.43-43.08,50.07-49.14c5.73-6.16,34.21-42.02,34.21-42.02s17.65-22.73,13.79-54.72
					c0-0.02,0-0.04,0-0.06c-0.01-0.94-0.19-24.27,12.02-17.26c12.46,7.16,23.05,36.94,19.41,53.09
					c-3.33,14.78-23.68,49.72-27.11,55.54c-0.23,0.39,0.02,0.89,0.47,0.94l25.39,2.9c8.79,1,17.42,3.24,25.5,6.86
					c10.04,4.5,20.47,11.64,19.88,21.74c-0.87,15.02-10.4,17.69-14.53,18.14c-0.57,0.06-0.77,0.8-0.3,1.13
					c4.18,2.95,14.83,11.94,11.09,24.58c-0.01,0.02-0.01,0.04-0.02,0.07c-3.57,9.57-12.61,11.86-15.95,12.38
					c-0.5,0.08-0.7,0.68-0.35,1.05c2.73,2.85,10.44,12,6.29,20.91c-3.94,8.47-9.68,11.15-11.92,11.9c-0.42,0.14-0.57,0.65-0.28,0.99
					c1.76,2.11,6.03,8.64,0.48,17.52c-0.07,0.11-0.14,0.22-0.2,0.32c-4.9,7.71-13.73,11.99-22.83,11.17
					c-4.41-0.4-9.49-0.9-13.5-1.43c-0.19-0.03-0.38,0.04-0.51,0.17c-1.72,1.7-14.53,13.04-53.7,16.53c-0.02,0-0.03,0-0.05,0
					c-1.43,0.01-63.04,0.36-83.82-8.31c-0.1-0.04-0.2-0.06-0.3-0.04c-2.82,0.35-43.51,5.47-81.59,11.5
					c-38.36,6.08-338.86,45.26-355.83,47.47c-0.39,0.05-0.72-0.27-0.7-0.66l8.02-124.05c0.02-0.31,0.27-0.56,0.59-0.58
					L174.14,713.28z"/>
				<g>
					<line class="st175" x1="428.4" y1="692.08" x2="371.74" y2="682.38"/>
					<path class="st209" d="M428.4,692.08c-4.88,0.1-9.68-0.25-14.46-0.71c-4.78-0.49-9.52-1.15-14.24-1.95
						c-4.72-0.8-9.42-1.76-14.08-2.89c-4.66-1.15-9.31-2.42-13.87-4.14c4.88-0.11,9.68,0.25,14.46,0.71
						c4.78,0.49,9.52,1.15,14.24,1.96c4.72,0.81,9.42,1.77,14.08,2.89C419.19,689.1,423.83,690.36,428.4,692.08z"/>
				</g>
				<g>
					<line class="st175" x1="424.57" y1="730.18" x2="372.45" y2="723.12"/>
					<path class="st209" d="M424.57,730.18c-4.47,0.32-8.87,0.2-13.26-0.05c-4.39-0.27-8.75-0.71-13.09-1.29
						c-4.34-0.59-8.67-1.32-12.97-2.23c-4.3-0.93-8.58-1.99-12.8-3.49c4.47-0.32,8.87-0.21,13.26,0.04
						c4.39,0.27,8.75,0.71,13.09,1.3c4.34,0.59,8.67,1.33,12.96,2.24C416.07,727.62,420.35,728.68,424.57,730.18z"/>
				</g>
				<g>
					<line class="st175" x1="419.61" y1="764.64" x2="372.87" y2="760.01"/>
					<path class="st209" d="M419.61,764.64c-3.99,0.53-7.93,0.61-11.86,0.57c-3.93-0.06-7.84-0.3-11.73-0.68
						c-3.9-0.38-7.78-0.92-11.64-1.63c-3.86-0.73-7.71-1.59-11.51-2.89c3.99-0.53,7.93-0.62,11.86-0.57
						c3.93,0.06,7.84,0.3,11.73,0.69c3.89,0.39,7.77,0.92,11.64,1.63C411.96,762.48,415.81,763.34,419.61,764.64z"/>
				</g>
			</g>
			<g>
				<path class="st487" d="M1.21,478.39c0,0,22.69,2.01,47.38,6.17c0.01,0,0.03,0,0.04,0.01c14.12,1.13,21.42-5.41,21.85-5.81
					c0.02-0.01,0.03-0.02,0.05-0.04c1.07-0.73,36.09-24.46,40.74-27.99c4.73-3.58,28.87-24.98,28.87-24.98s15.02-13.61,16.25-36.29
					c0-0.01,0-0.03,0-0.04c0.11-0.66,2.83-16.86,10.45-10.51c7.77,6.49,11.48,28.45,6.99,39.21c-4.11,9.85-22.5,31.61-25.59,35.23
					c-0.21,0.24-0.09,0.62,0.21,0.71l17.27,5.11c5.98,1.77,11.69,4.37,16.85,7.87c6.42,4.35,12.78,10.58,11.14,17.51
					c-2.44,10.32-9.37,11.01-12.3,10.81c-0.41-0.03-0.63,0.46-0.34,0.75c2.54,2.56,8.83,10.1,4.69,18.41
					c-0.01,0.01-0.02,0.03-0.02,0.04c-3.65,6.21-10.2,6.69-12.58,6.65c-0.36-0.01-0.57,0.39-0.37,0.68
					c1.55,2.31,5.78,9.6,1.81,15.28c-3.77,5.4-8.07,6.55-9.72,6.8c-0.31,0.05-0.47,0.38-0.32,0.65c0.96,1.68,3.13,6.73-1.81,12.22
					c-0.06,0.07-0.12,0.13-0.18,0.2c-4.34,4.75-10.99,6.65-17.2,4.97c-3.01-0.81-6.47-1.78-9.19-2.64
					c-0.13-0.04-0.27-0.02-0.38,0.06c-1.4,0.97-11.67,7.28-39.28,4.91c-0.01,0-0.02,0-0.04,0c-0.99-0.17-43.78-7.44-57.14-16
					c-0.06-0.04-0.13-0.06-0.21-0.07c-2-0.1-30.86-1.52-58.02-1.98c-27.36-0.46-240.65-9.96-252.69-10.5
					c-0.28-0.01-0.47-0.27-0.4-0.54l20.71-85.09c0.05-0.22,0.26-0.36,0.48-0.33L1.21,478.39z"/>
				<g>
					<line class="st211" x1="180.21" y1="494.72" x2="142.09" y2="481.08"/>
					<path class="st212" d="M180.21,494.72c-3.38-0.56-6.67-1.4-9.92-2.33c-3.26-0.92-6.46-1.97-9.64-3.1
						c-3.18-1.14-6.32-2.36-9.42-3.72c-3.1-1.34-6.17-2.78-9.14-4.49c3.38,0.56,6.67,1.39,9.92,2.33c3.26,0.92,6.46,1.97,9.64,3.11
						c3.18,1.14,6.32,2.36,9.42,3.72C174.17,491.57,177.24,493.01,180.21,494.72z"/>
				</g>
				<g>
					<line class="st211" x1="172.91" y1="520.69" x2="137.61" y2="509.42"/>
					<path class="st212" d="M172.91,520.69c-3.13-0.34-6.17-0.97-9.18-1.7c-3.01-0.71-5.98-1.56-8.93-2.5
						c-2.94-0.94-5.85-1.97-8.72-3.13c-2.87-1.15-5.72-2.4-8.47-3.94c3.13,0.34,6.17,0.96,9.18,1.69c3.01,0.71,5.98,1.56,8.93,2.5
						c2.94,0.94,5.85,1.97,8.72,3.14C167.31,517.9,170.15,519.15,172.91,520.69z"/>
				</g>
				<g>
					<line class="st211" x1="165.26" y1="543.99" x2="133.4" y2="535.07"/>
					<path class="st212" d="M165.26,543.99c-2.81-0.2-5.54-0.67-8.25-1.22c-2.71-0.54-5.39-1.2-8.05-1.94
						c-2.66-0.74-5.29-1.57-7.89-2.51c-2.6-0.93-5.18-1.96-7.68-3.24c2.81,0.2,5.54,0.66,8.25,1.21c2.71,0.54,5.39,1.2,8.05,1.94
						c2.65,0.75,5.29,1.57,7.89,2.52C160.18,541.68,162.76,542.71,165.26,543.99z"/>
				</g>
			</g>
			<g>
				<path class="st488" d="M-1.2,683.03c0,0,25.05-2.16,52.68-2.36c0.02,0,0.03,0,0.05,0c15.57-1.47,22.25-9.98,22.64-10.5
					c0.01-0.02,0.03-0.03,0.04-0.05c1.03-1,34.54-33.49,38.93-38.21c4.45-4.79,26.6-32.67,26.6-32.67s13.72-17.67,10.72-42.55
					c0-0.02,0-0.03,0-0.05c-0.01-0.73-0.15-18.87,9.34-13.42c9.69,5.57,17.92,28.72,15.1,41.28c-2.59,11.5-18.41,38.66-21.08,43.18
					c-0.18,0.3,0.02,0.69,0.36,0.73l19.74,2.25c6.84,0.78,13.55,2.52,19.83,5.33c7.81,3.5,15.92,9.05,15.46,16.91
					c-0.68,11.68-8.08,13.76-11.3,14.1c-0.45,0.05-0.6,0.62-0.23,0.88c3.25,2.3,11.53,9.28,8.62,19.11
					c-0.01,0.02-0.01,0.03-0.02,0.05c-2.78,7.44-9.81,9.22-12.4,9.63c-0.39,0.06-0.55,0.53-0.27,0.82
					c2.12,2.21,8.11,9.33,4.89,16.26c-3.06,6.58-7.52,8.67-9.27,9.25c-0.33,0.11-0.44,0.51-0.22,0.77
					c1.37,1.64,4.69,6.72,0.37,13.62c-0.05,0.08-0.11,0.17-0.16,0.25c-3.81,6-10.67,9.33-17.75,8.69c-3.43-0.31-7.38-0.7-10.5-1.11
					c-0.15-0.02-0.29,0.03-0.4,0.13c-1.33,1.32-11.29,10.14-41.75,12.85c-0.01,0-0.03,0-0.04,0c-1.11,0.01-49.01,0.28-65.17-6.46
					c-0.08-0.03-0.15-0.04-0.24-0.03c-2.2,0.27-33.83,4.25-63.44,8.94c-29.82,4.73-263.47,35.19-276.67,36.91
					c-0.3,0.04-0.56-0.21-0.54-0.51l6.24-96.45c0.02-0.24,0.21-0.44,0.46-0.45L-1.2,683.03z"/>
				<g>
					<line class="st214" x1="196.5" y1="666.54" x2="152.44" y2="659.01"/>
					<path class="st215" d="M196.5,666.54c-3.78,0.04-7.51-0.24-11.23-0.64c-3.71-0.37-7.4-0.91-11.07-1.53
						c-3.67-0.63-7.33-1.35-10.95-2.24c-3.63-0.86-7.24-1.84-10.8-3.14c3.79-0.04,7.52,0.24,11.23,0.63
						c3.71,0.37,7.4,0.91,11.07,1.53c3.67,0.63,7.32,1.36,10.95,2.24C189.33,664.27,192.94,665.25,196.5,666.54z"/>
				</g>
				<g>
					<line class="st214" x1="193.52" y1="696.17" x2="153" y2="690.67"/>
					<path class="st215" d="M193.52,696.17c-3.47,0.23-6.89,0.12-10.31-0.08c-3.41-0.22-6.8-0.56-10.18-1.02
						c-3.38-0.46-6.74-1.03-10.08-1.73c-3.34-0.72-6.67-1.52-9.95-2.67c3.47-0.24,6.89-0.12,10.31,0.07
						c3.41,0.22,6.8,0.56,10.18,1.02c3.38,0.46,6.74,1.03,10.08,1.73C186.9,694.22,190.24,695.02,193.52,696.17z"/>
				</g>
				<g>
					<line class="st214" x1="189.67" y1="722.96" x2="153.33" y2="719.36"/>
					<path class="st215" d="M189.67,722.96c-3.09,0.31-6.15,0.34-9.2,0.25c-3.05-0.06-6.09-0.28-9.12-0.57
						c-3.03-0.3-6.05-0.69-9.05-1.23c-3.01-0.52-6-1.14-8.97-2.06c3.09-0.32,6.15-0.34,9.2-0.26c3.05,0.06,6.09,0.28,9.12,0.57
						c3.03,0.31,6.05,0.69,9.05,1.23C183.7,721.42,186.7,722.04,189.67,722.96z"/>
				</g>
			</g>
			<g>
				<path class="st489" d="M-79.25,832.26c0,0,22.26-2.14,46.84-2.56c0.01,0,0.03,0,0.04,0c13.84-1.45,19.7-9.07,20.04-9.54
					c0.01-0.02,0.02-0.03,0.04-0.04c0.91-0.9,30.43-30.1,34.29-34.33c3.92-4.3,23.37-29.3,23.37-29.3s12.05-15.84,9.16-37.94
					c0-0.01,0-0.03,0-0.04c-0.01-0.65-0.3-16.79,8.19-12.02c8.67,4.87,16.2,25.39,13.79,36.59c-2.2,10.25-16.04,34.55-18.37,38.6
					c-0.16,0.27,0.02,0.61,0.33,0.64l17.58,1.83c6.09,0.63,12.07,2.12,17.68,4.57c6.98,3.04,14.24,7.91,13.9,14.9
					c-0.5,10.4-7.07,12.31-9.93,12.65c-0.4,0.05-0.53,0.56-0.2,0.78c2.91,2.01,10.34,8.16,7.84,16.92c0,0.02-0.01,0.03-0.01,0.05
					c-2.4,6.65-8.64,8.29-10.94,8.67c-0.35,0.06-0.48,0.48-0.24,0.73c1.91,1.95,7.3,8.23,4.49,14.42c-2.67,5.88-6.62,7.78-8.16,8.31
					c-0.29,0.1-0.39,0.45-0.19,0.69c1.23,1.45,4.23,5.94,0.45,12.12c-0.05,0.08-0.09,0.15-0.14,0.23
					c-3.33,5.37-9.41,8.39-15.71,7.89c-3.05-0.24-6.57-0.56-9.35-0.9c-0.13-0.02-0.26,0.03-0.35,0.12
					c-1.18,1.19-9.96,9.12-37.03,11.8c-0.01,0-0.02,0-0.04,0c-0.99,0.02-43.6,0.69-58.03-5.17c-0.07-0.03-0.14-0.04-0.21-0.03
					c-1.95,0.26-30.06,4.08-56.35,8.52c-26.49,4.47-234.06,33.63-245.78,35.28c-0.27,0.04-0.5-0.18-0.49-0.45l4.7-85.85
					c0.01-0.22,0.18-0.39,0.4-0.41L-79.25,832.26z"/>
				<g>
					<line class="st126" x1="96.46" y1="815.85" x2="57.2" y2="809.53"/>
					<path class="st187" d="M96.46,815.85c-3.48,0.76-6.86,0.9-10.2,0.85c-3.34-0.07-6.65-0.39-9.92-0.91
						c-3.27-0.52-6.51-1.26-9.71-2.24c-3.19-1-6.36-2.2-9.42-4.02c3.48-0.77,6.86-0.91,10.21-0.86c3.34,0.07,6.65,0.39,9.92,0.92
						c3.27,0.53,6.51,1.27,9.71,2.25C90.23,812.85,93.39,814.04,96.46,815.85z"/>
				</g>
				<g>
					<line class="st126" x1="94.07" y1="842.23" x2="57.98" y2="837.7"/>
					<path class="st187" d="M94.07,842.23c-3.17,0.91-6.26,1.21-9.33,1.31c-3.07,0.08-6.1-0.08-9.11-0.46
						c-3.01-0.37-5.99-0.96-8.94-1.8c-2.95-0.86-5.87-1.91-8.72-3.58c3.17-0.92,6.26-1.22,9.33-1.32c3.07-0.08,6.1,0.08,9.11,0.47
						c3.01,0.38,5.99,0.97,8.94,1.81C88.3,839.51,91.22,840.56,94.07,842.23z"/>
				</g>
				<g>
					<line class="st126" x1="90.88" y1="866.09" x2="58.52" y2="863.21"/>
					<path class="st187" d="M90.88,866.09c-2.81,1.06-5.57,1.49-8.31,1.73c-2.74,0.22-5.45,0.19-8.15-0.04
						c-2.7-0.24-5.37-0.69-8.03-1.39c-2.65-0.72-5.29-1.64-7.87-3.18c2.81-1.06,5.57-1.5,8.31-1.74c2.74-0.22,5.45-0.19,8.15,0.05
						c2.7,0.24,5.37,0.7,8.03,1.4C85.66,863.65,88.3,864.56,90.88,866.09z"/>
				</g>
			</g>
			<g>
				<path class="st490" d="M-112.18,581.19c0,0,18.32,1.62,38.24,4.98c0.01,0,0.02,0,0.03,0c11.4,0.91,17.29-4.37,17.64-4.69
					c0.01-0.01,0.02-0.02,0.04-0.03c0.87-0.59,29.13-19.75,32.89-22.59c3.81-2.89,23.3-20.16,23.3-20.16s12.13-10.99,13.11-29.29
					c0-0.01,0-0.02,0-0.03c0.09-0.53,2.29-13.61,8.43-8.48c6.27,5.24,9.27,22.96,5.64,31.65c-3.32,7.95-18.17,25.52-20.66,28.44
					c-0.17,0.2-0.08,0.5,0.17,0.57l13.94,4.13c4.83,1.43,9.44,3.53,13.61,6.35c5.18,3.51,10.32,8.54,8.99,14.14
					c-1.97,8.33-7.57,8.89-9.93,8.73c-0.33-0.02-0.51,0.37-0.28,0.6c2.05,2.07,7.13,8.15,3.79,14.86c-0.01,0.01-0.01,0.02-0.02,0.03
					c-2.94,5.01-8.23,5.4-10.15,5.36c-0.29-0.01-0.46,0.31-0.3,0.55c1.25,1.86,4.66,7.75,1.46,12.33c-3.04,4.36-6.52,5.29-7.85,5.49
					c-0.25,0.04-0.38,0.31-0.26,0.53c0.78,1.35,2.52,5.44-1.46,9.86c-0.05,0.05-0.1,0.11-0.15,0.16c-3.5,3.84-8.87,5.36-13.89,4.01
					c-2.43-0.66-5.23-1.44-7.42-2.13c-0.1-0.03-0.21-0.02-0.3,0.05c-1.13,0.78-9.42,5.87-31.71,3.97c-0.01,0-0.02,0-0.03,0
					c-0.8-0.14-35.34-6.01-46.13-12.91c-0.05-0.03-0.11-0.05-0.17-0.05c-1.62-0.08-24.91-1.23-46.83-1.6
					c-22.08-0.37-194.25-8.04-203.98-8.48c-0.22-0.01-0.38-0.22-0.33-0.44l16.72-68.69c0.04-0.17,0.21-0.29,0.39-0.27
					L-112.18,581.19z"/>
				<g>
					<line class="st218" x1="32.32" y1="594.37" x2="1.54" y2="583.35"/>
					<path class="st187" d="M32.32,594.37c-3,0.31-5.8,0.02-8.52-0.44c-2.72-0.48-5.36-1.2-7.92-2.11
						c-2.57-0.91-5.06-2.03-7.47-3.38c-2.4-1.37-4.74-2.93-6.86-5.08c3.01-0.32,5.8-0.03,8.53,0.43c2.72,0.48,5.36,1.2,7.92,2.12
						c2.56,0.92,5.06,2.04,7.47,3.39C27.85,590.67,30.19,592.22,32.32,594.37z"/>
				</g>
				<g>
					<line class="st218" x1="26.42" y1="615.33" x2="-2.08" y2="606.24"/>
					<path class="st187" d="M26.42,615.33c-2.77,0.48-5.35,0.37-7.87,0.07c-2.51-0.32-4.95-0.87-7.33-1.63
						c-2.38-0.75-4.68-1.72-6.92-2.91c-2.23-1.22-4.4-2.62-6.37-4.63c2.77-0.49,5.35-0.38,7.87-0.08c2.51,0.32,4.95,0.87,7.33,1.63
						c2.37,0.76,4.68,1.72,6.92,2.92C22.27,611.93,24.44,613.33,26.42,615.33z"/>
				</g>
				<g>
					<line class="st218" x1="20.25" y1="634.14" x2="-5.47" y2="626.94"/>
					<path class="st187" d="M20.25,634.14c-2.49,0.65-4.82,0.7-7.09,0.57c-2.27-0.16-4.47-0.55-6.61-1.15
						c-2.14-0.59-4.23-1.4-6.25-2.45c-2.01-1.07-3.97-2.32-5.76-4.18c2.5-0.66,4.82-0.71,7.1-0.58c2.27,0.16,4.47,0.55,6.61,1.15
						c2.14,0.6,4.23,1.41,6.25,2.45C16.49,631.04,18.45,632.29,20.25,634.14z"/>
				</g>
			</g>
			<g>
				<path class="st491" d="M182.77,873.63c0,0,21.75-5.21,46.03-9.03c0.01,0,0.03,0,0.04-0.01c13.5-3.35,18.25-11.72,18.53-12.23
					c0.01-0.02,0.02-0.03,0.03-0.05c0.77-1.01,25.96-34.03,29.19-38.76c3.28-4.8,19.08-32.26,19.08-32.26s9.74-17.36,3.8-38.85
					c0-0.01-0.01-0.03-0.01-0.04c-0.11-0.64-2.62-16.58,6.45-13.04c9.26,3.62,19.56,22.9,18.74,34.32
					c-0.76,10.45-11.09,36.45-12.83,40.78c-0.12,0.29,0.1,0.6,0.42,0.59l17.67-0.63c6.12-0.22,12.25,0.42,18.15,2.07
					c7.33,2.05,15.2,5.86,15.83,12.83c0.95,10.37-5.29,13.17-8.07,13.9c-0.39,0.1-0.44,0.62-0.09,0.8
					c3.16,1.59,11.37,6.64,10.11,15.67c0,0.02-0.01,0.03-0.01,0.05c-1.46,6.92-7.41,9.41-9.64,10.11c-0.33,0.11-0.41,0.54-0.13,0.75
					c2.16,1.67,8.37,7.13,6.45,13.66c-1.82,6.2-5.47,8.62-6.93,9.36c-0.27,0.14-0.32,0.5-0.09,0.71c1.42,1.26,5.01,5.29,2.13,11.94
					c-0.04,0.08-0.07,0.16-0.11,0.24c-2.56,5.78-8.16,9.61-14.47,9.99c-3.06,0.18-6.58,0.36-9.38,0.41c-0.13,0-0.25,0.06-0.33,0.17
					c-1,1.34-8.6,10.41-35.03,16.83c-0.01,0-0.02,0.01-0.04,0.01c-0.98,0.15-43.08,6.73-58.18,2.93c-0.07-0.02-0.14-0.02-0.21,0
					c-1.9,0.53-29.2,8.21-54.63,16.25c-25.61,8.1-227.13,65.78-238.51,69.04c-0.26,0.07-0.52-0.11-0.55-0.38l-7.26-85.68
					c-0.02-0.22,0.13-0.41,0.34-0.46L182.77,873.63z"/>
				<g>
					<line class="st172" x1="354.5" y1="833" x2="314.76" y2="832.19"/>
					<path class="st207" d="M354.5,833c-3.34,1.23-6.66,1.84-9.99,2.26c-3.32,0.39-6.64,0.54-9.95,0.48
						c-3.31-0.06-6.62-0.34-9.92-0.87c-3.3-0.55-6.6-1.3-9.89-2.67c3.34-1.24,6.67-1.85,9.99-2.27c3.32-0.39,6.64-0.54,9.95-0.47
						c3.31,0.07,6.62,0.35,9.92,0.88C347.92,830.89,351.22,831.63,354.5,833z"/>
				</g>
				<g>
					<line class="st172" x1="355.8" y1="859.45" x2="319.43" y2="859.98"/>
					<path class="st207" d="M355.8,859.45c-3.01,1.34-6.03,2.06-9.06,2.59c-3.02,0.5-6.05,0.76-9.08,0.81
						c-3.03,0.05-6.07-0.12-9.1-0.54c-3.04-0.44-6.08-1.07-9.13-2.34c3.01-1.35,6.03-2.07,9.06-2.6c3.02-0.5,6.05-0.76,9.08-0.8
						c3.03-0.04,6.07,0.13,9.1,0.55C349.71,857.57,352.75,858.2,355.8,859.45z"/>
				</g>
				<g>
					<line class="st172" x1="355.95" y1="883.53" x2="323.51" y2="885.17"/>
					<path class="st207" d="M355.95,883.53c-2.64,1.44-5.31,2.25-7.99,2.87c-2.68,0.6-5.37,0.95-8.08,1.09
						c-2.7,0.14-5.42,0.06-8.15-0.26c-2.73-0.35-5.47-0.89-8.24-2.06c2.64-1.44,5.31-2.26,7.99-2.88c2.68-0.6,5.37-0.95,8.08-1.08
						c2.7-0.13,5.42-0.06,8.15,0.27C350.45,881.83,353.18,882.37,355.95,883.53z"/>
				</g>
			</g>
			<g>
				<path class="st492" d="M419,896.66c0,0,16.77-6.26,35.69-11.66c0.01,0,0.02-0.01,0.03-0.01c10.4-3.98,13.36-11.09,13.53-11.52
					c0.01-0.02,0.01-0.03,0.02-0.04c0.52-0.88,17.31-29.57,19.42-33.64c2.14-4.14,12.02-27.49,12.02-27.49s6.05-14.74-0.76-31.23
					c0-0.01-0.01-0.02-0.01-0.03c-0.15-0.5-3.7-12.92,3.85-10.99c7.71,1.97,17.77,16.29,18.23,25.44
					c0.42,8.38-5.26,30.04-6.22,33.65c-0.06,0.24,0.14,0.47,0.39,0.43l13.97-2.22c4.84-0.77,9.77-0.86,14.62-0.12
					c6.02,0.91,12.65,3.17,13.83,8.65c1.76,8.14-2.92,10.98-5.06,11.83c-0.3,0.12-0.29,0.54,0.01,0.65
					c2.67,0.96,9.68,4.17,9.56,11.47c0,0.01,0,0.03,0,0.04c-0.48,5.64-4.97,8.2-6.67,8.97c-0.26,0.12-0.27,0.47-0.03,0.61
					c1.88,1.11,7.35,4.85,6.46,10.22c-0.85,5.1-3.51,7.38-4.59,8.12c-0.2,0.14-0.21,0.43,0,0.57c1.25,0.86,4.5,3.72,2.85,9.28
					c-0.02,0.07-0.04,0.14-0.06,0.2c-1.47,4.84-5.54,8.43-10.52,9.35c-2.41,0.44-5.19,0.93-7.41,1.24c-0.11,0.01-0.2,0.08-0.25,0.17
					c-0.66,1.16-5.81,9.11-26.19,16.78c-0.01,0-0.02,0.01-0.03,0.01c-0.76,0.22-33.57,9.54-45.94,8c-0.06-0.01-0.11,0-0.17,0.02
					c-1.45,0.61-22.4,9.37-41.81,18.24c-19.56,8.93-174.04,74.4-182.76,78.1c-0.2,0.09-0.43-0.04-0.47-0.25l-14.12-67.36
					c-0.04-0.17,0.06-0.34,0.23-0.4L419,896.66z"/>
				<g>
					<line class="st204" x1="551.48" y1="847.64" x2="519.82" y2="850.87"/>
					<path class="st205" d="M551.48,847.64c-2.55,1.18-5.13,1.92-7.74,2.53c-2.61,0.59-5.23,1.01-7.87,1.28
						c-2.64,0.27-5.29,0.39-7.96,0.34c-2.67-0.07-5.36-0.27-8.09-0.92c2.54-1.19,5.13-1.93,7.74-2.54c2.61-0.59,5.23-1.01,7.87-1.28
						c2.64-0.27,5.29-0.39,7.96-0.33C546.06,846.8,548.75,847,551.48,847.64z"/>
				</g>
				<g>
					<line class="st204" x1="555.09" y1="868.53" x2="526.24" y2="872.5"/>
					<path class="st205" d="M555.09,868.53c-2.28,1.24-4.62,2.04-6.98,2.71c-2.36,0.65-4.74,1.13-7.15,1.46
						c-2.4,0.33-4.83,0.51-7.28,0.52c-2.45-0.01-4.92-0.15-7.45-0.73c2.28-1.24,4.62-2.05,6.97-2.71c2.36-0.65,4.74-1.13,7.15-1.46
						c2.4-0.33,4.83-0.51,7.28-0.52C550.09,867.81,552.56,867.96,555.09,868.53z"/>
				</g>
				<g>
					<line class="st204" x1="557.55" y1="887.65" x2="531.94" y2="892.11"/>
					<path class="st205" d="M557.55,887.65c-1.98,1.27-4.03,2.12-6.11,2.82c-2.08,0.69-4.19,1.21-6.32,1.59
						c-2.13,0.38-4.29,0.6-6.49,0.65c-2.19,0.04-4.41-0.06-6.7-0.6c1.98-1.28,4.03-2.12,6.11-2.83c2.08-0.69,4.19-1.21,6.32-1.58
						c2.14-0.37,4.3-0.59,6.49-0.64C553.05,887.02,555.26,887.12,557.55,887.65z"/>
				</g>
			</g>
		</g>
		<g style="clip-path:url(#SVGID_2_);">
			<g>
				<path class="st484" d="M1477.17,397.68c0,0-15.28,7.99-31.27,17.91c-0.01,0.01-0.02,0.01-0.03,0.02
					c-9.55,4.9-16.75,2.98-17.17,2.86c-0.02,0-0.03-0.01-0.04-0.01c-0.99-0.14-33.09-4.55-37.47-5.37
					c-4.45-0.83-28.19-7.01-28.19-7.01s-14.86-4.03-22.93-17.82c-0.01-0.01-0.01-0.02-0.02-0.02c-0.28-0.38-7.35-9.68-10.67-3.45
					c-3.39,6.36,0.98,21.16,7.56,26.54c6.02,4.93,25.83,13.04,29.15,14.38c0.22,0.09,0.26,0.36,0.08,0.5l-10.49,8.31
					c-3.63,2.88-6.81,6.2-9.32,9.92c-3.12,4.62-5.61,10.39-2.25,14.23c4.99,5.71,10.07,4.08,12.06,3.1c0.28-0.14,0.59,0.1,0.48,0.36
					c-0.97,2.35-2.99,8.92,2.56,12.88c0.01,0.01,0.02,0.01,0.03,0.02c4.53,2.79,9.28,1.14,10.93,0.41c0.25-0.11,0.52,0.07,0.48,0.32
					c-0.35,1.9-1,7.7,3.58,10.07c4.36,2.25,7.75,1.69,8.98,1.36c0.23-0.06,0.45,0.1,0.43,0.31c-0.14,1.33-0.05,5.13,5.15,7.09
					c0.06,0.02,0.13,0.05,0.19,0.07c4.56,1.68,9.82,0.88,13.65-2.01c1.85-1.4,3.97-3.03,5.61-4.38c0.08-0.06,0.18-0.09,0.28-0.08
					c1.29,0.19,10.5,1.07,29.11-8.59c0.01,0,0.02-0.01,0.02-0.01c0.64-0.4,28.35-17.64,35-26.94c0.03-0.04,0.07-0.08,0.12-0.1
					c1.37-0.66,21.16-10.11,40.07-18.46c19.04-8.41,165.64-77.66,173.92-81.57c0.19-0.09,0.24-0.31,0.11-0.46l-41.58-46.94
					c-0.11-0.12-0.29-0.15-0.44-0.07L1477.17,397.68z"/>
				<g>
					<line class="st204" x1="1356.79" y1="461.01" x2="1379.2" y2="441.18"/>
					<path class="st205" d="M1356.79,461.01c1.26-2.34,2.81-4.35,4.45-6.26c1.65-1.9,3.42-3.66,5.29-5.32
						c1.87-1.66,3.83-3.19,5.92-4.6c2.09-1.4,4.28-2.69,6.76-3.65c-1.26,2.34-2.81,4.35-4.45,6.26c-1.65,1.9-3.42,3.66-5.29,5.31
						c-1.87,1.65-3.84,3.19-5.92,4.6C1361.45,458.74,1359.27,460.04,1356.79,461.01z"/>
				</g>
				<g>
					<line class="st204" x1="1370.17" y1="475.04" x2="1391.36" y2="457.53"/>
					<path class="st205" d="M1370.17,475.04c1.18-2.17,2.64-3.99,4.19-5.71c1.56-1.71,3.23-3.28,4.99-4.75
						c1.76-1.46,3.62-2.8,5.6-4.01c1.98-1.2,4.05-2.29,6.4-3.04c-1.18,2.17-2.64,4-4.19,5.72c-1.56,1.71-3.23,3.28-4.99,4.74
						c-1.77,1.46-3.63,2.8-5.6,4.01C1374.59,473.2,1372.52,474.29,1370.17,475.04z"/>
				</g>
				<g>
					<line class="st204" x1="1382.94" y1="487.31" x2="1402.46" y2="472.28"/>
					<path class="st205" d="M1382.94,487.31c1.07-1.98,2.4-3.61,3.82-5.13c1.43-1.51,2.96-2.88,4.59-4.13
						c1.62-1.25,3.34-2.39,5.17-3.38c1.83-0.98,3.75-1.86,5.94-2.38c-1.06,1.98-2.4,3.61-3.82,5.13c-1.43,1.51-2.96,2.88-4.59,4.13
						c-1.63,1.25-3.35,2.38-5.17,3.38C1387.05,485.91,1385.13,486.78,1382.94,487.31z"/>
				</g>
			</g>
			<g>
				<path class="st485" d="M1768.1,425.73c0,0-30.67,10.23-63.39,24.1c-0.02,0.01-0.04,0.01-0.06,0.02
					c-19.13,6.2-31.36-0.43-32.08-0.84c-0.03-0.02-0.05-0.02-0.07-0.03c-1.72-0.65-57.87-21.91-65.46-25.24
					c-7.7-3.39-48.08-24.99-48.08-24.99s-25.22-13.86-34.37-44.76c-0.01-0.02-0.01-0.04-0.02-0.06
					c-0.36-0.87-9.46-22.35-17.88-11.07c-8.59,11.52-6.5,43.05,3.25,56.44c8.92,12.25,41.47,36.24,46.92,40.22
					c0.37,0.27,0.33,0.82-0.06,1.05l-22.16,12.74c-7.67,4.41-14.71,9.89-20.68,16.41c-7.43,8.12-14.17,18.81-9.62,27.85
					c6.76,13.44,16.56,12.11,20.54,10.89c0.55-0.17,1.02,0.43,0.72,0.92c-2.66,4.37-8.87,16.84-0.43,26.96
					c0.01,0.02,0.03,0.04,0.05,0.05c7.08,7.37,16.28,5.88,19.55,5.04c0.49-0.13,0.92,0.35,0.74,0.82
					c-1.38,3.7-4.82,15.15,2.52,21.69c6.98,6.21,13.3,6.39,15.66,6.19c0.44-0.04,0.78,0.37,0.65,0.8
					c-0.78,2.63-2.1,10.33,6.51,16.27c0.11,0.07,0.21,0.14,0.32,0.22c7.56,5.14,17.36,5.56,25.39,1.2
					c3.89-2.11,8.35-4.59,11.83-6.67c0.17-0.1,0.36-0.12,0.54-0.04c2.25,0.88,18.51,6.21,55.85-6.13c0.02-0.01,0.03-0.01,0.05-0.02
					c1.32-0.56,58.01-24.68,73.64-40.88c0.07-0.08,0.16-0.13,0.26-0.16c2.73-0.8,42.11-12.25,79.46-21.82
					c37.62-9.64,329-92.91,345.46-97.62c0.38-0.11,0.56-0.53,0.38-0.88l-56.59-110.68c-0.14-0.28-0.47-0.41-0.77-0.3L1768.1,425.73z
					"/>
				<g>
					<line class="st172" x1="1526.3" y1="507.16" x2="1574.46" y2="475.78"/>
					<path class="st207" d="M1526.3,507.16c3.54-3.35,7.31-6.32,11.14-9.22c3.85-2.87,7.78-5.61,11.79-8.22
						c4.01-2.62,8.1-5.11,12.28-7.47c4.19-2.34,8.45-4.59,12.94-6.47c-3.53,3.35-7.31,6.33-11.14,9.22
						c-3.85,2.87-7.78,5.61-11.8,8.22c-4.01,2.61-8.11,5.11-12.29,7.47C1535.04,503.03,1530.79,505.28,1526.3,507.16z"/>
				</g>
				<g>
					<line class="st172" x1="1544.93" y1="540.62" x2="1589.97" y2="513.45"/>
					<path class="st207" d="M1544.93,540.62c3.29-3.02,6.81-5.68,10.39-8.23c3.59-2.53,7.27-4.92,11.02-7.19
						c3.75-2.27,7.58-4.4,11.49-6.4c3.92-1.98,7.92-3.85,12.13-5.35c-3.29,3.03-6.81,5.69-10.39,8.24
						c-3.59,2.53-7.27,4.92-11.02,7.18c-3.75,2.26-7.58,4.4-11.5,6.39C1553.14,537.24,1549.14,539.11,1544.93,540.62z"/>
				</g>
				<g>
					<line class="st172" x1="1563.15" y1="570.28" x2="1604.22" y2="547.48"/>
					<path class="st207" d="M1563.15,570.28c3.03-2.6,6.26-4.85,9.54-7.01c3.29-2.15,6.64-4.16,10.07-6.06
						c3.42-1.9,6.91-3.69,10.46-5.34c3.57-1.63,7.19-3.18,11-4.38c-3.03,2.6-6.26,4.85-9.53,7.02c-3.29,2.15-6.64,4.16-10.07,6.06
						c-3.42,1.9-6.91,3.68-10.47,5.34C1570.58,567.52,1566.96,569.08,1563.15,570.28z"/>
				</g>
			</g>
			<g>
				<path class="st486" d="M1796.17,717.43c0,0-32.22-2.78-67.75-3.03c-0.02,0-0.04,0-0.06,0c-20.02-1.9-28.61-12.84-29.12-13.5
					c-0.02-0.02-0.03-0.04-0.05-0.06c-1.32-1.28-44.43-43.08-50.07-49.14c-5.73-6.16-34.21-42.02-34.21-42.02
					s-17.65-22.73-13.79-54.72c0-0.02,0-0.04,0-0.06c0.01-0.94,0.19-24.27-12.02-17.26c-12.46,7.16-23.05,36.94-19.41,53.09
					c3.33,14.78,23.68,49.72,27.11,55.54c0.23,0.39-0.02,0.89-0.47,0.94l-25.39,2.9c-8.79,1-17.42,3.24-25.5,6.86
					c-10.04,4.5-20.47,11.64-19.88,21.74c0.87,15.02,10.4,17.69,14.53,18.14c0.57,0.06,0.77,0.8,0.3,1.13
					c-4.18,2.95-14.83,11.94-11.09,24.58c0.01,0.02,0.01,0.04,0.02,0.07c3.57,9.57,12.61,11.86,15.95,12.38
					c0.5,0.08,0.7,0.68,0.35,1.05c-2.73,2.85-10.44,12-6.29,20.91c3.94,8.47,9.68,11.15,11.92,11.9c0.42,0.14,0.57,0.65,0.28,0.99
					c-1.76,2.11-6.03,8.64-0.48,17.52c0.07,0.11,0.14,0.22,0.2,0.32c4.9,7.71,13.73,11.99,22.83,11.17c4.41-0.4,9.49-0.9,13.5-1.43
					c0.19-0.03,0.38,0.04,0.51,0.17c1.72,1.7,14.53,13.04,53.7,16.53c0.02,0,0.03,0,0.05,0c1.43,0.01,63.04,0.36,83.82-8.31
					c0.1-0.04,0.2-0.06,0.3-0.04c2.82,0.35,43.51,5.47,81.59,11.5c38.36,6.08,338.86,45.26,355.83,47.47
					c0.39,0.05,0.72-0.27,0.7-0.66l-8.02-124.05c-0.02-0.31-0.27-0.56-0.59-0.58L1796.17,717.43z"/>
				<g>
					<line class="st175" x1="1541.91" y1="696.23" x2="1598.56" y2="686.53"/>
					<path class="st209" d="M1541.91,696.23c4.57-1.72,9.21-2.98,13.87-4.13c4.67-1.13,9.36-2.08,14.08-2.89
						c4.72-0.81,9.47-1.47,14.24-1.96c4.78-0.46,9.58-0.81,14.46-0.71c-4.56,1.72-9.21,2.99-13.87,4.14
						c-4.67,1.13-9.36,2.08-14.08,2.89c-4.72,0.81-9.47,1.46-14.24,1.95C1551.58,695.97,1546.78,696.33,1541.91,696.23z"/>
				</g>
				<g>
					<line class="st175" x1="1545.74" y1="734.33" x2="1597.85" y2="727.27"/>
					<path class="st209" d="M1545.74,734.33c4.22-1.5,8.5-2.56,12.8-3.48c4.3-0.91,8.62-1.65,12.96-2.24
						c4.34-0.59,8.71-1.03,13.09-1.3c4.39-0.25,8.8-0.37,13.26-0.04c-4.22,1.5-8.5,2.56-12.8,3.49c-4.3,0.91-8.62,1.65-12.97,2.23
						c-4.34,0.59-8.71,1.03-13.09,1.29C1554.61,734.53,1550.2,734.65,1545.74,734.33z"/>
				</g>
				<g>
					<line class="st175" x1="1550.69" y1="768.79" x2="1597.43" y2="764.16"/>
					<path class="st209" d="M1550.69,768.79c3.8-1.3,7.65-2.16,11.51-2.88c3.86-0.71,7.74-1.24,11.64-1.63
						c3.89-0.39,7.8-0.62,11.73-0.69c3.93-0.05,7.87,0.04,11.86,0.57c-3.8,1.3-7.65,2.16-11.51,2.89
						c-3.86,0.71-7.74,1.25-11.64,1.63c-3.9,0.38-7.8,0.62-11.73,0.68C1558.62,769.4,1554.68,769.31,1550.69,768.79z"/>
				</g>
			</g>
			<g>
				<path class="st487" d="M1969.1,482.54c0,0-22.69,2.01-47.38,6.17c-0.01,0-0.03,0-0.04,0.01c-14.12,1.13-21.42-5.41-21.85-5.81
					c-0.02-0.01-0.03-0.02-0.05-0.04c-1.07-0.73-36.09-24.46-40.74-27.99c-4.73-3.58-28.87-24.98-28.87-24.98
					s-15.02-13.61-16.25-36.29c0-0.01,0-0.03,0-0.04c-0.11-0.66-2.83-16.86-10.45-10.51c-7.77,6.49-11.48,28.45-6.99,39.21
					c4.11,9.85,22.5,31.61,25.59,35.23c0.21,0.24,0.09,0.62-0.21,0.71l-17.27,5.11c-5.98,1.77-11.69,4.37-16.85,7.87
					c-6.42,4.35-12.78,10.58-11.14,17.51c2.44,10.32,9.37,11.01,12.3,10.81c0.41-0.03,0.63,0.46,0.34,0.75
					c-2.54,2.56-8.83,10.1-4.69,18.41c0.01,0.01,0.02,0.03,0.02,0.04c3.65,6.21,10.2,6.69,12.58,6.65c0.36-0.01,0.57,0.39,0.37,0.68
					c-1.55,2.31-5.78,9.6-1.81,15.28c3.77,5.4,8.07,6.55,9.72,6.8c0.31,0.05,0.47,0.38,0.32,0.65c-0.96,1.68-3.13,6.73,1.81,12.22
					c0.06,0.07,0.12,0.13,0.18,0.2c4.34,4.75,10.99,6.65,17.2,4.97c3.01-0.81,6.47-1.78,9.19-2.64c0.13-0.04,0.27-0.02,0.38,0.06
					c1.4,0.97,11.67,7.28,39.28,4.91c0.01,0,0.02,0,0.04,0c0.99-0.17,43.78-7.44,57.14-16c0.06-0.04,0.13-0.06,0.21-0.07
					c2-0.1,30.86-1.52,58.02-1.98c27.36-0.46,240.65-9.96,252.69-10.5c0.28-0.01,0.47-0.27,0.4-0.54l-20.71-85.09
					c-0.05-0.22-0.26-0.36-0.48-0.33L1969.1,482.54z"/>
				<g>
					<line class="st211" x1="1790.09" y1="498.87" x2="1828.22" y2="485.23"/>
					<path class="st212" d="M1790.09,498.87c2.97-1.71,6.04-3.15,9.15-4.49c3.1-1.36,6.25-2.58,9.42-3.72
						c3.18-1.14,6.38-2.19,9.64-3.11c3.25-0.93,6.54-1.77,9.92-2.33c-2.97,1.72-6.04,3.15-9.14,4.49c-3.1,1.36-6.25,2.58-9.42,3.72
						c-3.18,1.13-6.39,2.19-9.64,3.1C1796.76,497.47,1793.47,498.31,1790.09,498.87z"/>
				</g>
				<g>
					<line class="st211" x1="1797.4" y1="524.84" x2="1832.7" y2="513.57"/>
					<path class="st212" d="M1797.4,524.84c2.75-1.53,5.59-2.78,8.47-3.94c2.87-1.17,5.78-2.19,8.72-3.14
						c2.94-0.94,5.91-1.79,8.93-2.5c3.01-0.73,6.05-1.35,9.18-1.69c-2.75,1.54-5.59,2.79-8.47,3.94c-2.87,1.17-5.78,2.19-8.72,3.13
						c-2.94,0.93-5.91,1.79-8.93,2.5C1803.57,523.87,1800.53,524.5,1797.4,524.84z"/>
				</g>
				<g>
					<line class="st211" x1="1805.04" y1="548.14" x2="1836.91" y2="539.22"/>
					<path class="st212" d="M1805.04,548.14c2.5-1.28,5.08-2.31,7.68-3.24c2.6-0.95,5.23-1.77,7.89-2.52
						c2.66-0.74,5.33-1.41,8.05-1.94c2.71-0.55,5.44-1.01,8.25-1.21c-2.5,1.28-5.08,2.31-7.68,3.25c-2.6,0.95-5.23,1.77-7.89,2.51
						c-2.66,0.74-5.33,1.4-8.05,1.94C1810.58,547.47,1807.85,547.94,1805.04,548.14z"/>
				</g>
			</g>
			<g>
				<path class="st488" d="M1971.5,687.18c0,0-25.05-2.16-52.68-2.36c-0.02,0-0.03,0-0.05,0c-15.57-1.47-22.25-9.98-22.64-10.5
					c-0.01-0.02-0.03-0.03-0.04-0.05c-1.03-1-34.54-33.49-38.93-38.21c-4.45-4.79-26.6-32.67-26.6-32.67s-13.72-17.67-10.72-42.55
					c0-0.02,0-0.03,0-0.05c0.01-0.73,0.15-18.87-9.34-13.42c-9.69,5.57-17.92,28.72-15.09,41.28c2.59,11.5,18.41,38.66,21.08,43.18
					c0.18,0.3-0.02,0.69-0.36,0.73l-19.74,2.25c-6.84,0.78-13.55,2.52-19.83,5.33c-7.81,3.5-15.92,9.05-15.46,16.91
					c0.68,11.68,8.08,13.76,11.3,14.1c0.45,0.05,0.6,0.62,0.23,0.88c-3.25,2.3-11.53,9.28-8.62,19.11c0.01,0.02,0.01,0.03,0.02,0.05
					c2.78,7.44,9.81,9.22,12.4,9.63c0.39,0.06,0.55,0.53,0.27,0.81c-2.12,2.21-8.11,9.33-4.89,16.26c3.06,6.58,7.52,8.67,9.27,9.25
					c0.33,0.11,0.44,0.51,0.22,0.77c-1.37,1.64-4.69,6.72-0.37,13.62c0.05,0.08,0.11,0.17,0.16,0.25c3.81,6,10.67,9.33,17.75,8.69
					c3.43-0.31,7.38-0.7,10.5-1.11c0.15-0.02,0.29,0.03,0.4,0.13c1.33,1.32,11.29,10.14,41.75,12.85c0.01,0,0.03,0,0.04,0
					c1.11,0.01,49.01,0.28,65.17-6.46c0.08-0.03,0.15-0.04,0.24-0.03c2.2,0.27,33.83,4.25,63.44,8.94
					c29.82,4.73,263.47,35.19,276.67,36.91c0.3,0.04,0.56-0.21,0.54-0.51l-6.24-96.45c-0.02-0.24-0.21-0.44-0.46-0.45L1971.5,687.18
					z"/>
				<g>
					<line class="st214" x1="1773.81" y1="670.69" x2="1817.86" y2="663.16"/>
					<path class="st215" d="M1773.81,670.69c3.56-1.29,7.17-2.27,10.8-3.13c3.63-0.88,7.28-1.61,10.95-2.24
						c3.67-0.63,7.36-1.16,11.07-1.53c3.71-0.39,7.44-0.67,11.23-0.63c-3.56,1.3-7.17,2.27-10.8,3.14
						c-3.63,0.88-7.28,1.61-10.95,2.24c-3.67,0.62-7.36,1.15-11.07,1.53C1781.32,670.45,1777.59,670.73,1773.81,670.69z"/>
				</g>
				<g>
					<line class="st214" x1="1776.78" y1="700.32" x2="1817.31" y2="694.82"/>
					<path class="st215" d="M1776.78,700.32c3.28-1.15,6.61-1.95,9.95-2.67c3.34-0.7,6.71-1.27,10.08-1.73
						c3.38-0.46,6.77-0.8,10.18-1.02c3.41-0.2,6.84-0.31,10.31-0.07c-3.28,1.15-6.61,1.95-9.95,2.67c-3.34,0.7-6.71,1.27-10.08,1.73
						c-3.38,0.46-6.77,0.8-10.18,1.02C1783.68,700.43,1780.25,700.55,1776.78,700.32z"/>
				</g>
				<g>
					<line class="st214" x1="1780.64" y1="727.11" x2="1816.98" y2="723.51"/>
					<path class="st215" d="M1780.64,727.11c2.97-0.91,5.96-1.54,8.97-2.05c3.01-0.54,6.02-0.92,9.05-1.23
						c3.03-0.3,6.07-0.51,9.12-0.57c3.05-0.08,6.11-0.06,9.2,0.26c-2.97,0.92-5.96,1.54-8.97,2.06c-3.01,0.54-6.02,0.92-9.05,1.23
						c-3.03,0.29-6.07,0.51-9.12,0.57C1786.79,727.44,1783.73,727.42,1780.64,727.11z"/>
				</g>
			</g>
			<g>
				<path class="st489" d="M2049.56,836.41c0,0-22.26-2.14-46.84-2.56c-0.01,0-0.03,0-0.04,0c-13.84-1.45-19.7-9.07-20.04-9.54
					c-0.01-0.02-0.02-0.03-0.04-0.04c-0.91-0.9-30.43-30.1-34.29-34.33c-3.92-4.3-23.37-29.3-23.37-29.3s-12.05-15.84-9.16-37.94
					c0-0.01,0-0.03,0-0.04c0.01-0.65,0.3-16.79-8.19-12.02c-8.67,4.87-16.2,25.39-13.79,36.59c2.2,10.25,16.04,34.55,18.37,38.6
					c0.16,0.27-0.02,0.61-0.33,0.64l-17.58,1.83c-6.09,0.63-12.07,2.12-17.68,4.57c-6.98,3.04-14.24,7.91-13.9,14.9
					c0.5,10.4,7.07,12.31,9.93,12.65c0.4,0.05,0.53,0.56,0.2,0.78c-2.91,2.01-10.34,8.16-7.84,16.92c0,0.02,0.01,0.03,0.01,0.05
					c2.4,6.65,8.64,8.29,10.94,8.67c0.35,0.06,0.48,0.48,0.24,0.73c-1.91,1.95-7.3,8.23-4.49,14.42c2.67,5.88,6.62,7.78,8.16,8.31
					c0.29,0.1,0.39,0.45,0.19,0.69c-1.23,1.45-4.23,5.94-0.45,12.12c0.05,0.08,0.09,0.15,0.14,0.23c3.33,5.37,9.41,8.39,15.71,7.89
					c3.05-0.24,6.57-0.56,9.35-0.9c0.13-0.02,0.26,0.03,0.35,0.12c1.18,1.19,9.96,9.12,37.03,11.8c0.01,0,0.02,0,0.04,0
					c0.99,0.02,43.6,0.69,58.03-5.17c0.07-0.03,0.14-0.04,0.21-0.03c1.95,0.26,30.06,4.08,56.35,8.52
					c26.49,4.47,234.06,33.63,245.78,35.28c0.27,0.04,0.5-0.18,0.49-0.45l-4.7-85.85c-0.01-0.22-0.18-0.39-0.4-0.41L2049.56,836.41z
					"/>
				<g>
					<line class="st126" x1="1873.85" y1="820" x2="1913.1" y2="813.68"/>
					<path class="st187" d="M1873.85,820c3.06-1.81,6.23-3,9.42-4.01c3.2-0.98,6.43-1.72,9.71-2.25c3.27-0.53,6.58-0.84,9.92-0.92
						c3.35-0.05,6.73,0.09,10.21,0.86c-3.06,1.82-6.23,3.01-9.42,4.02c-3.2,0.98-6.43,1.72-9.71,2.24
						c-3.27,0.52-6.58,0.84-9.92,0.91C1880.7,820.9,1877.33,820.76,1873.85,820z"/>
				</g>
				<g>
					<line class="st126" x1="1876.23" y1="846.38" x2="1912.33" y2="841.85"/>
					<path class="st187" d="M1876.23,846.38c2.85-1.67,5.77-2.72,8.72-3.57c2.95-0.83,5.93-1.42,8.94-1.81
						c3.01-0.38,6.04-0.55,9.11-0.47c3.07,0.1,6.16,0.4,9.33,1.32c-2.84,1.68-5.77,2.73-8.72,3.58c-2.95,0.83-5.93,1.42-8.94,1.8
						c-3.01,0.37-6.04,0.54-9.11,0.46C1882.5,847.58,1879.4,847.29,1876.23,846.38z"/>
				</g>
				<g>
					<line class="st126" x1="1879.42" y1="870.24" x2="1911.78" y2="867.36"/>
					<path class="st187" d="M1879.42,870.24c2.58-1.54,5.22-2.45,7.87-3.17c2.66-0.7,5.33-1.15,8.03-1.4
						c2.7-0.25,5.41-0.27,8.15-0.05c2.74,0.24,5.5,0.68,8.31,1.74c-2.58,1.54-5.22,2.46-7.87,3.18c-2.66,0.7-5.33,1.15-8.03,1.39
						c-2.7,0.24-5.41,0.26-8.15,0.04C1884.99,871.73,1882.24,871.3,1879.42,870.24z"/>
				</g>
			</g>
			<g>
				<path class="st490" d="M2082.48,585.34c0,0-18.32,1.62-38.24,4.98c-0.01,0-0.02,0-0.03,0c-11.4,0.91-17.29-4.37-17.64-4.69
					c-0.01-0.01-0.02-0.02-0.04-0.03c-0.87-0.59-29.13-19.75-32.89-22.59c-3.81-2.89-23.3-20.16-23.3-20.16
					s-12.13-10.99-13.11-29.29c0-0.01,0-0.02,0-0.03c-0.09-0.53-2.29-13.61-8.43-8.48c-6.27,5.24-9.27,22.96-5.64,31.65
					c3.32,7.95,18.17,25.52,20.66,28.44c0.17,0.2,0.08,0.5-0.17,0.57l-13.94,4.13c-4.83,1.43-9.44,3.53-13.61,6.35
					c-5.18,3.51-10.32,8.54-8.99,14.14c1.97,8.33,7.57,8.89,9.93,8.73c0.33-0.02,0.51,0.37,0.28,0.6
					c-2.05,2.07-7.13,8.15-3.79,14.86c0.01,0.01,0.01,0.02,0.02,0.03c2.94,5.01,8.23,5.4,10.15,5.36c0.29-0.01,0.46,0.31,0.3,0.55
					c-1.25,1.86-4.66,7.75-1.46,12.33c3.04,4.36,6.52,5.29,7.85,5.49c0.25,0.04,0.38,0.31,0.26,0.53c-0.78,1.35-2.52,5.44,1.46,9.86
					c0.05,0.05,0.1,0.11,0.15,0.16c3.5,3.84,8.87,5.36,13.89,4.01c2.43-0.66,5.23-1.44,7.42-2.13c0.1-0.03,0.21-0.02,0.3,0.05
					c1.13,0.78,9.42,5.87,31.71,3.97c0.01,0,0.02,0,0.03,0c0.8-0.14,35.34-6.01,46.13-12.91c0.05-0.03,0.1-0.05,0.17-0.05
					c1.62-0.08,24.91-1.23,46.83-1.6c22.08-0.37,194.25-8.04,203.98-8.48c0.22-0.01,0.38-0.22,0.33-0.44l-16.72-68.69
					c-0.04-0.17-0.21-0.29-0.39-0.27L2082.48,585.34z"/>
				<g>
					<line class="st218" x1="1937.99" y1="598.52" x2="1968.76" y2="587.5"/>
					<path class="st187" d="M1937.99,598.52c2.13-2.14,4.46-3.7,6.86-5.07c2.41-1.35,4.9-2.47,7.47-3.39
						c2.56-0.92,5.2-1.64,7.92-2.12c2.73-0.46,5.52-0.74,8.53-0.43c-2.12,2.15-4.46,3.71-6.86,5.08c-2.41,1.35-4.9,2.47-7.47,3.38
						c-2.57,0.91-5.2,1.63-7.92,2.11C1943.78,598.54,1940.99,598.82,1937.99,598.52z"/>
				</g>
				<g>
					<line class="st218" x1="1943.89" y1="619.48" x2="1972.38" y2="610.39"/>
					<path class="st187" d="M1943.89,619.48c1.98-2,4.15-3.4,6.38-4.62c2.23-1.2,4.54-2.16,6.92-2.92c2.37-0.76,4.81-1.32,7.33-1.63
						c2.52-0.3,5.1-0.41,7.87,0.08c-1.98,2-4.15,3.41-6.37,4.63c-2.23,1.2-4.54,2.16-6.92,2.91c-2.38,0.75-4.82,1.31-7.33,1.63
						C1949.23,619.85,1946.66,619.96,1943.89,619.48z"/>
				</g>
				<g>
					<line class="st218" x1="1950.06" y1="638.29" x2="1975.78" y2="631.09"/>
					<path class="st187" d="M1950.06,638.29c1.79-1.85,3.75-3.1,5.77-4.17c2.02-1.04,4.1-1.85,6.25-2.45c2.14-0.6,4.34-1,6.61-1.15
						c2.27-0.13,4.6-0.08,7.1,0.58c-1.79,1.86-3.75,3.11-5.76,4.18c-2.02,1.04-4.1,1.85-6.25,2.45c-2.14,0.6-4.35,0.99-6.61,1.15
						C1954.88,638.99,1952.55,638.94,1950.06,638.29z"/>
				</g>
			</g>
			<g>
				<path class="st491" d="M1787.53,877.78c0,0-21.75-5.21-46.03-9.03c-0.01,0-0.03,0-0.04-0.01c-13.5-3.35-18.25-11.72-18.53-12.23
					c-0.01-0.02-0.02-0.03-0.03-0.05c-0.77-1.01-25.96-34.03-29.19-38.76c-3.28-4.8-19.08-32.26-19.08-32.26s-9.74-17.36-3.8-38.85
					c0-0.01,0.01-0.03,0.01-0.04c0.11-0.64,2.62-16.58-6.45-13.04c-9.26,3.62-19.56,22.9-18.74,34.32
					c0.76,10.45,11.09,36.45,12.83,40.78c0.12,0.29-0.1,0.6-0.42,0.59l-17.67-0.63c-6.12-0.22-12.25,0.42-18.15,2.07
					c-7.33,2.05-15.2,5.86-15.83,12.83c-0.95,10.37,5.29,13.17,8.07,13.9c0.39,0.1,0.44,0.62,0.09,0.8
					c-3.16,1.59-11.37,6.64-10.11,15.67c0,0.02,0.01,0.03,0.01,0.05c1.46,6.92,7.41,9.41,9.64,10.11c0.33,0.11,0.41,0.54,0.13,0.75
					c-2.16,1.67-8.37,7.13-6.45,13.66c1.82,6.2,5.47,8.62,6.93,9.36c0.27,0.14,0.32,0.5,0.09,0.71c-1.42,1.26-5.01,5.29-2.13,11.94
					c0.04,0.08,0.07,0.16,0.11,0.24c2.56,5.78,8.16,9.61,14.47,9.99c3.06,0.18,6.58,0.36,9.38,0.41c0.13,0,0.25,0.06,0.33,0.17
					c1,1.34,8.6,10.41,35.03,16.83c0.01,0,0.02,0.01,0.04,0.01c0.98,0.15,43.08,6.73,58.18,2.93c0.07-0.02,0.14-0.02,0.21,0
					c1.9,0.53,29.2,8.21,54.63,16.25c25.61,8.1,227.13,65.78,238.51,69.04c0.26,0.07,0.52-0.11,0.55-0.38l7.26-85.68
					c0.02-0.22-0.13-0.41-0.34-0.46L1787.53,877.78z"/>
				<g>
					<line class="st172" x1="1615.8" y1="837.15" x2="1655.55" y2="836.34"/>
					<path class="st207" d="M1615.8,837.15c3.29-1.37,6.58-2.11,9.89-2.66c3.3-0.53,6.61-0.81,9.92-0.88
						c3.31-0.07,6.63,0.08,9.95,0.47c3.32,0.42,6.65,1.03,9.99,2.27c-3.29,1.38-6.58,2.12-9.89,2.67c-3.3,0.53-6.61,0.81-9.92,0.87
						c-3.31,0.06-6.63-0.08-9.95-0.48C1622.46,838.99,1619.14,838.38,1615.8,837.15z"/>
				</g>
				<g>
					<line class="st172" x1="1614.5" y1="863.6" x2="1650.87" y2="864.13"/>
					<path class="st207" d="M1614.5,863.6c3.05-1.26,6.09-1.89,9.13-2.33c3.04-0.42,6.07-0.59,9.1-0.55c3.03,0.04,6.06,0.3,9.08,0.8
						c3.02,0.53,6.05,1.25,9.06,2.6c-3.05,1.27-6.09,1.9-9.13,2.34c-3.04,0.42-6.07,0.59-9.1,0.54c-3.03-0.05-6.06-0.31-9.08-0.81
						C1620.54,865.67,1617.51,864.95,1614.5,863.6z"/>
				</g>
				<g>
					<line class="st172" x1="1614.35" y1="887.68" x2="1646.79" y2="889.32"/>
					<path class="st207" d="M1614.35,887.68c2.77-1.16,5.51-1.7,8.24-2.05c2.73-0.32,5.44-0.4,8.15-0.27
						c2.7,0.13,5.4,0.48,8.08,1.08c2.68,0.62,5.35,1.43,7.99,2.88c-2.77,1.17-5.51,1.71-8.24,2.06c-2.73,0.32-5.44,0.4-8.15,0.26
						c-2.7-0.14-5.4-0.49-8.08-1.09C1619.66,889.93,1616.99,889.12,1614.35,887.68z"/>
				</g>
			</g>
			<g>
				<path class="st492" d="M1551.3,900.81c0,0-16.77-6.26-35.69-11.66c-0.01,0-0.02-0.01-0.03-0.01
					c-10.4-3.98-13.36-11.09-13.53-11.52c-0.01-0.02-0.01-0.03-0.02-0.04c-0.52-0.88-17.31-29.57-19.42-33.64
					c-2.14-4.14-12.02-27.49-12.02-27.49s-6.05-14.74,0.76-31.23c0-0.01,0.01-0.02,0.01-0.03c0.15-0.5,3.7-12.92-3.85-10.99
					c-7.71,1.97-17.77,16.29-18.23,25.44c-0.42,8.38,5.26,30.04,6.22,33.65c0.06,0.24-0.14,0.47-0.39,0.43l-13.97-2.22
					c-4.84-0.77-9.77-0.86-14.62-0.12c-6.02,0.91-12.65,3.17-13.83,8.65c-1.76,8.14,2.92,10.98,5.06,11.83
					c0.3,0.12,0.29,0.54-0.01,0.65c-2.67,0.96-9.68,4.17-9.56,11.47c0,0.01,0,0.03,0,0.04c0.48,5.64,4.97,8.2,6.67,8.97
					c0.26,0.12,0.27,0.47,0.03,0.61c-1.88,1.11-7.35,4.85-6.46,10.22c0.85,5.1,3.51,7.38,4.59,8.12c0.2,0.14,0.21,0.43,0,0.57
					c-1.25,0.86-4.5,3.72-2.85,9.28c0.02,0.07,0.04,0.14,0.06,0.2c1.47,4.84,5.54,8.43,10.52,9.35c2.41,0.44,5.19,0.93,7.41,1.24
					c0.11,0.01,0.2,0.08,0.25,0.17c0.66,1.16,5.81,9.11,26.19,16.78c0.01,0,0.02,0.01,0.03,0.01c0.76,0.22,33.57,9.54,45.94,8
					c0.06-0.01,0.11,0,0.17,0.02c1.45,0.61,22.4,9.37,41.81,18.24c19.56,8.93,174.04,74.4,182.76,78.1c0.2,0.09,0.43-0.04,0.47-0.25
					l14.12-67.36c0.04-0.17-0.06-0.34-0.23-0.4L1551.3,900.81z"/>
				<g>
					<line class="st204" x1="1418.83" y1="851.79" x2="1450.48" y2="855.02"/>
					<path class="st205" d="M1418.83,851.79c2.73-0.64,5.42-0.85,8.09-0.92c2.67-0.05,5.32,0.07,7.96,0.33
						c2.64,0.27,5.26,0.69,7.87,1.28c2.6,0.61,5.19,1.35,7.74,2.54c-2.73,0.65-5.42,0.85-8.09,0.92c-2.67,0.05-5.32-0.07-7.96-0.34
						c-2.64-0.27-5.26-0.69-7.87-1.28C1423.96,853.72,1421.37,852.97,1418.83,851.79z"/>
				</g>
				<g>
					<line class="st204" x1="1415.22" y1="872.68" x2="1444.06" y2="876.65"/>
					<path class="st205" d="M1415.22,872.68c2.53-0.58,5-0.72,7.45-0.73c2.45,0.01,4.87,0.19,7.28,0.52
						c2.4,0.33,4.79,0.81,7.15,1.46c2.36,0.67,4.7,1.47,6.97,2.71c-2.53,0.58-5,0.73-7.45,0.73c-2.45-0.01-4.87-0.19-7.28-0.52
						c-2.4-0.33-4.79-0.81-7.15-1.46C1419.83,874.72,1417.5,873.92,1415.22,872.68z"/>
				</g>
				<g>
					<line class="st204" x1="1412.75" y1="891.8" x2="1438.37" y2="896.26"/>
					<path class="st205" d="M1412.75,891.8c2.29-0.53,4.51-0.63,6.7-0.59c2.19,0.05,4.35,0.28,6.49,0.64
						c2.14,0.37,4.24,0.89,6.32,1.58c2.08,0.71,4.13,1.55,6.11,2.83c-2.29,0.54-4.51,0.64-6.7,0.6c-2.19-0.05-4.35-0.27-6.49-0.65
						c-2.13-0.37-4.24-0.9-6.32-1.59C1416.78,893.91,1414.73,893.07,1412.75,891.8z"/>
				</g>
			</g>
		</g>
	</g>
</g>
</svg>
