<?xml version="1.0" encoding="utf-8"?>
<!-- Generator: Adobe Illustrator 23.1.0, SVG Export Plug-In . SVG Version: 6.00 Build 0)  -->
<svg version="1.1" xmlns="http://www.w3.org/2000/svg" xmlns:xlink="http://www.w3.org/1999/xlink" x="0px" y="0px"
	 viewBox="0 0 1356 1492" style="enable-background:new 0 0 1356 1492;" xml:space="preserve">
<style type="text/css">
	.st0{fill:#33DEA7;}
	.st1{fill:#4890F1;}
	.st2{fill:#0B59C7;}
	.st3{fill:#1A328C;}
	.st4{display:none;}
	.st5{display:inline;fill:none;stroke:#000000;stroke-miterlimit:10;}
	.st6{fill:#CFE2FF;}
	.st7{fill:none;stroke:#34E2AA;stroke-width:0.4683;stroke-miterlimit:10;}
	.st8{fill:#33DEA7;fill-opacity:0.12;stroke:#34E2AA;stroke-width:0.4683;stroke-miterlimit:10;}
	.st9{fill:#FFFFFF;}
	.st10{fill:none;stroke:#0B5BCB;stroke-width:1.1157;stroke-miterlimit:10;}
	.st11{fill:#FFB87D;stroke:#0655C3;stroke-width:1.4733;stroke-linecap:round;stroke-linejoin:round;stroke-miterlimit:10;}
	.st12{fill:#FFE3CC;}
	.st13{fill:none;stroke:#0B5BCB;stroke-width:1.4733;stroke-linecap:round;stroke-linejoin:round;stroke-miterlimit:10;}
	.st14{fill:#34E2AA;stroke:#1B3390;stroke-width:1.4733;stroke-miterlimit:10;}
	.st15{fill:#BAFFE9;}
	.st16{fill:#ABFFE4;}
	.st17{fill:#5790DF;stroke:#0655C3;stroke-width:1.4733;stroke-linecap:round;stroke-linejoin:round;stroke-miterlimit:10;}
	.st18{fill:#80B9F6;}
	.st19{fill:#629FE4;}
	.st20{fill:none;stroke:#0B5BCB;stroke-width:0.9184;stroke-miterlimit:10;}
	.st21{fill:none;stroke:#0B5BCB;stroke-width:1.13;stroke-miterlimit:10;}
	.st22{fill:#1B3390;}
	.st23{fill:#8CA4FB;stroke:#0B5BCB;stroke-width:1.4923;stroke-linejoin:round;stroke-miterlimit:10;}
	.st24{fill:#69FFC7;stroke:#0B5BCB;stroke-width:1.4923;stroke-linejoin:round;stroke-miterlimit:10;}
	.st25{fill:#FFB87D;stroke:#0B5BCB;stroke-width:1.4923;stroke-linejoin:round;stroke-miterlimit:10;}
	.st26{fill:none;stroke:#1C3CB7;stroke-width:0.9948;stroke-miterlimit:10;}
	.st27{fill:#ADBEFF;}
	.st28{fill:#FFEAD9;}
	.st29{fill:#D6FFF4;}
	.st30{fill:#CCD6FF;}
	.st31{opacity:0.5;fill:#4992F5;}
	.st32{fill:#4992F5;}
	.st33{fill:#0B5BCB;}
	.st34{fill:none;stroke:#4992F5;stroke-width:0.3642;stroke-miterlimit:10;}
	.st35{fill:none;stroke:#4992F5;stroke-width:0.2919;stroke-miterlimit:10;}
	.st36{fill:none;stroke:#4992F5;stroke-width:3.4843;stroke-miterlimit:10;}
	.st37{fill:#FF8B2B;}
	.st38{fill:none;stroke:#34E2AA;stroke-width:0.2693;stroke-miterlimit:10;}
	.st39{fill:#34E2AA;stroke:#1B3390;stroke-width:0.6401;stroke-miterlimit:10;}
	.st40{opacity:0.55;fill:none;stroke:#FF8B2B;stroke-width:2.508;stroke-miterlimit:10;}
	.st41{fill:#ADD2FF;}
	.st42{fill:#2EC897;}
	.st43{fill:none;stroke:#0B5BCB;stroke-width:1.0846;stroke-miterlimit:10;}
	.st44{fill:#FFB87D;}
	.st45{fill:none;stroke:#284DD8;stroke-width:1.2785;stroke-miterlimit:10;}
	.st46{fill:none;stroke:#0B5BCB;stroke-width:0.9548;stroke-miterlimit:10;}
	.st47{fill:#FFEBC9;}
	.st48{fill:none;stroke:#0B5BCB;stroke-width:1.1335;stroke-miterlimit:10;}
	.st49{fill:#6078D5;}
	.st50{fill:#8CA4FB;stroke:#1B3390;stroke-width:0.9419;stroke-miterlimit:10;}
	.st51{fill:none;stroke:#1B3390;stroke-width:0.9979;stroke-miterlimit:10;}
	.st52{fill:none;stroke:#34E2AA;stroke-width:0.9419;stroke-linecap:round;stroke-miterlimit:10;}
	.st53{fill:none;stroke:#34E2AA;stroke-width:0.9419;stroke-linecap:round;stroke-linejoin:round;stroke-miterlimit:10;}
	.st54{clip-path:url(#SVGID_4_);}
	.st55{fill:none;stroke:#F98600;stroke-width:7.8494;stroke-linecap:round;stroke-linejoin:round;stroke-miterlimit:10;}
	.st56{fill:none;stroke:#1B3390;stroke-width:1.8838;stroke-linecap:round;stroke-linejoin:round;stroke-miterlimit:10;}
	.st57{fill:#0B5BCB;stroke:#1B3390;stroke-width:0.8874;stroke-miterlimit:10;}
	.st58{fill:none;stroke:#1B3390;stroke-width:0.8874;stroke-linecap:round;stroke-miterlimit:10;}
	.st59{fill:none;stroke:#1B3390;stroke-width:0.8874;stroke-linecap:round;stroke-linejoin:round;stroke-miterlimit:10;}
	.st60{clip-path:url(#SVGID_6_);fill:none;stroke:#5FECBF;stroke-width:14.7905;stroke-linecap:round;stroke-miterlimit:10;}
	.st61{fill:none;stroke:#1B3390;stroke-width:0.8874;stroke-miterlimit:10;}
	.st62{fill:#34E2AA;stroke:#1B3390;stroke-width:0.5806;stroke-miterlimit:10;}
	.st63{fill:#94FFCC;stroke:#1B3390;stroke-width:0.5806;stroke-linecap:round;stroke-miterlimit:10;}
	.st64{fill:#94FFCC;stroke:#1B3390;stroke-width:0.5806;stroke-linecap:round;stroke-linejoin:round;stroke-miterlimit:10;}
	.st65{fill:#FFB87D;stroke:#1B3390;stroke-width:0.5806;stroke-miterlimit:10;}
	.st66{fill:#4992F5;stroke:#1B3390;stroke-width:0.5806;stroke-linecap:round;stroke-miterlimit:10;}
	.st67{fill:#4992F5;stroke:#1B3390;stroke-width:0.5806;stroke-linecap:round;stroke-linejoin:round;stroke-miterlimit:10;}
	.st68{fill:#FFB87D;stroke:#1B3390;stroke-width:0.5806;stroke-linecap:round;stroke-miterlimit:10;}
	.st69{fill:#FFB87D;stroke:#1B3390;stroke-width:0.5806;stroke-linecap:round;stroke-linejoin:round;stroke-miterlimit:10;}
	.st70{opacity:0.8;fill:#DBE2FF;}
	.st71{opacity:0.8;fill:#B3C2FF;}
	.st72{opacity:0.8;fill:#FFF3E8;}
	.st73{opacity:0.8;fill:#D6FFF9;}
	.st74{fill:#0C65DF;stroke:#1B3390;stroke-width:0.3812;stroke-linecap:round;stroke-linejoin:round;stroke-miterlimit:10;}
	.st75{fill:#0C65DF;stroke:#1B3390;stroke-width:0.3812;stroke-miterlimit:10;}
	.st76{fill:#0C65DF;stroke:#1B3390;stroke-width:0.3812;stroke-linecap:round;stroke-miterlimit:10;}
	.st77{opacity:0.8;fill:#A1C9FF;}
	.st78{fill:none;stroke:#0B5BCB;stroke-width:0.9331;stroke-miterlimit:10;}
	.st79{fill:none;stroke:#0B5BCB;stroke-width:1.1025;stroke-miterlimit:10;}
	.st80{fill:#4992F5;stroke:#1B3390;stroke-width:1.2013;stroke-miterlimit:10;}
	.st81{fill:none;stroke:#1B3390;stroke-width:1.0189;stroke-linecap:round;stroke-miterlimit:10;}
	.st82{fill:#6CF4BC;stroke:#1B3390;stroke-width:0.8217;stroke-miterlimit:10;}
	.st83{fill:none;stroke:#1B3390;stroke-width:0.697;stroke-linecap:round;stroke-miterlimit:10;}
	.st84{fill:#FFB87D;stroke:#1B3390;stroke-width:1.0521;stroke-miterlimit:10;}
	.st85{fill:none;stroke:#1B3390;stroke-width:0.8923;stroke-linecap:round;stroke-miterlimit:10;}
	.st86{fill:#0B5FD5;stroke:#1B3390;stroke-width:0.8152;stroke-miterlimit:10;}
	.st87{fill:none;stroke:#1B3390;stroke-width:0.6914;stroke-linecap:round;stroke-miterlimit:10;}
	.st88{fill:#A6FFE1;stroke:#1B3390;stroke-width:0.9992;stroke-miterlimit:10;}
	.st89{fill:none;stroke:#1B3390;stroke-width:0.8475;stroke-linecap:round;stroke-miterlimit:10;}
	.st90{fill:#FF8B2B;stroke:#1B3390;stroke-width:1.2013;stroke-miterlimit:10;}
	.st91{fill:#34E2AA;stroke:#1B3390;stroke-width:1.0521;stroke-miterlimit:10;}
	.st92{fill:none;stroke:#1B3390;stroke-width:0.7025;stroke-linecap:round;stroke-miterlimit:10;}
	.st93{fill:#FFB87D;stroke:#1B3390;stroke-width:0.8166;stroke-miterlimit:10;}
	.st94{fill:none;stroke:#1B3390;stroke-width:0.6926;stroke-linecap:round;stroke-miterlimit:10;}
	.st95{fill:#ABD0FF;}
	.st96{fill:none;stroke:#0B5BCB;stroke-width:1.6018;stroke-linecap:round;stroke-miterlimit:10;}
	.st97{fill:#E3EFFF;}
	.st98{clip-path:url(#SVGID_8_);fill:none;stroke:#FF8B2B;stroke-width:4.8053;stroke-linecap:round;stroke-miterlimit:10;}
	.st99{fill:none;stroke:#0B5BCB;stroke-width:0.9707;stroke-miterlimit:10;}
	.st100{fill:none;stroke:#0B5BCB;stroke-width:1.1455;stroke-miterlimit:10;}
	.st101{fill:#FFB87D;stroke:#1C3CB7;stroke-width:1.5128;stroke-linecap:round;stroke-linejoin:round;stroke-miterlimit:10;}
	.st102{fill:#FFEED1;stroke:#1C3CB7;stroke-width:1.5128;stroke-linejoin:round;stroke-miterlimit:10;}
	.st103{fill:#FF8B2B;stroke:#1C3CB7;stroke-width:1.5128;stroke-miterlimit:10;}
	.st104{fill:#FFE2C9;stroke:#1C3CB7;stroke-width:1.5128;stroke-linejoin:round;stroke-miterlimit:10;}
	.st105{fill:#1B3390;stroke:#1C3CB7;stroke-width:0.5043;stroke-miterlimit:10;}
	.st106{fill:#0B5BCB;stroke:#1C3CB7;stroke-width:0.5043;stroke-miterlimit:10;}
	.st107{fill:#4992F5;stroke:#1C3CB7;stroke-width:1.5128;stroke-miterlimit:10;}
	.st108{fill:#4992F5;stroke:#1C3CB7;stroke-width:1.5128;stroke-linecap:round;stroke-miterlimit:10;}
	.st109{fill:#8CA4FB;stroke:#1C3CB7;stroke-width:1.5128;stroke-linecap:round;stroke-linejoin:round;stroke-miterlimit:10;}
	.st110{fill:#D1FFEF;stroke:#1C3CB7;stroke-width:1.5128;stroke-linejoin:round;stroke-miterlimit:10;}
	.st111{fill:#0B5BCB;stroke:#1C3CB7;stroke-width:1.5128;stroke-miterlimit:10;}
	.st112{fill:#B2C2FB;stroke:#1C3CB7;stroke-width:1.5128;stroke-linejoin:round;stroke-miterlimit:10;}
	.st113{fill:#34E2AA;stroke:#1C3CB7;stroke-width:0.5043;stroke-miterlimit:10;}
	.st114{fill:#66FFC8;stroke:#1C3CB7;stroke-width:0.5043;stroke-miterlimit:10;}
	.st115{fill:#73FFCD;stroke:#1C3CB7;stroke-width:0.5043;stroke-miterlimit:10;}
	.st116{fill:#00D38E;stroke:#1C3CB7;stroke-width:0.5043;stroke-miterlimit:10;}
	.st117{fill:#34E2AA;stroke:#1C3CB7;stroke-width:1.5128;stroke-miterlimit:10;}
	.st118{fill:#FF8B2B;stroke:#1C3CB7;stroke-width:0.5043;stroke-miterlimit:10;}
	.st119{fill:#FFB87D;stroke:#1C3CB7;stroke-width:0.5043;stroke-miterlimit:10;}
	.st120{fill:#FFB87D;stroke:#1C3CB7;stroke-width:1.5128;stroke-miterlimit:10;}
	.st121{fill:none;stroke:#1C3CB7;stroke-width:1.0085;stroke-miterlimit:10;}
	.st122{fill:none;stroke:#0B5BCB;stroke-width:1.1084;stroke-miterlimit:10;}
	.st123{fill:#75FFCE;stroke:#1B3390;stroke-width:1.4638;stroke-miterlimit:10;}
	.st124{fill:none;stroke:#1B3390;stroke-width:1.4638;stroke-miterlimit:10;}
	.st125{fill:#00C39F;stroke:#1B3390;stroke-width:1.4638;stroke-miterlimit:10;}
	.st126{fill:#A8FFE6;}
	.st127{opacity:0.8;fill:#A8FFE6;}
	.st128{fill:#8CA4FB;stroke:#1B3390;stroke-width:1.4638;stroke-miterlimit:10;}
	.st129{fill:#0B5BCB;stroke:#1B3390;stroke-width:1.4638;stroke-miterlimit:10;}
	.st130{fill:#D8E0FB;}
	.st131{opacity:0.8;fill:#D8E0FB;}
	.st132{fill:none;stroke:#0B5BCB;stroke-width:0.8976;stroke-miterlimit:10;}
	.st133{fill:none;stroke:#0B5BCB;stroke-width:1.1477;stroke-miterlimit:10;}
	.st134{fill:#0B5BCB;stroke:#0B5BCB;stroke-width:2.0209;stroke-miterlimit:10;}
	.st135{fill:#34E2AA;stroke:#0B5BCB;stroke-width:1.5157;stroke-linejoin:round;stroke-miterlimit:10;}
	.st136{fill:none;stroke:#0B5BCB;stroke-width:1.5157;stroke-linecap:round;stroke-miterlimit:10;}
	.st137{fill:#4992F5;stroke:#0B5BCB;stroke-width:2.0209;stroke-miterlimit:10;}
	.st138{fill:#C7FFED;stroke:#34E2AA;stroke-width:1.5157;stroke-miterlimit:10;}
	.st139{fill:#FFD1AB;stroke:#0B5BCB;stroke-width:1.5157;stroke-miterlimit:10;}
	.st140{fill:#34E2AA;stroke:#34E2AA;stroke-width:1.5157;stroke-linejoin:round;stroke-miterlimit:10;}
	.st141{fill:none;stroke:#0B5BCB;stroke-width:0.9448;stroke-miterlimit:10;}
	.st142{clip-path:url(#SVGID_10_);}
	.st143{clip-path:url(#SVGID_12_);fill:none;stroke:#5FECBF;stroke-width:14.7905;stroke-linecap:round;stroke-miterlimit:10;}
	.st144{clip-path:url(#SVGID_14_);fill:none;stroke:#FF8B2B;stroke-width:4.8053;stroke-linecap:round;stroke-miterlimit:10;}
	.st145{fill:none;stroke:#4992F5;stroke-width:0.4107;stroke-miterlimit:10;}
	.st146{fill:none;stroke:#4992F5;stroke-width:0.3292;stroke-miterlimit:10;}
	.st147{fill:#8CA4FB;}
	.st148{opacity:0.25;fill:#FF8B2B;}
	.st149{fill:none;stroke:#FF8B2B;stroke-width:0.6671;stroke-miterlimit:10;}
	.st150{fill:none;stroke:#FF8B2B;stroke-width:0.6249;stroke-miterlimit:10;}
	.st151{fill:#FF9843;}
	.st152{opacity:0.3;fill:#34E2AA;}
	.st153{fill:none;stroke:#4992F5;stroke-width:0.3818;stroke-miterlimit:10;}
	.st154{fill:none;stroke:#4992F5;stroke-width:0.306;stroke-miterlimit:10;}
	.st155{clip-path:url(#SVGID_20_);}
	.st156{clip-path:url(#SVGID_22_);fill:none;stroke:#5FECBF;stroke-width:14.7905;stroke-linecap:round;stroke-miterlimit:10;}
	.st157{clip-path:url(#SVGID_24_);fill:none;stroke:#FF8B2B;stroke-width:4.8053;stroke-linecap:round;stroke-miterlimit:10;}
	.st158{opacity:0.29;}
	.st159{fill:#367FE1;}
	.st160{fill:#1D4BB8;}
	.st161{fill:none;stroke:#FF8B2B;stroke-width:1.8974;stroke-miterlimit:10;}
	.st162{opacity:0.43;fill:#34E2AA;}
	.st163{opacity:0.43;fill:none;stroke:#4890F1;stroke-width:0.9989;stroke-miterlimit:10;}
	.st164{opacity:0.43;fill:none;stroke:#4890F1;stroke-miterlimit:10;}
	.st165{opacity:0.44;fill:#FF8B2B;}
	.st166{fill:none;stroke:#0B59C7;stroke-width:3.0417;stroke-miterlimit:10;}
	.st167{fill:none;stroke:#FF8B2B;stroke-width:0.8561;stroke-miterlimit:10;}
	.st168{fill:none;stroke:#4890F1;stroke-width:0.8545;stroke-miterlimit:10;}
	.st169{fill:none;stroke:#4890F1;stroke-width:1.2463;stroke-miterlimit:10;}
	.st170{fill:#FFEFE0;stroke:#4890F1;stroke-width:1.2463;stroke-miterlimit:10;}
	.st171{fill:#FFDCBF;stroke:#BFCCFF;stroke-width:2.1613;stroke-miterlimit:10;}
	.st172{fill:#E0FFF7;}
	.st173{fill:#BFCCFF;}
	.st174{fill:#BFD8FF;stroke:#ADBFFF;stroke-width:1.5227;stroke-miterlimit:10;}
	.st175{fill:#DBE9FF;}
	.st176{fill:#ADBFFF;}
	.st177{fill:#74A9F7;stroke:#6384FF;stroke-width:1.5227;stroke-miterlimit:10;}
	.st178{fill:#74A9F7;}
	.st179{fill:#6384FF;}
	.st180{fill:#94C0FF;stroke:#8FA7FF;stroke-width:1.6805;stroke-miterlimit:10;}
	.st181{fill:#94C0FF;}
	.st182{fill:#8FA7FF;}
	.st183{fill:#FFC899;stroke:#87A1FF;stroke-width:1.5923;stroke-miterlimit:10;}
	.st184{fill:#87A1FF;}
	.st185{fill:#A1FFE6;stroke:#A1B5FF;stroke-width:1.1942;stroke-miterlimit:10;}
	.st186{fill:#A1FFE6;}
	.st187{fill:#A1B5FF;}
	.st188{fill:#CCFFF2;stroke:#BDCAFF;stroke-width:2.1613;stroke-miterlimit:10;}
	.st189{fill:#BDCAFF;}
	.st190{clip-path:url(#SVGID_26_);}
	.st191{fill:#FFDCBF;stroke:#BFCCFF;stroke-width:3.3162;stroke-miterlimit:10;}
	.st192{fill:#BFD8FF;stroke:#ADBFFF;stroke-width:2.3363;stroke-miterlimit:10;}
	.st193{fill:#74A9F7;stroke:#6384FF;stroke-width:2.3363;stroke-miterlimit:10;}
	.st194{fill:#94C0FF;stroke:#8FA7FF;stroke-width:2.5784;stroke-miterlimit:10;}
	.st195{fill:#FFC899;stroke:#87A1FF;stroke-width:2.4431;stroke-miterlimit:10;}
	.st196{fill:#A1FFE6;stroke:#A1B5FF;stroke-width:1.8324;stroke-miterlimit:10;}
	.st197{fill:#CCFFF2;stroke:#BDCAFF;stroke-width:3.3162;stroke-miterlimit:10;}
	.st198{fill:none;stroke:#4992F5;stroke-width:0.3868;stroke-miterlimit:10;}
	.st199{fill:none;stroke:#4992F5;stroke-width:0.31;stroke-miterlimit:10;}
	.st200{opacity:0.54;}
	.st201{opacity:0.14;}
	.st202{opacity:0.26;}
	.st203{fill:#0B5BCB;stroke:#0B5BCB;stroke-width:4;stroke-miterlimit:10;}
	.st204{fill:#34E2AA;stroke:#0B5BCB;stroke-width:3;stroke-linejoin:round;stroke-miterlimit:10;}
	.st205{fill:none;stroke:#0B5BCB;stroke-width:3;stroke-linecap:round;stroke-miterlimit:10;}
	.st206{fill:#4992F5;stroke:#0B5BCB;stroke-width:4;stroke-miterlimit:10;}
	.st207{fill:#C7FFED;stroke:#34E2AA;stroke-width:3;stroke-miterlimit:10;}
	.st208{fill:#FFD1AB;stroke:#0B5BCB;stroke-width:3;stroke-miterlimit:10;}
	.st209{fill:#34E2AA;stroke:#34E2AA;stroke-width:3;stroke-linejoin:round;stroke-miterlimit:10;}
	.st210{fill:none;stroke:#0B5BCB;stroke-width:1.87;stroke-miterlimit:10;}
	.st211{fill:#E6F0FF;stroke:#DBE3FF;stroke-width:3.6654;stroke-miterlimit:10;}
	.st212{fill:#E6F0FF;}
	.st213{fill:#DBE3FF;}
	.st214{fill:#FFE1C9;stroke:#E0E6FF;stroke-width:5.2027;stroke-miterlimit:10;}
	.st215{fill:#E0E6FF;}
	.st216{fill:#DBE9FF;stroke:#CCD7FF;stroke-width:3.6654;stroke-miterlimit:10;}
	.st217{fill:#CCD7FF;}
	.st218{fill:#9EC2F7;stroke:#9CB1FF;stroke-width:3.6654;stroke-miterlimit:10;}
	.st219{fill:#9EC2F7;}
	.st220{fill:#9CB1FF;}
	.st221{fill:#99C3FF;stroke:#91A9FF;stroke-width:4.0452;stroke-miterlimit:10;}
	.st222{fill:#99C3FF;}
	.st223{fill:#91A9FF;}
	.st224{fill:#FFD7B5;stroke:#A1B5FF;stroke-width:5.2027;stroke-miterlimit:10;}
	.st225{fill:#B8FFEC;stroke:#A1B5FF;stroke-width:5.2027;stroke-miterlimit:10;}
	.st226{fill:#B8FFEC;}
	.st227{fill:#E0FFF7;stroke:#E0E6FF;stroke-width:5.2027;stroke-miterlimit:10;}
	.st228{fill:#FFEAD9;stroke:#DBE3FF;stroke-width:3.6654;stroke-miterlimit:10;}
	.st229{opacity:0.2;}
	.st230{fill:#4890F1;stroke:#1A328C;stroke-width:2.274;stroke-miterlimit:10;}
	.st231{fill:none;stroke:#1A328C;stroke-width:1.9286;stroke-linecap:round;stroke-miterlimit:10;}
	.st232{fill:#6AF0B9;stroke:#1A328C;stroke-width:1.5555;stroke-miterlimit:10;}
	.st233{fill:none;stroke:#1A328C;stroke-width:1.3193;stroke-linecap:round;stroke-miterlimit:10;}
	.st234{fill:#FFB87D;stroke:#1A328C;stroke-width:1.9915;stroke-miterlimit:10;}
	.st235{fill:none;stroke:#1A328C;stroke-width:1.6891;stroke-linecap:round;stroke-miterlimit:10;}
	.st236{fill:#0B5DD1;stroke:#1A328C;stroke-width:1.5432;stroke-miterlimit:10;}
	.st237{fill:none;stroke:#1A328C;stroke-width:1.3088;stroke-linecap:round;stroke-miterlimit:10;}
	.st238{fill:#A6FFE1;stroke:#1A328C;stroke-width:1.8914;stroke-miterlimit:10;}
	.st239{fill:none;stroke:#1A328C;stroke-width:1.6042;stroke-linecap:round;stroke-miterlimit:10;}
	.st240{fill:#8AA1F7;stroke:#1A328C;stroke-width:2.274;stroke-miterlimit:10;}
	.st241{fill:none;stroke:#1A328C;stroke-width:1.3298;stroke-linecap:round;stroke-miterlimit:10;}
	.st242{fill:#FFB87D;stroke:#1A328C;stroke-width:1.5457;stroke-miterlimit:10;}
	.st243{fill:none;stroke:#1A328C;stroke-width:1.311;stroke-linecap:round;stroke-miterlimit:10;}
	.st244{fill:none;stroke:#0B59C7;stroke-width:3.032;stroke-linecap:round;stroke-miterlimit:10;}
	.st245{clip-path:url(#SVGID_30_);fill:none;stroke:#FF8B2B;stroke-width:9.0959;stroke-linecap:round;stroke-miterlimit:10;}
	.st246{fill:#A6FFDE;stroke:#0B59C7;stroke-width:5;stroke-linejoin:round;stroke-miterlimit:10;}
	.st247{fill:#A6FFDE;stroke:#0B59C7;stroke-width:4.2028;stroke-linejoin:round;stroke-miterlimit:10;}
	.st248{fill:#8AA1F7;stroke:#1A328C;stroke-width:5;stroke-miterlimit:10;}
	.st249{fill:none;stroke:#1A328C;stroke-width:5;stroke-miterlimit:10;}
	.st250{fill:#0B59C7;stroke:#1A328C;stroke-width:5;stroke-miterlimit:10;}
	.st251{fill:#75FFCE;stroke:#1A328C;stroke-width:5;stroke-miterlimit:10;}
	.st252{fill:#D4DCF7;}
	.st253{opacity:0.8;fill:#D4DCF7;}
	.st254{fill:#558DDB;stroke:#0653BF;stroke-width:5;stroke-linecap:round;stroke-linejoin:round;stroke-miterlimit:10;}
	.st255{fill:#7EB6F2;}
	.st256{fill:#609CE0;}
	.st257{fill:none;stroke:#0B59C7;stroke-width:5;stroke-linecap:round;stroke-linejoin:round;stroke-miterlimit:10;}
	.st258{fill:#FF8B2B;stroke:#0B59C7;stroke-width:5;stroke-miterlimit:10;}
	.st259{fill:none;stroke:#33DEA7;stroke-width:5;stroke-linecap:round;stroke-miterlimit:10;}
	.st260{fill:none;stroke:#33DEA7;stroke-width:5;stroke-linecap:round;stroke-linejoin:round;stroke-miterlimit:10;}
	.st261{clip-path:url(#SVGID_32_);}
	.st262{fill:none;stroke:#1A328C;stroke-width:5;stroke-linecap:round;stroke-linejoin:round;stroke-miterlimit:10;}
	.st263{fill:#8AA1F7;stroke:#33DEA7;stroke-width:0.7994;stroke-miterlimit:10;}
	.st264{fill:none;stroke:#33DEA7;stroke-width:0.7994;stroke-linecap:round;stroke-miterlimit:10;}
	.st265{fill:none;stroke:#33DEA7;stroke-width:0.7994;stroke-linecap:round;stroke-linejoin:round;stroke-miterlimit:10;}
	.st266{clip-path:url(#SVGID_34_);}
	.st267{fill:none;stroke:#33DEA7;stroke-width:6.662;stroke-linecap:round;stroke-linejoin:round;stroke-miterlimit:10;}
	.st268{fill:none;stroke:#1A328C;stroke-width:1.5989;stroke-linecap:round;stroke-linejoin:round;stroke-miterlimit:10;}
	.st269{fill:#4890F1;stroke:#1A328C;stroke-width:1.7649;stroke-linecap:round;stroke-miterlimit:10;}
	.st270{fill:#4890F1;stroke:#1A328C;stroke-width:1.7649;stroke-linecap:round;stroke-linejoin:round;stroke-miterlimit:10;}
	.st271{opacity:0.8;fill:#C4D0FF;}
	.st272{fill:#FFB87D;stroke:#1B3BB3;stroke-width:5;stroke-linecap:round;stroke-linejoin:round;stroke-miterlimit:10;}
	.st273{fill:#FFD6B3;stroke:#1B3BB3;stroke-width:5;stroke-linejoin:round;stroke-miterlimit:10;}
	.st274{fill:#FF8B2B;stroke:#1B3BB3;stroke-width:5;stroke-miterlimit:10;}
	.st275{fill:#FFB87D;stroke:#1B3BB3;stroke-width:5;stroke-linejoin:round;stroke-miterlimit:10;}
	.st276{fill:#96FFD4;stroke:#1B3BB3;stroke-width:5;stroke-linejoin:round;stroke-miterlimit:10;}
	.st277{fill:#1A328C;stroke:#1B3BB3;stroke-width:5;stroke-miterlimit:10;}
	.st278{fill:#0B59C7;stroke:#1B3BB3;stroke-width:5;stroke-miterlimit:10;}
	.st279{fill:#4890F1;stroke:#1B3BB3;stroke-width:5;stroke-miterlimit:10;}
	.st280{fill:#4890F1;stroke:#1B3BB3;stroke-width:5;stroke-linecap:round;stroke-miterlimit:10;}
	.st281{fill:#FFB87D;stroke:#1B3BB3;stroke-width:1.6332;stroke-linecap:round;stroke-linejoin:round;stroke-miterlimit:10;}
	.st282{fill:#FFD8B8;stroke:#1B3BB3;stroke-width:1.6332;stroke-linejoin:round;stroke-miterlimit:10;}
	.st283{fill:#FF8B2B;stroke:#1B3BB3;stroke-width:1.6332;stroke-miterlimit:10;}
	.st284{fill:#FFB87D;stroke:#1B3BB3;stroke-width:1.6332;stroke-linejoin:round;stroke-miterlimit:10;}
	.st285{fill:#1A328C;stroke:#1B3BB3;stroke-width:0.5444;stroke-miterlimit:10;}
	.st286{fill:#0B59C7;stroke:#1B3BB3;stroke-width:0.5444;stroke-miterlimit:10;}
	.st287{fill:#4890F1;stroke:#1B3BB3;stroke-width:1.6332;stroke-miterlimit:10;}
	.st288{fill:#4890F1;stroke:#1B3BB3;stroke-width:1.6332;stroke-linecap:round;stroke-miterlimit:10;}
	.st289{fill:#92FCCA;stroke:#1A328C;stroke-width:5;stroke-miterlimit:10;}
	.st290{fill:none;stroke:#1A328C;stroke-width:5;stroke-linecap:round;stroke-miterlimit:10;}
	.st291{clip-path:url(#SVGID_38_);fill:none;stroke:#8AA1F7;stroke-width:5;stroke-linecap:round;stroke-miterlimit:10;}
	.st292{fill:#7DFFD5;}
	.st293{fill:#B3FFE4;}
	.st294{fill:none;stroke:#274CD4;stroke-width:0.3105;stroke-miterlimit:10;}
	.st295{fill:#FF8B2B;stroke:#0653BF;stroke-width:2.1766;stroke-linecap:round;stroke-linejoin:round;stroke-miterlimit:10;}
	.st296{fill:#FFD2AD;}
	.st297{fill:none;stroke:#0B59C7;stroke-width:2.1766;stroke-linecap:round;stroke-linejoin:round;stroke-miterlimit:10;}
	.st298{fill:#FFB87D;stroke:#33DEA7;stroke-width:5;stroke-miterlimit:10;}
	.st299{fill:#9EFFE0;stroke:#33DEA7;stroke-width:5;stroke-miterlimit:10;}
	.st300{fill:#FF8B2B;stroke:#33DEA7;stroke-width:5;stroke-linejoin:round;stroke-miterlimit:10;}
	.st301{fill:#FF8B2B;stroke:#1A328C;stroke-width:5;stroke-miterlimit:10;}
	.st302{fill:#6AF0B9;stroke:#1A328C;stroke-width:5;stroke-miterlimit:10;}
	.st303{fill:#B5CBE8;stroke:#1A328C;stroke-width:5;stroke-miterlimit:10;}
	.st304{fill:#0B5DD1;stroke:#1A328C;stroke-width:5;stroke-miterlimit:10;}
	.st305{fill:#4890F1;stroke:#1A328C;stroke-width:5;stroke-miterlimit:10;}
	.st306{fill:#6BFFCA;stroke:#1A328C;stroke-width:5;stroke-miterlimit:10;}
	.st307{fill:none;stroke:#0B59C7;stroke-width:5;stroke-linecap:round;stroke-miterlimit:10;}
	.st308{clip-path:url(#SVGID_40_);fill:none;stroke:#FF8B2B;stroke-width:19;stroke-linecap:round;stroke-miterlimit:10;}
	.st309{fill:#FF8B2B;stroke:#0B59C7;stroke-width:5;stroke-linejoin:round;stroke-miterlimit:10;}
	.st310{fill:#FFC99C;}
	.st311{fill:#8AA1F7;stroke:#0B59C7;stroke-width:5;stroke-linejoin:round;stroke-miterlimit:10;}
	.st312{fill:#33DEA7;stroke:#1A328C;stroke-width:5;stroke-miterlimit:10;}
	.st313{fill:#8AA1F7;stroke:#0B59C7;stroke-width:1.5989;stroke-miterlimit:10;}
	.st314{fill:none;stroke:#0B59C7;stroke-width:1.5989;stroke-linecap:round;stroke-miterlimit:10;}
	.st315{fill:none;stroke:#0B59C7;stroke-width:1.5989;stroke-linecap:round;stroke-linejoin:round;stroke-miterlimit:10;}
	.st316{clip-path:url(#SVGID_42_);}
	.st317{fill:none;stroke:#FF8B2B;stroke-width:13.324;stroke-linecap:round;stroke-linejoin:round;stroke-miterlimit:10;}
	.st318{fill:none;stroke:#1A328C;stroke-width:3.1978;stroke-linecap:round;stroke-linejoin:round;stroke-miterlimit:10;}
	.st319{fill:#4890F1;stroke:#1A328C;stroke-width:1.0806;stroke-miterlimit:10;}
	.st320{fill:#4890F1;stroke:#1A328C;stroke-width:1.0806;stroke-linecap:round;stroke-miterlimit:10;}
	.st321{fill:#4890F1;stroke:#1A328C;stroke-width:1.0806;stroke-linecap:round;stroke-linejoin:round;stroke-miterlimit:10;}
	.st322{fill:#8AA1F7;stroke:#1B3BB3;stroke-width:5;stroke-linecap:round;stroke-linejoin:round;stroke-miterlimit:10;}
	.st323{fill:#D1FFEF;stroke:#1B3BB3;stroke-width:5;stroke-linejoin:round;stroke-miterlimit:10;}
	.st324{fill:#AFBFF7;stroke:#1B3BB3;stroke-width:5;stroke-linejoin:round;stroke-miterlimit:10;}
	.st325{fill:#66FFC8;stroke:#1B3BB3;stroke-width:5;stroke-miterlimit:10;}
	.st326{fill:none;stroke:#274CD4;stroke-width:0.9742;stroke-miterlimit:10;}
	.st327{fill:#8AA1F7;stroke:#0653BF;stroke-width:5;stroke-linecap:round;stroke-linejoin:round;stroke-miterlimit:10;}
	.st328{fill:#BAC8FF;}
	.st329{fill:#9EB2FF;}
	.st330{fill:#8AA1F7;stroke:#0B59C7;stroke-width:5;stroke-miterlimit:10;}
	.st331{clip-path:url(#SVGID_46_);}
	.st332{fill:none;stroke:#33DEA7;stroke-width:25;stroke-linecap:round;stroke-linejoin:round;stroke-miterlimit:10;}
	.st333{fill:#0B59C7;stroke:#0B59C7;stroke-width:5;stroke-miterlimit:10;}
	.st334{fill:#4890F1;stroke:#0B59C7;stroke-width:5;stroke-miterlimit:10;}
	.st335{fill:#FF9B47;stroke:#0B59C7;stroke-width:1.6094;stroke-linejoin:round;stroke-miterlimit:10;}
	.st336{fill:#FFC696;}
	.st337{fill:#6CCFAF;stroke:#0B59C7;stroke-width:1.5694;stroke-miterlimit:10;}
	.st338{fill:#9EFFE0;stroke:#0B59C7;stroke-width:1.5694;stroke-miterlimit:10;}
	.st339{fill:none;stroke:#0B59C7;stroke-width:1.5694;stroke-linecap:round;stroke-miterlimit:10;}
	.st340{fill:#00BD80;stroke:#0B59C7;stroke-width:1.5694;stroke-linejoin:round;stroke-miterlimit:10;}
	.st341{fill:#FF8B2B;stroke:#0653BF;stroke-width:1.5522;stroke-linecap:round;stroke-linejoin:round;stroke-miterlimit:10;}
	.st342{fill:none;stroke:#0B59C7;stroke-width:1.5522;stroke-linecap:round;stroke-linejoin:round;stroke-miterlimit:10;}
	.st343{fill:#E6F0FF;stroke:#DBE3FF;stroke-width:1.0544;stroke-miterlimit:10;}
	.st344{fill:#FFE1C9;stroke:#E0E6FF;stroke-width:1.4967;stroke-miterlimit:10;}
	.st345{fill:#DBE9FF;stroke:#CCD7FF;stroke-width:1.0544;stroke-miterlimit:10;}
	.st346{fill:#9EC2F7;stroke:#9CB1FF;stroke-width:1.0544;stroke-miterlimit:10;}
	.st347{fill:#99C3FF;stroke:#91A9FF;stroke-width:1.1637;stroke-miterlimit:10;}
	.st348{fill:#FFD7B5;stroke:#A1B5FF;stroke-width:1.4967;stroke-miterlimit:10;}
	.st349{fill:#B8FFEC;stroke:#A1B5FF;stroke-width:1.4967;stroke-miterlimit:10;}
	.st350{fill:#E0FFF7;stroke:#E0E6FF;stroke-width:1.4967;stroke-miterlimit:10;}
	.st351{fill:#FFEAD9;stroke:#DBE3FF;stroke-width:1.0544;stroke-miterlimit:10;}
	.st352{fill:#33DEA7;stroke:#1A328C;stroke-miterlimit:10;}
	.st353{fill:#2DC494;}
	.st354{fill:#E3FFFB;stroke:#1A328C;stroke-miterlimit:10;}
	.st355{fill:#D9E5FF;stroke:#1A328C;stroke-miterlimit:10;}
	.st356{fill:#C9FFEB;}
	.st357{fill:#FFD0A8;}
	.st358{fill:#41F2B3;}
	.st359{fill:#31FFC0;}
	.st360{fill:#5CFFCD;}
	.st361{fill:#87FFDA;}
	.st362{fill:#9CFFE0;}
	.st363{fill:#ADFFE6;}
	.st364{fill:#BAFFEA;}
	.st365{fill:#C4DEFF;}
	.st366{fill:#FFFFFF;stroke:#33DEA7;stroke-width:2.0266;stroke-miterlimit:10;}
	.st367{fill:#FFFFFF;stroke:#FF8B2B;stroke-width:2.0266;stroke-miterlimit:10;}
	.st368{fill:#00BD81;}
	.st369{fill:#FFFFFF;stroke:#4890F1;stroke-width:2.0266;stroke-miterlimit:10;}
	.st370{fill:none;stroke:#1A328C;stroke-width:1.9243;stroke-miterlimit:10;}
	.st371{fill:#4890F1;stroke:#1A328C;stroke-width:0.7327;stroke-miterlimit:10;}
	.st372{fill:none;stroke:#1A328C;stroke-width:0.6214;stroke-linecap:round;stroke-miterlimit:10;}
	.st373{fill:#6AF0B9;stroke:#1A328C;stroke-width:0.5012;stroke-miterlimit:10;}
	.st374{fill:none;stroke:#1A328C;stroke-width:0.4251;stroke-linecap:round;stroke-miterlimit:10;}
	.st375{fill:#FFB87D;stroke:#1A328C;stroke-width:0.6417;stroke-miterlimit:10;}
	.st376{fill:none;stroke:#1A328C;stroke-width:0.5442;stroke-linecap:round;stroke-miterlimit:10;}
	.st377{fill:#0B5DD1;stroke:#1A328C;stroke-width:0.4972;stroke-miterlimit:10;}
	.st378{fill:none;stroke:#1A328C;stroke-width:0.4217;stroke-linecap:round;stroke-miterlimit:10;}
	.st379{fill:#A6FFE1;stroke:#1A328C;stroke-width:0.6094;stroke-miterlimit:10;}
	.st380{fill:none;stroke:#1A328C;stroke-width:0.5169;stroke-linecap:round;stroke-miterlimit:10;}
	.st381{fill:#8AA1F7;stroke:#1A328C;stroke-width:0.7327;stroke-miterlimit:10;}
	.st382{fill:none;stroke:#1A328C;stroke-width:0.4285;stroke-linecap:round;stroke-miterlimit:10;}
	.st383{fill:#FFB87D;stroke:#1A328C;stroke-width:0.4981;stroke-miterlimit:10;}
	.st384{fill:none;stroke:#1A328C;stroke-width:0.4224;stroke-linecap:round;stroke-miterlimit:10;}
	.st385{fill:none;stroke:#0B59C7;stroke-width:0.9769;stroke-linecap:round;stroke-miterlimit:10;}
	.st386{clip-path:url(#SVGID_60_);fill:none;stroke:#FF8B2B;stroke-width:2.9308;stroke-linecap:round;stroke-miterlimit:10;}
	.st387{fill:#A6FFDE;stroke:#0B59C7;stroke-width:1.6111;stroke-linejoin:round;stroke-miterlimit:10;}
	.st388{fill:#A6FFDE;stroke:#0B59C7;stroke-width:1.3542;stroke-linejoin:round;stroke-miterlimit:10;}
	.st389{fill:#8AA1F7;stroke:#1A328C;stroke-width:1.6111;stroke-miterlimit:10;}
	.st390{fill:none;stroke:#1A328C;stroke-width:1.6111;stroke-miterlimit:10;}
	.st391{fill:#0B59C7;stroke:#1A328C;stroke-width:1.6111;stroke-miterlimit:10;}
	.st392{fill:#75FFCE;stroke:#1A328C;stroke-width:1.6111;stroke-miterlimit:10;}
	.st393{fill:#558DDB;stroke:#0653BF;stroke-width:1.6111;stroke-linecap:round;stroke-linejoin:round;stroke-miterlimit:10;}
	.st394{fill:none;stroke:#0B59C7;stroke-width:1.6111;stroke-linecap:round;stroke-linejoin:round;stroke-miterlimit:10;}
	.st395{fill:#FF8B2B;stroke:#0B59C7;stroke-width:1.6111;stroke-miterlimit:10;}
	.st396{fill:none;stroke:#33DEA7;stroke-width:1.6111;stroke-linecap:round;stroke-miterlimit:10;}
	.st397{fill:none;stroke:#33DEA7;stroke-width:1.6111;stroke-linecap:round;stroke-linejoin:round;stroke-miterlimit:10;}
	.st398{clip-path:url(#SVGID_62_);}
	.st399{fill:none;stroke:#1A328C;stroke-width:1.6111;stroke-linecap:round;stroke-linejoin:round;stroke-miterlimit:10;}
	.st400{fill:#8AA1F7;stroke:#33DEA7;stroke-width:0.2576;stroke-miterlimit:10;}
	.st401{fill:none;stroke:#33DEA7;stroke-width:0.2576;stroke-linecap:round;stroke-miterlimit:10;}
	.st402{fill:none;stroke:#33DEA7;stroke-width:0.2576;stroke-linecap:round;stroke-linejoin:round;stroke-miterlimit:10;}
	.st403{clip-path:url(#SVGID_64_);}
	.st404{fill:none;stroke:#33DEA7;stroke-width:2.1466;stroke-linecap:round;stroke-linejoin:round;stroke-miterlimit:10;}
	.st405{fill:none;stroke:#1A328C;stroke-width:0.5152;stroke-linecap:round;stroke-linejoin:round;stroke-miterlimit:10;}
	.st406{fill:#4890F1;stroke:#1A328C;stroke-width:0.5687;stroke-linecap:round;stroke-miterlimit:10;}
	.st407{fill:#4890F1;stroke:#1A328C;stroke-width:0.5687;stroke-linecap:round;stroke-linejoin:round;stroke-miterlimit:10;}
	.st408{fill:#FFB87D;stroke:#1B3BB3;stroke-width:1.6111;stroke-linecap:round;stroke-linejoin:round;stroke-miterlimit:10;}
	.st409{fill:#FFD6B3;stroke:#1B3BB3;stroke-width:1.6111;stroke-linejoin:round;stroke-miterlimit:10;}
	.st410{fill:#FF8B2B;stroke:#1B3BB3;stroke-width:1.6111;stroke-miterlimit:10;}
	.st411{fill:#FFB87D;stroke:#1B3BB3;stroke-width:1.6111;stroke-linejoin:round;stroke-miterlimit:10;}
	.st412{fill:#96FFD4;stroke:#1B3BB3;stroke-width:1.6111;stroke-linejoin:round;stroke-miterlimit:10;}
	.st413{fill:#1A328C;stroke:#1B3BB3;stroke-width:1.6111;stroke-miterlimit:10;}
	.st414{fill:#0B59C7;stroke:#1B3BB3;stroke-width:1.6111;stroke-miterlimit:10;}
	.st415{fill:#4890F1;stroke:#1B3BB3;stroke-width:1.6111;stroke-miterlimit:10;}
	.st416{fill:#4890F1;stroke:#1B3BB3;stroke-width:1.6111;stroke-linecap:round;stroke-miterlimit:10;}
	.st417{fill:#FFB87D;stroke:#1B3BB3;stroke-width:0.5262;stroke-linecap:round;stroke-linejoin:round;stroke-miterlimit:10;}
	.st418{fill:#FFD8B8;stroke:#1B3BB3;stroke-width:0.5262;stroke-linejoin:round;stroke-miterlimit:10;}
	.st419{fill:#FF8B2B;stroke:#1B3BB3;stroke-width:0.5262;stroke-miterlimit:10;}
	.st420{fill:#FFB87D;stroke:#1B3BB3;stroke-width:0.5262;stroke-linejoin:round;stroke-miterlimit:10;}
	.st421{fill:#1A328C;stroke:#1B3BB3;stroke-width:0.1754;stroke-miterlimit:10;}
	.st422{fill:#0B59C7;stroke:#1B3BB3;stroke-width:0.1754;stroke-miterlimit:10;}
	.st423{fill:#4890F1;stroke:#1B3BB3;stroke-width:0.5262;stroke-miterlimit:10;}
	.st424{fill:#4890F1;stroke:#1B3BB3;stroke-width:0.5262;stroke-linecap:round;stroke-miterlimit:10;}
	.st425{fill:#92FCCA;stroke:#1A328C;stroke-width:1.6111;stroke-miterlimit:10;}
	.st426{fill:none;stroke:#1A328C;stroke-width:1.6111;stroke-linecap:round;stroke-miterlimit:10;}
	.st427{clip-path:url(#SVGID_68_);fill:none;stroke:#8AA1F7;stroke-width:1.6111;stroke-linecap:round;stroke-miterlimit:10;}
	.st428{fill:none;stroke:#274CD4;stroke-width:0.1;stroke-miterlimit:10;}
	.st429{fill:#FF8B2B;stroke:#0653BF;stroke-width:0.7013;stroke-linecap:round;stroke-linejoin:round;stroke-miterlimit:10;}
	.st430{fill:none;stroke:#0B59C7;stroke-width:0.7013;stroke-linecap:round;stroke-linejoin:round;stroke-miterlimit:10;}
	.st431{fill:#FFB87D;stroke:#33DEA7;stroke-width:1.6111;stroke-miterlimit:10;}
	.st432{fill:#9EFFE0;stroke:#33DEA7;stroke-width:1.6111;stroke-miterlimit:10;}
	.st433{fill:#FF8B2B;stroke:#33DEA7;stroke-width:1.6111;stroke-linejoin:round;stroke-miterlimit:10;}
	.st434{fill:#FF8B2B;stroke:#1A328C;stroke-width:1.6111;stroke-miterlimit:10;}
	.st435{fill:#6AF0B9;stroke:#1A328C;stroke-width:1.6111;stroke-miterlimit:10;}
	.st436{fill:#B5CBE8;stroke:#1A328C;stroke-width:1.6111;stroke-miterlimit:10;}
	.st437{fill:#0B5DD1;stroke:#1A328C;stroke-width:1.6111;stroke-miterlimit:10;}
	.st438{fill:#4890F1;stroke:#1A328C;stroke-width:1.6111;stroke-miterlimit:10;}
	.st439{fill:#6BFFCA;stroke:#1A328C;stroke-width:1.6111;stroke-miterlimit:10;}
	.st440{fill:none;stroke:#0B59C7;stroke-width:1.6111;stroke-linecap:round;stroke-miterlimit:10;}
	.st441{clip-path:url(#SVGID_70_);fill:none;stroke:#FF8B2B;stroke-width:6.1221;stroke-linecap:round;stroke-miterlimit:10;}
	.st442{fill:#FF8B2B;stroke:#0B59C7;stroke-width:1.6111;stroke-linejoin:round;stroke-miterlimit:10;}
	.st443{fill:#8AA1F7;stroke:#0B59C7;stroke-width:1.6111;stroke-linejoin:round;stroke-miterlimit:10;}
	.st444{fill:#33DEA7;stroke:#1A328C;stroke-width:1.6111;stroke-miterlimit:10;}
	.st445{fill:#8AA1F7;stroke:#0B59C7;stroke-width:0.5152;stroke-miterlimit:10;}
	.st446{fill:none;stroke:#0B59C7;stroke-width:0.5152;stroke-linecap:round;stroke-miterlimit:10;}
	.st447{fill:none;stroke:#0B59C7;stroke-width:0.5152;stroke-linecap:round;stroke-linejoin:round;stroke-miterlimit:10;}
	.st448{clip-path:url(#SVGID_72_);}
	.st449{fill:none;stroke:#FF8B2B;stroke-width:4.2932;stroke-linecap:round;stroke-linejoin:round;stroke-miterlimit:10;}
	.st450{fill:none;stroke:#1A328C;stroke-width:1.0304;stroke-linecap:round;stroke-linejoin:round;stroke-miterlimit:10;}
	.st451{fill:#4890F1;stroke:#1A328C;stroke-width:0.3482;stroke-miterlimit:10;}
	.st452{fill:#4890F1;stroke:#1A328C;stroke-width:0.3482;stroke-linecap:round;stroke-miterlimit:10;}
	.st453{fill:#4890F1;stroke:#1A328C;stroke-width:0.3482;stroke-linecap:round;stroke-linejoin:round;stroke-miterlimit:10;}
	.st454{fill:#8AA1F7;stroke:#1B3BB3;stroke-width:1.6111;stroke-linecap:round;stroke-linejoin:round;stroke-miterlimit:10;}
	.st455{fill:#D1FFEF;stroke:#1B3BB3;stroke-width:1.6111;stroke-linejoin:round;stroke-miterlimit:10;}
	.st456{fill:#AFBFF7;stroke:#1B3BB3;stroke-width:1.6111;stroke-linejoin:round;stroke-miterlimit:10;}
	.st457{fill:#66FFC8;stroke:#1B3BB3;stroke-width:1.6111;stroke-miterlimit:10;}
	.st458{fill:none;stroke:#274CD4;stroke-width:0.3139;stroke-miterlimit:10;}
	.st459{fill:#8AA1F7;stroke:#0653BF;stroke-width:1.6111;stroke-linecap:round;stroke-linejoin:round;stroke-miterlimit:10;}
	.st460{fill:#8AA1F7;stroke:#0B59C7;stroke-width:1.6111;stroke-miterlimit:10;}
	.st461{clip-path:url(#SVGID_76_);}
	.st462{fill:none;stroke:#33DEA7;stroke-width:8.0554;stroke-linecap:round;stroke-linejoin:round;stroke-miterlimit:10;}
	.st463{fill:#0B59C7;stroke:#0B59C7;stroke-width:1.6111;stroke-miterlimit:10;}
	.st464{fill:#4890F1;stroke:#0B59C7;stroke-width:1.6111;stroke-miterlimit:10;}
	.st465{fill:#FF9B47;stroke:#0B59C7;stroke-width:0.5186;stroke-linejoin:round;stroke-miterlimit:10;}
	.st466{fill:#6CCFAF;stroke:#0B59C7;stroke-width:0.5057;stroke-miterlimit:10;}
	.st467{fill:#9EFFE0;stroke:#0B59C7;stroke-width:0.5057;stroke-miterlimit:10;}
	.st468{fill:none;stroke:#0B59C7;stroke-width:0.5057;stroke-linecap:round;stroke-miterlimit:10;}
	.st469{fill:#00BD80;stroke:#0B59C7;stroke-width:0.5057;stroke-linejoin:round;stroke-miterlimit:10;}
	.st470{fill:#FF8B2B;stroke:#0653BF;stroke-width:0.5002;stroke-linecap:round;stroke-linejoin:round;stroke-miterlimit:10;}
	.st471{fill:none;stroke:#0B59C7;stroke-width:0.5002;stroke-linecap:round;stroke-linejoin:round;stroke-miterlimit:10;}
	.st472{fill:#E3FFFB;stroke:#1A328C;stroke-width:0.285;stroke-miterlimit:10;}
	.st473{fill:#D9E5FF;stroke:#1A328C;stroke-width:0.285;stroke-miterlimit:10;}
	.st474{fill:#FFFFFF;stroke:#33DEA7;stroke-width:0.653;stroke-miterlimit:10;}
	.st475{fill:#FFFFFF;stroke:#33DEA7;stroke-width:0.8013;stroke-miterlimit:10;}
	.st476{fill:#FFFFFF;stroke:#4890F1;stroke-width:0.653;stroke-miterlimit:10;}
	.st477{fill:none;stroke:#1A328C;stroke-width:0.62;stroke-miterlimit:10;}
	.st478{fill:none;stroke:#1A328C;stroke-width:0.9855;stroke-miterlimit:10;}
	.st479{fill:none;stroke:#1A328C;stroke-width:0.9979;stroke-miterlimit:10;}
	.st480{fill:#E3FFFB;stroke:#1A328C;stroke-width:0.4607;stroke-miterlimit:10;}
	.st481{fill:#D9E5FF;stroke:#1A328C;stroke-width:0.4606;stroke-miterlimit:10;}
	.st482{clip-path:url(#SVGID_96_);fill:none;stroke:#FF8B2B;stroke-width:9.0959;stroke-linecap:round;stroke-miterlimit:10;}
	.st483{clip-path:url(#SVGID_98_);}
	.st484{clip-path:url(#SVGID_100_);}
	.st485{clip-path:url(#SVGID_104_);fill:none;stroke:#8AA1F7;stroke-width:5;stroke-linecap:round;stroke-miterlimit:10;}
	.st486{clip-path:url(#SVGID_106_);fill:none;stroke:#FF8B2B;stroke-width:19;stroke-linecap:round;stroke-miterlimit:10;}
	.st487{clip-path:url(#SVGID_108_);}
	.st488{clip-path:url(#SVGID_112_);}
	.st489{fill:url(#SVGID_143_);}
	.st490{fill:url(#SVGID_144_);}
</style>
<g id="мой_профиль">
	<g id="Слой_6">
	</g>
	<g id="Слой_5">
	</g>
</g>
<g id="регистрация">
	<rect x="312.5" y="26" class="st6" width="692" height="1399.34"/>
	<g>
		<defs>
			<rect id="SVGID_25_" x="312.5" y="26" width="692" height="1399.34"/>
		</defs>
		<clipPath id="SVGID_2_">
			<use xlink:href="#SVGID_25_"  style="overflow:visible;"/>
		</clipPath>
		<g style="clip-path:url(#SVGID_2_);">
			<g>
				<path class="st191" d="M809.08,79.85c0,0-16.19,5.4-33.46,12.72c-0.01,0-0.02,0.01-0.03,0.01c-10.1,3.28-16.55-0.23-16.93-0.44
					c-0.01-0.01-0.02-0.01-0.04-0.02c-0.91-0.34-30.55-11.57-34.55-13.33c-4.07-1.79-25.38-13.19-25.38-13.19
					s-13.31-7.31-18.14-23.63c0-0.01-0.01-0.02-0.01-0.03c-0.19-0.46-4.99-11.8-9.44-5.84c-4.54,6.08-3.43,22.73,1.71,29.79
					c4.71,6.47,21.89,19.13,24.77,21.23c0.19,0.14,0.18,0.43-0.03,0.55l-11.7,6.72c-4.05,2.33-7.76,5.22-10.92,8.66
					c-3.92,4.28-7.48,9.93-5.08,14.7c3.57,7.1,8.74,6.39,10.84,5.75c0.29-0.09,0.54,0.22,0.38,0.48c-1.4,2.31-4.68,8.89-0.22,14.23
					c0.01,0.01,0.02,0.02,0.02,0.03c3.73,3.89,8.6,3.1,10.32,2.66c0.26-0.07,0.48,0.18,0.39,0.43c-0.73,1.95-2.54,8,1.33,11.45
					c3.68,3.28,7.02,3.37,8.27,3.27c0.23-0.02,0.41,0.2,0.34,0.42c-0.41,1.39-1.11,5.45,3.44,8.59c0.06,0.04,0.11,0.08,0.17,0.11
					c3.99,2.71,9.16,2.94,13.4,0.63c2.05-1.12,4.41-2.42,6.24-3.52c0.09-0.05,0.19-0.06,0.28-0.02c1.19,0.46,9.77,3.28,29.48-3.24
					c0.01,0,0.02-0.01,0.03-0.01c0.69-0.29,30.62-13.03,38.87-21.58c0.04-0.04,0.08-0.07,0.14-0.08
					c1.44-0.42,22.23-6.46,41.94-11.52c19.86-5.09,173.66-49.04,182.35-51.53c0.2-0.06,0.29-0.28,0.2-0.47L988.2,15.44
					c-0.08-0.15-0.25-0.22-0.41-0.16L809.08,79.85z"/>
				<g>
					<line class="st172" x1="681.45" y1="122.84" x2="706.87" y2="106.27"/>
					<path class="st173" d="M681.45,122.84c1.87-1.76,3.86-3.34,5.89-4.86c2.02-1.53,4.11-2.95,6.22-4.35
						c2.13-1.36,4.27-2.7,6.49-3.94c2.21-1.24,4.46-2.42,6.83-3.42c-1.87,1.77-3.85,3.35-5.88,4.86c-2.02,1.53-4.12,2.95-6.22,4.34
						c-2.13,1.36-4.27,2.7-6.49,3.94C686.07,120.66,683.82,121.84,681.45,122.84z"/>
				</g>
				<g>
					<line class="st172" x1="691.29" y1="140.5" x2="715.06" y2="126.16"/>
					<path class="st173" d="M691.29,140.5c1.74-1.6,3.59-3,5.49-4.34c1.89-1.35,3.84-2.59,5.81-3.8c1.99-1.18,4-2.33,6.07-3.37
						c2.07-1.05,4.17-2.04,6.4-2.83c-1.74,1.6-3.59,3-5.49,4.34c-1.89,1.35-3.84,2.59-5.81,3.8c-1.99,1.18-4,2.33-6.07,3.37
						C695.62,138.72,693.51,139.7,691.29,140.5z"/>
				</g>
				<g>
					<line class="st172" x1="700.9" y1="156.15" x2="722.58" y2="144.12"/>
					<path class="st173" d="M700.9,156.15c1.6-1.37,3.3-2.56,5.04-3.7c1.73-1.13,3.5-2.2,5.31-3.2c1.8-1.01,3.65-1.94,5.53-2.81
						c1.88-0.87,3.79-1.68,5.8-2.32c-1.6,1.37-3.3,2.57-5.04,3.7c-1.74,1.13-3.5,2.2-5.31,3.2c-1.81,1-3.65,1.94-5.53,2.81
						C704.83,154.71,702.91,155.52,700.9,156.15z"/>
				</g>
			</g>
			<g>
				<path class="st192" d="M823.9,233.83c0,0-17-1.47-35.76-1.6c-0.01,0-0.02,0-0.03,0c-10.57-1-15.1-6.78-15.37-7.13
					c-0.01-0.01-0.02-0.02-0.03-0.03c-0.7-0.68-23.45-22.74-26.43-25.94c-3.02-3.25-18.06-22.18-18.06-22.18s-9.32-12-7.28-28.89
					c0-0.01,0-0.02,0-0.03c0.01-0.5,0.1-12.81-6.34-9.11c-6.58,3.78-12.17,19.5-10.25,28.03c1.76,7.8,12.5,26.25,14.31,29.32
					c0.12,0.21-0.01,0.47-0.25,0.49l-13.4,1.53c-4.64,0.53-9.2,1.71-13.46,3.62c-5.3,2.38-10.81,6.14-10.5,11.48
					c0.46,7.93,5.49,9.34,7.67,9.58c0.3,0.03,0.41,0.42,0.16,0.6c-2.2,1.56-7.83,6.3-5.85,12.97c0,0.01,0.01,0.02,0.01,0.03
					c1.88,5.05,6.66,6.26,8.42,6.54c0.26,0.04,0.37,0.36,0.19,0.55c-1.44,1.5-5.51,6.33-3.32,11.04c2.08,4.47,5.11,5.88,6.29,6.28
					c0.22,0.07,0.3,0.34,0.15,0.52c-0.93,1.11-3.18,4.56-0.25,9.25c0.04,0.06,0.07,0.11,0.11,0.17c2.59,4.07,7.25,6.33,12.05,5.9
					c2.33-0.21,5.01-0.48,7.13-0.75c0.1-0.01,0.2,0.02,0.27,0.09c0.91,0.9,7.67,6.88,28.34,8.73c0.01,0,0.02,0,0.03,0
					c0.75,0.01,33.27,0.19,44.24-4.39c0.05-0.02,0.1-0.03,0.16-0.02c1.49,0.19,22.97,2.89,43.07,6.07
					c20.25,3.21,178.87,23.89,187.83,25.06c0.21,0.03,0.38-0.14,0.37-0.35l-4.24-65.48c-0.01-0.17-0.14-0.3-0.31-0.31L823.9,233.83z
					"/>
				<g>
					<line class="st175" x1="689.69" y1="222.64" x2="719.59" y2="217.52"/>
					<path class="st176" d="M689.69,222.64c2.41-0.9,4.86-1.58,7.32-2.17c2.46-0.59,4.94-1.11,7.43-1.54c2.49-0.43,5-0.77,7.52-1.03
						c2.52-0.26,5.06-0.43,7.63-0.38c-2.41,0.91-4.86,1.58-7.32,2.18c-2.46,0.59-4.94,1.11-7.43,1.53c-2.49,0.43-5,0.77-7.52,1.02
						C694.8,222.51,692.26,222.69,689.69,222.64z"/>
				</g>
				<g>
					<line class="st175" x1="691.71" y1="242.75" x2="719.22" y2="239.02"/>
					<path class="st176" d="M691.71,242.75c2.23-0.79,4.49-1.35,6.76-1.83c2.27-0.48,4.55-0.88,6.84-1.19
						c2.29-0.32,4.6-0.54,6.91-0.68c2.32-0.14,4.64-0.2,7-0.03c-2.23,0.79-4.49,1.36-6.75,1.84c-2.27,0.48-4.55,0.88-6.84,1.19
						c-2.29,0.31-4.6,0.53-6.91,0.67C696.39,242.86,694.07,242.92,691.71,242.75z"/>
				</g>
				<g>
					<line class="st175" x1="694.33" y1="260.94" x2="719" y2="258.49"/>
					<path class="st176" d="M694.33,260.94c2.01-0.68,4.04-1.14,6.08-1.51c2.04-0.39,4.09-0.66,6.14-0.87
						c2.06-0.2,4.12-0.34,6.19-0.36c2.07-0.03,4.15,0.02,6.26,0.3c-2.01,0.69-4.04,1.14-6.08,1.52c-2.04,0.39-4.09,0.66-6.14,0.87
						c-2.06,0.2-4.12,0.33-6.19,0.35C698.51,261.26,696.43,261.21,694.33,260.94z"/>
				</g>
			</g>
			<g>
				<path class="st193" d="M915.18,109.84c0,0-11.98,1.06-25.01,3.26c-0.01,0-0.01,0-0.02,0c-7.46,0.6-11.31-2.86-11.53-3.07
					c-0.01-0.01-0.01-0.01-0.02-0.02c-0.57-0.38-19.05-12.91-21.5-14.77c-2.49-1.89-15.24-13.18-15.24-13.18s-7.93-7.19-8.58-19.15
					c0-0.01,0-0.01,0-0.02c-0.06-0.35-1.5-8.9-5.51-5.55c-4.1,3.43-6.06,15.02-3.69,20.7c2.17,5.2,11.88,16.69,13.51,18.59
					c0.11,0.13,0.05,0.33-0.11,0.37l-9.11,2.7c-3.16,0.93-6.17,2.31-8.9,4.16c-3.39,2.3-6.75,5.58-5.88,9.24
					c1.29,5.45,4.95,5.81,6.49,5.71c0.21-0.01,0.33,0.24,0.18,0.39c-1.34,1.35-4.66,5.33-2.48,9.72c0,0.01,0.01,0.02,0.01,0.02
					c1.92,3.28,5.38,3.53,6.64,3.51c0.19,0,0.3,0.2,0.2,0.36c-0.82,1.22-3.05,5.07-0.96,8.06c1.99,2.85,4.26,3.46,5.13,3.59
					c0.16,0.02,0.25,0.2,0.17,0.34c-0.51,0.89-1.65,3.55,0.95,6.45c0.03,0.04,0.06,0.07,0.1,0.11c2.29,2.51,5.8,3.51,9.08,2.62
					c1.59-0.43,3.42-0.94,4.85-1.39c0.07-0.02,0.14-0.01,0.2,0.03c0.74,0.51,6.16,3.84,20.73,2.59c0.01,0,0.01,0,0.02,0
					c0.52-0.09,23.11-3.93,30.16-8.44c0.03-0.02,0.07-0.03,0.11-0.04c1.06-0.05,16.29-0.8,30.62-1.04
					c14.44-0.24,127.02-5.26,133.38-5.54c0.15-0.01,0.25-0.14,0.21-0.29l-10.93-44.92c-0.03-0.11-0.14-0.19-0.25-0.18L915.18,109.84
					z"/>
				<g>
					<line class="st178" x1="820.69" y1="118.46" x2="840.82" y2="111.26"/>
					<path class="st179" d="M820.69,118.46c1.51-1.06,3.11-1.89,4.73-2.66c1.61-0.78,3.27-1.44,4.94-2.04
						c1.68-0.6,3.38-1.13,5.12-1.56c1.73-0.44,3.5-0.8,5.34-0.94c-1.51,1.06-3.1,1.9-4.72,2.66c-1.61,0.77-3.27,1.44-4.95,2.04
						c-1.68,0.6-3.38,1.13-5.12,1.56C824.29,117.95,822.53,118.32,820.69,118.46z"/>
				</g>
				<g>
					<line class="st178" x1="824.55" y1="132.17" x2="843.18" y2="126.22"/>
					<path class="st179" d="M824.55,132.17c1.41-0.96,2.88-1.69,4.38-2.35c1.5-0.67,3.03-1.23,4.58-1.73
						c1.55-0.49,3.13-0.92,4.74-1.24c1.6-0.33,3.23-0.59,4.94-0.62c-1.4,0.96-2.88,1.7-4.38,2.35c-1.5,0.67-3.03,1.23-4.58,1.73
						c-1.55,0.49-3.13,0.92-4.74,1.24C827.88,131.88,826.25,132.13,824.55,132.17z"/>
				</g>
				<g>
					<line class="st178" x1="828.58" y1="144.47" x2="845.4" y2="139.76"/>
					<path class="st179" d="M828.58,144.47c1.27-0.86,2.6-1.49,3.96-2.05c1.35-0.57,2.73-1.03,4.14-1.43
						c1.4-0.39,2.82-0.72,4.27-0.93c1.45-0.23,2.92-0.38,4.45-0.3c-1.27,0.86-2.6,1.5-3.96,2.05c-1.35,0.57-2.73,1.03-4.14,1.42
						c-1.4,0.39-2.82,0.71-4.27,0.93C831.59,144.39,830.12,144.54,828.58,144.47z"/>
				</g>
			</g>
			<g>
				<path class="st194" d="M916.45,217.86c0,0-13.22-1.14-27.81-1.24c-0.01,0-0.02,0-0.02,0c-8.22-0.78-11.74-5.27-11.95-5.54
					c-0.01-0.01-0.01-0.02-0.02-0.03c-0.54-0.53-18.23-17.68-20.55-20.17c-2.35-2.53-14.04-17.24-14.04-17.24s-7.24-9.33-5.66-22.46
					c0-0.01,0-0.02,0-0.02c0-0.39,0.08-9.96-4.93-7.08c-5.11,2.94-9.46,15.16-7.97,21.79c1.37,6.07,9.72,20.41,11.13,22.79
					c0.09,0.16-0.01,0.36-0.19,0.38l-10.42,1.19c-3.61,0.41-7.15,1.33-10.46,2.82c-4.12,1.85-8.4,4.78-8.16,8.92
					c0.36,6.17,4.27,7.26,5.96,7.44c0.24,0.03,0.32,0.33,0.12,0.46c-1.71,1.21-6.09,4.9-4.55,10.09c0,0.01,0.01,0.02,0.01,0.03
					c1.47,3.93,5.18,4.87,6.55,5.08c0.21,0.03,0.29,0.28,0.14,0.43c-1.12,1.17-4.28,4.92-2.58,8.58c1.62,3.48,3.97,4.57,4.89,4.88
					c0.17,0.06,0.23,0.27,0.12,0.41c-0.72,0.86-2.47,3.55-0.2,7.19c0.03,0.04,0.06,0.09,0.08,0.13c2.01,3.17,5.63,4.92,9.37,4.59
					c1.81-0.16,3.89-0.37,5.54-0.59c0.08-0.01,0.15,0.02,0.21,0.07c0.7,0.7,5.96,5.35,22.04,6.78c0.01,0,0.01,0,0.02,0
					c0.59,0,25.87,0.15,34.4-3.41c0.04-0.02,0.08-0.02,0.12-0.02c1.16,0.15,17.86,2.24,33.49,4.72
					c15.74,2.5,139.07,18.58,146.04,19.48c0.16,0.02,0.3-0.11,0.29-0.27l-3.29-50.91c-0.01-0.13-0.11-0.23-0.24-0.24L916.45,217.86z
					"/>
				<g>
					<line class="st181" x1="812.1" y1="209.16" x2="835.35" y2="205.18"/>
					<path class="st182" d="M812.1,209.16c1.88-0.68,3.78-1.2,5.7-1.65c1.91-0.47,3.85-0.83,5.78-1.18
						c1.94-0.32,3.88-0.61,5.84-0.81c1.96-0.21,3.93-0.35,5.93-0.33c-1.88,0.68-3.78,1.2-5.7,1.66c-1.91,0.47-3.85,0.83-5.78,1.18
						c-1.94,0.31-3.88,0.61-5.85,0.81C816.06,209.03,814.1,209.18,812.1,209.16z"/>
				</g>
				<g>
					<line class="st181" x1="813.67" y1="224.79" x2="835.06" y2="221.9"/>
					<path class="st182" d="M813.67,224.79c1.73-0.6,3.49-1.03,5.26-1.4c1.76-0.38,3.54-0.66,5.32-0.92
						c1.78-0.23,3.57-0.43,5.37-0.53c1.8-0.11,3.61-0.17,5.44-0.04c-1.73,0.6-3.49,1.04-5.25,1.41c-1.76,0.38-3.54,0.66-5.32,0.92
						c-1.78,0.22-3.57,0.43-5.37,0.53C817.31,224.86,815.5,224.91,813.67,224.79z"/>
				</g>
				<g>
					<line class="st181" x1="815.7" y1="238.94" x2="834.89" y2="237.04"/>
					<path class="st182" d="M815.7,238.94c1.57-0.48,3.15-0.81,4.74-1.08c1.59-0.28,3.18-0.47,4.78-0.65c1.6-0.14,3.2-0.27,4.81-0.3
						c1.61-0.04,3.23-0.03,4.86,0.14c-1.57,0.48-3.15,0.81-4.74,1.09c-1.59,0.28-3.18,0.47-4.78,0.65c-1.6,0.14-3.2,0.27-4.81,0.3
						C818.95,239.11,817.33,239.1,815.7,238.94z"/>
				</g>
			</g>
			<g>
				<path class="st195" d="M957.65,296.63c0,0-11.75-1.13-24.72-1.35c-0.01,0-0.01,0-0.02,0c-7.3-0.76-10.4-4.79-10.58-5.03
					c-0.01-0.01-0.01-0.01-0.02-0.02c-0.48-0.47-16.06-15.89-18.1-18.12c-2.07-2.27-12.34-15.46-12.34-15.46s-6.36-8.36-4.83-20.03
					c0-0.01,0-0.01,0-0.02c0.01-0.34,0.16-8.86-4.33-6.34c-4.57,2.57-8.55,13.4-7.28,19.31c1.16,5.41,8.47,18.24,9.7,20.37
					c0.08,0.14-0.01,0.32-0.17,0.34l-9.28,0.97c-3.21,0.33-6.37,1.12-9.33,2.41c-3.68,1.61-7.52,4.17-7.34,7.87
					c0.26,5.49,3.73,6.5,5.24,6.68c0.21,0.02,0.28,0.29,0.1,0.41c-1.54,1.06-5.46,4.31-4.14,8.93c0,0.01,0.01,0.02,0.01,0.02
					c1.27,3.51,4.56,4.38,5.78,4.58c0.18,0.03,0.25,0.25,0.13,0.38c-1.01,1.03-3.85,4.34-2.37,7.61c1.41,3.11,3.49,4.1,4.31,4.39
					c0.15,0.05,0.2,0.24,0.1,0.36c-0.65,0.76-2.23,3.13-0.24,6.4c0.02,0.04,0.05,0.08,0.07,0.12c1.76,2.83,4.97,4.43,8.29,4.16
					c1.61-0.13,3.47-0.29,4.93-0.47c0.07-0.01,0.14,0.01,0.19,0.07c0.62,0.63,5.26,4.81,19.54,6.23c0.01,0,0.01,0,0.02,0
					c0.52,0.01,23.01,0.36,30.63-2.73c0.04-0.01,0.07-0.02,0.11-0.01c1.03,0.14,15.86,2.15,29.75,4.5
					c13.98,2.36,123.55,17.75,129.74,18.62c0.14,0.02,0.27-0.1,0.26-0.24l-2.48-45.32c-0.01-0.11-0.1-0.21-0.21-0.22L957.65,296.63z
					"/>
				<g>
					<line class="st126" x1="864.9" y1="287.97" x2="885.62" y2="284.64"/>
					<path class="st184" d="M864.9,287.97c1.65-0.78,3.33-1.31,5.03-1.78c1.7-0.45,3.41-0.81,5.14-1.09
						c1.73-0.28,3.47-0.47,5.22-0.58c1.76-0.09,3.52-0.11,5.33,0.11c-1.65,0.78-3.33,1.31-5.03,1.78c-1.7,0.45-3.41,0.81-5.14,1.09
						c-1.73,0.28-3.47,0.47-5.22,0.57C868.48,288.17,866.71,288.19,864.9,287.97z"/>
				</g>
				<g>
					<line class="st126" x1="866.16" y1="301.89" x2="885.22" y2="299.5"/>
					<path class="st184" d="M866.16,301.89c1.52-0.7,3.08-1.15,4.64-1.55c1.57-0.38,3.14-0.66,4.73-0.86
						c1.59-0.2,3.19-0.32,4.8-0.34c1.61-0.01,3.23,0.05,4.88,0.36c-1.52,0.71-3.08,1.16-4.64,1.55c-1.57,0.38-3.14,0.66-4.73,0.86
						c-1.59,0.2-3.19,0.31-4.8,0.34C869.43,302.25,867.81,302.2,866.16,301.89z"/>
				</g>
				<g>
					<line class="st126" x1="867.85" y1="314.49" x2="884.93" y2="312.97"/>
					<path class="st184" d="M867.85,314.49c1.38-0.63,2.78-1.01,4.19-1.33c1.41-0.31,2.82-0.51,4.25-0.64
						c1.42-0.13,2.85-0.17,4.29-0.12c1.44,0.07,2.89,0.19,4.36,0.58c-1.38,0.64-2.78,1.02-4.18,1.34c-1.41,0.3-2.82,0.51-4.25,0.64
						c-1.42,0.13-2.85,0.17-4.29,0.12C870.76,315,869.32,314.87,867.85,314.49z"/>
				</g>
			</g>
			<g>
				<path class="st196" d="M975.03,164.1c0,0-9.67,0.85-20.19,2.63c-0.01,0-0.01,0-0.02,0c-6.02,0.48-9.13-2.31-9.31-2.48
					c-0.01-0.01-0.01-0.01-0.02-0.02c-0.46-0.31-15.38-10.42-17.36-11.93c-2.01-1.52-12.3-10.64-12.3-10.64s-6.4-5.8-6.92-15.46
					c0-0.01,0-0.01,0-0.02c-0.05-0.28-1.21-7.19-4.45-4.48c-3.31,2.77-4.89,12.12-2.98,16.71c1.75,4.2,9.59,13.47,10.9,15.01
					c0.09,0.1,0.04,0.26-0.09,0.3l-7.36,2.18c-2.55,0.75-4.98,1.86-7.18,3.35c-2.73,1.85-5.45,4.51-4.75,7.46
					c1.04,4.4,3.99,4.69,5.24,4.61c0.17-0.01,0.27,0.2,0.15,0.32c-1.08,1.09-3.76,4.3-2,7.84c0,0.01,0.01,0.01,0.01,0.02
					c1.55,2.64,4.35,2.85,5.36,2.83c0.15,0,0.24,0.17,0.16,0.29c-0.66,0.98-2.46,4.09-0.77,6.51c1.61,2.3,3.44,2.79,4.14,2.9
					c0.13,0.02,0.2,0.16,0.13,0.28c-0.41,0.71-1.33,2.87,0.77,5.21c0.03,0.03,0.05,0.06,0.08,0.09c1.85,2.03,4.68,2.83,7.33,2.12
					c1.28-0.35,2.76-0.76,3.92-1.13c0.06-0.02,0.11-0.01,0.16,0.02c0.6,0.41,4.97,3.1,16.74,2.09c0.01,0,0.01,0,0.02,0
					c0.42-0.07,18.66-3.17,24.35-6.82c0.03-0.02,0.06-0.03,0.09-0.03c0.85-0.04,13.15-0.65,24.72-0.84
					c11.66-0.2,102.54-4.25,107.67-4.47c0.12-0.01,0.2-0.12,0.17-0.23l-8.83-36.26c-0.02-0.09-0.11-0.15-0.2-0.14L975.03,164.1z"/>
				<g>
					<line class="st186" x1="898.76" y1="171.06" x2="915.01" y2="165.25"/>
					<path class="st187" d="M898.76,171.06c1.23-0.84,2.51-1.51,3.82-2.12c1.3-0.62,2.65-1.14,3.99-1.64
						c1.36-0.47,2.73-0.92,4.13-1.26c1.4-0.36,2.82-0.65,4.3-0.78c-1.23,0.84-2.51,1.52-3.82,2.13c-1.3,0.62-2.65,1.14-3.99,1.64
						c-1.36,0.47-2.73,0.91-4.13,1.26C901.66,170.63,900.24,170.93,898.76,171.06z"/>
				</g>
				<g>
					<line class="st186" x1="901.87" y1="182.13" x2="916.91" y2="177.33"/>
					<path class="st187" d="M901.87,182.13c1.14-0.76,2.33-1.35,3.54-1.88c1.21-0.54,2.45-0.98,3.7-1.39
						c1.26-0.38,2.52-0.75,3.82-1.01c1.29-0.27,2.61-0.48,3.98-0.52c-1.14,0.76-2.33,1.35-3.54,1.88c-1.21,0.54-2.45,0.98-3.7,1.39
						c-1.26,0.38-2.52,0.75-3.82,1.01C904.56,181.88,903.24,182.09,901.87,182.13z"/>
				</g>
				<g>
					<line class="st186" x1="905.13" y1="192.05" x2="918.71" y2="188.25"/>
					<path class="st187" d="M905.13,192.05c1.03-0.68,2.11-1.18,3.2-1.64c1.1-0.45,2.21-0.82,3.34-1.14
						c1.13-0.32,2.28-0.57,3.45-0.76c1.17-0.18,2.35-0.31,3.59-0.26c-1.03,0.69-2.11,1.19-3.2,1.64c-1.1,0.45-2.21,0.82-3.34,1.14
						c-1.13,0.32-2.28,0.57-3.45,0.76C907.55,191.97,906.36,192.1,905.13,192.05z"/>
				</g>
			</g>
			<g>
				<path class="st197" d="M819.34,318.47c0,0-11.48-2.75-24.3-4.77c-0.01,0-0.01,0-0.02,0c-7.13-1.77-9.63-6.19-9.78-6.45
					c-0.01-0.01-0.01-0.02-0.02-0.03c-0.41-0.53-13.7-17.96-15.41-20.46c-1.73-2.54-10.07-17.03-10.07-17.03s-5.14-9.16-2.01-20.51
					c0-0.01,0-0.01,0-0.02c0.06-0.34,1.38-8.75-3.4-6.88c-4.89,1.91-10.33,12.09-9.89,18.12c0.4,5.52,5.85,19.24,6.77,21.52
					c0.06,0.15-0.05,0.32-0.22,0.31l-9.33-0.33c-3.23-0.11-6.47,0.22-9.58,1.09c-3.87,1.08-8.02,3.09-8.36,6.77
					c-0.5,5.47,2.79,6.95,4.26,7.34c0.2,0.05,0.23,0.33,0.05,0.42c-1.67,0.84-6,3.51-5.34,8.27c0,0.01,0,0.02,0,0.03
					c0.77,3.65,3.91,4.97,5.09,5.34c0.18,0.06,0.22,0.28,0.07,0.4c-1.14,0.88-4.42,3.77-3.41,7.21c0.96,3.27,2.89,4.55,3.66,4.94
					c0.14,0.07,0.17,0.27,0.05,0.37c-0.75,0.67-2.65,2.79-1.12,6.3c0.02,0.04,0.04,0.09,0.06,0.13c1.35,3.05,4.31,5.07,7.64,5.27
					c1.61,0.1,3.47,0.19,4.95,0.22c0.07,0,0.13,0.03,0.18,0.09c0.53,0.71,4.54,5.5,18.49,8.88c0.01,0,0.01,0,0.02,0
					c0.52,0.08,22.74,3.55,30.71,1.55c0.04-0.01,0.07-0.01,0.11,0c1,0.28,15.41,4.33,28.83,8.58
					c13.52,4.28,213.73,62.04,219.74,63.76c0.14,0.04,0.28-0.06,0.29-0.2l-6.53-56.56c0.01-0.11-0.07-0.22-0.18-0.24L819.34,318.47z
					"/>
				<g>
					<line class="st172" x1="728.69" y1="297.02" x2="749.67" y2="296.59"/>
					<path class="st189" d="M728.69,297.02c1.73-0.72,3.48-1.11,5.22-1.41c1.74-0.28,3.49-0.43,5.24-0.46
						c1.75-0.04,3.5,0.04,5.25,0.25c1.75,0.22,3.51,0.54,5.27,1.2c-1.73,0.73-3.48,1.12-5.22,1.41c-1.74,0.28-3.49,0.43-5.24,0.46
						c-1.75,0.03-3.5-0.04-5.25-0.25C732.21,297.99,730.46,297.67,728.69,297.02z"/>
				</g>
				<g>
					<line class="st172" x1="728.01" y1="310.99" x2="747.21" y2="311.26"/>
					<path class="st189" d="M728.01,310.99c1.61-0.66,3.21-1,4.82-1.23c1.6-0.22,3.21-0.31,4.8-0.29c1.6,0.02,3.2,0.16,4.79,0.42
						c1.6,0.28,3.19,0.66,4.78,1.37c-1.61,0.67-3.21,1-4.82,1.23c-1.6,0.22-3.21,0.31-4.8,0.28c-1.6-0.03-3.2-0.16-4.79-0.43
						C731.19,312.07,729.6,311.69,728.01,310.99z"/>
				</g>
				<g>
					<line class="st172" x1="727.93" y1="323.69" x2="745.05" y2="324.56"/>
					<path class="st189" d="M727.93,323.69c1.46-0.61,2.91-0.9,4.35-1.08c1.44-0.17,2.87-0.21,4.3-0.14
						c1.43,0.07,2.85,0.25,4.26,0.57c1.41,0.33,2.82,0.76,4.22,1.52c-1.46,0.62-2.91,0.9-4.35,1.09c-1.44,0.17-2.87,0.21-4.3,0.14
						c-1.43-0.07-2.85-0.26-4.26-0.57C730.73,324.88,729.32,324.45,727.93,323.69z"/>
				</g>
			</g>
		</g>
		<g style="clip-path:url(#SVGID_2_);">
			<g>
				<path class="st191" d="M493.37,1140.1c0,0,16.19,5.4,33.46,12.72c0.01,0,0.02,0.01,0.03,0.01c10.1,3.28,16.55-0.23,16.93-0.44
					c0.01-0.01,0.02-0.01,0.04-0.02c0.91-0.34,30.55-11.57,34.55-13.33c4.07-1.79,25.38-13.19,25.38-13.19s13.31-7.31,18.14-23.63
					c0-0.01,0.01-0.02,0.01-0.03c0.19-0.46,4.99-11.8,9.44-5.84c4.54,6.08,3.43,22.73-1.71,29.79
					c-4.71,6.47-21.89,19.13-24.77,21.23c-0.19,0.14-0.18,0.43,0.03,0.55l11.7,6.72c4.05,2.33,7.76,5.22,10.92,8.66
					c3.92,4.28,7.48,9.93,5.08,14.7c-3.57,7.1-8.74,6.39-10.84,5.75c-0.29-0.09-0.54,0.22-0.38,0.48c1.4,2.31,4.68,8.89,0.22,14.23
					c-0.01,0.01-0.02,0.02-0.02,0.03c-3.73,3.89-8.6,3.1-10.32,2.66c-0.26-0.07-0.48,0.18-0.39,0.43c0.73,1.95,2.54,8-1.33,11.45
					c-3.68,3.28-7.02,3.37-8.27,3.27c-0.23-0.02-0.41,0.2-0.34,0.42c0.41,1.39,1.11,5.45-3.44,8.59c-0.06,0.04-0.11,0.08-0.17,0.11
					c-3.99,2.71-9.16,2.94-13.4,0.63c-2.05-1.12-4.41-2.42-6.24-3.52c-0.09-0.05-0.19-0.06-0.28-0.02
					c-1.19,0.46-9.77,3.28-29.48-3.24c-0.01,0-0.02-0.01-0.03-0.01c-0.69-0.29-30.62-13.03-38.87-21.58
					c-0.04-0.04-0.08-0.07-0.14-0.08c-1.44-0.42-22.23-6.46-41.94-11.52c-19.86-5.09-173.66-49.04-182.35-51.53
					c-0.2-0.06-0.29-0.28-0.2-0.47l29.87-58.42c0.08-0.15,0.25-0.22,0.41-0.16L493.37,1140.1z"/>
				<g>
					<line class="st172" x1="621" y1="1183.09" x2="595.58" y2="1166.52"/>
					<path class="st173" d="M621,1183.09c-2.37-1-4.62-2.18-6.82-3.42c-2.21-1.23-4.36-2.57-6.49-3.94c-2.11-1.4-4.2-2.82-6.22-4.34
						c-2.03-1.52-4.02-3.1-5.88-4.86c2.37,0.99,4.62,2.17,6.83,3.42c2.21,1.23,4.36,2.57,6.49,3.94c2.11,1.4,4.2,2.82,6.22,4.35
						C617.15,1179.74,619.14,1181.32,621,1183.09z"/>
				</g>
				<g>
					<line class="st172" x1="611.17" y1="1200.74" x2="587.4" y2="1186.41"/>
					<path class="st173" d="M611.17,1200.74c-2.22-0.79-4.33-1.78-6.4-2.83c-2.07-1.04-4.08-2.19-6.07-3.37
						c-1.97-1.21-3.93-2.45-5.81-3.8c-1.9-1.34-3.75-2.74-5.49-4.34c2.22,0.79,4.33,1.77,6.4,2.83c2.07,1.04,4.08,2.19,6.07,3.37
						c1.97,1.21,3.93,2.45,5.81,3.8C607.58,1197.74,609.43,1199.15,611.17,1200.74z"/>
				</g>
				<g>
					<line class="st172" x1="601.55" y1="1216.4" x2="579.88" y2="1204.37"/>
					<path class="st173" d="M601.55,1216.4c-2.01-0.64-3.92-1.45-5.8-2.32c-1.88-0.87-3.72-1.81-5.53-2.81
						c-1.81-1-3.58-2.07-5.31-3.2c-1.73-1.13-3.43-2.33-5.04-3.7c2.01,0.63,3.92,1.44,5.8,2.32c1.88,0.87,3.72,1.81,5.53,2.81
						c1.81,1,3.58,2.07,5.31,3.21C598.25,1213.84,599.95,1215.03,601.55,1216.4z"/>
				</g>
			</g>
			<g>
				<path class="st192" d="M478.56,1294.08c0,0,17-1.47,35.76-1.6c0.01,0,0.02,0,0.03,0c10.57-1,15.1-6.78,15.37-7.13
					c0.01-0.01,0.02-0.02,0.03-0.03c0.7-0.68,23.45-22.74,26.43-25.94c3.02-3.25,18.06-22.18,18.06-22.18s9.32-12,7.28-28.89
					c0-0.01,0-0.02,0-0.03c-0.01-0.5-0.1-12.81,6.34-9.11c6.58,3.78,12.17,19.5,10.25,28.03c-1.76,7.8-12.5,26.25-14.31,29.32
					c-0.12,0.21,0.01,0.47,0.25,0.49l13.4,1.53c4.64,0.53,9.2,1.71,13.46,3.62c5.3,2.38,10.81,6.14,10.5,11.48
					c-0.46,7.93-5.49,9.34-7.67,9.58c-0.3,0.03-0.41,0.42-0.16,0.6c2.2,1.56,7.83,6.3,5.85,12.97c0,0.01-0.01,0.02-0.01,0.04
					c-1.88,5.05-6.66,6.26-8.42,6.54c-0.26,0.04-0.37,0.36-0.19,0.55c1.44,1.5,5.51,6.33,3.32,11.04c-2.08,4.47-5.11,5.88-6.29,6.28
					c-0.22,0.07-0.3,0.34-0.15,0.52c0.93,1.11,3.18,4.56,0.25,9.25c-0.04,0.06-0.07,0.11-0.11,0.17c-2.59,4.07-7.25,6.33-12.05,5.9
					c-2.33-0.21-5.01-0.48-7.13-0.75c-0.1-0.01-0.2,0.02-0.27,0.09c-0.91,0.9-7.67,6.88-28.34,8.73c-0.01,0-0.02,0-0.03,0
					c-0.75,0.01-33.27,0.19-44.24-4.39c-0.05-0.02-0.1-0.03-0.16-0.02c-1.49,0.19-22.97,2.89-43.07,6.07
					c-20.25,3.21-178.87,23.89-187.83,25.06c-0.21,0.03-0.38-0.14-0.37-0.35l4.24-65.48c0.01-0.17,0.14-0.3,0.31-0.31
					L478.56,1294.08z"/>
				<g>
					<line class="st175" x1="612.77" y1="1282.88" x2="582.86" y2="1277.77"/>
					<path class="st176" d="M612.77,1282.88c-2.57,0.05-5.11-0.13-7.63-0.38c-2.52-0.26-5.03-0.59-7.52-1.02
						c-2.49-0.42-4.97-0.94-7.43-1.53c-2.46-0.6-4.91-1.27-7.32-2.18c2.57-0.05,5.11,0.12,7.63,0.38c2.52,0.26,5.03,0.59,7.52,1.03
						c2.49,0.42,4.97,0.94,7.43,1.54C607.91,1281.31,610.36,1281.98,612.77,1282.88z"/>
				</g>
				<g>
					<line class="st175" x1="610.75" y1="1303" x2="583.24" y2="1299.27"/>
					<path class="st176" d="M610.75,1303c-2.36,0.17-4.68,0.11-7-0.03c-2.32-0.14-4.62-0.36-6.91-0.67
						c-2.29-0.3-4.57-0.71-6.84-1.19c-2.27-0.48-4.53-1.04-6.75-1.84c2.36-0.17,4.68-0.11,7,0.03c2.32,0.14,4.62,0.36,6.91,0.68
						c2.29,0.31,4.57,0.71,6.84,1.19C606.26,1301.65,608.52,1302.21,610.75,1303z"/>
				</g>
				<g>
					<line class="st175" x1="608.13" y1="1321.18" x2="583.46" y2="1318.74"/>
					<path class="st176" d="M608.13,1321.18c-2.1,0.28-4.18,0.33-6.26,0.29c-2.07-0.02-4.14-0.15-6.19-0.35
						c-2.06-0.21-4.1-0.48-6.14-0.87c-2.04-0.37-4.07-0.83-6.08-1.52c2.1-0.28,4.18-0.33,6.26-0.3c2.07,0.02,4.14,0.15,6.19,0.36
						c2.06,0.21,4.1,0.48,6.14,0.87C604.09,1320.04,606.12,1320.5,608.13,1321.18z"/>
				</g>
			</g>
			<g>
				<path class="st193" d="M387.27,1170.09c0,0,11.98,1.06,25.01,3.26c0.01,0,0.01,0,0.02,0c7.46,0.6,11.31-2.86,11.53-3.07
					c0.01-0.01,0.01-0.01,0.02-0.02c0.57-0.38,19.05-12.91,21.5-14.77c2.49-1.89,15.24-13.18,15.24-13.18s7.93-7.19,8.58-19.15
					c0-0.01,0-0.01,0-0.02c0.06-0.35,1.5-8.9,5.51-5.55c4.1,3.43,6.06,15.02,3.69,20.7c-2.17,5.2-11.88,16.69-13.51,18.59
					c-0.11,0.13-0.05,0.33,0.11,0.37l9.11,2.7c3.16,0.93,6.17,2.31,8.9,4.16c3.39,2.3,6.75,5.58,5.88,9.24
					c-1.29,5.45-4.95,5.81-6.49,5.71c-0.21-0.01-0.33,0.24-0.18,0.39c1.34,1.35,4.66,5.33,2.48,9.72c0,0.01-0.01,0.02-0.01,0.02
					c-1.92,3.28-5.38,3.53-6.64,3.51c-0.19,0-0.3,0.2-0.2,0.36c0.82,1.22,3.05,5.07,0.96,8.06c-1.99,2.85-4.26,3.46-5.13,3.59
					c-0.16,0.02-0.25,0.2-0.17,0.34c0.51,0.89,1.65,3.55-0.95,6.45c-0.03,0.04-0.06,0.07-0.1,0.11c-2.29,2.51-5.8,3.51-9.08,2.62
					c-1.59-0.43-3.42-0.94-4.85-1.39c-0.07-0.02-0.14-0.01-0.2,0.03c-0.74,0.51-6.16,3.84-20.73,2.59c-0.01,0-0.01,0-0.02,0
					c-0.52-0.09-23.11-3.93-30.16-8.44c-0.03-0.02-0.07-0.03-0.11-0.04c-1.06-0.05-16.29-0.8-30.62-1.04
					c-14.44-0.24-127.02-5.26-133.38-5.54c-0.15-0.01-0.25-0.14-0.21-0.29l10.93-44.92c0.03-0.11,0.14-0.19,0.25-0.18
					L387.27,1170.09z"/>
				<g>
					<line class="st178" x1="481.76" y1="1178.71" x2="461.64" y2="1171.51"/>
					<path class="st179" d="M481.76,1178.71c-1.84-0.15-3.6-0.51-5.34-0.95c-1.74-0.43-3.44-0.96-5.12-1.56
						c-1.68-0.6-3.33-1.27-4.95-2.04c-1.62-0.76-3.21-1.6-4.72-2.66c1.84,0.14,3.6,0.5,5.34,0.94c1.74,0.43,3.44,0.96,5.12,1.56
						c1.68,0.6,3.33,1.27,4.94,2.04C478.66,1176.81,480.25,1177.65,481.76,1178.71z"/>
				</g>
				<g>
					<line class="st178" x1="477.91" y1="1192.42" x2="459.27" y2="1186.47"/>
					<path class="st179" d="M477.91,1192.42c-1.7-0.03-3.33-0.29-4.93-0.62c-1.61-0.32-3.18-0.75-4.74-1.24
						c-1.55-0.5-3.08-1.06-4.58-1.73c-1.5-0.66-2.98-1.4-4.38-2.35c1.7,0.03,3.33,0.29,4.94,0.62c1.61,0.32,3.18,0.75,4.74,1.24
						c1.55,0.5,3.08,1.06,4.58,1.73C475.02,1190.72,476.5,1191.46,477.91,1192.42z"/>
				</g>
				<g>
					<line class="st178" x1="473.87" y1="1204.72" x2="457.05" y2="1200.01"/>
					<path class="st179" d="M473.87,1204.72c-1.53,0.07-3-0.08-4.45-0.3c-1.45-0.21-2.87-0.54-4.27-0.93
						c-1.4-0.39-2.78-0.85-4.14-1.42c-1.36-0.56-2.69-1.19-3.96-2.05c1.53-0.08,3,0.07,4.45,0.3c1.45,0.21,2.87,0.54,4.27,0.93
						c1.4,0.4,2.78,0.86,4.13,1.43C471.27,1203.22,472.6,1203.86,473.87,1204.72z"/>
				</g>
			</g>
			<g>
				<path class="st194" d="M386.01,1278.11c0,0,13.22-1.14,27.81-1.24c0.01,0,0.02,0,0.02,0c8.22-0.78,11.74-5.27,11.95-5.54
					c0.01-0.01,0.01-0.02,0.02-0.03c0.54-0.53,18.23-17.68,20.55-20.17c2.35-2.53,14.04-17.24,14.04-17.24s7.24-9.33,5.66-22.46
					c0-0.01,0-0.02,0-0.02c0-0.39-0.08-9.96,4.93-7.08c5.11,2.94,9.46,15.16,7.97,21.79c-1.37,6.07-9.72,20.41-11.13,22.79
					c-0.09,0.16,0.01,0.36,0.19,0.38l10.42,1.19c3.61,0.41,7.15,1.33,10.46,2.82c4.12,1.85,8.4,4.78,8.16,8.92
					c-0.36,6.17-4.27,7.26-5.96,7.44c-0.24,0.03-0.32,0.33-0.12,0.46c1.71,1.21,6.09,4.9,4.55,10.09c0,0.01-0.01,0.02-0.01,0.03
					c-1.47,3.93-5.18,4.87-6.55,5.08c-0.21,0.03-0.29,0.28-0.14,0.43c1.12,1.17,4.28,4.92,2.58,8.58c-1.62,3.48-3.97,4.57-4.89,4.88
					c-0.17,0.06-0.23,0.27-0.12,0.41c0.72,0.86,2.47,3.55,0.2,7.19c-0.03,0.04-0.06,0.09-0.08,0.13c-2.01,3.17-5.63,4.92-9.37,4.59
					c-1.81-0.16-3.89-0.37-5.54-0.59c-0.08-0.01-0.15,0.02-0.21,0.07c-0.7,0.7-5.96,5.35-22.04,6.78c-0.01,0-0.01,0-0.02,0
					c-0.59,0-25.87,0.15-34.4-3.41c-0.04-0.02-0.08-0.02-0.12-0.02c-1.16,0.15-17.86,2.24-33.49,4.72
					c-15.74,2.5-139.07,18.58-146.04,19.48c-0.16,0.02-0.3-0.11-0.29-0.27l3.29-50.91c0.01-0.13,0.11-0.23,0.24-0.24L386.01,1278.11
					z"/>
				<g>
					<line class="st181" x1="490.36" y1="1269.41" x2="467.1" y2="1265.43"/>
					<path class="st182" d="M490.36,1269.41c-2,0.02-3.97-0.13-5.93-0.34c-1.96-0.2-3.9-0.49-5.85-0.81
						c-1.94-0.35-3.87-0.71-5.78-1.18c-1.92-0.46-3.82-0.97-5.7-1.66c2-0.02,3.97,0.13,5.93,0.33c1.96,0.2,3.9,0.49,5.84,0.81
						c1.93,0.35,3.87,0.72,5.78,1.18C486.57,1268.21,488.48,1268.72,490.36,1269.41z"/>
				</g>
				<g>
					<line class="st181" x1="488.79" y1="1285.04" x2="467.4" y2="1282.14"/>
					<path class="st182" d="M488.79,1285.04c-1.83,0.12-3.64,0.07-5.44-0.05c-1.8-0.1-3.59-0.31-5.37-0.53
						c-1.78-0.26-3.56-0.54-5.32-0.92c-1.77-0.37-3.52-0.8-5.25-1.41c1.83-0.12,3.64-0.07,5.44,0.04c1.8,0.1,3.59,0.31,5.37,0.53
						c1.78,0.26,3.56,0.54,5.32,0.92C485.3,1284.01,487.05,1284.44,488.79,1285.04z"/>
				</g>
				<g>
					<line class="st181" x1="486.75" y1="1299.18" x2="467.57" y2="1297.28"/>
					<path class="st182" d="M486.75,1299.18c-1.63,0.17-3.25,0.18-4.86,0.13c-1.61-0.03-3.21-0.16-4.81-0.3
						c-1.6-0.17-3.19-0.36-4.78-0.65c-1.59-0.27-3.17-0.6-4.74-1.09c1.63-0.17,3.25-0.18,4.86-0.14c1.61,0.03,3.21,0.16,4.81,0.3
						c1.6,0.17,3.19,0.37,4.78,0.65C483.6,1298.37,485.19,1298.7,486.75,1299.18z"/>
				</g>
			</g>
			<g>
				<path class="st195" d="M344.8,1356.88c0,0,11.75-1.13,24.72-1.35c0.01,0,0.01,0,0.02,0c7.3-0.76,10.4-4.79,10.58-5.03
					c0.01-0.01,0.01-0.01,0.02-0.02c0.48-0.47,16.06-15.89,18.1-18.12c2.07-2.27,12.34-15.46,12.34-15.46s6.36-8.36,4.83-20.03
					c0-0.01,0-0.01,0-0.02c-0.01-0.34-0.16-8.86,4.33-6.34c4.57,2.57,8.55,13.4,7.28,19.31c-1.16,5.41-8.47,18.24-9.7,20.37
					c-0.08,0.14,0.01,0.32,0.17,0.34l9.28,0.97c3.21,0.33,6.37,1.12,9.33,2.41c3.68,1.61,7.52,4.17,7.34,7.87
					c-0.26,5.49-3.73,6.5-5.24,6.68c-0.21,0.02-0.28,0.29-0.1,0.41c1.54,1.06,5.46,4.31,4.14,8.93c0,0.01,0,0.02-0.01,0.02
					c-1.27,3.51-4.56,4.38-5.78,4.58c-0.18,0.03-0.25,0.25-0.12,0.38c1.01,1.03,3.85,4.34,2.37,7.61c-1.41,3.11-3.49,4.1-4.31,4.39
					c-0.15,0.05-0.2,0.24-0.1,0.36c0.65,0.76,2.23,3.13,0.24,6.4c-0.02,0.04-0.05,0.08-0.07,0.12c-1.76,2.83-4.97,4.43-8.29,4.16
					c-1.61-0.13-3.47-0.29-4.93-0.47c-0.07-0.01-0.14,0.01-0.19,0.06c-0.62,0.63-5.26,4.81-19.54,6.23c-0.01,0-0.01,0-0.02,0
					c-0.52,0.01-23.01,0.36-30.63-2.73c-0.04-0.01-0.07-0.02-0.11-0.01c-1.03,0.14-15.86,2.15-29.75,4.5
					c-13.98,2.36-123.55,17.75-129.74,18.62c-0.14,0.02-0.27-0.1-0.26-0.24l2.48-45.32c0.01-0.11,0.1-0.21,0.21-0.22L344.8,1356.88z
					"/>
				<g>
					<line class="st126" x1="437.55" y1="1348.22" x2="416.83" y2="1344.88"/>
					<path class="st184" d="M437.55,1348.22c-1.81,0.22-3.57,0.2-5.33,0.11c-1.76-0.1-3.49-0.3-5.22-0.57
						c-1.73-0.28-3.44-0.64-5.14-1.09c-1.7-0.47-3.38-1-5.03-1.78c1.81-0.23,3.58-0.2,5.33-0.11c1.76,0.1,3.49,0.3,5.22,0.58
						c1.73,0.28,3.44,0.64,5.14,1.09C434.22,1346.91,435.91,1347.44,437.55,1348.22z"/>
				</g>
				<g>
					<line class="st126" x1="436.29" y1="1362.14" x2="417.24" y2="1359.75"/>
					<path class="st184" d="M436.29,1362.14c-1.65,0.31-3.27,0.36-4.88,0.35c-1.61-0.02-3.21-0.14-4.8-0.34
						c-1.59-0.2-3.17-0.48-4.73-0.86c-1.56-0.39-3.12-0.84-4.64-1.55c1.65-0.31,3.27-0.36,4.88-0.36c1.61,0.02,3.21,0.14,4.8,0.34
						c1.59,0.2,3.16,0.48,4.73,0.86C433.21,1360.99,434.77,1361.44,436.29,1362.14z"/>
				</g>
				<g>
					<line class="st126" x1="434.61" y1="1374.74" x2="417.53" y2="1373.22"/>
					<path class="st184" d="M434.61,1374.74c-1.47,0.38-2.91,0.51-4.35,0.57c-1.44,0.05-2.87,0.01-4.29-0.12
						c-1.42-0.12-2.84-0.33-4.25-0.64c-1.41-0.32-2.81-0.7-4.18-1.34c1.47-0.38,2.91-0.51,4.36-0.58c1.44-0.05,2.87-0.01,4.29,0.12
						c1.42,0.13,2.84,0.34,4.25,0.64C431.83,1373.73,433.23,1374.1,434.61,1374.74z"/>
				</g>
			</g>
			<g>
				<path class="st196" d="M327.42,1224.35c0,0,9.67,0.85,20.19,2.63c0.01,0,0.01,0,0.02,0c6.02,0.48,9.13-2.31,9.31-2.48
					c0.01-0.01,0.01-0.01,0.02-0.02c0.46-0.31,15.38-10.42,17.36-11.93c2.01-1.52,12.3-10.64,12.3-10.64s6.4-5.8,6.92-15.46
					c0-0.01,0-0.01,0-0.02c0.05-0.28,1.21-7.19,4.45-4.48c3.31,2.77,4.89,12.12,2.98,16.71c-1.75,4.2-9.59,13.47-10.9,15.01
					c-0.09,0.1-0.04,0.26,0.09,0.3l7.36,2.18c2.55,0.75,4.98,1.86,7.18,3.35c2.73,1.85,5.45,4.51,4.75,7.46
					c-1.04,4.4-3.99,4.69-5.24,4.61c-0.17-0.01-0.27,0.2-0.15,0.32c1.08,1.09,3.76,4.3,2,7.84c0,0.01-0.01,0.01-0.01,0.02
					c-1.55,2.64-4.35,2.85-5.36,2.83c-0.15,0-0.24,0.17-0.16,0.29c0.66,0.98,2.46,4.09,0.77,6.51c-1.61,2.3-3.44,2.79-4.14,2.9
					c-0.13,0.02-0.2,0.16-0.13,0.28c0.41,0.71,1.33,2.87-0.77,5.21c-0.03,0.03-0.05,0.06-0.08,0.08c-1.85,2.03-4.68,2.83-7.33,2.12
					c-1.28-0.35-2.76-0.76-3.92-1.13c-0.06-0.02-0.11-0.01-0.16,0.02c-0.6,0.41-4.97,3.1-16.74,2.09c-0.01,0-0.01,0-0.02,0
					c-0.42-0.07-18.66-3.17-24.35-6.82c-0.03-0.02-0.06-0.03-0.09-0.03c-0.85-0.04-13.15-0.65-24.72-0.84
					c-11.66-0.2-102.54-4.25-107.67-4.47c-0.12-0.01-0.2-0.12-0.17-0.23l8.83-36.26c0.02-0.09,0.11-0.15,0.2-0.14L327.42,1224.35z"
					/>
				<g>
					<line class="st186" x1="403.7" y1="1231.31" x2="387.45" y2="1225.5"/>
					<path class="st187" d="M403.7,1231.31c-1.48-0.13-2.9-0.43-4.3-0.78c-1.4-0.35-2.77-0.79-4.13-1.26
						c-1.35-0.5-2.69-1.02-3.99-1.64c-1.31-0.61-2.6-1.28-3.82-2.13c1.48,0.13,2.9,0.42,4.3,0.78c1.4,0.35,2.77,0.79,4.13,1.26
						c1.35,0.5,2.69,1.02,3.99,1.64C401.18,1229.8,402.47,1230.47,403.7,1231.31z"/>
				</g>
				<g>
					<line class="st186" x1="400.58" y1="1242.37" x2="385.54" y2="1237.57"/>
					<path class="st187" d="M400.58,1242.37c-1.37-0.04-2.68-0.25-3.98-0.52c-1.3-0.26-2.56-0.62-3.82-1.01
						c-1.25-0.42-2.49-0.85-3.7-1.39c-1.21-0.53-2.41-1.12-3.54-1.88c1.37,0.04,2.68,0.25,3.98,0.52c1.3,0.26,2.56,0.62,3.82,1.01
						c1.25,0.42,2.49,0.85,3.7,1.39C398.25,1241.02,399.44,1241.61,400.58,1242.37z"/>
				</g>
				<g>
					<line class="st186" x1="397.32" y1="1252.3" x2="383.75" y2="1248.5"/>
					<path class="st187" d="M397.32,1252.3c-1.23,0.05-2.42-0.08-3.59-0.26c-1.17-0.19-2.32-0.44-3.45-0.76
						c-1.13-0.32-2.25-0.69-3.34-1.14c-1.09-0.46-2.17-0.96-3.2-1.64c1.23-0.05,2.42,0.08,3.59,0.26c1.17,0.19,2.32,0.44,3.45,0.76
						c1.13,0.32,2.25,0.69,3.34,1.14C395.22,1251.12,396.3,1251.62,397.32,1252.3z"/>
				</g>
			</g>
			<g>
				<path class="st197" d="M483.11,1378.72c0,0,11.48-2.75,24.3-4.77c0.01,0,0.01,0,0.02,0c7.13-1.77,9.63-6.19,9.78-6.45
					c0.01-0.01,0.01-0.02,0.02-0.03c0.41-0.53,13.7-17.96,15.41-20.46c1.73-2.54,10.07-17.03,10.07-17.03s5.14-9.16,2.01-20.51
					c0-0.01,0-0.01,0-0.02c-0.06-0.34-1.38-8.75,3.4-6.88c4.89,1.91,10.33,12.09,9.89,18.12c-0.4,5.52-5.85,19.24-6.77,21.52
					c-0.06,0.15,0.05,0.32,0.22,0.31l9.33-0.33c3.23-0.11,6.47,0.22,9.58,1.09c3.87,1.08,8.02,3.09,8.36,6.77
					c0.5,5.47-2.79,6.95-4.26,7.34c-0.2,0.05-0.23,0.33-0.05,0.42c1.67,0.84,6,3.51,5.34,8.27c0,0.01,0,0.02,0,0.03
					c-0.77,3.65-3.91,4.97-5.09,5.34c-0.18,0.06-0.22,0.28-0.07,0.4c1.14,0.88,4.42,3.77,3.41,7.21c-0.96,3.27-2.89,4.55-3.66,4.94
					c-0.14,0.07-0.17,0.27-0.05,0.37c0.75,0.67,2.65,2.79,1.12,6.3c-0.02,0.04-0.04,0.09-0.06,0.13c-1.35,3.05-4.31,5.07-7.64,5.27
					c-1.61,0.1-3.47,0.19-4.95,0.22c-0.07,0-0.13,0.03-0.18,0.09c-0.53,0.71-4.54,5.5-18.49,8.88c-0.01,0-0.01,0-0.02,0
					c-0.52,0.08-22.74,3.55-30.71,1.55c-0.04-0.01-0.07-0.01-0.11,0c-1,0.28-15.41,4.33-28.83,8.58
					c-13.52,4.28-213.73,62.04-219.74,63.76c-0.14,0.04-0.28-0.06-0.29-0.2l6.53-56.56c-0.01-0.11,0.07-0.22,0.18-0.24
					L483.11,1378.72z"/>
				<g>
					<line class="st172" x1="573.76" y1="1357.27" x2="552.78" y2="1356.84"/>
					<path class="st189" d="M573.76,1357.27c-1.76,0.65-3.52,0.97-5.27,1.19c-1.75,0.21-3.5,0.29-5.25,0.25
						c-1.75-0.03-3.49-0.18-5.24-0.46c-1.74-0.29-3.48-0.68-5.22-1.41c1.76-0.66,3.52-0.98,5.27-1.2c1.75-0.21,3.5-0.29,5.25-0.25
						c1.75,0.04,3.49,0.19,5.24,0.46C570.29,1356.16,572.03,1356.55,573.76,1357.27z"/>
				</g>
				<g>
					<line class="st172" x1="574.45" y1="1371.23" x2="555.25" y2="1371.51"/>
					<path class="st189" d="M574.45,1371.23c-1.59,0.71-3.18,1.09-4.78,1.37c-1.6,0.27-3.19,0.4-4.79,0.43
						c-1.6,0.03-3.2-0.06-4.8-0.28c-1.6-0.23-3.21-0.57-4.82-1.23c1.59-0.71,3.18-1.09,4.78-1.37c1.6-0.27,3.19-0.4,4.79-0.42
						c1.6-0.02,3.2,0.07,4.8,0.29C571.23,1370.24,572.84,1370.57,574.45,1371.23z"/>
				</g>
				<g>
					<line class="st172" x1="574.53" y1="1383.94" x2="557.4" y2="1384.81"/>
					<path class="st189" d="M574.53,1383.94c-1.39,0.76-2.8,1.18-4.22,1.51c-1.41,0.31-2.84,0.5-4.26,0.57
						c-1.43,0.07-2.86,0.03-4.3-0.14c-1.44-0.18-2.89-0.47-4.35-1.09c1.39-0.76,2.8-1.19,4.22-1.52c1.41-0.31,2.84-0.5,4.26-0.57
						c1.43-0.07,2.86-0.03,4.3,0.14C571.62,1383.05,573.07,1383.33,574.53,1383.94z"/>
				</g>
			</g>
		</g>
	</g>
</g>
<g id="контакты">
</g>
<g id="Слой_4">
</g>
</svg>
