<svg xmlns="http://www.w3.org/2000/svg" xmlns:xlink="http://www.w3.org/1999/xlink" viewBox="0 0 1920 1080"><defs><style>.cls-1{fill:none;}.cls-2{fill:#cfe2ff;}.cls-3{clip-path:url(#clip-path);}.cls-4{fill:#ffdcbf;stroke:#bfccff;}.cls-10,.cls-13,.cls-16,.cls-19,.cls-22,.cls-4,.cls-7{stroke-miterlimit:10;}.cls-22,.cls-4{stroke-width:5.43px;}.cls-5{fill:#e0fff7;}.cls-6{fill:#bfccff;}.cls-7{fill:#bfd8ff;stroke:#adbfff;}.cls-10,.cls-7{stroke-width:3.83px;}.cls-8{fill:#dbe9ff;}.cls-9{fill:#adbfff;}.cls-10,.cls-11{fill:#74a9f7;}.cls-10{stroke:#6384ff;}.cls-12{fill:#6384ff;}.cls-13,.cls-14{fill:#94c0ff;}.cls-13{stroke:#8fa7ff;stroke-width:4.22px;}.cls-15{fill:#8fa7ff;}.cls-16{fill:#ffc899;stroke:#87a1ff;stroke-width:4px;}.cls-17{fill:#a8ffe6;}.cls-18{fill:#87a1ff;}.cls-19,.cls-20{fill:#a1ffe6;}.cls-19{stroke:#a1b5ff;stroke-width:3px;}.cls-21{fill:#a1b5ff;}.cls-22{fill:#ccfff2;stroke:#bdcaff;}.cls-23{fill:#bdcaff;}</style><clipPath id="clip-path"><rect class="cls-1" y="-1" width="1920" height="1081"/></clipPath></defs><title>фон регистрация</title><g id="Слой_4" data-name="Слой 4"><rect class="cls-2" y="-1" width="1920" height="1081"/><g class="cls-3"><path class="cls-4" d="M284.19,343s26.51,8.84,54.78,20.83l0,0c16.53,5.36,27.1-.37,27.72-.73l.07,0c1.49-.56,50-18.93,56.57-21.81s41.55-21.6,41.55-21.6A69.25,69.25,0,0,0,494.63,281a.08.08,0,0,1,0-.05c.31-.76,8.17-19.32,15.45-9.57,7.42,9.95,5.61,37.21-2.81,48.78-7.71,10.58-35.84,31.32-40.55,34.76a.53.53,0,0,0,.05.9l19.15,11A74.59,74.59,0,0,1,503.82,381c6.42,7,12.24,16.26,8.31,24.07-5.84,11.62-14.31,10.47-17.75,9.41a.54.54,0,0,0-.62.79c2.3,3.77,7.67,14.56.37,23.3l0,0C488,445,480,443.71,477.19,443a.54.54,0,0,0-.64.71c1.19,3.19,4.17,13.09-2.18,18.74-6,5.37-11.5,5.53-13.53,5.36a.54.54,0,0,0-.57.69c.68,2.27,1.82,8.92-5.63,14.06l-.27.19a21.1,21.1,0,0,1-21.94,1c-3.36-1.82-7.22-4-10.22-5.76a.52.52,0,0,0-.47,0c-1.94.76-16,5.36-48.26-5.3l0,0c-1.14-.48-50.14-21.32-63.65-35.33a.46.46,0,0,0-.22-.14c-2.36-.69-36.39-10.58-68.67-18.85C208.39,410-43.43,338-57.65,334a.54.54,0,0,1-.33-.77l48.91-95.65a.53.53,0,0,1,.66-.26Z"/><line class="cls-5" x1="493.15" y1="413.37" x2="451.53" y2="386.26"/><path class="cls-6" d="M493.15,413.37a107.83,107.83,0,0,1-11.17-5.6c-3.62-2-7.15-4.19-10.62-6.44s-6.88-4.61-10.19-7.11a106.83,106.83,0,0,1-9.64-8,105,105,0,0,1,11.18,5.59c3.63,2,7.15,4.19,10.62,6.45s6.88,4.61,10.19,7.12A109.75,109.75,0,0,1,493.15,413.37Z"/><line class="cls-5" x1="477.05" y1="442.29" x2="438.13" y2="418.81"/><path class="cls-6" d="M477.05,442.29a94.62,94.62,0,0,1-10.48-4.63c-3.38-1.72-6.69-3.57-9.94-5.52s-6.42-4-9.52-6.21a92,92,0,0,1-9-7.12,91.17,91.17,0,0,1,10.48,4.62q5.08,2.58,9.94,5.53c3.24,2,6.42,4,9.52,6.21A92,92,0,0,1,477.05,442.29Z"/><line class="cls-5" x1="461.31" y1="467.92" x2="425.82" y2="448.22"/><path class="cls-6" d="M461.31,467.92a83,83,0,0,1-9.51-3.79q-4.6-2.14-9-4.61t-8.7-5.24a81.08,81.08,0,0,1-8.24-6.06,81,81,0,0,1,9.5,3.78c3.08,1.43,6.09,3,9,4.62s5.86,3.38,8.7,5.24A82.33,82.33,0,0,1,461.31,467.92Z"/><path class="cls-7" d="M259.93,595.09s27.84-2.4,58.55-2.62h0c17.31-1.64,24.73-11.09,25.17-11.67l0,0c1.15-1.11,38.4-37.23,43.27-42.47S416.58,502,416.58,502a69.23,69.23,0,0,0,11.91-47.3v-.05c0-.81-.16-21,10.39-14.91,10.76,6.19,19.92,31.92,16.77,45.88-2.87,12.78-20.46,43-23.43,48a.54.54,0,0,0,.41.81l21.95,2.51a74.15,74.15,0,0,1,22,5.92c8.68,3.89,17.69,10.06,17.19,18.79-.76,13-9,15.29-12.56,15.68a.54.54,0,0,0-.26,1c3.61,2.55,12.82,10.32,9.58,21.24a.08.08,0,0,1,0,.05c-3.08,8.28-10.9,10.25-13.78,10.71a.53.53,0,0,0-.3.9c2.36,2.46,9,10.37,5.43,18.07-3.4,7.32-8.36,9.64-10.3,10.29a.53.53,0,0,0-.24.85c1.52,1.82,5.21,7.47.41,15.15l-.17.28a21.12,21.12,0,0,1-19.73,9.65c-3.81-.34-8.2-.77-11.67-1.23a.5.5,0,0,0-.44.15c-1.49,1.47-12.56,11.27-46.41,14.28h0c-1.23,0-54.47.31-72.43-7.18a.48.48,0,0,0-.26,0c-2.45.3-37.61,4.72-70.52,9.94-33.15,5.26-292.84,39.12-307.51,41a.54.54,0,0,1-.61-.57l6.94-107.21a.55.55,0,0,1,.51-.51Z"/><line class="cls-8" x1="479.67" y1="576.77" x2="430.7" y2="568.39"/><path class="cls-9" d="M479.67,576.77a105.81,105.81,0,0,1-12.5-.62q-6.19-.63-12.31-1.69T442.69,572a106.09,106.09,0,0,1-12-3.58,105.82,105.82,0,0,1,12.5.61q6.18.63,12.31,1.7c4.08.7,8.13,1.52,12.17,2.5A106,106,0,0,1,479.67,576.77Z"/><line class="cls-8" x1="476.36" y1="609.7" x2="431.32" y2="603.59"/><path class="cls-9" d="M476.36,609.7a91.25,91.25,0,0,1-11.46,0q-5.68-.36-11.32-1.12t-11.2-1.93a88.83,88.83,0,0,1-11.06-3,89.39,89.39,0,0,1,11.46,0q5.69.35,11.31,1.12t11.21,1.93A91.59,91.59,0,0,1,476.36,609.7Z"/><line class="cls-8" x1="472.08" y1="639.47" x2="431.68" y2="635.47"/><path class="cls-9" d="M472.08,639.47a70.78,70.78,0,0,1-10.25.49c-3.39-.05-6.77-.25-10.14-.58s-6.72-.8-10.06-1.41a71,71,0,0,1-9.95-2.5,70.71,70.71,0,0,1,10.25-.49q5.08.07,10.14.59c3.36.34,6.72.8,10.05,1.41A72.16,72.16,0,0,1,472.08,639.47Z"/><path class="cls-10" d="M110.48,392.1s19.61,1.73,41,5.33h0c12.21,1,18.51-4.68,18.89-5l0,0c.92-.63,31.18-21.15,35.2-24.19s24.95-21.59,24.95-21.59a48.75,48.75,0,0,0,14-31.36,0,0,0,0,1,0,0c.09-.57,2.44-14.58,9-9.08s9.93,24.58,6,33.88c-3.55,8.52-19.45,27.32-22.11,30.45a.38.38,0,0,0,.18.61l14.92,4.42a52.24,52.24,0,0,1,14.57,6.8c5.54,3.76,11,9.14,9.63,15.13-2.11,8.92-8.1,9.52-10.63,9.35a.38.38,0,0,0-.3.64c2.19,2.22,7.63,8.73,4.06,15.91a.08.08,0,0,0,0,0c-3.15,5.36-8.82,5.78-10.87,5.74a.38.38,0,0,0-.32.59c1.33,2,5,8.3,1.56,13.21-3.25,4.66-7,5.66-8.4,5.87a.38.38,0,0,0-.27.57c.83,1.45,2.7,5.82-1.57,10.56l-.15.17a14.87,14.87,0,0,1-14.87,4.29c-2.6-.7-5.59-1.54-7.95-2.28a.33.33,0,0,0-.32.05c-1.21.84-10.09,6.29-33.95,4.25h0c-.86-.14-37.84-6.43-49.38-13.82a.3.3,0,0,0-.18-.06c-1.73-.09-26.67-1.31-50.14-1.71-23.64-.4-208-8.61-218.38-9.07a.39.39,0,0,1-.35-.47l17.9-73.54a.39.39,0,0,1,.42-.29Z"/><line class="cls-11" x1="265.18" y1="406.21" x2="232.23" y2="394.42"/><path class="cls-12" d="M265.18,406.21a54.69,54.69,0,0,1-8.74-1.54c-2.84-.72-5.63-1.58-8.38-2.56s-5.44-2.08-8.1-3.33a53.89,53.89,0,0,1-7.73-4.36A52.47,52.47,0,0,1,241,396c2.84.72,5.63,1.58,8.37,2.56s5.45,2.09,8.1,3.34A53.36,53.36,0,0,1,265.18,406.21Z"/><line class="cls-11" x1="258.87" y1="428.65" x2="228.36" y2="418.92"/><path class="cls-12" d="M258.87,428.65a45.54,45.54,0,0,1-8.08-1,76.3,76.3,0,0,1-7.76-2,73.79,73.79,0,0,1-7.5-2.82,44.85,44.85,0,0,1-7.17-3.86,44.86,44.86,0,0,1,8.09,1,76.8,76.8,0,0,1,7.75,2,78.94,78.94,0,0,1,7.5,2.83A45.67,45.67,0,0,1,258.87,428.65Z"/><line class="cls-11" x1="252.26" y1="448.79" x2="224.72" y2="441.08"/><path class="cls-12" d="M252.26,448.79a37.34,37.34,0,0,1-7.29-.48,63,63,0,0,1-7-1.53,60.89,60.89,0,0,1-6.78-2.32,36.74,36.74,0,0,1-6.48-3.38,36.53,36.53,0,0,1,7.29.48,61.45,61.45,0,0,1,7,1.53,63.66,63.66,0,0,1,6.77,2.33A36.35,36.35,0,0,1,252.26,448.79Z"/><path class="cls-13" d="M108.41,569s21.64-1.87,45.52-2h0c13.45-1.28,19.23-8.63,19.56-9.07l0,0c.89-.87,29.85-28.95,33.64-33s23-28.23,23-28.23a53.84,53.84,0,0,0,9.27-36.77.08.08,0,0,1,0,0c0-.64-.12-16.31,8.08-11.6,8.37,4.82,15.49,24.83,13,35.68-2.23,9.93-15.91,33.41-18.21,37.32a.42.42,0,0,0,.31.63l17.07,2a57.62,57.62,0,0,1,17.13,4.61c6.75,3,13.76,7.82,13.36,14.61-.59,10.09-7,11.88-9.76,12.18a.42.42,0,0,0-.2.76c2.8,2,10,8,7.45,16.52,0,0,0,0,0,0-2.4,6.44-8.47,8-10.71,8.32a.42.42,0,0,0-.24.71c1.83,1.91,7,8.06,4.23,14-2.65,5.69-6.51,7.49-8,8a.42.42,0,0,0-.19.67c1.18,1.42,4,5.81.32,11.77l-.14.22a16.41,16.41,0,0,1-15.34,7.51c-3-.27-6.37-.6-9.07-1a.39.39,0,0,0-.35.12c-1.15,1.14-9.76,8.76-36.08,11.1h0c-1,0-42.36.24-56.32-5.59a.51.51,0,0,0-.21,0c-1.89.24-29.23,3.68-54.82,7.73C75,640.14-126.95,666.47-138.35,668a.41.41,0,0,1-.47-.44l5.39-83.36a.41.41,0,0,1,.39-.39Z"/><line class="cls-14" x1="279.25" y1="554.7" x2="241.18" y2="548.19"/><path class="cls-15" d="M279.25,554.7a84.47,84.47,0,0,1-9.7-.55q-4.82-.51-9.57-1.32c-3.17-.54-6.33-1.19-9.46-1.93a84.8,84.8,0,0,1-9.34-2.71,82.32,82.32,0,0,1,9.71.54c3.2.34,6.4.78,9.57,1.33s6.32,1.19,9.46,1.93A84,84,0,0,1,279.25,554.7Z"/><line class="cls-14" x1="276.68" y1="580.3" x2="241.66" y2="575.56"/><path class="cls-15" d="M276.68,580.3a69.47,69.47,0,0,1-8.9-.07c-2.95-.19-5.88-.47-8.8-.87s-5.82-.9-8.71-1.5a69.73,69.73,0,0,1-8.61-2.3,67.86,67.86,0,0,1,8.91.07c2.94.19,5.88.47,8.8.87s5.82.9,8.71,1.5A71.4,71.4,0,0,1,276.68,580.3Z"/><line class="cls-14" x1="273.35" y1="603.45" x2="241.95" y2="600.34"/><path class="cls-15" d="M273.35,603.45a60.47,60.47,0,0,1-8,.22c-2.64,0-5.26-.23-7.88-.49s-5.22-.6-7.82-1.06a58.64,58.64,0,0,1-7.75-1.78,62.25,62.25,0,0,1,8-.22c2.63.06,5.26.24,7.88.5s5.22.6,7.82,1.06A62,62,0,0,1,273.35,603.45Z"/><path class="cls-16" d="M41,697.92s19.24-1.86,40.47-2.22h0c12-1.25,17-7.84,17.32-8.24a.08.08,0,0,1,0,0c.78-.77,26.3-26,29.63-29.67s20.2-25.32,20.2-25.32a47.86,47.86,0,0,0,7.92-32.79s0,0,0,0c0-.56-.25-14.5,7.08-10.38,7.49,4.2,14,21.94,11.92,31.62-1.9,8.86-13.86,29.86-15.87,33.36a.37.37,0,0,0,.28.55l15.2,1.59a51.46,51.46,0,0,1,15.28,3.94c6,2.63,12.31,6.84,12,12.88-.44,9-6.11,10.64-8.58,10.93a.37.37,0,0,0-.17.68c2.51,1.74,8.93,7.05,6.77,14.62v0c-2.08,5.75-7.47,7.17-9.46,7.5a.37.37,0,0,0-.21.63c1.65,1.68,6.31,7.11,3.89,12.46-2.3,5.08-5.72,6.72-7,7.18a.38.38,0,0,0-.17.6c1.07,1.25,3.66,5.13.39,10.47l-.12.19a14.6,14.6,0,0,1-13.57,6.82c-2.64-.21-5.68-.49-8.08-.78a.39.39,0,0,0-.31.11c-1,1-8.61,7.88-32,10.2h0c-.85,0-37.68.59-50.15-4.47a.37.37,0,0,0-.18,0c-1.69.23-26,3.52-48.7,7.36-22.89,3.86-202.28,29.07-212.41,30.49a.38.38,0,0,1-.42-.39l4.06-74.2a.37.37,0,0,1,.35-.35Z"/><line class="cls-17" x1="192.8" y1="683.73" x2="158.88" y2="678.28"/><path class="cls-18" d="M192.8,683.73a50.13,50.13,0,0,1-8.73.19c-2.87-.17-5.72-.49-8.55-.94a81.17,81.17,0,0,1-8.41-1.79,49.82,49.82,0,0,1-8.23-2.91,49.15,49.15,0,0,1,8.73-.19,81.08,81.08,0,0,1,8.54.94c2.83.46,5.64,1.05,8.42,1.79A50.47,50.47,0,0,1,192.8,683.73Z"/><line class="cls-17" x1="190.74" y1="706.53" x2="159.54" y2="702.62"/><path class="cls-18" d="M190.74,706.53a41.85,41.85,0,0,1-8,.58,72.22,72.22,0,0,1-15.59-2,42.5,42.5,0,0,1-7.61-2.54,42.69,42.69,0,0,1,8-.59,72.24,72.24,0,0,1,15.59,2A41.93,41.93,0,0,1,190.74,706.53Z"/><line class="cls-17" x1="187.98" y1="727.15" x2="160.01" y2="724.66"/><path class="cls-18" d="M188,727.15a33.88,33.88,0,0,1-7.13.94,57.23,57.23,0,0,1-14-1.24,33.33,33.33,0,0,1-6.86-2.19,34.05,34.05,0,0,1,7.14-.94,58,58,0,0,1,14,1.25A34.67,34.67,0,0,1,188,727.15Z"/><path class="cls-19" d="M12.49,480.93s15.83,1.4,33.05,4.31h0c9.86.79,14.94-3.78,15.24-4.05l0,0c.75-.51,25.17-17.07,28.42-19.52s20.14-17.43,20.14-17.43a39.32,39.32,0,0,0,11.33-25.31v0c.08-.46,2-11.77,7.29-7.33s8,19.84,4.87,27.35c-2.87,6.88-15.69,22.05-17.85,24.58a.31.31,0,0,0,.15.49l12,3.57A42.1,42.1,0,0,1,139,473c4.48,3,8.92,7.38,7.77,12.22-1.7,7.19-6.53,7.67-8.57,7.54a.3.3,0,0,0-.24.52c1.77,1.79,6.16,7,3.27,12.84l0,0a9.8,9.8,0,0,1-8.77,4.64.3.3,0,0,0-.26.47c1.08,1.61,4,6.7,1.26,10.66-2.62,3.76-5.63,4.57-6.78,4.75a.3.3,0,0,0-.22.45c.67,1.17,2.18,4.7-1.26,8.52a.86.86,0,0,1-.13.14,12,12,0,0,1-12,3.47c-2.1-.57-4.51-1.25-6.41-1.84a.27.27,0,0,0-.26,0c-1,.67-8.15,5.07-27.4,3.42h0c-.69-.12-30.54-5.19-39.86-11.16a.26.26,0,0,0-.15,0c-1.39-.07-21.52-1.06-40.47-1.38s-167.88-7-176.28-7.33a.3.3,0,0,1-.28-.38l14.45-59.36a.3.3,0,0,1,.33-.23Z"/><line class="cls-20" x1="137.37" y1="492.33" x2="110.77" y2="482.81"/><path class="cls-21" d="M137.37,492.33a45.41,45.41,0,0,1-7.05-1.28c-2.29-.58-4.54-1.28-6.76-2.07s-4.39-1.68-6.54-2.68a45.88,45.88,0,0,1-6.25-3.49,44.25,44.25,0,0,1,7,1.27c2.29.58,4.54,1.28,6.75,2.07s4.4,1.69,6.55,2.69A44.84,44.84,0,0,1,137.37,492.33Z"/><line class="cls-20" x1="132.27" y1="510.44" x2="107.65" y2="502.58"/><path class="cls-21" d="M132.27,510.44a38.63,38.63,0,0,1-6.51-.84c-2.12-.45-4.2-1-6.26-1.66a61.52,61.52,0,0,1-6.06-2.27,36.72,36.72,0,0,1-5.79-3.09,38.63,38.63,0,0,1,6.51.84c2.12.45,4.2,1,6.25,1.66a62.23,62.23,0,0,1,6.06,2.28A37.6,37.6,0,0,1,132.27,510.44Z"/><line class="cls-20" x1="126.94" y1="526.7" x2="104.71" y2="520.48"/><path class="cls-21" d="M126.94,526.7a30.06,30.06,0,0,1-5.88-.43,48.85,48.85,0,0,1-5.64-1.24,51,51,0,0,1-5.47-1.86,29.85,29.85,0,0,1-5.24-2.69,29.16,29.16,0,0,1,5.87.42,48.56,48.56,0,0,1,5.65,1.24A51.88,51.88,0,0,1,121.7,524,30.21,30.21,0,0,1,126.94,526.7Z"/><path class="cls-22" d="M267.39,733.67s18.8-4.51,39.78-7.81h0c11.66-2.9,15.77-10.13,16-10.56,0,0,0,0,0,0,.66-.88,22.43-29.41,25.23-33.5S365,653.87,365,653.87a47.9,47.9,0,0,0,3.29-33.57s0,0,0,0c-.09-.55-2.27-14.33,5.57-11.26,8,3.12,16.91,19.79,16.19,29.66-.65,9-9.58,31.49-11.09,35.24a.37.37,0,0,0,.36.51l15.27-.54a51.17,51.17,0,0,1,15.68,1.79c6.34,1.77,13.14,5.06,13.69,11.08.81,9-4.58,11.38-7,12a.37.37,0,0,0-.08.69c2.73,1.38,9.83,5.74,8.74,13.54v0c-1.26,6-6.4,8.14-8.33,8.74a.37.37,0,0,0-.11.65c1.87,1.44,7.23,6.17,5.58,11.8-1.58,5.36-4.73,7.45-6,8.1a.37.37,0,0,0-.08.61c1.23,1.09,4.33,4.57,1.84,10.31l-.09.21a14.61,14.61,0,0,1-12.51,8.64c-2.64.15-5.68.31-8.1.35a.34.34,0,0,0-.29.15c-.87,1.15-7.43,9-30.28,14.54h0c-.84.14-37.23,5.82-50.28,2.54a.28.28,0,0,0-.18,0c-1.64.46-25.24,7.1-47.21,14.05-22.14,7-349.93,101.57-359.76,104.39a.38.38,0,0,1-.48-.33L-80,805.17a.37.37,0,0,1,.29-.4Z"/><line class="cls-5" x1="415.81" y1="698.55" x2="381.46" y2="697.86"/><path class="cls-23" d="M415.81,698.55a38.61,38.61,0,0,1-8.63,2,63.58,63.58,0,0,1-8.6.41,62,62,0,0,1-8.58-.76,38,38,0,0,1-8.54-2.3,37.42,37.42,0,0,1,8.63-2,61.92,61.92,0,0,1,8.6-.41,63.44,63.44,0,0,1,8.57.76A38.48,38.48,0,0,1,415.81,698.55Z"/><line class="cls-5" x1="416.93" y1="721.42" x2="385.49" y2="721.87"/><path class="cls-23" d="M416.93,721.42a32.83,32.83,0,0,1-7.83,2.24,53.25,53.25,0,0,1-7.85.7,52,52,0,0,1-7.87-.47,32.5,32.5,0,0,1-7.89-2,32.54,32.54,0,0,1,7.83-2.25A53.55,53.55,0,0,1,409,719.4,32.5,32.5,0,0,1,416.93,721.42Z"/><line class="cls-5" x1="417.06" y1="742.22" x2="389.02" y2="743.64"/><path class="cls-23" d="M417.06,742.22a26.9,26.9,0,0,1-6.9,2.48,42.71,42.71,0,0,1-14,.72,26.46,26.46,0,0,1-7.12-1.78,26.57,26.57,0,0,1,6.9-2.49,41.62,41.62,0,0,1,7-.93,42.54,42.54,0,0,1,7,.23A26.81,26.81,0,0,1,417.06,742.22Z"/><path class="cls-4" d="M1650.22,343s-26.51,8.84-54.78,20.83l0,0c-16.53,5.36-27.1-.37-27.72-.73l-.07,0c-1.49-.56-50-18.93-56.57-21.81s-41.55-21.6-41.55-21.6a69.25,69.25,0,0,1-29.7-38.68.08.08,0,0,0,0-.05c-.31-.76-8.17-19.32-15.45-9.57-7.42,9.95-5.61,37.21,2.81,48.78,7.71,10.58,35.84,31.32,40.55,34.76a.53.53,0,0,1-.05.9l-19.15,11A74.59,74.59,0,0,0,1430.59,381c-6.42,7-12.24,16.26-8.31,24.07,5.84,11.62,14.31,10.47,17.74,9.41a.54.54,0,0,1,.63.79c-2.3,3.77-7.67,14.56-.37,23.3l0,0c6.12,6.37,14.07,5.09,16.9,4.36a.54.54,0,0,1,.64.71c-1.19,3.19-4.17,13.09,2.18,18.74,6,5.37,11.49,5.53,13.53,5.36a.54.54,0,0,1,.57.69c-.68,2.27-1.82,8.92,5.63,14.06l.27.19a21.1,21.1,0,0,0,21.94,1c3.36-1.82,7.22-4,10.22-5.76a.52.52,0,0,1,.47,0c1.94.76,16,5.36,48.26-5.3l0,0c1.14-.48,50.14-21.32,63.64-35.33a.55.55,0,0,1,.23-.14c2.36-.69,36.39-10.58,68.67-18.85C1726,410,1977.84,338,1992.06,334a.54.54,0,0,0,.33-.77l-48.91-95.65a.53.53,0,0,0-.66-.26Z"/><line class="cls-5" x1="1441.26" y1="413.37" x2="1482.88" y2="386.26"/><path class="cls-6" d="M1441.26,413.37a109.75,109.75,0,0,1,9.63-7.95c3.31-2.51,6.72-4.86,10.19-7.12s7-4.43,10.62-6.45a105,105,0,0,1,11.18-5.59,108.24,108.24,0,0,1-9.64,8c-3.31,2.5-6.72,4.85-10.19,7.11s-7,4.42-10.62,6.44A107.83,107.83,0,0,1,1441.26,413.37Z"/><line class="cls-5" x1="1457.36" y1="442.29" x2="1496.28" y2="418.81"/><path class="cls-6" d="M1457.36,442.29a92,92,0,0,1,9-7.12c3.1-2.19,6.28-4.25,9.52-6.21s6.55-3.81,9.93-5.53a92.1,92.1,0,0,1,10.49-4.62,92,92,0,0,1-9,7.12c-3.1,2.19-6.28,4.25-9.52,6.21s-6.56,3.8-9.94,5.52A94.62,94.62,0,0,1,1457.36,442.29Z"/><line class="cls-5" x1="1473.1" y1="467.92" x2="1508.59" y2="448.22"/><path class="cls-6" d="M1473.1,467.92a82.33,82.33,0,0,1,8.25-6.06q4.26-2.79,8.69-5.24c3-1.64,6-3.19,9-4.62a81,81,0,0,1,9.5-3.78,81.08,81.08,0,0,1-8.24,6.06q-4.26,2.79-8.7,5.24t-9,4.61A83,83,0,0,1,1473.1,467.92Z"/><path class="cls-7" d="M1674.48,595.09s-27.84-2.4-58.55-2.62h0c-17.31-1.64-24.73-11.09-25.17-11.67l0,0c-1.15-1.11-38.4-37.23-43.27-42.47S1517.83,502,1517.83,502a69.23,69.23,0,0,1-11.91-47.3v-.05c0-.81.16-21-10.39-14.91-10.76,6.19-19.92,31.92-16.77,45.88,2.87,12.78,20.46,43,23.43,48a.54.54,0,0,1-.41.81l-22,2.51a74.15,74.15,0,0,0-22,5.92c-8.68,3.89-17.69,10.06-17.19,18.79.76,13,9,15.29,12.56,15.68a.54.54,0,0,1,.26,1c-3.61,2.55-12.82,10.32-9.58,21.24a.08.08,0,0,0,0,.05c3.08,8.28,10.9,10.25,13.78,10.71a.53.53,0,0,1,.3.9c-2.36,2.46-9,10.37-5.43,18.07,3.4,7.32,8.36,9.64,10.3,10.29a.53.53,0,0,1,.24.85c-1.52,1.82-5.21,7.47-.41,15.15l.17.28a21.12,21.12,0,0,0,19.73,9.65c3.81-.34,8.2-.77,11.67-1.23a.5.5,0,0,1,.44.15c1.49,1.47,12.56,11.27,46.41,14.28h0c1.23,0,54.47.31,72.43-7.18a.48.48,0,0,1,.26,0c2.45.3,37.61,4.72,70.52,9.94,33.15,5.26,292.84,39.12,307.51,41a.54.54,0,0,0,.61-.57l-6.94-107.21a.55.55,0,0,0-.51-.51Z"/><line class="cls-8" x1="1454.74" y1="576.77" x2="1503.71" y2="568.39"/><path class="cls-9" d="M1454.74,576.77a106,106,0,0,1,12-3.57c4-1,8.09-1.8,12.17-2.5s8.18-1.28,12.31-1.7a105.82,105.82,0,0,1,12.5-.61,106.09,106.09,0,0,1-12,3.58q-6,1.46-12.17,2.49t-12.31,1.69A105.81,105.81,0,0,1,1454.74,576.77Z"/><line class="cls-8" x1="1458.05" y1="609.7" x2="1503.09" y2="603.59"/><path class="cls-9" d="M1458.05,609.7a91.59,91.59,0,0,1,11.06-3q5.58-1.17,11.21-1.93t11.31-1.12a89.39,89.39,0,0,1,11.46,0,88.83,88.83,0,0,1-11.06,3q-5.57,1.17-11.2,1.93t-11.32,1.12A91.25,91.25,0,0,1,1458.05,609.7Z"/><line class="cls-8" x1="1462.33" y1="639.47" x2="1502.73" y2="635.47"/><path class="cls-9" d="M1462.33,639.47a72.38,72.38,0,0,1,10-2.49c3.34-.61,6.7-1.07,10.06-1.41s6.75-.54,10.14-.59a70.71,70.71,0,0,1,10.25.49,71,71,0,0,1-10,2.5q-5,.91-10.06,1.41c-3.37.33-6.75.53-10.14.58A70.78,70.78,0,0,1,1462.33,639.47Z"/><path class="cls-10" d="M1823.93,392.1s-19.61,1.73-41,5.33h0c-12.21,1-18.51-4.68-18.89-5l0,0c-.92-.63-31.18-21.15-35.2-24.19s-25-21.59-25-21.59a48.75,48.75,0,0,1-14-31.36,0,0,0,0,0,0,0c-.09-.57-2.44-14.58-9-9.08s-9.93,24.58-6,33.88c3.55,8.52,19.45,27.32,22.11,30.45a.38.38,0,0,1-.18.61l-14.92,4.42a52.24,52.24,0,0,0-14.57,6.8c-5.54,3.76-11,9.14-9.63,15.13,2.11,8.92,8.1,9.52,10.63,9.35a.38.38,0,0,1,.3.64c-2.19,2.22-7.63,8.73-4.06,15.91a.08.08,0,0,1,0,0c3.15,5.36,8.82,5.78,10.87,5.74a.38.38,0,0,1,.32.59c-1.33,2-5,8.3-1.56,13.21,3.25,4.66,7,5.66,8.4,5.87a.38.38,0,0,1,.27.57c-.83,1.45-2.7,5.82,1.57,10.56l.15.17a14.87,14.87,0,0,0,14.87,4.29c2.6-.7,5.59-1.54,8-2.28a.33.33,0,0,1,.32.05c1.21.84,10.09,6.29,34,4.25h0c.86-.14,37.84-6.43,49.38-13.82a.3.3,0,0,1,.18-.06c1.73-.09,26.67-1.31,50.14-1.71,23.64-.4,208-8.61,218.38-9.07a.39.39,0,0,0,.35-.47l-17.9-73.54a.39.39,0,0,0-.42-.29Z"/><line class="cls-11" x1="1669.23" y1="406.21" x2="1702.18" y2="394.42"/><path class="cls-12" d="M1669.23,406.21a53.36,53.36,0,0,1,7.73-4.36c2.65-1.25,5.35-2.35,8.1-3.34s5.53-1.84,8.37-2.56a52.47,52.47,0,0,1,8.75-1.53,53.89,53.89,0,0,1-7.73,4.36c-2.66,1.25-5.36,2.35-8.1,3.33s-5.54,1.84-8.38,2.56A54.69,54.69,0,0,1,1669.23,406.21Z"/><line class="cls-11" x1="1675.54" y1="428.65" x2="1706.05" y2="418.92"/><path class="cls-12" d="M1675.54,428.65a45.67,45.67,0,0,1,7.17-3.86,78.94,78.94,0,0,1,7.5-2.83,76.11,76.11,0,0,1,7.75-2,44.86,44.86,0,0,1,8.09-1,44.85,44.85,0,0,1-7.17,3.86,73.79,73.79,0,0,1-7.5,2.82,76.3,76.3,0,0,1-7.76,2A45.54,45.54,0,0,1,1675.54,428.65Z"/><line class="cls-11" x1="1682.15" y1="448.79" x2="1709.69" y2="441.08"/><path class="cls-12" d="M1682.15,448.79a36.35,36.35,0,0,1,6.48-3.37,63.66,63.66,0,0,1,6.77-2.33,61.45,61.45,0,0,1,7-1.53,36.53,36.53,0,0,1,7.29-.48,36.74,36.74,0,0,1-6.48,3.38,60.89,60.89,0,0,1-6.78,2.32,63,63,0,0,1-7,1.53A37.34,37.34,0,0,1,1682.15,448.79Z"/><path class="cls-13" d="M1826,569s-21.64-1.87-45.52-2h0c-13.45-1.28-19.23-8.63-19.56-9.07l0,0c-.89-.87-29.85-28.95-33.64-33s-23-28.23-23-28.23a53.84,53.84,0,0,1-9.27-36.77.08.08,0,0,0,0,0c0-.64.12-16.31-8.08-11.6-8.37,4.82-15.49,24.83-13,35.68,2.23,9.93,15.91,33.41,18.21,37.32a.42.42,0,0,1-.31.63l-17.07,2a57.54,57.54,0,0,0-17.13,4.61c-6.75,3-13.76,7.82-13.36,14.61.59,10.09,7,11.88,9.76,12.18a.42.42,0,0,1,.2.76c-2.8,2-10,8-7.45,16.52l0,0c2.4,6.44,8.47,8,10.71,8.32a.42.42,0,0,1,.24.71c-1.83,1.91-7,8.06-4.23,14,2.65,5.69,6.5,7.49,8,8a.42.42,0,0,1,.19.67c-1.18,1.42-4,5.81-.32,11.77l.14.22a16.41,16.41,0,0,0,15.34,7.51c3-.27,6.37-.6,9.07-1a.37.37,0,0,1,.34.12c1.16,1.14,9.77,8.76,36.09,11.1h0c1,0,42.36.24,56.32-5.59a.51.51,0,0,1,.21,0c1.89.24,29.23,3.68,54.82,7.73,25.78,4.09,227.7,30.42,239.1,31.9a.41.41,0,0,0,.47-.44l-5.39-83.36a.42.42,0,0,0-.4-.39Z"/><line class="cls-14" x1="1655.16" y1="554.7" x2="1693.23" y2="548.19"/><path class="cls-15" d="M1655.16,554.7a84,84,0,0,1,9.33-2.71c3.14-.74,6.29-1.39,9.46-1.93s6.37-1,9.57-1.33a82.32,82.32,0,0,1,9.71-.54,84.8,84.8,0,0,1-9.34,2.71c-3.13.74-6.29,1.39-9.46,1.93s-6.37,1-9.57,1.32A84.47,84.47,0,0,1,1655.16,554.7Z"/><line class="cls-14" x1="1657.73" y1="580.3" x2="1692.75" y2="575.56"/><path class="cls-15" d="M1657.73,580.3a71.4,71.4,0,0,1,8.6-2.3c2.89-.6,5.8-1.11,8.71-1.5s5.85-.68,8.8-.87a67.86,67.86,0,0,1,8.91-.07,69.73,69.73,0,0,1-8.61,2.3c-2.89.6-5.79,1.11-8.71,1.5s-5.85.68-8.8.87A69.47,69.47,0,0,1,1657.73,580.3Z"/><line class="cls-14" x1="1661.06" y1="603.45" x2="1692.46" y2="600.34"/><path class="cls-15" d="M1661.06,603.45a62,62,0,0,1,7.75-1.77c2.6-.46,5.21-.8,7.82-1.06s5.25-.44,7.88-.5a62.25,62.25,0,0,1,8,.22,58.64,58.64,0,0,1-7.75,1.78c-2.6.46-5.21.8-7.82,1.06s-5.24.44-7.88.49A60.47,60.47,0,0,1,1661.06,603.45Z"/><path class="cls-16" d="M1893.46,697.92s-19.24-1.86-40.47-2.22h0c-12-1.25-17-7.84-17.32-8.24l0,0c-.78-.77-26.3-26-29.63-29.67s-20.2-25.32-20.2-25.32a47.86,47.86,0,0,1-7.92-32.79s0,0,0,0c0-.56.25-14.5-7.08-10.38-7.49,4.2-14,21.94-11.92,31.62,1.9,8.86,13.86,29.86,15.87,33.36a.37.37,0,0,1-.29.55l-15.19,1.59a51.46,51.46,0,0,0-15.28,3.94c-6,2.63-12.31,6.84-12,12.88.44,9,6.11,10.64,8.58,10.93a.37.37,0,0,1,.17.68c-2.51,1.74-8.93,7.05-6.77,14.62v0c2.08,5.75,7.47,7.17,9.46,7.5a.37.37,0,0,1,.2.63c-1.64,1.68-6.3,7.11-3.88,12.46,2.3,5.08,5.72,6.72,7,7.18a.38.38,0,0,1,.17.6c-1.07,1.25-3.66,5.13-.39,10.47l.12.19a14.6,14.6,0,0,0,13.57,6.82c2.64-.21,5.68-.49,8.08-.78a.39.39,0,0,1,.31.11c1,1,8.6,7.88,32,10.2h0c.85,0,37.68.59,50.15-4.47a.37.37,0,0,1,.18,0c1.69.23,26,3.52,48.7,7.36,22.89,3.86,202.28,29.07,212.41,30.49a.38.38,0,0,0,.42-.39l-4.06-74.2a.37.37,0,0,0-.35-.35Z"/><line class="cls-17" x1="1741.61" y1="683.73" x2="1775.53" y2="678.28"/><path class="cls-18" d="M1741.61,683.73a50.47,50.47,0,0,1,8.23-2.91c2.78-.74,5.59-1.33,8.42-1.79a81.08,81.08,0,0,1,8.54-.94,49.15,49.15,0,0,1,8.73.19,49.82,49.82,0,0,1-8.23,2.91,81.17,81.17,0,0,1-8.41,1.79c-2.83.45-5.68.77-8.55.94A50.13,50.13,0,0,1,1741.61,683.73Z"/><line class="cls-17" x1="1743.67" y1="706.53" x2="1774.87" y2="702.62"/><path class="cls-18" d="M1743.67,706.53a41.93,41.93,0,0,1,7.61-2.53,72.24,72.24,0,0,1,15.59-2,42.69,42.69,0,0,1,8,.59,42.76,42.76,0,0,1-7.61,2.54,72.22,72.22,0,0,1-15.59,2A41.85,41.85,0,0,1,1743.67,706.53Z"/><line class="cls-17" x1="1746.43" y1="727.15" x2="1774.4" y2="724.66"/><path class="cls-18" d="M1746.43,727.15a34.67,34.67,0,0,1,6.85-2.18,58,58,0,0,1,14-1.25,34.05,34.05,0,0,1,7.14.94,33.33,33.33,0,0,1-6.86,2.19,57.23,57.23,0,0,1-14,1.24A33.88,33.88,0,0,1,1746.43,727.15Z"/><path class="cls-19" d="M1921.92,480.93s-15.83,1.4-33.05,4.31h0c-9.86.79-14.95-3.78-15.25-4.05l0,0c-.75-.51-25.17-17.07-28.42-19.52S1825,444.21,1825,444.21a39.32,39.32,0,0,1-11.33-25.31v0c-.08-.46-2-11.77-7.29-7.33s-8,19.84-4.87,27.35c2.87,6.88,15.69,22.05,17.85,24.58a.31.31,0,0,1-.15.49l-12,3.57a42.1,42.1,0,0,0-11.76,5.49c-4.48,3-8.92,7.38-7.78,12.22,1.71,7.19,6.54,7.67,8.58,7.54a.3.3,0,0,1,.24.52c-1.77,1.79-6.16,7-3.27,12.84l0,0a9.8,9.8,0,0,0,8.77,4.64.3.3,0,0,1,.26.47c-1.08,1.61-4,6.7-1.26,10.66,2.62,3.76,5.63,4.57,6.78,4.75a.3.3,0,0,1,.22.45c-.67,1.17-2.18,4.7,1.26,8.52a.86.86,0,0,0,.13.14,12,12,0,0,0,12,3.47c2.1-.57,4.51-1.25,6.41-1.84a.27.27,0,0,1,.26,0c1,.67,8.15,5.07,27.4,3.42h0c.69-.12,30.54-5.19,39.86-11.16a.26.26,0,0,1,.15,0c1.39-.07,21.52-1.06,40.47-1.38s167.88-7,176.28-7.33a.3.3,0,0,0,.28-.38l-14.45-59.36a.3.3,0,0,0-.33-.23Z"/><line class="cls-20" x1="1797.04" y1="492.33" x2="1823.64" y2="482.81"/><path class="cls-21" d="M1797,492.33a44.84,44.84,0,0,1,6.25-3.49c2.15-1,4.33-1.89,6.55-2.69s4.46-1.49,6.75-2.07a44.25,44.25,0,0,1,7.05-1.27,45.88,45.88,0,0,1-6.25,3.49q-3.23,1.5-6.54,2.68c-2.22.79-4.47,1.49-6.76,2.07A45.41,45.41,0,0,1,1797,492.33Z"/><line class="cls-20" x1="1802.14" y1="510.44" x2="1826.76" y2="502.58"/><path class="cls-21" d="M1802.14,510.44a37.6,37.6,0,0,1,5.8-3.08,62.23,62.23,0,0,1,6.06-2.28c2-.65,4.13-1.21,6.25-1.66a38.63,38.63,0,0,1,6.51-.84,36.72,36.72,0,0,1-5.79,3.09,61.52,61.52,0,0,1-6.06,2.27c-2.06.65-4.14,1.21-6.26,1.66A38.63,38.63,0,0,1,1802.14,510.44Z"/><line class="cls-20" x1="1807.47" y1="526.7" x2="1829.7" y2="520.48"/><path class="cls-21" d="M1807.47,526.7a30.21,30.21,0,0,1,5.24-2.69,51.88,51.88,0,0,1,5.47-1.87,48.56,48.56,0,0,1,5.65-1.24,29.16,29.16,0,0,1,5.87-.42,29.85,29.85,0,0,1-5.24,2.69A51,51,0,0,1,1819,525a48.85,48.85,0,0,1-5.64,1.24A30.06,30.06,0,0,1,1807.47,526.7Z"/><path class="cls-22" d="M1667,733.67s-18.8-4.51-39.78-7.81h0c-11.66-2.9-15.77-10.13-16-10.56l0,0c-.66-.88-22.43-29.41-25.23-33.5s-16.49-27.88-16.49-27.88a47.84,47.84,0,0,1-3.29-33.57s0,0,0,0c.09-.55,2.27-14.33-5.57-11.26-8,3.12-16.91,19.79-16.19,29.66.65,9,9.58,31.49,11.09,35.24a.37.37,0,0,1-.36.51l-15.27-.54a51.17,51.17,0,0,0-15.68,1.79c-6.34,1.77-13.14,5.06-13.69,11.08-.81,9,4.58,11.38,7,12a.37.37,0,0,1,.08.69c-2.73,1.38-9.83,5.74-8.74,13.54v0c1.26,6,6.4,8.14,8.33,8.74a.37.37,0,0,1,.11.65c-1.87,1.44-7.23,6.17-5.58,11.8,1.58,5.36,4.73,7.45,6,8.1a.37.37,0,0,1,.08.61c-1.23,1.09-4.33,4.57-1.84,10.31l.09.21a14.61,14.61,0,0,0,12.51,8.64c2.64.15,5.68.31,8.1.35a.34.34,0,0,1,.29.15c.87,1.15,7.43,9,30.28,14.54h0c.84.14,37.23,5.82,50.28,2.54a.28.28,0,0,1,.18,0c1.64.46,25.24,7.1,47.21,14.05,22.14,7,349.93,101.57,359.76,104.39a.38.38,0,0,0,.48-.33l-10.69-92.61a.37.37,0,0,0-.29-.4Z"/><line class="cls-5" x1="1518.6" y1="698.55" x2="1552.95" y2="697.86"/><path class="cls-23" d="M1518.6,698.55a38.48,38.48,0,0,1,8.55-2.3,63.44,63.44,0,0,1,8.57-.76,61.92,61.92,0,0,1,8.6.41,37.42,37.42,0,0,1,8.63,2,38,38,0,0,1-8.54,2.3,62,62,0,0,1-8.58.76,63.58,63.58,0,0,1-8.6-.41A38.61,38.61,0,0,1,1518.6,698.55Z"/><line class="cls-5" x1="1517.48" y1="721.42" x2="1548.91" y2="721.87"/><path class="cls-23" d="M1517.48,721.42a32.38,32.38,0,0,1,7.89-2,53.55,53.55,0,0,1,15.72.22,32.34,32.34,0,0,1,7.82,2.25,32.31,32.31,0,0,1-7.88,2,52,52,0,0,1-7.87.47,53.25,53.25,0,0,1-7.85-.7A32.83,32.83,0,0,1,1517.48,721.42Z"/><line class="cls-5" x1="1517.35" y1="742.22" x2="1545.39" y2="743.64"/><path class="cls-23" d="M1517.35,742.22a26.81,26.81,0,0,1,7.12-1.77,42.54,42.54,0,0,1,7-.23,41.62,41.62,0,0,1,7,.93,26.57,26.57,0,0,1,6.9,2.49,26.46,26.46,0,0,1-7.12,1.78,42.71,42.71,0,0,1-14-.72A26.9,26.9,0,0,1,1517.35,742.22Z"/></g></g></svg>